/* XPM */
static char *BRICK_3D1739968828[] = {
/* columns rows colors chars-per-pixel */
"64 64 138 2 ",
"   c gray5",
".  c #1E0707",
"X  c #13110F",
"o  c #16110D",
"O  c #1C130F",
"+  c #131313",
"@  c #1C1817",
"#  c #1A1E1E",
"$  c #1E1E1C",
"%  c #201711",
"&  c #221815",
"*  c #261F1B",
"=  c #2B1E18",
"-  c #2B1F18",
";  c #00261E",
":  c #113115",
">  c #123316",
",  c #153516",
"<  c #133718",
"1  c #13371A",
"2  c #16391A",
"3  c #173B1B",
"4  c #183C1C",
"5  c #183C1E",
"6  c #23201E",
"7  c #33231A",
"8  c #33261F",
"9  c #37261E",
"0  c #002C24",
"q  c #093C23",
"w  c #00352C",
"e  c #232322",
"r  c #262422",
"t  c #2C2622",
"y  c #2B2A27",
"u  c #282D2F",
"i  c #3C2C24",
"p  c #302D2B",
"a  c #342C28",
"s  c #30312D",
"d  c #35312D",
"f  c #37342F",
"g  c #39372C",
"h  c #393734",
"j  c #3C3931",
"k  c #343939",
"l  c #412C20",
"z  c #412C24",
"x  c #4D3527",
"c  c #4D3B26",
"v  c #4D352B",
"b  c #433D34",
"n  c #1F491A",
"m  c #234318",
"M  c #244418",
"N  c #26441A",
"B  c #27451A",
"V  c #26481C",
"C  c #28491E",
"Z  c #2A4C1F",
"A  c #2D5F1B",
"S  c #395B1B",
"D  c #395E1F",
"F  c #3C5F1F",
"G  c #3F5F1F",
"H  c #00442C",
"J  c #0A482B",
"K  c #155028",
"L  c #0B5633",
"P  c #2B4C20",
"I  c #2B4D20",
"U  c #305226",
"Y  c #1C733C",
"T  c #3D6223",
"R  c #406B1C",
"E  c #506B17",
"W  c #506B18",
"Q  c #516D18",
"!  c #546D18",
"~  c #516E1C",
"^  c #507418",
"/  c #55701C",
"(  c #56731E",
")  c #58731F",
"_  c #58741F",
"`  c #5A761F",
"'  c #5B402F",
"]  c #41403C",
"[  c #406323",
"{  c #406324",
"}  c #416726",
"|  c #436726",
" . c #436927",
".. c #456A27",
"X. c #466A28",
"o. c #486E2C",
"O. c #496F2C",
"+. c #5A7720",
"@. c #3D4545",
"#. c #494540",
"$. c #4A4643",
"%. c #4A4A41",
"&. c #494D46",
"*. c #585444",
"=. c #555048",
"-. c #555149",
";. c #58524E",
":. c #5D594D",
">. c #495254",
",. c #5F5951",
"<. c #5F5F58",
"1. c #656159",
"2. c #67635E",
"3. c #6D6559",
"4. c #706954",
"5. c #776F5E",
"6. c #726B63",
"7. c #737365",
"8. c #70736A",
"9. c #77746B",
"0. c #747A76",
"q. c #867E66",
"w. c #63A216",
"e. c #408B28",
"r. c #8D8672",
"t. c #878078",
"y. c #9E977B",
"u. c #868B80",
"i. c #999183",
"p. c #979891",
"a. c #A7A18B",
"s. c #A2A497",
"d. c #ABAA97",
"f. c #ADB0AB",
"g. c #B4B6AF",
"h. c #BDBDAF",
"j. c #AEB4B0",
"k. c #BEC3BF",
/* pixels */
"v i v v ' ' v ' v v v v i i i i i v i v ' ' ' v ' v v v v v v v v i v i i i i v v v v v i i i i i v i v i i ' v ' v v v v v v v ",
"y.t.9.2.2.' a.k.j.a.a.y.y.a.a.a.y.t.9.2.2.' g.k.j.a.a.y.y.9.a.a.y.t.9.2.2.v a.k.j.g.g.y.y.y.y.y.y.t.9.2.i ' v a.k.h.a.a.a.9.a.a.",
"t.9.t.9.a v h.u.t.t.t.t.y.a.t.t.t.9.t.9.a v h.u.t.t.t.y.u.a.u.t.t.9.t.9.a i h.u.t.t.t.y.u.u.t.t.t.u.$.9.a v ' g.u.t.t.t.y.a.u.t.",
"t.t.9.t.L L L $.t.t.t.u.u.t.t.t.t.t.9.t.>.i a.t.t.t.y.u.t.u.t.t.t.t.9.t.>.v a.t.t.t.y.u.t.t.t.t.&.e.Y $.>.' a.:.t.t.t.u.u.u.t.t.",
"t.t.t.L L L w ] $.t.t.i.2.t.t.t.t.t.t.t.L c c 9.t.t.t.i.2.t.t.t.t.t.t.t.a i a.t.t.a.t.t.u.i.2.2.h Y Y ] a L L L $.t.t.i.2.t.t.t.",
"t.t.t.Y L w H c L $.t.2.2.t.t.t.t.t.t.Y Y Y w p t.i.2.2.2.t.t.t.t.t.t.9.a v 9.t.t.i.2.2.t.2.9.h $.w Y c c w L L L $.t.2.2.t.t.t.",
"2.t.t.h @ = w Y Y Y 9.>.>.t.t.2.2.t.t.e.Y w c r h h 2.2.9.t.t.2.2.t.t.2.a v 9.2.2.2.2.9.t.t.h L L c p h @ o w L Y $.9.>.>.t.t.2.",
">.>.a a >.7 h H e.e.e.a >.>.>.>.>.c c H # %   c c c L @ >.e e a >.>.a a >.' 2.a a a >.>.>.u Y Y Y w @ @ u & h @ u a a a >.>.>.>.",
"i i v i v v & L c e.w.= i i L L c w L L L H Y Y Y w c L L & i v v v v v v v i i i i i v & e.e.e.H O & v v v v v v v v i v v v i ",
"a.g.a.a.a.a.h c y r r h 9.Y Y Y w j w L Y g e.Y w p w c Y Y u v a.k.h.h.a.a.a.9.9.2.2.2.] w.e.L c c L :.a.a.a.y.y.y.y.t.9.2.2.' ",
"a.u.t.t.t.t.$.c j $.h 9.] e.Y w j s ] y ] ] ] ] y s y w c e.H & g.y.y.y.t.t.y.a.t.t.2.9.t.h X % w Y Y Y &.t.u.u.t.t.t.u.t.9.a v ",
"a.t.t.y.t.t.$.L L L $.] $.y X c *.] ] $.9.9.9.9.] ] ] Y Y Y w = y.t.y.t.u.y.t.t.t.t.t.t.t.2.@ = y w Y e.$.t.t.t.t.t.u.t.t.t.>.' ",
"2.t.9.t.t.$.L L L w c c L L c O *.u.9.9.9.9.9.9.>.>.e.e.e.H c = *.&.u.t.u.t.t.t.t.t.9.t.t.9.a i h c y p $.t.t.i.2.2.2.9.t.9.a i ",
"2.9.t.9.t.9.Y L w y L w Y Y Y O h 9.9.9.9.9.9.2.2.>.w.e.L r L c L L $.u.t.t.9.t.t.9.t.t.t.t.>.& L L c ] $.$.t.2.9.2.t.t.9.9.a v ",
"2.2.9.t.9.t.] p p Y Y Y w Y e.= >.2.9.>.>.>.9.>.>.9.u h y Y Y w Y Y Y $.t.2.t.t.t.t.t.t.t.t.@ Y Y Y w L L c c L L $.2.9.t.2.a i ",
"2.a a a >.>.>.u e.e.e.H X   u ' >.e a e a a a e a a a a + Y @ 7 H e.e.e.u >.a >.. >.>.a a e u e.Y w Y Y Y w w c Y Y u >.a a >.v ",
"i i i i i v i v w.e.L O 7 = v v v v v v v i v i i i i v v v = = o c e.w.& v i v i i ' v ' v v = = O e.Y w o O H e.e.e.7 v v v v ",
"t.a.y.y.t.9.2.>.2.7 :.0.j.a.a.y.y.9.a.a.y.t.9.2.2.v a.k.j.g.g.*.*.L c L *.t.9.2.2.' v a.k.h.a.a.a.] :.j g p c r L e.w.7.a.a.a.t.",
"t.y.9.9.9.2.9.2.e v h.u.t.t.t.y.u.a.u.t.t.9.t.9.a i h.u.t.t.t.*.Y Y Y w Y Y t.9.a v ' g.u.t.t.t.y.a.u.$.p L L c X O :.&.9.9.9.9.",
"u.9.9.9.9.9.2.9.a i a.t.t.t.y.u.t.u.t.t.t.t.9.t.>.v a.t.t.t.y.&.e.Y w c &.Y t.t.>.' a.a.t.t.t.u.u.u.t.$.$.w Y Y Y = y.9.9.9.9.u.",
">.9.9.9.9.9.9.9.e v 2.9.t.t.t.i.2.t.t.t.t.t.t.t.a i a.t.t.a.t.$.&.f r c L c $.9.a i t.9.t.t.t.i.2.$.c c L L w Y e.= >.2.9.9.9.t.",
">.9.9.9.9.9.9.2.e v 9.t.t.i.2.2.2.t.t.t.t.t.t.9.a v 9.t.t.i.2.2.$.r Y Y Y w c c L L 9.t.9.t.t.2.h c w Y Y Y p y @ v 2.9.9.9.9.>.",
"a 9.9.>.>.9.9.>.e v 9.2.2.2.2.2.9.t.t.2.2.t.t.2.a v 9.2.2.2.2.9.$.e.e.e.H y Y Y Y w c 9.t.t.9.>.L c L w Y e.$.h a v 2.>.>.9.2.a ",
"a a a a a a e e a ' 2.a a a >.a >.e e a >.>.a a >.' 2.a a a >.>.u w.e.L # # e.Y w o c L L a a Y Y Y w # # u a a >.' >.e e e e e ",
"v i v v v v v v v v i v v v i & i v i v v i i v v i v i i i i i i v & = = & 7 & % = w Y Y Y c e.Y w = = = i i i i i v i v v i i ",
"k.g.a.a.a.a.y.y.y.y.t.9.2.2.H H H y.y.y.y.>.y.9.>.>.>.2.2.>.' a.g.a.a.a.a.2.t.t.y.y.p w Y e.L g %.:.a.a.y.y.9.9.>.>.>.2.2.>.' a.",
"t.t.a.u.t.u.u.t.t.t.u.t.9.a w L L L 9.9.9.9.t.y.9.>.2.2.9.e v a.u.t.t.t.t.t.t.t.u.t.&.p L c H H H $.t.9.9.t.y.9.9.>.2.9.>.e ' g.",
"9.t.9.t.t.t.t.t.t.u.t.t.t.>.% w L L t.9.9.9.9.9.9.9.2.9.2.e ' a.t.t.y.t.t.t.t.t.t.t.$.Y Y Y w L L L ] u.t.9.9.9.9.9.9.9.>.e v 9.",
"t.9.t.t.t.t.i.2.2.2.9.t.9.a & c ] h 9.9.9.9.2.9.9.>.2.9.2.a v a.u.t.t.t.t.t.t.2.2.h e.e.e.H O w L L 9.u.9.9.9.9.9.2.9.9.2.e i 2.",
"9.t.9.t.t.t.2.9.2.t.t.9.9.@ L L c ] 2.9.2.9.9.9.2.>.9.2.9.e v 9.t.t.t.t.t.t.9.H H H w.e.c X 7 ] &.] u.9.9.2.9.9.2.9.9.9.9.a i 2.",
"2.9.t.9.t.t.t.2.t.2.9.t.2.Y Y Y w H H H 9.2.9.9.2.>.2.2.>.e v 2.9.t.2.2.2.t.L L L w c L r @ v 2.9.9.9.9.>.9.9.9.9.9.9.9.9.e i 2.",
"a a a >.a >.>.>.>.>.>.a @ e.Y w L w L L L a a a a a e e e a ' >.a >.a >.>.>.L L w c # X @ >.' >.e a e a a e a . a a e e e a i 2.",
"i v v c ' v ' v v v v i i & o o O L w L L ' v H L L L v v v L L L = i i i i = H c L O & i i i i v i v i i ' v ' v v v v v v v v ",
"q.9.6.2.' y.h.a.a.a.t.t.a.y.*.s Y Y Y w c L x w Y Y Y h v Y Y Y H H H 2.v a.0.w Y Y Y *.y.y.y.y.t.9.2.i ' v a.k.h.a.a.a.9.a.a.y.",
"0.q.9.p v a.u.9.9.9.9.t.y.9.] e.e.e.H   L Y w p H e.e.e.h e.Y w w L L L & L L c H e.e.e.&.t.t.t.u.t.9.a v ' g.u.t.t.t.y.a.u.t.t.",
"t.0.t.>.v y.9.9.9.9.u.u.9.9.] w.e.L y @ Y Y w p p L e.w.&.p u d L w L L Y Y Y w p L e.w.$.t.t.u.t.t.t.>.' a.a.t.t.t.u.u.u.t.t.t.",
"t.t.t.a v >.2.9.9.9.t.>.9.9.9.] ] ] ] + - e.u $.$.$.=.h $.$.d Y Y Y w @ e.Y w p j p p &.=.2.2.2.9.t.9.a i t.9.t.t.t.i.2.t.t.t.t.",
"t.t.9.a v 2.9.9.9.9.>.>.9.9.9.9.9.9.2.r v ] $.$.i.2.2.2.t.t.$.e.Y w c @ O c L L =.h h $.2.9.2.t.t.9.9.a i 9.t.9.t.t.2.2.t.t.t.t.",
"t.t.2.a v 2.>.>.9.2.a a 9.9.>.>.9.9.>.r v q.2.2.2.2.2.9.q.t.2.h p p c X = c Y Y Y h 9.t.t.2.t.2.9.t.2.a i 2.9.t.t.9.>.>.t.t.2.2.",
">.a a >.' >.e e e e r a a a a a a e e a v r a a a >.a >.e r a >.u X L L c r w Y e.u >.>.>.>.>.>.>.a a >.i 2.a >.a a a >.>.>.>.>.",
"z z z v i v v i i v v i v i i i i i g v i v v i ' z ' v z z i i = Y Y Y w O = & & i i i v i v v i i v i v v v v v v v v i v v v ",
"v a.g.d.a.a.a.2.a.9.2.2.2.9.9.2.' a.g.a.a.a.a.2.t.t.i.i.t.9.2.2.e.e.e.H %.:.a.a.9.9.2.2.2.9.9.>.' a.k.g.a.a.a.a.y.y.y.y.t.9.2.2.",
"v a.u.t.t.t.q.t.y.a.t.2.9.9.t.a v a.t.t.t.t.t.t.t.t.u.t.u.t.9.$ w.e.L H H H t.y.a.t.t.2.9.t.2.a ' g.t.t.a.u.t.u.u.t.t.t.u.t.9.a ",
"' d.q.t.i.t.t.t.t.t.t.t.9.t.9.a ' a.t.t.y.t.t.t.t.t.t.t.t.t.t.H H H p w L L L t.t.t.t.t.t.t.2.a v 9.9.t.9.t.t.t.t.t.t.u.t.t.t.>.",
"z 2.t.9.t.t.t.t.9.t.t.2.9.t.9.>.v a.t.t.t.t.t.t.q.2.2.2.9.q.L L L w L L w L L t.t.t.t.9.t.t.9.a i 2.t.9.t.t.t.t.i.2.2.2.9.t.9.a ",
"v 2.9.t.0.q.0.t.t.t.9.2.t.9.t.a v 9.t.t.t.t.t.t.9.0.2.t.t.9.L L w w Y Y Y $.t.9.t.t.9.t.t.t.t.>.i 2.9.t.9.t.t.t.2.9.2.t.t.9.9.a ",
"i 2.2.9.t.9.t.q.t.t.9.2.9.9.2.s v 2.9.t.2.2.2.t.2.2.q.2.9.t.2.@ = L w Y e.$.2.t.t.t.t.t.t.t.t.a i 2.2.9.t.9.t.t.t.2.t.2.9.t.2.a ",
"v 2.a a p >.>.>.>.>.>.>.a a r >.' 2.a >.a >.>.>.d >.>.>.>.p a u 7 # c # X u u a >.. >.>.a a e >.i 2.a a a >.a >.>.>.>.>.>.a a >.",
"i z v i v ' ' ' v ' v v v v v v v v l v z z z z v v v v v l z i & & L c L L L 7 v ' x x v v v v v v i v v ' ' v ' v v v v i i i ",
"a.i.q.9.2.9.' a.k.f.a.d.i.i.q.a.a.i.q.0.2.2.v a.k.j.j.j.a.i.y.y.*.Y Y Y w Y Y Y :.h.a.i.y.i.2.a.a.t.9.2.>.>.' g.k.j.a.a.y.y.a.a.",
"t.t.0.t.9.a v g.u.t.t.q.i.u.a.u.t.t.9.t.9.d i h.u.t.q.t.i.u.u.t.$.e.Y w y H e.e.e.&.9.9.9.r.a.u.9.9.2.9.2.e v h.u.t.t.t.t.y.a.t.",
"t.t.t.9.t.>.z a.t.t.t.i.u.t.u.q.t.t.t.0.q.>.v s.t.t.t.i.u.t.t.q.q.&.p p p c L e.w.b 9.8.u.u.t.9.9.9.9.2.9.a v a.t.t.t.t.u.u.t.t.",
"t.t.t.t.t.a v 2.9.t.t.q.i.2.t.t.t.t.t.t.q.a i a.t.t.a.t.t.u.i.2.2.2.@.d v v L u t $.9.9.q.>.0.9.9.9.9.9.9.e v 2.9.t.t.t.i.2.t.t.",
"t.t.t.t.9.a v 9.t.t.p.2.2.2.t.t.t.t.t.t.0.p v 0.t.t.i.2.2.t.2.0.2.L L L w Y Y Y U 2.9.9.>.>.9.9.9.9.9.9.2.e v 9.t.t.t.t.2.2.t.t.",
"2.2.t.t.2.e v 9.2.2.2.2.2.9.6.t.2.2.t.q.2.a v q.6.2.2.2.9.t.t.2.Y Y Y w r w Y e.h 9.9.2.t a 9.9.>.>.9.9.>.e v 9.2.2.t.9.>.>.t.t.",
">.>.>.t e >.v 2.a a a >.a P 6 r d >.>.a a >.v 6.a a a >.>.w H H e.Y w w H w & + e a e W * a a a a a a e e a ' 2.a a a a a >.>.@.",
"9 z v 9 i i = i i v z v i W 9 v i c v v v v v v v h v v L L L w L O o w L L L c i v i Q m i i i v 9 v v z v i c v i i i i v U x ",
"O.d.5.+.5.9.*.$.;.2.9.9.] ~ 6.f.s.a.a.a.a.i.i.i.i.q.9.2.J L w Y Y Y } ] ; L J 2.;.;.=. .$.l y.1.y.y.r.y.>.9.1.,.t.9.2.@.>.9 ..p.",
"} 4.} +.4.a.| ,.;.{ t.;.7 / U 6.T a.t.6.u.8.q.q.6.1.q.0.* W L H e.A ^ f 6.y.r.+.$.1.=.( 6 R a.<.1.` =.9.:.9.1...9.8.9.;.$ 7 O.4.",
"+.4 } +.,.6.} ` 6.,.P ;.* U 2 2.<...r.6.X.,.+.<.8.| ,.P q q L * q A T 3 6.,.6.} I 1.,.T 6 G q.=.1.( =.1.=.2.;.T =.1.=. .* B ` :.",
"` 4 P +.C 6.,.` =.| ..1.6 : B ,.*...4 ,.` 3.[ C $.[ X.K Y K w = b d B 4 ,.=.,.+.V =.+. .k B  .1.=.T =.Z =.~ k [ k { =.T + Q ` Z ",
"P { P | C ..,.I ,.Z ` 4 W [ 2 P ,.Z  .,.` 2 ` C ,.,.P e.Y 0 H H H =.I 3 ,.} ,.3 V :.( I T 9 B *.(  .=.=...~ #.~ Z 4 $.~ D B  .5 ",
"..4 | { Z 4 ,.V ..2 ` 4 E , { 2 X.Z | P ~ 4 C 4 #.P X.h + c w L L n 3 ,.4 P } 2 /  .3  .m 9 B ~ } 3 ^ V 3 ~ 3 ( V 2 3 Q > ,  .3 ",
", V 4 U : 2 S 3 C : B U , N 2 > U > B : { V 1 4 U N : a u c k w L n 1 B 1 T 1 T W , , U < B > > D , U 3 E : > G > D m D m B 3 > "
};
