/* XPM */
static char *Bricks_22_128x1281739968829[] = {
/* columns rows colors chars-per-pixel */
"64 64 74 1 ",
"  c #6F0850834448",
". c #6F8D5B444DBD",
"X c #7345542046C5",
"o c #7D1E5534459F",
"O c #7D2A582F472F",
"+ c #751156E84963",
"@ c #7E4B57044951",
"# c #761359BD4BEE",
"$ c #7B125C6B4DA6",
"% c #76435E6A508E",
"& c #7C3C5EFB505F",
"* c #7F69601F4F0D",
"= c #763061D853EA",
"- c #7DDA61E852EE",
"; c #7C4E67665915",
": c #77666A2D5B38",
"> c #7CEB6B835C8F",
", c #7C8370B35F75",
"< c #7DA36F1D6098",
"1 c #7EAF72AA63A3",
"2 c #7F087707688C",
"3 c #810457644660",
"4 c #817E5895476E",
"5 c #808E57A6499A",
"6 c #84A85C6D4CFB",
"7 c #894D5ED94E07",
"8 c #85D85F175040",
"9 c #893C5F74505F",
"0 c #82E1606F4F42",
"q c #8A3460DE4F28",
"w c #8392641D53BD",
"e c #8C6B63C652F3",
"r c #865968E15675",
"t c #8D6A68C955BE",
"y c #849F674A5849",
"u c #8BDF676457F6",
"i c #851B6B005B6F",
"p c #8A776BA95B5C",
"a c #91D366895579",
"s c #92756A205638",
"d c #98856E005740",
"f c #94186C1A597A",
"g c #98946F095A30",
"h c #840D70395F18",
"j c #8C3D71145EFC",
"k c #964070885BC2",
"l c #99A3713E5B4C",
"z c #834D6F53606A",
"x c #8D2E6F91604A",
"c c #83F573926452",
"v c #8B4373CE6379",
"b c #81C4784C67D3",
"n c #8D09796367E1",
"m c #83B7772668B3",
"M c #89B0778E6866",
"N c #84CB7B186BE7",
"B c #8A407BF36C81",
"V c #937374A06297",
"C c #9A5475056165",
"Z c #94C1799365AF",
"A c #99EB796D6574",
"S c #92BB7C946BCF",
"D c #86957F53708D",
"F c #8BAC7F9270AE",
"G c #927280B16F0F",
"H c #8763808971E3",
"J c #8BAB82937363",
"K c #8E3A87247873",
"L c #8F9288F57A06",
"P c #92FA84A87468",
"I c #96F78ACC765D",
"U c #91AC87F77860",
"Y c #93478A657ADE",
"T c #9A108C517AC6",
/* pixels */
"YYYYTYTPFPFFPFMFFBBBFFFBUFSx8xxxFFDN2212<<2mm2<<mmBDNMb211mDNm2N",
"BKSVfCCCCCCaxuuuuuuuaf9uffaau969xFDc;&%%&&&&-&&@&;;&----%&wy-;;=",
"zFVsffCCfgauu9999uuaaa9aaaaf99999BFz8&$@+@@&&&&##@++#&8&&$$@&&&&",
"pKxsffgkggauu998999uafa9aaaax9988mDz&8$#++&&w8&+++#+&8-&&$##&&&8",
"yFxafffffau99uu999uassae99x9a9u99mD<&&#+X#&&88$$#++@8&w8&@+#&&&8",
"wDxauffaaaa99999u9uffseeu99u99999mDz8&$+ #@8&##@#@+$w8w-$++$$8&&",
"wmxuafaaffua9u8u9auff9e99988u9x9uBDm86$XXX#8$#+$##$$&8-8$@@+#&8-",
"wmxuufuuafa9u98uu9usa999998999999mDc&$$+X#@$@++$+@8@8ww&&$+++&&y",
"iBjtssttua9uu999ttfpe6w688weppppzmD<#$+#####++++ ***O***8$##@$wy",
"vHvkjfstuuuu9989pnGMhii>zMMNFBFHBDD<%&;;;-&&##$#.***rrH*z;;;&&wu",
"HJJGPGGHBMMMzzzcHJKHNNHNNDDDD2HHFFmmmcNmm<z<<1<>:,HHHHHHN2221mBF",
"pvjZAZGjxuuxyy8zjHJJbc11><><>>>icMz;;=>;;%&%===%.:bGtrrHm1<c<cvj",
"stssdldddesteqassjHJi-*=&-&-w-wr88w&&&&$&#$$+X+#+:Hj77qtttqewqss",
"sstsjdkdssssssdssjHHirw*8-$-w--r8z&&&&&&$$$$#++#*:Hh77qttsstassd",
"fdffjddssssdfddssjHHiwy*$*-www-yyy&&&&&&$&$&$X##*,,hqqqqsseessdk",
"kkdddddssdstssssqjHJryw#Ow$---*wy8&&&--&&&&$#XX#*,brsqsqsteatsdl",
"klkdkkdsdsdskdksqjHByw-**0**--**---**-****#**X *=,2isqtssqtqsddd",
"dlddkdssfsllkdlldjHm--r*ww--w--*--*$----=***+..+*,Hisqqssstsdddd",
"dkkskssspfggsddldZKMrrwww-www*-*ww=*----+*.+++.**,biqsstqsqtdddG",
"kkjkkkkkkgggdllllGYBrpr;-*-yrw*-0-***w**#O******O,HjsettqddddddG",
"GHHHHjGGSFSSSnSSSUYKGGcchiihjhhhhihihihi;;yi;;;>,NNbvvjhhhGGGIII",
"JHNb,,,HBDFFDMSFFFPJHBMmMHHJNcvHmmbMNc1,,c,2HHH,HHHNHHHHHHKYIIKJ",
"cihw;rrryyyyppzppxppiiiriiHHwwww;wrw;0r0*0*0-=-hhhh;>hhhhGYYJnhb",
"iy---wrryywppupuipypuprprrvvr00**www00rrw***O**0000*0*000hULvirp",
"iy-w;yyyw&yxuuzyyuppppyuppxMr0w**0r000rrq000****0w****0w0rJKhppp",
"iww;yywy-yyyzuuyyyppyiyypyiBrrw0www0wrrqrrr00***w00***0w0rhHbrri",
"piyyy--ywwyuzuywppppyuyyp$yBprwwwrww0r0rt0tw0**O0*0**www0rHHcwrr",
"piiwyw;-&&yyuyyyyrpryyyyy-iNrrtrrrwwr0r00r00*0****w*000wr0hHc;ww",
"piyyy---&;8zy88yyypyywwwwiibi00rrrwrrr0rwrqww0***00*0w*w0wcHcwyy",
"piyyy---&&8yyyyyyyyywwyyywiHi**r0wrrsrr0rwt0ww0*w****0w00wcKMrri",
"iiw;----y&zzzxzzuiiiyyyip;;Hmy-wrrwwrw0wrrrqrrw*0***0**000vJBzii",
"MNmm122mmDFFFFFKJBFNmNDFJMcBNMbNGHb2,c2hjHHHHnjhjhhhvjciicNHJJBB",
"YLLKH2mmmNFSFFKYYLGHBHKYYGNNmMNHHHHHHHHHPMMBBHBHBmivMnMxzzmBFYYY",
"SBSVxyy99affgfnKJkjkjjVlZptteqwrhjhhhhyisqeustecNi9eaaaa999auxSS",
"fffau9999fgaaafFJsaaaesdsqqq046qqqqqq00q777qe77imueeaa9aaa9eaaff",
"gfau989aaaaaaafFJpaaasaaaeeqq656qttqqeqqaq7aqe7pMeae99aa9a9e9aaa",
"aaaa999aafuaeaaFJkssaaaaqqqq6677eeqqqqqqqq7qe77pBua9999999a99aaa",
"aaaaa9affaaae99MJfaaassqqq77767qee6qqtqqq777777pMua99u9999a999aa",
"aaCaaaaaaa9aeaemBseeeqqqq664646qqq66qqqqqa76679pMuaae999999aa99a",
"aaffaa9a9aa99eummea744644676665qeq77weqeqq76679pmsaaaa9aa999aaa9",
"auaau9u9u9eu9exDBq7433oo4q456666q7qq899ee997869cFx99aa99999aaa99",
"aaaau99uxxxxxVBJGrtt4OO*;ih06qq6qwwq889eee7988yDNxauaa9ua99u9u9u",
"MMSMMzMmDDDFFFJFHHHm1,,122b11bc1cccczzccmcicc<mmNNmccxmcxcMMMmMM",
"zxxMxzycMBDFFMmDmMMcc,,:1c1111N2iywwy8y8yyww;88zyyyyyyyyuyy-uyzD",
"uaaaua99ufgftseteeewr0006w666&c<8689966666565@@58599999895589882",
"xuafuuu9affsssteq7qeqq0qq60669zz865866666586@@@6899ua999955585;m",
"cuafffaasgssasee6qqeewq07q6eewic8@8865555665@@@6569aa999955855=m",
"xaffffausssaeaeq66qqeeq366w777ic8658555559966555699uuu9995855 %2",
"xaffsssssssuqeqqq6w0ee634qe066w<66666555@89665559959a9a9996@@@&D",
"xxgfseaaussaeew6066qwq4o4qqq66ic99955886669695666679a99986@@65yD",
"afffeweeessse6qq5@6eee7336qqeexM99966668659965@55559999666@@88yD",
"afffuqeeeaaaeeew66wwese7qweewpMBua998886869696@6995799658666998m",
"xxxfxyipphjvvMmcmcvvMSvvphmcccNNBMcczzpizmcii1<1uuxzmczzzyyw8uzm",
"BSMDmDNNBHNHHHHNNHbNHHHb1c<<><mmmczz<<<<<2::1112cmDNNNDmNmzcNmcm",
"999uui<mmchpjnncNN<:hi;$$%&--&=w8&%%%&%&=;;#%==<mmzyxxzz>-998888",
"aaaueeewwqqqsssrbb:$$-=#$$%-&&--&&&###&&&&&$%###<y99999656796679",
"qatetqqqqeqqsssrbb;$%&##&&&&&-&&%%%$##%&#%-$$$#X>e7qqqqq977767qq",
"etaeseweqeqqssqybN-&-&$$-&&---&%#%#&######%#%$#.>q77eqq76e7666qq",
"esesteeee0qesestmc-----&y&---w&&&##%++##X#$##$##>w77eqqqeqq766qq",
"qasstseeeeetssssv,-*$---tw---yw-&&##.+#+##%#####:07qqaqqqqqaqqqq",
"ssslsstusaeettssBi---**wsrw-yyyy8%##.#+###$$$###>tq7qaqaq7qqqqqq",
"sddlssssfssusatkBi---*$-jew-&-yy&%####+###&--##=crqqqqaqqq7qqeqq",
"fCCClCCCAZVVVvnvBmii1,hhkji;yyyyy&%%%..%=&$;-=$=chsattrptuqeweet",
"JYYYYTTYYYJKKKJJHHHHJKJKIJBBBBmMmmmmm<1c111Mbc11bbMBNBMBbcmBmbMN"
};
