/* XPM */
static char *Bricks_17_128x1281739968829[] = {
/* columns rows colors chars-per-pixel */
"64 64 49 1 ",
"  c #3F143AE1372C",
". c #3F433B5D37F3",
"X c #3FD53B5E376E",
"o c #415F3E6F3BED",
"O c #43B640D53E65",
"+ c #45BB44FE4475",
"@ c #489A46FF45B8",
"# c #4BB6490746CC",
"$ c #47A647AC47D1",
"% c #4B874B5C4B52",
"& c #50504B2B46CF",
"* c #51144E174BAE",
"= c #5470510B4E51",
"- c #587753174E8F",
"; c #4F854FB44FE0",
": c #4FEF4FC14FE1",
"> c #4FBF4FE55006",
", c #544453A6534E",
"< c #597756245389",
"1 c #5C43591B56A6",
"2 c #57235779580C",
"3 c #57B95819589D",
"4 c #5C755B855B0F",
"5 c #608A5BA35790",
"6 c #612C5ED05D1E",
"7 c #62F760BC5F20",
"8 c #5F605FA46046",
"9 c #5F685FF860C7",
"0 c #656E6410633B",
"q c #68CB670765D7",
"w c #6A38687E6756",
"e c #677167906831",
"r c #6CA56BC56B65",
"t c #70AF6F336E45",
"y c #7203706E6F72",
"u c #6F6E6FA3704D",
"i c #70116FD4700F",
"p c #6FC96FFF70A4",
"a c #73D373497342",
"s c #7889776376D2",
"d c #79FA788B77BF",
"f c #7744778A785B",
"g c #783277DD7825",
"h c #7B547AF77B2E",
"j c #80577F657F0F",
"k c #7F277F858074",
"l c #80707FF88038",
"z c #7FC5800E80F0",
"x c #824B823182A9",
/* pixels */
"%2,254=+OOOOOOXXXXX@&*@++@&:,,2,,<3*+OOoo+::%OO#,33*#+oO+oo+#&,:",
"4hatssrq77755qwq0060,$15<5651-5rqq7qw06w72*606114qrrw06555<2<16,",
"4aaay7wwwrsw77ttttit1$70q71664,6eq60rtttie$0wqte120q0ewwrr070eq,",
"4tqtr7rttwwyt7ttq7qa9+0q6607e066qq060rrwwq$9tqw71<6q0000qite0er:",
"1y707wtttyryyyyrtu0e4+qtree0qe7600746rq0e0$6rr0979qqqq0060rrree:",
"2swwq7wyyqyayysyiarr4+0rerr0709760q00eqri7$6er00097qe0wrr9690ei,",
"<syaytyrtasaywtsfaif6+qrrreiere90wre700rt9$6ereee9qqrreqqeee04r,",
"2sysyarrtasytrysgirh9+qiirrrrrrqeq0r05wrr9$6rerreqewqqeewrrrr0e4",
"4jasaatrtwaryrahfirk0$ririirtirqeqe797wqre$7r0rurqwqrriirriauuu4",
"2hzhhhhshhhhhshhkhkl8;effgaiaaaitraauiaaa0;4afaaiaaiaafafiaaaar,",
"%%%$@$#@@%%%%$%%%;%%;;;;%$$%$$%::%$$%$%%%%%%%%*%%$$%;;*#$$$%%%%;",
"srr71<&&**:,<240e0errue004,*&&@%***&&*4061190re5:&&%%;**&,59ruua",
"hharqwqqw7$eararq66qigatqrrr066%:wwttweiagaitrwqrqwr3$ttttdsatrr",
"rawyytyta0$eyee076<160etweqtrre%&teirw040iq667wwttai4@taastw00qw",
"wyryyystw0+0rreeqe04190irrrrtie%%ttair0665qee00riaai9+asaiq7660t",
"tqtraarar0+0rrwwqwe0660wirrtiie$*irrrerr0ertrrttwqwt4@saiqttttww",
"q0ywqwysae+0ae0500qe6<24q00ttre%*tre00uewr66qrr0qert9$saqqsdytw0",
"wwtw7wssae$er46qqq0rr01=1rrqqeq$:sreeeurewrq66qwtiii4@gt0waasaaw",
"rqrytrtshr+er00q0000600446rqwwr$:ararrrr60qrwqetttti4$awtw7wtass",
"satshhyyhf%raettar00rqitw67iags:,sghhgarwssisasagaah9#jhaaddjjjh",
"uuryaarrt9*306rrrqeerrrree90eue:,ririirrtiirtrrrrurr3:7aiiiaiiia",
"%$$@+++$++%%%%@+O+++%:%$+@$%;;%*%%:%%%;%%%:%#@++++@@$@+Ooo+oo++%",
"%16qq745114qrr6-<*<-%*,4<-20rurqeriritrrq9;4rtw7qrtw65<-1<56672@",
"=trrytrwqrqrrrrrtrrt3%66eq0909eure0re00err%ryqdarqwwttaaaw7tara*",
",arrriaarqqerrritrtr4$610r0970rre000qqq0wa%rkrtwqw0rttaaaaatrry*",
",wrrqitatr06qratrttt,$0940640eqere40e0eeee%thiwtatdtadaasdstttq%",
"*760rrtaarq06qtaaaaa4$0e004669qre66000qrqq%rgtttttdsitttwwwtrt0$",
"*t0,6qttair064raaaag8$ere0096366600e60eeeq$wtrtwttaat7600ttaaat#",
"*qq660qqaiare0660qrh0$ee0e090444errree76q0$thiradsttitttiaaaahi#",
"*rre6246isararq06qqre%rerrre99600rrrre0046%ilttgsirtiriaaifghjf%",
",sgaarqatsgsaauaaash0;rrraaarqetreuurrrrr0%ixjlxllhjkhkkkhklxxh:",
"%,2,,,2222343,233443;;;33333233483,3,,343,%:44343122443,,23333,%",
"OX O ..@,%%%,32<,=%#@+++%:,232,%%,,342,@%*%==$++OOXO$%+++OOXOOOO",
"7777qqqwdi%qaaae77147e09eayiyrr,3hiarrtwe77wrqqw7qqw3%yhssstrtwq",
"hjsttttuia$we46700wrrtpuriyrwis33fprww070erritiriaya0@jhyyysddjd",
"dssayyrady$ww7700rrwerruree740r,,ae6qww7euprwyiiirya0#arw7777ydd",
"ddddsfiiiw@0twwrrwrirrrrrw700wr=%q0q0qwwrrrrraiaaryr0@yq7ty777ts",
"yddhsfarr7+6reqqeqrirrreee0q0e0,=qwwqryrruerrpaai61q4$yyyyyq7777",
"7ydjgfitar+6w7ee0rerrerwq0q7477%,rqwrrryrere060we70w<$arttytt7tq",
"7wdhsdsadr+9terweirrree77010err%2yq0rayir000004<7wry4$rrtjyttyyt",
"swrfjkdgzp$0puueeppurewwrrq0ria,<rw0eiarewrar7767iia6$yayjssyahh",
"jjggxxxzzu%6sassaaur9ettassaasa,,rssayasaahfasaarass3%rhjjhjjjzz",
"*%%%%%;%%%::;%;%%%%%%%%$#%#O%%%@%#$$@@@@@%::%%%@%%%%%:%$O#@%$$%%",
"%=<69eerr0643<430eer3;0tq5--=<=*&O&#&&&&=:%271,==,,<4<<=5-<53,=:",
"=740600qrrrrritipiqw0%jzsttttwwyyyytyysyyr$eywriiw0rarrai000yyr,",
",rw99763<7wtuirrr0676%ittrttrrstyhhssdhdsi$erwwriwrreriirrr07ri,",
">rrrweq<<44767446ewae%yyyyrystsayahatrrssa$wyryierwweeraiaprera2",
",twrww96477<,474267we#sysdswsyshsyyyar77ya$eyrr07rrr07errwrprra<",
"3yrrw0qe797954q0004w0$jsyssytahhsrraaaprrs$wr770weewree7774150a3",
"3air7wrww74qe07904er0%saayyyqrwwwtaraharra%0w07rrrwrree7777<<,w<",
">wrr0errue46007747er0%haaayyryryyashhhhfaz%7yre00wwe407705re6<02",
"2qqirraiiiwwurirwprr0%xjddhjjhhhxxxxhhxxhz%ehyiiryrawwryyraaarr,",
">007rrererrwwererre02%0ayypappapaasprpaai<;3rrrrrrrr03errerrrr0>",
"%%%%%%%#$%;%+O+++O+$%%$OOO.O.++%:+O++++$$%%%@+$+++$@%::%$$$$+$$%",
"q667rsiq9=%=5<*-157yhy151---===@%<<<-1077wre7q1=,--<,>wre45<<12<",
"re7q9eiir7$7ywrrryrrattyayyasar%=yiaarwwreaayyrwwr0w3%siw0www00w",
"tirrr7wwiw+qtrstwr07rysaaiasffp$,yraperre0raapytpree4$aywrrrerw0",
"ee009077qr+7yiwwrre0wraaasashff%=yrie0wer0erirwwprru9$0rryprwiie",
"qqre607qee$6yrwtrre47aasahssaha:,aiwerrrr060rrrysapa0$75qraaipie",
"iiwq96ewww$4yytirrr05rhsprwq40r%=r00raar7,=<7raaaaaa0$0<77waaprw",
"iwwr0e0wre$7saysaarr04earrrrrwr%%i067q01<44<<0isaaaa0$e470<3rr0r",
"iwwirueww0$6yyysaafrr07rssasssa>,aie77q70rw0000rpaer0$re507446wa",
"fpydfpfshr%7hssyaahhssfahhhxzxj,<hfsaaasffpfpsa0afff9%rhaaare0ea",
"394443244>%;4434334440944436993:,34444343384942:,496>>,443434<,%"
};
