/* XPM */
static char *Bricks_01_128x1281739968829[] = {
/* columns rows colors chars-per-pixel */
"64 64 206 2 ",
"   c #2ACD269E20E5",
".  c #2DD72B332402",
"X  c #32842D632610",
"o  c #32002ED22979",
"O  c #373F30AE2697",
"+  c #3862313326FC",
"@  c #358833112C25",
"#  c #3AF934C32BDD",
"$  c #371C37C82DC7",
"%  c #3BA43A382DAD",
"&  c #35B1357C30EC",
"*  c #3A45366C30CC",
"=  c #3705390F3314",
"-  c #3BEF3B93333A",
";  c #358837A6393D",
":  c #364D39163A4F",
">  c #3B1C3D5E3C14",
",  c #408C39E22E72",
"<  c #425E3C843384",
"1  c #42503E91396A",
"2  c #3B4E45212DF6",
"3  c #3D4F434033E7",
"4  c #3E1041763CFC",
"5  c #3F0C49DB3929",
"6  c #457741773630",
"7  c #4A7B436C36F0",
"8  c #41DD4A1E36E9",
"9  c #450D43123B5A",
"0  c #4B6944D73BBE",
"q  c #44C149473B77",
"w  c #4C2649AB3DCB",
"e  c #50D347833B9D",
"r  c #520349953E49",
"t  c #48E151A63E75",
"y  c #3AAD3E59412B",
"u  c #3E0841E342F2",
"i  c #42E8453042F5",
"p  c #4A6F46694134",
"a  c #45534A8C4413",
"s  c #4CE649ED4332",
"d  c #41BF461949E4",
"f  c #45734A6D4C36",
"g  c #4AE04CF14B97",
"h  c #53434CC54424",
"j  c #59534F544313",
"k  c #52364E8F4AEB",
"l  c #4ADA52F443AB",
"z  c #4B6F59B14378",
"x  c #4A5C56C14924",
"c  c #4C8752EF4CA4",
"v  c #54F8510145CC",
"b  c #59AB513B466F",
"n  c #528B588D434A",
"m  c #554D51C54D36",
"M  c #5B3754A54C6A",
"N  c #537E5AA84BB1",
"B  c #5D6F59184E18",
"V  c #461E4BF851E4",
"C  c #4B174E7951BF",
"Z  c #4DCB51BB53CD",
"A  c #4E6653215902",
"S  c #559553F852A1",
"D  c #59DC5652533E",
"F  c #554D596C56B8",
"G  c #5D22596D5581",
"H  c #525C560F5A82",
"J  c #55EC5A905D74",
"K  c #5D545BAA5AB5",
"L  c #605C563B496F",
"P  c #632959FA4E4F",
"I  c #6A395D694DD2",
"U  c #62D05BFF5448",
"Y  c #69375F1F52D6",
"T  c #61F55E685B7C",
"R  c #57DF659F49BC",
"E  c #59A861755697",
"W  c #5D5E61185C35",
"Q  c #6B6E6163559B",
"!  c #668467E257E5",
"~  c #64F861455D93",
"^  c #6B43640E5C55",
"/  c #710C66C45B44",
"(  c #73F369A15D92",
")  c #56155BE0625F",
"_  c #5ACA5EA5633F",
"`  c #60A85FA5602C",
"'  c #5C9A617A652C",
"]  c #5D5863EF6AB8",
"[  c #5F546A7E7645",
"{  c #6477636F6339",
"}  c #6A7866806329",
"|  c #679367F8678B",
" . c #6D3269246537",
".. c #641266796A40",
"X. c #68A1679C6879",
"o. c #655369906D6A",
"O. c #6B8C6B076BC6",
"+. c #702A67CE6101",
"@. c #73106BA26434",
"#. c #79086E2C62CB",
"$. c #729B6E606B0F",
"%. c #7C28715D65B3",
"&. c #75A271356D8F",
"*. c #7BA3745F6B16",
"=. c #7B6873A56C44",
"-. c #64FE6B6672EA",
";. c #6B8C6E3E72D2",
":. c #67156EFB78D4",
">. c #697E6F26784F",
",. c #70BA6FE071D5",
"<. c #6E95714F755B",
"1. c #6CD0730D7AF6",
"2. c #73DE7347744A",
"3. c #7ACA763A72BC",
"4. c #7D8F793075C6",
"5. c #737176407AF9",
"6. c #797677C478BC",
"7. c #75DC79237DD6",
"8. c #7BDD7B527C9B",
"9. c #809474756705",
"0. c #811576F56C85",
"q. c #853479B26D63",
"w. c #89CC7C736FEA",
"e. c #83B17B657356",
"r. c #89EE7EBA7272",
"t. c #826A7E2A7B7A",
"y. c #88347F5C789A",
"u. c #8C1081347629",
"i. c #864281127D77",
"p. c #8B4582FC7B92",
"a. c #953A87537689",
"s. c #919C864F7A4E",
"d. c #945F89467DE4",
"f. c #9B3F8D417D83",
"g. c #6E8476CD81DF",
"h. c #70D37781812F",
"j. c #75097B9383FD",
"k. c #7B327E118327",
"l. c #75A77ED989E2",
"z. c #79A87F9588A8",
"x. c #7E20812D85D5",
"c. c #779880158B08",
"v. c #7CCF83168C13",
"b. c #7D86862D91B4",
"n. c #7D6D89B197DD",
"m. c #8411831C8449",
"M. c #8AF5861C82D4",
"N. c #8D6688EF8665",
"B. c #835C86278BA9",
"V. c #865F88DA8DD6",
"C. c #8BD18AE18C13",
"Z. c #935D8B5B8464",
"A. c #98AF8D9682E3",
"S. c #93148E2E8B0C",
"D. c #9C0190458386",
"F. c #965B91148E17",
"G. c #9C8793BD8C4C",
"H. c #80D48775916E",
"J. c #839A8A4C93CC",
"K. c #8AEF8DF0942B",
"L. c #84FA8D9D99C4",
"P. c #88DB8FD999A8",
"I. c #91F4900991C3",
"U. c #8F11913895EF",
"Y. c #87CA913A9D25",
"T. c #8D0392FC9C9E",
"R. c #940292A993F6",
"E. c #9C1D975794D4",
"W. c #9EE798ED9537",
"Q. c #93D696429C1E",
"!. c #99A7980098E5",
"~. c #9BF99A769BFB",
"^. c #A263959687CE",
"/. c #A26C96A28BE1",
"(. c #A3C79ADF93E6",
"). c #A3189D909ACA",
"_. c #AC6AA19397B0",
"`. c #A635A0B39C96",
"'. c #8695933FA22D",
"]. c #8DB79657A243",
"[. c #8E3B9963A8D8",
"{. c #95B39A6EA2D4",
"}. c #9BA69DD8A3E3",
"|. c #936A9D93AB20",
" X c #98DD9F88AA63",
".X c #969BA0D9AEBC",
"XX c #9BC9A200AC5E",
"oX c #9BAFA570B39D",
"OX c #9CB0A8C9BA88",
"+X c #A480A32CA53F",
"@X c #AA07A5A3A47E",
"#X c #AD4DA9F2A6EE",
"$X c #A2CAA4C2AB4F",
"%X c #B2E6AB8DA700",
"&X c #B307ADC3AB57",
"*X c #B944B2F1AF79",
"=X c #A24AA75CB13F",
"-X c #A23CA999B5A0",
";X c #ACDBAE32B49E",
":X c #A517AE28BC13",
">X c #AED9B316BCC1",
",X c #B622B2EDB3D8",
"<X c #B4BCB7C4BFED",
"1X c #C086BB02B930",
"2X c #AAC5B459C39F",
"3X c #B0E1B7D7C428",
/* pixels */
"7.U b Q ^ t.C.!.T.:._ _ _ ..) ) _ ` ] g 3 Z A A H H ) _ ) ) H -.j.5.m.h._ ..,.6.2.O.o.l.H Z ) H ) j.F 0 P M | m.o.] ] ) J ' ' ) ",
"K.C.S.A.G.(.!.(.,XL.v.k.L.H.z.'.z.z.g.u s <.<.-.....-.-.-.>.<.5.}.].}.H.o...;.B.B.l.j.x.:.-.>.;.v.P.] s B &.x.k.P.'.v.j.7.v.B.P.",
";.P.$XXX~.I.m.y.y.5.7.,.<.5.5.6.$.;.5.H m t.X.X._ { -.` ` K ` X.m.6.&.t.) o.X.m.8.X._ K ..K { { 5.1.) a M i.i.x.B.j.<.o.| ..| O.",
" .v.}.-XU.m.8.4.e.$.` T T U m U T X.<.f 9 U G O.$.$.X.D S D A k ` ,.6.,.G G ` } | G K { J k K S D _ ] u k &.t.$.D Q K ~ T m K D ",
"T 2.b.K.L.m.m.J.3.` S T G H U Y @.e.` ; 1 ~ { $.$.@.} G m G k S D X.2.o._ G D H K { Q P U G ~ S k { ..u i $.3.| G P T G J G G O.",
"G } 5.6.5.j.T S U U m S ` ..h.x.m.6.H ; p G U T { $./ } G S S m k k _ G T k H ` _ ~  .Q +.3.3.G D H C > 1 t.=.$.o.,.@.{ G D J T ",
" .@.{ G { $.D k $.U U `  .D T ,.m.$.H y k T ~ J { ,.&.y.,.k p k k H G G S k U ` { O.7.V.Y.K.2.G | K C u m A.e.^  .k. .{ K } ` ` ",
",.@.U U T T K } #.#.%.e.M m Y  .U D ) : p +.~ m D O.m.X.G D H ` X.T S k S k k k D S D }  .{ K ~ T { f a M Q u.r.( =.} T G U T O.",
"^ } ! ~ T U m  .y.y.A.e.%.r.%.+.s v S y p T m 7 1 s h p 0 s h T U s 1 e p h s 0 0 1 0 S K G  .@.( } g a t , I 9.r.y.^ k 0 r e b ",
"r B r w j B k < h j r 0 j r j j - O # 3 l 7 , @ # @ + @ + # X 0 h * , # # # < 0 0 < * j G 0 B h e 0 * l n r 0 b j U h + X + + # ",
"w 7 $ = 3 - - 3 # q 0 0 0 e h h 6 @ > q t 8 q - # - = - - > = 6 s > 1 - = = 6 k 0 < < < q - 6 3 k 7 l z R ! r L j 0 - $ = - - - ",
"k S ' ' ' Z Z { s o.W G h , s B F ] :.' c z W ] J J _ ..1.] ) _ 1.l.n.] -.' <.$.@.} ^ U ;.c.] _ 2.6.O.] N w e r m G N o.) ;.K 7 ",
"B.g.b.j.v.1.;.;.,.8.B.V.5.^ e.%.i.B.'.g.) s T 6.;.....,.V.z...t.x.j.;.;.-.o.k.3.%.=.y.r.m.S.5.-.5.6.2.-.f 7 m $.y.C.S.k.1.v.5.8.",
"o.{ o.<.5.;.' ..} ..;.X.2.C.R.y.M.$.O.;.) < T 2._ k S G ` ` H X.G S S K K G $.6.*.=.u.0.%.%.*.&.` S { { d -  .S.U.m.u.3.<.O.2.O.",
"S D { } &. .{ ..T { J { O.K.K.6.T K S ] V > U T _ S k k p k K ` K T T ^ K S O.{ $.=.0.( I I Q #.| G  .$.D 9 } $.{ ;.6.8.4.| } K ",
"G T { ,.6.2.{ k S T ` ;.V.C.{ D T K H -.V - G } T S G H s T $.` } } Q ^ } k S ,.B.M.Z.N.u.%.%.%. .` 2.y. .~ }.k.T G O. . .~ K S ",
"S } U D G T H U G D J ` +./ T m P T ....V d M.2.O.T G K S } 3.$.~ 2.&.$.&.K g | x.K.~.~.~.!.S.p.} S 6.t.m } ).4.U P T m b G G m ",
"s U T T P { K D T D X...^ Y Y U Y @.` _ y p e.3. . .G S S O.2.X.{ x.x.7.O.D S j..XoXoX-X:X-XC.O.S k T k.p ^ r.Y P Q Q ! P Q T D ",
";.} T ..,.e._ k k D M  .@.#./ @.=.$.` _ d 9 t.4.O.4.S S K S T $.{ { ~ S D G S O.2.k.C.{.~.m.$.G S s T m.a G Z.@.%.0.w.u.p.%.2.D ",
"{ =.U 0 k p k M h U U } @.=.0.9.w.e.U Z > w ^ } T =.m 0 k h p Q ^ G D &.4.{ 6 h s g 4.B.=.4.N.8.D 1 m U 6 j ).W.A.f.a.a.f.d.#.k ",
" .( ^ p X X , # p Y Q ( ( y.D.y.9.Q 3 O - 5 q 6 - 6 1 O X . # r j 1 6 M v 6 # @ $ O # 6 - s h B 1 # s w L U 3.#X`./.G.^./._.f.v ",
"q 0 g H y > _ J p 0 j P P Y $.Y M D J g f x F c S ..o.H d c 9 < 7 9 l i 4 u F g i d f 4 a g u a S g w j P L B  .e.@.+.U Q @.Q q ",
"E &.Q.>.;.k.K.K.4.t.p.A.y.A.a.r.p.s.).Y.g.j.c.g.K.{.=XP.:.j.>.g 6 O.b.l.v.l.b.g.j.g.c.n.].h.l.j.1.H.l.{ ~ M M U ( U U j B g W ] ",
"W $.} ..O.} @.@./ 9.0.w.w.A.).).`.).).b.7.2.8.1.5.4.e.e.o.O.z.C s t.V.v.v.J.k.5.v.7.j.B.].b.b.k.j.k.|.oX=X+X&X#X%X&X*X<X%X&XQ.[ ",
"D ^ T O.z.2.$.t.*.%.%.q./.&X,X;XXX=Xk.{ X.Y &.#.`  .@.=.X.K O.d q =.&.T ` ` ` { { O.5.5.j.8.2. .O.2.2.2.L.].{.!.}.(._.&X).).m.C ",
"9 U  .O.l.v.T.oXXXQ.Q.!.$X>X:X=XB.;.J } 6.V.B.y.X.;.m.t._ k a ; a e.%.T U U U T K | T | { O.T { { K U T ;.J.oXOXOXoX$X;X+XR._ d ",
"9 $.&.S { v.T.$X.XoX{.{. X:X}.` k k m U 6.7.$.=.} +.$.G D D V : 9 &.3.{ G m T G T K G ~ G K K { T U M G T 2.2.j.L.J.P.{.U.C._ C ",
"0  .P j B | k.t.;.k.5.m.B.m.^ k k G S K ` X.k.2.&.2.,.G K ;.H : 1 @.y.{ m k D G k ^ ^ G ^ ` ` T T ^ @.$.$.@.{ G J T 5.T.k.J ;.{ ",
"j h *.( Q @.i.~ ~ } | D S G k m D T  .T k G $.k.2.U G k m O...y p @.#.M j p e e r L r U @.T } G 2.t.4.i.M.3.{ U m D | O.K O.Q.{ ",
"B | XX>X;X$XC.D m k h s h p h M / @.%.T k s m U k S h p p h H y p $.@.X.D I I Y Y / %.=.^ U -.x.3.t.i.S.S.^ m T ~ Q G D U R.C.c ",
"! ! 8.x.M.8.} 0 < 7 < < # X # 1 @.+.T U 1 < < # # < < , < , @ & 1 M U 6.e.w.r.Z.q.f.).S.i.M 0 5.}.W.F.Z.B 0 s < j L b } W.N.p 1 ",
"t 8 v w k 1 0 s 1 - % - * . . # , + , < * * * @ o o # * + @ * g 3 # # @ i h r 1 L ( T 9 - @ # k U m s 0 1 < 1 @ o # * @ 6 > - q ",
"[ ] J.b.oXT.k.M B N X.;.-.' -.1.h.j.-.` ] _ _ ] 1.) o.-._ ) ) _ ..g._ A ) ' ;.g 0 h S 5.H A >.t.V.k.k.m.m.B.K.g.A -._ A ) ) -.:.",
"L.5.V.v.T.T.XXv.l T T.{.].L.XX$X+X3XXXv.b.b.b.T.L.l.J.P.g.j.j.H.].3X|.J.L.[.|.n.0 h N.V.-.5.H.U.V.M.S.S.S.S.(.Q.-.v.b.z.b.b.v.L.",
"<...2.{ J O.8.l.s K e.4.2.o.6.t.y.~.I.6.j.5.,.z.>.5.k.>...,.;.;.O.k.v.&.t.v.2.-.p k ~.8...{ X.z.P.T.Q.T.{.Q.B.<.{ { { ' | <.<.k.",
"X.' K m D | S d = U @.6.$._ 6.t.C.t.` X.` ` T T X.O.X.K ` K G K T } | ^ +. .{ V - m e.~ T G k S K 5.5.8.7.O.D ^ 2.{ K K S T { O.",
"O.` K S T ~ { :.4 G e.2. .{ 5.5.m.0.O.` ` ` U ` ` T T T T S G S k S { X.$.=.@.V & s +. .S S D K T ;.2.5.X.T D +.2.K m G K S K ~ ",
"G D U T } 5.O.{ 4 | e.$.T | { } =.` T S k T D ` ` ` U U D U G D G T ` ;.t.G.t.d - k ^ T G k S T K D D { ..T } =.e.` { $.| $.T D ",
"~ ~ ~ 1.8.X.J f - ~ 4.} b B { ^ #.` T S k T U ` U ` T ` D J m m T { K X.y.I.;.C > m @...T K G G K U k T X.{ =.8.&.T | O.j.=.{ | ",
"8.N.&.m.2.S { C > G e.8.2.$.&.=.C. .G G G T U U  .=.T m T J k D G T K 5.B.m.{ ) > B $. .T ^ +. .} G m U ^ X.6.m.i.{ T | } &.*.=.",
"i.^ P / @.{ @.c > Q M.m.<.C.m.2.X.D T h 1 M ,.=.T h P } ^ b 6 h h e h T T m U H > U U j Q $.#.@.3.4.@.~ b ~ B.M.i.h P } Q ^ / ( ",
"h 0 h B w 0 w p 5 w 0 7 < # < # , < , o # , 0 P 6 # 0 B L 0 O 1 1 # O X # < 7 - 2 p 0 # 7 w j h w v P ~ a # s v m X 1 k 0 h j j ",
"B / ( +.9 9 q 9 N z - * $ $ & @ # * . X o & @ * $ $ + % % @ % = & & # o $ o @ 6 5 g 9 a = - B ^ w < 0 h a 9 - E c i a l M b s b ",
"r q./ U w S -...1.j.;.1.-.' H ) ) _ _ >.' ) ) 1.J ] ' 4 5 ' <.-.-.-.-.-.v.b.g.L.l.l.:.1.K.{.C.R.t.m.J.l.j.:.c.Y.l.'.5.n P U j e ",
"B T m | | 5.U.n.J.v.v.K.L.B.k.K.k.5.z.U.V.h.B.K.z.T.l.V i t.V.H.z.x.C.8.V.K.j.P.P.b.v.v.K.XX:X:X{. XK.k.v.H.T.[.H..XOXD h U | G ",
"].:X.X{.x.2.R.2.j...$.O.;.5.t.t.@.T { ;.2.,.j.2.;.2._ y 1 @.4.O.O.} } T ( ( $.2.<.<.;.<.;.2.6.6.5.5.O.~ @.&.&.3.5.j.1.p 6 =.{.T.",
" .6.2.{ { } K D G S G D S U } } U T @.} X.T ` $.T K _ y 1 @.&.{ { G U ^ / Y @.T T { | ~ O.{ T B G G h U / / =.=.+.K H > a =.e.O.",
"r L U b ^ G m m D D m S s e h M $.T ( T T { T T T T _ y 1 &.&.T D _ 2.4.m.8.,.S m T D ~ ~ ~ ..-.^ Q Q / %.q.y.i.3.X.H d a 3.Q e ",
"Q / Y Q #.T G h m h b K U T / / +.+.0.$.` K ` D m D ) d 9 e.2.T G ;.k.t.$.^ { S S W K &.&.1.7.;.2.t.N.N.A.D.u.N.M.5.) V g m.6.U ",
"p.G.0.q.3. .K K G S T ` 2.$.3.Z.p.M.B.,.K K K +.` ` C d i &.=.G G `  .%./ @.@.D G | O.8.&.~ m B ^ ( e.d.G.E.C.!.m.;.] y 9 t.K.V.",
"S.Z.Z.t.0.Q G D T ..%.^ i.m.I.}.~.R.t.} T M U `  .K C d 9 3.=.G s K #.e.%.=.} G { U b ( O.O.7.i.Z.F.+X,X&X@X;X$X2.O.) y q 0.2.N.",
"0.r.r.9.*.( Q b M T *.@.=.0.e.Z.W.y.^ p 1 r M +.G p p 1 % b / U 1 ` t.s.s.F.M U } B.i.i.t.U.{.XX~.~.`.).(.D.s.} j b m > s / 0.3.",
"D.s.f.f.a.q.9.I %.y.y.y.e.e.=.( Y 1 , + X , , m < + X o 6 6 1 6 X 1 1 < + 0 < < v U h s s w B M s 7 0 U h 7 h 7 6 v v a R < P q.",
"B h b 0 e h 7 3 0 k { o.,.<...C d d 1 y 1 1 d H d C H d c S K _ i i k O.-.c 3 3 8 L M 7 s u a n m h e L b v h > - - m c x w < h ",
"} k h h G J c s { }.B.J.:X2X{.1.v.b.>.g.g.>.V.-X].{.H.>.l.k.k.v.z.h.1.m.|.|.E 6 n ~ T D j.j.j.~ ~ G h m S c.b.l.|.c._ >.j.7.m B ",
"3X$XQ.K.V.5.) l N.{.,.z.H.m.8.;.,.h.,.;...,.j.V.C.C.k.6.k.2.8. .2.<.,.>.5.-.Z 9 ^ } 8.m.<.k.].2X3X}.k.| ;.L.n.v.Q.v.;.j.v.B.{.$X",
"Q.v.B.X.` H V s 3.+.+.` X.` ` $.` T U K D ` ,.` ` @.=. .` 5.X.H ` ` ` ` ` J y p e.$.D { K O.j.K.J.8. .J ~ ~ O.} |  .^ } { l.XXQ.",
"K ;...D ..' y a &.@.` m m G m T ` m G T } +.` ` O.$.@.G U ` T _ ,.+.` s L ;...S q.Q m  ._ D K ` O.;.;.~ G B P B B I U +.~ | 5.O.",
"m S D J @.k.d 1 Y $.` G s S ` U T K } X.` T m G <.5.&.T G G T J T T m p j #.X.1 Y / =.6.` G S S G K ;.,.~ *.3.9.%.( e.C.} ` _ S ",
"k m O.;.t.I.C < @.@.` T S T T T ` `  .,.` K G G ` <.1.` D D U T m ` ` `  .w.T , / d.i.T k S G k m K S U / #.w.u.d.Z.Z.6.G D J m ",
"S D m ` B.x.u - Y @.@.` U D G M T ^ ^ $.K D K D U D ` M S U m m D G ~ n. X;X,.< R.@Xy._ K G D D { O.O.8.4.F.F.Z.W.@X+X&.m G T T ",
"0 G  .$.6.J ; 1 +.+.M 0 h h b p j k m j r r h h h 0 h b p U M s s b }  .K.t.h 1 Z._.y.G S S k s S $.k.m.p.S.R.G.d.D.+X| h T / } ",
"1 0 U +.Y 1 ; < r < X + , , + X , , , , , < < , , , , , + + , , j G b G S b Y j Q /.r.h < h 0 7 0 %.Q.R.Q.`._.1X*X%X!.h h $.#.U ",
"* 1 < < # X 1 1 < # o X X o X X o o o o o , X X o @ o o # X * = 0 1 6 * < h U U e P r @   X X @ . w | i.M.U.+X~.S.&.* # 0 b h o "
};
