/* XPM */
static char *brickman_641741597352[] = {
/* columns rows colors chars-per-pixel */
"64 64 255 2 ",
"   c #020303",
".  c #0A0B0B",
"X  c #060609",
"o  c #0D0D13",
"O  c #130F16",
"+  c #15151C",
"@  c #18151A",
"#  c #140B0C",
"$  c #261319",
"%  c #381919",
"&  c #340B0C",
"*  c #1B1B24",
"=  c #1D1D29",
"-  c #181721",
";  c #211E29",
":  c #261A24",
">  c #371A24",
",  c #1E212C",
"<  c #22232D",
"1  c #2C222B",
"2  c #252631",
"3  c #2A2A35",
"4  c #2C2E3A",
"5  c #282733",
"6  c #2E313C",
"7  c #31323D",
"8  c #3D313B",
"9  c #3A282C",
"0  c #4C1712",
"q  c #47221E",
"w  c #5A231C",
"e  c #6A231D",
"r  c #462625",
"t  c #582B27",
"y  c #563735",
"u  c #4E3232",
"i  c #662B26",
"p  c #67332B",
"a  c #78332C",
"s  c #693735",
"d  c #773B36",
"f  c #702720",
"g  c #6D1F1B",
"h  c #6B423C",
"j  c #79433A",
"k  c #56423B",
"l  c #353742",
"z  c #4F3A41",
"x  c #6D3C44",
"c  c #3E424E",
"v  c #564B4E",
"b  c #694747",
"n  c #784947",
"m  c #685354",
"M  c #785857",
"N  c #76524E",
"B  c #6A5D64",
"V  c #755D62",
"C  c #74656B",
"Z  c #776973",
"A  c #6B636C",
"S  c #6F5D61",
"D  c #853D37",
"F  c #87382F",
"G  c #84443B",
"H  c #8C433B",
"J  c #89483A",
"K  c #93443C",
"L  c #9C4B3D",
"P  c #97473B",
"I  c #96513E",
"U  c #A5493C",
"Y  c #B64B3E",
"T  c #AA513F",
"R  c #C34C3F",
"E  c #833D46",
"W  c #8C4C43",
"Q  c #854A45",
"!  c #944B44",
"~  c #9B4C43",
"^  c #994B46",
"/  c #89554A",
"(  c #94534A",
")  c #9B534C",
"_  c #995647",
"`  c #8A5A56",
"'  c #985853",
"]  c #A44C44",
"[  c #AB4C43",
"{  c #A74B47",
"}  c #B34E41",
"|  c #BB4D42",
" . c #B04F49",
".. c #A35245",
"X. c #AB5345",
"o. c #A3534B",
"O. c #AC544A",
"+. c #A45B4C",
"@. c #AB5A4C",
"#. c #A65E46",
"$. c #B35245",
"%. c #BC5345",
"&. c #B4554B",
"*. c #BC544A",
"=. c #B45C4C",
"-. c #BB5B4C",
";. c #B75A47",
":. c #A65552",
">. c #A35B53",
",. c #AB5B52",
"<. c #A95956",
"1. c #B35C53",
"2. c #BC5C52",
"3. c #B55B57",
"4. c #A24B53",
"5. c #8C635B",
"6. c #9B6458",
"7. c #95644F",
"8. c #A9644E",
"9. c #AB6354",
"0. c #AC655C",
"q. c #A76858",
"w. c #B36254",
"e. c #BB6455",
"r. c #B3655A",
"t. c #B46B5C",
"y. c #BB6A5B",
"u. c #B86757",
"i. c #A7725C",
"p. c #B7735D",
"a. c #BA624F",
"s. c #8A6767",
"d. c #986A66",
"f. c #9A7169",
"g. c #876D76",
"h. c #997775",
"j. c #917179",
"k. c #A76B65",
"l. c #B26B63",
"z. c #BC6A63",
"x. c #A97568",
"c. c #B3736A",
"v. c #B87769",
"b. c #A97976",
"n. c #B67B74",
"m. c #885E60",
"M. c #C35245",
"N. c #C4564A",
"B. c #C35B4C",
"V. c #CB5A4C",
"C. c #CA5446",
"Z. c #D65D4C",
"A. c #C65D53",
"S. c #CA5547",
"D. c #CB6354",
"F. c #C46B5C",
"G. c #CB6B5B",
"H. c #C66557",
"J. c #D36453",
"K. c #D86857",
"L. c #C8725E",
"P. c #DB715D",
"I. c #CA614C",
"U. c #E66B58",
"Y. c #E6715D",
"T. c #E1624E",
"R. c #C66C63",
"E. c #C47A6B",
"W. c #C87567",
"Q. c #D27463",
"!. c #D37B6B",
"~. c #D87969",
"^. c #C37C73",
"/. c #CB7C73",
"(. c #D87C75",
"). c #D46F63",
"_. c #E87A67",
"`. c #F17661",
"'. c #B8836C",
"]. c #AD837B",
"[. c #B98478",
"{. c #AE836A",
"}. c #C7846D",
"|. c #D8826D",
" X c #CC8374",
".X c #CC8B7C",
"XX c #C68779",
"oX c #D68778",
"OX c #C9937B",
"+X c #D6937C",
"@X c #E4846E",
"#X c #E48C7C",
"$X c #E78775",
"%X c #EB947B",
"&X c #F4927D",
"*X c #F28E7B",
"=X c #A87D86",
"-X c #937A84",
";X c #798287",
":X c #90898D",
">X c #AC8685",
",X c #B98985",
"<X c #BA958A",
"1X c #B79897",
"2X c #B08C94",
"3X c #AB9F9E",
"4X c #C78A83",
"5X c #D78C84",
"6X c #C4938B",
"7X c #CA9687",
"8X c #D39384",
"9X c #D89889",
"0X c #CB9994",
"qX c #D89A95",
"wX c #C98C95",
"eX c #E78E85",
"rX c #E89688",
"tX c #F59B88",
"yX c #E99A94",
"uX c #F49C94",
"iX c #CCA28B",
"pX c #D8A28B",
"aX c #CAA496",
"sX c #D7A697",
"dX c #DAB29B",
"fX c #E6A488",
"gX c #F9A38D",
"hX c #E4A494",
"jX c #E7A89A",
"kX c #FDA493",
"lX c #F7A798",
"zX c #E7B49B",
"xX c #F3B394",
"cX c #DD9CA4",
"vX c #DEACA4",
"bX c #CEB0AB",
"nX c #E9ABA2",
"mX c #FAA9A3",
"MX c #E9B6A7",
"NX c #FEB3A4",
"BX c #FEB5AA",
"VX c #FDBCAB",
"CX c #F4B6A7",
"ZX c #F7BBB3",
"AX c #EFB9B3",
"SX c #EC9EA5",
"DX c #EAC1AD",
"FX c #FCC3A9",
"GX c #EBC5B8",
"HX c #FAC7B7",
"JX c #FFD6BE",
"KX c #FAC9C3",
"LX c #F9D6CB",
"PX c #FEE2CE",
"IX c #FFEDE8",
/* pixels */
"iX/ / J 6.' +._ q.+.8.8.,.t.8.p.{.dXdX'.8.I.I.P.Y.T.K.T.Z.K.Z.Z.J.D.8X8XL.G.N.-.$X;.Y &.B.} L oX$XH.J.Y.K.T._._.(.E.qXb.b.b.=X=X",
"MX[.f.{.{.q.8._ v.q.#.8.t.}..XOXOXdXOX{.#.#.T 8.T Y a.I.;.;.$.T ;.X.OXzXoXT $.T H.e.[ $.2.X.~  XF.-.B.J._.K._.R.r.k.` b N g.h.b.",
"JXPXPXLXDXDXDXFXsXOXiXiXpXpXzXzXFXiXzXdXdXOXOX{.{.7._ / 6.7.7.i.i.6.{.{.pX_ I H P I I L U L P }.p.}.W.;.*.2.K s x x b m B C C Z ",
"+XiXiXdXpXdXpXOXpXdXiX+X}.+X+X}.+X{.OX}.+XFXFXpXxXHXiXzXJXHXMX7XXXiX[.{.7XzXjX+X+X9Xt.p.}.n.'.rXOXOX%XrX(./.4.k.b.j.g.C Z A B A ",
";.;.Y a.H.B.T L.}.FX}.;.I.I.I.I.T.|.;.K.J.K.G.K.L.|.9Xv.F.|.e.,.w.,.w.0.E.E./.lXxXxXFXFX%X+X+X}.OX}.}.}.$X%XyXSXSX=Xj.-XZ A A B ",
"C.Z.C.S.V.R Y G.'.%X|.Y Z.T.T.T.T.U.U.U.Y.`.Y.`.`.@XyXt.] Y | | Y } $.$.-.;.T ~ }.'.8.8.{.8.p.{.'.+X}.}.|.#XuXSXwXwX=X-X-X-XZ A ",
"R R R R Y R I.;.u.+XP.Y R Z.Z.T.T.Y.`.Y.U.U.U.U.`.P.|.}.A.V.| M.| | } | %.| %.U 8.{.p.p.xXfXfXfXxX+X}.H.L.(.eX4XwX=X=X2X-X-XZ Z ",
"a.B.T a.L.G.H.|.'.+Xp.T I.I.I.I.I.K.Y.P.Y.Y.Y.P.Y.D.p.I L U  .} [ &.Y Y $.%.$.U I }.xXfXxXFX%X+X+X|.L.I.G.(.5XqXcXwX-X-X-XZ m z ",
"'.+Xq.i.XXi.i.6.{.OX7Xi.i.8.p.8.8.8.9.8.p.8.8.8.8.p.iX{./ 8.8.I J J I I I I +.q.7.i.OXzXOXOXOX{.i.}.^./.(.eXuXSXcXwX-Xg.C C v z ",
"OXiXpXdXdXpXzXzXDXJXHXMXMXCXpXfXhXpXOX+X+X+X}.}.}.+XDXiXpXCXdXpXOXpXzXhXjXfXfXCXzX[.{.{.'.'.{.}.7Xi F lXeXeXSXwXwX=X-X-XV z v z ",
"pX+X}.rXfXrXhXrX+XoX+X XE.!.W.W.oX+XfXoX|.P.L.|.%XxXxX+X+X+XoXpXpXMXOXl.!.!.F.Q.L.+X%X+XfXOXpX7X.XP ^ eXuXuXSXwX=Xj.j.V C v z 8 ",
"I T =.;.X.X.;.$.;.T $.} $.%.-.-.$.}.lXy.G.J.K.D.P.|.%X%XP.G.Q.|.v.sXXX! 2.A.B.B.I.I.+XxXrX|..X8X,.#.(.).eXSXmXcX=Xd.` x m z 8 9 ",
";.;.%.M.;.V.D.B.M.V.V.V.V.V.V.V.V.G.lXe.J.T.T.Y.K.K.K.K.K.Z.K.D.=.+X.Xo.-.V.J.J.K.K.J.J.D.H.|. X!.#XP L.#XuXmXSX=Xk.m.n t u 9 9 ",
"U T %.B.M.R N.Y M.M.M.M.S.N.V.M.} H.lXp.K.K.`.Y._.Y.Y.Y.P.Y.P.P.a.5XXX_ =.$.Y Y I.I.B.*.B.&.E.yXkXtX@X$X$XuXSXSX^.l.4Xn.n.y 9 u ",
"+.I K P Y U Y Y Y Y %.} Y *.U L X.1.'.I y.H.H.F.F.p.u.a.u.y.y.F.t.8Xx.t W +.u.eXH.u.u.9.t.v.+XBXkX&XtX&XuXeXyX(.<.W. XD yX( r z ",
"XX( >.#.H K P L ] L P L #.L F #.,.8.7XOXv.W.p.t.8.8.L.OXhX9X+X5X.XjXsXOXMXVXNX9XxXxXlXFXhXCXmXNXtX&X&X$X(.eXSXeXW.mXz.o.NX' % u ",
"GXdXDXMXiX7XaXsXsXaXiXaXpXCXFXCXVXVXHXHXFXVXVXhXrXjXxXHXBX5X8XlXlXrXrXeXeXoXlX%XL.kX|.tX).~.H.R.tX*X*XQ.!.uXlXrXuXoXg W.mXD & > ",
"LXdX7XzXJXHXHXCXzXHXPXdXOX.XoX8XrX+X XR.u.9...=.w.,.) XX9Xw.e.R.F.).D.*.V.D.~.lX@X|.gX@X*XP.G.$X*X*X$X~.(.eXeX(.eXF <.SX5X0 % > ",
"L.H.H.G.G.D.H.w.$.,.zXMXF.V.D.K.J.J.D.N.%.B.N.%.%.[ ] 5X!.[ *.V.A.V.J.M.).$XT ~.kX|.tX%XtX$X(.eX#X_.P.G.~._.Q.1.eXNXmXoXw & % % ",
"C.R R C.C.C.Y M.| T 4X8X%.K.T.Z.Z.V.Z.M.M.S.M.M.|  .P oX!.[ $.| N.&.N.} } [ T a.|.&X%X&X%XNXyX/.oXQ.H.D.Q.L.H.X.w.v.D 0 & q 9 % ",
"R C.R R R R Y M.Y T +X8X;.N.N.V.M.M.M.Y %.%.$.T T [ ! .Xp...L L P P _ 0.v.t.9.L.gXgX%XgXNXrXn. X!.~.G.G.G.H.;.X.~ e 0 e f p u q ",
"V.N.N.V.M.;.} [ I J [.{.K T U L U L X.X.X.e.=.X.#.v..XzX.X.X8X X8X9XnXhXpXVXCXhXfXgXxXFXHX0.c.^.z.Q.G.F.-.&.....+...9.q.I j y q ",
"-.&.=.w.w.0._ ( 7.7.<X<X7./ 7.x.'.7X'.[.9X9X.XzXAXMX9XyXrX5X9XFXNX9XlXoXE.'.9XpXhXVXFXFXHX/.l.k.0.z.3.O._ P J J ~ u.W.p.#.I h t ",
"E. X9XrXhXzXvXdXDXGXGXDXDXGXaXsXGXiX7X9XpX.X5X8XHX7Xt.y.O._ v.xX.XL =.&.|.fX9XXXNXHXFXVXCX( W 8.' >.) W d a a G ,.!.L.a.I J j t ",
"4Xn.9Xn.n.}.MXPXsXMXjX8XyXhXE.9.MX9XeX&X#X(.G.R.nXl.w.H.W.xX+XoX!.X.H.@X%XgXOXi.'.VXNXxXc.w k.k./ h h y t w j >.!.@XL.-.L J j p ",
"q.x.v.E.E.^.c.nX8X<.R.2.e.w.O.3.jX/.G.K.V.B.M.&.5X0.=.G.L.|.p. XE.0.y.u.u.8.{.x.J E.xX9Xj 0 b.Q q % 0 0 q t G t.~.|.Q.e.@.I J p ",
"K ~ ~ U U O..././.@.1.&.&.=.9.8.hXv.&.| } %.%.@.4Xi...@.@.! ( 7XOX7.i.q.i.i.7X<Xx.i.}.q.j 0 i.c.p t 0 & % q G F.$X$X~.G.e.+./ j ",
"] O.O.Q.H.H.@./..X~ &.&.=.@.@.J [.4X@.=.U X.O.@.hXXXt.E.'.c.{.sXXX.X.X X8X+XXXx.'.XXv.v.n.J J 8Xv.v.' Q q p ' F.(.$X@X~.y.#./ J ",
"F U U U U U I i.[._ ! ~ I ' I j bX6X( 6.x.v.v.XX X!.oX+X9X[.q.z.H.F.F.F.!.y.e.F.F.R.r..X+Xp.+..X..~ <.l.Q / y.L.P.*X$X@XQ.e.+._ ",
"! K K P P ] J XXMXn.t.v.}.7X0XMXDXdX4X9X7XOX4X/.u.G.G.u.7XdX9.e.A.G.J.2.=.e.A.A.-.=.P n.rXoXR.yX+.F a f e +.F.Q.Y.@X&X&X$XW.z.0.",
"k.k.x.XX5X8X0XMXjX^.oX5XMXCX.X/.w.=.2.F.;.H.).G.K.K.K.B.9XjX,.2.A.J.D.2.,.>.3.1.,.0.G >.fX!.v.oXl.i W ' l.0.L.|.@X@X&X&X#X(././.",
"4Xb.'.c.q.9.>.~ ..1.2.@.nX7XL Q.| | *.| M.V.V.J.J.J.J.B..XsX_ @.3.O.o.~ c.c.R.W.^..X8XXX9X.Xl.' AX7XXXv.p.u.~.@X@X&XtXgXyXyXqX5X",
"F D U {  . . .&.A.A.D.$.5XE.-.M.N.V.N.N.N.D.A.H.=.=.e.q.].aX0Xn.n.4X[.6XMXwX4X5XW.l.:.<.7X,X3XbXIXn.! :.:.1.Q.@X$XtXlXBXZXZXAXAX",
" .{  . .*.*.*.*.A.2.*.] ^.n.e.L.H.2.&.X.] O.] o.u. X X5XDXKXvX[.,X[.].KXaX' :.4.o.<.^ z.KXLXLXbXbXvXH o.d E 8XyXhXhX0XwX>Xf.s.s.",
"N.{ /.mX3.3.1.O.:.:.,.' 5./ j j d j / 7.f.x.qXnXmX/.r.3.1.o.^ o.! H d 0X=XD ^ { { 3.1.z.AXcXm 9 h.KX6.` % 9 m ` b u > $ @ + : 1 ",
"z.eXSXKXeXK d g w i a j ` ].].b.f.{.[.].aXPXqXc.) ] { { &.{ {  .L ! G [.5XQ ^ :.4.:.! j c.6Xv k v KXGXM : : $ O + * = 2 4 l l v ",
"l.KXmXSXBXa q b ` ' k.^.4X^.l.c.XX X@.) 6XGX>.&. .[ [ [ U ~ P K H ( n s.d.h n j Q n ` b.XX6XB v y :XbX: ; = ; ; , 2 , , 2 2 2 6 ",
"d yXZXSXCXnXk.x.c.k.<.' ^ { <.R.W.e.&.,.,XMX+.O. .] U ^ <.G D W ' / f.,X].b.6X0X6X].1Xh k.wXM v v Z v - = = < < , 2 , , 3 4 l l ",
"3.(.ZXBXlXVX+.~ oXr.~ {  . .{ { ] [ ;.,.[.aXW E H H D Q 6.f.6XnXMXAXGX0XqXqX X/.0.k.s.q / 7Xm.B Z B * = ; < 2 2 2 2 4 l 4 l l l ",
"*.R.BXBXeXlXrXO.F.X.[ { { { F U [ U U H n.AX[.l.XXv.k.].aXbX6Xb.5.d.' W :.:.3.3.<.` s.u ` n.m.C Z 4 , , < 2 2 5 2 l 4 2 3 l l l ",
"*.*.#XNX(.oXNXy.K P K G j ! o.5XmX(.^.qXyXqX5XeX(.W.z.z.AX,X! ! ' v.<.3.3.3.z.z.>./ x 9 i =Xm.m.8 ; 5 2 2 3 2 4 2 4 2 2 l l l l ",
"{ U u.tXkX!.lXrXK Q _ c.0X4XSXnX5X^./.^.l.<.1.o.{ { 4.{ wXk.) l.w.t.1.:.:.:.o.^ >.` m.` 3.=X=Xz : 5 2 3 3 6 6 6 l 2 , , 3 l l 2 ",
"_ J 0.9XlXoX#XBXZXjXZXZX{.6X6Xa g 4.&. . .{ o.{ ~ ^ W G b.5.) ) ( ! ' ' ( 6.z.4X5X5X4Xl.4.k.V : 5 5 5 4 6 6 6 6 l 2 4 l l l 2 l ",
"n.jXHX.XgX#XeXNXHX<X' / 6.MXn.w F 4. .3.O.^ K ! E a Q / ].k.q.n.^.n.7X[.4Xn.n.r.o.:.4.:.k.4.> 2 2 2 5 4 7 6 6 6 l l 4 2 = 2 2 , ",
"n.XXn.,.rX$XoXuXBXjXW d /.AX' w o.^ ^ ! G G d s b ` 4XvXAXMX9X5Xv.:.:.' /.' <.2.3.1.<.4.wXz > 5 5 3 5 5 4 4 6 l l l 4 4 2 , 2 = ",
"d d a D oXW.R.(.lXBXNXyXCXvXd s D ! ^ ' 6./ / b.vXvX0X[.l.' ! 9.<.] :.<.4X<.:.:.] ' ` 1X=X> 5 2 2 < 2 2 2 2 2 l 4 6 4 l l 2 = = ",
"D W K ! z.W.(.eXlXmXNXBXSXc.s b.6X4X4XwXHXb.,X7Xl.4.! o.o.o.,.,.,.:.! / b./ n ' k.,X2XLXz > 5 = = = 2 2 2 2 2 5 4 4 4 l l 2 = - ",
"D D H K <./.rXuXkXkXeX5X5XG d qXqXn.c.c.c.x.4X) ^ &.<.3.r.:.o.! K D ( x.6X1XsX0X,XN bX3X- 5 = = , 2 , , , , = , = 2 5 l 3 - = - ",
"d d a d _ /.rXtXkXtX#XeX8Xi a _ ^ ] ~ o.' k.n.' :.3.<.) W / ` b.,XwXvXqXXX0.<.<.4.i 2X8 * , + , , < , , = = = = - = , 7 < , * @ ",
"Q / k.x.k. X%XkXkXtX#XyXc.i ' ,.1. .{ ] ! ( x./ Q D ^ 0.,XvXAXsX,Xc.` ( ) 4.:.:.4.E z - = * < 3 < , , , = = * = = = , 4 * 1 3 * ",
"sXsX4X4X7XXXeXtXkXtXtXlXJ p _ o.,.o.! G n ` ].f.x.[.jXnXnXwX' ) ~ ~ :.:.:.<.) ^ x & $ = @ , , 3 2 , 2 , = = * = * = = 2 * * 3 ; ",
"o.! ! 0.0XXX%XgXkXgXkXoXi t G K K ! q.c.,XsXMXvX0X4Xl.6.6X' ! o.,.,.<.^ ! D E k.t $ $ * O . + @ + - * < , = = * * - * 2 < # * 3 ",
"&.-.X.0.aX0XoXgXkXgXkX+.t t 7.x.,X4XyX.X^.z.y.1.{ O.3.>.[.` W ! Q G n d 4.wXwX=X> > - O . , * + + - + + , - , , + , O , 3 @ . 2 ",
"&.&.X.' <XsX|.tXgXkXrXo.s f.0X[.l.l.t.o.O.2.2.2.*.e.t.' k.h d / k.b.t h.b.4.( x & $ O o * @ + + + , + * * , * * + , + , < o . @ ",
"o.! G Q aXMX.X#XtXkX$Xv.5.N q.o.O.;.-.H.A.;.A.1.~ Q d p 5.2X6X0X4Xf.u ` a E x 4.> $ = O O O @ + O + , , , , + o o + + o , o O + ",
"9.c.XX0XzX7XE.#XtXkXyX.Xy & a ,.2.B.2.X.[ @.P D ( ' 5.r b.>Xn d p d y M x a x t > : O O + @ @ + + @ - - + + . . o . O . o o O + ",
"rXE.R.w...L 8.OX8XhX[.q $ 9 0 J ,.I W i.{.b.[.dXvXb.b.n / d d D x j y v y h r > 1 + @ + + + + + - + + , o X X O o o o . O o o o ",
"@.X.X.&.;.8.I w d.h.% # # % p 7.<.4X0X].].5.5.` s p s t m.x s p i s 1X1X>X2X1 : : < < * * + + * @ + , +     o O o . X . O . + . ",
"B.-.;.&.$.) t 9 C B @ # # q XXE.yXnXc.E h b p s d n s r y y y M b.0XGX,XN r $ 1 ; ; = = @ + * + - , + o   . O . o .     . o . . ",
"-.&.=.L G a u v 3X;X, # & k./.(./.4.D D s b s p t i b 0X2XV >X=X5.b n n s > > 3 = * * * * + + + , + + .   . . . . .     . @     ",
"I G G / 5.h.j.v ;X:X$   p v.R.).(.(.4.E s m y n f.=X,X1Xh.f./ t s d s s y 9 : = + , + * + + + * @ + + X   . . . . .     . .   . ",
"sXAXGXLXKX1X2XS B A v X p v.R.).(.(.(.3.b.AXcX1Xd.n p i s =Xn p s p n m.m : ; * , * @ + - * @ * + + +     . X . . .     X   X . ",
"HXMX4Xx./ ` / n s.M u 0 s l.l.z.R.).(.(./.c.W i i d x d y m u m d.=X2X0Xz - = - + - * + - , , + + + .       . . .               ",
"/ G D a q.d.( d h s x p d >.4.3.3.).(.eX(.z.<.E E d d p V bX1XaX>XN j.b O ; * * , * * + + * - + + + .       . . .         .     "
};
