/* XPM */
static char *chimi_9_641741260423[] = {
/* columns rows colors chars-per-pixel */
"64 64 244 2 ",
"   c #100602",
".  c #2E1B16",
"X  c #3B3B3B",
"o  c #3A3836",
"O  c #352C28",
"+  c #332D1F",
"@  c #453A37",
"#  c #4E3828",
"$  c #3E403F",
"%  c #43423E",
"&  c #5B4A2E",
"*  c #75663F",
"=  c #735E3B",
"-  c #3E3E40",
";  c #413F40",
":  c #3E4043",
">  c #444443",
",  c #45494B",
"<  c #4C4C4C",
"1  c #494946",
"2  c #534D4A",
"3  c #52524E",
"4  c #5B554B",
"5  c #4B4E52",
"6  c #464C53",
"7  c #4D5254",
"8  c #4E545A",
"9  c #535453",
"0  c #535559",
"q  c #545A5C",
"w  c #5A5B5C",
"e  c #595756",
"r  c #545051",
"t  c #685948",
"y  c #655C57",
"u  c #6D544A",
"i  c #6C6356",
"p  c #7B6C5C",
"a  c #756757",
"s  c #726847",
"d  c #555D63",
"f  c #5C5D62",
"g  c #565662",
"h  c #635B63",
"j  c #5B6264",
"k  c #5C646A",
"l  c #5D696D",
"z  c #576064",
"x  c #5E6972",
"c  c #636369",
"v  c #636B6D",
"b  c #686568",
"n  c #756C64",
"m  c #7B7268",
"M  c #646D73",
"N  c #6D6C73",
"B  c #676975",
"V  c #736D75",
"C  c #657175",
"Z  c #6B7375",
"A  c #66737A",
"S  c #6B747B",
"D  c #6C797D",
"F  c #72737B",
"G  c #777779",
"H  c #8A7355",
"J  c #8B7C6C",
"K  c #857768",
"L  c #957C65",
"P  c #897D74",
"I  c #A17C5D",
"U  c #948455",
"Y  c #9E8365",
"T  c #98836C",
"R  c #8B8275",
"E  c #938474",
"W  c #9B8B7B",
"Q  c #978979",
"!  c #A48A6E",
"~  c #A4866A",
"^  c #A58C73",
"/  c #AB8D73",
"(  c #A28C7A",
")  c #A6927A",
"_  c #AA947C",
"`  c #A99476",
"'  c #B29376",
"]  c #B7997C",
"[  c #B0956B",
"{  c #B7A878",
"}  c #B8A871",
"|  c #AE8C5C",
" . c #6C7681",
".. c #6C7A84",
"X. c #6D7B89",
"o. c #727683",
"O. c #737B84",
"+. c #747C89",
"@. c #7A7C87",
"#. c #757D90",
"$. c #847D86",
"%. c #748186",
"&. c #74838C",
"*. c #7B838C",
"=. c #7B8488",
"-. c #758593",
";. c #7B8593",
":. c #7C8B94",
">. c #7C8D9B",
",. c #778895",
"<. c #7E919D",
"1. c #6F8087",
"2. c #7E92A1",
"3. c #85888C",
"4. c #978B85",
"5. c #9C9183",
"6. c #99948A",
"7. c #838C95",
"8. c #878C98",
"9. c #83929D",
"0. c #89949C",
"q. c #979799",
"w. c #918E95",
"e. c #A49383",
"r. c #AB9584",
"t. c #AD9A84",
"y. c #AC9B8A",
"u. c #A7988A",
"i. c #B39B84",
"p. c #BD9E82",
"a. c #B49D8B",
"s. c #B89E8D",
"d. c #B19783",
"f. c #A89D97",
"g. c #A68E8D",
"h. c #B4A28D",
"j. c #BAA389",
"k. c #ACA39B",
"l. c #ACA195",
"z. c #B5A492",
"x. c #B9A999",
"c. c #B2AA8F",
"v. c #8394A3",
"b. c #8B9BA4",
"n. c #859AAA",
"m. c #8A9CAA",
"M. c #8996A4",
"N. c #959AA7",
"B. c #899EB1",
"V. c #A898A4",
"C. c #8EA1AC",
"Z. c #8CA0A7",
"A. c #94A5AD",
"S. c #99A5AC",
"D. c #8DA3B1",
"F. c #93A4B3",
"G. c #9AA4B4",
"H. c #95A9B4",
"J. c #9BADBA",
"K. c #98AAB7",
"L. c #9DB1BC",
"P. c #9EB1B6",
"I. c #ACA6A2",
"U. c #A7A8AA",
"Y. c #B2ABA7",
"T. c #B6B3A9",
"R. c #A7ACB7",
"E. c #B4ADB4",
"W. c #A3B3BC",
"Q. c #ADB3BC",
"!. c #B6B6B9",
"~. c #AEB0AF",
"^. c #C3AB94",
"/. c #C5B29A",
"(. c #C2B08A",
"). c #CDBCAB",
"_. c #C7B6A3",
"`. c #C7BBB0",
"'. c #D3C4B4",
"]. c #DACCBD",
"[. c #D6CAB9",
"{. c #CFC2AF",
"}. c #9EB4C3",
"|. c #A3B5C2",
" X c #A6B9C5",
".X c #AABBC5",
"XX c #ABBDCA",
"oX c #A8B6C6",
"OX c #B7BCC5",
"+X c #A6BACC",
"@X c #C2BDC5",
"#X c #AEC1CC",
"$X c #ADC0C7",
"%X c #B2C3CD",
"&X c #BBC4CA",
"*X c #ADC2D2",
"=X c #B3C5D3",
"-X c #B6C9D4",
";X c #BACCD5",
":X c #BBCDDB",
">X c #B6C8D8",
",X c #BED1DC",
"<X c #BDD0D7",
"1X c #BBD0E2",
"2X c #C3C5CB",
"3X c #C9C6CB",
"4X c #D2CACB",
"5X c #DED2C4",
"6X c #D4D9CA",
"7X c #CBCCD3",
"8X c #C8CDD7",
"9X c #D3CDD3",
"0X c #D2CBD6",
"qX c #C3D4DD",
"wX c #CBD4DB",
"eX c #D4D4DB",
"rX c #D9D5DC",
"tX c #D7D6DB",
"yX c #C6D9E3",
"uX c #CBDBE4",
"iX c #CCDDEA",
"pX c #C5D6E3",
"aX c #D2DDE5",
"sX c #DADBE3",
"dX c #D3DEE9",
"fX c #D9D9E4",
"gX c #CFE0EB",
"hX c #CDE0E7",
"jX c #D4E3EC",
"kX c #D9E6EE",
"lX c #DAE8EF",
"zX c #D7E2E8",
"xX c #DAE7F0",
"cX c #DCEAF2",
"vX c #D6E6F2",
"bX c #E2EDF5",
"nX c #E4EFF9",
"mX c #E8EFF5",
"MX c #E5F0F6",
"NX c #E9F1F6",
"BX c #E5F1F9",
"VX c #E9F2FA",
"CX c #EBFAFE",
"ZX c #E2E6ED",
/* pixels */
"/ / / / / / / ' / ' ' ' ' ' ] ] p.p.p.^.^._.).).'.).)./.(.^.p._ / ^ ! ! ! ! / ! ! ! ! ^ / ! ! ^ ~ Y Y Y Y Y Y L Y I L ~ ~ Y Y ~ ",
"! / / / / / ' ' _ ' ] ' ] ] ] ] p.p.^.^._.).'.].].'.'.).)./.^.i._ ` ^ ^ ` ^ ^ ^ ^ ^ / ^ ^ ^ T ^ T ! Y ! Y I ^ u.y.e.! ~ Y ~ Y ~ ",
"! / / / / / / / ' ' ' d.' ] ] ] p.p.^.).'.'.].5X5X5X].].{._./.^.h._ ) ) ) ) ` ` ` ) ) ) _ ^ ) ^ ! W ^ ! ^ Y.W.S.A.G.S.4.! ~ ~ Y ",
"/ ! / ! / _ z.^.d.' ' ' ] ] p.p.p.^./.).'.].5X5X5X5X5X].[.{._./.j.a.t.t._ t.t.t._ t.) t.t.) _ ) ) ) ^ u.~.A.@.G 3.7.0.N.5.~ ! ! ",
"! / / / d.4XZXZXrX`.i.' ] p.] p.p.^.^.).).].5X5X5X5X5X5X].[.)._.x.j.h.y.y.t.h.t.t.y.t.h.t._ t._ _ _ h.I.:.%.3.=.O.*.8.8.6._ ` ^ ",
"/ / / ! `.sXsXrXfXfX4Xj.' ] p.p.p.^./.).[.'.5X5X5X5X5X5X].'.)._.^.c.t.h.h.h.c.h.a.z.h.h.h.h.t.h.c.x.U.=.=.7.%.F F o.#.8.N.y./ _ ",
"/ / / d.4XsXrXrXeX0XrX7X^.] p.] p.^._.).).5X5X5X5X5X5X5X].].)._.x.c.c.h.h.h.h.h.z.c.x.h.h.h.h.x.c.q.=.=.3.@.G Z Z F *.q.R.k._ d.",
"/ / / s.rXrXrXrXeXeXeX8X@X^.] p.p.^./.).).5X5X5X5X5X5X5X].).)._.x.j.h.h.h.h.z.c.z.z.x.h.c.h.c.x.w.S @.7.7.@.O.G F F =.0.R.I.d.] ",
"/ / / x.rXrXrXtXeX9X8X7X2X2Xx.] p.j./.).[.].5X5X5X5X].[.{.)._.x.c.y.t.y.t.y.c.h.h.z.z.l.z.z.x.3.N D 7.N.9.*.O.N v Z $.N.Q.~.i.] ",
"/ / / ^.rX9XeXeXeXeX8X8X2XOX!.z.(.^._.).).[.5X5X].[.[.'.`._.x.z.t.r.e._ e.t.y.u.u.z.y.y.u.x.S.Z *.S.S.0.3.*.O. .N F 8.N.OXE.a.d.",
"/ / / x.rX4X9XtXtXeXwX8X7X@XOXT.z.x./._.).).[.'.{.`.{.T.x.x.y.) W Q Q W Q W e.W e.6.( 5.l.q.G O.b.N.9.7.;.o.N N N G 0.S.Q.E.i._ ",
"' / / /.rX4X4XeXfXeXeXwX7X3X2X!.Y.c./.x._._.)._._.T.x.c.y.5.Q T J K U J J E E R W E E u.I.O.D 9.0.0.8.:.*.o.F o.N Z w.U.OX~.t.` ",
"/ ' / x.0X4X4XeXfXrXfX8X3X&X2XOX~.I.x.x.z.x.x.c.z.u.e.W E K m a a a a p a J m K R p W q.7.D +.@.S o.S *.#.o.B b B G w.V.R.U.g.^ ",
"/ / / x.0X4X7XeXtXfXeX7X7X7X2X2X!.U.k.k.e.5.5.W E E K p a t t t s i t t i p n m i R q.=.v j S M *.b.N.S.N.7.o.B b G N.R.oXU.4.L ",
"^ / ~ z.0X4X4XeXeXeXrXeX7X7X3X2X!.S.q.k.E P R n a i t a n a n P P n y t i m R n n 3.G j 8 M F ;.8.7. .#.$.o.b N V 3.q.R.Q.R.P K ",
"I ( L a.4X4X3X7X0XtXeXeXeX7X7X2X!.k.q.q.3.R 0.R G m 3.U.Q.R..X:XOXG.3.3.7.0.:.7.&.%.C 7 l C A o.X. .@.O.N N b b V 4.N.R.Q.U.K a ",
"L L I r.0X4X@X0X7XtXsXsX0X8X7X&X&X~.~.U.W.G..X%XXXXXqXgXpXpXgXvXvXpX>XXXXX+X}.}.n.,.A d  .x A ,.9.;.9.#.o.B b V $.$.V.|.OXR.n t ",
"K J H $.4X0X4X0X4X0XtXtXtX0X3X2X2X2X&XqXuXyXjXcXgXiXjXiX1XiXjXjXiXpX1XXX>X>XXXXX}.}.2. . .x +.#.8.#.8.M.$.$.V K $.w.N.R.oXV.i 4 ",
"H K a P @XrX4X0X3X0XtXrXeXwX8X7X7XuXzXjXkXxXcXcXgXuXpX;X:XvXvXiXpX1X+XoXXXpX1X+X+X}.D.2. .x x X.;.#.#.#.o.B V V $.w.N.}.R.q.u u ",
"a a u K `.rX0X0X9XeXfXsXeXwXfXzXzXjXzXzXkXcXcXjXjXqX:X-XuXnXcXuXpXXXoX+XXX1X>XoXoX}.}.n.,. .x ,.;.X.o.o.P h h V V $.N.G.|.3.t t ",
"p p a p E.fXrXrX9X9XfXaXaXaXzXjXzXaXuXzXjXlXlXZXjXqX;X,XxXBXlXqX8X=XoX+XXXXXXXXX+XXX|.F.2.,.#.,.X.A o.o.B h h K o.$.M.N.G.K u u ",
"p p p p f.eXrXrX9X3XwXaXzXaXaXjXhXzXuXfXkXlXbXbXcXaXwXhXxXkXaX-XXXOX.XXXXXoX>XXX+XXX|.F.m.9.,.X. .X.X.c h e h b V #.$.M.0.n t u ",
"K K K p g.0X@XrXsXeXeXzXaXaXwXwXaXkXcXkXzXbXmXmXBXlXjXjXyX:XXXR.R.oX.X.XR.M.$.V $.0.G.R.F.M.>.o.o.X.B h h h B b B o.@.M.3.a u t ",
"K K K K g.rX@X0XrXfXzXsXaXwX8X!.Y.~.3XcXbXlXNXVXBXxXjXiX:X|.B.M.b.R.XXR.B X . . # @ b N.G.M.7.-.X. . .x h c h h B o.#.o.a u H a ",
"J R J K 6.7XeX4XfXZXdXdXaX7Xk.K H H H g.lXmXNXVXNXcXjXiXXXG.>.#.M.L.+XN .   . # # # # y 3.0.7.;.#. .B x h h g y B V o.h y a K H ",
"E E R T Q &XfXrXsXZXZXkXuXI.L I | H H I Y.CXNXVXmXjXiXiXXXn.#.#.F.J.#..   @ = & & = * % f 8.0.*.+. .B B h g r g h h #.V h P K H ",
"E E E E g.3XrXsXsXkXbXxX<Xy.[ x.{ * | [ ! eXCXVXcXqX+X+X}.v.X.2.K.F.8   X 3.m + & * U * o 0.G.G.v.;.S f g g e 0 g c #.o.h K K L ",
"Q Q E E Y.tXrXsXxXbXbXfX&Xc._.6XW H (.} [ wXCXcXuX-XoXD.v.v.>.2.B.-.O   % S.a O * U U * 5 XXXX+XK.m.7.B B h f w g h o.c h K P L ",
"Q W Q Q !.kXsXsXbXxXcX8XV.h.'.6X) ` (.{ { lXcX8XOXOXoXG.#.o.#.,.-.x o   + n s 4 H U U m |.pX*XoXF.v.+.S c f q 9 0 B B g u P ( L ",
"W W W W `.zXsXcXZXdXjXwX3.( { c.} { c.} &XBXeXOXE.oXE.N.V g  .o.-.X.d : < = s * p Q S.-X1XXX|.C.;.S B v c f g 0 r f c y K P ( r.",
"5.5.W 6.2XdXZXbXnXbXxXxXOXR ` { } { c.<XcXzX7X2XOXOXE.w.b 2 B o.1.2.>.,.D.2.D.P.=X1X1X*XXX|.D.:.S k e w b c c h 0 0 c P ( / r.( ",
"5.W 5.6.T.kXVXVXmXmXnXZXkXuX!.T.!.<XcXCXcXuX&X2X@XOX$.$.V 2 g B X.>.2.2.2.*X1X1X1XXX}.}.}.D.,.O.M c w e e f c c h 0 f K ( r.r.( ",
"e.e.e.6.~.kXCXVXNXBXNXBXMXcXcXcXxXnXnXnXfX@XV.$.@XV.u . 4 > r X.>.2.2.2.2.+X>X*X XJ.H.D.C.>. .M j e e e q q e i k w q m e._ _ _ ",
"u.6.e.6.`.mXVXNXNXNXNXVXNXnXbXBXnXnXnXZXfX0XV.$.E.$.u @ V 8.m.F.2.2.2.2.2.D.}.}.F.C.m.n.2.+.M f 0 7 5 9 0 e e w j j w n e.d.r.r.",
"5.e.e.k.wXVXNXNXNXNXVXNXNXMXMXVXnXnXnXvXZXfXfX1XE.g.$.V.>XqX=XK.2.2.2.,.,.2.2.D.n.v.>.<.:.%.S v l w 0 w w e e e e e q n e.i.r.] ",
"u.u.u.Y.zXCXNXNXNXNXNXNXNXNXNXMXnXnXnXxXxXxXfX>X@X$.|.pXpXXXXXK.2.2.2.2.,.2.B.2.<.<.>.>.,...M k w w 0 e 7 3 3 9 e e 3 p e.i.t.t.",
"u.u.u.~.lXVXBXNXNXNXNXNXNXVXBXBXxXbXvXvXfXdXpX+XV.E.0X1X>X>XoXB.2.n.Z.D.2.-.-.,.&...X. . .S k q 7 q e q e 3 3 3 3 3 9 n r.i.i.i.",
"u.u.u.OXMXBXMXMXMXBXbXmXBXBXBXcXvXvXvXvXfX0X1XoX$.$.oXoX+XOX|.F.m.D.2.n.n.<... .A x x A C z 8 7 5 7 9 5 9 9 9 3 3 3 r J d.i.r.i.",
"u.u.f.2XMXMXbXMXMXMXcXcXBXbXcXxXvXgXvXgX1X>X+XG.$.$.V.oX}.}.}.}.H.D.D.n.2.2.-.1.A d 8 0 8 7 5 , 9 7 0 0 5 1 3 3 3 2 4 J d.i.a.a.",
"u.y.l.2XMXMXbXbXbXcXlXxXcXcXcXlXvXiXiXiX0X>X+XB.V h 8.G.K.J.K.}.D.2.B.Z.2.,.-.-. .d 5 > X X > > 7 q w q e 3 1 < 3 2 e E a.a.d.a.",
"l.l.k.2XVXBXmXbXlXlXlXkXlXMXvXvXiXiXiXpX1X+XG.#.h g o.N.G.G.F.G.H.v.v.>.<.,.&.&.D x 0 , - ; X > < 7 8 q q 4 < 2 3 2 y ( s.i.a.a.",
"l.l.l.2XBXNXMXbXbXMXbXkXcXlXvXgXiXiXpX8X+XoX8.N h o.o.$.M.B.B.n.n.D.n.v.&.&.X.D A A x z 8 < > > , < 9 7 9 3 < 2 3 3 n r.s.a.a.p.",
"l.k.Y.2XbXBXbXcXcXcXbXbXlXjXjXjXpXpXXXXX+XN.o.b V w.8.;.$.$.B.M.9.M.M.9.%. .&...d 7 z x  .x q , $ > 1 1 3 3 < 1 2 4 R a.s.s.a.a.",
"k.k.x.&XcXMXcXlXcXcXbXcXlXzXgXuXqX:XXX+XM.o.$.8.M.N.C.N.v.#.o.#.v.9.v.>.X.....1.x 7 > X 5 l M A 8 > % % , < 2 2 2 e E h.a.a.a.s.",
"l.f.I.2XbXbXxXxXlXlXlXjXvXvXgX,X>X-XXXA.#.7.G.R.J.K.G.F.C.2.A x ;.<.2.<.X.C k z A M 8 , X o < d C c 7 @ % 1 1 1 2 e P a.a.s.a.a.",
"l.k.T.7XbXbXcXxXjXzXzXjXxXvXgX,X:X=XW.A.3.G.oX|.|.J.J.K.Z.2.&.z k  .X.X...k q 8 8 l x 8 5 , X X < k A d $ @ 1 2 2 y K r.s.s.s.s.",
"k.k.Y.7XcXmXbXxXjXzXjXjXjXgXhXpX,X=XW.G.G..X+X|. XJ.L.K.n.2.>.A 8 8 8 z d l 8 8 q 6 k M , 5 5 1 X > q M v < % 1 2 r K r.a.s.s.s.",
"k.x.~.2XcXbXbXcXjXjXjXzXhXgXgXuX,X#XoXW.#XXXW.oX#XK.H.K.b.,.1.1.l , : : 6 7 d : 7 8 , j k - > , < > $ < k C q 2 2 3 n _ a.a.s.s.",
"Y.f.T.8XcXcXxXvXjXjXzXuXiXjXiXwX,X*X#X#X;X#X}.*X$XH.C.H.2.&.D 1.D 8 , , 7 , q 7 o 7 q 1 z q $ 1 5 0 < > 1 j C j 3 3 m e.s.s.a.s.",
"y.k.!.pXxXbXcXxXlXzXhXzXjXzXuXhXyX<X;X-X<X*X$X$XL.D.n.A.Z.:.A A C l 8 7 7 7 , z $ o 7 9 < l q 1 3 9 q e 9 7 w C i e m r.s.a.s.s.",
"k.Y.!.2XxXcXcXmXxXjXjXjXlXhXuXuXhXqX<X-X-X#X*X*XL.C.b.b.2.&.D C l z q 8 8 8 , 7 7 $ % z q z Z i 9 0 w j i 8 , w M j n 5.s.s.s.h.",
"~.Y.Y.2XcXbXbXcXlXjXlXlXjXzXhXzXhXyX<X-X#X$X$X$X XH.b.b.<.1.C l l z z z 8 q 7 % 8 , 1 4 C j C D v e c j q e 7 < q v P e.s.s.h.s.",
"Y.k.~.7XvXcXcXkXlXlXlXlXlXlXlXjXhXhXqX;X$X$X X$X$XL.Z.Z.9.&.C z l z l z j 3 3 3 q q 3 q i D l D D j 9 9 q w w 9 < c 4.g.a.a.s.z.",
"k.k.~.&XzXcXxXkXlXlXjXjXlXjXjXhXhXhXyX<X-X$XP. X|.L.A.0.9.:.C v l z z z j j z q l C j l l Z D l C v q w q w j i 9 y Q a.z.a.a.s.",
"I.Y.k.E.uXcXcXxXlXjXlXlXkXjXjXjXhXhXhX<X;X$X$XW.L.P.S.Z.0.<.%.Z C C C C Z D C n D =.D C C v 1.D D D C c j w j w e i P a.a.a.a.l.",
"I.k.k.!.uXkXcXxXxXcXlXcXlXlXjXaXlXhXhXqX<X;X%X$XW.L.H.Z.b.0.0.=.=.:.=.%.:.:.=.=.=.:.=.%.%.C 1.1.C Z D C j j w q e V 5.g.l.a.a.a.",
"I.f.Y.OXwXvXcXlXcXxXxXlXlXjXjXlXlXhXhXyX,X<X;X$X$XP.P.Z.Z.P.H.H.A.Z.Z.<.Z.Z.:.Z.0.:.:.=.=.%.1.=...A C D v f 0 0 e m 5.r.a.s.a.i.",
"f.f.k.~.qXvXcXcXcXxXlXlXjXjXjXjXhXlXhXhXyX<X;X%X$X X$XP.P.P.P.P.P.P.A.Z.A.P.Z.Z.Z.Z.0.:.:.:.=.1.:.D C D M j 9 3 y P r.y.i.g.g.r.",
"u.k.k.~.qXzXcXcXvXlXlXlXlXjXlXlXlXhXhXhXqX<X<X$X$X$X$X$X$X XP.P.A.A.A.A.A.A.Z.0.Z.<.<.<.:.=.1.1.&.D v l M w e e b W r.i.y.d.i.r.",
"f.k.k.!.&XgXvXxXcXxXvXjXjXvXjXjXhXhXhXyXqX<X;X;X%X;X$X$X$X$X X XP.P.P.P.P.Z.Z.Z.<.<.:.:.:.%.1.D C M 0 8 j w < e n e.y.y.r.r.g.r.",
"f.f.I.U.OXgXxXxXvXxXxXlXjXjXgXgXhXhXyXqXyX<X<X<X;X%X;X<X<X-X*X X}.L.P.H.A.A.2.Z.A.2.<.&.A C l M l M d 9 e z e 9 n ( a.g.r.r.r.e.",
"f.f.I.U.8XxXxXxXlXlXvXjXjXgXgXhXhXyXyXyXyX<X<X<X<X<X<X<X1X-X$XL.P.P.H.H.Z.Z.Z.P.2.<.:.1.A C C C C C k 3 < e j 9 y P r.d.d.r.e.r.",
"f.I.I.!.uXcXxXxXjXjXjXjXjXgXgXhXyXyXyXyXyX<X<X,XyX<X<X<X*X*X X$X X*X$X}.}.H.P.2.<.-.1.1.A A C l d q d < 3 e y w y m 4.r.r.r.r.r.",
"f.I.I.$XjXBXcXxXkXlXjXvXjXgXgXhXhXhXhXyXhXyXyXhX1X1X,X,X<X-X<X*X X*X*X}.H.H.H.P.<.,.&.1.A x z q q q j q e 9 0 h e y J ( r.r.e.r."
};
