/* XPM */
static char *chimi_6_641741260423[] = {
/* columns rows colors chars-per-pixel */
"64 64 237 2 ",
"   c #1A181B",
".  c #0A0E1A",
"X  c #261A1C",
"o  c #0E1622",
"O  c #181C26",
"+  c #281D21",
"@  c #341E25",
"#  c #1E2229",
"$  c #1D2233",
"%  c #2B2223",
"&  c #282728",
"*  c #352C2B",
"=  c #362927",
"-  c #3A312D",
";  c #2B2D3B",
":  c #262A36",
">  c #342E30",
",  c #2E313D",
"<  c #2D3035",
"1  c #31333C",
"2  c #393537",
"3  c #46252A",
"4  c #42352E",
"5  c #453A33",
"6  c #4A3C35",
"7  c #443B3B",
"8  c #4C3B3B",
"9  c #473536",
"0  c #543A3C",
"q  c #4D413B",
"w  c #4E4037",
"e  c #52453D",
"r  c #54483F",
"t  c #272E42",
"y  c #2D3244",
"u  c #2E3649",
"i  c #323542",
"p  c #3B3C43",
"a  c #333A4C",
"s  c #3A3D4B",
"d  c #343846",
"f  c #363D53",
"g  c #393F53",
"h  c #543D41",
"j  c #443E44",
"k  c #633C41",
"l  c #3E414D",
"z  c #3A4155",
"x  c #3D455A",
"c  c #354255",
"v  c #3F4C64",
"b  c #494546",
"n  c #554444",
"m  c #564942",
"M  c #5B4D45",
"N  c #5C4D4C",
"B  c #564948",
"V  c #5E524A",
"C  c #5B5048",
"Z  c #4B4C54",
"A  c #424A5D",
"S  c #454856",
"D  c #4D5159",
"F  c #5C5253",
"G  c #57565A",
"H  c #554A52",
"J  c #624D4D",
"K  c #674B48",
"L  c #63544D",
"P  c #65584F",
"I  c #6B534C",
"U  c #645552",
"Y  c #6C5653",
"T  c #665952",
"R  c #6A5C54",
"E  c #645B5B",
"W  c #6B5D5A",
"Q  c #6B5759",
"!  c #775B56",
"~  c #6E534D",
"^  c #6D6057",
"/  c #6E615B",
"(  c #65615B",
")  c #72645C",
"_  c #75665C",
"`  c #7E7B5A",
"'  c #454D63",
"]  c #474D65",
"[  c #4B5264",
"{  c #4B536C",
"}  c #4C576E",
"|  c #585A66",
" . c #4D5773",
".. c #525B74",
"X. c #535C77",
"o. c #655E62",
"O. c #5E626A",
"+. c #5A637D",
"@. c #586279",
"#. c #636264",
"$. c #6C6463",
"%. c #67666A",
"&. c #726563",
"*. c #756A63",
"=. c #7A6C64",
"-. c #746C6B",
";. c #7B6E6B",
":. c #766667",
">. c #7B7067",
",. c #7C726C",
"<. c #74716D",
"1. c #636572",
"2. c #6C6C73",
"3. c #676A78",
"4. c #786F70",
"5. c #7C7472",
"6. c #797777",
"7. c #6E707C",
"8. c #82655C",
"9. c #896B63",
"0. c #82756C",
"q. c #83786F",
"w. c #957669",
"e. c #827673",
"r. c #847A74",
"t. c #8A7D75",
"y. c #837C7B",
"u. c #897E7A",
"i. c #8B7770",
"p. c #997E76",
"a. c #805E54",
"s. c #7F807A",
"d. c #85817D",
"f. c #8C827B",
"g. c #888075",
"h. c #92857D",
"j. c #96867B",
"k. c #A68678",
"l. c #5D6783",
"z. c #626A84",
"x. c #666D89",
"c. c #6B728A",
"v. c #787B87",
"b. c #6C7591",
"n. c #727A94",
"m. c #867F81",
"M. c #7E818A",
"N. c #7B8292",
"B. c #8C8482",
"V. c #8D8984",
"C. c #87878A",
"Z. c #918682",
"A. c #948B84",
"S. c #998D85",
"D. c #948D8B",
"F. c #988E8A",
"G. c #918788",
"H. c #999087",
"J. c #9C938C",
"K. c #96928C",
"L. c #8A8D9C",
"P. c #868995",
"I. c #959493",
"U. c #9B9592",
"Y. c #9D9994",
"T. c #9D9B9B",
"R. c #98969A",
"E. c #918F97",
"W. c #A1968E",
"Q. c #A39B94",
"!. c #A49D9A",
"~. c #A69997",
"^. c #B39D97",
"/. c #A78F89",
"(. c #A5A29D",
"). c #AAA49D",
"_. c #ADA79D",
"`. c #B6A39D",
"'. c #8F92A3",
"]. c #9699A6",
"[. c #8B8EA0",
"{. c #A5A3A3",
"}. c #ABA5A2",
"|. c #ADA9A3",
" X c #ADACA9",
".X c #A3A4AB",
"XX c #B2ACA4",
"oX c #B2ADAB",
"OX c #B7A9A6",
"+X c #B4B1AC",
"@X c #BAB3AC",
"#X c #BAB2A9",
"$X c #A9AAB3",
"%X c #B6B4B2",
"&X c #BAB5B2",
"*X c #BDBAB5",
"=X c #BDBCBA",
"-X c #B5B4BA",
";X c #B1B1AE",
":X c #A3A0A3",
">X c #C4A89C",
",X c #D4B19E",
"<X c #C7B4AB",
"1X c #C2BDBA",
"2X c #C2BBB6",
"3X c #CFB5A9",
"4X c #C5C2BD",
"5X c #C9C1BF",
"6X c #D7C0B6",
"7X c #BBBEC5",
"8X c #C4BEC0",
"9X c #C6C4C2",
"0X c #CAC5C2",
"qX c #CCC9C6",
"wX c #CDCCCA",
"eX c #C7C8CB",
"rX c #D1CDCA",
"tX c #D3D1CE",
"yX c #CCCDD4",
"uX c #D5D4D1",
"iX c #DBD9D6",
"pX c #DAD9D8",
"aX c #D0D0D3",
"sX c #E1E1DF",
"dX c #DADEEA",
"fX c #D7DBE4",
"gX c #DDE1ED",
"hX c #DFE1F0",
"jX c #E2E4EE",
"kX c #E6E6E5",
"lX c #E3E6F1",
"zX c #EBEEF5",
"xX c #E7EAF5",
"cX c #FDFEFD",
"vX c #F4F6F9",
"bX c #EEF1F5",
"nX c #E0DFDB",
/* pixels */
"cXcXcXcXcXcXcXcXcXvX'.b.b.b.n.N.n.x.l.X.X.X.} } } [ ] [ ' [ 3.m.3.a m.=XE..XP.d A a i ; ; 1 ; i i 1 1 j V.:.I ~ K ~ 9.-XT.-.G $.",
"cXcXcXcXcXcXcXcXcXbXP.b.n.b.b.b.b.z.X.l.@. .} } } [ ' ' A ] 1.v.1.a v.oXP.;XC.s j a i t : i ; d 1 i H G.:.I I K I 8.k.oXR.-.F %.",
"bXbXbXvXcXcXcXcXcXkXM.c.b.n.b.b.b.l.X.X. .} } } [ ' ' ' A | 3.C.| a v.D.v.oXv.i j u y ; : i 1 j 1 G B.Q Y Y ~ ~ ! w.w.}.I.-.( <.",
"xXzXzXzXbXvXcXcXcXiXc.l.b.n.b.b.x.X.l.X.b.c.[ ' [ A x A A 1.v.E.3.f 6.C.6.oX2.; j i y ; : ; j ; s G.$.N Y K ~ ~ w.k.w.OXT.<.G ,.",
"vXcXcXcXvXbXcXcXcXyXl.l.b.n.b.b.x.X. .'.&X}.E.X.] A x x S O.L.:X1.s 6.c.2.D.D t d i i ; ; : D & 5.;.U J J W ! ~ w.k.9.%X].<.E 5.",
"cXbXbXvXvXzXbXvXcXeX+.l.l.b.b.b.l. .{ .X<XOX`.E.v.[ z f x 1.m.T.| s 7.o.G %.p ; i i ; ; : ; Z G m.E Q L R Q ! 9.j.w.9.*XR.<.( 6.",
"bXlXhXlXlXgXxXzXcX$XX.+.z.x.c.x.l. .] :X<XOX`.~.D.v.[ g z | v.C.| d ..H G | y ; i 1 ; : & i o.m.E H J Y Y ! 8.w.w.8.=.=XR.,.( 6.",
"lXlXgXgXhXhXlXxXlX.XX.X.l.z.l.3.l. .] m.1X<XOX!.I.B.7.| z D O.7.S s | j S Z ; y 1 ; ; : : Z m.:.F N Q Q ! 9.p.k.a.! 9.8XR.,.( d.",
"lXxXlXgXgXgXlXlXhXL. .@.+.l.+.l.X.{ ] ..3X3X>X`.~.F.y.3.| A o.3.g j { g j g $ : y i 1 j j e.4.o.U &.:.! 8.p.k.w.~ ~ w.eX~.5.$.y.",
"xXlXgXgXgXgXgXgXgXN. .X.X.X.+.+. .] ' ] <X1X<XOX~.~.m.4.%...o.3.S D [ H o.| A | 2.2.| 4.4.y.m.y.m.m.&.Q 8.w.w.a.K K m.yXE.4.( B.",
"gXgXgXgXgXlXlXlXhX+.X.X... .X.@. .] x v m.3X3X<X`.~.U.e.o.| | o.1.o.6.E.;X.X:X-X&X&X}.-X-X:X&X~.:XG.y.8.9.8.a.K ~ K /.yXI.<.$.B.",
"gXgXgXgXlXlXlXlXgX..}  . .....@.] ' ' f 1.3X3X3X>X^./.m.#.H G 2.v.G.}.-X8X2X@X2X1X5X5X5X8X2X2X-XOX:XG.e.9.a.K K ~ K W.aXI.6.$.V.",
"aXfXdXgXhXgXgXlXyX .{ { .... .| ] v x f { `.,X>X>X^./.m.%.| 5.G.U.oX7X1X1X2XOXoX<X8X2XOX!.!.^.OX`.`.F.G.;.Q K I K ! }.aXI.<.%.H.",
"fXfXgXgXgXfXgXxX7X{ { { { {  .{ ] x x f a /.,X>XOX^.^.m.4.6.E.}.oX-X=XOX:X~.U.~.`.}.~.m.u.e.m.m.m.m.G.m.4.W Q L K 8.F.aXI.5.%.K.",
"gXgXgXgXgXgXhXxX$X] { [ { { { { ] x f f t 3.3X>X^.^./.G.G.R.:XoXoXoX.X~.m.u.5.m.G.m.4.:.$.o.Q o.W o.&.:.;.:.W L r 0 ,.yXR.,.*.J.",
"pXgXgXlXlXhXlXxX'.v ] ] ] ] ' ' j g g s a ] >X>X^.^.~.~.:X XoX X!.D.F.m.i.:.:.:.e.4.&.Q U U U n 7 2 9 n U &.W I k 6 t.pXI.5.<.U.",
"]..X7X7XyXfXfXjXN.x ' ' ' ' ' x g f f a u t V.>X`.^.:X:X-XOX!.R.G.5.5.4.5.-.:.:.4.$.o.U J J 8 % + + + % 7 N U U N J T. XD.5.<.Y.",
"N.N.N.P.L.'..X$X..z x ' A x v z g a a u y y E.<X^.}.OX-X-XR.m.4.-.4.:.-.,.4.-.:.&.E J U U 7 + % % + = = = 8 J U L :.I.b 6.s.,.(.",
"L.L.L.L.[.[.'.n.x f c c f f z f f a a u y u ~.OXOX-X-X=XR.o.j 9 1 n o.-.-.4.4.o.o.W J U F & % 4 &   = 4 = 4 V U U :.6.B V.5.5.!.",
"L.L.L.[.'.'.].N.f a f f f f a a a u u t : $ m.^.OX5X8X~.H 9 7 : : & 7 %.-.-.-.$.$.W F U F & % - * % = = + b E U U ) $.H V.y.5.(.",
"L.L.'.'.'.'.].c.u u c a u c l u t t ; d ' @.T.oX2X0X:Xo.7 b b : > - & G -.-.2.:.$.&.E U J >   = - * % % q W W T U P T ,.F.5.r.}.",
"P.P.L.L.'.'.].3.y u u u l O.M.M.O.G +..X9XeXaXwXrX%Xy.H 2 q 7 1 2 2 > F -.4.5.e.-.o.W U U j & & = = 9 F / ) Q U F T Q Y ! 6.5.!.",
"c.7.c.v.v.P.N.{ t y u D M.$X=X;X;X-X9X9XqXtXuXpXqX!.y.o.2 < 2 2 2 * > E 4.y.m.m.-.-.o.Q U F N H N Q ) &.W R Q L L L W J k #.;.~.",
"E.L.P.P.v.n.v.A t u | .XqX4X XI.I.{.%X*XeX9XuXiX=XY.y.5.o.b 2 > 2 j b o.m.F.G.4.:.&.U N F U T U T o.) / W Y U L U P Q L 3 > B C.",
"E.R.]..X.X$X].x : D .XwX=X;XI.d.s.d.{.=X4XeXuXiX*XY.V.5.5.$.F F F E $.-.m.~.0.J H J J N J U U U Q R W R T I L L L L P C % + # 2 ",
"2.2.2.2.2.7.3.u v {.aX9X XY.d.6.<.s. X9XeX4XiXtX;XY.V.5.-.&.$.$.W %.-.5.D.m.o.J J k h h h J U U U R Q U U L L I L L T H &   & & ",
"6.7.2.2.1.O.x , M.eX9X XI.V.s.<.<.K.%X7X=X=XuXqX XU.A.d.5.-.$./ -.5.4.y.e.:.J J J h * 9 9 N U Q U P U U L L L J N L I b # q <.r ",
"2.1.1.%.O.O.l c  XwX;XY.V.d.<.<.s.{.=X=X=X1XuXrX}.U.V.f.y.5.<.-.5.6.y.d.Q H 3 9 K h @ 9 N U U U U L L U U L L L L L T B   - r s.",
"G G D D Z S l 2.eX=X|.V.s.s.<.<.I.;X=X=X=X%XtX5X(.U.K.G.B.y.5.5.-.r.y.V.m.Q J h h 0 h N U U U U V L U L L N M L L V E C 2 > %.XX",
"| D D Z l l l ].wX%X(.V.s.<.<.s.(.;X%X%X;X*XqXrX|.U.F.H.K.A.B.5.5.-.5.y.4.:.:.J 9 9 J Q U U V V U J U U U V N L L P P G <.w %XwX",
"G G D S l l S  X4X|.Y.V.s.<.<.I. X;X;X;X;X X4XuX+XU.S.K.J.J.F.y.y.5.5.-.:.:.:.o.h 8 J U Q U N N N N J P P V L L L L T m q 3 C G ",
"D D Z S l l Z {.*X(.I.s.s.s.V.(. X;X;X;X|.|.wXnX+XQ.J.S.H.J.K.A.u.5.:.$.:.:.o.J h h F U V U U U P J L L U P I L L L E 6 X X % 7 ",
"G D l l p c u I.*XQ.V.d.s.s.Y.|.{. XoX X}.2XuXiX@XY.H.j.H.J.Y.h.y.;.-.:.:.$.Q F h 0 N o.Q Y T U V V L L Y R R R R R F 3 @   % 6 ",
"Z D l l p < : I.+XI.V.s.s.K.{.|.}.|.oX|.*XtXtXiX4XY.H.H.H.J.J.H.B.r.,.:.&.&.W L h = 9 J Q W T W Q W R Q R U R R R R B + + < X 3 ",
"b l p p 1 < $ P.;XY.I.K.K.T.|.(.|. X|. XqXqXrXuX4X(.J.W.J.J.W.W.Z.t.e.;.:.&.W N h 8 9 9 n U Q Q Q ) / ) _ W T T W V b * % %   X ",
"l b p d < : < I. X(.{.Y.Y.(.(.(.|. X!.oXrX5XrXrX4XXX(.J.J.J.J.H.A.f.t.4.:.&.U h h h h 8 8 8 B Q R ) W W R ) ) ) U > * & * 2 #   ",
"p p p < < $ : M.%X X{.Y.I.(.(.(.|.(.{.9XqXrXrX0X4X*X_.W.J.J.J.H.H.A.f.u.e.&.Q U U N N N N n m J L R ! ) ) / ) W 7 +   X 2 q &   ",
"2 < < < : < D T.*X|.(.Y.Y.Y.(.(.(.(.1XtXrXqX4X2X@X#X@XXXW.W.H.W.W.S.A.h.t.i.9.&.! Q Y Q U T U U W _ =._ *.=.U 9 - @ X @ w <     ",
"%.#.#.#.( O.I.%X X(.T.(.(.I.Y.(. X0XtXrX9X*X+X X|.|.#X2X_.W.J.W.H././.S.Z.p.0.0.;._ ) ! ) R _ =.0.0.*.=._ *.N X   + X n <.( p # ",
" X{.{.T.%.p D P.{.T.T.T.K.K.Y.;XrXtX0X4X*XoXQ.}.@X).).XXXXW.W.H.J.H.A.S.A.A.j.u.i.;.0.0.=.0.r.i.0.=.=.) ) W H & .     q g.A.H.H.",
" X X Xs.p < # < | V.I.V.V.I. XqXtXrX9X4X%X).F.}.+X).W.(.).).Q.J.J.H.S.h.j.h.h.A.j.t.j.A.h.f.t.0.0.*.) R R R b > X X % 2 - 7 6 0.",
";X;X;XG # O o o # p #.s.K.|.4XwX4X4X9X4X|.K.V.Y. X(.Y.J.W.W.Q.J.H.S.S.h.j.f.g.h.j.A.j.Z.j.f.0.=.*.) R R R Q 7 - @ X % - 4 5 q R ",
"|. X XZ o o o O o . # %.Y.=XwX4X*X@XoX@X(.A.d.S.Y.Q.J.H.H.J.J.H.H.j.h.f.h.g.t.t.r.i.0.0.=.=.) ) ! T T L I R N B J B b b q q 7 B ",
"|. X XO.. o o o o o < #.{.qXqX=X@X|.|.}.(.A.d.y.f.J.S.S.j.S.j.h.h.j.f.g.t.t.i.q.0.=.*._ ) / R R R L T L R / -.-.e.m.e.&.( F F U ",
";X*X%Xs.p O . . . o $ #.|.qX0X+X).|.|._.).Q.A.,.s.g.g.g.g.j.j.g.g.i.0.q.q.0.0.>.=._ _ ^ ^ Y P T T U R L I ( f.A.F.U.m.e.-.5.B.u.",
";X;X;X_.K.s.( l < # # #.oXqX4X|.(.}. X_.(.J.J.d.<._ ,.g.g.g.q.q.q.0.0.0.0.>.>._ _ _ ) R R P P P L L L L L ( y.A.U.U.~.). XoXoX~.",
"|.;X;X;X;X|._.Y.I.d.<.s.{.4X*X}.!.)._.(.Y.Y.J.J.f.*.) _ ,.r.q.,.>.>.=.=._ _ _ ) ) ^ R R R P L I I L V C N R e.B.F.~.).@X@X2X&XOX",
"*X;X*X*X;X;X X|.{._.|.oX@X4X*X|.(.).(.(.J.Q.Y.J.Y.J.g._ ^ ( ) _ _ =._ ) ^ ^ ^ ^ R R T R I L V m r r m M M &.B.D.U.~.~.).OX@X&XXX",
"*X=X=X*X;X#X*X_._.(._.;X+X#X+X(.(._._.Y.Q.J.H.A.V.S.h.g.>.( L ^ ^ ^ ^ ^ P P P I I L L L P r r r e m m m m &.S.~.(.).}.OXOXXX@XOX",
"*X=X=X=X*X*X+X;X|._._.|.+X*X%XQ.Y.(._.(.J.H.H.V.g.y.q.,.>.<._ ^ ^ P ^ ^ P P r w w r L I L r r r C L L C m / d.F.~.!.).OXXXoX<X@X",
"=X4X=X4X*X*X*X+X|._.|.;X#X4X*XW.g.J._.Q.H.H.A.h.q.0.,.,.>.*._ _ _ ^ ^ ^ P I M w - 5 w r r r r P P P P I V ( <.d.G.U.~.!.).|.!.!.",
"9X9X4XqX4X4X*X;X X|._.|.#X4X#Xj.s.s.h.K.H.A.h.d.g.q.>.,.>.>.) _ ^ ^ ^ P P P P M r = 4 6 w M V P ^ T P L ( *.( ) ;.d.F.U.~.XXH.h.",
"wXwXqX=X4X=X*X;X X|._.|.#X*X#Xj.>.( ) g.g.g.s.s.q.q.5.*.<._ _ / ^ R P P P L I P L w % - r R R R ) ^ P P P _ -.&.$.-.e.B.U.W.!._.",
"wXwXwX4X9X4X*X#X|.|.|.|.#X*X+X_.h.*.P P ` g.s.s.q.,.` >._ / / ^ ^ P P P L I V V M w   % M ^ ^ _ _ _ ^ ^ T ^ ) =.5.e.,.y.h.Z.Q.W.",
"wXwXwXwXqX4X*X#X;X_._._.+X*X+X_.W.j.` P M P s.s.>.*.) ( ^ ^ ( ^ R P P P M M r r w 4     r R _ =.>._ _ P ^ T P T ( t.g.,.,.5.y.Z.",
"uXuXwXwXwX4X*X*X X_._._.XX#X#XXX_.(.H.0.` M r r P V P P P T V C r M r r w w 4 4 4 = = X 4 P _ =.>._ ^ P ^ R L T R *.t.y.r.5.e.e.",
"iXuXuXtXuX4X*X+X|.|._._. XXXXXXXXX_._.j.h.s.r r q q w w 7 w w - 4 4 4 w 4 w w w w w w 4 w r ^ ` _ ` ^ ^ ^ ^ R P R R &.U ( *.5.g.",
"nXnXiXtXtX4X*X+X|._.(._.|. XXXXXXX_.XX_._.g.s.s.F C m r e e r r r r r M r L L M V r r e w w L ^ _ ^ ~ _ ^ ) I P L L / U 5 * 5 e ",
"sXnXnXiXtX4X*X+X|.{.(.(._.|.|.|.XXXXXXXX_._.Q.j.g.>._ ( ( P F P R P P P I P P L P V r V V r w e P P ^ ^ _ ^ L P L M ^ r.>.V e w ",
"kXsXnXnXuX4X*X+X|.|.(.(._.|._.|.XXXXXXXXXX_.XX_._.Q.J.j.g.>.` ) ^ ^ R P P P P P P P P r P P r w 4 w w P ^ P P R M r ) u.<.>.<.*.",
"kXkXnXiXuX4X*X+X_.(.(.(._._._.|.XXXXXX_.XXXXXXXXXXXX_._.^.W.j.j.g.0._ ^ ^ P P P P P P P L P P V m 6 = 4 e M P M w e *.g.,.,.5.g.",
"sXkXnXuXwX4X*XXX|._.(.(.(.(._.|._._.XXXXXX#X`.XXXXXXXXXXXX_._.Q.W.j.j.g.0._ ^ ^ P P P P P P R P I V M m w e w 4 4 6 E d.g.5.5.5.",
"sXiXnXuX4X4X*X;X|.(.(.(.(.(.(._._.XXXXXXXXXXXX#XXX#X#X#XXX#XXX_._._.Q.W.j.g.0._ ^ R P P P R R R P P P P P C C r r r V 5.g.g.g.g.",
"sXuXtXtX4X4X%XXX|. XXX(.(.(.(.{._.XX_._.XXXXXX#XXXXX#X#X#X#X<X<XXX_._._.Q.W.j.g.0.=._ R R R R T T R T T P P P L L L U r.g.g.g.g."
};
