/* XPM */
static char *chimi_2_641741260423[] = {
/* columns rows colors chars-per-pixel */
"64 64 241 2 ",
"   c #05040C",
".  c #09090E",
"X  c #08050C",
"o  c #0D0D14",
"O  c #0F0E19",
"+  c #080712",
"@  c #100F16",
"#  c #110E19",
"$  c #0F1317",
"%  c #121116",
"&  c #13131B",
"*  c #1A1A1D",
"=  c #181719",
"-  c #1A100F",
";  c #281B19",
":  c #321E19",
">  c #23040A",
",  c #29211D",
"<  c #34221D",
"1  c #352B1F",
"2  c #161620",
"3  c #161922",
"4  c #1A1C24",
"5  c #1C1E2A",
"6  c #181622",
"7  c #211F24",
"8  c #1E212B",
"9  c #1D2628",
"0  c #232224",
"q  c #23232C",
"w  c #232B2D",
"e  c #2D2B2B",
"r  c #2B2626",
"t  c #3B2B24",
"y  c #322D2B",
"u  c #392726",
"i  c #35312E",
"p  c #3E322B",
"a  c #3C3025",
"s  c #232531",
"d  c #262934",
"f  c #2A2B33",
"g  c #292D39",
"h  c #283333",
"j  c #353433",
"k  c #3A3532",
"l  c #3E3A35",
"z  c #3A393A",
"x  c #302F35",
"c  c #462A2A",
"v  c #42322C",
"b  c #443528",
"n  c #473B35",
"m  c #573637",
"M  c #633C3D",
"N  c #48413B",
"B  c #52443C",
"V  c #564A3E",
"C  c #3D3D43",
"Z  c #683E43",
"A  c #3B4246",
"S  c #444344",
"D  c #4A4643",
"F  c #494948",
"G  c #544B43",
"H  c #5A4D43",
"J  c #564B47",
"K  c #5D5144",
"L  c #5C524A",
"P  c #54524D",
"I  c #565454",
"U  c #4C4E52",
"Y  c #664948",
"T  c #62564C",
"R  c #64594B",
"E  c #645647",
"W  c #764E50",
"Q  c #6D5352",
"!  c #655C51",
"~  c #6C5D53",
"^  c #635A57",
"/  c #735454",
"(  c #715B54",
")  c #745C5A",
"_  c #7C5957",
"`  c #744D4C",
"'  c #6B6256",
"]  c #6C635B",
"[  c #69665C",
"{  c #746354",
"}  c #74645B",
"|  c #7A625D",
" . c #7B6A5C",
".. c #716A5E",
"X. c #5B5C61",
"o. c #6B6866",
"O. c #746662",
"+. c #7B6462",
"@. c #746C64",
"#. c #7D6C64",
"$. c #7A6D69",
"%. c #7C7164",
"&. c #7C726A",
"*. c #77736C",
"=. c #7C7672",
"-. c #767678",
";. c #6C7071",
":. c #845857",
">. c #88665C",
",. c #826B65",
"<. c #826D6A",
"1. c #886663",
"2. c #837365",
"3. c #84746C",
"4. c #89756E",
"5. c #86796C",
"6. c #8A7A6D",
"7. c #99766B",
"8. c #8A7672",
"9. c #857B73",
"0. c #8C7C73",
"q. c #8C7D79",
"w. c #857875",
"e. c #907E76",
"r. c #987B76",
"t. c #946A68",
"y. c #A67B6C",
"u. c #A37D74",
"i. c #AC7F73",
"p. c #825F63",
"a. c #8E8175",
"s. c #8D827A",
"d. c #918175",
"f. c #93847C",
"g. c #95897E",
"h. c #988A7F",
"j. c #9C837B",
"k. c #A98479",
"l. c #B88A79",
"z. c #C3927E",
"x. c #7E7D83",
"c. c #8A8684",
"v. c #948581",
"b. c #958B82",
"n. c #9A8C84",
"m. c #9A8D89",
"M. c #978A86",
"N. c #9B9186",
"B. c #9D938B",
"V. c #97928A",
"C. c #9C9793",
"Z. c #8C9093",
"A. c #A48A87",
"S. c #A2958C",
"D. c #A2998F",
"F. c #A9918B",
"G. c #B89587",
"H. c #A29592",
"J. c #A49B93",
"K. c #AA9B95",
"L. c #A49D99",
"P. c #AB9E9C",
"I. c #AE9794",
"U. c #B49C98",
"Y. c #B48D82",
"T. c #A9A197",
"R. c #ACA49B",
"E. c #AAA59C",
"W. c #B3A39D",
"Q. c #B6A59D",
"!. c #ADA5A2",
"~. c #AEA9A4",
"^. c #A9A8A8",
"/. c #B3A5A1",
"(. c #B3ABA4",
"). c #B5ADA9",
"_. c #BBA9A4",
"`. c #B6B2AB",
"'. c #BBB3AC",
"]. c #B8B3A8",
"[. c #AEADB2",
"{. c #BBB5B2",
"}. c #BDBAB4",
"|. c #BAB8B5",
" X c #B3B0B2",
".X c #9EA0A5",
"XX c #C79885",
"oX c #C79D94",
"OX c #CBA28E",
"+X c #D2A48D",
"@X c #C9A79A",
"#X c #D4AC97",
"$X c #D8B39A",
"%X c #C4ACA5",
"&X c #C9B4AB",
"*X c #D8B7AA",
"=X c #C3BBB4",
"-X c #C3BDBA",
";X c #C4B7B6",
":X c #D5BBB2",
">X c #E1BDA5",
",X c #C5C1BC",
"<X c #CAC4BD",
"1X c #C6C4BB",
"2X c #D1C7BE",
"3X c #E1C4BC",
"4X c #BFC2C7",
"5X c #C5C4C3",
"6X c #CAC5C2",
"7X c #CDCAC4",
"8X c #CDCCC9",
"9X c #C7C9C8",
"0X c #D1CBC5",
"qX c #D2CDCA",
"wX c #D4C9C6",
"eX c #D4D1CD",
"rX c #D7D3CA",
"tX c #D5D4D2",
"yX c #D9D6D2",
"uX c #DBDAD5",
"iX c #DDDCDA",
"pX c #D6D8DA",
"aX c #CFD0D1",
"sX c #E0DEDA",
"dX c #EEDDD3",
"fX c #E5D0CB",
"gX c #DFE0DB",
"hX c #E2E2DD",
"jX c #DEDEE0",
"kX c #DEE1E1",
"lX c #E4E4E3",
"zX c #E6E8E5",
"xX c #EAEBE6",
"cX c #EBECEB",
"vX c #E7E7E8",
"bX c #EEF0EE",
"nX c #EFF2F1",
"mX c #F2F4F4",
"MX c #F9FBFC",
"NX c #F0F0EE",
"BX c #E1DFE2",
/* pixels */
"s.s.[ A w 9 . $ $ $ o     + o O o # o + 7 7 j @ & = 4 & & & & & & & & & 2 2 2 2 6 3 3 5 3 5 5 5 5 5 5 8 s 8 s s s s g g g g g C ",
"9.s.X.A w 9 . $ $ . s S A C     o o O o 0 5 q = % * 5 # & o % & & & 2 & & 2 2 2 2 3 6 3 3 3 3 5 5 5 5 8 8 s s s s s s s g s d s ",
"5.9.[ A h = $ $ % @.].2XwXyX.XC   @ @ + e 4 o q @ & 4 @ & & & % O & & & O 2 O 2 3 2 2 3 3 3 3 5 5 5 5 5 8 8 5 s s s s s d d s d ",
"*.a.[ A h * o . U 1XOX@X*X*XdXcXX.+ o # e 3 & 0 # & 7 @ @ # o # o & & & 2 & & 2 O 2 2 2 5 3 3 5 3 5 8 5 5 5 5 5 5 s s s s s d d ",
"*.a...A h = $ 9 L.oX+X#X#X#X#XfXcXX.+ # y & @ 7 = o 4 @ @ @ @ O @ o O & O & & 2 & 2 2 2 2 s 2 3 3 3 g 6 5 5 5 5 8 8 s s 8 s s s ",
"*.9...A w = $ F G.XX+X>X*X>X:X*XBXnXx.& e = % = 0 & * @ @ o o # # & O $ O O & O & & 2 O & q 2 2 3 3 s 3 5 5 5 5 5 5 s 5 8 s s s ",
"%.=...A w = $ ..G.OX#X#X$X#X#X@X&XsXkXo.0 & @ o f x * o o @ o # o & O $ O O O & & & & 2 & 4 4 2 2 & 7 3 3 3 5 5 5 s 5 8 5 s 8 s ",
"..5.*.S w $ $ a.G.OX$X#X+XXXXXY.I.-XpXkXj o @ @ . C r + # o o o o o o O o O O O O O & O & & 5 2 2 5 5 3 3 4 s 4 8 8 5 5 s 8 8 5 ",
"..%.*.N w = % h.G.OX$X$X+XG.k.k.y.r.;XtX4Xq # & o q j o o o @ o o o # & o O o o # o & & % o q & 2 7 2 6 2 5 8 4 C 2 5 3 5 5 8 5 ",
"[ *.%.F 9 = = K.k.XX#X#X+Xl.k.k._.I.A.).iX!.* = % & z * o o o o o o o o o o o O # % & $ & @ q & 2 5 2 2 O s 2 5 5 2 5 5 5 5 5 5 ",
"[ %.%.P w $ * G.i.XXXX+X+Xl.k.k.F._./.P.4XtXc.+ q . e f . o o o o o o o o o o o $ o o O @ & q & & s & O z ;.Z.-.5 5 3 5 3 8 5 5 ",
"! %.*.P w = r F.k.XXXX+Xz.l.u.r.r.t.I./.).{.wXU + e 0 y . . o o o o o o o # o o o o @ @ # o 5 & 6 & 5 -.|.5X-X5X.X3 5 3 5 3 3 5 ",
"! ..*.P w $ P l.i.l.z.XXz.z.y.y.j.r.t.M.P.L.).~.j = 0 I . o % o % o @ o o o o @ o o o # $ o q + x F V.]././.R.P.yXA * 6 3 3 3 5 ",
"! [ %.P w $ o.j.y.k.z.z.z.z.y.i.A.P.A.<.C.s.C.W.V.q & o.4 O o = * o . o o o o o o o O $ o o 0 0 b.B.B.A.I._._./.'.;.$ 6 3 3 3 4 ",
"! [ %.P w $ @.7.y.y.i.z.z.l.i.i.r.A.H.v.v.O.L.D.D.=.U ^ o.& 9 4 o   + o o o o o O o % o &   U V.s.v.N.K.Q.U.%XU.U.c.o 6 2 * 3 3 ",
"R [ ..! w $ ] y.7.7.y.z.XXl.i.u.r.A.H.C.c.M.C.9.b.v.g.*.C.F I I C I 4 % . o @ o @ o O O 4 J m.&.&.v.S.Q.W._._.%X:X-.o & 5 q q d ",
"! ' ..! h 9 [ a.7.7.y.l.l.z.k.u.r.P.H.).P.!.^.m. X`. X[.9X.X[.4XpXpX4X.XF 9 o 2 q q q 7 -.w.$.w.C.M.P.I.U.U._.%X>Xo.7 q q = & & ",
"! ! ..' N h N 7.t.>.y.y.l.l.l.k.A.H.;X;XaX5X9X9XpXpXpXpXkXxXpXcXnXcXmXMXjX[.-.U x.-.*.w.O.$.$.v.n.I.P.U.P.%X:X*X:XS & # # & & * ",
"! ! [ ' V N y a.>.>.t.y.l.l.l.F.;X{.{.aXpXpXlXlXvXzXlXcXbXnXbXcXcXnXbXmXMXMXMX8XtX9X-X).q.w.s.v.M.P.K./.%X:X3X%X:Xq # & & & & & ",
"! K ..[ N N i j.>.>.>.7.y.l.R./.{.8X4XqXBXlXcXnXnXcXvXcXzXgXpXiXlXcXcXbXmXmXmXMXmXmXbXpX5X|.L.m.P.F.I.Q.*X*X*XoXL.2 # & & & # & ",
"' L ] ' V N %.j.>.1.>.7.7.A._.{.}.6XaXaXlXcXnXnXcXvXlXiXtX8X9X8XaXgXvXvXxXxXbXmXmXcXcXcXBXpX9X}.H.U.U.%X*X*X@X@Xo.& & @ o o @ # ",
"' L ' ] V K d.7.7.>._ _ r.A.I.{.9X8XeXtXjXgXiXtXtX8X9X6X5X}.`.~.`.}.8XgXxXgXhXhXlXiXhXlXnXcXBXtX;X;X_.&X%X@XoX%XS e 0 w s 5 & o ",
"[ L ! ] V ! >.7.6._ >.,.1.I.P./.5XtXpXuXtX8X9X}.~.L.L.L.R.L.V.M.m.C.`.8XzXtX7X8XeX8XtXiXnXcXcXlXpX-X;X%X%XG.XXU.O o o o = q f e ",
"[ V R ] K R >.d.4.W ) v.A.I.=X5X7X8X6X,X).H.v.q.q.3.3.4.4.0.4.4.5.a.B.(.eXuX}.~.(.'.-X8XlXlXcXcXlXiXwX&X%XU._.=.  o O o o o + & ",
"{ L L ] L K 2.f.6.:.| f.~.}.,XeX6X}.(.B.} B c c t c B ( } O.#.#.&.5.9.B.|.uX7X|.~.H.R.{.eXuXiXlXcXcXsX;X/.I.%XU d * . @ o o o o ",
"..K L ' K V 6.A.4.4.F.-X7XuXuX6X(.S.8.^ c < t t : ; : c J ) +.+.$.3.w.s.L.-X8X7X{.L.L.T.`.}.wXeXBXBXvXBX6X_.M.7 q 4 & & o o o o ",
"' L L ' L N L s.H.=XyXyXgXtXtX7XR.f.) v t n a 1 @ = : : < M ) } $.3.&.9.C.~.1X,X5X^.J.B.H.L.P.'.;XqXBXcXyX-Xx.7 % o % o o o o o ",
"' E L T L B P s.-XeXeX7X2X8X1X1X'.L.9.p B b b , . % < < ; u T O.$.&.3.9.V.^.}.9X8X{.L.m.v.v.M.n.I.'.aXvXNXBXx.f % o o o + o o o ",
"! { R ! ! ! *.{.0X6X1X=X).].}.Q.E.L.B.$.p b b , X - a t < ; G +.&.=.9.s.J.}.tXtXpX5XL.Z.q.+.T Y Y ) P.iXNXcX[.-.S 4 @ . o + o o ",
"[ ~ ' L ' } =.1X,X'.{.).(.(.R.T.D.D.B.N. .B a , % t a b : - D O.3.4.c.P.{.eXcXmXcXiX!.m.J p ; < c m _ -XBXmXpXx.S * . @ o o + o ",
"%.T K L L ! L.<X}.(.(.E.E.E.R.T.B.N.N.V.V.a.' l 1 t 1 < - ; J 3.w.V.~.`.,X5X9XcXmXnX8XM.: u = * n Y ` M.eXNXnX[.I 7 @ @ o o o + ",
"H ' L B L [ {.1X(.W.T.T.C.D.B.B.b.h.f.s.g.b.v.&.R V n v v n H m.C.^.|.5XqXwX-XwXvXmXnX~.; t * % n m H H.tXBXcXaXc.C * @ . . . o ",
"G V ..G G =.7X].R.T.D.C.N.n.b.h.g.g.s.f.n.n.N.h.0.%...@.O.@.b.).).`.).}.8XtX8X6XwXjXmXBXS c 7 7 c n w.;XrXyXiXlXZ.C r # o X . . ",
"N B V ' @.C.<X].T.T.D.B.b.h.b.b.g.N.N.V.n.N.V.D.L.J.B.V.C. X}.-X{.^.P.L.P.{.-X6XwXpXBXnX-XO.J J ) q.P.-X5X7XqXvX[.C @ @ o @ o + ",
"N N n N o.{.1XE.D.T.J.B.N.n.n.b.g.f.g.h.V.V.B.J.T.E.].`.=X,X-X-X`.E.m.8.v.H.U.U.U.;XwXvXvXtXm.v.B.K. X{.=X5XeXiXaXC 6 4 = . X   ",
"b a l G g.1X'.T.D.D.N.D.S.N.n.f.s.g.g.h.h.B.B.S.T.R.W.(.).`.(.~.L.H.3.8.p.p.t.r.r.I.U.wXcXBXvX5X5X0X9X,X6X7XtXiXBX-.j 4 % X X % ",
"t p N G v.}.E.T.R.E.T.D.D.S.N.b.g.f.f.g.n.b.b.M.N.N.B.B.H.B.J.V.w.<.,.,.:.:.:.p.p.t.u.I.BXpXcXmXhXyXtXeX7X8XuXhXkXx.& +   X o ; ",
"V V V ! $.J.T.V.b.S.D.D.B.N.N.S.B.N.b.g.f.b.h.f.b.N.V.b.B.C.B.B.q.Y H ` W m ` :.:.t.u.k.wXqXhXvXcXiXtXeX8XeXtXgXkXI . + . 0 i t ",
"B B N V G [ V.g.h.b.b.b.n.b.b.f.f.b.N.S.N.N.n.v.b.J.T.L.C.J.m.V.f.<.Y m c > m :.:.t.W t.%XaXjXvXuXuXtXeXtXeXuXlXcX-.F C k p u : ",
"K K V V V [ g.b.h.N.n.h.f.f.f.h.v.b.h.v.b.m.N.N.N.J.N.b.9.f.N.n.f.q.<.W m c Z :.:.p.m 1.5XvXBXcXzXtXtXeX6X0XuXlXmXZ.I n u : : < ",
"K K K K K E g.h.m.V.b.h.f.a.e.0.0.0.0.f.s.f.s.B.L.T.J.J.N.H.N.b.f.0.0.#.) Z Z W p.W ) H.iXcXvXvXbXhXeXtX0X0XeXgXMXC.L v : : : u ",
"E K K E K K [ D.N.N.b.h.f.d.e.e.6.0.0.0.f.m.B.J.J.B.S.B.V.s.q.w.9.8.4.3.p./ ` Z :.p.v./.;XtXjXlXvXzXuXeX<X<X8XiXnX|.@.o.L J ^ C ",
"E R E E V V [ B.N.N.h.h.f.e.e.e.e.e.0.e.a.f.f.f.q.0.3.#.) } #.} +.0.w.8.<.<.W m W 8.M.H.P.-XwXyXvXcXhXeXrX7X0XyXcX5XL m c p 7 * ",
"E E E E R P [ h.N.n.n.b.b.n.h.j.g.v.n.n.S.D.C.N.m.f.4.$.#.3.w.4.e.f.f.0.w.w.+.Z +.v.A.m.L.L.).{.9XyXcXcXtX6X<XrXvX}.^ V v u : o ",
"E R E E V N P g.J.J.D.N.n.f.h.n.n.b.f.f.h.B.B.B.n.b.f.f.f.w.q.e.e.8.+.$.<.+./ / $.w.v.A.L.P.H.!.}.,XtXcXsX7X7XrXvX8Xo.H G J D C ",
"R E E ' [ ' *.C.D.b.h.h.h.h.h.f.e.e.f.f.f.h.f.f.d.0.0.3.8.<.8.3.3.3.<.<.<.<.W ) <.8.w.A.H.!.'.).-X6X7XsXuXrX0XrXhXBXw.G : : - = ",
"[  .5.%.G l P V.D.S.S.N.f.e.f.f.j.f.a.a.f.n.n.b.g.a.q.q.f.e.f.0.e.0.8.8.<./ / +.<.8.v.v.m.H.~.).=X6XqXyXeX<X<X0XiXcX[.] c : ; % ",
"a. .L N l S *.E.T.N.g.f.f.j.d.0.d.f.f.d.f.b.n.b.A.n.b.f.f.f.0.6.w.e.e.8.+./ / _ 8.q.v.A.H.A.H.L./.{.6XyXsXrX2X0XuXcX}.o.v < r % ",
"%. ...V P P =.~.J.V.h.g.a.a.g.h.d.d.h.d.d.a. .g.g.d.h.d.e.0.8.w.8.w.) / / ) ) ) <.e.j.n.D.T.R.R./.'.;X<X2X1X2X2XhXxX9Xa.P t , ; ",
"a.d.K k j l 9.E.T.h.g.g.h.h.h.d.k.d.d.a.2.{ a.a.a.g.d.h.f.8.<.| ) Q Q Q / ) / / ) 8.v.n.S.D.T.(.].{.=X=X].=X1XrXuXxXeXT.[ a u r ",
"g...i i i P ;.C.J.h.B.N.h.d.g.h.d.a. .a.a.d.2.>.0.5.a.a.<.+.) Q Q ) ) ) ) ) | 1.<.+.0.b.S.S.T.R.].{.=X&X].=X2XuXuXhXuX].C.o.n p ",
"K i i l P D [ T.T.D.h.g.d.h.d.a.a.d.d.d.d.a.a.a.6.3.3.2.#.#.} +.+.+.<.+.<.+.<.8.e.e.0.A.J.K.T.(.Q.W.].1X=X1X1XrXuXxXxXhX8X-X}.L.",
"9 1 N F l F s.~.T.h.h.h.h.6.6.6.d.d.d.d.a.a.d.d.6.4.4.8.5.3.3.,.+.<.0.8.3.0.8.r.v.n.A.D.T.K.Q.Q.R.R.Q.1X1X1X1X2XdXhXNXxXcXbXxXcX",
"h V N l N P [ E.D.D.h.g.d.0.6.d.2.d.d.d.>.d.d.d.4.0.0.0.e.e.e.<.3.8.f.e.6.j.n.n.A.H.D.L.K.K.D.T.R.R.(.].1X1X2X2XgXhXhXNXNXxXxXxX",
"N l N N k l *.E.T.h.j.d.a.a.6.6.d.d.d.2.d.d.d.2.0.0.8.6.8.4.4.0.0.e.j.e.0.h.N.S.D.K.K.K.D.D.D.T.(.Q.].=X&X2XrXuXgXxXNXxXxXNXNXxX",
"l F z h j F o.T.T.h.d.a.a.7.d.d.d.d.2.d.d. .d.2.5.3.4.3.3.3.0.e.q.e.f.e.g.A.S.S.K.J.D.S.S.h.S.D.Q.].].1X2X2XuXhXxXxXxXcXxXxXNXNX",
"N l e 1 h l [ E.J.h.g.a.a.a.d.d.a. .d.a.>.2.2.2.2.2.2.2.2.3.6.e.e.0.q.f.v.n.S.S.n.J.n.h.h.b.S.T.Q.].1X<X0XrXuXgXhXhXxXxXxXxXxXxX",
"i h 1 = = h ;.C.T.h.g.g.a.a.d.d.a.a.d.a.d. .2.2. . .>. .| ,.5.0.8.8.0.e.f.h.f.f.5.h.f.h.N.S.T.W.'.=X1X8X0XuXgXgXhXhXhXxXxXxXxXxX",
"l e = = 1 V *.T.T.h.h.h.g.h.g.d.a.a. .a.{ {  . .{ { ( ( E ( |  .#.} ,.6.3.0.3.6.4.d.f.n.S.T.(.=X<X<X2X7XrXyXhXhXhXhXxXxXxXxXxXxX",
"1 * * h z l I g.D.h.h.h.g.d.a.a.a.{ a.>.{  . .{ { { { E V E ~ { { ( {  .#.2.#.5.6.f.b.N.K.R.].=X,X-X1X7X7XrXgXgXhXhXhXhXhXhXuXgX",
"* = 1 i h l P *.h.h.h.h.d.a.a.a.2.2.a.{ 2.2. . .{ {  .{ { { ~ { } }  .+.,.0.0.a.a.f.N.J.R.(.'.-X,X<X<X<XrX2XrXtXhXrXgXgXhXgXgXgX",
", 9 j 1 1 i N [ h.h.h.h.d.a.a.2. .a. .2. . .{ { 2. .2.2. . . .2. .#.3.9.0.s.f.g.h.N.B.J.R.].-X6X0X<X6X7XrXrXeXgXgXgXuXrXrXuXuXuX",
"1 i e e h l A F *.T.h.h.a.a.a. . .a. .{  .a.{ %.a.2.2.2.2.%.5.2.2.5.5.%.3.s.s.g.b.D.J.R.'.1X<X6X0XqXrXqXrXgXgXrXuXgXxXxXxXgXgXgX",
"i e e r 1 h D [ h.T.h.d.a.a.a.a.a.a.a.a.%.a.a.a.a.a.a.5.5.3.2.%.3.%.&.5.a.s.g.b.S.J.R.(.].'.-X6X0XyXiXgXgXhXxXgXgXhXgXgXxXxXxXdX"
};
