/* XPM */
static char *chimi_1_641741260423[] = {
/* columns rows colors chars-per-pixel */
"64 64 219 2 ",
"   c #1D191A",
".  c #181516",
"X  c #100C0D",
"o  c #241D1C",
"O  c #2B211C",
"+  c #252222",
"@  c #2C2626",
"#  c #342A2B",
"$  c #362F31",
"%  c #3E3B3C",
"&  c #393435",
"*  c #35302E",
"=  c #413D3D",
"-  c #483B38",
";  c #4A3333",
":  c #683A3B",
">  c #763C39",
",  c #48413D",
"<  c #56483D",
"1  c #74423D",
"2  c #67403F",
"3  c #3C3F46",
"4  c #423E41",
"5  c #513E40",
"6  c #623D41",
"7  c #3E4349",
"8  c #454344",
"9  c #494544",
"0  c #494648",
"q  c #4C4B4C",
"w  c #484748",
"e  c #524D4C",
"r  c #574846",
"t  c #55514D",
"y  c #5A534D",
"u  c #4E4E51",
"i  c #4B4F58",
"p  c #524F51",
"a  c #545354",
"s  c #5A5553",
"d  c #5D5954",
"f  c #565659",
"g  c #5B5B5C",
"h  c #58585B",
"j  c #4F5052",
"k  c #644C4D",
"l  c #6A4747",
"z  c #784A47",
"x  c #67514D",
"c  c #7B534C",
"v  c #7A514A",
"b  c #645453",
"n  c #6A5453",
"m  c #625B55",
"M  c #635D5A",
"N  c #6C5B5B",
"B  c #6B5956",
"V  c #745553",
"C  c #795D5B",
"Z  c #785956",
"A  c #6E4F52",
"S  c #66615C",
"D  c #69635F",
"F  c #77625E",
"G  c #5E5E61",
"H  c #555861",
"J  c #645E61",
"K  c #735D60",
"L  c #5E6267",
"P  c #636264",
"I  c #6B6462",
"U  c #6D6965",
"Y  c #666669",
"T  c #6B6B6C",
"R  c #67676B",
"E  c #736C6B",
"W  c #776865",
"Q  c #76726D",
"!  c #79736D",
"~  c #6D6D71",
"^  c #656A70",
"/  c #736F72",
"(  c #737374",
")  c #7B7573",
"_  c #7D7974",
"`  c #767578",
"'  c #7B7B7C",
"]  c #77787A",
"[  c #6E7176",
"{  c #83493E",
"}  c #844A44",
"|  c #88564B",
" . c #975A4E",
".. c #875A53",
"X. c #965C53",
"o. c #A55E53",
"O. c #8A635A",
"+. c #986358",
"@. c #A5695C",
"#. c #AB735F",
"$. c #846562",
"%. c #8C6563",
"&. c #896B67",
"*. c #976B66",
"=. c #9A726C",
"-. c #837E7A",
";. c #877B76",
":. c #987875",
">. c #8B716E",
",. c #A76D64",
"<. c #A87568",
"1. c #B37B6C",
"2. c #B87969",
"3. c #A87B73",
"4. c #B77F74",
"5. c #C17B6D",
"6. c #7E807F",
"7. c #85817C",
"8. c #89847E",
"9. c #98837E",
"0. c #BA826D",
"q. c #A9847B",
"w. c #B98575",
"e. c #C28773",
"r. c #7D7E81",
"t. c #777A82",
"y. c #817F81",
"u. c #7E8184",
"i. c #838384",
"p. c #8B8682",
"a. c #8D8A83",
"s. c #858589",
"d. c #8B8C8C",
"f. c #87888B",
"g. c #918D86",
"h. c #928E89",
"j. c #998886",
"k. c #94928C",
"l. c #9A938D",
"z. c #99958C",
"x. c #8D8E91",
"c. c #8E9191",
"v. c #949493",
"b. c #9A9692",
"n. c #9B9A95",
"m. c #959699",
"M. c #9C9C9A",
"N. c #979997",
"B. c #8F908F",
"V. c #A78984",
"C. c #A29D96",
"Z. c #A29E9A",
"A. c #A99A96",
"S. c #B39A95",
"D. c #AF9089",
"F. c #9FA09B",
"G. c #A4A29D",
"H. c #AAA49E",
"J. c #A8A89E",
"K. c #B5A29D",
"L. c #9E9EA2",
"P. c #9EA0A1",
"I. c #A4A5A3",
"U. c #ABA6A1",
"Y. c #ACAAA4",
"T. c #ACACAA",
"R. c #A6A9A7",
"E. c #B1ACA6",
"W. c #B2AEAA",
"Q. c #B9A9A5",
"!. c #AFB0AC",
"~. c #B4B2AD",
"^. c #B9B4AE",
"/. c #B4B5B3",
"(. c #BAB6B2",
"). c #B6B8B5",
"_. c #BBBAB5",
"`. c #BCBDBA",
"'. c #B6B8BA",
"]. c #ADB0B3",
"[. c #C39183",
"{. c #C2BEBB",
"}. c #C5B9B5",
"|. c #C6B5B0",
" X c #BFC0BC",
".X c #C2C2BE",
"XX c #BDBEC0",
"oX c #BEC2C3",
"OX c #C4C5C3",
"+X c #CAC6C4",
"@X c #C6C8C4",
"#X c #CACAC6",
"$X c #CCCCCB",
"%X c #C5C9CA",
"&X c #D2CECB",
"*X c #CED0CD",
"=X c #D2D2CE",
"-X c #CDCFD1",
";X c #CDD2D2",
":X c #D4D4D3",
">X c #D9D9D6",
",X c #D4D6D8",
"<X c #DBDCDB",
"1X c #D7D8D7",
"2X c #E3DEDC",
"3X c #DEE0DE",
"4X c #E1E1DE",
"5X c #DBDEE1",
"6X c #DDE1E2",
"7X c #DFE4E8",
"8X c #E3E4E3",
"9X c #E6E8E6",
"0X c #E6E9EA",
"qX c #EAEBEB",
"wX c #E5E8E8",
"eX c #ECEFF1",
"rX c #F2F3F3",
"tX c #F9FAFA",
"yX c #F1F2F0",
/* pixels */
"<XqXqXwX3X<X>X X).!.G.G.I.G.G.G.I.Y.G.G.!._.!.k.d.N.J.v.k.G.G.Y.^.Y.U.E./.^.W._.{.W.U.U.E.E.J.E.R.J.^. XE.E.^..X~.J.E.~. X X X^.",
"<X1X'.OX1X:X$X!.Y.J.F.G.G.G.G.!.).^.G.F.J.Y.G.F.d.k.M.M.v.M.R.Y.Y.W.H.C.U.U.Y.(.E.E.Y.U.^.E.K.H.J.~.~.g.7.F 8.q. XJ.J.E.~..X X X",
"1XOXP.'.*X@X).R.F.F.F.F.G.I.!.!.^.R.G.F.C.G.n.G.B.B.N.N.b.G.J.G.U.Y.U.H.H.H.E.W.J.E.H.J.W.^.~.^.E.G.7.F v 1 x O.E.J.!.!.~.!.^..X",
"%X%XoXXX X XE.Y.G.n.G.F.G.!.~.~.R.G.G.G.n.n.J.n.c.c.N.N.v.U.C.U.W.Y.J.^.E.H.~.^.Y.H.J.H.E.^.(.(.C.&.l c c | c c q.~. X X X~. X#X",
"OX$XOXOX.X/.G.R.R.G.Y./.Y.~.).^.W.Y.Y.J.C.G.Y.M.a.B.N.N.N.J.Y.E.E.E.C.E.E.E.E.H.K.Y.G.G.E.~._.l.F x Z ..c | O. .@..X.X X.X*X X=X",
"{.`.'.'.@X_.C.K.Y.T.W.~.I.G.Y.R.G.I.G.W.J.n.G.n.N.N.F.N.v.J.Y.J.J.H.C.H.~.E.H.H.~.^.Y.J.E.}.l.F V c c v c |  . .@.J.>X=X.X=X*X>X",
"'.{.`.OX^.q.=.3.3.j.E..X_.~.).~.M.G.G.J.n.z.n.G.N.F.N.c.N.J.J.G.H.Z.H.H.E.E.E.H.E.^.Y.Y.^.A.F x F Z c v |  .0.0. .D.#X>X#X#X=X=X",
"_.%XXX/.D.*.,.=.=.3.V.A._.@X@X.X_.Y.J.G.R._.~.G.z.N.N.B.F.J.C.F.Y.E.H.G.H.E.E.^.E.^.^.E.G.F A C F c c c c O.9.#.+.q..X>X.X X3X.X",
"-X;XoXA.3.<.w.q.3.<.*.&.g.!. X*X$X.XR.I._.$X_.F.n.v.v.v.n.G.C.C.E.~.H.H.U.E.W.}.Y.^.}.J.W l C F F m c c c | *.#. .q..X*X.X.X>X.X",
">X,X;XS.<.w.w.w.3.3.=.O.F &.Z. XOXOX~.Y.^._. X_.I.n.M.P.v.C.G.C.H.E.~.Y.U.E.}.~.U.~.^.;.r N W F c c c c ..+.0.0. .q.!.*X>X.X*X=X",
"-X>X,XS.<.e.[.e.<.=.&.&.$.B B -.~. XY.I.I./.=X<X XF.M.Z.l.n.A.C.U.W.#X{.W.W.W.U.W.{.p.r n C K Z c Z c O.+.0.#.+. .=. X3X=X:X4X>X",
"'.$X-XS.1.2.e.4.0.=.O.&.&.O.Z n Q W.{.W.I.~.OX>X3X>X#X`.Y.H.U.W.W.W.+X+X&X+XE.H.}.C.W n Z N A V C |  . .@.0.#. .X.*. X3X&X*X3X3X",
"/.OXoXS.,.5.5.2.2.<.=.O.O.$.F n b E /.1X%X_.OX=X3X3X1X#X_.~.(.{..X{.{.+X+X+X_.}._.! k b n k V ..| ..#.#.0.0. .X.+.*..X3X>X3X9X4X",
"{.`.%XS.,.5.e.5.2.<.*.%.&.$.$.C N k ! _.<X1X$XOX$X1X,X#XOXOX`.@X@X{..X{._.{.&X@X8.r 5 r k V Z ....+.@.0.0.#. .|  .*.}.8X3X4X9XqX",
":XOX%XQ.4.2.e.5.4.1.,.=.&.&.&.W C N 9 W W.8X<X$X$X1X:XOX$X=XOX#X-X+X+X`.(.OX+XJ.r , - 5 b F Z z | +.#.0.#.+.| | | <..XqX8X4X8X3X",
"wX-X;X'.w.2.e.2.2.4.4.<.*.%.$.&.W N b - W _.<X1X1X:X:X:X1X:X@X1X2X&X&XU.Y.~.b.W , r r - n V v Z O.O.+.+.@. .{ | } V.=XqX9XyX8X$X",
"wX2X7X+Xy.5.5.5.5.2.e.1.,.+.%.%.$.K y r y ! W.;X@X).*XyXwX1X;X<X<X.X#X7.s S E S 9 r r r A A V z c O.+.#. .{ }  .} S.>X4X:X2X=XOX",
"eXeX0X+X[.,.5.5.e.5.4.5.1.*.%...$.F b r r y I -.T S B.OXoX/.`./.v.6.6.q @ < D s t r s k A A z z | | +. .z } } } l S.2X2X=X&X@X*X",
"rXrXwX,XS.@.@.o.5.[.5.4.1.<.*.%.$.W Z n y < r r , & e 6.d.B.!.m.' Q 8 , * 8 S d y s M M k A v V | | | 1 > ..X.> ..V.&XqX>X=X$X4X",
"eXwX8X5X}.#.o.o.,.5.[.2.<.3.=.>.&.C W C m y d y t 8 q I i.v.!.R.F.M.Y T P S Q Y g I I d b b K C v { 1 1 } | v z 1.*.}.yX2X>X>X9X",
"5X:X5X5X.Xq.o.@.o.o.5.5.2.5.y.=.&.$.$.F D U U U Y E ' B.I.!.). XoX XT.F.m.v.d.i.` -.E g N J K K V A z > c z : ..w.+.|.4X=X>X>X=X",
"5X<X;X-XOXS. .2.o.o.o.,.y.y.,.,.>.;.&.! 7.a.7.a.v.m.P.T./.!. X.XoX X X X'.T.I.M.b.d.s.' E J J N A A z l z : : l .. .|.4X:X=X&X#X",
"2X:X,X-X%X|.X.o.y.5.} o.5.,.,.y.;.;.;.7.k.N.v.F.T.T.'. X X). X.X X_.oXoX`._./.T.T.L.M.d./ E / K n A l l z > : l C O.Q.=X&X>X=X>X",
"<X:X:XOX%X+Xq.*.,.,.,.%.*.,.4.y.8.:.a.v.M.G.P.!._..XOX@X@X X X).)._. X X'./.'././.].I.x.f.y.y.E D N V A 6 6 : 6 V &.|.4X&X4XyXrX",
"&X-X+XXXXX}.[.y.,.*.,.,.,.*.y.y.l.h.b.Z.G.I.R.(..X@X@X+X@X X).~.). X)./.T.].).)./.T.T.L.L.m.f.] / ~ K k l 6 6 6 F K.4XyXqXqXqX=X",
"{.OX'.XX+X|.4.[.4.X.,.y.2.y.y.D.C.A.Z.I.T.!./._..X@X.X_. X).!.Y.~._./.T.P.I.T.T.T.R.R.].].L.x.f.y./ K K k 5 : k p.<XqX<X=X(.G.6.",
"'.}.OXOX-X}.5.[.=...o.3.y.D.V.L.I.U.E.W./._.`..X X.X_.~.!.J.F.R.!.!.R.F.N.N.M.P.m.m.L.L.L.L.m.x.y.) E W n k k A N.:XoXx.T f u 7 ",
"].XX-X$X-X,X[.y.=.X.%.:.y.V.L.A.U.~.}.XX{..X.X_._.)./.I.F.n.k.n.G.F.n.B.d.d.f.f.i.y.h.x.x.v.m.M.v.f.y./ R K r b d.n.T u w 7 7 i ",
"/./.-X%X,X4X|.D.:.X.%.y.y.Q.S.]./.{.OXOXXX_./.R.].T.P.k.a.6.( a.v.a.' E T T T S p 0 u G ` y.d.m.m.d.y.' ( W J K 6.M.L 7 H ^ ^ L ",
"XX+X-X-X,XqX6X(.y.%.o.y.S.Q.].'.XXOX+X{.'.T.R.M.n.d.8.' ) U Q a.k.( m e u e 8 * + + + @ & 4 J ) y.d.y.y.` ` ) ` ` '.f.L h q w 7 ",
"-X,X2X,X:XwXrX5XK.,.=.S.K.Q.XX+X+XOX~.Z.y.` ) 7.-.Q E Q Q ( 7.k.a.P q 4 7 % @ . .   . o     & p ~ s.x.x.i.' i.s.' XXc.G g i L [ ",
"4X5X4X,X-X,XqXeX|.y.y.|.}.XX+X+X{.T.y.J r ; - r M D U _ 8.a.v.B._ d 0 % = $ o   + .   @ @ o @ 9 R y.x.m.x.i.i.d.c.'.u.R f.R.oX<X",
"8X<X,X,X;X,X<XwX.XA.E.}.+X+XOX{.I._ < < , O O O - N ) -.h.m.m.d.Q a 0 4 8 @ . + + . . + + + @ t ] 6.6.u.d.c.f.u.N.oX%X;X6X6X5X5X",
"7X0XeX0X<X5XqXqX#X^.}.+X&X&X{.U.;.< m m - O O O O d -.s.Z.n.m.p.[ h w 8 8 @ . + O . . + + . 7 U ` Q ( ( ` d.x.s.d.'.,X6X5X5X5X5X",
"eXtXtXeX5X5XrXqX$X.X-X=X#X+X~.b.W * S m & + O # O 9 -.b.I.U.m.d.` P u u q # X . O +       * L ~ ~ T Y Y T ] i.d.s.I.,X7X7X7X7X7X",
"8XeXtX0X<X<XqXqX:X$X=X&X.X~.Y.C.) - < < < * * ; O r p.I.T./.U.L.d.` P g i & .       O + = G T T Y Y P P R T ' f.s.m.-XeX0X0X7X5X",
"$X:X<X<X;X:X6XyX4X*X$X#X`.T.Y.Y.k.J - < < - ; , O B L.~.'.{.`.T.M.f.` T G 0 $ $ * & % a T ` T L P g L G P Y [ 6.f.c.oX7X5X,XoXoX",
"%X%X+X$X$X%X3XrX4X*X.X#X_.Y.Y.J.G.k.M , - - - - , -.].`.+X%XOXT.M.v.s.] T J g h P P ( 6.6.T S a a a f g g Y T ( u.P.;X;X'.].R.R.",
"%X#X%X-X$X*X8XqX3X&X&X.X~.~.Y.G.M.M.M.-.M y b W a.Z.(.@X$X%X`.I.m.m.d.' ` ] ' R Y ( 6.6.T Y f j w j j a g Y T T u.m.oX'.R.P.P.P.",
"-X-X=X:X*X*XyXyX3X&X&X.X~.T.U.M.b.l.m.h.h.d.v.Z.].]._.&X$XOXT.Z.I.m.i.` / ' i.] 6.6.6.( T g a j q w j j g Y Y T [ x.'.oX].R.R.R.",
"1X2X4XeXqX8XtXqX:X*X#X X!.Y.Y.n.h.k.d.b.M.I.I./.OX_./.@X+X^.M.m.m.d.` E / ' r.' r.r.( P L h j q q q q j f L T ~ [ c.'.oX'.R.R.R.",
"tXtXtXrX<X+XXX_.*X:X.X XY.Y.G.n.v.k.h.b.n.G.T..X+X'._.{.'.A.j.s.-.E J J Y ~ ( ( [ T P h a a q w w w q u a G T ( ` d./.OX'./././.",
"rXqX,X'.m.r.R y.#X>X.X.XW.Y.G.n.m.v.l.k.k.M.'.OX{.{.'./.U.y.&.K J r p p p H R T L f h f w w w q w 7 w u a G T [ ` i.T.@X%X X`.).",
"L.y.~ G H H J h.=X>X.X_.!.G.G.G.n.n.k.k.n.I./._.'._.(.H.j.F N k 5 $ ; $ 8 J R R g f a a j q u q w q u j a P T T [ ' P.%X@X~.I.I.",
"^ H H H H ^ s.].:X<X$X_.R.I.G.M.C.M.b.b.M.I.R.T.`.OX/.C.>.6 k r ; o # & H ~ P G P P g h f a q w w w w w j h P U ~ ' I. X.X)._. X",
"H G [ r.y.t.r.T.1X>X.X.XW.G.n.b.n.n.k.k.Z.I.T.W.`.`._.L.y.k k 5 # @ 4 4 f J G J T ( ~ P f a j q q q q u j a f G Y ] M.@X=XOX.X@X",
"t.t.[ ^ f h s./.>X>X.X.XT.G.k.h.a.g.g.l.Z.R.'.`.`._.T.b.i.T b ; # 4 4 4 4 q p p J Y ~ R g u q w q q j a s h g P ~ ] N.%X8X<X>X3X",
"^ G f u u T T.,X8X=X.X XY.Z.l.a.7.8.k.n.G.~.`._.].I.b.s.' / g $ # 5 5 4 4 4 4 4 q a g Y P a w = = 7 w w u s L R [ t.N.@X9XyXrXrX",
"4 q R m. X,X7X9X3X=X.X XJ.G.z.g.8.8.8.J.J. X!.J.N.6.6.6._ Y s & $ 9 8 8 8 8 8 8 w j f S Y P a q , = = = w w a S ^ 6.c. X3XeXrXrX",
"].OX,X5X3X3X3X7X3X$X X).J.G.z.8.8.6.8.z.J.).J.J.n.k.z.6.I h p = - 0 0 8 = 8 8 , 8 8 8 f S L d g G j 7 w , q j g S 6.N.).;X6X0XeX",
",X,X<X<X3X3X7X9X3X#X X~.J.n.g.7.8.8.8.z.).).J.J.8.6.6.6.S a j = & 4 w w w w q w q q a j j q q q j g g d j j g g P 6.c.!. X,X7XqX",
"6X5X<X<X3X3X8X9X3X$X XE.G.z.k.8.8.8.z.z.J.J.8.8.8.6.U d S y 8 & $ & % 8 w w u a a s d g j 8 % = 8 w j a g g g P T 6.c.R. X;X9X0X",
"3X3X3X7X9X8X9X9X9X=X X~.J.G.z.z.z.8.8.z.z.J.z.z.8.6.D D m < , % & & % = % , q j h a a s s a 8 % = 8 8 q d g G T ~ u.x.N.].oX6X0X",
"6X6X3X7X3X3X3X9X9X>X.X(.W.Y.G.z.z.8.8.z.z.z.J.8.6.6.U S S t q , 9 9 9 4 % % w u j t w w q g f w = 8 q w q a S T ~ u.f.m.R. XoX6X",
"6X3X3X>X:X=X3X0XeX3X#X X~.J.n.g.8.8.z.8.8.8.8.z.8.8.6.D S S d t e e e q e q q q e q q w 8 8 j d j 7 , q j a h P T 6.u.N.P.].oX;X",
"*X@X@X.X.X=X3XqX9X3X&X.X^.J.G.z.z.z.z.8.8.8.8.8.8.8.7.6.Q D S S s s s a s d g s a q w 8 w 8 8 q h d w w q a g L P ~ u.x.N.].].oX",
".X.X.X.X.X=X9XqX3X3X:X.X}.J.G.z.z.z.8.6.8.8.8.8.7.7.7.7.7.F U m M M S d d g d a e w w 8 9 8 7 8 q h a 8 0 u h P T T ] f.v.P.T.'.",
".X.X.X.X=X3XqX9X3X>X:X#X XE.J.G.z.8.8.8.8.8.6.8.7.7.7.7.6.6.6.6.U U Y I S s t q e e q 8 9 8 8 8 8 w a p q p h J Y T ` u.d.M.R.'.",
".X.X.X=X>X9X9X4X3X:X=X#X.XE.J.C.z.z.8.8.8.8.8.6.6.6.6.F U 6.6.U E S S S d t e 9 8 9 8 8 , = , , , 8 q s a a f H L T ` r.s.m.L.].",
".X.X.X.X>X9X3X3X>X=X&X.X.X^.J.z.z.z.z.z.8.8.8.6.6.F 6.F D m S S S s y t e 9 , , , % , , % , , q q 8 q u h f f J Y T [ r.s.x.L.R.",
" X X X.X3XqX4X3X>X=X#X.X|.~.J.n.8.z.8.8.8.7.6.! F 6.x m S m y d d d t t t e , , 9 , , , 9 0 w 0 q q q f f h J G J ~ / t.s.x.m.P.",
" X X X=X4X9X3X3X:X=X.X.X^.E.J.C.J.8.8.8.7.6.! 6.6.m 6.S S m m m S m y s y t e q 9 9 q 8 0 w q q q a q q a h G G J R [ ` r.x.L.L.",
"~.^. X=X9X9X3X3X*X$X.X X).~.J.J.z.8.8.8.! 7.6.O.U F m D D D D D D S m S S M d t q e q q w q q p p u j u a f H G J L R [ t.f.f.m.",
"~.^..X>X9X4X:X:X*X.X X X(.Y.J.J.J.z.q.8.8.8.6.F 6.6.F 6.U Q Q Q Q U U U D S S y t t t q e t q a u u u u a a H G J ^ Y ^ ` t.f.f."
};
