/* XPM */
static char *chimi_7_641741260423[] = {
/* columns rows colors chars-per-pixel */
"64 64 234 2 ",
"   c #2B1C1B",
".  c #1E1D29",
"X  c #1C1A27",
"o  c #221E27",
"O  c #1E202E",
"+  c #22212D",
"@  c #3A2927",
"#  c #242432",
"$  c #2A2936",
"%  c #2B2D3A",
"&  c #262837",
"*  c #332F3B",
"=  c #2F313E",
"-  c #33323D",
";  c #3D3338",
":  c #34211D",
">  c #442C29",
",  c #493629",
"<  c #533B29",
"1  c #4B3937",
"2  c #543C3C",
"3  c #4A2B30",
"4  c #411E24",
"5  c #5A4339",
"6  c #524233",
"7  c #2E3243",
"8  c #353544",
"9  c #363A4B",
"0  c #3B3C4B",
"q  c #343746",
"w  c #33394B",
"e  c #433D45",
"r  c #553E40",
"t  c #3C414F",
"y  c #3C4354",
"u  c #3F4558",
"i  c #3F4A60",
"p  c #484249",
"a  c #5C4B4B",
"s  c #594645",
"d  c #4C4954",
"f  c #454B5B",
"g  c #4B4D5B",
"h  c #444757",
"j  c #5C545C",
"k  c #595357",
"l  c #535056",
"z  c #644B4B",
"x  c #67544C",
"c  c #645553",
"v  c #6D5A55",
"b  c #64595B",
"n  c #6C5D5B",
"m  c #645759",
"M  c #755A57",
"N  c #6C544C",
"B  c #6E615C",
"V  c #73645D",
"C  c #78655A",
"Z  c #494E61",
"A  c #4C5363",
"S  c #4F5669",
"D  c #535562",
"F  c #545A65",
"G  c #5B5965",
"H  c #525568",
"J  c #5B5D6B",
"K  c #555766",
"L  c #5B5E71",
"P  c #575C70",
"I  c #504F61",
"U  c #625C66",
"Y  c #615E73",
"T  c #5E616D",
"R  c #5B6374",
"E  c #6C6462",
"W  c #67646D",
"Q  c #736662",
"!  c #7B6560",
"~  c #756A64",
"^  c #7B6D65",
"/  c #7A6E69",
"(  c #756D6A",
")  c #7D7066",
"_  c #77726C",
"`  c #7C736C",
"'  c #7C786F",
"]  c #636473",
"[  c #6C6C7B",
"{  c #666977",
"}  c #706E79",
"|  c #6D727A",
" . c #7C7571",
".. c #7E7974",
"X. c #7D7B7B",
"o. c #74747C",
"O. c #856D62",
"+. c #82756C",
"@. c #84786E",
"#. c #8A7B6E",
"$. c #887468",
"%. c #96786A",
"&. c #817770",
"*. c #847B74",
"=. c #8B7D73",
"-. c #837E79",
";. c #897E79",
":. c #927E72",
">. c #A47E6B",
",. c #7E807F",
"<. c #858077",
"1. c #8D8175",
"2. c #85827B",
"3. c #8B837C",
"4. c #928275",
"5. c #9D8172",
"6. c #94857A",
"7. c #998679",
"8. c #96887D",
"9. c #9B8A7D",
"0. c #A38473",
"q. c #A98A78",
"w. c #AD927D",
"e. c #B4937D",
"r. c #747384",
"t. c #787586",
"y. c #7A7A83",
"u. c #7B7A8A",
"i. c #767887",
"p. c #717486",
"a. c #817D82",
"s. c #7E828E",
"d. c #7D888E",
"f. c #7E8392",
"g. c #848483",
"h. c #8A8581",
"j. c #8B8985",
"k. c #84848B",
"l. c #8B8B8B",
"z. c #89888A",
"x. c #948A82",
"c. c #9C8D82",
"v. c #938A87",
"b. c #8E908E",
"n. c #9E9085",
"m. c #92918D",
"M. c #9E918B",
"N. c #8B8E92",
"B. c #868997",
"V. c #928F94",
"C. c #8D9294",
"Z. c #8D949A",
"A. c #949493",
"S. c #93949A",
"D. c #94999D",
"F. c #9B9B9B",
"G. c #9A9795",
"H. c #A18E81",
"J. c #A08F88",
"K. c #A39285",
"L. c #A5958A",
"P. c #A9968A",
"I. c #A6998D",
"U. c #AB9A8C",
"Y. c #B89885",
"T. c #A49A93",
"R. c #AC9D93",
"E. c #A49D9B",
"W. c #A49792",
"Q. c #9EA19D",
"!. c #ADA299",
"~. c #B4A298",
"^. c #BFA38B",
"/. c #949CA4",
"(. c #9C9CA2",
"). c #939CA9",
"_. c #8996A2",
"`. c #9DA2A3",
"'. c #9BA3AC",
"]. c #99A4AE",
"[. c #9DA9B5",
"{. c #9AA7B6",
"}. c #8FA0B4",
"|. c #A2A4A4",
" X c #A6A7A9",
".X c #B2ABAA",
"XX c #A3ABB3",
"oX c #A8AEB6",
"OX c #A5B1BC",
"+X c #B9BABC",
"@X c #BAB0AE",
"#X c #A19FA4",
"$X c #C1A28D",
"%X c #CAAD9B",
"&X c #C5A894",
"*X c #CFB197",
"=X c #CAB5A8",
"-X c #D5BAA5",
";X c #C9B5AD",
":X c #DCC2AC",
">X c #D7C6B6",
",X c #CAC1B8",
"<X c #E0C6AD",
"1X c #E3CCB8",
"2X c #E8D2BB",
"3X c #A4B3C3",
"4X c #AAB6C2",
"5X c #AABAC7",
"6X c #B5BDC5",
"7X c #A1BED9",
"8X c #9FBDD9",
"9X c #B4C2CD",
"0X c #ABC6DA",
"qX c #BACAD6",
"wX c #BFD0D8",
"eX c #B6CEE4",
"rX c #B1CFE5",
"tX c #9DC0D6",
"yX c #C7D5DB",
"uX c #CACCD0",
"iX c #EBD8C8",
"pX c #C7D8E5",
"aX c #D2DDE3",
"sX c #D8E5EB",
"dX c #D9E8F2",
"fX c #C9E3F2",
"gX c #E2EEF5",
"hX c #EDF6F9",
"jX c #EEFCFE",
"kX c #E5F1F5",
"lX c #F4FDFE",
"zX c #FFFFFF",
"xX c #F2F5F8",
"cX c #F2E2D3",
/* pixels */
"zXzXzXzXzXzXzXzXzXzXzXzXzXzXzXzXzXzXzXzXzXzXzXzXzXzXzXzXzXzXzXzXzXzXzXzXzXzXzXzXzXzXzXzXzXjX7XY } t.u.u.r.r.Y L I Z 0 w 7 7 O X ",
"zXzXzXzXzXzXzXzXzXzXzXzXzXzXzXzXzXzXzXzXzXzXzXzXzXzXzXzXzXzXzXzXzXzXzXzXzXzXzXzXzXzXzXzXzXjX7XJ r.B.t.u.r.r.Y L I Z i w 7 & O X ",
"zXzXzXzXzXzXzXzXzXzXzXzXzXzXzXzXzXzXzXzXzXzXzXzXzXzXzXzXzXzXzXzXzXzXzXzXzXzXzXzXzXzXzXzXzXjX8XU t.u.t.t.r.r.{ L H Z w w 7 & O X ",
"zXzXzXzXzXzXzXzXzXzXzXzXzXzXzXzXzXzXzXzXzXzXzXzXzXzXzXzXzXzXzXzXzXzXzXzXzXzXzXzXzXzXzXzXzXjX7XJ u.r.t.t.r.r.{ L H Z 0 w 7 7 O X ",
"zXzXzXzXzXzXzXzXzXzXzXzXzXzXzXzXzXzXzXzXzXzXzXzXzXzXzXzXzXzXzXzXzXzXzXzXzXzXzXzXzXzXzXzXzXjX7XR _.t.r.t.r.} { L H Z i w 7 & O X ",
"zXzXzXzXzXzXzXzXzXzXzXzXzXzXzXzXzXzXzXzXzXzXzXzXzXzXzXzXzXzXzXzXzXzXzXzXzXzXzXzXzXzXzXzXzXjX8XB.u.t.r.t.r.[ Y L H Z u w 7 7 # X ",
"zXzXzXzXzXzXzXzXzXzXzXzXzXzXzXzXzXzXzXzXzXzXzXzXzXzXzXzXzXzXzXzXzXzXzXzXzXzXzXzXzXzXzXzXzXjXrXB.p.t.t.t.r.[ Y L H Z i w 8 7 # X ",
"zXzXzXzXzXzXzXzXzXzXzXzXzXzXzXzXzXzXzXzXzXzXzXzXzXzXzXzXzXzXzXzXzXzXzXzXzXzXzXzXzXzXzXzXzXlXeXL p.t.t.p.r.Y Y Y H I Z e w 7 # O ",
"zXzXzXzXzXzXzXzXzXzXzXzXzXzXzXzXzXzXzXzXzXzXzXzXzXzXzXzXzXzXzXzXzXzXzXzXzXzXzXzXzXzXzXzXzXlX0XJ r.r.r.r.[ [ { Y L H I i e 9 & # ",
"zXzXzXzXzXzXzXzXzXzXzXzXzXzXzXzXzXzXzXzXzXzXzXzXzXzXzXzXzXzXzXzXzXzXzXzXzXzXzXzXzXzXzXzXzXjX0XJ r.r.r.r.i.r.[ Y H Z u 9 w 7 & + ",
"zXzXzXzXzXzXzXzXzXzXzXzXzXzXzXzXzXzXzXzXzXzXzXzXzXzXzXzXzXzXzXzXzXzXzXzXzXzXzXzXzXzXzXzXzXlX0XG { t.f.B.f.r.p.R B.}.u.H 8 7 & O ",
"zXzXzXzXzXzXzXzXzXhXlXzXzXzXzXzXzXzXzXzXzXzXzXzXzXzXzXzXzXzXzXzXzXzXzXzXzXzXzXzXzXzXzXzXzXlX0X| B.B.s.i.p.u.].6XqX6X6X6XY & & . ",
"zXzXzXzXzXzXzXzXzXXX XxXzXzXzXzXzXzXzXzXzXzXzXzXzXzXzXzXlXzXzXzXzXzXzXzXzXzXzXzXzXzXzXzXzXlXrXy.a.p.p.B.XX+X XM.q.0.Y.-X6XH # + ",
"zXzXzXzXzXzXzXzXzX'.z./.kXzXzXzXzXzXzXzXzXzXzXzXzXzXkXpXdXhXzXzXzXzXzXzXzXzXzXzXzXzXzXzXzXlX0XA { u.).6X|.c.:.>.q.q.Y.&X;X{.& o ",
"zXzXzXzXzXzXzXzXzXXXD.k.C.aXzXzXzXzXzXzXzXzXdXpXaXqX).B.N.XX6XgXzXdXyX6X5XdXzXzXzXzXzXzXzXlX0XP f.4XoXa.C $.5.0.q.e.Y.$X-X+Xw X ",
"zXzXzXzXzXzXzXzXzX6XF.A.g.| uXzXzXzXzXhXyXqX_.d.f.g...2.;.*.g.(.6XA.g.g.g.(.aXdXhXzXzXzXzXzXeX].4XS./ C $.4.%.0.q.e.Y.&XiXuX0 o ",
"zXzXzXzXzXzXzXzXzXyX(.S.V.a.y.6XdXgXqX].s.y.X.X.&.o.@.-.-.;.3.v.j.h.=.;.=.<.k.S.].4XpXzXzXlXfX3Xz.n v O.%.%.:.>.H.Y.$X-XcXuXh + ",
"zXzXzXzXzXzXzXzXzXdX#XE.F.F.S._.[.3Xd.} m a k E &.} &.;.z.v.v.h.6.1.1.;.&.&.*.-.-.z.D.4XeXwX3Xa.W v C O.$.%.>.0.e.$X%X1XiX;X8 + ",
"zXzXzXzXzXzXzXzXzXlX.X|.E.#X XOX4XB.E d 1 @ # > W &.a.a.(.(.T.M.4.;.;.:.@.+.+.O.+.+.&.h.(.'.).y.-.! $.O.%.%.>.q.Y.-X1XiXiX.X- + ",
"zXzXzXzXzXzXzXzXzXzX+X@X.X XoX5X).r.j 5 ; @ @ + r S.S.&.! ;.a.M.W.9.1.=.=.@.V z z s c ! x.#X#XV.-.=.:.$.%.%.q.q.Y.-XiXiX>XF.$ + ",
"zXzXzXzXzXzXzXzXzXzXyX;X+X6X4X).,.p.6 , + @ , @ r.a.O.O.N O.O.O.x.H.6.=.1.V > : @ @ > 5 ^ 8.F.(.V.a.>.%.%.>.>.Y.&X:XiX1X,X| # # ",
"zXzXzXzXzXzXzXzXzXzXsXuXuX9X[.y.T l 6 6   ; k d.'.M r O.O.O.z O.$.J.J.8.C , @ , 4 > > 3 5 O.x.M.v.H.a.%.>.H.Y.&X:X1X1X-X;Xg # + ",
"zXzXzXzXzXzXzXzXzXzXsXyX3X)./.C.( a 6 ; 6 | OXXXM 3 4 O.z 2 4 N O.7.I.x.x : , < @   < < , M <.n.J.v.a.q.H.Y.&X<X2X:X-X=X.Xy $ # ",
"zXzXzXzXzXzXzXzXzXzXgX5X XN.l.l.C.z...o.}.9X5X`.:.M 3 N M z 3 r z #.c.K.$.> , < >   6 < 6 6 C 9.J.W.K.>.&X-X-X2X<X%X%X%XA.9 $ + ",
"zXzXzXzXzXzXzXzXzXxXsXOXD.d.s.g.C.b.'.5X9X4XF.x.3.6.v z v M / ;.:.H.H.K.I.$.< < , , 5 6 6 : B 4.J.W.Y.a.*X-X1X2X*X^.%X=X{ q & # ",
"zXzXzXzXzXzXzXzXzXzXwX'.Z.l.j.l.z.].3X3X'.l.h.3.;.;.! z M O.=.:.:.H.K.P.P.I.:.C x x N C M O.4.9.J.~.R.Y.&X<X1X-X^.e.&X%Xg q & # ",
"zXzXzXzXzXzXzXzXzXsX[.].C.j.s.g./.OXD.l.h.h.h.*./ / v z M E &.:.6.6.c.K.H.K.K.P.K.c.K.9.0.9.9.9.J.J.W.R.*X<X-X$Xe.Y.*XM.f 8 % + ",
"zXzXzXzXzXzXzXzXjX5X{./.Z.l.b.D.[.D.b.j.a.;.*. ./ V s z z n ! @.6.:.#.7.q.K.H.K.n.w.n.n.9.0.9.9.J.J.P.Y.%X-XY.q.Y.e.w.G 0 q $ # ",
"zXzXzXzXzXzXzXzXsX{.].Z.b.l.C.[.'.C.2.2.*.-.&._ ! U z r z v ! / +.;.:.:.6.c.K.K.K.w.9.n.9.K.9.9.H.H.H.P.Y.Y.>.>.e.0...u y 8 & + ",
"zXzXzXzXzXzXzXjXqX]./.b.z.z.Q.OX`.2...2..... .E n z e 3 s U V / +.+.&.=.6.8.H.K.P.L.n.9.n.K.c.9.H.H.H.P.H.>.%.>.Y.>XV.u t 8 % # ",
"zXzXzXzXzXzXzXsX[./.C.s.s.l.'.[.m.g.<... ._ ~ n z r r r 2 z Q V ! ;./ +.;.7.c.K.L.9.9.7.c.9.n.n.c.H.H.I.K.%.O.%.Y.cXF.u y q % # ",
"zXzXzXzXzXzXzX3X{.C.g.g.l.C.'.Q.A.g...' _ E b a r r s a r 3 c Q Q ! =.@.@.6.x.H.M.n.n.n.9.8.x.q.c.H.J.I.P.q.%.%.q.=Xv.u f 0 = $ ",
"zXzXzXzXzXzXjX[.`.Z.b.,.b.b.Q.'.F.g.2..._ B a a a x x a c 6 6 C U O.^ ;.=.=.x.K.n.n.x.8.x.8.9.9.9.H.n.K.P.U.0.%.Y.~.k.Z f 0 7 $ ",
"zXzXzXzXzXzXdX[./.C.j.j.d.l.b.Q.G.j.2...~ k k B B B B v B B x 6 V ~ &.&.x.4.3.L.L.n.x.8.6.=.4.7.c.H.K.P.P.R.L.9.R.R.o.S A f q % ",
"zXzXzXzXzXlXyX[.D.b.j.l.,.j.b.C.b.j.3...E k E Q V ~ B ~ B B x 6 m ( &.:.;.x.x.M.M.c.9.1.4.6.6.6.9.9.K.I.U.U.P.K.!.k.] S A h 0 - ",
"zXzXzXzXzXzXwX'.Q.b.2.,.2.b.l.b.g.j.,._ ~ ( ` B ~ _ B ) ~ ~ ,.x a /  .a.*.6.x.c.n.n.x.4.1.4.6.9.9.n.K.L.U.U.R.!.(.p.R S f u q % ",
"zXzXzXzXzXxXyXXXD.l.g.,.3.2.j.l.j.,.' _ ...._ B _ ( ~ ) ,.C O.C k n  .;.3.x.6.x.c.M.x.8.6.6.4.9.c.n.K.I.P.U.R.~.`.{ P F Z y 9 % ",
"zXzXzXxXzXzXyX`.Q.b.l.2.,.<.2.j.2.o.' <.*.2.` ' @.) B *.C ,.,.C ) n n ' ;.;.x.x.c.v.x.8.6.6.6.6.8.n.L.I.P.U.U.!.`.R R F f u 8 % ",
"zXzXzXzXzXzXaXoXQ.b.j.j.,.,.,.<.,.....,.-... .*.` ( ( *.C 1.C 1.+.~ Q B +.&.1.;.6.6.x.6.6.8.8.8.8.9.K.I.P.U.R.~.Z.R R A g u 8 % ",
"zXzXzXzXzXzXaXoXQ.A.3.,.<.,.<.,.,.2...*.2.*.-.;.../ / ` ,.$.,.,.*.` / Q ` ^ &.1.;.;.6.6.6.6.8.x.9.c.c.L.P.I.R.!.f.{ T F A y t % ",
"zXzXzXzXzXxX9X|.Q.b.2.3.,.<.<.<.2.2..... . .2...,.) ) ,.$.) ,.$.../ / / ` ^ +.6.;.6.;.x.8.8.1.8.9.c.c.L.U.U.R.E.s.T J F A h q = ",
"zXzXzXzXzXhX9X|.Q.j.j.2.2.3.<.,.2.*...' _ _ _ <.1.$.) ,.) ,.) C / ` ` +.@.&.=.@.6.6.x.:.:.8.8.4.x.c.c.L.P.R.R.E.d.] L F A f 9 = ",
"zXzXzXzXzXgX4X`.A.3.m.<.3.<.<.,.-.-.......'  . .,.,.) ,.$.C ) ,./ &.@.@.=.#.1.=.4.;.:.;.;.=.4.9.9.n.H.L.U.I.R.S.| { T G l h 9 % ",
"zXzXzXzXzXpXOX`.Q.b.m.2.b.2.,.<.2.*... .'  ._ _ ) ,.) ,.) ,.,.C ` +.=.&.=.1.=.=.=.6.=.6.4.4.1.8.9.n.K.P.U.R.E.l.{ { ] J F g q % ",
"zXzXzXzXzXeXOX|.G.A.m.m.2.2.<.3.2.;... ....._ _ ,.) ,.) ,.C ) ) ` *.*.=.=.=.=.1.6.8.6.6.6.7.4.x.9.n.n.K.U.R.E.k.| W ] T F h q = ",
"zXzXzXzXzX9XOX!.Q.G.3.3.3.2.2.3.3.2.2.*...*..._ ~ ,.C ,.C ,.) ) ` +.*.;.=.=.1.4.4.4.6.6.8.c.8.8.c.n.K.U.I.R.T.k.y.| T T F f t = ",
"zXzXzXzXlX5X'.`.G.G.j.j.3.3.2.2.2.3.*.*.*.' ` ` C C C ,.) ,.) ,.@.=.=.=.=.6.1.6.4.6.4.8.8.x.8.9.c.c.n.I.I.T.A.k.u.o.| T k g q - ",
"zXzXzXzXlXOX'.`.F.G.j.j.3.j.;.2.<.*.*.*.' ` ` ` ,.C C ) ) ) #.#.&.&.=.=.1.4.4.6.6.6.1.6.4.6.6.6.8.x.c.L.L.T.m.i.[ [ | R T l t * ",
"zXzXzXzXzXOX XQ.F.j.j.3.3.2.<.<.,.$.,.$.) ,.,.) ) C ) C ' ' ' ,.<.) O.1.4.1.1.4.6.6.4.6.6.8.8.9.c.c.n.L.I.T.l.p.[ { ] W F g t - ",
"zXzXzXzXzX9XXX`.F.b.j.3.3.2.<.<.#.) ) ,.,.C ) C ) ) ~ ) ) ' ) ) <.1.<.1.1.1.4.1.4.6.4.4.6.8.9.9.n.n.L.L.W.T.k.| ] ] ] T J A p 8 ",
"zXzXzXzXzX9XXX|.Q.m.3.j.<.<.<.,.#.,.) ) 4.$.) O.C ) ) C ) C ) ) C 1.1.O.1.1.1.4.4.8.8.4.6.8.8.n.c.c.L.L.T.T.k.{ T T T J J g t 8 ",
"zXzXzXzXzXwXoX`.Q.m.j.3.<.<.<.<.,.1.,.,.$.,.,.,.,.) ) ,.) ) ) ' ) $.<.1.O.1.1.4.4.6.4.8.8.8.8.n.c.n.n.L.L.A.i.] J T F F F A p 8 ",
"zXzXzXzXzX9XoX X|.m.j.3.<.<.<.<.,.#.$.) C C ) ,.,.) ) C B C C ) ) <.1.$.1.1.1.1.1.4.4.4.6.6.9.9.c.n.n.I.G.j.y.W G G G j g G 0 ; ",
"zXzXzXzXzX9XoX`.|.m.j.j.<.<.2.3.4.,.,.#.,.,.) C C ) C C B C C C C ) ,.$.<.O.O.1.1.1.4.4.6.7.8.9.c.n.n.I.M.z.} { T G D I d d p - ",
"zXzXzXzXlX5XoX`.Q.m.j.3.3.2.<.<.,.#.#.,.#.,.#.C ,.) ) ,.,.#.#.#.<.O.O.<.1.1.$.1.4.1.<.1.4.3.8.9.c.n.n.I.!.a.] U G G D g d h p 8 ",
"zXzXzXzXkXOX[.`.Q.m.l.j.2.3.3.<.#.,.#.4.#.,.,.C C ) C C ' ,.#.#.1.1.O.1.O.<.1.1.1.4.1.1.3.6.8.9.c.n.L.U. XS.] j G j k g h p d - ",
"zXzXzXhX0X3X{.`.b.l.j.3.2.2.3.3.,.#.,.4.,.,.#.) $.,.C $.$.) #.4.1.1.1.1.C 1.O.5.1.1.1.4.4.7.7.9.w.K.K.~.~.E.} G j U j l d h e e ",
"zXzXzXaX3X{.`.D.A.l.b.3.2.2.3.<.4.,.#.4.4.#.,.C $.) ,.) ,.#.#.#.1.O.1.1.5.1.1.1.4.4.4.4.4.5.7.9.n.K.P.P.R. Xa.U W b U j d p q d ",
"zXzXjX0X{.].D.C.b.l.l.3.3.3.2.2.,.4.,.#.,.1.C $.1.,.) ) $.,.,.#.<.5.1.1.1.1.1.1.4.4.7.4.4.7.9.w.K.K.K.P.R.!.z.] U m j U j d e ; ",
"zXlXwX3X].Z.C.C.b.j.d.<.2.<.3.<.4.4.#.,.#.#.) ,.4.$.1.C $.$.#.#.1.C C 5.$.5.O.1.4.4.5.7.9.7.7.9.w.K.P.R.R.!.v.W U k b j j j e 1 ",
"zXsX0X{._.Z.Z.C.l.k.g.2.2.<.<.<.,.#.4.4.,.C ) 1.4.$.$.C $.C ) 4.4.#.#.#.$.4.4.4.4.7.4.7.7.9.9.n.n.K.P.P.U.!.T.y.( U U b j k d 1 ",
"lXwX3X].D.N.l.l.j.g.2.2.2.2.3.<.4.#.,.#.$.C ,.$.) ,.,.) #.#.#.#.4.>.$.#.4.4.4.4.4.5.7.7.7.7.9.q.n.K.K.P.I.R.T.a.} k b b b j a p ",
"dX5X{.).l.z.z.g.g.-.-.-.<.<.3.<.,.,.4.,.C C 4.,.,.$.$.) #.,.#.#.) $.#.#.4.$.4.4.4.7.7.7.9.7.9.9.q.K.K.P.P.R.R.a.W k b b n n k 6 ",
"5X{.).B.z.2.s.g.X.2.2.*.2.<.3.3.4.#.,.) C ,.$.,.$.$.,.$.) $.#.#.#.O.#.#.#.4.4.4.4.4.7.7.9.9.9.9.n.K.K.P.I.W.R.v.W m m n B v k a "
};
