/* XPM */
static char *chimi_8_641741260423[] = {
/* columns rows colors chars-per-pixel */
"64 64 244 2 ",
"   c #0F0805",
".  c #271C14",
"X  c #24170D",
"o  c #2A241E",
"O  c #372513",
"+  c #362C24",
"@  c #393229",
"#  c #462709",
"$  c #53301A",
"%  c #623D1C",
"&  c #4A392B",
"*  c #563C27",
"=  c #463932",
"-  c #523E35",
";  c #68431D",
":  c #4C433A",
">  c #584638",
",  c #674526",
"<  c #744D27",
"1  c #765127",
"2  c #684A37",
"3  c #7D5A34",
"4  c #5A4D45",
"5  c #5A524A",
"6  c #5E5B54",
"7  c #674F42",
"8  c #64544B",
"9  c #6A564B",
"0  c #6D5A4D",
"q  c #685444",
"w  c #755A4C",
"e  c #7A5A4B",
"r  c #6E5D53",
"t  c #655C54",
"y  c #725E53",
"u  c #795B50",
"i  c #6C645B",
"p  c #7B6254",
"a  c #746359",
"s  c #7B665B",
"d  c #7D6A5C",
"f  c #7A6655",
"g  c #79624E",
"h  c #746C63",
"j  c #7C6B63",
"k  c #797366",
"l  c #7C756A",
"z  c #7E796D",
"x  c #767164",
"c  c #736E67",
"v  c #805831",
"b  c #886439",
"n  c #8A6744",
"m  c #836C5D",
"M  c #856758",
"N  c #85735B",
"B  c #8B755E",
"V  c #8E795E",
"C  c #97755C",
"Z  c #987345",
"A  c #A37B49",
"S  c #826E64",
"D  c #896E64",
"F  c #847064",
"G  c #8A7364",
"H  c #8D7A63",
"J  c #83746B",
"K  c #827A6E",
"L  c #8D7B6B",
"P  c #8D756B",
"I  c #937562",
"U  c #927D65",
"Y  c #927A6B",
"T  c #9B7D6B",
"R  c #967568",
"E  c #837C72",
"W  c #8B7D73",
"Q  c #877D78",
"!  c #967B72",
"~  c #A37D72",
"^  c #845C54",
"/  c #8D806E",
"(  c #94816A",
")  c #9B856C",
"_  c #9E896E",
"`  c #968167",
"'  c #8A8176",
"]  c #8B847B",
"[  c #8D897D",
"{  c #868277",
"}  c #948473",
"|  c #9A8673",
" . c #968874",
".. c #9D8A73",
"X. c #93857C",
"o. c #948A7C",
"O. c #9B8D7C",
"+. c #9B877C",
"@. c #9D917E",
"#. c #97907E",
"$. c #A2856E",
"%. c #A48471",
"&. c #A38D74",
"*. c #A28E7D",
"=. c #AA8A78",
"-. c #A69176",
";. c #A99176",
":. c #A5927A",
">. c #AA957A",
",. c #AD997E",
"<. c #B19A7D",
"1. c #B3977C",
"2. c #8E8B82",
"3. c #948C82",
"4. c #9C8D83",
"5. c #9C8B84",
"6. c #969184",
"7. c #9B9285",
"8. c #9D958A",
"9. c #9E998C",
"0. c #9C9688",
"q. c #9C9A96",
"w. c #A78B86",
"e. c #A39485",
"r. c #AA9584",
"t. c #A59B84",
"y. c #AB9B84",
"u. c #A3958A",
"i. c #A9968A",
"p. c #A3998D",
"a. c #AB9C8C",
"s. c #B39C83",
"d. c #B29E8D",
"f. c #B7998C",
"g. c #A49B91",
"h. c #AB9D92",
"j. c #A89B97",
"k. c #B29C94",
"l. c #B89996",
"z. c #B28C89",
"x. c #AAA18D",
"c. c #A8A18A",
"v. c #B4A086",
"b. c #B4A18B",
"n. c #BBA58D",
"m. c #ADA293",
"M. c #ACA39A",
"N. c #B3A293",
"B. c #BAA493",
"V. c #BEAA92",
"C. c #B4A59A",
"Z. c #B9A59B",
"A. c #B6A99D",
"S. c #BBAA9C",
"D. c #B7AA97",
"F. c #AAA4A0",
"G. c #B5ABA2",
"H. c #BCADA3",
"J. c #B8ABA7",
"K. c #BDB1A6",
"L. c #BDB2AB",
"P. c #B9B4AE",
"I. c #BAB7B4",
"U. c #C1AB94",
"Y. c #C2AC9B",
"T. c #C4A49D",
"R. c #C5B09D",
"E. c #C3ADA3",
"W. c #C5AAA5",
"Q. c #C3B2A4",
"!. c #CAB4A5",
"~. c #C3B4AB",
"^. c #CAB4AA",
"/. c #C5B8AD",
"(. c #CBBBAC",
"). c #CCB9A7",
"_. c #D1BBAD",
"`. c #C5BBB3",
"'. c #CBBCB4",
"]. c #C4BDBB",
"[. c #CCBCB9",
"{. c #CAB6B5",
"}. c #D4BBB4",
"|. c #C59E97",
" X c #CCC1B5",
".X c #CCC2BB",
"XX c #C9C4BC",
"oX c #D3C5BC",
"OX c #D3CABC",
"+X c #D5C4B7",
"@X c #CFBFC0",
"#X c #C4C3C2",
"$X c #CCC5C2",
"%X c #CDC9C4",
"&X c #CDCACA",
"*X c #C7C8C9",
"=X c #D2C5C3",
"-X c #D3CBC5",
";X c #DACBC5",
":X c #D3CDCA",
">X c #D9CDCA",
",X c #D9C7C5",
"<X c #D5D1CD",
"1X c #DBD2CC",
"2X c #DCD2C8",
"3X c #D7CFD0",
"4X c #D4D3D3",
"5X c #DCD5D3",
"6X c #DDD9D5",
"7X c #DDDBDB",
"8X c #D8D6D9",
"9X c #CDCED2",
"0X c #E1D6CE",
"qX c #E0D7D4",
"wX c #E3DCD5",
"eX c #E2DDDB",
"rX c #E4DBDB",
"tX c #E0CDC3",
"yX c #DFE0DA",
"uX c #E4E2DD",
"iX c #EAE4DE",
"pX c #E7E2D7",
"aX c #DBDDE0",
"sX c #E2DFE1",
"dX c #DDE2E5",
"fX c #E4E3E3",
"gX c #EAE6E3",
"hX c #EBEAE5",
"jX c #E6E9EC",
"kX c #ECECEC",
"lX c #E7E7E9",
"zX c #F1EFEB",
"xX c #F0E9E3",
"cX c #EEF1EE",
"vX c #F4F2ED",
"bX c #EAEEF1",
"nX c #F1EEF1",
"mX c #EEF1F3",
"MX c #F4F4F3",
"NX c #F8F7F3",
"BX c #F7F8F4",
"VX c #FAFAF6",
"CX c #FCFCFA",
"ZX c #F6F7FA",
/* pixels */
"&.&.&.&.( U ` ) ) ;.:.-.:.:.&.-.&.&.&.;.-.:.:.&.H.2X=XwXsXkXgXsX%.=.&.-.&.-.&._ &.&.&.$._ -...-.....) ( ` ` ` _ _ _ ....-...-.) ",
":.&.&.&.` U ) ( ..:.>.-.>.>.-.-.-.-.-.-.-.:.-.b.OX^.=XeXxXsXkXsXr.&.-.-.-.&.-.-.&.&.&.&.-.-.:.:.:.O.` ` ` ` ` ( ) ) ......@...) ",
":.&.*.&.T ` T ) _ :.>.>.>.;.;.:.-.-.-.-.;.-.>.oX[.W.,XwXlXlXsXsXB.&.-.&.-.-.-.&.-.;.&.-.-.,.:.:.:.O./ ` H H U ( ( (  . ...@. . .",
"&.:.&.&.) ( U ) ..;.,.>.>.:.>.;.:.;.&.;.-.&.~.oXE.~.>XqXsXlXsXaXA.-.;.-.&.&.-.;.&.;.;.;.-.,.t.c.0.#./ N N B V ` ` ( | O.O.#. .( ",
"-.:.:.&.) ) ( ) _ >.,.>.>.>.>.-.:.-.;.-.&.s.,X^.E.^.,XqXfXfXsX3XG.;.-.-.;.-.-.-.-.;.;.>.;.y.y.a.:.#./ V k N B H H / ( O.#.O.o.( ",
":.;.;.&.( T ( ) _ >.>.>.>.>.>.>.>.;.:.:.&.'.}.W.^.^.,XqXrXlXsX:XA.,.-.>.;.-.-.;.;.-.:.;.>.y.c.c.0.#./ F N N B V I U ..#.#.O. .} ",
";.-.-.&.) ( ) ) _ >.>.,.>.>.>.-.&.;.;.>.s.oX!.^.!.(.,XqX7XsXsX&XM.,.>.;.;.-.-.-.;.>.-.-.-.y.y.a.t.#.} H V N V ` U ` ..@.7.@.o.} ",
"-.:.-.:.) ) ( $._ >.,.,.,.>.>.>.>.;.;.=.B.'.^.!.W.!.oX5X5XsXsX$X4.:.>.>.;.-.;.;.;.-.-.-.-.,.t.a.t.6.} / V N V ` ` ` ..@.e.7.O.( ",
"-.>.-.-._ _ ` ) _ ,.,.,.>.>.>.>.>.;.;.&.!.W.!.W.^.^.}.;X8X7X7X&X} :.y.:.>.>.=.-.;.;.&.;.-.:.y.y.t.7. .H V I U U ` ) *.e.t.e.7.( ",
">.-.>.>.) _ ` ) _ >.>.,.,.>.,.-.>.;.;.;.;XT.T.T.W.^.^.@X8X7X7X&XL e.y.;.>.;.>.-.;.;.&.;.-.,.y.y.a.0.o.( H U U ) ) _ :.t.t.e.7. .",
">.>.>.-._ ) ) ) _ >.>.>.,.>.>.>.;.:.,.(.2XT.!.(.{.{.{.[.>X8X8X#XJ e.,.;.>.>.>.;.;.;.;.&.-.y.y.y.a.0.o.( U U U $.) _ :.t.y.e.@. .",
">.>.>.-._ ` _ _ _ >.,.,.,.,.>.>.;.-.+X+X;XR.W.,X;X>X=X=X=X&X9XP.k e.>.>.;.,.;.;.;.;.;.>.-.,.v.a.p.t.o.( H U U ( _ _ :.y.a.p.@...",
">.>.>.-._ _ ` _ _ -.,.,.>.>.>.>.;.!.OX;XtX}.[.@X=XqX4X:X#X#XI.6.i r.:.>.>.>.;.;.;.;.;.1.;.1.y.x.a.t.O.( U H ` ) $...:.e.a.p.@. .",
",.>.>.>._ _ _ _ -.-.,.-.,.>.,.-.s.+XwXtX+X[.$X7X>X8X6X&X#XP.M.{ h } &.-.;.>.;.;.;.;.;.;.;.>.v.a.a.0.o.( ( H ` ) ) _ :.a.a.e.e. .",
",.>.<.>._ ) ) _ _ -.,.,.,.>.>.-.B.6XrXoX}.qX:XlXsX7X4X4X*XP.q.q.] 5 d L &.;.;.;.;.;.;.;.;.<.v.x.c.9.#.( ( H U ) _ &.:.t.a.t.@. .",
",.,.,.,._ _ ) _ _ ,.>.,.>.>.>.<.!.MXrX,XfXjXeXlXlXaXaX4X9X#X#Xq.2.4 = = w &.;.>.1.;.1.;.1.<.x.b.c.0. .( ` I U ( ..&.:.e.t.e.@. .",
">.,.>.,.-._ ) ) _ ;.,.,.>.,.>./.kXzXeXeXkXdXeX7X7X7X8X9X9X*XI.F.q.c 5 @ + N >.;.>.1.>.>.,.v.b.N.m.0.O.( H H ( ) ) ) O.7.t.e.O. .",
",.,.,.>.-..._ _ $.-.v.>.1.>./.kXkXfXfX7X5X4X4X8X4X8X4X%X&X*XP.P.F.F.z 5 o : H >.1.,.<.,.<.v.D.N.a.9.o.H H B ( H ( ( ..:.7.O.O.( ",
",.,.,.,._ _ -._ ) -.,.,.>.].kXkXgXfX5X>X:X>X%X1X:X&X%X*X&XXXP.I.I.I.q.c t 4 5 | -.<.s.s.<.b.n.m.c.7. .H H H C U ( ` ) ..O.o. .( ",
",.<.,.,.-._ ) -.:.-.>.B.>XMXMXMXMXkX5X`.J.J.F.F.#X4X-X-X&X XP.I.#X#XF.6.] { k 6 z >.<.v.v.v.x.v.a.#. .( ` H U ` ( ` (  . . ...( ",
"<.,.,.s._ _ ) ) :.>.S.yXMXBXMXZXmXhX<XA.D e n n C ~.wXeX$X$X%X:X].L.m.6.g.0.' l { K :.s.<.v.v.v.y.:...` H H ` ` _ ( ) ) ) _ ) ) ",
"s.,.,.,.>.-._ _ _ D.uXCXZXNXZXMXMXfX1XG.* v Z A A Z <XkX8XwXuX<X.XG.p.m.p.O.7.a.p.l 5 ( -.-.:.c.:.:._ ` ` ` ` _ $._ ) ) _ .. .) ",
"n.b.s.y.&.&.-._ *.-XZXZXBXZXCXZXMXgX5XG.* b n b . < 1.mXkXMXbXiX/.A.m.e.@.e.A.j.p.6.: @ > > G *.:.-...) ) ) ` ) _ _ _ ) ) ) ) ) ",
"s.v.n.n.>.) _ ..>.gXZXBXVXVXCXCXMXlX7X[.* O.3 @ O Z b fXNXCXCXwXQ.C.r.e.y.J.m.g.m.9.h 4 o = > S ....) ` H H I V U U U H U U U H ",
"s.s.<.b.b.y.&...I.NXVXBXBXCXCXCXZXkX7X.Xy * < * b A 1 pXZXCXkX5XJ.a.e.N.K./.H.G.G.g.3.K i : o + B U V N N N M M f M g f d N / } ",
"b.v.b.v.,.y.S. XhXNXBXBXVXVXZXZXMXcXpX'.e.2 ; < 1 1 &.fXhXnXfX-XS.N.N.H.[.[.`.H.M.u.7.3.E 5 : - & > q q 2 > & & * : > > 9 9 a a ",
"n.U.U.n.v.n.%XmXMXMXMXMXVXNXBXMXMXkXgX-XC.h.! m g P 8X7XfX9X$X~.A.N.a.N.L.`.J.A.5.5.5.7.2.j t 4 X X . . . O & & > > 9 a j j a a ",
"s.s.v.n.K.XXcXZXZXMXMXNXMXCXBXBXmXhXeX<X.XL.I.].#X8X9X&X#XP.j.h.a.i.i.r.N.S.H.4.5.u.u.7.3.Q c 5 + X . . + = 4 y 9 0 a l a d 0 r ",
"U.v.<.n.+XhXVXVXCXVXVXNXVXvXBXmXlXuX8X<X4X<X8XaXfX4Xj.u.g.5.3.5.5.5.O.*.r.l.i.} 4.i.g.5.5.3.Q h @ + @ = 4 y y p S S S S r r y y ",
"<.U.U.R.1XMXBXVXCXVXCXVXCXVXMXkXlX7X:X%X:X8XsXsX4XK.+.P } Q ! 3.X.X.O.w.>.r.*.5.w.u.h.5.5.] K h 4 : - 4 9 r m y D P G p 0 p s G ",
"U.U.n.R.uXMXBXMXNXVXVXNXVXNXkXlXgXfX1X<X4X-XA.5X,X|.D R P W Q X.W [ 5.*.r.r.w.r.e.u.w.7.3.Q J c 4 4 7 r p 8 s G G P D M M B T ) ",
"U.U.U. XhXMXBXBXBXBXBXMXvXcXmXgXsX7X6X6X6X>XZ.z.W.}.~ ~ R P W 3.Q ] 3.+.s 7 w R r.h.5.w.5.Q E l t 8 a r j m 7 m Y P B I I T =.=.",
"n.V.U.OXvXNXVXVXVXNXBXMXkXgXgXgXrXqX3X3X8X3X{.R z.}.|.~ D D E 2.Q K h =   # # % 2 Y u.w.7.X.W E h j t s d G y w M R M I R $.=.%.",
"V.V.R.2XVXCXCXVXVXCXZXBXzXfXfXgXsXrXqXqX3X9X@XW.}.W.^ R ! S P ] Q i -   O ; % X # % R O.5.7.Q E E j t r y G p w w M C R %.=.%.%.",
"U.V.S.0XNXBXVXCXVXCXCXZXMXkXkXsXsXrX8X3X,X,X{.W.W.z.$ ^ R J +.X.] K 5 . O n X   $ , 2 5.4.o.4.3.' i 8 9 9 u m 7 2 ^ C ~ %.%.=.<.",
"U.V.).1XVXVXCXCXCXCXCXCXCXNXzXlXsXrX3X3X@X@XW.~ |.|.w.! m D 6.w.3.X.K k $ $   O % 1 # R e.5.7.u.Q i t 9 9 7 M e e M C T ~ &.y.b.",
" X X XpXBXVXVXCXCXCXCXCXCXvXMXhXrX3X3X,X{.J.z.z.W.@XW.W.h.w.7.u.4.4. .7.' > $ % < , * M *.e.u.u.] l i 8 - 2 w u w M C ` ;.y.x.x.",
"2XyXhXhXNXCXVXVXCXCXCXCXCXNXvXfXqX3X&XW.j.l.z.{.{.{.@XJ.E.i.i.u.7.i.e.d.y.a.:. . .Y +.*.r.e.u.h.3.W l 8 * - u p e I ` @.v.c.,.c.",
"mXcXcXcXNXVXVXCXCXCXCXCXVXNXNXxXsX3X,X@Xl.l.l.@X@X@X@XJ.C.N.u.w.4.i.N.k.b.d.a.a.d.a.r.e.i.u.u.p.7.Q E 8 = - u R B T #.,.@.c.c.,.",
"mXcXcXhXvXNXNXVXCXCXCXCXCXVXvXxXgXrX3X,XW.l.z.J.3X=X3XW.j.k.A.i.O.e.d.a.d.a.a.y.e.r.a.u.i.u.u.p.g.3.X.K 9 w P Y D ..c.t.,.c.t.,.",
"cXhXhXyXcXvXvXBXNXVXVXCXCXVXvXzXxXgXrXtX[.W.l.k.=X:X%X=XK.k.j.C.e.e.a.a.k.C.N.B.b.a.a.a.u.e.p.g.9.3.2.3.' k k H ( p.m.c.c.c.c.c.",
"cXyXuXyXpXhXvXvXNXvXNXCXCXVXNXvXxXxXrX,X,X}.J.k.W.:X3X~.`.[.k.m.i.u.e.e.y.d.k.a.h.a.h.N.h.h.g.u.8.3.6.6.6./ z #.m.m.x.x.x.c.g.m.",
"hXyXyXpXpXpXiXvXvXNXNXNXNXCXVXvXnXxXsXqX<X[.~.W.w.{.6X:X~.K.{.H.G.h.e.*.r.d.a.k.u.a.r.i.a.m.j.g.p.3.0.9.9.7.9.c.x.g.9.c.0.c.9.9.",
"hXhXhXuXpXiXhXhXvXvXvXvXvXvXNXvXnXxXgXrXqX.X{.~.5.Z.5XuX>XI.Z.~.H.K.e.O.r.a.y.i.b.i.y.u.h.p.p.8.p.8.p.p.9.9.9.0.0.0.0.6.0.6.0.6.",
"yXuXuXuXpXhXvXvXMXMXvXzXxXxXpXxXzXzXhXhXwXoXoX`.k.N.5XqX<X-XK.K.A.C.J.e...d.y.s.a.d.a.a.h.i.e.u.0.3.9.j.q.9.6.[ [ [ [ [ [ [ [ [ ",
"yXpXyXyXpXhXvXvXZXCXMXvXzXxXwX0X0XiXgXiXqX:X2X[.H.N.=X5X-X<X-X/.A.a.e.G.i.r.f.f.a.d.d.a.i.u.7.p.u.7.9.g.9.9.[ z z z z z z E z z ",
"6X2X2X2XpXiXcXvXMXZXNXMXzXxXpX0XOX+XtX0X-X2X2XoX^.S.!.oX-X.X[./.C.Z.O.e.~.B.f.B.d.f.N.a.a.u.7.p.p.u.u.g.c.9.z x x z k k k k k k ",
"6X-XOXOX0XpXcXcXMXMXMXMXvXpXpX0X0XOX_.).)._._.}.}.!.S.}.'._.~.~.N.d.S.b.n._.Y.n.B.B.B.N.i.a.e.i.p.u.g.9.9.6.z i x x k k k k k z ",
"6XOX XOX1XgXhXmXMXBXmXnXkXuXwX;X;X+X(.!.Y.U.Y.R._.!.Y._.E.Y.T.Y.S.U.S.Y.B.!.oXR.B.B.B.x.a.h.a.p.h.p.p.g.9.6.x x x c l l z z z z ",
"-XOX XOXwXgXkXvXkXMXMXkXkXgXwX>X-X.X(.).!.Y.Y.B.|.U.R.).R.Y.U.!.(.!.!.!.).S.!.+XE.B.N.m.d.a.a.h.g.p.p.9.9.2.z z z K z z z K K { ",
"OX+X XOXuXkXMXbXbXMXkXkXhXgX6X1X2XOX/.!.Q.Y.R.S.B.B.T.S.Y.Y.U.!.}.!.(.^.).Y.Y.Q.(.E.C.n.k.a.h.m.p.8.9.9.0.{ z E E z { z { ' { K ",
"OXOXOX0XlXkXMXMXzXnXkXkXhXgX7X6X:XOX X/./.!.Q.Q.E.B.S.b.d.d.d.Y.Q.Y.Y.!.R.Q.Q.D.S.Q.S.b.k.x.i.h.g.8.8.0.[ { E E { E { { ' ' { { ",
"2XwX6XfXkXkXkXMXNXcXkXfXfXyX7X8X:X-X.X`./././.~.~.S.R.N.a.y.*.a.d.k.d.U.Y.R.E.B.Z.N.S.a.p.i.g.p.0.7.0.3.' { { ' { { { ] ' [ [ [ ",
"6XpXlXkXkXkXkXcXMXmXjXfXyX7XwX6X<XOX'.`.(.~.~.~./.Q.S.S.A.S.d.a.a.y.) &.r.d.S.C.N.C.N.A.h.h.p.p.8.3.o.[ [ [ [ ] 2.[ [ 2.o.[ 2.o.",
"1XuXjXkXkXbXkXkXkXkXfXfX7XyX7X6X5X-XXXXX/.K.~./.J.H.S.H.S.A.S.A.h.b.&.| O.*.e.k.e.a.a.N.h.7.u.7.3.3.2.X.2.X.2.2.o.2.2.3.3.3.3.3.",
"6XyXkXcXcXkXkXMXkXlXfXfXyXpX4X1X:X-X-XOXL.L.~.J.A.S.Q.Q.S.A.N.S.N.C.h.r.:.:...h.:.e.O.3.h.6.5.3.3.3.2.2.3.3.3.3.3.6.3.3.3.3.3.3.",
"8XlXbXmXmXmXkXbXlXfXfXfX7X6X1X1X%X-X-X%X`./.A.A.S.S.H.Q.K.A.C.Z.N.N.N.d.a.a.a.a.N.a.u.3.e.p.J W 6.2.6.6.6.3.6.3.6.6.3.6.6.3.0.7.",
"6XdXjXmXmXmXbXjXkXdXdXyX7X8X6X:X:X-X-X-XXXP.K.A.N.C.H.Q.~.K.H.G.C.N.N.N.b.N.h.d.A.h.p.e.O.6.L K 8.6.6.6.6.6.0.6.6.6.6.0.7.8.6.7.",
":XfXjXbXmXmXmXbXlXlXfXyXyX6X4X:X-X<X-X-X.X`.~.K.A.Y.H.~.L./.~.H.C.m.x.a.k.a.a.a.a.N.p.p.u.X.4.] 8.6.8.8.8.8.8.8.0.8.0.8.8.8.8.8.",
"#X4XjXmXmXmXbXmXkXkXfXuXyXyX4X4X&X<X-XXX`.`./././.~.~.~.`.~.K.G.C.M.N.a.a.d.m.N.p.N.x.g.4.W X.O.9.8.8.8.8.8.8.8.9.9.8.8.8.8.9.8.",
":X8XdXbXbXmXbXbXjXkXfXfXyX7X7X4X<X&X$X.X.X`.~.J.J.K.~.~.~.J.H.A.N.m.N.a.x.a.a.N.m.p.C.O.S j S 0.8.8.9.p.8.8.8.8.9.8.8.9.p.8.p.8.",
"&XaXdXjXbXbXbXbXkXkXjXfX7X7X8X6X>X%XXX]. X`.~.~.~.S.K.Q.~.Q.K.A.N.M.N.N.a.a.a.x.a.h.M.o.j y j g.9.g.g.8.g.9.g.g.g.p.g.p.9.g.8.g.",
"#X8XdXjXbXbXbXbXbXjXlX7X7X7X7X4X<X%XXXXX`.~././.J.Z.Z.H.H.J.J.G.C.M.N.x.a.a.p.a.a.x.M.u.W J S 8.9.g.g.g.g.9.g.9.g.p.g.g.p.q.g.g.",
"#X8XaXdXjXbXbXjXbXjXlXdX7X7X7X5X&X$XXX`.L.L.~.~./.J.h.N.A.Q.Q.H.A.D.m.a.p.a.a.p.p.m.C.4.W S S 9.j.9.j.j.j.9.j.g.j.g.g.g.p.g.g.g."
};
