/* XPM */
static char *chimi_5_641741260423[] = {
/* columns rows colors chars-per-pixel */
"64 64 245 2 ",
"   c #030303",
".  c #0A0A0C",
"X  c #090607",
"o  c #150909",
"O  c #0D0D11",
"+  c #141314",
"@  c #1B1B1B",
"#  c #191716",
"$  c #0F1012",
"%  c #240B0A",
"&  c #26140C",
"*  c #261A17",
"=  c #381914",
"-  c #371C0B",
";  c #3C210C",
":  c #2B211C",
">  c #3D2414",
",  c #3D231E",
"<  c #35261B",
"1  c #1E1C21",
"2  c #2B2C2C",
"3  c #262624",
"4  c #372A26",
"5  c #37312B",
"6  c #2D2E32",
"7  c #383736",
"8  c #442719",
"9  c #42230E",
"0  c #482C26",
"q  c #45332D",
"w  c #4B362A",
"e  c #53372A",
"r  c #493532",
"t  c #473933",
"y  c #4C3A34",
"u  c #4B3B36",
"i  c #533C34",
"p  c #523E3A",
"a  c #5B3D3A",
"s  c #563633",
"d  c #5C2F2A",
"f  c #643D39",
"g  c #4B423B",
"h  c #54433C",
"j  c #5B433C",
"k  c #58473A",
"l  c #68433C",
"z  c #613F40",
"x  c #5B3E40",
"c  c #4A4A48",
"v  c #564540",
"b  c #5A4741",
"n  c #564943",
"m  c #5B4B44",
"M  c #5D4D49",
"N  c #554F4A",
"B  c #5E524A",
"V  c #57514A",
"C  c #5A5856",
"Z  c #6B4542",
"A  c #684B47",
"S  c #734B45",
"D  c #62544D",
"F  c #6A544A",
"G  c #645B4D",
"H  c #695C4E",
"J  c #615147",
"K  c #75524B",
"L  c #79564D",
"P  c #635651",
"I  c #655B53",
"U  c #695E54",
"Y  c #6B5E59",
"T  c #675955",
"R  c #775955",
"E  c #6B6255",
"W  c #63635E",
"Q  c #6D635A",
"!  c #6E685E",
"~  c #676050",
"^  c #726455",
"/  c #72655C",
"(  c #736A5D",
")  c #7A6D5E",
"_  c #796457",
"`  c #79715F",
"'  c #656562",
"]  c #6C6B66",
"[  c #736561",
"{  c #756C63",
"}  c #796D64",
"|  c #796F68",
" . c #7B6662",
".. c #767065",
"X. c #7B7265",
"o. c #7C746B",
"O. c #7F796E",
"+. c #75736B",
"@. c #7D7A72",
"#. c #787773",
"$. c #6C7074",
"%. c #5F605B",
"&. c #845C53",
"*. c #88655B",
"=. c #916A5F",
"-. c #896D63",
";. c #837965",
":. c #81756C",
">. c #837B6C",
",. c #877768",
"<. c #97746B",
"1. c #847C73",
"2. c #897D73",
"3. c #847A75",
"4. c #977D76",
"5. c #916E64",
"6. c #A37B71",
"7. c #89816D",
"8. c #86806A",
"9. c #868175",
"0. c #8B8274",
"q. c #86847B",
"w. c #8C847B",
"e. c #8D897D",
"r. c #8E8976",
"t. c #91867D",
"y. c #928A7D",
"u. c #96887A",
"i. c #97917E",
"p. c #A5827B",
"a. c #8D8A82",
"s. c #8C8783",
"d. c #918681",
"f. c #938D83",
"g. c #9B8B83",
"h. c #938D89",
"j. c #959185",
"k. c #9A9385",
"l. c #96938B",
"z. c #9B958A",
"x. c #9E998D",
"c. c #9E9A86",
"v. c #9B9592",
"b. c #9C9A93",
"n. c #979895",
"m. c #8F908A",
"M. c #A68C86",
"N. c #A4948B",
"B. c #A29B8C",
"V. c #AB948B",
"C. c #B1978D",
"Z. c #A29C93",
"A. c #AB9D93",
"S. c #A39F9A",
"D. c #AD9F9C",
"F. c #B79D95",
"G. c #B28C83",
"H. c #A6A28F",
"J. c #A5A195",
"K. c #ABA394",
"L. c #ABA995",
"P. c #A6A39B",
"I. c #AAA59C",
"U. c #ADAA9C",
"Y. c #A6A893",
"T. c #B2AC9C",
"R. c #BCAC9D",
"E. c #B5A497",
"W. c #B3B19E",
"Q. c #B8B39F",
"!. c #AAA6A1",
"~. c #AEABA3",
"^. c #AEADA9",
"/. c #A6A6A1",
"(. c #B3ADA4",
"). c #BCADA3",
"_. c #B2AEAA",
"`. c #B2A7A3",
"'. c #B4B2A3",
"]. c #B9B5A4",
"[. c #BDB9A6",
"{. c #B5B2AC",
"}. c #B9B5AB",
"|. c #BDBAAB",
" X c #B6B6B1",
".X c #BAB6B2",
"XX c #BCBBB4",
"oX c #BDBEBA",
"OX c #B7B8B2",
"+X c #AFB0AB",
"@X c #C3AA99",
"#X c #C6B29D",
"$X c #C1ABA1",
"%X c #C4B2A4",
"&X c #C3B6AC",
"*X c #C2BDAE",
"=X c #CCBAAC",
"-X c #C9B8A9",
";X c #D0BAA6",
":X c #C3BCB5",
">X c #C2BEB9",
",X c #CABAB4",
"<X c #D0BFB7",
"1X c #BFC0BB",
"2X c #C4C2AE",
"3X c #C4C2B3",
"4X c #C9C6B6",
"5X c #C4C2BD",
"6X c #CAC4BB",
"7X c #CDCABC",
"8X c #CBC9B5",
"9X c #D0CEBF",
"0X c #D5C4B8",
"qX c #C6C5C1",
"wX c #CCC6C2",
"eX c #CCCAC4",
"rX c #CDCDCA",
"tX c #C7C9C6",
"yX c #D2CCC3",
"uX c #D3CDC9",
"iX c #D8CBC4",
"pX c #CFD0CD",
"aX c #D4D2C5",
"sX c #D3D2CC",
"dX c #D9D4CB",
"fX c #D8D6C7",
"gX c #D5D5D2",
"hX c #DAD6D3",
"jX c #DADAD6",
"kX c #DCDCDA",
"lX c #D8D8D7",
"zX c #E1DEDB",
"xX c #E0DCD7",
"cX c #DFE0DC",
"vX c #E2E1DE",
"bX c #DFE2E2",
"nX c #E3E3E2",
"mX c #E8E6E3",
"MX c #E9E9E6",
"NX c #EBECEB",
"BX c #E7E8E7",
"VX c #EFF2F1",
"CX c #F2F3F2",
"ZX c #F7FBFA",
"AX c #EFEFED",
/* pixels */
"X.;.;.:.;.>.2.2.0.w.w.1.:.;.o.;.o.X.} X.X.X.) ( ) ) ( ^ ^ ( Q E ^ E E E E E E ~ E U ~ H ~ U ~ B 8.! ! c.` ^ 8.` ` 9.r.X.! ! ` w ",
"X.` ( ) ` ` X.;.>.:.2.0.2.X.X.o.;.X.X.} } } } } } / / ! / Q ! Q E E ~ E E ~ E U H E E H ~ H ~ B 9.~ i.o.! 0.o.7.r.r.( ! X.` ^ g ",
";.;.` _ ) ^ _ ( } ;.X.X.2.2.X.} } ) } ) ( ( ( ( ( ! Q Q Q Q E E E ~ ~ E U ~ I U ~ ~ E ~ G G G ;.X.` i.~ 7.9.O.k.j.! O.8.` ! ~ r.",
"8.7.;.;.;.` ` ^ ( _ ) o.{ o.0.X.( ) ) ) / ( / ^ E ( ^ E E E U E U H ~ ~ G I H H ~ E E E G G ! i.` Y.X.7.r.9.x.q.O.r.7...` X.k.c.",
"8.8.7.8.8.;.,.;.` ^ ^ E X.( ) 0.{ ( ( / ^ ^ ^ E E ^ Q E E Y U H H G G U U B E ! Q X.E ) { E ;.e.y.e.@.Z.9.J.l.e.j.7.;.X.` K.r.o.",
"7.7.7.;.;.;.;.;.,.N.B.u.) ^ ( ( 7.X.~ E E E E E E E E U Q E I G C G U U E { ..b.j.b.s.b.q.@.J.Z.x.y.~.a./.P.x.j.0.X...X.Y.;./ >.",
"r.7.7.,.7.,.;.;.R.&X&X-XR.u.) ) ` ;.( H E H E E E Q ( } { { Q U G J ( 9.a.'.!.pXpXrXrXsX5X{.lXtX1XXXOX5X1XOXj.j.X.>.k.A.} } 4.w.",
"r.r.7.r.7.;.8.7.=XR.R.).R.T.B.r.` ` 2._ E H E E E z.l._.l.~.I.f.~ B 9.kXlXsXcXcXcXcXcXkXvXlXnXBXcXlXlXcXpX+X+Xr.e.I.K.>.2.t.t.2.",
"i.i.u.u.0.7.7.u.=X-X-X%XE.V.B.k.j.0.X.2.E ^ ^ 8.q.eXuXzXrXzXnXhXx.x.qXNXMXvXvXcXjXcXgXgXjXlXnXnXbXnXnXkXpXeXXX_.}.J.a.9.2.>.2.3.",
"H.i.i.i.u.0.7.u.%X=X=XR.E.B.N.M.u.u.r.2.8.( 2.{.eXkXnXnXzXMXMXnXkXNXCXNXmXvXvXgXeX7X5X1X5XeXrXlXkXbXlXrXtXrXtXtXOX~.b.f.h.u.w.| ",
"H.H.i.i.u.r.0.i.[.-X=X@XK.V.k.p.g.t.w.z.x.z.:XgXvXmXcXcXkXkXlXkXzXNXAXMXvXvXjX6X}.'.W.'.(.{..X>X5X5X5XoX5X5X5X5X5XOX/./.Z.f.0.o.",
"L.H.H.B.H.i.i.k.#X-X0X-X%XR.K.J.N.g.g.D.>XeXjXvXvXnXkXhXsXhXkXmXnXMXBXvXjXsX7X{.Y.H.c.c.z.N.Z.Z.S./.~.!.I.I.U._.{.~. X^./.Z.d.@.",
"Q.T.T.K.H.c.i.i.R.;X<X;X-X@XK.E.I.E._.wXhXkXvXvXvXjXsXdXuXhXnXmXBXvXzXhXeX|.'.A.x.k.y.u.t.w.2.t.d.d.d.2.s.w.f.f.l.b.J.I.S.v.l.w.",
"[.Q.T.K.K.H.c.r.E.#X;X0X-XE.A.V.E.&XuXkXzXvXvXzXdX7X6XuXgXzXmXNXnXkXjXuX5X'.K.z.k.i.t.0.0.w.2.2.:. .} Y R Y Q } X.1.q.j.z.z.l.s.",
"|.].T.T.L.K.c.i.N.#X;X;X#X@XR.$X:XuXkXxXzXzXjXuX4X&X:XuXzXmXmXNXnXvXhXsXeX:X(.B.k.k.y.t.w.2.} / D a r 4 4 = 4 r h D ( O.q.j.l.w.",
"2X[.].Q.T.Y.H.c.i.#X@X;X;X;X-XuXxXnXnXxXsXyXyX:X`.`..XgXmXNXAXNXmXvXxXhXsXwX>XT.B.z.c.j.t.:.D p 4 o X o o o % & < q B { 1.r.m.@.",
"7X2X*X[.'.T.T.H.c.R.@X;X2X0XdXxXvXkXhXuX,X&X`.`.D.D.>XhXNXAXCXmXzXhXgXgXuXuXwXoXT.S.x.k.2.D 4 o   X + # # : : < < 4 i J X.9.a.9.",
"7X7X3X*X[.'.Q.L.H.E.F.@X2X0XxXmXjXyX&X`.A.N.M.N.M._.rXnXCXCXmXnXxXiXwX,XeXuXuXuX5X}.S.k.} 0 o   $ 2 2 @ @ : 4 < 8 < 4 h X.9.j.j.",
"9X7X8X3X*X[.R.Q.L.K.$X%XiXxXvXdX:XN.,.-. .R  .2.M.>XbXNXCXNXmXxXiX,X<X>XuXuXsXyXwX5X.XI.o.4 $ . 2 6 3 + @ : 4 < 5 < g E 9.j.k.c.",
"aX9X7X8X3X|.[.Q.T.T.=X6XvXvXxX=X-.s , * & : 4 a 3.wXNXAXNXnXhXiX>X<XeXiXiXeXwX:X&X).`.}.I.9.N 2 @ # 3 + . X : < w k ( 7.f.x.x.x.",
"fXaX7X7X8X*X*X].(.'.4XgXnXzXwX4.s i * $ + $ o & [ lXAXmXzXhXiX<X,X&X,X<X,X>X&X&X(.K.z.S.}.OXn.! 2 5 5 4 2 u M ^ o.0.e.f.x.x.B.x.",
"fXaX9X7X8X3X*X[.'.|.aXzXAXmXF.F M y # 2 3 @ * * 4.NXBXzXiXiX,X,X$XF.).$X&X,X&X&X).N.t.f.x.(.XX~.f.o.} :.1.d.g.k.z.Z.J.I.I.I.Y.Z.",
"fXaXaX9X7X4X3X|.[.3XeXnXAXnXA.R v q + 1 1 X # v iXmXmXiXiXiX$X$XC.C.F.$X&X&X$XD.V.u.g.4.u.z.~.{.(.Z.z.g.z.z.B.J.~.}.|.[.'.~.J.b.",
"fXfXaX9X7X8X2X*X:XeXzXmXNXMXrXZ./ t 3 3 4 5 V _.NXzXhXiXiX;X$XF.V.F.C.).E.A.V.d.4.4.2.:.,.w.z.K.I.U.U.I.A.P.I. XXXXX1X|.'.U.I.J.",
"fXaXaX7X7X8X3X1X2XpXvXvXvXmXcXaXwX`.`.D._.wXsXNXvXxXiXiX<X$XF.F.V.V.M.V.M.p.4.4.,.-.*.;.;.2.u.j.x.Z.U.'.|.5X5XeX6X5X7X1X|.}.U.J.",
"fXfXaXyX7X4X3X1X2XdXkXcXjXjXkXjXhXkXhXhXzXNXAXnXxXxX<X,X$XF.F.G.M.6.p.4.p.4.-.-.*._ _ _ *.-.2.r.z.x.x.P.{.5XeXrXeXeX5XXX}.'.Y.J.",
"fXaXaX7X7X4X2X2X7XjXvXcXjXcXjXkXzXnXnXMXAXCXNXbXzXiX-XF.G.G.p.6.6.<.<.<.5.-.&._ L L R L ^ ) ` ,.y.z.z.z.Z.}.5X5XtX1XXX}.~.I.S.b.",
"aXaXyX7X8X8X2X[.3XjXnXvXmXmXvXBXBXBXNXAXCXNXBXnXzX<XF.G.p.6.<.6.=.5.&.5.&.&.R S e l A K L F ^ 2.i.z.c.j.x.P.'. X1X3XXX~.Y.x.z.y.",
"aXaX7X7X4X1X1XQ.3XlXkXlXkXcXBXMXMXNXVXZXVXNXNXkXzX$XG.6.&.&.=.=.&.&.&.&.&.L K > , d a Z s k / >.y.z.z.j.z.x.Z.P.!.(.'.~.Y.J.z.j.",
"aXyX7X7X8X1X2X2XXXgXcXcXkXnXvXnXBXMXCXCXNXNXBXgX,XF.p.=.f d z =.&.&.S &.S K 0 % & = , 0 k F -.2.e.z.j.j.z.j.x.c.P.I.~.I.P.b.z.j.",
"9X9X7X4X2X2X1XQ.[.sXjXcXnXnXcXvXMXCXCXMXVXCXNXkX,XV.5.z d = = S &.S S S S Z , % = = r Z ^ X.2.t.y.j.i.k.j.k.j.z.x.P.U.~.P.J.x.y.",
"9X9X7X5X1X1XQ.Q.{.sXjXgXlXkXnXnXNXNXBXBXNXCXnXnXzXwXM.S d d , z &.K Z S Z z d , 0 s A ^ :.2.w.y.f.j.f.f.f.f.y.f.j.x.J.P.J.Z.x.j.",
"9X8X8X2X1X|.}.'.}.sXgXsXlXkXkXBXBXmXbXNXAXmXnXbXbXgXwXM.R A z A &.K &.f z &.d d s b R } 1.2.t.t.f.h.f.g.y.f.e.e.y.f.Z.Z.Z.B.z.a.",
"8X8X8X2X1X|.].].[.gXgXgXgXgXvXcXnXbXNXAXNXNXnXzXzXlXuX_.d. .K S &.K z z S z f a a A / :.2.2.w.y.y.w.y.y.f.y.q.q.a.e.j.l.z.Z.J.J.",
"8X1X2X[.Q.Q.].U.'.pXjXeXsXgXkXkXbXCXNXbXBXNXbXlXgXuX>XoX`.M. .R R R z z Z Z x x A T / :.2.3.0.w.w.w.w.w.e.w.w.e.e.e.e.y.j.l.l.y.",
"2X2X[.1X[.Q.W.U.U.eXjXpXrXlXlXnXNXNXlXbXBXbXbXrXuX>X.X.XoX`.4.R R R z z x Z a A Y /  .:.3.2.3.3.2.0.q.w.w.w.f.e.f.e.e.e.e.q.e.e.",
"8X[.[.Q.W.W.L.L.I.7XgXqXqXgXnXnXBXbXbXNXnXbXlXrX>X>X>XwX5X:Xd. .K K z s a a j F [ } } o.:.1.:.O.3.9.9.0.w.w.e.f.e.y.y.e.e.r.e.e.",
"[.[.[.[.Q.].Q.'.W.1XjXrXwXjXkXnXBXNXNXNXbXlXlXqXoXqX.X>XqX Xv.-.A z z s a p M R | { [ o.1.3.:.O.O.O.1.3.1.3.9.q.q.q.w.w.e.q.q.e.",
"W.[.Q.W.L.Y.Y.Y.L.1XdXeX5XeXnXVXNXBXbXlXlXgXpX>XoX^.`._.`.S.v.3.R M x 0 p x J [ | [ [ { o.1.3.1.1.O.O.O.o.o.o.O.:.1.1.@.9.9.q.q.",
"r.Q.i.Y.U.U.U.Y.Y.'.sX5X5XkXBXBXbXlXrXrXtXtX>X X_././.^.^.D.h.g. .A x r s A [ :.3.o.{ { } o.:.o.O.O.o.{ o.o.o.o.X.o.X.X.o.O.9.9.",
"3 L.W.W.W.W.W.W.{.OXqX5XtXbXkXgXuXeX>X5X.X.XOX X^._.5XXX X!.z.2.3.[ A u x P | d.3.3.:.| X.:.1.O.O.O.o.o.o.o.1.@.O.O.O.o.o.O.O.O.",
"5 @.n.'.+X~.n.$.$.$.m.5XsXkXpXgXpXqX>XtXqX1XOX.X^.{.{./.!.v.t.:.3. .Y x M ' [ 3.3.3.:.[ ! o.O.O.O.O.1.1.1.1.1.1.1.@.O.O.@.>.O.O.",
"X 2 c 6 @ $ $ .   2 ' ^.rXjXkXjXsXgXsXlXpXtXqXoX^.OX/.!.h.@.} :. . .Y x x Y T [ [ Y [ Y Q { o.o.} | O.1.9.0.9.9.1.9.1.1.9.9.q.9.",
"@ @           + 6 N %.n.eXjXjXgXkXlXkXlXpXrX1XoX^.P.S.h.:.| [ | [ [ T u x M Y Y [ M M T Q / { o.{ { +.o.1.1.1.1.3.1.1.2.@.q.q.r.",
"+     . . 3 c W #./. X+XwXkXgXgXkXlXrXoX.XqXOXOX/.s.3.3.:.| } | T T D u p D P [ [ T M T Y Y E { { { { { { o.o.o.o.O.O.@.O.8.@.9.",
"O O $ 7 %.$.+.b./.q.C C >XgXwXwXeX>X^.S._.^.b./.v.w.s.@.| { { [ T M v p x M P Y [ T P Y [ Q W I Q Q Q Q ! ! { ( { ( ..{ +.+.+.o.",
"+ 7 ] ] c ] n.+.7 @ + C m.+X.X.X.X_. X/.S.n.S.n.v.h.3.3.:.| { / Y P x v x n M P ' Y M Y [ { Q I C I Q I Q W Y Q Q Q ! ! ! ! +.+.",
"' %.2 6 $.m.7 + # 1 # 3 7 ' oXOX>X>X X/.b.D.v.h.n.h.3.3.3.| [ ^ T A x r u p v D T Y T P Q Q Q Q E Q Q Q Q Q Q ! { ! ! ! ! ! ] { ",
"3 O c q.' $   . .   . . c /.'.qX>X.X_._._.S.l.h.v.s.| 3.| [ / Y T M u 4 r r y n P I U D P U I U U Q Q ! { [ { { { { } { { { Q { ",
"3 c W 7   .   .       ] a.W +X1XoX.X_._.S.l.d.d.d.| | { [ [ [ I P x r q q q r i m J I D D D I I C U Q [ Q { ....{ +.} +.o.o.{ ] ",
"7 c 6 . $ .       7 P.' 6 #. X1X{.(.S.Z.t.3.3.3.| [ { [ Q } Q M M b p q 0 q q y p n J T I F I P C P C U Y W ! { } { { { o.o.O.+.",
"5 7   X       # ' P.W 6 @.C m.s.v.Z.Z.w.3.:.@.#.| { { / Q Y P m M x p r r r q r y p h N P P D D D I P I Y I Y W ! / ! [ { { o.O.",
"6 #     .   2 q.$.N 2 +.7 c o.B h.S.D.w.3.o.o.1.{ [ { Y I D v h p p y y y r t t q q y h n m V C P I I I C P I I I E Y Q Q { ! { ",
". .       N q.7 g c @.g ! O.m j.f.~.S.s.3.} o.:.[ Y ^ D J v h i p p s y i u y r y q q y u g h m N I U P P P I I I ~ C U Q E Q P ",
"  .   + %.' 1 6 W 9.h ! o.g a.s.1.f.P.D.s.:.3.| Q I P m h p p p j b p p h h y p p t q t y t t u v B P P C I U Q Q Q I Q Q Q G V ",
"    @ +.C O   @.e.C X.o.v 0.q...B U s.}.S.s.3.o.! U P m m m b p M M h h h h p g h g h q t t t q g n B C I I C E Q I Q E Q ! G m ",
"  1 ! 7 . X ~ 8.w H H 9 Q 2.j w 8 h ..l._.v.d.1.} / Y I H D m h B j h v p n m h h h h h t t h u g n N B C I C I I Q Q Q { ( ! V ",
"2 W 5 X o V >.; e H - k w.k k > 0 D E e.>XP.v.w.:.} / ^ Y D B J D m m b p h m h m n h h n n n v n n m B P I E E U Q { { { +.X.~ ",
"N g & - w ` 0 e ^ 9 8 r.k H 8 8 w Q m q.tX XP.w.3.:. ./ / U I I U B M J h h D m n m n h B B n B V B B B D U E Q ] ! { o.o.o.o.! ",
"k ; ; w F k 8 ^ 8 8 ;.J k 0 > > k k 0 P.pXrX{.v.w.1.| { { ^ Q Q U U G U B m I G n B B n B G G H G D B B P Q Q ! Q { { o.o.o.O...",
"8 9 e k ) 0 _ w 9 J X.q k > 8 - k w e eXbXlXqXn.f.3.:.{ { ( ! ! [ E E Y G J I Q D D P P B P G U P C G P I E W ( ( ..X.o.o.O.O.o.",
"9 8 k H k l e ; 9 o.0 j ; > > w y : C jXkXgX5X!.z.s.3.o.{ { [ ( { { Q Q G G G / Q U E U ~ P P I E I U E E Q ! ! ......o.o.o.O.o.",
"e j k k F g 8 > ^ m w 0 = & & 5 < % N rXbXkXtX Xn.d.2.3.o.{ ( ) { { ! Q U D U Q Q Q E U I I I I U E Q Q ~ Q ( ( ( ..X.X.o.o.O.o.",
"{ W G A k < > w ! & 5 o o X < < w = b rXbXbXpXoX!.l.h.s.o.X.{ ..{ { { Q U P U Y ( Q Q E W I I E Y Q E W ! Q { { ..o.+.o.o.O.o.o."
};
