/* XPM */
static char *chimi_4_641741260423[] = {
/* columns rows colors chars-per-pixel */
"64 64 159 2 ",
"   c #040404",
".  c #080607",
"X  c #060807",
"o  c #080806",
"O  c #050508",
"+  c #090708",
"@  c #070908",
"#  c #0B0A0A",
"$  c #100E0F",
"%  c #14100D",
"&  c #1E170F",
"*  c #0F0D10",
"=  c #110F11",
"-  c #0F1110",
";  c #131213",
":  c #191516",
">  c #1F1812",
",  c #1B1719",
"<  c #1C1A1B",
"1  c #211A12",
"2  c #20171A",
"3  c #221C1E",
"4  c #272016",
"5  c #22221E",
"6  c #251E21",
"7  c #2A1E23",
"8  c #242122",
"9  c #2B2325",
"0  c #2D2529",
"q  c #2D2B2C",
"w  c #342126",
"e  c #352C22",
"r  c #3B2A22",
"t  c #32262A",
"y  c #3A272B",
"u  c #342A2E",
"i  c #3B2A2D",
"p  c #39332D",
"a  c #3F382E",
"s  c #352D30",
"d  c #3A2D32",
"f  c #343233",
"g  c #3D3235",
"h  c #323338",
"j  c #3E3439",
"k  c #3E3A3B",
"l  c #412E33",
"z  c #423336",
"x  c #443D33",
"c  c #42363A",
"v  c #4A353D",
"b  c #443A3D",
"n  c #493B3E",
"m  c #4C4636",
"M  c #4E433C",
"N  c #4D3642",
"B  c #463D40",
"V  c #4B3D42",
"C  c #4C3F48",
"Z  c #523C45",
"A  c #523E49",
"S  c #464243",
"D  c #4C4245",
"F  c #4A4947",
"G  c #4D4548",
"H  c #4D4A4B",
"J  c #524246",
"K  c #54444A",
"L  c #59464D",
"P  c #534B4D",
"I  c #5A494D",
"U  c #51514F",
"Y  c #5D514C",
"T  c #594651",
"R  c #544E50",
"E  c #5D4C52",
"W  c #5F4F59",
"Q  c #545353",
"!  c #5B5454",
"~  c #5A5856",
"^  c #5B5658",
"/  c #5D5B5B",
"(  c #624D55",
")  c #634E59",
"_  c #684E59",
"`  c #635256",
"'  c #685557",
"]  c #615857",
"[  c #65535A",
"{  c #6A555C",
"}  c #635C5C",
"|  c #6C5A5D",
" . c #705D5E",
".. c #63615E",
"X. c #6B625E",
"o. c #5F5F61",
"O. c #695661",
"+. c #645E60",
"@. c #6D5B62",
"#. c #6F5E68",
"$. c #725D64",
"%. c #725E69",
"&. c #656363",
"*. c #6B6465",
"=. c #666867",
"-. c #6F6A67",
";. c #6C6568",
":. c #6C6A6B",
">. c #736364",
",. c #716966",
"<. c #74636A",
"1. c #7A656D",
"2. c #726D6D",
"3. c #7C6B6C",
"4. c #75706D",
"5. c #79716F",
"6. c #746270",
"7. c #7B6671",
"8. c #756E70",
"9. c #7D6B73",
"0. c #7E6C78",
"q. c #747373",
"w. c #7A7575",
"e. c #7B7778",
"r. c #7C7B7C",
"t. c #816C76",
"y. c #836D7A",
"u. c #827575",
"i. c #807876",
"p. c #86727C",
"a. c #8A737D",
"s. c #827C7D",
"d. c #8A7B7D",
"f. c #89817E",
"g. c #7F7F81",
"h. c #877680",
"j. c #8C7583",
"k. c #827F80",
"l. c #8E7B83",
"z. c #927A86",
"x. c #947D8A",
"c. c #987E8B",
"v. c #828182",
"b. c #8C8384",
"n. c #8D8589",
"m. c #918285",
"M. c #938489",
"N. c #99818D",
"B. c #958A8C",
"V. c #998E8E",
"C. c #9A908F",
"Z. c #9C8391",
"A. c #978D90",
"S. c #9A8E92",
"D. c #9D9294",
"F. c #9F9498",
"G. c #A09496",
"H. c #A1969A",
"J. c #A3999B",
/* pixels */
"                        +         . .   . @ @ . .   @ @ + @ + @ + @ + + # @ + @ @ @ # # # # # # # # # # # # # @ @ + # # # # # + ",
"                          @ X +         @   @   . . . @ + + @ @ + + @ @ @ @ + + # + + + @ # @ # # # + # # # # # # # # # # # # # ",
"                          +   +   . @     @ @   O @ . @ @ @ + # @ + # + + @ @ + + @ # + + # + # # # # # # # # # # # # # # @ # # ",
"                              @ @     .         X X . . @ @ # + + @ @ + @ + @ # @ @ # # # @ # # # # # # # # # # # # # # # # # + ",
"                          @   + . .   .   + 2 w ;   O O O . @ + @ + + @ + # @ @ @ + # @ + # # # # @ # # @ + @ + # - # # # @ # + ",
"      +                       X +   @     + Z A E j # O . .   @ + @ + @ # + @ @ @ # + # # # # # # # # # # # # # # # # # @ + # @ ",
"                                  . +     , Z N A _ C =     O @ @ @ # @ + @ + + + + @ @ # @ + # + # # + @ @ # # # # + + # + @ + ",
"        +                       .         6 N N N Z _ G #   X     @ # + + @ # + @ + + @ # # # # # # @ @ + # + # @ @ # 3 k k @ # ",
"                                      +   6 N v N A A ) B *   O @   + + @ + + # @ + # @ # # # # # # # # + # +   X , s G J O.+ + ",
"                                          3 v v N A T A T g         @ # . @ # @ # # # # # # # # # # # + # #   # 3 j N Z A C X # ",
"          +                             + : Z v v Z A T C A 9     @   @ @ . @ + # # # # # # # # - # # - # @ ; 9 z V J T ( u + @ ",
"                                        X ; Z v z N T A L C c -     @   @ . @ . . @ # # # # # * # ; # # # : 9 z N L E E E ; + + ",
"                                        . $ Z v v N A A J N c s   X   + + + .   @ @ # # # # # # # - # ; 6 t z V L ( _ ) d + + + ",
"                                          . z N z v v Z A C j z 8   + +             O O # # * # $ # ; 9 w z A I ( ) ) _ :   + @ ",
"                                            7 N z l l z N N d 7 d 9 # $ # # , 0 0 8 < * # # * ; = : 8 t z K ( ( ( ( _ g # @ # # ",
"                                            2 N l l v L L N c 3 , 6 , 3 9 3 0 j K G R s , , ; ; 2 3 3 d Z L ( E ( ) T < @ # # # ",
"                                    + * < * < c l l v J A N d 3 2 7 7 7 t u 7 6 k t G <.j d 6 ; 3 t t c A ( ( _ _ { c # # # # # ",
"                                - 0 c K [ E L l l l z v N d i g t s t g C C T B C C ) y.0.@.G z C l v V N A _ { _ ( 8 # ; # * # ",
"                            + 8 I [ @.$.1.1.' i v y w y g V n V C T G T T W %.#.W 6.y.y.y.j.z.7.7.O.{ ` _ _ _ _ [ b # # ; # # - ",
"                      X $ t V ` { O.$.$.$.%.[ l v w 7 d n T K V K E O.W W W %.y.j.z.l.z.y.j.c.z.j.y.t.t.t.1.%.%. .w + = # ; # # ",
"                    + u C ` | ` ( | '  . .%. .v v y y n V V J K T W E O.[ O.%.t.j.c.x.x.a.a.z.c.c.x.j.g.j.g.t._ { q + # - * # - ",
"                + 8 j E | ` ( I ( ' ` (  .$.$.[ z y i v n A J K T [ O.@.%.<.1.9.t.x.c.c.c.a.a.z.c.x.j.j.j.j.6.%.` 8   + # # # # ",
"              + i T ' { ( K K K I [ _ ' '  .$. .z y i c n K J L K ) @.<.9.1.t.y.1.j.Z.c.c.a.j.l.c.x.j.j.j.j.6.h.I # X # @ # # # ",
"            + q I ( ( ( E J M J I ` { ' ' '  .( d z v N N J L T ) [ %.7.1.1.t.9.<.j.x.Z.c.a.a.l.c.x.j.j.j.j.j.j.G - #   X + @ @ ",
"          + t K ( E E I K J K Y ( ( ( ` [ { $.` z V K L T E ! ( ` @.1.y.9.7.7.%.%.p.l.c.Z.a.a.c.x.j.y.h.y.y.p.x.+.; . @ # .     ",
"        + q D K I I I J K K I I ( ( ( ` ` | $.` z J I I ` O.{ @.%.6.[ T T ] @.%.%.9.p.c.Z.c.z.N.x.z.0.T V I <.m.8.9   . # # * # ",
"        : c J K Y K M Z J J K I ( ` ` { | | @.W v K K J W O.7.0.O.y 3   # * 7 [ @.#.<.y.z.c.c.N.Z.9.6 # ; x } B.S.! # . * ; : : ",
"        w n n J J K n n J G I I ( ` ` { { [ { I M V C J P [ <.h.7.r &   - h < 6 W ^ W $.a.N.N.S.H.f   < s x I b.H.2.; # ; ; - < ",
"      $ u n n n n J n V J J L I E ( ` [ [ [ E b B G C B G T | 9.d. .e   O 5 4 + D ! P | d.M.S.J.b.m % + 8 e | m.F.} ; # ; ; ; , ",
"      ; s z b V n n n V D J K I E E E E ` ` P c z V V c D I ` >.s.V.X.p < 3 % # V ] ! | u.M.D.J.l.m 9 1 4 D d.m.S.! # # # = ; ; ",
"      ; s g b b n n n M J K L L K I I T E L D c c D B B B D ^ 2.i.V.D.b.X.M z t M ] I ] 8.m.D.D.m.X.Y Y | d.n.B.A.H # X = # * ; ",
"      < d g c v n v n n V K L L K K I E I G V j c c k B V B P ;.i.f.C.J.D.d.X.D n ` P ] @.9.m.S.V.m.m.b.b.B.A.C.n.B +   + - # * ",
"      8 g g c z b b b b n J K K I E I K G D b c k k g M H B B ! ,.d.B.B.B.C.5...! L I ` ] ,.N.B.V.V.V.m.B.B.A.D.q.8       # # ; ",
"    + 8 d j c z c z c B V J K L L L J G V V b c c c S G H S k H ..4.f.f.f.B.i.X.*.J L Y | 3.f.m.N.C.D.C.V.V.A.A.:.:       + - - ",
"    # 9 s g g c z z b n V J K J J V V G V b b b c c S F U H M S ~ 4.5.w.f.f.5.,.X.P J n ` 5.u.d.M.S.D.D.C.V.B.b.H - @ X X # # # ",
"    + 7 s g j j j c b V V J K J n n D V D V b b B B S F U U S k F ] ..,.5.i.,.X.X.K D z L ,.3.t.d.V.G.D.D.n.n.&.:   @ X X + # - ",
"      6 s d d d j c B B n M V V n V G V D D V n V G P Q U U S f f j D ] ,.,.,.X.] ] x p Y  .|  .t.M.H.D.V.n.r.f           + # % ",
"    + 6 d s s d d z B B n b n V n M B n G G G b B H ~ Q Q F k k f s B ! ] X.,.X.! X.! c M ' >. .1.B.F.S.S.v.Q < # # # @     # # ",
"    + 9 y d s d d c b B n n n n b b b B G L P D D U ~ / ..Q F k k k G ! ] X.4.X.! X.5.,.M z | >.d.V.D.S.A.k.k q 8 5 < - # + # # ",
"    ; t u u u d j b b b b x v c b c b V P ! ` / P P Q &.....~ U k g k D ! ] ,.4.&.X.5.f.u.( I 9.M.C.D.B.B.&.8 ; - - ; ; ; # - - ",
"    , t t t u d g z c c c b c c b b B D P / &.} P F Y ....&...~ H S S H U / &.2.=.&.,.w.s.<.I 8.n.A.n.b.g.S , ; # @   @ + # # ; ",
"  # 6 9 t t t d g g z j c b b b z z z V P ] ! ! Y ^ / ~ / &.=...&./ Q H Q ..o.=.2.;.8.:.;.E P &.e.v.b.r.=.q , ; - .         + - ",
"  # 3 9 0 w t s z g z g c b b b c j x D P ] ] X.;.2.:...&.&.&.=.=.=.&.~ ~ ~ ~ ..&.&.;./ ! P R / ;.q.r.q.U q ; # * ;           @ ",
"  + : 7 9 0 u d p g g g c x n b c j j D P ] *.-.:.2.w.4.....&.:.q.q.8.:.=.o.Q U Q ^ / } / / +.;.;.8.q.r.Q < < # @ ; -           ",
"    $ , 3 9 i g g p l j b b b b c d g V P ] X.*.;.q.w.:.:.8.q.q.r.r.e.e.q.q.=...^ Q ^ &.&.=.2.q.q.e.r.r.+.- * ; X # - #         ",
"    + ; , t s s j g z z b N b B z g j b P ] *.;.;.8.4.q.e.e.g.r.r.r.g.r.r.g.r.r.q.:.:.2.:.q.r.r.s.g.s.r.=.< @ ; X   # #         ",
"    + = < t d g j g j c c b B c k j j b K ! } ;.9.8.e.e.r.s.s.k.g.g.r.r.g.g.r.v.v.r.r.r.g.g.k.r.r.s.r.w.&.< # # #   + +         ",
"      + , u d d g g g z b b c B c g g c G ! | ;.<.w.e.s.r.r.s.v.v.v.r.v.v.g.g.g.g.g.g.k.k.g.g.s.e.e.w.2.~ 8 ; # ; # # +         ",
"        : t d g g d j c B B B B c j g k G R +.+.;.q.s.s.r.s.r.v.v.v.v.v.v.g.g.g.r.r.r.r.g.g.r.e.e.q.:.*.G < # ; ; , ; ; % - + @ ",
"        : t i f d g j c V V V B c g g g k K R +.#.:.e.e.r.s.v.k.n.v.v.v.v.g.g.g.r.r.r.r.r.r.q.q.w.8.+.^ g $ + # - - ; - - ; ; ; ",
"        , t u d g z c B D B b c j c j k k B R +.+.;.2.w.r.k.k.v.v.v.v.v.v.v.g.g.r.r.r.r.q.q.q.:.:.;.! J 6   X   + # - # # # - * ",
"        < 9 t i g c B B B B B c c B V c c B H / ;.;.2.8.q.e.k.k.v.n.v.g.v.v.g.g.r.r.r.q.q.2.2.=.&.o.K s ; + ; ; # - ; ; - @ @ + ",
"      + ; 8 9 u d j B V B c c c B C G B B B H ^ +.;.2.8.2.q.r.r.v.g.g.g.g.g.g.g.r.q.q.q.q.=.&.&.^ R B < - * # + X # ; , < -     ",
"    X   # : 3 t s g j b c j c c k C G G B H H U Q +.=.=.:.8.e.e.g.g.g.g.g.g.g.g.r.q.q.=.=.&./ Q G c f - # +       X # ; ; < +   ",
"        + = 3 0 u d j j c c k z k B G H U H U F Q Q / o.&.;.:.q.q.q.r.r.g.q.q.g.q.q.=.o./ ^ U S f 0 ; # X           @ # - , -   ",
"  + + @ + # 2 8 9 t t u s d s s s j B F H H H U H Q ^ / o.o.o.&.=.q.:.q.q.q.q.q.:.=.o.Q Q H k s 6 * + .               + # ; ; # ",
"+ + + + + + # * # = * ; ; ; ; ; : , , < < 5 q q h k F U Q / / o.=.=.=.=.=.=.=.=.&.~ H F k f 0 < ; #                     + # - # ",
"X X     @ @ + + + + # + @ + # + @ # # X # # - # ; ; < 5 q f h F U U U Q / / o.Q Q D k u 0 3 : : ; # +                   # ; # ; ",
"          X     . @ + @ @ + # + @ + @ @ @ @ # # - # - # # # ; : 5 q q h k k k S j u 0 6 3 3 < : : #                     # ; ; # ",
"                  . .       @ @ + + @ # @ # # # @ # # - - ; ; - - - - - - , < < 8 < 8 5 3 5 < < ; = # #                 + - ; # ",
"                @   X # + @ + @ + @ @ # # # # + # # - - ; ; : ; ; ; ; - ; ; ; - : ; ; ; , < < < : ; ; ; # + + @         # # < # ",
"                +     + + + @ @ +   + # # # # # - - - - + # - - ; ; ; - # - ; - ; ; - ; ; ; ; ; = = $ #                 - # ; - ",
"+       @ @ @ @ @ + + + # + . + @ X + # @ @ + - ; # - - - # # + @ ; ; + ; # * - ; ; ; # - # - - # + +                   # # # ; ",
"@ +     + + + + + + # # # + + + + # # ; - + # # - * - # # ; - ; # # ; # # # ; # # # - - # - # + + +                   X + # - + "
};
