/* XPM */
static char *chimi_3_641741260423[] = {
/* columns rows colors chars-per-pixel */
"64 64 241 2 ",
"   c #13131E",
".  c #19171E",
"X  c #10101C",
"o  c #151521",
"O  c #191623",
"+  c #1B1A24",
"@  c #1E1C29",
"#  c #201D25",
"$  c #241E2A",
"%  c #252329",
"&  c #2A252B",
"*  c #272529",
"=  c #352B2E",
"-  c #2D2B34",
";  c #2E2D3A",
":  c #342D34",
">  c #392E36",
",  c #3A2F39",
"<  c #312C39",
"1  c #343035",
"2  c #3C3136",
"3  c #363139",
"4  c #3C323A",
"5  c #3D393D",
"6  c #442F33",
"7  c #433335",
"8  c #4B3435",
"9  c #43363C",
"0  c #4A363A",
"q  c #45393E",
"w  c #4B3A3D",
"e  c #4E3936",
"r  c #533B3C",
"t  c #5A3D3C",
"y  c #543836",
"u  c #5B433D",
"i  c #59433D",
"p  c #60453A",
"a  c #343442",
"s  c #453A42",
"d  c #4A3C42",
"f  c #463842",
"g  c #523E42",
"h  c #593E42",
"j  c #4D4145",
"k  c #4D4249",
"l  c #4A4544",
"z  c #534244",
"x  c #5B4344",
"c  c #54454A",
"v  c #5B4649",
"b  c #544B4C",
"n  c #5A4B4C",
"m  c #594845",
"M  c #5B4C51",
"N  c #564950",
"B  c #5C5355",
"V  c #5B514D",
"C  c #624644",
"Z  c #634844",
"A  c #634B4C",
"S  c #6A4D4C",
"D  c #60454A",
"F  c #64524E",
"G  c #6C524C",
"H  c #6F5347",
"J  c #645453",
"K  c #6A5552",
"L  c #665C5A",
"P  c #6D5A5A",
"I  c #685956",
"U  c #735552",
"Y  c #7B5D57",
"T  c #725D5B",
"R  c #7B5E59",
"E  c #785955",
"W  c #6D5150",
"Q  c #7C625B",
"!  c #78655B",
"~  c #68605C",
"^  c #695E60",
"/  c #6C6462",
"(  c #686567",
")  c #736563",
"_  c #7D6C64",
"`  c #766C6A",
"'  c #786967",
"]  c #7B716D",
"[  c #7E7472",
"{  c #796F70",
"}  c #875E5E",
"|  c #82645D",
" . c #87675B",
".. c #87745D",
"X. c #846D64",
"o. c #8C6C64",
"O. c #896966",
"+. c #956D69",
"@. c #85736B",
"#. c #8B746B",
"$. c #8D7A6B",
"%. c #897664",
"&. c #94736C",
"*. c #957B6C",
"=. c #8B7B73",
"-. c #857977",
";. c #927E73",
":. c #967D76",
">. c #A27E74",
",. c #AC776F",
"<. c #95836A",
"1. c #9B8A6D",
"2. c #97856A",
"3. c #8C817B",
"4. c #89807B",
"5. c #958373",
"6. c #9D8C74",
"7. c #95847B",
"8. c #9B8579",
"9. c #9C8C7C",
"0. c #978778",
"q. c #9F907B",
"w. c #9F9073",
"e. c #A08D6F",
"r. c #A08F73",
"t. c #A18D7C",
"y. c #A8857A",
"u. c #B9887E",
"i. c #A39375",
"p. c #A4947B",
"a. c #A8977A",
"s. c #A7987A",
"d. c #AA9A7D",
"f. c #C1887D",
"g. c #8D8482",
"h. c #9B8C82",
"j. c #948985",
"k. c #9E9289",
"l. c #9C9493",
"z. c #A58D82",
"x. c #B68D82",
"c. c #A39483",
"v. c #A69983",
"b. c #AC9D82",
"n. c #A3948A",
"m. c #A9968A",
"M. c #A69A8B",
"N. c #AB9C8B",
"B. c #AC9385",
"V. c #B79887",
"C. c #AB9E93",
"Z. c #A59B96",
"A. c #B99C91",
"S. c #AFA083",
"D. c #AEA18D",
"F. c #B2A385",
"G. c #B4A58B",
"H. c #B6A98C",
"J. c #B8A98E",
"K. c #B9A78E",
"L. c #ADA293",
"P. c #ACA39C",
"I. c #A4A09D",
"U. c #B2A492",
"Y. c #B5AA93",
"T. c #BBAC93",
"R. c #B5AA9B",
"E. c #BBAE9B",
"W. c #B7A49A",
"Q. c #BDB196",
"!. c #BDB29B",
"~. c #ADA6A4",
"^. c #B4ACA2",
"/. c #B7ACA6",
"(. c #BDB2A3",
"). c #BDB3AA",
"_. c #B8B3AD",
"`. c #BDB6B2",
"'. c #A99FA0",
"]. c #C69889",
"[. c #D2988A",
"{. c #C9A695",
"}. c #D7A897",
"|. c #C0B197",
" X c #C2B49B",
".X c #C5B99E",
"XX c #C9B99E",
"oX c #CFA896",
"OX c #E8AC9C",
"+X c #C2B6A2",
"@X c #C4BAA4",
"#X c #CBBCA3",
"$X c #C4BBAB",
"%X c #C9BCAB",
"&X c #C3B6AD",
"*X c #DDB5A3",
"=X c #C4BCB4",
"-X c #CABEB4",
";X c #C7BDB8",
":X c #E7B8A6",
">X c #F2BEAD",
",X c #CBC1AC",
"<X c #C8C0AA",
"1X c #D3C4AD",
"2X c #D2C1A7",
"3X c #CCC4B3",
"4X c #CCC3BB",
"5X c #CBC5B7",
"6X c #D3C9B5",
"7X c #D3CCBC",
"8X c #DACCBB",
"9X c #D7C7B6",
"0X c #DAD0BD",
"qX c #D7D0BE",
"wX c #F2C1AC",
"eX c #F3CCB6",
"rX c #CAC8C4",
"tX c #D3CCC3",
"yX c #D7CDC4",
"uX c #D6D0C1",
"iX c #DAD3C3",
"pX c #DCD5CB",
"aX c #DEDACB",
"sX c #D7D2CB",
"dX c #DEDAD2",
"fX c #DBD7D4",
"gX c #E1DCCD",
"hX c #E5D5C6",
"jX c #E2DDD4",
"kX c #E2DEDA",
"lX c #F8DACC",
"zX c #E5E1D4",
"xX c #E6E3DB",
"cX c #E9E5DD",
"vX c #EBE9DD",
"bX c #E9E6E1",
"nX c #EDEBE4",
"mX c #EBEAE6",
"MX c #F1EEE9",
"NX c #F4F3ED",
"BX c #F9F8F4",
/* pixels */
"s 5 5 f 9 f f q s d d j d d d / &.E E | X.o.| U G E S A S S W J S K d 3 a a 3 s v n J P T ) X.' P M z v c c c n c n n N n M N M ",
"s 5 9 a a 9 f f f f f d c d d P o.Y Y Q X. .R S G K A S A A A v v A c 9 s j z n v n A v h v P J c h h c k g g d c k c c M M M M ",
"a 4 5 9 9 9 5 f f s 9 d d d f P &.R | | | R S A U d 9 f z A C v D v D v v v c d d n v z g x I v 9 d d d d c n n c c c c c M M M ",
"9 4 5 4 9 a 4 9 9 s 9 f f d f M o.R Q | | S D S d 4 4 4 4 g C g h v v h q 4 < ; 3 z d i d z J d -.~.{ z n M M M g d d d g d M M ",
"5 3 4 5 4 4 4 9 4 f f 9 f d f v o.Q R R E C A g 3 4 9 4 3 d h x h v g 9 - ; ; ; ; d g w w d g ) ;X=X/.) g d s d d d d d d k d c ",
"4 3 3 2 4 3 4 4 4 4 5 f f f f c o.R R ! S D A 9 4 9 , , : 4 x t x h , - < ; ; ; ; q w w w v J P.Z.{ j.g.c f f f s d d d N N s d ",
"3 3 3 3 3 2 2 4 9 4 4 9 9 f f d  .R Y R C D d 4 f 4 4 , , 3 9 h h q ; ; ; ; ; ; 9 d w 0 r b g.Z./ L g.l.B f f f k d d d d d f f ",
"3 1 3 3 3 3 , 3 , 4 4 9 4 f f q X.Q R E Z z , 9 , 3 , , 3 : q h t 9 ; < - ; - 3 w w d w j @.Z.] P / g.:.^ , f c s s a s s s s s ",
"1 1 : 1 1 1 3 > , 4 4 9 4 9 4 9 Y Q Y H x f 9 4 , , , , > < 9 h r d : - - - 3 9 0 0 q i I I.j.` L ` g.g.^ f c 9 a f a f f s s s ",
"- 1 - 1 : : : 3 , , 4 , 9 4 9 > T | U Z x 4 4 4 , , > : , < 6 h r r , - - 1 9 q 0 0 0 b P.I.-.` / [ 4.l.[ k , 4 9 a s s d d f s ",
"- : 1 - - : : : 3 , , 4 9 4 4 > P R G C d 4 4 2 , , > : : > r y g r 0 > 4 0 0 0 7 0 w g.rXP.[ ~ ` g.-.j.-.f , , f d f f 5 f s s ",
"= = - = - : 1 1 3 : : , , 4 4 2 I  .S x 9 2 9 4 3 > : > > : f y r 8 8 8 8 8 9 0 w 0 ` sX;X[ V B -.] [ g.[ j 4 d d 4 f 4 9 f f f ",
"& - & & - - : : : : > > 4 4 4 > I o.Z g 4 2 3 4 , , > , : : 0 r r 8 0 8 0 0 9 z m F `.~.( l 5 ( [ L [ g.` B l 9 , 5 4 4 4 f 9 9 ",
"& % ; 3 % & - - : : : > , 3 > : P | p 8 4 9 > , , > , : = 0 t r 0 0 8 w 0 t x z I Z.~.{ B ( B ( ~ ` -.[ ` b < > 9 f d f f f f f ",
"$ B 3X9X/.( ; % % : : : > > , > Q E t 0 4 > l s : > 9 5 6 r t h 8 8 y r x i i L [ 4.g.I._.l.l.g.-.g.g.[ n g g d d 9 9 9 9 f q 9 ",
"O @.lXeXeXlX;Xg.B & & : > > > : ) G t 0 2 2 2 b c 3 : j C y 6 8 S ) :.g.-.Z.I.~.~.`.sXkXbXfXdX;X`.).~.g.J U H q 6 9 9 9 9 0 9 q ",
"@ 5 :XwXwX>X:XtXrXZ.( : $ > 4 : A C t 0 2 2 2 9 j k q y C J g.Z._.fXrXkXbXNXBXBXBXBXNXNXBXMXmXbXzXsX;XZ.@.Q H e 9 q 0 9 9 0 w q ",
"$ O :.eXwX>X*X{.{.+X-X~.` 9 = : F C t 0 2 3 > > 4 s b ! @./.fXrXl.;XfXfXmXvXNXnXBXBXBXBXNXNXMXMXcXkXpX3XW.:.o.P l 0 0 9 9 w 0 g ",
"$ @ 3 *XwX>X:X*X{.T.W.E.;X_.n - F C t 0 2 q d j P -.g.Z.`.~.'.'.sXbXcXnXNXnXxXcXnXBXNXMXMXMXmXnXmXcXcXcXfXC.0.o.z 7 9 0 q q q r ",
"# #   X.>XOX:X:X*X{.{.G.h.C.).k.@.F u g q b ] $.h.k.Z.~.;XrX=XtXfXmXBXBXBXBXNXcXgXzXnXcXjXmXmXkXbXcXcXbXcXfX4Xh.n 7 6 9 0 9 0 0 ",
"+ % + $ }.OX:X:X*X}.oX{.U.k.$.3.Z.n.! F P I ! =.j.P._.).;X&XyXjXxXkXcXnXcXcXNXnXaX7XaXjXdXdXmXxXpXkXzXdXbXbXfX_.' 9 0 9 9 7 7 0 ",
"@ @ @ o P OX}.}.}.oXoXoXA.x.=.K V J ! I F ~ n g./.).;XtXrX^.4XtXsXuXqXaXzXpXzXvXgX6X1X6X7XiXdXzXpXsXfXyX7XsXzXkX_.' d 4 > 9 > 9 ",
"+ + @ @ O V.}.[.oX[.oX}.oX].y.#.G m b z i X.h.k.).&X-XtX-X^.&X-X@X$X$X%X7XiXyXgXgX6X.X!.@X%X=XtX7X-X=X/.).7XkXkXdXl.q > > > , 6 ",
"+ + @ @ o J }.[.oXf.f.{.{.V.x.:.| ~ V ! 4.3.h.P.&X4X=X;X-X+X/.%X=X(.(.R.!.,X3X3X3X3X%X@X,X%X+XE.^.^.k.@.Z.4XjXyXuX`.P 0 8 > > , ",
"+ + + # + O =.[.f.u.V.].{.V.B.y.*.X.$.7.N.n.M.P.(.%X5X5X-X9X&X&X%X(.Y.L.U.R.E.E.E.!.+X#X3XuX-XR.W.j.I 7.$X7XiXtXtXrXj.K Z r 7 2 ",
"# + + + + O & x.x.].x.V.V.x.z.y.5.:.8.h.n.N.M.U.R.U.R.+X+X+X+X+XR.E.U.c.N.U.L.A.U.G.R.E.@XyXpX7X;X_ n.%X7X7X7XiXsXtX^.=.H Z t t ",
"O + # O + O   b V.u.x.].u.y.u.y.y.c.m.c.N.R.R.U.R.(.E.+X/.E.E.E.R.W.T.C.m.N.N.G.U.U.G.W.@XyXcXkXpXn.W.&X3X7X7XqXuXtX`.=.t y y e ",
"+ O O @ o @ @ o X.u.,.u.x.y.2.y.m.A.N.v.v.N.L.E.+X+X+X(.+X XE.W.N.W.U.B.N.m.c.C.U.N.L.U.%XjXbXMXmX4XR.!.,XqXqX7X7X5X$X3.x 6 = = ",
"O o O O O O O O : z.x.x.z.>.y.y.c.z.c.m.C.N.G.R.|. XT.W.W.Y.N.c.8.5.@._ ! $.c.N.A.L.C.G.W.-XyXkXMXMXfX4X@X5X7X5X,X&XR.L.A = = : ",
"+ O o @ o @ O o   ! ].>.+.&.+.*.8.z.z.m.N.U.!. X XE.E.K.G.N.B.p.8.;.@.Q K u ! c.U.N.L.N.N.m./.-XsXmXmXxXpX6X6X<X).^.P.P.I 3 4 > ",
"O O O O O @ o @   T x.y.+. .} &.c.C.N.G.T. X#X@XXX X X|.K.T.K.U.Y.T.K.K.p.%.G _ N.D.U.U.N.N.m./.-XyXkXkXaXaX3X$X(.P.L.Z.` l q 2 ",
"O o o o o O O @   d A.x.,.o.}  .c.T.T. X#X.X@X X X X|.T.K.Y.K.K.J.H.J.G.G.m.5.! 0.M.U.U.N.N.m.n.m.C.=XpXsXaX3X).R.P.L.L.` 0 2 9 ",
"o + o o o + O O O + ' K.y.&. .o.S.Q..X|.|..XXX|.|.|.|.|.|.XX|.|.G.G.K.K.K.J.F.v.m.N.N.D.M.t.y.:.&.+.>.W.yXdX4X&X(.R.Z.k.J 3 2 = ",
"o o o o o o O O +   1 n.K.y.&.y.Q..X|.|.|..X.X.X|.|.|.|.|.d.|.d.K.J.K.T.K.K.G.F.G.Y.U.L.c.8.&.+.&.O.} +.;XsXtX5X&XI.M.c.I i r 0 ",
"+ o o o o o o O . + % l N.V.p.W.!. X.X|..X X XXX|.|.|.|.|.d.d.XXT.|.T.K.K.K.G.N.G.Y.W.D.h.8.+.U } +.} :.5XiX5X$X$X^.k.9._ u r u ",
"o o   o o o o o O O # 4 h. XU.E.Q.!. X|. X|.|. X|.|.|.|.XXXXXXXX|.T.T.K.T.T.G.G.D.U.L.L.5.Q U 8 S } +.l.(.5X`.`.(.M.9.h.%.p y u ",
"o o o o o o o o   O . * @.@XW.E.!.Q.!.|.XX|.|.|.|.|.|.|.|.|.d.XXT.T.T.Y.K.K.N.N.v.U.Y.U.N.c.;.@.E } } Z.~.&X5X_.^.L.h.q.=.H p p ",
"o o o o o   o o O O O . I %XT. X!. X|.Q.J.J.J.|.|.|.|.T.|.XXXXd.K.T.K.K.G.K.G.K.F.D.m.U.U.W.F.m.z.R E j.C.W.(.(.^.M.p.h.9.! m y ",
"o     o o o o o O O .   b tX X!.Q.Q. XQ.F.J.J.H.|.H.T.J.XXd.|.d.K.T.K.K.K.K.G.N.b.n.v.U.W.N.N.C.Z.7.R :.n.Z.P.P.I.q.0.9.9.%.u u ",
"o o o     o   o   O   . n &X#X|.Q.Q.Q.Q.|.|.|.|.|.|.J.H.d.|.d.|.K.K.K.T.K.F.N.G.D.U.m.9.9.9.N.M.:.=.' O.h.Z.P.P.Z.q.p.t.p.5.m e ",
"      o o   o   o . . o % k.1X|.|.Q.T.|.Q.Q.J.J.F.H.d.|.d.H.|.d.V.G.Y.T.K.K.T.K.N.h.5.8.c.m.v.9.7.@.T ! 4.0.M.L.c.p.k.q.p.0.F 7 ",
"    o     o o o o o o o = 7X8X X|. XQ.Q.Q.J.J.J.|.F.|.d.}.d.d.d.b.b.G.K.G.G.G.G.A.b.v.N.h.c.h.q.0.@.P ~ ' [ 0.k.c.p.q.p.9.5.G = ",
"  o       X       o . X q hX0X|.|.Q.Q.T.J.K.J.J.H.F.F.H.d.d.d.d.b.B.p.d.F.T.T.K.G.v.c.c.c.z.9.9.@.! ! @.7.h.D.k.p.p.c.q.p.0.F = ",
"        X o   o .     . / hX8X XQ.Q.T.J.J.J.J.H.F.H.d.d.d.d.d.d.a.d.p.p.N.G.G.N.D.G.D.m.c.5.=.@._ @.=.7.h.D.R.M.q.q.p.c.q.q.! 7 ",
"X X o o o   o X     . # [ lX9X+X|.J.J.|.J.J.H.F.F.F.F.d.d.S.s.s.p.p.a.b.t.p.N.G.U.F.b.c.9.$.X.X.;.7.9.z.k.D.P.M.q.q.q.q.q.5.F 7 ",
"X o X X X o   o . . . # ' -X1X X|.|.F.H.F.F.F.F.F.F.d.d.d.S.s.s.p.b.B.r.t.9.t.p.p.c.9.5.$.@.$.=.0.m.k.c.M.D.q.p.q.k.q.q.q.0.! i ",
"o X X o + . + @ - 1 . 1 J C.#X|.J.F.J.d.d.d.d.d.s.d.s.s.s.s.s.s.b.d.y.a.p.r.t.6.5.5.$.;.5.0.h.0.q.M.v.M.D.M.q.q.q.s.q.w.6.5.<.B ",
"#   o X % 5 - - q ~ B I ` n.#X|.K.F.F.d.d.d.d.d.s.s.s.s.s.s.s.s.a.e.a.a.6.6.6.$.5.;.<.;.5.9.0.6.c.M.c.v.D.v.k.v.s.k.q.6.0.5.1.5.",
"# * * * 1 ~ ) L -.h.G. XE.|.1XXXH.S.s.i.e.e.1.1.1.e.e.e.e.e.s.e.2.2.1.<.1.1.*.%.<.<...%.<.%.%.5.q.h.q.h.M.M.D.M.d.q.p.w.6.w.9.9.",
"* 5 V ~ ` W.@X(.%X6X1X1X1X1XXXXXQ.H.s.i.e.i.1.1.1.e.e.e.i.s.s.i.1.t.1.1.2.....<.%..._ _ ! ! ! %.5.0.9.v.N.L.D.D.D.v.p.p.q.q.q.q.",
"3.3.M.(.XX1X8X0X8X1X1X2XXXXXXXXXQ.H.H.S.s.i.e.i.e.s.s.s.s.s.i.s.s.d.d.d.d.i.6.t.1.1.6.2.<.<.<.<.6.q.p.D.Y.!.!.!.Y.Y.D.M.v.q.p.p.",
"6X6X7XqX0X0X9X6X1X2X2X#XXXXX X XQ.H.F.H.F.S.i.1.w.e.i.e.s.i.i.s.F.d.d.d.a.i.w.p.w.w.w.w.w.i.p.v.v.v.Y.Y.!.(.@X(.(.(.R.L.D.v.q.d.",
"hXiXhX0X8X6X6X1X2XXX.X.XXX|.|.|.Q.H.H.F.H.S.S.S.s.1.1.s.s.s.s.s.d.d.s.d.s.s.s.d.d.s.s.d.a.v.b.d.S.S.D.T.!.@X$X(.@X@X(.!.D.S.k.d.",
"iX0X0X9X9X1X,X1X<X#XXX.X X|.|.|.Q.H.H.H.S.S.S.H.S.s.s.s.i.e.s.s.d.F.s.S.S.F.S.F.F.G.b.b.S.b.b.V.D.U.T.Q.!..X#X#X(.(.@X(.!.L.D.S.",
"iXiX8X9X1X,X1X<X<X2X#XXX|.|.|. XQ.Q.H.H.H.S.H.S.F.S.S.S.s.s.s.s.d.s.s.d.d.S.d.s.6.2.i.s.b.d.S.G.F.G.G.F.H.Q.!.(.@X@X(.!.!.Y.L.D.",
"8XuXiX0X1X3X1X<X.X.XXXXX XJ.Y.|.Q.H.H.H.H.H.S.H.F.F.S.S.s.s.s.s.s.s.s.s.s.i.2.<.<.<.p.i.w.i.i.w.i.S.H.T.Q. X.X X@X@X(.@X!.R.L.D.",
"qX6XqXiXqX7X6X,X,X@X!.Q.!.Q.H.T.H.Y.H.H.H.H.S.S.F.F.D.S.S.d.S.s.s.s.s.s.s.s.d.d.F.S.d.s.d.F.S.S.S.F.H.H.Y.Q.Q.!.Y.!.!.@X!.!.Y.L.",
"qXqXqX6XqXiXqXqX7X,X<X.XQ.!.Q.Q.H.H.Y.H.H.Q.H.S.H.H.H.d.S.F.F.d.s.s.i.d.d.d.d.d.d.F.F.H.F.F.S.S.H.H.H.Y.Q..X!.!.!.@X!.!.!.!.!.Y.",
"vXzXaXiXiXqXqXqXqXqX6X<X<X!.Q.H.Y.!.Y.Y.Q.Q.H.H.H.H.H.S.F.H.H.d.s.s.d.s.d.d.i.s.d.F.F.d.F.S.v.b.F.S.d.S.H.Q.Q.Q.@X!..X@X@X!.!.Y.",
"zXzXvXzXzXaXaXqXiXiXqXiX6X<X@XQ.H.!.!.!.!..XQ.H.Y.!.H.H.H.d.F.d.s.d.d.d.d.d.d.d.s.i.i.s.S.d.S.H.Y.Y.H.H.!.<X<X<X<X<X@X!.@X(.!.R.",
"zXzXaXzXgXzXzXzXiXaXiXqXqX5X<X@X!.!.@X!.@X@XQ.!.Q.Y.Q.Q.Q.S.F.S.Q.d.d.d.d.d.d.d.w.S.H.J.T.!.!.!.!.H.H.D.D.Y.Y.Q.!..X@X@X!.!.(.!.",
"zXzXaXiXiXaXaXaXzXzXzXaXiXuX7X5X<X!.<X!.@X<X<X!.Q.Y.!.<X!.H.H.S.d.d.Q.d.d.d.d.d.F.H.H.Q.H.H.F.S.S.q.S.q.d.D.H.Y.H.Y.@X@X(.!.!.!.",
"vXvXzXqXqXiXiXqXiXaXgXgXaXaXiXaXqX<X<X5X@X<X5X<X<X<X<X!..X.X Xd.Q.d.d.d.d.d.d.d.S.S.F.S.F.H.Y.!.!.!.!.Y.D.Y.Q.Q.!.@X!.!.@X@X!.R.",
"vXvXvXzXaXaXiXqXiXiXaXgXaXaXaXgXaXqX7X7X<X5X7X7X5X<X@X@X#X<X#XH.Q.d.H.H.d.H.H.H.H.F.H.F.H.Y.!.@X!.!.!.!.D.D.!.@X!.<X<X@X!.!.@X(."
};
