/* XPM */
static char *Grass_01_128x1281739968833[] = {
/* columns rows colors chars-per-pixel */
"64 64 130 2 ",
"   c #1E8525ED0C29",
".  c #1CD42E680B0F",
"X  c #15C932660710",
"o  c #1E9C35070BB3",
"O  c #1E873E190C10",
"+  c #23A52DD80DE0",
"@  c #235E34940DF0",
"#  c #27C430A00F64",
"$  c #239E3B6E0E24",
"%  c #26A22E950FF6",
"&  c #2C932D431284",
"*  c #338C2D9A1542",
"=  c #38CE2BCA1774",
"-  c #3B2D2CFE18C6",
";  c #271B35CA1054",
":  c #2BB1348A1265",
">  c #25963C511057",
",  c #2BD93C1E12FA",
"<  c #2D893B8B17CC",
"1  c #32DC3399155F",
"2  c #3A7637A41702",
"3  c #32953BB515E3",
"4  c #3612343318C4",
"5  c #3BA933FF19A9",
"6  c #352B3CEC1889",
"7  c #3BB53C7B1AC0",
"8  c #42C72D791BA8",
"9  c #448D36071DA2",
"0  c #48DA344D1EE1",
"q  c #423D3BBF1D01",
"w  c #4D3937432065",
"e  c #44B33DDF203A",
"r  c #4C7C3C9E21BD",
"t  c #522B3D022395",
"y  c #1D6D42E80CA9",
"u  c #1CA14C360CC5",
"i  c #1E9D53A30E41",
"p  c #22A843BF0E85",
"a  c #290D409C0F8E",
"s  c #23134AD80E82",
"d  c #21D953F40EDB",
"f  c #25CC43A710E7",
"g  c #2BE443FD13B1",
"h  c #259C4BF01146",
"j  c #2BF74BF9147C",
"k  c #2E664D7B17E9",
"l  c #31B143FE1620",
"z  c #38FB42F116AF",
"x  c #31A24BF116B8",
"c  c #3508447E18F5",
"v  c #3B2944151B82",
"b  c #34314C441942",
"n  c #3AE24C041C4A",
"m  c #2540532C11CF",
"M  c #2C2353931539",
"N  c #25C25C191268",
"B  c #2C1D5B1E15BF",
"V  c #2EDB535C1822",
"C  c #2EC85C961834",
"Z  c #3106535B16EF",
"A  c #312E5BD1170A",
"S  c #33CA53EF19B1",
"D  c #3A7D53CC1D35",
"F  c #33DF5BBA1A90",
"G  c #3A465BFA1DFC",
"H  c #25A160501346",
"J  c #2B7D62881634",
"K  c #2BD0691B16BA",
"L  c #2E5C63B51895",
"P  c #2DF46A7818AE",
"I  c #303260BD1672",
"U  c #3413632D1B89",
"Y  c #394563A61E43",
"T  c #348C6B251C8B",
"R  c #39286AA11ED4",
"E  c #360872C11E46",
"W  c #3848725C1F4B",
"Q  c #364C784C1F86",
"!  c #3FAD41002151",
"~  c #3E3A4D4A202D",
"^  c #3DD85410204A",
"/  c #3DC05C6A20C7",
"(  c #3C94642420D3",
")  c #3C136BB22125",
"_  c #3C00737C21F2",
"`  c #3C7B7A89231D",
"'  c #41F6457B1E3F",
"]  c #41C14B8B1EC2",
"[  c #408D52781EF7",
"{  c #3FD958EC1EF5",
"}  c #437E4464210F",
"|  c #4DDB43FE23E3",
" . c #43C74BC720F6",
".. c #4BE24C23244E",
"X. c #518544362523",
"o. c #52FE4F1226D8",
"O. c #517A472B29FA",
"+. c #596649D1291A",
"@. c #43FB545521EB",
"#. c #4CB153D52533",
"$. c #42DE5BBC2277",
"%. c #4A425ACE25E9",
"&. c #4E9156B628D1",
"*. c #4CA45BE828BC",
"=. c #51015538253E",
"-. c #54CB574B2A60",
";. c #5E0450312CA4",
":. c #52335C8E2C19",
">. c #5EDF55F13016",
",. c #5BBE580832AF",
"<. c #421B63482395",
"1. c #4A03640F2657",
"2. c #42576B6A24F7",
"3. c #481B6E4C2767",
"4. c #450A652727BE",
"5. c #4B9E64782A16",
"6. c #47126BE02837",
"7. c #4B1068DE2A3E",
"8. c #531C6D4E2E44",
"9. c #4207738D255C",
"0. c #41827AF42620",
"q. c #47297364293C",
"w. c #4B0E755C2BA2",
"e. c #44417B1C283F",
"r. c #540A7DF330B8",
"t. c #630E6C623984",
"y. c #419583A72671",
"u. c #467283B229D2",
"i. c #4738899B2BA1",
"p. c #4F548E6D3149",
/* pixels */
"j l / [ g k L C x } , g U ` ( U A U Y ) l a D 9.J A R / ^ k g 3 D F C U F M G 2.` / F S h & b F T _ S B U V M , $ @ c %.M h f N ",
"j x G D c Z C A V n = z A T U F x S U Y M { ( Z B A C , v h k < / / j Z V F G D _ U 4.) M 6 / U U U U B Y A Z T G G Z n C h f S ",
"A F A G b M C B k b : M U S C C x b F I Y ( x h L g m g D S Z : V G g k B F S S F D n ( S k U F M U k A R T Z G F F Y F M j 3 V ",
"j Z N D S j C x g f k S U m N V A U A Y 9.S ] { T M U G ( ) n > k F x g M k S ( C , c  .V F C M M B Z F S D U Z g V V A U S S B ",
"1 x N A G j V D 3 s D ) U p m M d K B G M S c R V _ i.) U ( ^ 4.8.) V x A U R k M b v @.Z C B j p B x D x : c Z j l f u m U F C ",
"b F L C k x b j X $ x T Y j h s d B x M m U Z W _ 0.T Y ) _ q.U _ ` _ 2.R R A x D @.~ U B f g f $ j l ] D , g x M m > f p C L C ",
"S U U B U F G L p $ g A $.B A h m m g s C F Y R ( S j F C ` p./ z R T C _ G b A / ^ x Z Z p : & > y g ' G G S S M M A x V E T S ",
"j V U B U G $.R K J F B S H F A Z Z > , A Y U U Y x 3 A C _ w.q.( F W F T A A A Y g j m k $ & & $ o l n g <.%.x p p J E T T H j ",
"U S A ) ) _ R T N P U C B J B B m S 2 < j U F S M V g h Y <.Y U U U ) 9.Q I F Y b p M j g > 6 } # $ z X.} @.=.n > s F G T K K s ",
"B A G A 2.1.z M H K C Z N B g S o x  .3 S Y S j V V f C ( G k h F g ( ) W T R F S g k Z S F v #.X.z ] ;.#.b e c j A F F F m L m ",
"U ( S G 2.' v V d , k m m B h S g x b ; c b S x F g j F Y G g p A j M Y R R T C U g b 2.4.M 2 7 ' ] ] @.S x * 3 j m F T F G L J ",
"( G F F D S j M Z z x s d M j Z B x M g l j x n 6.k n b x Y x j T L h A I T R F A A R 9.F V O.| [ S  .%. .c , g S j Z U S G P F ",
"T F A ( C L U B 3 9 2 $ d H j 7 1 m j l 7 x A 6.$.V ( n x x l p M C h m T E M S M j ) _ $ $ &.+.' G [ G 6._ F b Z Z x U U P P U ",
"M f V G B ) F B L F j y d K m > : M H M G V F ) ^ k Z c M Z k j M k 6 x S N A G M s ( A u o ] G S M A F g 4.v 5 z g g C N T Q _ ",
": 1 j U T T H C A j s i M a $ @ h S V f B j / j g n ^ D a x k C j j Z Z , j B A A Z Y A m j S j Z h l Z / &.7 5 5 j S N s s E U ",
"; n U U ( T C j , b a i g : . 1 c M f : A k g % k ) ( ) U G S J V A , j $ A U B B A Y A k J h $ ; g ; j ( n 3 $./ T U A h h E M ",
"x G G S G x v S ; g B h $ b h b @.x f ; Z M $ 3 D / S A U T Y S V ) j 1 c k m j M p Z Z S N p @ : f > g F ( D <.4.( / j u k T N ",
"C C j S F c | ] $ p A l ' ^ U x 7 b > j b x h x F v ] G Z n ; f h ( Y 6 Z g ; S x $ g x k U s f ^ , > n F G z 3 c 6 c h y D B B ",
"B h > x k * @.D 7 l M > 3 n / D e @.b h 3 j m b j l { 1.%.[ x M g ( b F F v n U M 3 x Z M U _ 0.) V M g Z V x , l , g / A Z M m ",
"u > ; j j b ( / 5.c g l ; v v <.w.$.k k $ g G S $ b ..n 1 4 , p h G b n / S B T U U U Z V T _ S G / x g Z Z F b z n b ( @.A j s ",
"p f g S M A A n ..F Z g x n @.n n V V N V D S p g  .q g v ' c j M G D Z G b V n T E U U x A Y V S c D D F Y U l n <.2.6.5.Y M f ",
"h S F L L h Z v w ] G S n G S x h M F F L Z > p D ^ * g q q : l j D G D D S b h N E E Y S G j N 7 e n c F G l 4 $.1.R ) ( U U C ",
"T ( D j m m f z r 9 F G D n l v G / Y B B F m j : 1 = D q t @ , S D n g F p g p f U m A T k ; B S n c b $ S D ] D $.Y F M G / 2.",
"B u h > h B m h n 7 S 2.2.2.) D ( F g k j C N j 4 1 n g = - = l c c } @.Z s m g p C m j Y V f N j 1 7 S g 3 n D b R U / b b : > ",
"_ h m N J I G S G <.Y 2.q.^ 4.D Z k g j h s h m D ~ c c 0 t r 3 c l 2 n g p $ o O C M j G U F V m S  .9 b 6 $.( b U Y Z l G F G ",
"( G m m N C D G b F Z Y / / Y S F B g U L 4.q g h ( 2.@.} r ] z 3 + < b < g s O o k h h F F L L M j %.7 n v $.U Y R U F D R T G ",
"j B U V m h x n z j s G Y / j M k U _ ` T D v D ) ( 2. .] w 2 l $   p S j l 3 O o g g M V G P V h @ v $.z D  .S 9.y.R F b S x g ",
"g k 6 c D Z j 3 x n m j D G N f j ) L T L N T e._ B k / 4 8 2 g f m C $.j 6 0 l > 6 < L U S g k h o 2 &.n F v } G u.Y n C Z g + ",
"g f & c S j h , 1 x G g G F x C ) _ L S ( N G ) ( L S / 6 - } x m U $.7 ~ %.v ~ D 6 , B U C % L h h b ^ n x l } G F ) n j M > + ",
"S n : g Z s p : - j R F G z l U F J T $./ S D  ./ ( b F b ! v S  .@.( v 5 o.@.D ^ ~ S k F U < ( h k } $.Y F j j S g F G g V h h ",
"U k & 1 Z h p ; v G Y R D Z F Y A p > G ( c 3 6 V T ( C ( ~ h g ..^ f n 7 r #.Z c / ( Z B ) x ( B n %.4.9.R U U Y g x M k V B L ",
"f j < 3 p $ @ 3 3 G G A U h u V A k F S F / l < V C / / _ M h n ~ ^ > ] *.q 3 M 4 F _ T F Z M / f U Y n [ F j V ( A j g F g C k ",
"4 O f x , : z n F ) N T ` T h M s G G b l / D # g F D ( F M j T G $.G @.*.D D Y U h x n Y T C ) U _ Q S D S g U G j h m F ( S > ",
"n $ j g g ; 3 ] ' U U T U P U F U S # x b z S x j j S ) C S C F ~ @.n n v ( 4.n Z m , f k V U U S D , Z G V m V S p M b M S b S ",
"D Z b , g ; , v 4 S b C B F A j b Y j , x : v S M V G G U B m C v ^ / $.^ ) S 6 $ N m f g j S R F g & l / k U ) Y p f F G b 3 n ",
"j ( v 4 > M C z , ^ } z N V x s @ l { x l , @.D Y G / R _ S V L j / D b S 0.( j f N h j s c , R U C 6 v F ; b / V f g U b S n c ",
"& j c r v b M M + g O.9 p V B m M a S R U F ) <.F x A j F k b m Z _ D x P R <.R M f m m g S j ( G F D ^ G ( n n M @ $ M n b @.$.",
"%.j x  .@.v k M V j } 7 j p j V 3 $ p S S F U Y B C j f V * < S Y <.Y F L D D ) V $ J M M g x R G x V U / j ; 6 S # + g B x v $.",
"G S j D  .5 N L M h Z : g s g M b c M 4.Y ) G ) U N m h L g V Y U S G k B S G ^ S V E M > , j A U Z S S V g o 7 @.Z j x C v  ./ ",
"B ) V C D S B j m C A : d s S U M S Y Z G ) Z F D D V H ) ) Z k c S S F m S n b F Y N p g g j G U B L U U F F ^ 1.7.<.F m k F F ",
"C U M Y F m u f b / M B u j @.j O l $.S M T W U Y j h s A R n : z G D 2.j M Y S D U j j j x S { F B M S ) T h l n #.$.{ M Z n V ",
"( L Z V S y i h ) U h L s f f f c ; b k h N R U T N d m k G 2.F $.@.2.2.F Z G b F U h , @ g S G D V V b / T M l Z z ' D B M v $ ",
"9.) R Z U m j j ( c g M m h h  .v 6 v k p M M A S > m m A g ^ k Y e.( n F Z G Z B G M # : , G n z l , c c F M M F G c k M M g ; ",
"&.S _ G ) h 6 A 4.v x g g C g O.X.n n D m U j g R S b F J m G j U R G b b U U S Z Y Z l z F U v 3 b ^ ) c Z M h Z R M V k Z k x ",
"r 6 J ( / ; h / 4.@.F n @./ n w e g n C M [ @.g Y D l b Z Z S j A h S x Y D S z a U Y / x M Y ] c n @.( x Y G C G F C U A G Y Y ",
",.n B U D & n / D < g D n N / e 5 n F L l 3 Z k Y F < 3 g c U Y g g F S ( 4.S G S ( S b f > b S } @.$.g 3 n S x R F M k T A Z Y ",
"8.F m S c : l n ~ ; c } f h ( 4.^ ^ C U G x G ( G > < } ] n R A 3 G T S G C j j h F G A s 1 c c 4 S W m G G m g U R F U S B U U ",
"B m m ( D 1 c n F b l 7 k g k @.c F Y e.) ( 2.Y F n 1 6 >.1.G x Y F D ' ' l j a p x Z V M 6 6 c b Z S F [ G h S e.` U S > n F T ",
"m O f ) G c b G Y S g g D , f j V S S L F / F k V n ' c :.{ U h ) < q 2  .^ U Z , D M y $ F S n S M D G l Z j G R G V M V & l 2.",
"m h Z ) F > x S G 3 p A F m m F L / ) ( F ( n k g V / / D D 9.9.C n 6 7 4.S c z x Z h O j S j , 7 Y R T j Z G Y Y b l h O ; ! ^ ",
"$ M / ^ S x Z Z l g f n D j g f h k n ) <.8./ h x F B k A U 9.R / ( F V Z Z v n S M m b > s , v ] G G D j F I C S c F j > g < j ",
"x F <.n b n ^ 2 , x b q n Z ) U V > g / %.5.S S U A M V j A U <.^ V C V %./ %.n , g U ; 2 g m 6 2 z A T G Z a j M G D F C n : j ",
"M A ( v g n M Z I { l 4 v b U B ( V C b 6 $.6 D x M V M ; l R 2.V C V 6 >.6./ l : x g l e 6 f ; 3 v I I ) A o @ V ) ( ^ g g D ^ ",
"s Y D 6 l l p g g G G S x x S g Z ( ( F / F S F h a x $ f j R U m n g ; v c D G 6 F f 9 < ; O j ] D B B I I M 3 F U C b l F M ( ",
"F G l 6 , a 3 , * n ] l d V ' z Z x Z / / D F 1 , p z g m V Y T k , > c 5 e ~ D G j < 9 l m f k 2 : s B T U W U V f h C ^ ^ M f ",
"U S 7 5 : @ 3 , 5 - @.D A Z 6 1 S G k F / n g , x p z G S Z Y T g > ~ r t +.$.b Z @ < v  .m m M x , + s s U ` R M M S F g b M f ",
"F D ' 7 4 = r l , 5 x S F ' 3 j j F Z n G Z g f m x b b c 3 F k m F / 5 w } n : x g g z b f 6 b C m f f y T e.` C ) / g f M j $ ",
"n [ v : 0 v ] < $ | z V U D 2 , M / $.^ D b f > x l g S D 2 S k B P F n 1 b v : b D k ) G  .} *.*.) M N K U / U ) ( D b h j 3 , ",
"x n n : z ] #.: ; X.] J G F 1 , U ) 4.F F c @ j C V g = x a j b U F ) V k x S c D G ( ) ) $.c *.t.F j B N L T ) ) _ L F g , 6 k ",
"> v S & g v =.v b n v y j F 6 n L B ^ n / S > 1 x B g 1 7 Z M F C k ( M @ x , 5 c / U V C <.$.%.^ h J h M T T T ` ` J A V j j g ",
"g l S 3 ..#.1.@.c c g m b S / / T T ( z A F b ] n D <.D x U T L s h F h g g b #.@.F F n F _ q.( ( S L m h D G _ _ ` N N M M j $ ",
": G 3.@.8.1._ G ~ F ( U C C Y U ` ) D 1 / n S S ] F :.r.` ` _ N p f k k n v r D 2.g N Z ( / _ U h g ) C k U T G j C B F x V $ j ",
"] 6.=.-.~ S ( E F $.S C j S T b S V G n / S x Y ( 9.F V M U e.U m j B F / :.] D / C C ^ ( 6.) ( h g L L U ( D k g M k f G ( M M ",
"3 n @.*.j n C E ) 5.F F U V ) / V g F ( n S S G 9.0.C S ( C D v j N L F G ( j n F F Y ^ k b x ^ h J ) B T Y S g g f b g L N B V "
};
