/* XPM */
static char *Grass_23_128x1281739968834[] = {
/* columns rows colors chars-per-pixel */
"64 64 25 1 ",
"  c #3AE64FBE0B2D",
". c #366955870C0A",
"X c #39D755D60C36",
"o c #36AB5AB00CDF",
"O c #3AAA5C7E0D48",
"+ c #3D325E42104B",
"@ c #3C1D62620E3E",
"# c #3E59691D0F39",
"$ c #3E1C644410DB",
"% c #3F3D692C11E8",
"& c #408B5B820EF2",
"* c #425B5E0711D1",
"= c #406E63C70E99",
"- c #3FC868AF0EF2",
"; c #4421650F139D",
": c #485A65F81429",
"> c #45BF6B3F156E",
", c #49286D0B1631",
"< c #47116E9217C6",
"1 c #49AA6F2E17B9",
"2 c #46AD71001691",
"3 c #49D871971711",
"4 c #473B71B71801",
"5 c #4A6E73941842",
"6 c #4D9E7A101974",
/* pixels */
"#%OO@@oOoo@XO@OO$;>;;45::66;1:<>$ooXOOoooo@oo@#=;;:;:>5:>>>;<>>>",
"+O@#=OOOXXXOO@OO@>;:465::,::1>>$o%OOOO#oo@o@o@@==;>>,::>;>;:>>;>",
"#=oXX@X&@&O@XoOO>2*:>55<,,;,::><OOOOOX@O@@oOXoo=:;;26,>>5>;>>,;;",
"OXo@@@&XXOXXo.oO5,*>>>2><5>6:;>;=OXOO&XOO@#o.OO=;>565>:;:;:>>:,>",
";X@@OOoo@@OXX@@&>53>2:>;>,<5>:<$=OXO#OXoXoOoXOO+%>56:>5;,:5>55,2",
"OO@O@@o#@@@oo@OX$52>;;>>>64<>:;;&OO@@O&X&oO@oo@@$;,5:>>>,15,>>;%",
"O@#=##@O@=@oXOX@%:>>:3>>;:5:1;;+OOX=@-XOXoOOOoo@;;>>56>>,:5;>*;>",
"@OOXO@@XOOO@OOX@;>>>::>;>>1;>><$OoOO@@XXO@OO@OX@>23;>,><5>5>><;%",
"#oOOOOO@XX@@@O@@;365:,<:,;>:,5:O.o#@@@@@@O@#@OX@;>;>,:154;<,>1>$",
"@OOO@XOO O@ooo@#$:,;>:>5;,2:,,3;..O@oX@##OOO@OoO+5>>;*;,1>3>>;>>",
"@OOOOooOOO@o@XO#;>,>;>>,>:,:,:4%OoO-OOoO=@O@=###>>>;1:>>>>:>>54>",
"O@OO@@OOXO@@@OXO;>243;152,,3,,5%o@O&#@OO@@o@OOO;%>::15<6,>5::>>>",
".XOO.o@=OX@&@OO@%>>5116535,5523$X@OOOXoOX@OoXXXO>5>>;;;<5><;>5;>",
"oOoO@@=OOOXX=OO=;4>>1;<2,3,,>3;OO@OOOO@oOO@@Xo@&>4,655:;><><:5+@",
"OOOO@@@OOOXO#@OO<<;,5:>522,,>5>;@OOOOO@@oXoOO@=O%46555;::>:*>44$",
"=@@O@@o@OOoX=@@O$::;::323;,556>O@@O@@#O@O@o.Ooo-%465,5,6;5>;<44>",
"=@oo@oO@O@OXO@@@#35;;355:>51:1>$@@@X@@XOXo@oO.@;$>53>>,:>655156;",
"oo@@@@@@O@Ooo@@;;353>3;6>551>:;*@ooO@@@OO@O@@@o@>>>>:>353>><>11$",
"XXO@@O@@o@O@@@@=>;;>555>513:56:;O@@@@@@O#=Oo@oO%%>;<,:>>5:*;<;>*",
"OoO@Oo@@O@@@OX@@@;,>2>3:,4>,55,;o@@OX@Oo@@X.O.@@+;;55>4>>::>1>;;",
"oo@X@o.@OOOOo.==>>553;:>::;1>>*$=#@OoO@@OOoo@@o@*;>1:;;:>,>34>>>",
"@@@X@oX@OXX@o@O=;;,3253,;>;><5:+OOX@@@@#@@XXO@o;>;>:>>>55>:>55>>",
"X=OO&XXo@O=XX@OO%$,;:5>,;4;>565:O@@@@@@@&OOX@oOO;>>>65>,;33>>3>>",
"o@OO@oO@#OXX@OXX+;;>33>3>;>:5>;+@O@@@@OOO@-=Ooo@;<<15651;55,>>;2",
"@XOoO@@o#O@OoO&=:54>6:,:*;<<51;OoOo@@@@O@O#Oo@O#>,:45>>5553>1:;>",
"oXX@o@@@@@=OO@X@225>:1:*;51;;><>Oo@@@@o#=X@@o@O;211:<;:5,:;>3;%%",
"O@OoOOo@OX@Oooo@;5,::;:;41>;>1*%@@@oO@oOO@@@o.O@%<5;*>*5::;;;:>%",
"#@@@@@o@O@OXoOO@;5:>16:;1:65;>:$Oo@@OOOXO@XO@oo#;>>:;51135>>>,;%",
"@oO#@OO@OOX&O@@@%333,544;;55<,:%oo@@OO@oO@X.OXo$;*><;611;455,,>;",
"@OOO@O@@@OOXOOo-,;5,,,>55,,3,553@@@o@@Oo#O.O.OoO;;55555>::5,>,2;",
"ooO#XOO@@@@X@OO=,;23>>16,:55>53>@oOOO@OX@OO#OOo$>>>55<1;:>,,3>;%",
"OooOoo@o@ooo&OoO::>,3,:<:>2>;,,%#@OO@&=oX.=Oooo%%;;4:;5>>533532;",
"oOXXO@@@@oOoooOO;;>>>;><+>5>:1>%#Xo=XOOOXXOO=@O@&5535<>>::<1>4<;",
"=OO@=O@O@OOo@Oo@;;1><;;:;>;>55;%OXo@O@@@@O=o@O@OO5;>;,:5,;>:$>>%",
"Oo@@OoO.@#@@XO@@;>51;>5>:<>5<<<>OO@#O@X==@@oO@@O%:,,;:>>,<>:,142",
"O@X&o=@oo@O@XO@#%,:<;:<>;,:1>55>@X==@@@OOXo@@@X@;>:3<><,1:>155,%",
"OOoo@XOOO#O@o@@O;,>>,:;:;1:*3;5;@@OOOX@oOoo==@X-;,1>;>>55:::,,,*",
"&@=X@OO@==O@@ooOX:>,6:;>*>>15<5$@OO@Oo&XO#@OX@#XO:<;>1>4<>,3,1;;",
"@@OO@@O@XO=O@@O=%;1551;>;1:>;5>X@O@@OO&O--@o@#Oo$>>:<566>31>>>53",
"@OXo.@O@@OX=@OX@;51:15:;;6::>5:$@XOOOOO@OO.XXo.O+,>,<>56>,5<>>5>",
"&O@OO@oo@&O-@XX#;>>35,2:;,,::;1;= oo@X@@X .OXO@=@>,5>>>5;>5>>56:",
"%OooOOoOX&XO&XO@>>>>::2;>:,,:>:OXo..X@O=OOOOOOO-*,:>1>>11>,>,5>%",
"OOoOOO@@OOo.oOX#%45>:3>;>,,155>$o@OXX@OO@O@OOX@-;,;,,,151;<;>;;>",
"Oo@OOOOOO#@O@@@@+>55>>5><,:5:>>>XOO@XOOO@@@OOXO@>3;4;<>,,:,>:>;%",
"@@=@OXXXO@@oO@OO>1>,>>,;>;55<;;%=&=OoOO@O-@OO O-=,;%>5,<><>;33>>",
"-&XO#oo=O@@O.O@O;456>>4>3,555>;%&O@=OO@@O@oOOO@@;2>;,:1,<::>5652",
"@.oo#@XO@O@=Oo@O;255>:>;354:524>@OOXO@@#@OO@@O@O>>2>1,,:>4>:>$>%",
"oo@O@=XXXO@OOOOO,35>,;>:,55,;;;%@O@@oO-@#=@@@OO@;>2>5<:,,6>;;>>$",
"o.@OoOOOOO#..oX@;54>;;16;;114<>%@oX@@@@O@@@O@@@;2;>:353>,,6>>>5%",
"Oo@$OOOOOO@@oOO#>;>>>>15,1<>>;;;=@@=@@O@@OO@@@@o%>5>;,3,;,>>>>2@",
"@OOOX@O.O@OOo O@>:5><>1>164<>:<;@@=o@OOOoOo@o@@@O>;16:,=>2>31;;$",
"OOO#OOOOO@OoOOOO;,5:;>5,,;<561>+oO=X@OOXOoo@OOO++>:23;,:>2>:>;;>",
"oOO@OOOX#O@OOOoX=,;,:1<61;;<>55$OX@@XoX@OO@oOOOO:353,32;>5,;>5:;",
"%OOOOXOO@OOooOO$;35,5<5:;,4:;1>$#oOOoO@XOo#oOOO@$>,3555:;;*>154;",
"%OOO@OOOXOO@OO.+%>5,;;;:<;5,11*$OXOOX=@oOo@Xo#@#;,,53>5;;>:55;>%",
"=OO@OO@OOOooO@.O>>>341>>>:1:1>:%OXo.o@OXoOOOOOO#;2,,,,2;<:55<>>$",
"OO.XXO@OOOOoo@o&>>>>>4>51>5>2>;%+OoOoo@OO@@@OOOO;55>555:1455>;5$",
"Oo.oO#OOo.Oo.OOO>2>;>34>;>>>2;2>OO@X@oOOO@O#O@OO%;6>5>5:15314>>;",
";X.OOOOoOoOXOOX#>>:*,>3,<1>52>>2+O..@@OOO@@#@OOX;25,>>35>>4>>>>%",
"OO.OOOOO@o@O@@X@>>:*555,;<5<>5>;$OO@OO@O.@O@@@#.>5>>3,36>>>*;>>%",
"@XX=@oOOO@O@@OO%22;*2>5>15<>>>:$=XO&OOOOX@@@#X#;;>;;>;;355,>;><>",
"O&O-#oXOO@@+O@=O>>:>>>>;>>11>::;#oOoOOOoOO@@@oOO>%>2>>3,533;;>55",
"OoOOOXOO@$OoOoOX>>*;>4>31<;;52;;--O@oO@@o.X@OOO%>>>><5>34>5>>>45",
"X@oooOO@@OO.ooXO>4;;5>,644$<5>;,>=OOo@#Oo#OOXX.%%>,,>3>2>;5>>:4>"
};
