/* XPM */
static char *Grass_21_128x1281739968834[] = {
/* columns rows colors chars-per-pixel */
"64 64 52 1 ",
"  c #323E4D7D0D7E",
". c #347A54070E9E",
"X c #387B55830EF1",
"o c #356A5A000E35",
"O c #3A7B5CB20EAC",
"+ c #33D74E5213DF",
"@ c #35EF4F8E1811",
"# c #359355171400",
"$ c #391B566C14EB",
"% c #36975A7B1421",
"& c #3A7E5C5F14FA",
"* c #36B65585187F",
"= c #38EB562D1921",
"- c #373D5A5B1865",
"; c #3B0A5C521911",
": c #3CC661820E84",
"> c #3F6268A70F5B",
", c #379C614013E9",
"< c #3CAC628414E5",
"1 c #3E7B6A8D15C8",
"2 c #3D7662971916",
"3 c #3E56696B18CF",
"4 c #40BF5E8313FE",
"5 c #41245E981910",
"6 c #42E262AF0F53",
"7 c #463569BB0F50",
"8 c #4A416EFE0F65",
"9 c #424A64A314F0",
"0 c #495E66261580",
"q c #44566B00155C",
"w c #49E06CB3151B",
"e c #4293649C1958",
"r c #49F066C7191B",
"t c #44646ABC191A",
"y c #4A206C9E199B",
"u c #522E6C321710",
"i c #51E66F311925",
"p c #457372D31498",
"a c #4C5972BE1521",
"s c #4DC079901640",
"d c #465B714A1900",
"f c #4BB3726E194A",
"g c #4D0578DE197C",
"h c #51C774831595",
"j c #53AC7A4C15C7",
"k c #58EB7EBF1598",
"l c #525D75A61A6F",
"z c #580074691B50",
"x c #53D37AE319C3",
"c c #5AC47D111AA3",
"v c #577480811CDD",
"b c #5AAA83721B18",
/* pixels */
"&;$##%;2;yq%yaff<&%19$&&$#9$#$$&2=2tdf2,;&2,=2tte5w4549&%=;=*==2",
"fd9&&2;ttt90yfyf&&9&2$,:O&,;=$&;2=;2;&$&,&13$=2%;e00&%Oo,e=;=eyl",
"b3;e2t0t5=$txt2;;&1&%=$tqq;$%#<$,-;22=#-2-,-%=23;;ea6X#4;1,*=txb",
"l9&22e9e;<&wky22&%&4##;9&=*#%&e&%-##;2%;e,-**#,2;;&h8q0&&2$*-&ef",
"t9<&te$;%<1qjaq<w1O&&&$#&%&%&twt&##2;#%*2222=;%-;9<tast;%$#*22=2",
"<tft<ye5&9fq99<&<O&&&<% #%2,etqfw<tt;=,$222;e222;2<%21,1#%=#=;=,",
"9try<tefwtt9wtt&O:776:O1%#%-;<90wew5&qtylt=##2tq=g1,%%,%*,t2%=%#",
"$<ww5eewy0fyr0t&96aaa<<999&2tt&5y2;2qwwyle2%%%9t9e2%#%#+-5t-%*+*",
"&&<<&ack5992erj<&9:tht&1<;;&;,t;$%%,e09trw<&<%%;5=%oo##%;$32-;==",
",##&:qapw2&&&$49%,#%tt%&&,-$$et2=#%=eet45$&:%%%*###.oO&&,%pqey32",
"e&O9sq:OO#%<=$%&2%@*$2#t9999re3%;+,dgfut&$&99##O2,%o4O::1<,;tt2;",
"5&29q9$###&&5f0&2-+*=&,trw9t2&--%-;fxxl%%99Oq#+O99&Xww:oo&<ttt$*",
"=;2222&%$t9&tyeey2;,*edy&aq222-;*25wybc<&&O<9706p09:ow6&<<;5ef<%",
"2;32;-=1,e9&ee2=;322-,t2;==--%*%*=;&yll0,oOq7vhqj929.%<6e;5elt;=",
"-*%;-*;,$w<qe;;y2=<12t< -;-2;%$<<;<wh0wl92q078ufe&<9X#o9hyete;;;",
",-,2=%tt&<&fge;e;2,9p7&-;;2eyjp9ftyyj0&tt,,&&129;$<t###wwyt;2tt1",
"<22--2ta9wtwe<tf02&57%&00errubxqwhw4et2t22,etete&=yt<$4449;2t2tt",
"%$2-*%txyyt9tft<e%<p6<9&%yfyqwh7phhy&q2&2;2==rwettqp3&$O%2=ee=&&",
"#%,-%%&yf2eywxe$=&,q<9%&$3qwq4w49O4t4&&,#;;;2e;@;q9ttq6O&$;22=;2",
"--*#%%$yfe2tte;$2$&t&&$#2t=qq40O&X+5wpt#&;22e;5;&2<3f&.o##,$=9t$",
"t9&:<%&&qf$&;;=<&,&&$0;5te2efdqq0&&&ttq9&&tt$<&$qd3p>O .%%%$999q",
"f54O:<&,9<=%#%&&,&&tlelr50tedad9<95e<f9&9ttf20&&2t3<oo .&9%&tpqq",
"$$9892&1f&=;**-#%#23t;eyerf;599&2ttq2eq&O1qt;tt2;29<#&O&<92eeq<,",
"e$q0$<6<wq,t,=;###;2;yqeetf2$#&&$er2;1<9<912;$9&%%1&#%o%<=t2efe5",
"9te%#&O&&O#$#92##&29tf9eyqry4#t%%&<;y,#&91%&&%99O&t&5&o.%&9t;t;2",
"2e&#oo$OOO#*&ett2;29e5=rbaeqO#%%%2#%q2#;2&&$.#&t9990y<&:%;990&22",
"t,q%o&5%5&;=ee&&&<1Ote;eqd5<9&y;<,%$=;;tt9;;$%t2&<&9q;@$&&&606q&",
"2da2%&9#&#e;tre2&&969fyt2tq&&tlt3--#2ee9<&9;%#949<&&<2.#;=1p79O ",
",&1;2&06$<&222;==<,<etyy<dft;ttttw<&2tft=rqq&$#<yryete&<t&2<5%O ",
"%<%&%2&&%%=ty,,-#;=;;$9e<tyttty&5t<&2=t2;wyq&&%<wye;e2=&#&<$&O%o",
"1O&,,2.%O&<9t%&#-%%*;$<22=5ftqe&%&&&&9t;50&&=2<%q9$#;t&%<&w&2;$d",
"$1,%%O67q%2%##%*2%=2,te<,twat;02&904t5f;w0wq9p9$&$@*;t4&%##&$$*2",
"<1%o.4h4<<o%;%-%#-2---;2&thh$-9y&<2&55tewwt&95:<&<$=2=<&%,#&%#*=",
"9hhX#th4Oo&1e;2%*#,<2-*-$5pc5*tt5%$,;;<2q&X:s$>29<&1,-#$&<ee2,-2",
"tfa59$Oqo.%ft;22;#=%,;--;exrq,;$$,,1&&23&%O4wp<<9<%<;2%;eft=22;2",
"q9a9&w4&+.9f9;2=2;2t322;ett;eee%$&,2;;;=<%&#%$32tt%%#;-#$=<e,t33",
"t96O#&&-..O4&222t2yt222;;e2-;*<%%<2$2;#;2%.##$2e;;,=te2%&1q:&&O&",
"wjq<%-=%#+#ye-*;;;;**2;;e2;;=$=##2q$$t=tt# +#2;;$;;&t$$%1vpaq<:&",
"pv&%-2e=#*&w2%%%#**;-;;1e2222;%<&<&et<&%-$9&,3t$=t21;=*$<qqh6qwq",
"pq%;2;2=*#<9&%#%%--*-;2ty2t222=2,,29q<$$=&$=;9e;&2&O;;*$%779tqjj",
"%$;2&*--=;,-*%#%###*=;&tt<22-ef2e2w5%*,;%,*+&e&%#&<9==-,<474<:t9",
"9<,;*#---2<=;;#,,#o%==;tt9t<=;=$e<&$-#2-+###5&<<9q%%;=-<4q9$O#9t",
"&=;%2;-;==#$-2%%%,92,%tt1&;&,&#%;&&%%%=e=&###&&:6a1#;%*29&t;935t",
"9t=&2;***=*=#o%%%29&=;&%q&5&$,%%&,&%#%2;&=&#%:q77q&29==;;;&$=qq9",
"5ee&2952=;==&&#&&9&#-2&<::%&<=%%%tqO##-2;#%#oOq7qqt#9<&;t22$&etw",
"5&&9ta9te&99u0&%&t;%#,<:O67&&$#o&90pq#=;##%-O#X9<twqq<<,tt9e;et5",
"1&9&9qqty;49qwqX<q&.o%qq<OX#O<%#$tq96<;$#%,=%O<&&0fqyetexczftee9",
"95<&:7%=t5&qw9aattq%,#q89,rq8p&Oaf<&#$e&2t;$<1::99%&&&t0rxiye;fa",
"==e5%%#*&52tq4wwt;,2,;=9s2yuiwhwht%,$$q&9<,$<19#9<o%<&9qaa9&=;tt",
"*&&0<#&;=;-2:wfr23&,%&$9ate05wjupt,:o6OX%%$&6:wtfqp3<&#9tf11;22;",
"=t2$##,$==#o&5t=;;==,29wtfe09<9yj&&::<O4#%%$&&r5t3&27Oowt99<;%%*",
"%2<<&=22;2,#&e;e222;2qpqfbyyte1pwe&#o%#$##;;&9tt9,<9uw&t9o:#*=--",
";-&%%=<:&9#.O9et22&5tqg2wetey&&9&ft=+.#$#;;=;&22<,%1q92%%###*<yt",
",%-##29O$#O..&=-;f22;tjft9e2te9,=;e=9#$$#&e;2--2,&<q<%tw:&$<tq99",
"2&$%&#.#%###&t992qt22yqpwit$2te2-%-;q<&=*ee;;=*&&0&q;;eyq&2yjwtq",
"o%&22#.o..#X#9tdte2;$22dfyt&-=;e2;=-&%2<efyy;,%9ett<qey5t9&yfqt$",
"O&&&*#####%Oo%022tq9#,2;;&==;=;;%-==-+#q9t<t99#&tt2,2effwr0&uw$#",
"<%,<####$#:&%&<22%$<9;;3ee%=;;;;;#<&223t<t$$<g0<22222ey2$50q8O,1",
"$&&3%#&&&#<94#%X&;%&&#*2t9*;2e&-$,&++&hxlyt2;22%$<22332;*&<9o,%%",
"+%%32ett&=,$$&<o3q&&&-=;t;tw<t;&&&=$00yzcvxe;%=*=2-;3de32&:O.&&$",
"%%#&$2&q;-5;;;9<&<1,$&&;qttq61&&<X&<0ryyfgxe22;%%%,;2;ty<##%O&;<",
"##&&#<w9te,;=;2t12&,&<$&&<94q&#<e9349rte2tfy;22#%%%22,2;5*$%&$,%",
"+&<<#&t;t5=*;f52,--$9&%##Owq,,%%;<;tww0&$;tyq222%#%3;2;=e=#%-;%:",
"@,&.#-;*;;%%2t=%%&=$1$#:<,ap=$<&eetqwkw9<-;5t2$&%&&222222;*=*%&,"
};
