/* XPM */
static char *Grass_07_128x1281739968833[] = {
/* columns rows colors chars-per-pixel */
"64 64 188 2 ",
"   c #1DA02B100B6B",
".  c #1F222FED0CA9",
"X  c #22CB2D0E0DFB",
"o  c #249D34B80E75",
"O  c #288F35920F17",
"+  c #2641392F0EDE",
"@  c #291B3B570F0A",
"#  c #257124081095",
"$  c #2D9D25D1147B",
"%  c #26112D211119",
"&  c #2C7E2C201409",
"*  c #2E362C4418C1",
"=  c #31022C531611",
"-  c #34392CBE1887",
";  c #39EB2E671A9C",
":  c #2638347910BB",
">  c #2B9A344C12FA",
",  c #26E539A31039",
"<  c #2B693C5911DE",
"1  c #2E4A35061A93",
"2  c #2E0F3CE01987",
"3  c #327C340715D5",
"4  c #391935941742",
"5  c #329B3C29154B",
"6  c #38983B9D16E8",
"7  c #343F33E6190A",
"8  c #3A2533DF1AF4",
"9  c #340A3BE21988",
"0  c #3A763C631B2C",
"q  c #357B2F7B21F6",
"w  c #364F35832210",
"e  c #3A5A33DF2297",
"r  c #34153E112092",
"t  c #3A343D9E23C9",
"y  c #407334261C6B",
"u  c #41F33B181CEB",
"i  c #425F3DDD2D43",
"p  c #2C5A41330F2C",
"a  c #2D7B426511F4",
"s  c #2F9247F71289",
"d  c #2F9C413419AD",
"f  c #324644641420",
"g  c #392044781652",
"h  c #33EB4A5F1410",
"j  c #395B4CDD15A6",
"k  c #3467439C1A61",
"l  c #3AAF43DD1A95",
"z  c #368F4A6319C3",
"x  c #3AF44B241B42",
"c  c #36FD50E31566",
"v  c #3A9F52C415F4",
"b  c #3DD059741714",
"n  c #36E04FE81A2C",
"m  c #3C44526219BE",
"M  c #3E8F5948184B",
"N  c #368443BF213D",
"B  c #3AD244C3230B",
"V  c #36B449651FE8",
"C  c #3C0C4B3822F4",
"Z  c #3D17434A2A98",
"A  c #3EDE4AD22A95",
"S  c #3E0E51DE229B",
"D  c #3F91585120AB",
"F  c #40CD42241C0D",
"G  c #40BC4BF01BF4",
"H  c #422D56E616DA",
"J  c #413A538D1D68",
"K  c #420A5ABA1AAB",
"L  c #49975A2D1BB6",
"P  c #4AC365E11BA5",
"I  c #42994412213C",
"U  c #41544C4C260A",
"Y  c #466845DB2E9E",
"T  c #484D43A32DBB",
"R  c #429D4C882B73",
"E  c #4A454A3A2DE8",
"W  c #416C5290242F",
"Q  c #454158EA2586",
"!  c #48855C7B2496",
"~  c #43C252CB2BB2",
"^  c #498D55D72E1E",
"/  c #45C859292B31",
"(  c #4A0F5AF22D1C",
")  c #4A1A46B3337C",
"_  c #440E4C543220",
"`  c #4AE34CFC3495",
"'  c #49D9452E380A",
"]  c #4D124D89397D",
"[  c #51474DCA3E55",
"{  c #465751AE331D",
"}  c #4A7D54AC34FC",
"|  c #4CEF5BC3355D",
" . c #4D6D543B39D2",
".. c #4E3359833ADF",
"X. c #507F5D95342E",
"o. c #527854583D54",
"O. c #520A5C063B94",
"+. c #4A76601728F8",
"@. c #5216695D2A2E",
"#. c #4D2260873164",
"$. c #5439633D377A",
"%. c #53A9629B3C66",
"&. c #59456C6737C0",
"*. c #539E542C42AE",
"=. c #54805B6D4357",
"-. c #59A95C1B4553",
";. c #5680592248A0",
":. c #5C015BC74C72",
">. c #5FA95CE951CE",
",. c #64695EC05609",
"<. c #66465F865874",
"1. c #5622624D426C",
"2. c #5A3A63C745BB",
"3. c #5D696C4543CD",
"4. c #574F6086494A",
"5. c #5D1163934C0E",
"6. c #5EEC69364AD9",
"7. c #5C4C73CD427D",
"8. c #608A652F4ED2",
"9. c #621A6C8B4D56",
"0. c #675C72904A6D",
"q. c #635D64C352E8",
"w. c #642B6B585317",
"e. c #68C96B0656A9",
"r. c #667463EC59B9",
"t. c #69E5653A5C41",
"y. c #67336D1759E2",
"u. c #6B606B945CC4",
"i. c #6944713E553B",
"p. c #6C5D7802547E",
"a. c #6D9A73385D4F",
"s. c #73B5785E5FB6",
"d. c #6C6A675B6031",
"f. c #6E1B6C1D613C",
"g. c #71FD6DFA6634",
"h. c #73826EE96914",
"j. c #6ED1723E6195",
"k. c #7315738964E6",
"l. c #749D7AC7640A",
"z. c #765773C06A8B",
"x. c #796B758A6C30",
"c. c #771B79FA69E0",
"v. c #7A237BAC6CBC",
"b. c #7B50776C70BD",
"n. c #7DF87BBA72D1",
"m. c #80D47E37760D",
"M. c #82997EA37916",
"N. c #768C83FF60E4",
"B. c #7818846A6640",
"V. c #7C9682886CD0",
"C. c #7EA681C17273",
"Z. c #8319842A7639",
"A. c #85398AA57630",
"S. c #851883697AC4",
"D. c #8953858D7E9D",
"F. c #870D896A7995",
"G. c #8A7D8BA27EC0",
"H. c #8C74919C7C78",
"J. c #8B28871B81D0",
"K. c #8C668AD882C7",
"L. c #8FB58BDD8822",
"P. c #909E8E6E868F",
"I. c #92608EE789AB",
"U. c #8F0092E68319",
"Y. c #91BA927485B8",
"T. c #94C29BFC83C4",
"R. c #951F933A8C41",
"E. c #982094EA8EC8",
"W. c #970D99D68C2A",
"Q. c #9A839AFF8F5A",
"!. c #97EF9548902D",
"~. c #99EB969A9203",
"^. c #9D139B3D94A7",
"/. c #9F6B9C8A9834",
"(. c #A0ED9E43999A",
"). c #A039A62A93F1",
"_. c #A4C8A2FC9CAB",
"`. c #A6FEAABB9A73",
"'. c #A775A55FA09B",
"]. c #A8EDA6C9A21B",
"[. c #ACC2AB80A534",
"{. c #AF0BACF7A8D4",
"}. c #B06EAE3AA9D7",
"|. c #B07FB0F2A7D7",
" X c #B4BCB2A9AE9C",
".X c #B72BB5C9B0E4",
"XX c #B8A0B6B9B2D0",
"oX c #BB41B942B575",
/* pixels */
"S.k. .> 7 > < N n./ f f < a f f V 8././.x.1 8.J.I._.} & :./.I.4.M b a a x c @ : < o & & X X : 2 f < a c f @ f < > 7 < a f s a W ",
"} R B $ * 9 9 r =.d g m z A k z Z.J.~.'.m.o.e <.t.z.E O Y K.y.k a a a > g f a a o O = & = & # % < < h f @ o j < : < a @ a f j j ",
"a h 6 7 * 5 > t A < j / -.z.} C x.R.K._.~.x.i q q * 4 > 1 Z d + : < < > g h p a < & 8 = - - # # < < d a a f j g n m a + a h p + ",
"a h 5 3 > < f z d : h z z ~ k k :.J.!.].[.k.4 - = = 3 4 3 : o o k l.8., a f < > 3 = ; * = $ * > < < 2 < a f h c n , a @ c h a f ",
"h f 0 l G z z a.%.o < a < a < x q.K.].].Y.^ C } 7 7 8 0 6 3 % o N z.R.y.2 , a > 8 3 3 9 9 < z 5 g a , < a s < f h f @ @ h h c c ",
"z z 0 0 K h A K.v.f + f a < X < A n.!.R.$.h l E t l l x x 7 = 5 6 T n.(.a.f h f 0 > > > k < 3 3 f f o o a f < a s s 5 @ s c s v ",
"l J x 7 k h A K.R.| p c f f o X < ~ L.B.m c m m j f 5 j L g g g l g V :.S.~ f h f g G 0 5 5 5 g h < < f < 5 < < p a g a a f h v ",
"& < 5 7 9 a S F.'.G.f s @ @ d N < a B z c j n c h a f h K H m 5 < f f a B N @ < < l G l l f < f 3 : < + < < > < s f a @ f @ @ < ",
"> > 1 > , p k k.z.j.W a a p C v.V a , @ a a a b j @ f h h h j < < g : o @ < 6 5 f g x g ! x < 6 = 7 g O O f 5 p h v h @ f O O 3 ",
"g : : : : : , < < < d f @ a k =.A a a + + + + f h < + f h f c < > g < 5 f < 6 3 g h < ~ T.0.< g 3 > 6 3 @ < f c f a s @ f 5 5 5 ",
"3 k 2 < : : a , , < S } ..z o o s p o o , o + p @ < < b h h b f 5 g > : f a f f g h a Z m.A.! m f g 0 1 3 < n h p @ 5 5 & 0 H H ",
"4 5 : a , < h { 5.5.k.U.K.G.-.z a , , a < a < < < < : p p a h j j a a O p c f h f a p f J ~ B F G x 0 7 k x z f G 4 6 3 = - 0 5 ",
"9 3 : f h a V C.]./.f.D.^.^.P.A.1.f c n f p a O o o @ @ @ h h c j a f k d c a a < g h c j f g F G x f 5 < f a f g 4 7 7 3 - 8 3 ",
"9 k 5 a < s a C u.~.L.~.R.R.P.M.K.9.h m W @ h f f o @ h p o p f g z l a.V.a.N.#.f j j h x a.p.m G h a f f h m b h g 5 < f l 0 4 ",
"h f < < a h + o 2 -.d.g.t.z.Z.R.R.-.j m | x 5 f g a @ < h @ s f f f x *.n.t.b.1.z j @ j x u.w.a h h h h a h a a a d f 2 f z k m ",
"h f > > { l.=.2 < a  .g.J.n.z.L.8.l l g J j 3 > 3 3 f a j h c j f d f > >.,.;.a.a.f p h z f...a < < a h s h f a a a f f z z f x ",
"z a a a } R.!.c.6./ k  .K.K.*.r k | ^ g z c < 5 g 9 < , f m f h j f f f N  .z U %.z p h k w.W p @ @ h h a h c a f p f 5 a 2 f h ",
"D =.v.6.z n./.h.M.`.N.( R ..R ` 8.R.l.h f a h 5 6 d , , a j > f H @ < < 5 f f a c f f h k W k p h h < W 2.C @ p a f 5 < o : a < ",
"W.^.S.C.S f./._.x.~./.k.C Z.).S.g.K.e.~ ^ c c a < 2 a < : k : : g < @ O > % 5 a a @ g h h h @ a C  .c.R.(.k.2 N 9 5 5 O : < A 9.",
" X X/.M.A *.n.^.I.x.~.=.z R.[._.G.k./ R 6.W c h s a s j > 3 : O < < 5 < @ 3 & > @ g 6 3 g W f | n.K.^.^.}.S.4._.R.e.o.k o { z.m.",
"~._.U.6.C n A :.n.z.:.x z k.!.K... .%.f g x a : a a f g 3 & > 5 g f a 6 g 5 8 7 6 0 ; 8 g f 6 Q e.S.K.[.oXw. .J.C.=.A k -.{ :.r.",
"] Z V n , . p a z ( k a g j.u.^ i.n.S.N < a a . a h a < > > > 5 h h f < m 3 u l 4 = ; 3 9 < 3 f k 1.:.>.g. .: > , o d q.n.` - t ",
"2 , , a , , p o + @ o c j Z R i.Q.E.K.i.< h h + a a a , < d 5 f a c s a < x g 0 8 8 7 : < 5 4 3 < : : > > 3 X o , , } !.J.r.1 < ",
"< , a , . , a a a a a j f k W.[.R.W.S.n.k < h h f a + , < f l h a h c a d g 9 7 8 7 9 : o f 3 & 9 d < < 9 & & < a %.K.~.{.~.A : ",
"a a c < o @ o < + < h h a k R.[._.^.C.R.*.  , a a , + , b g G x s a s a h h < 7 8 0 9 3 < f 3 3 9 d a a g f < < 1.R.K.x.z.:.d s ",
"a s f < d a < k r V k , < f q.R._.].R.^.K.k p , , a , p h 6 9 2 < a a a d a 2 & - = t k 2 5 > 4 } 1.7.D z | %.C a.S.e.~ , o , s ",
"h h h <  .v.r.q.6.A a o a : [ m.S._.[. X^.| s @ z h s a a 5 1 : , d a p a a < f 1 & 7 0 > 6 8 ) Z.^.W...-.b.n.u.} ( D a 2 d , , ",
"+ f 6 3 w q...S h , , : g 3 i f.d.L.L.C.{ f @ s f a p p : a , : s s , , < h h c g f 3 ; 4 > w u.P.Q.~.;.K.R.K.Z.%.l.n.c.C.6., , ",
", < 5 3 k 0 5 @ , a a < z > ) D.x.f.k.R h f h 5 f a p a a < < 3 f a < a p a c x 6 > u y 0 k 9 r.^.R.Q.w.k.K.n.K.%.!._.J.S.x.< p ",
": > 2 a a a : o a s h z g x t K.^.t.E O @ f z a < a a a a a o 9 2 , @ @ @ @ h G l 9 4 7 7 < < B g.m.-.C x C #.} A L.{./.R.^.A , ",
", < a o < @ < a a a c +.x j < *.e.B 5 < | j.R d , , , , , < < : f < + a p a @ g 0 G l 7 - 7 > % r | 6.Z.{ a c a z r.R.].XX].8.. ",
"d @ a < @ < a s a s / C.3.h a 9 x 5 x 6.S.Z.9 , a , h a : 1 l k z , @ f @ f h 6 6 0 6 5 3 9 l >   l K.^.| a a h s S j.L.XX{.j.< ",
"@ f @ o o p p h a h x O.^ h g g l 6 N  .t.6.< a ,   @ f 3 3 5 2 h , @ @ o + a a 3 x z g < k g 6 & 7 ;.` a c s , a s V j.'.n.V s ",
"X f g O   @ + + @ a j j h f < h M z k a D S a j B o o f g 4 3 < < < @ f p @ < < < a a < < f H g 6 & 9 : : , d d , s a d N 2 + d ",
"X 3 5 & o X + + o p s h h f f h a f f j j @ @ C c.} f 2 h < > > a 5 f h a s < @ > < @ @ < a < : < > l < < _ Z.Z.| s a . O @ + a ",
"3 = > 4 5 X o f a a f a @ p h p h f k f V ~ z f 4.y.l 0 < 5 = % > > f h h h < a @ < < 5 < 5 > 5 < % < R j.n._._.=.s s . o < > - ",
"& & - 7 & & : & < < f 5 : a h f a h h h 8.J.=.5 l ` Z g 3 = 8 $ & @ s j h h j p @ O % < f 3 3 6 5 0 i.(.`.b.J.U.k o < o o 3 & & ",
"3 7 7 = - 7 & # & > @ 6 3 < < @ p j C g W v.S.U 3 > k 5 3 8 - & % O s j c h s f < f > < j 5 f z < _ P.E.(.I.z._ o X X > 5 3 7 0 ",
"* 1 7 - & & & = 7 # & 3 4 5 a a h v / -.f | m.x.8 4 6 6 8 8 7 9 > % @ g a 5 f h j m f f g g l F 4 *.h.J.J.M.*.< : X & = 8 7 - l ",
"1 2 0 = 7 7 & 3 l $ $ > 5 f f c H v h ` :.U O.k.O.x J m x C l 4 $ # O g O @ f f f H g g G u 6 0 - v.(.P.R.c.B 5 < > 7 - 8 e 7 2 ",
"< 4 9 7 8 - 7 ; 4 3 $ > : f j v v h h x -.N 2 V V x m M M K g 8 7 = - 3 @ < 5 h 5 c g 5 3 0 g g 0 *.^.^.S...k f f 3 k 6 8 9 k d ",
"d 7 - 8 8 & = - 3 l 8 9 : < h j h f p p z a V _ < a h h h x F G k 3 - $ > f @ < a j h a 3 5 4 5 5 k a.K.9.m m 5 6 g < : g d a a ",
"2 8 ; 8 i 5 7 8 6 < > 3 > < < O a f @ @ f j 8.2.a a , a a h g g f 3 & = 3 f j h f h h a @ > 3 3 d a ~ k.C j v j z g 5 a h c a a ",
"< 1 7 7 u 4 u I 5 2 9 k < > X o @ f s j h / K.%.p a o , < h j M f h 3 7 & = g h a U $.1.9.w.9.X.z h a k : a a < 6 6 3 d s a a , ",
"s d d 2 a 3 7 u u > g j a 5 O o @ > < h f w.R./ , 2 d s a a h G h z g 4 # & 3 < f 8.Z.K.E.m.g.m.V < a h @ a a a < f 5 < < a a a ",
"a s s a s f 0 l 8 8 8 u 3 @ s p O & > f k n.K.z A z.{ < a h H j j l 6 4 = 3 2 g x x B V A Z U ` I f f a h j h b f , , : < h s s ",
"a h a @ + < z x l I 0 = & > f 5 > = & > -._.n.R c.R.2.p h v P H g 6 = 3 2 2 f g 5 > : O O f h g 6 I x a h h f c < , a a < , , : ",
"> , a a + a d z h x G u 8 $ = 4 3 $ > 5 ] m.x.S.J.J.| c h p x g 6 4 3 8 < : a f 5 < 2 6 4 & f g < R l.C < a a a : < < 2 < : : > ",
"# > 2 < , f a + < h K l - ; ; 8 F 7 > h W 5.z.f.S.x.V c s h f 9 k l > 3 k , a f 2 k 5 g 7 & d m h C -.S A d @ o o , , , a a 2 > ",
"> 2 : O o a o a : < x x r - 8 C G x 9 d m } f.8.V.C.z s h b h f h c z z z < a d : f 9 4 9 k x M b j z R K.v.N o < , + a < s k 0 ",
"> : : < a a a p < o < g z k x h h f < < f a 5.f.$...d j h < f h h h a k f , < f 2 f > 9 z h f h p f < Y S.K.D.5., < , s , a a z ",
"< o o : a @ < 5 o d c a < f f h f < : p j a D z.6.h c h < + a p , ( 1.h h a < < a f , k f a h h p f a x v.E.!./.c.C @ a f j d : ",
"< + o X @ @ O : . d c f : , a a h c f h h @ p ..k.m h h 5 s h x 4.C.q.s h a a < a a h h a h h a < h p s 8.J.M.I.].L.=.d o , : < ",
"j 5 & & < h < a a a a @ + , , a a h s p c s a h  .x f s f h | ).{.u.C p h a a h a a s a s j f j f j @ O } S.I._.[.{._.v.~ < : : ",
"o.7 = & < : f h a p + o a h o < < < f C h p h G 4 3 3 f p C q.R.l.z a a j a a h a a a @ a a c v h h v g U n.J.(..X(._.^.Q.2.k ` ",
"Z < > & < O d + a a p f j a @ < a f l 5.9.D 5 g 5 & & ( &.h G U z j a : h a a , < a s a @ @ h f s h h h g k.b.q.k.y.5. .` R 9 t ",
"< p 2 g < < @ s s a a h c h p + . a c C f.F.| g x B > e.[.H.9.3 h / =.l g a a a a s p < , , a @ a + p s < 0 U l z x j a h j h f ",
"o 5 < < @ O < f h a p h h v a + , , f a U e...z l.Y.~ *.F.^.Z.l + z m f 5 < , h c s s h < s f < a , @ a a @ 5 5 a a @ d b h f z ",
"a g : < O % 5 p a @ + @ s a a p a h a s f k < k t.D.s.q.` i y 5 X O f f f p h a c a h d f < g h a @ s a a + 5 > < p z A h c h m ",
"s d o < 5 o < @ @ + + + s < a s s s s a a , : d g U :.c.s.-.T y & < < a b a h a h h f s f < h a a a a s a < < < 2 @ N k , p a Q ",
"k I N < : : o @ , C S , @ a j a , a p a a p a < C q.;.r.(._.Y.:.3 @ @ s f 5 p @ s s a a p a s , p p , p h a k A C k , < 2 A y.Z.",
"V *.v.V.3.z <   a  .2.O.x h h a o p , , p s a %.Z.K.*.' f._.|.H.J h j h g f f h c s s s o , s a p p a p a @ l q.A.p.< B k.v.y.w.",
"9 C ] f.O.k < X : , o 9 2 @ f @ , a a s s s 6.'.[.^.*.w :.m.[.`.@.v v j 6 g a a s s d s d , a a , , a p a o a  .f.y.> V *.R k d ",
"5.l.4 > 3 2 a 1 N d O o X @ f p , a z =.C z u.S.R.K. .# >.d.,.Z.( s s g f < O O s , , s a , , a p . p p a a < 3 *.q.1 < : @ < a "
};
