/* XPM */
static char *PAPER_1F1739968836[] = {
/* columns rows colors chars-per-pixel */
"64 64 45 1 ",
"  c #383D3A",
". c #3D413D",
"X c #40443C",
"o c #4A4638",
"O c #504C3C",
"+ c #55513F",
"@ c #5B513F",
"# c #444541",
"$ c #5A4C44",
"% c #585240",
"& c #5F5643",
"* c #5C5544",
"= c #605845",
"- c #625249",
"; c #62534A",
": c #605A49",
"> c #635D49",
", c #6B5F49",
"< c #69624E",
"1 c #70634E",
"2 c #6E6450",
"3 c #706651",
"4 c #766952",
"5 c #736954",
"6 c #766E57",
"7 c #786C55",
"8 c #786F5A",
"9 c #7E7159",
"0 c #7C725A",
"q c #84755A",
"w c #83775E",
"e c #827860",
"r c #847960",
"t c #837C64",
"y c #887A60",
"u c #887E65",
"i c #8D8166",
"p c #8D8368",
"a c #8D856C",
"s c #93937D",
"d c #94947D",
"f c #979882",
"g c #9F9F8B",
"h c #9E9F8C",
"j c #9FA08D",
/* pixels */
"aqiyeyayiiiyeyiyeyiyieiy8uiyiye1 ...X. ......tiyeyiii0ii0uiyiyey",
"8qi0iyi8iei0iye0i58yiieyiyiyiy83 ..#... .#.#0fffw50yiyeiiriyiy8u",
"i7i0ayiyeieuiyiyi0iuiei0a0iyi0e1.X.# ...#.#tffffsfiui0i0a0iyi0ey",
"iqe5iyeuieiyiyiyiyiyeie5e0i5ayi1..# ..# .#.tjfjjfsffeye5e0i5ayiy",
"iqiyiyeyiyayi0iyi0i5iiiyiuiyeya1......#...tfggggjfjsfwiyiuiyeyay",
"iqiue0iyi0iyiyiueyiyieayeyiyi0i1... X#...#ffggggfjffffayeyiyi0iy",
"iq85eyiyeyeyiyeyi0iyiie5iyiyeye*..  #...#tffggggjgfsfff4iyiyeye5",
"aqi0i0a0i0iya0i0iyi5ieiyiyi0iyi1 ..#.X #.fsggggjgfjdfffdiyi0iyiy",
"iqeyeyiy8yi0ey8yiyiyeeeyiue5eyi1..X.#...tfjjggfsgfffffryiue5eyiy",
"iyi0iyi0iyi0e0iu8yi0aeiyiyi0iyi*...X...Xffgjggfjfsff=O4wiyi0iyi5",
"8yeueyiy8yiyeyiyiyeyeeiy8ye0iue1 .# X..-ffggfffffff@%O&1:ye0iuey",
"i0a0iyiyayi0a08yi5i0iiiyi0i0iy8,.# #...afgggjjffff=O=%&14>40iy8y",
"eyiyiyiqiye0e0iyiyi0iyeui0iyiyi,#......ffggfjfsff@&O=,<34>iyiyiy",
"iyayiy8qi080eya0iyiyiyiyiyiyiyi=.. ...-fgggjffdf&@&@4,41iyiyiii0",
"i08yiyaqeyayiqi0i0iyi5iyi5iyi0e1.# ...tfggjdsjfO&O&14%4yi5iyieey",
"iyiye0i7iyiyiqiyeyiuiyeyi0a0iya1....#Xffggffff&@+@414qeyi0a0iiay",
"ayiuiyiqiy8yiqi5i0i5i0a0iyeyeye1 .. .-fgggffj==o&>4&i7a0iyeyeiey",
"iyei8yiqiyayiqeyiuiyeyiyi0eyiyi1..#. wfggjfjw@O@43ireqiyi0eyiyiy",
"i5ia8yiq80iyi7iui0a0iyeyiye0eyi1. .  ffggdgf=O=340a0iqeyiye0eyiy",
"eyeia0ireyiyeqiyiye0eyiy8yi0iui1#.#. fgggjf@+@4yiye0eqiy8yi0iuiy",
"8yeiiyi7eyi0iqeye0i0i0iyi5eyi5i> .X.-fsgjfpO=1wye0i0i7iyi5eyi5i0",
"iyiaiyeqeyeyiqiyeyeuiyiyi08ueyi1... wfggff+@4yireyeuiyiyi08ueyiy",
"8yey80i7e0iyaqiui5iyi0iuiyiye0i1 .#.ffgffq=16yiui5iyi0iuiyiye0iy",
"iyiyeye7ayi0i2e0iyiyiyiyeyi0iyi>....sggff@=>i5r0iyiyiyiieyi0iyi0",
"iyi0eui7eyiyiqiyeyiuiiiieyeyeue1...-fgfgw@4yiyiyeyiuiyiieyeyeuey",
"i0iyeyiqi0iyi7iyiieyieie80i0e081.#.0fghf&Oiwi0iyiyeyi0ie80i0e08y",
"iui0iyi7iyi0iyiyiya0iieie0eueyi1. .dfffp=1i0iyiyiya0iyeie0eueyiy",
"iy8ueyiqayi5iyeuiyiyiu8ei0i0iyi>.. fsff=6yi5iyruiyiyiu8ei0i0iyi0",
"iyiyi0i7iya0i0iyiyiyiyaiiy8yiui1.. fff&<iya0i0iyiyiyiyaiiy8yiuiy",
"iyayeyeqi0eyeii0ayiye0i0i0iyeyey..-fdf@ui0eyeyi0ayiye0iei0iyeyey",
"i0iqiuiqiyi0iiiyiyeui0iy80iyiyi1.X0ff%4iiyi0iyiyiyeui0iy80iyiyiy",
"iyeqeyiqiy8yiai2ieiyiyeyayiyiyey..fff@iiiy8yiui5i0iyiyeyayiyiyei",
"ayiqeyaquruyrupqriuyu0py8uiyuyy1 .ff%qauiyiqryiyerpup0uy8upyiyyu",
"8yi8iyi2iyp0ipr4i88ypryyiyiypy8u .ff4qi5i0i4pye0i48ppyyyuyuyiy8a",
"i0i4ayiqriyuiiiqiqpui0u0a0iyiqry.$f7aqiyeyeriyiyuqiau0u0a0uyuqyy",
"iye2iyeruyiyiiiquyuyyyy4y0u5ayuy.qf<iqrui0iqiyiyiyiyeyy5rqp5ayuy",
"iyiqiyeqpuayieiqp8i4iyiyuupyryay#siqiyeyiyaqi0iyi0i4pypyiupyryay",
"iyire8iqiyiyiiiryypyu0ayyruyu0py#sier0iyi0iqiyiuyypyu0ayyyuyp0uy",
"iy83yypqeiyriyrqu0uypyy4iyiyyry5#s05eyiyeyeyiyeyu0uypyy4uypyeyr4",
"ayi4p0a4ieiya0p4pyp4p0uyiyi0iyuq#ri0i0a0i0iya0i0pyi4uquypyuquypy",
"iyyqeyiq8ii0ey8qiypuy0eyiuy4rypq;yryrypy8yiqey8ypypye0yyiuy5eypy",
"iqi8uyp4iii0e0ir8ypea0uyuyu0pyu2;wu0uyuquip8e8iu8yu0aquyiyi0uyu5",
"8qrrryiy8iiyeyiqiyyuy0py8yy0uuyq;yruryiy8ipyyypyiyrye0iy8ye0iury",
"i4a0iyiyaii0a08qi4uyuyiyp0uqpy8q;0a0iyiyaiu0a08yp4uqurpyiqu0iy8y",
"eqiyiyiyiie0y0iqiyiriyyuu0pypypq4ypyuyiyiie0e0uyuyuquyyuuqpyiqiy",
"iqayiy8yir80eya8iyiiiyuqpyuyiyu7;yaypy8yuy8qyra0pyuypyuyiyiyiquq",
"i48yiyayyuayuyp4i0iiu5pqi4iyiqry400yiyayryayuyuquqpyp4uyi4uyp4yr",
"pqiye0i0iiiyiyuyyyiairyqi0a0uyay4uirr0i0iyiypyiyyyiuuyyyp0a0pqay",
"aqiuiyiyii8yiyi4i0i8i4a7iyeyryyy0iiuiyiyiy8yuyp4uqu5p0a0pyeyeqry",
"iqry8yiyiiayiyeyuuiirqpyiqeyuyuy4iey8yiyiyaypyeypuuyryuyi0yyuqpy",
"i2iu8yiy8eiyp0pupqaepqeyiye8yriy08iu8yiy8qpyuqiuu0aquyyyiyy0yquy",
"eqeya0iueiiyyyuyuyeeyruy8yi0iuiy5peya0iueyuyeyiypye0yyuy8yu0uyiy",
"8qeyiyi0ypuquyyre0p0i0iyi4yru4i00iyriyi0eyu0pyyyy0i0i0iyp4eyp2i0",
"iqiuiyeyeuyyiyiyereuiyiip08uryuy0uiuiyeyeyyyuyuyeyyuiyiyu08ueqiy",
"8qey80i0eepyariui4iyi0iauyuye0uy0iey80i0y0uyayiuu5uyi0iupyiyr4iy",
"iqiyeye0auu0p4e0iyiyiyiiyyp0pypq0yiyeye8ayp0p4e0pyiyiyiyyyi0pqi0",
"pqi0eui0eiuypyuyeyiuiyiieyeyeuey4rp0yuu0ryiyiyiyeyiuiiiyeyeyerey",
"p4iyeyiyiepyuqpyiyeyi0ie80i0e08y00pyeyuyi0iyi0iyiyeyiei088i0e08y",
"iri0iyi0iii0uyiyiya0iyeie0eueyiy4uu0iypqiyu0iyiriya0iieye0eueyiy",
"iq8ueyiiaii4iyyuiyiyiu8ei0i0iyi0py8uyyuyayi5iyyuiyiyia80i0i0iyi0",
"iqiyu0pepua0i0uyiyiyiiaiiy8yuuiyiyiyu0peiya0i0iyiiiyiiayiy8yiuiy",
"iqayyyyuieyyyyp0ayiyeeiei0iyyyyriyayyryui0yryyi0aiiyeei0i0iyeyey",
"p4iyuuiiiii0uyiyiyeuieii80iypyiyi0uyiuupiyi0uyuyiieuieiy80iyiyiy",
"uqyyyyiiii8yiup4i0iiiieiayiyuyyyiyeyyyiiiy8ypup4ieiyiieyayiyiyey"
};
