/* XPM */
static char *PAPER_1B1739968835[] = {
/* columns rows colors chars-per-pixel */
"64 64 12 1 ",
"  c #6E6450",
". c #736954",
"X c #786C55",
"o c #786F5A",
"O c #7C725A",
"+ c #84755A",
"@ c #827860",
"# c #847960",
"$ c #887A60",
"% c #887E65",
"& c #8D8166",
"* c #8D856C",
/* pixels */
"*+&$@$*$&&&$@$&$@$&$&@&$o%&$&$@$*$&$@$*$&$&&@$&$@$&&&O&&o%&$&$@$",
"o+&O&$&o&@&O&$@O&.o$&&@$&$&$&$o%o$&O&$&.&O&@&$@O&.o$&$@&&$&$&$o%",
"&X&O*$&$@&@%&$&$&O&%&@&O*O&$&O@$&O&Oo$&$@$@*&$&$&O&%&O&O*O&$&O@$",
"&+@.&$@%&@&$&$&$&$&$@&@.@O&.*$&$&$@.&$@%&O&&&$&$&$&$@$@.@O&.*$&$",
"&+&$&$@$&$*$&O&$&O&.&&&$&%&$@$*$&$&$&$@$&$*$&O&$&O&.&$&$&%&$@$*$",
"&+&%@O&$&O&$&$&%@$&$&@*$@$&$&O&$&$&%@O&$&O&$&$&%@$&$&O*$@$&$&O&$",
"&+o.@$&$@$@$&$@$&O&$&&@.&$&$@$@.&$o.@$&$@$@$&$@$&X&$&$@.&$&$@$@.",
"*+&O&O*O&O&$*O&O&$&.&@&$&$&O&$&$*$&O&X*O&O&$*O&O&+&.&O&$&$&O&$&$",
"&+@$@$&$o$&O@$o$&$&$@@@$&%@.@$&$&$@$@+&$o$&O@$o$&+&$@O@$&%@.@$&$",
"&$&O&$&O&$&O@O&%o$&O*@&$&$&O&$&.&$&O&+&O&$&O@O&%o+&O*O&$&$&O&$&.",
"o$@%@$&$o$&$@$&$&$@$@@&$o$@O&%@$o$@%@+&$o$&$@$&$&$@$@O&$o$@O&%@$",
"&O*O&$&$*$&O*Oo$&.&O&&&$&O&O&$o+&O*O&+&$*$&O*Oo$&.&O&$&$&O&O&$o$",
"@$&$&$&+&$@O@O&$&$&O&$@%&O&$&$&+@$&$&$&$&$@O@O&$&$&O&+@%&O&$&$&$",
"&$*$&$o+&OoO@$*O&$&$&$&$&$&$&$&X&$*$&$o$&OoO@$*O&$&$&+&$&$&$&&&O",
"&Oo$&$*+@$*$&+&O&O&$&.&$&.&$&O@$&Oo$&$*$@$*$&$&O&O&$& &$&.&$&@@$",
"&$&$@O&X&$&$&+&$@$&%&$@$&O*O&$*$&$&$@O&O&$&$&$&$@$&%&+@$&O*O&&*$",
"*$&%&$&+&$o$&+&.&O&.&O*O&$@$@$@$*$&%&$&$&$o$&$&.&O&.&X*O&$@$@&@$",
"&$@&o$&+&$*$&+@$&%&$@$&$&O@$&$&$&$@$o$&$&$*$&$@$&%&$@+&$&O@$&$&$",
"&.&*o$&+oO&$&X&%&O*O&$@$&$@O@$&$&.&%o$&$oO&$&O&%&O*O&+@$&$@O@$&$",
"@$@&*O&#@$&$@+&$&$@O@$&$o$&O&%&$@$@$*O&%@$&$@$&$&$@O@+&$o$&O&%&$",
"o$@&&$&X@$&O&+@$@O&O&O&$&.@$&.&Oo$@$&$&O@$&O&$@$@O&O&X&$&.@$&.&O",
"&$&*&$@+@$@$&+&$@$@%&$&$&Oo%@$&$&$&%&$@$@$@$&$&$@$@%&$&$&Oo%@$&$",
"o$@$oO&X@O&$*+&%&.&$&O&%&$&$@O&$o&@$oO&O@O&$*$&%&.&$&O&%&$&$@O&$",
"&$&$@$@X*$&O& @O&$&$&$&$@$&O&$&O&&&$@$@O*$&O&.@O&$&$&$&&@$&O&$&O",
"&$&O@%&X@$&$&+&$@$&%&&&&@$@$@%@$&&&O@%&O@$&$&$&$@$&%&$&&@$@$@%@$",
"&O&$@$&+&O&$&X&$&&@$&@&@oO&O@Oo$&@&$@$&&&O&$&O&$&$@$&O&@oO&O@Oo$",
"&%&O&$&X&$&O&$&$&$*O&&@&@O@%@$&$&*&O&$&@&$&O&$&$&$*O&$@&@O@%@$&$",
"&$o%@$&+*$&.&$@%&$&$&%o@&O&O&$&O&&o%@$&&*$&.&$@%&$&$&%o@&O&O&$&O",
"&$&$&O&X&$*O&O&$&$&$&$*&&$o$&%&$&$&$&O&@&$*O&O&$&$&$&$*&&$o$&%&$",
"&$*$@$@+&O@$@&&O*$&$@O&O&O&$@$@$&$*$@$@&&O@$@$&O*$&$@O&@&O&$@$@$",
"&O&+&%&+&$&O&&&$&$@%&O&$oO&$&$&$&O&$&%&&&$&O&$&$&$@%&O&$oO&$&$&$",
"&$@+@$&+&$o$&*& &@&$&$@$*$&$&$@$&$@$@$&&&$o$&%&.&O&$&$@$*$&$&$@&",
"*$&+@$*+&$&$@&&+@&&$&O&$o%&$&$@$*$&+@+*&&$&+@$&$@$&&&O&$o%&$&$@&",
"o$&X&$& &@&O&&@X&oo$&$@$&$&$&$o%o$&X&+&.&O&X&$@O&.o&&$@$&$&$&$o*",
"&O&X*$&+@&@%&&&+&O&%&O&O*O&$&O@$&O&X*+&$@$@#&$&$&O&*&O&O*O&$&O@$",
"&$@ &$@#&@&$&&&+&$&$@$@.@O&.*$&$&$@ &+@%&O&+&$&$&$&$@$@.@O&.*$&$",
"&$&+&$@+&&*$&@&+&O&.&$&$&%&$@$*$&$&+&$@$&$*+&O&$&O&.&$&$&%&$@$*$",
"&$&#@O&+&@&$&&&#@$&$&O*$@$&$&O&$&$&#@O&$&O&+&$&%@$&$&O*$@$&$&O&$",
"&$o @$&+@&@$&$@+&O&$&$@.&$&$@$@.&$o.@$&$@$@$&$@$&O&$&$@.&$&$@$@.",
"*$&X&O*X&@&$*O&X&$&.&O&$&$&O&$&+*$&O&O*O&O&$*O&O&$&.&O&$&$&O&$&$",
"&$@+@$&+o&&O@$o+&$&&@O@$&%@.@$&+&$@$@$&$o$&O@$o$&$&$@O@$&%@.@$&$",
"&+&X&$&X&&&O@O&#o$&@*O&$&$&O&$& &$&O&$&O&&&O@O&%o$&O*O&$&$&O&$&.",
"o+@#@$&$o&&$@$&+&$@&@O&$o$@O&%@+o$@%@$&$o&&$@$&$&$@$@O&$o$@O&%@$",
"&X*O&$&$*&&O*Oo+&.&@&$&$&O&O&$o+&O*O&$&$*&&O*Oo$&.&O&$&$&O&O&$o$",
"@+&$&$&$&&@O@O&+&$&@&$@%&O&$&$&+@$&$&$&$&&@O@O&$&$&O&$@%&O&$&+&$",
"&+*$&$o$&@oO@$*X&$&&&$&+&$&$&$&X&$*$&$o$&@oO@$*O&$&$&$&$&$&$&+&O",
"&Xo$&$*$@&*$&$&X&O&&&.&+&.&$&O@$&Oo$&$*$@$*$&$&O&O&$&.&$&.&$&X@$",
"&+&$@O&O&&&$&$&$@$&*&$@+&O*O&$*$&&&$@O&O&$&$&$&$@$&%&$@$&O*O&+*$",
"*+&%&$&$&&o$&$&.&O&o&X*X&$@$@$@$*&&%&$&$&$o$&$&.&O&.&O*O&$@$@+@$",
"&+@$o$&$&&*$&$@$&%&&@+&$&O@$&$&$&&@$o$&$&$*$&$@$&%&$@$&$&O@$&+&$",
"& &%o$&$o@&$&O&%&O*@&+@$&$@O@$&$&o&%o$&$oO&$&O&%&O*O&$@$&$@O@+&$",
"@+@$*O&%@&&$@$&$&$@@@$&$o$&O&%&$@&@$*O&%@$&$@$&$&$@O@$&$o$&O&#&$",
"o+@$&$&O@&&O&$@$@O&O&O&$&.@$&.&Oo&@$&$&O@$&O&$@$@O&O&O&$&.@$& &O",
"&+&%&$@$@&@$&$&$@$@%&$&&&Oo%@$&$&&&%&$@$@$@$&$&$@$@%&$&$&Oo%@+&$",
"o+@$oO&O@@&$*$&%&.&$&O&*&$&$@O&$o&@$oO&O@O&$*$&%&.&$&O&%&$&$@X&$",
"&+&$@$@O*&&O&.@O&$&$&$&&@$&O&$&O&$&$@$@O*$&O&.@O&$&$&$&$@$&O&+&O",
"&+&O@%&O@&&$&$&$@$&%&$&&@$@$@%@$&$&O@%&O@$&$&$&$@$&%&&&$@$@$@#@$",
"&X&$@$&$&@&$&O&$&$@$&O&@oO&O@Oo$&O&$@$&$&O&$&O&$&$@$&@&OoO&O@Oo$",
"&#&O&$&O&&&O&$&$&$*O&$@&@O@%@$&$&%&O&$&O&$&O&$&$&$*O&&@$@O@%@$&$",
"&+o%@$&&*&&.&$@%&$&$&%o@&O&O&$&O&$o%@$&$*$&.&$@%&$&$&*oO&O&O&$&O",
"&+&$&O&@&&*O&O&$&$&$&&*&&$o$&%&$&$&$&O&@&$*O&O&$&&&$&&*$&$o$&%&$",
"&+*$@$@&&@@$@$&O*$&$@@&@&O&$@$@$&$*$@$@&&O@$@$&O*&&$@@&O&O&$@$@$",
"&X&$&%&&&&&O&$&$&$@%&@&&oO&$&$&$&O&$&%&&&$&O&$&$&&@%&@&$oO&$&$&$",
"&+@$@$&&&&o$&%&.&O&&&&@&*$&$&$@$&$@$@$&&&$o$&%&.&@&$&&@$*$&$&$@$"
};
