/* XPM */
static char *SAND_1A1739968837[] = {
/* columns rows colors chars-per-pixel */
"64 64 14 1 ",
"  c #493827",
". c #5B452F",
"X c #43413F",
"o c #594A3B",
"O c #675543",
"+ c #675643",
"@ c #675B4D",
"# c #745F4A",
"$ c #736750",
"% c #8B7B66",
"& c #A59369",
"* c #A08C70",
"= c #AB9D77",
"- c #BDB689",
/* pixels */
"$###O#$#####O###O####+##o$####+#$###+#$OO###+###O####+##o$####+#",
"o##O###o#O#O##OO#oo###O#######o$o##O##O. O#O##OO#oo###O#######o$",
"#O#O$###O#O$#####+#$#O#O$O###+O##+#Oo.% OOO$#####+#$#O#O$O###+O#",
"##Oo##O$#O##########O#OoO+#o$#####Oo#@ $#O##########O#OoO+#o$*o#",
"######* ##$##O###O#o#####$##O#$#######O##*o##O###O#o#####$##Oo$#",
"###$OOo##O#####$+####O$#O#@.#O#####$+O###X#####$+####O$#O####O##",
"#%.oO###O#OOOOO##+####Oo*o.#O#+o##ooO###O#+###O##+####Oo####O#+o",
"$@ O#O$O#O##$O#O###o#O##o##O####$##O#+$O#O##$O#O###o#O#####O####",
"##+#O###o##+O#o#####OO+##$Oo+#####+#O###o##+O#o#####OO+##$Oo+###",
"###+###+###OOO#$o##O$O#####O###o###+###+###OOO#$o#OO$O#####O###o",
"o#O$+###o###O#O#=@+#OO##o#O+#$O#o#O$+###o###OOO##O-.OO##o#O+#$O#",
"#O$O####$##O$Oo#.X#O#####O#+##o##O$O####$##O$OoO#o@ O####O#+##o#",
"O#########O+O+#####O##+$#O######O#########O+O+*o##OO##+$#O######",
"##$###o##OoOO#$O###############O##$###o##OoOO#oX###############O",
"#Oo###$#O#$####+#O###o###o#%.+O##Oo###$#O#$###O+#O###oOO#o###+O#",
"####O+#O########O##$##O##O$@ #$#####O+#O########O##$#O*o#O$O##$#",
"$##$######o####o#+#o#O$+##O#+OOO$##$######o####o#+#o#OoX@.O#+#O#",
"##O#o#####$###O##$##O####OOO### ##O* #####$###O##$##O###.OO#####",
"#o#$o###oO###+#$#O$O##O###OOO####o# o###oO###+#$#O$O##O###OOO###",
"O#O#$O#$O###O#####OOO###o##O#$##O#O#$O#$O###O#####OOO%=@o##O#$##",
"o#+####O+##O##+#+O#O#O###oO##o#+o#+####O+##O##+#+O#O@-. %.O##o#+",
"###$##O#O#+#####O#O$###O#Oo$O######$##O#O#+#####O#O$#@ X@ o$O###",
"o#O#oO#OOO##$##$#o###+#$####O+##o#O#oO#OOO##$##$#o###+#$####O+##",
"####+#O+$##O#oOO########O##O###+####+#O+$##O#oOO########O##O###+",
"###OO$#OO#######+#O$O###O#O#O$O####OO$#OO#######+##$####O#O#O$O#",
"#O##O####+###O####O*o+#Oo+#OOOo##O##O####+###O####O##+#Oo+#OOOo#",
"#$#O###+###+######$ O#O#O+@.O####$#O###+###+######$O##O#O+O$O###",
"##o$&@##$##o##O$###O#$oO#O.O###+##o$O#* $##o##O$#####$oO#O#O###+",
"###%@%@O##$O#+########$ ##o##$###@.##O O##$O#+########$###o##$##",
"##$=%. ##OO#O##O$###+O#O#O##O#+##.$#O#O##OO#O##O$###+O#O#O##O#+#",
"#+#@. X####+######O$#+##o+#######+###$#####+######O$#+##o+######",
"##+#OX####o##$#o#O####+#$O####O###+#O#####o##$#o#O####+#$#####O#",
"$###+#$#####+###O####+#O%.O###+#$###+#$#####+###O####+##o$####+#",
"o##O###o#O#O##OO#oo###OO@ O###o$o##O###o#O#O##OO#oo###O#######o$",
"#+#O$###O#O$#####+#$#O#O$O###+O##+#O$###O#O$#####+#$#O#O$O###+O#",
"##Oo##O$#O##########O#OoO+#o$#####Oo##O$#O##########O#OoO+#o$###",
"##. ##O###$##O###O#o#####$##O#$#######O###$##O###O#o#####$##O#$#",
"## $+O###O###OO$+####O$#O####O#####$+O###O#####$+####O$#.%###O##",
"##ooO###O#+#O%.O#+####Oo####O#+o##ooO###O#+###@.#+####Oo@X##O#+o",
"$##O#+$O#O##$@XO###o#O#####O####$##O#+$O#O##$O.X###o#O#####O%.##",
"##+#O###o##+OOoO####OO+##$Oo+#####+#O###o##+O#o#####OO+##$Oo@ ##",
"###+###+###OOO#$o##O$O#####O###o###+###+###OOO#$o##O$O#####O###o",
"o#O$+###o###O#####+#OO##o#O+#$O#X#O$+###o#& O#####+#OO##o#O+#$O#",
"#O$O####$##O$Oo##o#O#####O#+@#oX#O$O####$# X$Oo##o#O###@#O#+##o#",
"O#########O+O+#####O##+$#O######O#########O+O+##X##O##+$#O######",
"##$###o##OoOO#$O###############O##$###o##OoOO#$O##.############O",
"#Oo###$#O#$####+#O###o###o###+O#%.o###$#O#$####+#O###o###o###+O#",
"####O+#O########O##$##O##O$O##$#@ ##O+#O########O##$##O##O$O##$#",
"$##$######o####o#+#o#O$+##O#+#O#$##$######o####o#+#o#O$+##O#+#O#",
"##O#o#####$###O##$##O####OO#######O#o#####$###O##$##O####OO#####",
"#o#$o###oO###+#$#O$O##O###OOO####o#$o###oO###+#$#O$O##O###OOO###",
"O#O#$O#$O###O#####OOO###o##O#$##O#O#$O#$O###O#####OOO###o##O#$##",
"o#+####O+##O##+#+O#O#O###oO##o#+o#+####O+##O##+#+O#O#O###oO##o#+",
"###$##O#O#+#####O#O$#####Oo$O######$##O#O#+#####O#O$#####Oo$O###",
"o#O#oO#OOO##$##$&o###+#$####.%##o#O#oO#OOO##$##$#*o##+#$####O+##",
"####+#O+$##O#oOOo#######O##O@ #+####+#O+$##O#oOO#o######O##O###+",
"###OO$#OO####%.#+##$####O@.#O$O####OO$#OO#######+##$#%.#O#O#O$O#",
"#O##O####+###@ ###O##+#Oo.#OOOo##O##O@.##+###O####O##@ Oo+#OOOo#",
"#$#O###+###+######$O##O#O+O$O####$#O#.#+###+######$O##O#O+O$O###",
"#*o$O###$##o##O$#####$oO#O#O##X+##o$O#-=@##o##O$#####$oO#O#O###+",
"#X###O#O##$O#+########$###o##$#######&@%.#$O#+########$###o##$##",
"##$#O#O##OO#O##O$###+O#O#O##O#+###$#O@%.XOO#O##O$###+O#O#O##O#+#",
"#+###$#####+######O$#+##o+#######+###$@ ###+######O$#+##o+######",
"##+#O#####o##$#o#O####+#$#####O###+#O#####o##$#o#O####+#$#####O#"
};
