/* XPM */
static char *Tile_14_128x1281739968840[] = {
/* columns rows colors chars-per-pixel */
"64 64 230 2 ",
"   c #542D17",
".  c #5C341C",
"X  c #58351B",
"o  c #4A2610",
"O  c #62341C",
"+  c #6C361C",
"@  c #64391E",
"#  c #6C391E",
"$  c #623416",
"%  c #743B1F",
"&  c #76371D",
"*  c #5B3D23",
"=  c #553D26",
"-  c #643D22",
";  c #6B3D22",
":  c #743D21",
">  c #5D4329",
",  c #4A4137",
"<  c #544A3E",
"1  c #56493A",
"2  c #5F5239",
"3  c #644225",
"4  c #6C4225",
"5  c #65452A",
"6  c #6C462A",
"7  c #65492C",
"8  c #6C4A2C",
"9  c #6C4927",
"0  c #744325",
"q  c #7B4325",
"w  c #7A4827",
"e  c #734629",
"r  c #7A4628",
"t  c #744B2C",
"y  c #7C4C2C",
"u  c #6E512E",
"i  c #74512F",
"p  c #7B512E",
"a  c #654D32",
"s  c #6B4E32",
"d  c #734E31",
"f  c #7A4F31",
"g  c #655035",
"h  c #6D5234",
"j  c #64533C",
"k  c #6C563B",
"l  c #6E593D",
"z  c #6D5837",
"x  c #745334",
"c  c #7C5433",
"v  c #745837",
"b  c #7D5936",
"n  c #735639",
"m  c #7B5738",
"M  c #745A3C",
"N  c #7B5C3B",
"B  c #7C603E",
"V  c #74623F",
"C  c #5B4D42",
"Z  c #574D41",
"A  c #5C5344",
"S  c #5A564A",
"D  c #655943",
"F  c #6B5C44",
"G  c #635D4C",
"H  c #6B5D4B",
"J  c #665646",
"K  c #735E43",
"L  c #7A5E41",
"P  c #715F4A",
"I  c #615F51",
"U  c #705F50",
"Y  c #6C634B",
"T  c #6C6246",
"R  c #756245",
"E  c #7C6344",
"W  c #73644C",
"Q  c #7B654A",
"!  c #75694E",
"~  c #7C6A4C",
"^  c #7E6947",
"/  c #6A6453",
"(  c #736651",
")  c #746B54",
"_  c #7B6C53",
"`  c #786956",
"'  c #7C7155",
"]  c #7C735A",
"[  c #77725A",
"{  c #7F7863",
"}  c #833A1E",
"|  c #823F23",
" . c #824C2B",
".. c #8A4C2B",
"X. c #824626",
"o. c #83522E",
"O. c #8B522E",
"+. c #825533",
"@. c #8B5532",
"#. c #845A36",
"$. c #8B5B35",
"%. c #835D3A",
"&. c #8B5E3A",
"*. c #825738",
"=. c #925D35",
"-. c #915E39",
";. c #925633",
":. c #83613D",
">. c #8C623C",
",. c #89683F",
"<. c #93643C",
"1. c #9A693F",
"2. c #9A653B",
"3. c #805E40",
"4. c #836443",
"5. c #8A6542",
"6. c #846945",
"7. c #8C6A44",
"8. c #816649",
"9. c #846C4C",
"0. c #8B6D4A",
"q. c #896748",
"w. c #916642",
"e. c #936B44",
"r. c #9B6C44",
"t. c #926E49",
"y. c #86704C",
"u. c #8C724C",
"i. c #8B744A",
"p. c #947145",
"a. c #94734C",
"s. c #9B744B",
"d. c #957A4D",
"f. c #9C7A4D",
"g. c #997346",
"h. c #826D52",
"j. c #896E51",
"k. c #806F59",
"l. c #847354",
"z. c #8B7453",
"x. c #8C7A55",
"c. c #84765A",
"v. c #8A775A",
"b. c #857A5C",
"n. c #8C7B5C",
"m. c #937551",
"M. c #9A7650",
"N. c #947A54",
"B. c #9B7C53",
"V. c #937D5B",
"C. c #9B7E59",
"Z. c #A2754A",
"A. c #A37C4D",
"S. c #A47548",
"D. c #A17C53",
"F. c #A87F55",
"G. c #837B60",
"H. c #8B7D61",
"J. c #917E61",
"K. c #9B8255",
"L. c #95815C",
"P. c #9B835B",
"I. c #9C895F",
"U. c #94845B",
"Y. c #A38354",
"T. c #AB8454",
"R. c #A3855B",
"E. c #AA875B",
"W. c #A4895E",
"Q. c #AC8B5C",
"!. c #AA8957",
"~. c #B38C5C",
"^. c #B08553",
"/. c #AE915F",
"(. c #BA915B",
"). c #8D8163",
"_. c #8C8669",
"`. c #948464",
"'. c #9A8562",
"]. c #9C8A63",
"[. c #918569",
"{. c #9C8C6A",
"}. c #958A67",
"|. c #9A9169",
" X c #9D8F72",
".X c #A48C64",
"XX c #AB8E63",
"oX c #A48F6B",
"OX c #A08662",
"+X c #B18E62",
"@X c #A59166",
"#X c #AC9265",
"$X c #A4936B",
"%X c #AB946A",
"&X c #AB996D",
"*X c #A69A6F",
"=X c #B39363",
"-X c #B2966A",
";X c #B49B6C",
":X c #BA9B6C",
">X c #B89864",
",X c #A69570",
"<X c #AD9D73",
"1X c #AA9871",
"2X c #B29D73",
"3X c #B89E73",
"4X c #AEA176",
"5X c #B5A274",
"6X c #BBA374",
"7X c #BEA977",
"8X c #B6A57A",
"9X c #BBA679",
"0X c #BCAA7A",
"qX c #C49C69",
"wX c #C7A46D",
"eX c #C2A573",
"rX c #C5AA75",
"tX c #C4AC7B",
"yX c #CBAD7A",
"uX c #C6A877",
"iX c #CCB17E",
"pX c #C5B27F",
"aX c #D2B37F",
"sX c #C6B281",
"dX c #CDB582",
"fX c #D5B985",
"gX c #D4BC88",
"hX c #D8BA86",
"jX c #DCC08A",
"kX c #E5C992",
/* pixels */
"4 %.@ V T n.0 0.J.W &.m.W oXp %._ W t y $.+ 2.;.y l.' b r l.! 9.&.W ! x t ' W d. .#.% y =.r B._ C.4 W.W V.&.J.~ E.; P.c.Z.y :.c ",
"o.[ z.7 7 .XeX>.&.P.;.B.C. .7.&X9.t 7.) U.p @Xv.s.7 4.tXB.4 6.:.r y.7 6.7Xx.i >.N.).#.d.H.B.#.%.uX$X5 k N.: B.w.+.;X6Xv b y.) L.",
"4 y.H ].a.e 0.dX.Xn q  .e.5X%X+.b wXoX, 6.  a.< n.#X%.c #X5X3.y  .n |.;Xv p (.5XJ l.. c J _ iXZ.e E.5XN.7 X.#.I.0Xy.7 f.;XD _ >.",
"s.7.`.5 5.D.- f D.2Xt.l.*Xf.. :.T.:.B.5Xp a.3 *Xl a d.#.  4.].l.:.}.9.@ 8 T.7.:.4X:.4.+.N..Xx p.s.O s P.].v }.x.c . 7.A.:.I.W.o.",
"_ t d.:.M v 3.h.m #. .f t l ) m L 5.D.Z.*.) h 5.d.M n s ) E y r ; 0 n c.M n q.e.Y.8 n.9.p K.7 q.%.F T 3 #.: +.e J.h.m E :.(.#.z.",
"1XD.>.Y.h z.Y E 8.V.f.0.! B E _ Q N ~.r 2Xz.<Xe Y.b 0.( K 3.`.m.w.v.q.7.Q z.#.Q.t V.x.}.c s.5.L _ F n W l.7.'.9.N ! h.M s.A.7.8X",
"&.uX&.y n F 4.9.v.Q +.3.F `.0.E h.%.; :X=X# :Xz.- N h.N E '.9.f +.Q c.J.4.` q. .t.rX6 p.6X3 c P l E H.h.n y %.h.c.M 8.h.+.y iXw.",
"Z.M.8X6 _ K N.l.t w.r +.7.x ' E ( L &.fXy Q.y tXb 9.h.E ).+.S.#.: t.@.J.N.7.n.y gXw.s.b wX0.7 _ 4.v.N c 7.; s.w.n ] 4.b.*.qX#X+.",
"OXf tXP.N 6.c.i 9.{.2.B.b.4.x ! a h 7Xp.:.).m ~.yXb 4.b.%.7.[.R.$.] x.b z.u.%.XXeX+.n.q.#.5Xb b h.8.x G.'.o.XXH.x 9._ x e.fXc C.",
"` C.>.5X8 ' g a._.c.@.B.) ,Xb F 1 v }.i %XJ .X#.0X>.R ! <.8X) y.%.' ).E j _ c 4Xr.R.W {.>.].W.b ) b I.l.W.y XX{ eXc [ +..XV.r.H.",
"<.t  .t.w i.f y >.x # @.<.:.w v g t b ; #.<.b 0 5.+.N z @ c #.4 @ b $.@ d 6.y 5.X.y &.<.% &.:.y 0.@ w ;. .:  .<.;.; 9.@.c f  .&.",
"0.%.@.z. .0.+.6 a.D. .+.,.N w l g b E - a.E 7.y B.#.^ k e V 6.p 4 9.B.:.h z.o.l.f t.j.j.@.E l x D - 4.8.t.: Y.C.7.e l.$.8.s f B.",
"( B.M.3X+.V.F s.).] <.C.G U.c ' n h $Xp '.C P.#.8Xb R l.x n.S d.$.) `.<.h.l.4 }.M.B._ h.#.$X8.h Y 8 u.S x.p V./ XXc [ +.m.'.b l.",
"`.0 uXa.a.6.n.c 9.b.o.V.b.#.9.~ q.k W.B.d 2X+.XXXX0.6.Y k m n.0.c *Xt.b ).N Q :.6Xy @Xm.5.%Xh M R ! 3 y.#Xt L.P.f z.m.B.M &X%.E ",
"@.R.-X- ( E l.! s b : @.%.4.}.N _ L f uX+.c 3.dXr 0.l.k b.s 7 4 # c e.).4.K v.@ W.N.y d 2Xd = G g ' y.#.#.# $.+.z.].3.[ d b ;X- ",
"t.tXd b h ! g Q l.~ N 8._ v.%.K j.b t m.-Xe sXZ.d b 9.K N v._ k :.W ).0.L J b :.e dX%.P.XXe c k D n l.H.! c z.H.z.3.Q L e.o.uXXX",
"{.M.,.0.k R D K ^ R M l K 4.) h.B.3.!.t l.` C.0 !.m ^ W T 6.Q 8.%.R M W R M k Y.e.%.( n.6 d.N M R W m.M E c R M ~ T ~ N N d.b |.",
"z.f =Xv h 7 h D 7 c 0 c 8 E 0.c m 5.d.i.n ].- Y.f.m %.c K q.f w.y >.4.~ 8 a v n >Xc x.x s.K.7 m #.4.z.7 >.0 >.t h.g 8 g 7 =XB 5.",
"c N L.E d.d.X M $X$XN z.<X=X0 c >X6.8.l.= x n {.N.B d.N X R.5Xm.>.<X@Xy 8 K.f.i.|.e.>.b .XN.7.Y.Z.@ B *XL.x `.9X7.  B K.5.`.P.w ",
"0 ) Z 0Xe.p #XtXf.%.@ t %..XpXs.+.Q.c.Z z.+ l.< $XK.> 4.dX'.%.f # d Q.iXs.p D.&XC .Xw z.J b.:X$.%..X*X,.8 % p 7.;XW.#.,.I.G T 7.",
"<.@X9.i h 5X=X6 5.:Xf F.L.3 %.gXm.c 4.d.B.y =XP.&.c ~ ;X:.5 P.B.+.XXn *.%X@Xc b t.V.p Y.I.:.y u.6X7.t M N.c XXL t B.*X0.u 7.@XQ.",
"% t o y.] m.q >XH.P 1.k , <X#.s [ V.e : $.& t : <.`./ d x 8XZ E r.P b.0.4 v.`.e.; f @ r 4 w 6X( z X I.A R #.K A 5X$ 0.] @X#  .t ",
"=.].0.p n 1X+Xf 5..X<.V h.b c %Xz.t %.V.=X#.R.z.+.s P.3Xb b L.6.>.{.b 6 @X.Xf &.W.uX<.7.@X7.t 8.*Xn > R y.8 P.z.$.f.5XM 4 e.P.Y.",
"$.n.Z ;X>.t :XhXs.b # e b P.tX7.+.Q.1XC z.: u., '.~.+.E.tXB.u 4 ; c D.8X~ - a.9X< ).; ,.W ] eX<.c ].I.m 8 O 3 #.#X6X8 t ;X( A B.",
"$.M.$Xt.a.T.@ <.eX}.c 9.}.+Xt N K.4.d.<X>.%.5 n.m.f.~.+.e :X4X9.,.8XrX%.. i.9.V }.t.#.c oXoXa.~.a.  B 2Xn.s $X5X5.X s.Y.p.c..Xr ",
"N.$.yX3.L x v ~ %.Z.+.m c 9.4.b %.N 6.~.+.`.%.Y.B n e.&.N 4.%.+.O.%.x T N 7 h N >X8 .X4.w.wXc m 7 k 9.d w.r Z.%.9.v %.x x =Xr.7.",
"[.r.r.A.K 0.Y 9.N N &.q.8.4.l.Q 0.%.!.+.OX_ '.#.d.M 0.8.c.5.K q.:.E j F F j a u.d m.H.v.t (.7.4.Q D m.t.h.c E %.9.D F k 4.A.c {.",
"D.fXc &.s _ q.m.}.h.4.K V.`.L E z.%.b 7.&X4 3XB i %.K Q e.x.n.~ 7.! _ z h D n b c tXn B.wXy #.L R 4.9.b.h.%.v.n.z.%.~ K >.c :X'.",
"r XX+X: ) K ~ V.f $.$ 8 #.3.b.4.W Q e 9X&.+.%.2X- R T 4.b.4.#.e ; b x ' K M ) @ eXB.+.e hXs.8 [ N n.z.t $.: #.b V.x.M ) - p.uXy ",
"C.+.dXs.m.0.n.t a.|.o.~ n.b E _ N E +XR.7  Xt :XN.k N l.L +.U.V 9 ).N x ' 4.4.7.tX .8XB.%.dX%.6.8.l.e z.;Xe x.u.y n.V l %.fX4.B.",
"l.7.R.3X+.J.L A.[.] +.N.S ].%.' L e.2Xd l.1 z.N <X8 K ( x `.S u.>.! ] >.K b.y 8Xr.+XU `.&.3XB.#.[ 7 d.S P.>.' ) N.x [ t K..X%.) ",
"Q N #.%Xb Q d 7.m.m.; e.P.K.p ~ N e.N.e E K 6.5 x.#.K l 6 E R %.4 N.XXm b u.#.OXr t.0.z.y 6.0.=.! 4 4.P.t.4 u.N.:.3 R p E h %.y.",
"x ; X.5.q :.y # p +.: 4 2.O.0 9.m 8 c % =.e.#.+ h 5 M v . 8 #.w @ p #.0 y t. .:.q $.<.r.q +.+.;.7.: r +.+.+ 9 p 9 . N t c 7 4 <.",
"_ 4.:.1X+.`.m u.) n.t N.] `.>.l.4.5.$Xi -XT L.8 U.v j D h ).[ ~ $.|.[.7.M l.e 5X%.L.H $X<.'..X&.G.b OX] .Xc d.) K.8 [ #.L.u.7.l.",
"F 3 .X.X<.9.! +.'.b.8 C.c.M 3.v.M b 5X7.4.c.m 6.@Xg n b.i E / ^ >.[.x.y ~ F x W.-Xt {.9.+.gXt.q.z.L s.`.L.i x.[.,.6.l.7.6.].t ~ ",
"n b 7X .v.E l.Q #.a.@ 4.Z.t l.k R k %.eX+.P.x tX8 l R 6.).p 7.%.0 K.=.0.b.h ! 8 6X%.F.c :XD.m l.6.{.5.w.Z.- a.w.:.).m _ b P.u.8 ",
"0 aXT.; Q ( :.V.! s  .f k l.Q n J 5 @ P.B.. ;XB.- h H N 9.).8.m r L v.{.N j l . t.yX@ M.fX; b R F 4.).z.c t L 0.).q.K R 6 d 6X%.",
"n.:X@.f.m j.F M 9.b.4.! ! 4.L _ 6.s f.t {.R 2X3 (.7 E W R 4.n.y.6.h.j.7.~ z.v d.c XXV.3X#.T.7.M J j 4.l.L.4.J.l.N K _ N 7.>.t.2X",
"v.*.A.a.t.n l ' %.i t 8 t z._ %.N n B.S.5.) 6 A.Y.:.n h H.0.r $.:  .e.`.E v N 7.F.+.H.a.<.=Xx M 7 Q W e &.y -.8 n.9.n n v W.p z.",
"B.b 7Xr.3.d.4 8 B.&X7.' L.5.  %.f.8 D.yXt M.+.8Xf.,.T.:.; F.sXV.5.$X9.c - f.7.7.tX<.^.$.:X.Xc F.e.X N L.n.%.0XXXc 0 p.s.b .XN.e ",
"- Q J sXB.8 >.7X:X:.r p d.5XQ.c w.;Xc.H e.% E.C 2XwXr.*.eXgXD.f y q.;X:Xc t Y.&XA V.X.e.( c.6Xg.8 P.9X9.&.- *.:X8Xa.f ^.rXG J &.",
"1.).Q M 4 .XdX5.t x.y M 6.e +XgX5.#.j.l.-X@.3XH.r.o.D.dXB.r p.%.+.0.d t.9Xz.5 5.V.2X=..X).K.t h %Xm.t N 8.- M.&.&.:XeX>.-.C.G.P.",
" .$.- 4.T ~ ; f.'.H >.E 1 N.p e.c.V.y &.-.: 2...>.h.v.b p ;X_ m.>.Y l.s d T _ t.: =.| y O.y ~ A n . -X_ F :.Q ` W.q D.] !.9 $.t ",
"..E.b d F `.4.1.z.b.=.E T L c R.l.L t t.F.q E.Z.$.8.,Xf.+.K.h.0.1.] V t N V.6.+.1.OX=.%.7.9 z _ ].%.+.h.#X<.'.j.N t %XV.:.8 5.N ",
"+.{ W C.+.%.tXP.c 1.X.f >.7.6XK.8 N v.( -X..%X` OX>.b ;X;Xc >. ...>.h .X.X#.&.;Xh.G.+.0.G ! f.p 6.iXR.>.-.: -.+.R.8XB.o.a.' ) I.",
"r E H 6X!.g.e XXkX.X+.N .X&XB > 7.N.v.v.5. .t.v.$XK.d.t 0.rXoXq.#.L.5XE - d.Y.XXH.B.y c _ _ N.K.1.9 #XdXOXc XXtXwX .>.Y.#XW R p ",
"i.u rX+.u 7.+.#.t.R.b ~ 6.v 7 b z > B.uXf ;Xf yX7.5 N i d 5.C.q.7.N.E N b 4.N b yXw.OXN D.P.> x ,.i :.7.0.b XXt.w.f e.e.> W.i.c ",
"T x Y.a.4.a P c.:.$.r %.b E ( z j g N.#.0.` j.+.K.M g j ' E m $.y c m l.h.7.E ~.Z.%.k.v.d D.s N M ) l.>.&.r c +.'.( 4.a.B !.x b.",
"l.P.u T.f W 9.L n.n.q.~ ] l.N W K x p.+.8X4.uXN %.d K P m h.c.z.R / l.6.j._ N A.t 7XM.&Xt.<.5.k h.n n l.b.7.H.H.q.K W k e.<.W.&X",
"5 I.%.3 D R 0.`.0.f | d &.V.n.b W K @ :Xu.+ t.9X- F D 5.b.V.&.y ; e L `.6.~ 9.@ W.:X@ +.dXt f h.4.9.Y N y ; +.t.}.e.l F t #.6Xt ",
"B.m I.x h.4.b.&.w.=X .s.Q.o.l.Q 6.z.r.tX6 ;X+.#XB.h.9.z.9.@.W.w.O.-X&.5.J.N y.7.sXc ;Xt.B.:X3.h.z c.5 :.s.4 R.e.m G.N ~ x 3Xt.N ",
"W x K.9.t v.K 3.[. X=.N.I W.>.G.9.t $X7.h k.R.&.dX+.E _ i L./ B.$.] oXe.z.~ 8 ].6.g H x.y 8Xs.b ) a N ) W b b.] %.q.c.7 E %X7 h.",
"F n %.n.-.P.8 M.V.W.O.e.l.I.#.l.l.<.].i P.j.+X .-Xw.E R c U.l.4.t x.U.g.M 9.8 n.8 d.F x.+.z.R.N l.t B.c.B.y XXn.:.9 ! i L.Q b x.",
"x ; 0 d q 5.y e #.c } q #.y O v #.9 >.% #.w.@.X.%.r x %.+ t i ; & 8 y @ 4 h X > X 4 %.x ; y d 3 M r y 1.@.$ r &.3 - V X s 8 X 7 ",
"x.7.%.L.+.] 5.:.l.XXo.A.v.;X$.~ 4.B y.i P.R XXf 2XZ.K ~ p .Xx.e.<..X.X7.k _ t H.f N.9..Xw.m.B.b ] #.qX{.R.e a.n.K.> Y u x.M %.~ ",
"! %.3XN.d R Q b / ] =.z./ N.#.H.M N |.v ~ A 7.:.1X%.N ] i x.S V <.[ n.%.h.R 5 #XN.&.F v.$.fX0.d n.Q s.G.].&.v.c.v g ! 7 ^ $Xb l.",
"u.%.@Xt ) g ' l x P.w :.!.t l.l.0.Q B.I.t 6X- 6Xt.z.0.R l.6 i.a w Y.#.N ] 4.V.b gX$.XXs.s.yX3.l.4.c.b 5.Y.r Z.%.b l.M _ 7 I.d.6.",
"w ;XM 3 R 2 v T E 6 ; e 7 F c.%.( n ; 3X5.$ a.6XO 8._ q.`.l.n 6 0 b h.H.,.F K $ R.;X- y kX*.6 ) n 7.`.m.%.4 c 9.l.6.k J 4 8 :Xt ",
".XXX#.d.N T D M T T B Q ] K N T ^ b g.w.sX4.0Xb s.b j.h.4.0./ z.m.c.l.M L h.n g.0 @Xz.3X+X+.:.k W L E ! H.N H.k.L K z.N e.,.0.;X",
"J.&.Y.B E k j c.N i 3 8 b 9.Y j 9.m Q.$.u.) 0.#.Y.3.L K v.7.t +.;.-.q._ K 4.L f.A.#.( l.f Q.4.4.g ( l.d <.4 -.$.L.! L q.x d.c v.",
"s.b @Xx ,.7.i x 0.U.v Q C.5.5 b 4.b a.=Xr :X .yXe.8 7.>.c 5.XXj.5.U.5.c s e.m 4.rXp B.:.s.eXc L L - x z.OXs #XE.e.0 w.e.#.P.!.b ",
" .Q Y ;XQ.,.7 I.eXy.3 N 3XhXN 8 T.:Xl.) t.0 r.H.L.#XT.4 E hXoXm d N.9XB.4 e.d.l.H E w +.h.n.=Xp.c s >X3Xu.6 j.eXyXw.+.Y.rXW W &.",
"=.G.l.B.c 4.6XN.8 ,.@ o.$.>.6XK.8 7.l.< .X .XXH .X7.3 I.#X+.$.b ; >.t x.;Xz 7 ~ J b.O.M.( ! B.t N.%Xq.+.b # <.c 7.dXC.y B.l.( W.",
"y B.+.c Q `.#.t x.[.<.N.).t.e ;X).a 3 ^ C.4 =XE.t h ).d.0 s.b.K.%.] l.7 ,.U.l b 5.N.y :.L.y $.v.$X0 5.b.'.-.P.n.e.y 2XV.5.y s.>."
};
