/* XPM */
static char *Tile_24_128x1281739968840[] = {
/* columns rows colors chars-per-pixel */
"64 64 190 2 ",
"   c #4027479C3DE8",
".  c #45DF4D2C4451",
"X  c #4AB04ED846EC",
"o  c #47524D154AB0",
"O  c #49584F5C49FA",
"+  c #4D3F52514B41",
"@  c #51C355274DA2",
"#  c #5395596D4EAB",
"$  c #44E04BF75351",
"%  c #43CC4D1E5878",
"&  c #4E43552C516D",
"*  c #4BA853E55CBF",
"=  c #524656CD52BB",
"-  c #5807574C4FE3",
";  c #543A5A075433",
":  c #59CE5D2E54DF",
">  c #52BC56625802",
",  c #55685B6C5AFC",
"<  c #59FC5E365B4D",
"1  c #5B4C60D05691",
"2  c #5CA1621E5C1D",
"3  c #5F366D9A5EB2",
"4  c #619B65C95CAF",
"5  c #686D67E55E1E",
"6  c #62B26A6A5F35",
"7  c #6A5F6A5C5EAE",
"8  c #4C3456396396",
"9  c #4EAD586F6552",
"0  c #4E2059816932",
"q  c #55055CB56390",
"w  c #594C5F0C630E",
"e  c #52815D4A6B9A",
"r  c #585F5FC0690A",
"t  c #53865F9B7057",
"y  c #5C9863606393",
"u  c #5EC2692164AB",
"i  c #564460996CF5",
"p  c #5BCC64176B88",
"a  c #5ECA695A6C65",
"s  c #55F962117292",
"d  c #59BF650D743E",
"f  c #5E5A690F7513",
"g  c #59D566CA787F",
"h  c #5D3269DF7B21",
"j  c #61D9662B62E4",
"k  c #63236BD36399",
"l  c #6AC96CDE64B2",
"z  c #60B266B4699A",
"x  c #64486C166C06",
"c  c #69F96DE46C4E",
"v  c #6579721064F4",
"b  c #6B10722C65C9",
"n  c #660F71B26C18",
"m  c #6B7B73A06CBD",
"M  c #6D1F79EE6D50",
"N  c #70836FF7651C",
"B  c #727C76666C8B",
"V  c #78A877EC6EA6",
"C  c #74D07C1A6C97",
"Z  c #7DEB7CEB6C88",
"A  c #61C767CF7052",
"S  c #64516C8873F9",
"D  c #68F76E9D7300",
"F  c #63096D877AE8",
"G  c #67F46E5578BE",
"H  c #670C71167569",
"J  c #6BB873F173E4",
"K  c #6DD77AB5753B",
"L  c #669C710F7B2E",
"P  c #6C20746F7B57",
"I  c #6E277A4C7BB5",
"U  c #714675A074BE",
"Y  c #72E37BAB74A0",
"T  c #7B9F7CF67482",
"R  c #719D76907B9D",
"E  c #73F27B767CC5",
"W  c #7A6A7DE77BB5",
"Q  c #80EA7EA56DDD",
"!  c #80B57EFB7230",
"~  c #762C81256FD6",
"^  c #76A282C57671",
"/  c #7C15839C759C",
"(  c #746483107BD4",
")  c #7AEC83F17C7D",
"_  c #7CF989C87C87",
"`  c #839081DD7339",
"'  c #885985C5757A",
"]  c #814E87307A3E",
"[  c #80FD8C837F32",
"{  c #610E6E498073",
"}  c #6ADF75AA8221",
"|  c #6ED6796A8207",
" . c #687F76598998",
".. c #74767C6F82D4",
"X. c #79947EC083C5",
"o. c #770C7F2A888D",
"O. c #76C382A284A1",
"+. c #7B8A83178462",
"@. c #7E688A97847F",
"#. c #774F80C78986",
"$. c #7CE684368AC5",
"%. c #7E5589718B71",
"&. c #7EA58612902C",
"*. c #7EB98AD791A2",
"=. c #820E85D784AC",
"-. c #82B88D1D863D",
";. c #8BB88E3E8789",
":. c #829686FF8C82",
">. c #84768BF38BC2",
",. c #8AF98D418D5B",
"<. c #850890E08B0F",
"1. c #8BC494238E29",
"2. c #95D696C88BE4",
"3. c #94CF95EF8D65",
"4. c #82BE87EF90DE",
"5. c #850C8BF792F7",
"6. c #8A868E9693DE",
"7. c #8A248FC09986",
"8. c #8677907C90F0",
"9. c #8DAC942D9338",
"0. c #8F43986F9195",
"q. c #869D90A49E9B",
"w. c #8D1493479A89",
"e. c #92B9951794D8",
"r. c #997A977896BD",
"t. c #932E9ADC94A6",
"y. c #9A4198F796A5",
"u. c #922895EA9ABD",
"i. c #95EF9A239D57",
"p. c #9A739BF89D61",
"a. c #A1839F689E37",
"s. c #9C68A1329C7D",
"d. c #A3ACA25F9D76",
"f. c #959A9AEDA21F",
"g. c #9AE39DDBA25E",
"h. c #99889F7EA98C",
"j. c #A1299F46A056",
"k. c #9DABA1F1A463",
"l. c #9E43A293AA37",
"z. c #A303A477A4CC",
"x. c #AA3BA708A189",
"c. c #A522A9DFA740",
"v. c #AD45AAB3A4A9",
"b. c #A473A622AA13",
"n. c #A8EFA7E7AAB5",
"m. c #A737AA51AB4D",
"M. c #AB4DAC73ACF7",
"N. c #B0F8AD30A713",
"B. c #B25BAF30AA8D",
"V. c #AF16B162ACCA",
"C. c #B2F8B2C5ADC6",
"Z. c #A583A9FAB2A9",
"A. c #AD0FAE4DB22C",
"S. c #AC3EAFCDB8A3",
"D. c #B0D5AF50B1DB",
"F. c #AF4DB0C4B331",
"G. c #AE6CB1D6BB42",
"H. c #B3CFB404B4E7",
"J. c #B90EB77AB33A",
"K. c #B718B8AAB381",
"L. c #BBB3B9FAB5D3",
"P. c #B584B68DB93B",
"I. c #B940B748B9C1",
"U. c #B7B4B8F6BADF",
"Y. c #BBD6BB9FBCC0",
"T. c #C142BEE0BEF8",
"R. c #BFF2C066BD1C",
"E. c #C348C09ABF99",
"W. c #B4DFB815C0DE",
"Q. c #B4FCB961C3B7",
"!. c #BE12BE89C217",
"~. c #C152BF69C106",
"^. c #BFB8C0FEC2A3",
"/. c #BF87C1F6CA65",
"(. c #C4CFC380C46E",
"). c #C9A5C6BBC70E",
"_. c #C661C5CDC9AB",
"`. c #C9F5C7C6C945",
"'. c #C6CEC862CA53",
"]. c #CCACCA60CB1A",
"[. c #D201CDDACE81",
"{. c #D045CF11D40D",
"}. c #D352CF88D140",
"|. c #D62CD1CDD30E",
" X c #D9B6D53AD637",
".X c #D0F9D1B2D8CB",
"XX c #DBC8D776D92F",
"oX c #DE44D9FCDB66",
"OX c #E259DDAADF4F",
"+X c #E7D4E270E360",
/* pixels */
"F.k.p.0.L ( n K a 1 ; : 2 W g.i.i.5.H.).].!.) / Y l a p y p H #.#.P p p x } h g i i s.t.s.t.u : . + H m.J.C.B.>.e.9.9.I ) _ _ @.",
"Y.R.R.m.I K K K a & & & , ..g.i.g.w.!.].(.A.=.6.$.o.6.g.F.U.U.(.R.I.P.F.i.A } I L i ,.>.e.=.z 2 & : x C.J.C.H.R U x l j ^ ^ _ -.",
"E.Y.L.>.n H m K y a K a y 5.k.i.g.7.D.Z.g.h.b.Z.P.'.].).Y.(.].(.).(.(.].Y.A l.A.b.5.I H J +.m 2 ; > p M.J.J.K.W j 4 4 4 u ^ _ 0.",
"C.x.=.k 2 y n K K @.k ^ E u.g.i.u.:.6.g.A.U.'.).].].'.(.(.).'.).(.^.P.R.M.f H.U.U.U.H.k.+.D r p | %.*.p.K.K.L.r.5 2 : 4 4 u K 1.",
"K x 4 4 4 6 j x ) K k y P k.i.w.w.b.U.Y.~.Y.T.).].].(.).).(._.Y.H.H.H.I.r...Y.Y.U.Y.Y.U.F.b.>.H O.i.t.w.V.C.J.C.B 4 2 4 6 J L K ",
"( 2 4 4 4 l x H M M ) ^ %.i.6.i.P.].'.Y.).~.T.~.Y.P.k.w.>.) / Y M E W ^ D F b.A.H.I.Y.R.Y.!.!.b.S p 6.9.z.C.C.L.p.k 6 u n ( ( _ ",
"( k 2 4 7 k H ^ @.M ^ J 6.6.z.(.].].~.~.T.~.J.j.p.p.L x v v v v b v v v n Y K E $.k.F.U.Y.!.!.Y.P.6.P O.,.J.L.J.J.e.u u ( ( ( ( ",
"( x 1 6 j Y @.Y [ [ m D g.S.].].).(.(.I.j.p.a.a.v.C.=.D b 3 3 k 6 3 6 3 3 v M v k v K i.F.U.U.Y.P.I.l.O.S u.L.L.J.J.t.( ( ( ( ( ",
"n a u K K _ -.^ Y _ =.f.H.`.(.(.T.D.n.r.a.v.N.v.N.N.e.p M v b b v b v v 3 3 u 3 3 3 v M +.t.L.Y.H.F.Y.F.6.R z.L.C.C.J.C.e.+.k x ",
"v n n ^ K M _ ) M W g.P.Y.(.Y.~.D.r.a.x.v.v.x.N.N.N.r.> n x k D x y u v v k v 3 3 v n C Y n R M.U.F.F.Y.P.=.J z.L.J.N.J.Y.B.H M ",
"( ~ M v v K / M =.g.~.(.Y.).T.z.r.x.v.v.v.v.N.x.y.r.p.g.Y.Y.w.M.H.,.%...f E x k 6 n M M M 6 % | k.H.F.U.P.F.%.J e.H.J.J.L.s.M ~ ",
"^ ^ _ ) M M j R l.!.(.).).(.z.y.v.N.x.v.v.d.a.=.S.D.`.OX X!.!.`.`.].[.6.5.g.u.5.E M M Y n % L s.+.w.P.U.P.P.F.%.z e.z.C.R.1.K ^ ",
"~ ^ Y M a q p h.Y.(.I.T.T.m.z.v.v.v.N.x.r.j.I.n.b.~.}. XT.(.[.[.[.[.[.,.w.p.i.g.k.6...n y P 8.s.t.O.1.P.H.F.Y.F.X.f.A.e.t.W Y Y ",
"t.w.F q y y $.S.).).Y.I.z.z.v.v.x.x.a.a.P.a.:.E ,.Y.I.H.H.].).~.~.T.T.o.g.g.f.g.p.u.i.w.L 9.>.m +.s.E >.F.U.U.Y.z...n.I.~.S.g.:.",
"|. Xg.q q r f.).).(.~.p.a.v.v.v.N.a.$.~.}.P.P.W.Y.].D.e.%.w.8.t.u.w.,...$.,.i.g.g.i.u.g.i...J >.-.s.0.P w.L.U.Y.Y.6.=._.}.|.`.A.",
"}.|.Y.F S 4.(.].(.(.x.y.N.v.v.N.r.r o.T.6.G.OX~.i.g.z.M...k.c.c.M.m.c.m.k.w.=.>.i.k.i.g.g.g.>.9.1.t.t.t.$.g.H.H.I.P.o.g.|.[.H._.",
"|. X~.R 7.!.`.`.(.D.6.N.v.v.N.a.n.Q.7.$.b.j.I.h.k.V.V.K.1.i.m.m.V.z.s.c.m.c.c.s.6.4.u.g.u.p.g.4.:.0.s.0.,.-.g.M.P.Y.k.E S.~.I. X",
"p.e.6.o.g._.`.`.~.:.A a.N.N.r.M.|.|.j.!.`.u.g.D.V.V.V.C.p.w.F.M.V.m.c.c.V.c.c.c.j...4.r.g.i.i.g.9.-.s.1.-.1.=.Z.P.Y.U.:.J u.5.p.",
"x.+.D u.n.Y.].`.M.f.5.r ! a.6.].[.T.j.Y.i.c.B.B.V.C.C.M.t.I >.8.8.O.>.p.k.c.k.z.,.P.~.7.6.g.g.i.g.=.<.1.) $.>.u.P.U.U.c.P u.p.=.",
"p.d.| g.H.(.].`.h.H.D.g.G q j.`.T.r.R u.m.V.v.M.C.v.,.I P ..| L O.H L O.( -.p.9.h.{.OX~.7.u.g.u.f.u.) -.) t.t.,.H.H.U.P.>.=.,.,.",
"r.e.w.b.I.].].F.Z.I.G.A.u.u.T.I.P.H.,.c.C.V.C.V.t.E L I I I | I $.O.I -.-.@.J P ~.|.}.OX~.f.u.i.u.i.6.+.E -.-.-.k.P.H.U.p.E p.x.",
"p.e.p.D.).].(.k.H.P.I.D.u.g.T.|.[.p.F.K.C.C.v.>.P ..+.D E H J I $.O.O.-.@.@.) E u.].}.{.{.~.4.p.i.i.g.>.1.,.z r E U.U.H.M.O.e.s.",
"%.=.z.P.Y.(.A.m.~.P.!.j.G.~.H.~.x.r 9.K.K.M.+.S E O...I ..S e L $.H @.<.-.@.@.) X.6.~.!.~.~.n.6.p.u.g.u.>.=.q J I m.R.U.H.w.S p ",
"w.u.m.I.P.Y.b.P.~.I.D.j.|.XX[.T.P 0 q E d.w.%.E S ....O.H p #.Q.U.Z.u.@.) ) -.-.-.+.6.~.j.I.}.p.u.i.u.g.E p 9.>.J >.Y.P.Y.b.#.P ",
"..6.!.Y.T.H.g.Y.A.P.b.P. X}.OXj.0 t t 8 r %...p h F ..P I L i.XX XXX|.~.=.J >.-.@.-.@.c.6...I.D.$.g.f.k.9.E >.W +.P P.!.!.H.I $.",
"6.$.j.H.Y.A.b.H.M.P.i.M.[.}.}.X.8 e t 0 } E S  .%.E O.O.E I 8.'.[.'.].T.W j m <.-.@.-.1.f.4.4.5.G i.g.g.i.E t.u.=.z A.(./.Y.R #.",
"4.| f q S R P.Y.H.I.g.4.D. X~.r 8 e d t p 9 E O.O.| I I O.%...~.].}.[.e.b b k K @.( @._ g.4.w.Z.g.u.k.g.p.X.W c > e u.~.Y.I.$.S ",
"e.X.G 0 t L !./.D.M.R ,.e.j.6.e 8 9 t S } 9 p :.p a S O.>.I { l.p.p.z.B 7 b B l ( ( @.@.+.u.X.j.T.:.z.g.k.X.P q.Z.G.u.Y.Y.Y.w.j ",
"e.S 0 o.h.h._.!.H.b.7.f.7.o.t 9 0 8 e F P S ..D y ( J p R 6.k.m.,.j < 7 C b V B J ) @.<.) :.e L o.| j.g.p.w.H.oX X}.b.U.Y.^.k.y ",
"$.8  .f.M.Z._.!.D.g.`.XX X].G 8 8 0 9 A A z P r A ] / J #.!.Y.H.! - 1 < V N l l z ) @.-.-.L *.8.>.%.g.g.f.i.A. X|.|.A.P.U.P.B.x ",
"5.F S.S.M.j.`.!.A.g.`.|.}.].G 0 0 0 e ) J u u 9 r / _ W &.H.T.L.T - - : < z +.1.E @.-.@.<.O.9.-.>.O.i.g.p.i.m. X[.|.Z.H.Y.P.H.G ",
"4.q.I.H.g.p.!.H.P.g.).}.}.~.A 0 t t d W b 1 4 L f y B J >.u.x.x.l - - - X.M.v.J.p.@._ -.<.O.>.-.<.X.f.g.g.f.l. X|.oXA.A.P.H.M...",
"o.L R O.$.5.6.p.M.u.~.}.}.~.p e g g F ] l # : Y / J B J 3.2.2.2.e.=.T c =.B.d.v.,.>.-.-.<.+.<.%.<.O.p.g.k.f.k.).~.z.4.8.#.S L ..",
"x u < y p p p z R R M.).|.`.G 9 t g h W 2 1 1 u O.>.e.1.;.2.2.e.j.v.C.x.g.C.d.v.;.J U ) +.O.<.%.<.$.g.k.p.w.7.w.P r y a y y j x ",
"= = + = z > z < , , D X.u.~.o.e e { h M 3 2 2 E m.c.v.M.=.2.2.3.d.B.C.=.e.v.N.N.;.T T U m O.-.-.,.O.u.w.$.E x y < , , , ; > + = ",
"; = & & < * 2 @ @ @ - w > r p e t d d J b 4 6 l p.v.M.C.z.W =.6.a.a.;...X.;.a.a.! ` Q ' T %.-.-.-.o.o.J y > & & & + + & & + > = ",
", , > ; ; * 1 + X X + @ : , p L d s s A B 6 6 1 E c.v.V.x.P.Z.j.f.#...%.:.} X.W ! Q Q Q E >.%.@.O.P y & & O o + & & = = & & 2 2 ",
"1 < > & * * ; @ @ X X X X @ - j r e d e m l 2 : 1 ,.V.v.Z.}.|. X].#.4.9.$.A G T Q Z Q T @.-.%.P y = & & & & & = > y , > ; ; 2 , ",
"4 1 1 1 5 j , = O @ @ @ O X X - < w E F y b 1 # 1 j ,.s.`.}.[.[.).6.w...F } W ! Q Q ! U %.#.a 2 = & & = & & , u ..6.f u 2 1 2 2 ",
"1 ; 1 1 : 1 : 4 < , = @ @ @ O X @ # j X.S u 1 # : 1 u E H.]. X}.|.i.D S ..W ` Q Q ` V P O.y 1 & & & = > y I w.k.b.F.O.2 3 ; 1 1 ",
"3 1 2 : 1 : 1 : : 1 4 2 ; + = X X X @ : R R j : : 1 4 6 k W e.a.a.E A Y ` Q Q Q ` ! X...2 > + & = = w X.g.M.b.b.b.m.6.y u 1 4 4 ",
"u 1 1 < 4 2 1 1 1 1 1 1 4 2 & < - + + X : U U k k 2 1 4 k l m ` ! ` ' ` Q Z Z ` ! =.E y = & & > , D u.Z.m.b.b.z.b.M.i.y 2 2 y u ",
"0.,.1.J D $.x 1 : 1 1 : k j * 8 < : + X @ - c R ; : l U C m B Q Q Q Q Z Q Q ! B +.E < ; & & = w o.z.n.m.m.b.b.z.u.>.>.O.@.1.1.9.",
"0.0.t.+.l.(.A.c.+.j 1 6 l 9 e e e w - + X + : E J c c B T J ! ` Q Q Q Q Q V T E ..y ; = & & w 6.m.n.b.b.n.g.1.+.:.1.p.t.1.1.t.t.",
"1.1.t.o.P./.!.).(.F.6.x > 0 s s t e , - + X @ > =.j.b.X.U D ! ! Z ! V V Y $.6.O.< = & & & a u.m.b.b.b.b.e.:.>.1.0.t.0.1.0.t.t.t.",
"t.e.1.o.!._.).(.(.].].S.G 8 e t s h s q - X X @ 2 6.~.~.H.b.e.;.;.e.W $.0.1...y = + & > a h.b.l.b.b.p.$.>.0.0.0.0.t.1.e.1.1.0.t.",
"Z.p.i.4.g.M.Y.(.`.].]._.U.5.e 0 s  .F e w : X X @ z j.T.~.).).T.T.T.a.+.0.x q ; & + & y u.b.b.m.m.e.=.9.0.0.0.t.t.0.-.E J w.i.Z.",
"].[.}.`.Y.A.g.c.~.}._.!.Y.H.u.s t { F d 9 < ; X X > W j.T.T.).T.T.~.B.R -.w < = & & y 6.m.m.M.A.e.$.9.0.1.1.t.1.-.P ..w...~.].[.",
").].).).].[.~.T.j.j.~.I.D.P.~.b.d e d g t 9 < @ X @ 4 ,.B.~.).).(.].Y.P #.u , + = < X.A.M.M.m.9.>.t.1.1.0.t.@.+.6.L 8.k.#.P.].].",
"].[.[.`.~.].[.].T.G X.M.I.I.Y.(.g.e t d g t r , X X @ U :.u.i.,.e.i.i.#.P , & & y p P p.Z.Z.i.%.t.t.1.t.e.O.o.P E $.f.f.>.Z.].].",
"S.g.p.B.~.].~.].6.w - c z.H.P.Y.(.7.e s g d d j - X X , $.>.<.-.-.,.8.>.2 & + , z r t d =.g.>.0.1.0.t.<...P w.O.#.h.t.8.$.4.A.Q.",
"S.p.D z c e.T.N.z - . o y b.I.Y.(.!...s g f s d < @ X @ J 1.1.1.<.1.>.J ; & + u d s d e 9 G 0.1.1.e.0.%.6.$.>.4.t.8.5.w.Z.!.~.'.",
"}.H.r 2 , > D A = .   . + D M.Y.(.`.G.h g h d s j - X @ < ,.-.,.0.1.+.2 ; + , p e s t e d 8.t.0.t.1.I $.$.#.O.8.f.j.~.OX{.m.f.S.",
"+XI.j 2 : < > > + . . + # : X.Y.(.(.).6.s h g d p < @ X - X.>.>.1.:.E = & & 2 q 8 e 9 8 ..p.9.0.e.E | P } P L u.!.OX}.OX].W.}. X",
"Y...q < - @ @ @ = & = + ; : < p.~.Y.!.H.F g g g e 4 @ X + c R y > P D & & & w 8 0 e 8 9 1.1.1.1.) i F 4.f.7.7..XOX~.6.H.Y.j.Y.Y.",
"$...S < : > X - : > + + + ; : c Y.(.'.].4.e s d e q ; X + j X.x u o.u & & : w 0 e e 8 F t.1.1.1.x k y P =.7.Z.].~.S.6.4.w.W D #.",
"@.@.$.%.w > = - : > > o @ - = > p.'.(.`.m.e t s t e 2 + @ ; D x x ..y = + 2 i d s s e >.0.1.t.) 2 1 : y F ~.}.5.{.{.j.R N l c =.",
"O.@.+.+.j > + - > : : @ = - + : J Y.~.`.~.F t d s r 2 + X : > p R o.w w 2 z s g s s f i.0.1.1.x 2 ; & : u. XXXS.}.j.N N l l c ..",
") %.=.D y : = > < < < , , 1 ; : y z.(.(.~.4.0 e s s w @ + - q I 5.| r > * q s d s e ..s.0.t.-.u = & - x Q.].}.P.j.R N 7 7 7 l Y ",
"O.J U r y y j w < w j < > 2 : : 1 6.).(.Y.u.d P E O.< @ + @ < u.Z.J c j z i s s s s S E @.e.E 1 & & , 5.XXXXH...o.D l 5 7 7 D #.",
"k.O.J y s z y j r z j : ; , , , r $.'.!.Y.m./ ' / C 1 + X X , =.p.j 1 4 5 p t s d s #...I y 9 ; + + 2 8.[.~.#.q.k.i.+.6 l u._.].",
"s.@.1.| 0 q w , > < - - < S 7.f.h.w.Y.I.T.Y.E ~ C C 4 + X X : ..5.4 - - 5 p s g d d s.>.0.S y 1 & 1 u $.w...{ 5.k.l.c.>.i.}. X|.",
"s.<.1.<.d i u z q , @ X < #.l.p.k.6.M.I.).Y.Y ~ C Z k # O @ j ..:.l - # j S h h i i 9.e.%.O.y 1 & ; S b.F.A.w.%.s.k.c.w.!.[.}.}.",
"K 1.1.*...O.E ..x - X - $ I k.i.p.5.M.!.`.!.Y ~ C ~ c ; - : c $.7.T 4 4 c S h h s d c.s.1.s.u 1 + @ H H.Y.L.V.%.i.0.e...>.z.D.~."
};
