/* XPM */
static char *Tile_13_128x1281739968839[] = {
/* columns rows colors chars-per-pixel */
"64 64 52 1 ",
"  c #1E2C1D511BD2",
". c #202B1F4B1DC6",
"X c #216720801EED",
"o c #257A247B22BF",
"O c #2838272E2562",
"+ c #29A4289026B4",
"@ c #2CFA2BDC29F4",
"# c #304B2F272D3E",
"$ c #31D830B02EC1",
"% c #35313405321A",
"& c #386F373B3543",
"* c #39E738BB36CF",
"= c #3D4B3C3C3A77",
"- c #40663F3B3D4C",
"; c #41C340A13EBA",
": c #44EF43D341F5",
"> c #4872474B456C",
", c #49FF48C046BC",
"< c #4D504C264A44",
"1 c #50474F254D30",
"2 c #5225510A4F33",
"3 c #54B2537F518E",
"4 c #58B857775579",
"5 c #5A2E58F456D4",
"6 c #5CEC5BAD59B2",
"7 c #600D5EC85CD8",
"8 c #62A161645F60",
"9 c #BACBB820B442",
"0 c #BE8DBC18B826",
"q c #C1C7BF2CBB0E",
"w c #C72DC566C2CD",
"e c #C913C702C3FE",
"r c #CC42CA02C65D",
"t c #CE2ACCBFCA87",
"y c #D0F6CF01CC1B",
"u c #D38BD1A5CEC7",
"i c #D694D577D3A6",
"p c #D942D767D488",
"a c #DC7BDA69D737",
"s c #DE35DCCDDA85",
"d c #E1AADFD0DCFE",
"f c #E329E199DF23",
"g c #E723E6A0E5BE",
"h c #E8F2E7D4E5E2",
"j c #EA1AE936E7B8",
"k c #EAECEA82E9D2",
"l c #F135EF9BECFB",
"z c #F387F1E6EF38",
"x c #F66AF53BF358",
"c c #F916F7C4F597",
"v c #FA89F956F757",
"b c #FF61FF38FEE4",
/* pixels */
"+++$&&$+$++X#%%;gbbbbbbbbbbbbbkp:+++O+@&@oOoo++=pvbbbbkvbbbbkbvb",
"&$%:=$#OXOOX#++;gbbbbbbbbxxbbxkk<&==&$%::&%@$$+&pvbbbbxxvbbbbbbx",
"&$#@+OOO+X+++#O&pbbbbbvbbvbcbzbk3%%$%%=;>==$+oX=sbbbbxjzkbbbbbvz",
"@@@@@OOO@#%$XXX;gbblxxhbbbbbbvbj:$&%@+@$@o+ooXX&ibbbbzuzbbbxbbbb",
"@$%$&&&-;-%+++X;ivbgxvgxbbbbbbbj:$$@+++@+O++ooX=gbbbbvvvbbzhbbbb",
"+@$@+$&;-;&$#XX-ibbixbbbbbbbzvbk;oOooOoO$++@ooo-jbbbbbbbbblkbbbb",
"+$#+++++@&--&%$-abbxbbbbcbbvxbbg=Xo+++@+$%+@@oo=gbbbbbbbbbhlbbbb",
"#$@++@@+#&%$$%-;sbbxbbbbbzbbbbbk=o@@@++o@$oo+Oo=fbbzvbbbbbbhxbbb",
"%=&$++O++X#+X+X;jbbcbbbbbzbbbbbj=X+OoOoo+@+Oooo;rhxxbbbbvbbjppvb",
"&%$%%#@++XXXX+X;jbbbvvbbzgbbbbbg=oooo+Oooo+oooo;exbbbbbbbbbbllvx",
"@@@@$@+@#++++XX;gxcbbbxbvbbbbbbg=oo++ooOO+ooo+o;jbbbbbbbbbbbbbbb",
"OooOo+ooXXX+X+X;jbbbbbbbbbbbbbbg&Xooooooo++o@+o=jbbbbbbbbbbbbbbb",
"XoXoXoo++@OXX#@-jbvbbbbbbbbbbbbg=Xoooo+Ooo+o++o=jbbbbbbbvpfxbvbb",
"ooXXXX.oOOOO+XX&jbbbbbbbbbbbbbbk=+$+OO+OOoo++@o=jbbbbbbbgsvvbjjv",
"o@+X    .XXXX..&jbbbbbbbbbbbbbbj&o+@@oO+ooo+#++;jbbbbbbblvbbbbbx",
"&&:=&%&&$&&==&&2ijjgkgggjjgkjgji4::;:;==;:::::>4tjjjggggpgggkjjj",
"jggjgggjjggjjgki<====**=-&=-==&1yggkkkggjggijkki3:=-=*=:=====*=*",
"vbvbbbbvvzbbbbbg- X.XoXoXXXXO+X-jbbbbbbbbbxsvbbk:+++oo+%+OoX.XXX",
"vbbvbbbkxvbbbvbg=OOOoooo+###$;=;gbbbbbbbbbbkxbbk<=%#ooOO+OOooXoO",
"bxxskbbjxbbbbbbj=O%#@#$%+XX++&%,kbbbbbbbbbbbxxbj;@%@OXoOOXoXooX.",
"xxbxibbkvbbbbbbg=O%==&$@#XX+XOX-fvbbbbbbbbbbxpvj;@@Oooo@=$%&&%%@",
"bbbblvbbbbbbbbbk:+@%&;$@@X+X+XX-fvbbbbbbbvbbbgxj;+OO+O+=&*%%&%=&",
"bbvkbbbbbbbbbbbg-+@@$=:%X++XOXX;jxzbbbvlfdkbbbxr=++O+O%:==#@@o#o",
"vguxbbbbbxbbbbbd=+%@@%=%#X++X+X;jbxbbbxlxxgbbbx0=@@@+O$-&#OOoO+o",
"ajfvbbbbvzbvbbbg=oOO+&-=&$+OO+#2kbbbbbbbbbbvbbbg:+#$%$%=#oo.XO+@",
"lvbbbbbbbbbzcbbk-O+@$&;=&;&+O+%<kbbbbvvbbbbxlvbj;O###%*%@OXXXOOX",
"bvbbbbbbvkbbvvvg;+##+@%=:&$$+$+-jbbbbzxbbbbxdbbj<*=$&%+oOOoXoXXX",
"bbbbbbbbzjbbbbji;+@@@#%:<$#$$#O;jbbbbxhvvxljfvbj41:&&%#+OOOOOO+O",
"bbbbbbbvvzbbbbbg:+@%%@@%&$@#$$@;gbbbbbvxvbvbbbvs<*$$&**$@#%%$@@O",
"bbbbbbbbvdvbbbbf;O+%=%@@#@$&%%&;gbzxbbbbbbbbbbvi<#$*;%#+@##+oXXX",
"bbbbbbbbbvbbbbbg=O@@@++++#&-&&;2kbbzgbbbbbbbbbvg;X+#&#$##OooOXXX",
"kggjgjjjgtfkkgfi3:<:::::;;;:;;;3ijjawgjjawwjkgki2=-;;;;;>>=;>:=*",
"==-;-=*==&=-;;=4wakkjkgggkkfwaki3-;<,:;;=:<64:-3ijaikggkgkkkgggg",
"oXXXXXoooooO@OO=tbbbbbbbbbbzabbk:O#*###%%*$++Oo:kbdxbbbbbbbbbbbv",
"OXoXXoo@Xoo#@@@;gbbbbbbbbbvvbxvk6*%@o@#*=<:%#+O=scabbbbbbbbbbxxz",
"O%*%@##oXooOOoo-gjvbbbbbbbbbbxkf3&%$%#%&%*%$@$@:kbbbbbbbbbbbbxvb",
"o@&&%$oXooOoooo=gvvvbbbbbbbbbvbk2%@@#=-*%OOo@@@:gbbbbbbbbbbbbbbb",
"XXXXXXoXoooooo@-gbbgkbvvbbbbvbbk>####%@XX oOO+%:gbbbbblzbbbbbbbb",
"XX@*%@@#%%@ooXO;ibbvvbbbbbbbxxbk7=%@#OXoXoO@+++:tbbbvxggbbbbbbbb",
"o+&:&@o&=*%%#oo*svbbbvvbbbbbvbbg,ooX@oXoooO++@%3fbbbxkvzbbbbbbbb",
"O&=&%%O%%+O@%%#-gvbbbbvbbbbbvbba*ooo@@Xooooo@=:<kbvbbbxvbbbbbbxx",
"=<&@==##@OoO$%#,gbbbbbbbzcbbjxbg;oooX@o@@o##@#+:kbvbbbvvbbbbbvxk",
">:#@%%==+oO@$%$,sbbbbbbbgsbbkxbk>##oXooo@&;%+++,kbvbbbbbbbbbbvbb",
":%OOoo@=@OO@%%@,gbbbbbbblubbbbbg=#*@@#%@%=%@@@@<kxvbbbbbbbbxbbbb",
"+OooOOo#++++%@%<kbbbbbbvvfbbvzxh-o#@@@%%%&$@@@+:dzvbbbbbbbvbbbbb",
"+OOoOOO$%%%%%==<kbbbbbbbbxvbvvvh;@%%&@O@%%%@+@@:fbbxvbbbbbbxbbbb",
"&%oo##$&%%%@@=%1gxbbbbbbbbjbbbzh=o#&%@o@@@&%@++:kbbbisbbbbbbbbbb",
"53>:34>:::>=>>:5tgjkkkkkjh9ejhha2=-::,<,::><>;=3ikjguikjggkkjjss",
"kfgkkkkgsgapjjki8636862;;;;-;--;tgkjjhjtepksggji5::::>::::::::=;",
"bbbbbbbvbbbbbbbg;;;;-$$+o+ooOOX-gbbbfgbxxbxbbbbk:+$=%%@++Oo+@@++",
"jbclbbvbbbbbbbbj;#$$-$$#++++OO$;gbxxdxbbbbvbvxbj:$&=%&&%@@@@$#++",
"vbbbbbxbbbbbbxvg;oo-;--++o+++-;8kbvvxbvbbbbbbbbj=o%%=&&%@@@#$+++",
"jbbbbvlbbbbbvhda;@@--$%@+++@-$@;gbbbbvfvbbvbbbbg=o+@%#@@@@+OO++#",
"jbbbbxxbbbbbbakd;@#$%-$$+$$--@$3gbbbbbbbbbbbbbbk&o$@%+O@$$+OooO@",
"cbbbbbbbbbbbbbju;--#@%%$$$@-+@@;kbxvbbbbbbbbbbbj=oOo+OOO++Oo++@$",
"xcbbbbbbbbbbbbxa;$%$@@%--+@$$$$;kbagbvjlbbbbbbbg=oooOOOO@+OXo@%&",
"zsvbbbbbbbbbbbbg;-%@%-%%&$$$#$&4kbtqvbvxxbbbbbbk:ooO++OO@++OO@@=",
"bikbbxbbbbvbbbbk;@@#;3;-#$$=&$%6kbdebbbbxbbbbbbg= oooooooo@$@Oo+",
"bldbxxbbbbvxvbbk;#@#$;33-$$@@#@1kbvzbbbvzbbzhjdy=  ooooo+%@o+ooo",
"bxsbjzbvbbbbgxbj;-;#@@-2<&@+++o:kbxzbbbbvbbklljd=.oooXooo+o+$%Oo",
"bbxbxzbbbvbxllbj;-&#@+#->;-$@@+;kbvkbbbbzbbbbbbg%  XXooO@%%@&:#+",
"bbvvvbbbbbbvvbbk;#@++@+#==&&@@+;gbbzbbbbbbbbbbbj= .oOO+=:=;%@&%@",
"bbzhxbbbbbbbbbbk1%##++##&,;%#@+;kbbbbbbbxbbbvbbg*.o+@#%=&%%O@%&@",
"bbbvbzbbkfzlvvbg;+#%%+++#&,%@+O=gbbbbbbbbbvxbbbj*oOOo+%%#@@+@@%+"
};
