/* XPM */
static char *Tile_03_128x1281739968839[] = {
/* columns rows colors chars-per-pixel */
"64 64 123 2 ",
"   c #7BC873636661",
".  c #7E17768E6A9F",
"X  c #7F5C7A1972E6",
"o  c #82C97ADB6E3D",
"O  c #856C7DD671B7",
"+  c #84A7802E77C7",
"@  c #8951814F747C",
"#  c #8677830D791C",
"$  c #8AD585DD7C30",
"%  c #8C29890E7F7F",
"&  c #92AF8A9A7DEC",
"*  c #7BDC761B84D2",
"=  c #7643735792C2",
"-  c #7C2178FF9559",
";  c #7B7E784D99AC",
":  c #818D7BCA8882",
">  c #81CC7EF493B4",
",  c #832F7F619A90",
"<  c #8BB1874B80DA",
"1  c #8E1C8B3681D6",
"2  c #8C9B86A78C77",
"3  c #92588E828487",
"4  c #91E98DC68AFB",
"5  c #94EF9112869F",
"6  c #9A9192D785FF",
"7  c #95DB932289E7",
"8  c #9CF4964E8A77",
"9  c #9FE298708BA2",
"0  c #8E5A89FF95C6",
"q  c #84E081539BA5",
"w  c #8A2E86169C0A",
"e  c #8DDA89FF9DCA",
"r  c #927F8EC69E2F",
"t  c #9AF598019129",
"y  c #9D7E9A8B93AD",
"u  c #942E90FC9D2A",
"i  c #991895759DDB",
"p  c #A2AB9AC38DA2",
"a  c #A2149DD595CB",
"s  c #A7BFA0469375",
"d  c #A4CAA2049B1F",
"f  c #ABADA4FD9A97",
"g  c #AFABA8EC9C44",
"h  c #B131AA689D85",
"j  c #89B7861BA2DD",
"k  c #8E9D8B19A2A4",
"l  c #924B8E60A2AC",
"z  c #929B8F6DA8C4",
"x  c #96679221A411",
"c  c #9A2195E5A59D",
"v  c #9DC89997A5E9",
"b  c #96299273A8B3",
"n  c #9A3C9670AA0E",
"m  c #9E0E9A3EABD2",
"M  c #9DF99B16B1D2",
"N  c #A2389E25A6A2",
"B  c #A20F9E03AD78",
"V  c #A2859EF7B1F1",
"C  c #A815A31EA6A6",
"Z  c #AB40A6E8A62F",
"A  c #AD9DABE2A51A",
"S  c #A630A1F1ADD3",
"D  c #AA5BA5F0ADBC",
"F  c #AD97A945ADFB",
"G  c #B28FADE6A38B",
"H  c #B252AEDCABB9",
"J  c #B5F4B18CA668",
"K  c #B540B333ACBC",
"L  c #BA25B602ADB1",
"P  c #BE58BA47AF26",
"I  c #A6ACA2C3B272",
"U  c #AA98A676B279",
"Y  c #AE74AA31B3A9",
"T  c #AE57AAC5BAEA",
"R  c #B25EADF7B4FC",
"E  c #B210AE13B9A0",
"W  c #B684B227B52F",
"Q  c #BA2AB620B443",
"!  c #BDC2BA5EB3F0",
"~  c #B6CBB26AB903",
"^  c #BA85B600BA90",
"/  c #BE58B9CABB51",
"(  c #C1B3BC04AF58",
")  c #C2B1BDDAB440",
"_  c #C2DCBE1FBCDB",
"`  c #C6D7C167B6BE",
"'  c #C9DFC400B759",
"]  c #C6D8C1EFBD63",
"[  c #CB6EC606BB18",
"{  c #CEC4C955BCD4",
"}  c #D1E3CC3EBEC3",
"|  c #B666B2CAC0D1",
" . c #C32FBF21C182",
".. c #C6E3C260C1CE",
"X. c #CADAC619C20A",
"o. c #CF01CA33C3CC",
"O. c #CC64C8C2CA4E",
"+. c #D314CE0AC3A4",
"@. c #D2FBCEA1C8F2",
"#. c #D6F7D1CDC508",
"$. c #D9B6D481C794",
"%. c #D6BDD264CAA7",
"&. c #DB5DD626C93D",
"*. c #DEEFDA13CCF7",
"=. c #DD3ADC04D4FE",
"-. c #D448D2AEDDC9",
";. c #E1C7DCB5CF2E",
":. c #E2D4DE2BD168",
">. c #E7C0E334D63C",
",. c #E620E3C7DA70",
"<. c #D5A4D419E190",
"1. c #D9F1D83EE48C",
"2. c #DDC9DC1AE631",
"3. c #E2A0E086E85F",
"4. c #E9AFE842E679",
"5. c #F020EE00E79E",
"6. c #E602E42AEBE5",
"7. c #F5B6F3FCEEF4",
"8. c #F911F705EEDB",
"9. c #F62AF56CF3E4",
"0. c #F95BF7B2F206",
"q. c #FB3BFA6DF642",
"w. c #FCA9FC3DF901",
/* pixels */
"X 4 K K K K W W ! ! K H K ! ! Q R ( W _ L H K Q K Q H K Q K d $ 1 a K Q ! L Q L K K ! K ! K ! K K K K K K H Q K ! K K K A K t X ",
"8 =.7.0.9.9.9.9.3.6.7.q.w.w.q.q.q.9.q.q.q.q.3.1.9.4.7.q.q.q.,.3 2 =.q.7.q.7.9.w.w.w.w.w.9.q.q.8.9.w.q.w.w.w.q.q.w.9.7.w.9.q.,.7 ",
"t $.&.O.| I T X.E T @.%...@.*.*.:.:. . .@.@.B V ..m m T @.:.&.p 7 &.*.o./ T ^ %.:.>.*.$.O.@.=.:.*.;.$.O.*.*.;.;.%.Y V ^ #.:.$.s ",
"% ) W S Y U / ] /  . ./ ~ Y ]  . . .Y U E R Y Y ^ ^ I I I _ } 6 3 ) ] S V Y Y Y ..O./ ] m K *.&.*.&.R m  ./ X. .V M M B Y =.} 8 ",
"5 K c Y ~ ~ o.$.] R ~ ^ ~ ^ ~ B I ( E _ I m m ) &.+.E ~ Y U [ 6 % P F B ^ ~ ~ U Y R ^ ^ Y R /  ._ / R Y ~ R Y B m Y Y / U / { 9 ",
"3 P x C R m { &.$.) _ ^ @.&.$.o.+.%.&. .R _  .$.&...c ~ E V ) 6 1 K c S R Y Y ~  .o.$.$.o.X.Y R Y Y [ o.$.&.X._ E B B Y Y T ` s ",
"3 P c Q o.] $.#.#.{ $.$.&.&.&.$.$.$.&.&.&.&.&.$.&.+._ +...E [ 3 % L S B R Y E #.&.&.&.&.$.&.#.$.$.@.&.$.$.&.$.&.#.U U ~ R ~ ` 9 ",
"3 K W ! $.&.&.$.&.#.$.&.&.&.$.$.&.+.#.&.&.&.&.&.&.$.$.$...O.[ 6 % P ) I Y ^ #.&.&.&.&.&.&.&.&.&.$.&.&.&.&.$.$.&.&.%.~ Y ^ &.{ p ",
"7 u v W ..&.&.&.&.&.$.&.&.&.&.&.&.+.+.&.&.&.&.$.#.&.+._ ( I v 6 % P [ ) I  .&.&.&.&.$.&.&.&.$.&.&.&.&.&.$.&.&.&.&.&. .U X.*.' 9 ",
"7 N v / ~ o.&.&.&.$.#.&.&.&.&.$.#.&.#.$.&.&.&.$.#.%.) S E S f p % P [ _ Y X.&.&.&.$.#.&.&.$.$.$.&.&.&.&.&.&.&.$.&.$.[ R %.*.[ 9 ",
"7 P ) K R  .$.#.&.&.&.$.#.&.&.&.&.&.&.&.&.&.&.&.$.$.T , _  .) p 1 ! ' K Y #.&.&.&.&.&.&.&.&.&.&.&.&.#.{ &.&.#.$.&.#.$.^ ..*.[ 9 ",
"7 P ! R R ~ &.$.$.&.&.&.$.&.&.&.&.&.&.&.&.&.&.&.$.#.I n _ @.) 6 % ) ] ! H $.&.&.&.&.&.&.$.$.$.$.&.&.#.{ &.#.#.&.$.#.$.^ o.&.[ p ",
"3 P H S H @.$.} $.&.&.&.&.&.&.&.&.&.&.&.&.&.&.&.$.$.) D R _ ) 6 3 P K l S #.$.&.&.&.&.&.&.&.$.$.&.&.&.#.&.&.$.$.&.&.+.Y Y o.[ 6 ",
"% P K m R &.$.$.$.#.&.&.&.&.&.&.&.&.&.&.&.&.&.&.#.+.#.R R  .} 6 % P ) R Y ! $.&.&.&.&.&.&.&.&.&.&.#.#.{ #.&.#.$.&.&.X.W  .%.[ 6 ",
"3 P [ ! R #.&.&.&.&.&.&.&.&.&.&.#.&.&.&.&.&.&.&.&.#.+.( #.;.} 6 3 ) [ } / S #.&.&.&.&.&.&.&.&.&.&.$.$.$.&.&.&.&.&.#.Y _ ;.*.[ 8 ",
"3 ! [ K M [ $.&.&.#.&.#.$.&.&.$.#.&.&.&.&.&.&.&.&.&. .M _ ;.) p 1 P [ } / Y #.#.$.&.&.&.&.&.&.&.&.&.&.$.$.$.&.&.&.%.W ] ;.;.' p ",
"3 P { ! m [ $.&.&.#.#.$.$.#.#.#.;.#.&.&.&.&.&.&.&.#._ c  .>._ 9 3 ( #. ._ F }  .#.$.&.&.&.$.$.&.&.&.&.&.#.$.$.&.&.$.R ] =.*.' 9 ",
"7 P [ _ R $.&.&.&.$.&.&.&.$.&.#.&.&.&.&.&.&.&.&.&.#.$.( _ ;.#.O O ( ) #._ F $.$.$.$.$.&.&.$.#.&.&.&.#.$.$.} &.&.&.#.Y _ ;.*.' 9 ",
"3 ( Q m H &.&.&.&.&.;.#.$.&.;.#.#.&.&.&.&.&.&.$.$._ %.E F  . .6 3 ) ( I U  .$.#.&.$.#.$.&.&.#.$.&.&.$.$.&.$.$.&.&.&.X.^ / #.{ 6 ",
"7 ! A B I @.&.&.&.&.#.$.&.&.#.#.&.&.&.&.&.&.&.&.&.*. .U (  .} 6 3 ) ( x D #.$.&.&.&.&.#.$.&.$.&.&.&.$.#.$.$.$.&.&.&.#.Y Y o.{ 6 ",
"3 ! ! U B Y &.&.;.#.;.&.#.#.#.;.&.&.&.&.&.&.&.&.&.&.U V ( #._ 6 < ) _ ( (  .&.&.&.&.&.&.&.&.$.&.&.&.&.&.&.&.&.&.&.&.$./ X.&.[ 8 ",
"$ ! ) Y B ^ &.$.#.&.#.$.;.;.#.#.&.&.&.&.&.&.&.&.&.&.( , Y &.) & 3 ( { W F #.*.&.&.&.&.&.&.&.#.&.&.&.&.&.&.&.&.&.&.&.&.~ _ *.[ 6 ",
"3 N k K I X.#.$.#.&.&.#.#.#.#.;.&.&.&.&.#.$.&.&.&.&. .b _ n C p 6 ( } _ D _ &.&.&.&.&.&.&.&.&.&.$.#.$.&.&.&.&.$.&.&.+.~ +.*.[ p ",
"1 u x H  .&.#.#.;.#.#.;.#.;.#.#.&.&.&.&.$.&.&.&.$.$.&. ._ M i 6 5 ) _ ) c _ $.&.&.&.&.$.&.&.&.&.#.+.} #.&.&.$.#.&.&.] ~ +.;.[ 6 ",
"1 K K Q $.$.$.$.&.&.$.&.#.#.;.;.&.&.&.&.#.$.&.&.$.$.&.*. . ._ 6 1 ( ) b m R +.{ $.&.$.#.$.$.&.&.$.&.#.$.&.&.&.&.&.%._ W _ $.[ p ",
"3 P c ~ } _ $.$.$.$.$.$.;.{ #.#.&.+.#.&.$.&.&.&.#.#. .+. .V ) p < ( N x I B B [ $.&.#.#.#.&.@.#.$.#.&.&.&.&.&.&.#.~ E _ | _ ) p ",
"% K r S R B [ &.+.] R S o.;.$.o.o.#.#.o.B Y _ $.;._ x _  .M ) p 4 G r l S B n S _ _ #.#. . .U U R Y  .#.$.&.o._ ~ R Y W ^ E ) p ",
"7 K x S E E +.#.Q b j n B Y D b c Y Y B z , , _ &. .D B V ( &.p 4 ( N l E B B b c D Y ( F ( _ _ _ _ E V ( W R B V E E _ T ) ' p ",
"7 L A v S S Q Q E R U S N x _ ) ) _ n n N B U Y ( ( V B V _ ) p 1 ( L N l n n N _ ) ( _ c ) ;.#.#.&.R N ) ) o._ D B V B R #.[ p ",
"# J P K c u c K r r ) ) H K { { } } ( H _ ) , , ( l , b _ } ( 6 $ G ( ( D c N _ _ } _ #.( ) { ) _ } _ ( { ) } } _ N N R X.#.( 6 ",
"+ 5 g g f d f f * 2 f g h g g g h h g h h g : X a C s f h h p & O 5 f h h a h h g g h G g h g f h h h h f f g h h g f h G h p O ",
"X o . @ o .   . o o o o O O o o o O O o o o O o O O o o o o O : t O o O O o O O o o O o O o o O O O O o o o O o o O o O O O $ $ ",
"< t g H A A K K K A A A K K H K Q K K K G H H H H H F H L H s : 4 a A Z G K K W K K K A K K H K H K ! H A A A K A A H H H K y 1 ",
"t =.q.5.9.9.9.9.-.6.w.w.w.w.8.0.w.w.w.w.w.q.2.<.9.9.9.9.0.q.>.p 4 =.8.0.0.0.9.0.1.1.w.8.7.q.w.w.q.q.q.8.q.9.3.1.8.9.9.9.8.q.,.d ",
"7 %.*. .T M U ..B n X.@. .X.*.&.&.*...| @.o.l l _ B z B _ &.;.6 < $.&. .I V I ..U n %.@.! ..=.*.&.>.%. .%.@.V V ..I V T O.&.&.s ",
"1 ) ^ B V U / / R R Y U V m ] / ^ ] r m B B V I ^ E n b k ~ *.O # _ W n V I / / ~ R Y U B B [  ...X.B S Y ~ ~ ~ / / I Y U ] { 8 ",
"3 K x N Y R o.#. .m z B S W Y n n Y D S x ; j ) &.o.Y D B m _ 6 $ P k c U Y o.&. .B m S Y R ^ m m R K Y I M B ] $.o.R R Y Y ] 9 ",
"3 K e B R m [ &.$.X.~ U o.&.%.o.o.$.&.X.B Y _ ;.;._ n R U , ) 9 1 K w m T n ] &.&.[ ~ Y @.$.+.+.[ #.$.o.Y ^ X.&.*.X.m F Y I ` p ",
"t K r R o.[ $.#.$.*.$.#.&.&.&.&.&.&.&.&.#.$.;.&.$.$.X.@._ v ( 9 1 K e W o.X.&.&.$.#.$.$.$.$.$.&.&.$.@.&.&.&.&.$.$.$.X.o...Y ` 9 ",
"1 K K Q $.&.$.#.$.$.#.+.$.$.&.&.&.&.&.&.;.$.#.&.$.$.$.;._ ( ( p 1 ! W W *.&.$.$.&.$.&.&.&.&.&.&.&.&.&.#.$.&.&.#.$.&.&.*.X.X.` 8 ",
"1 e k R _ &.&.&.&.&.$.$.$.$.&.&.&.&.&.&.&.&.&.$.#.&.&. ._ v , p 5 w k D  .$.$.#.$.#.$.&.$.#.#.$.$.$.$.#.#.&.&.&.#.#.&... .I v 6 ",
"7 N w F m X.&.&.&.&.&.&.&.&.$.&.&.&.&.&.&.&.&.&.&.$._ , R m F p 5 i q D b [ $.$.#.$.$.&.$.{ } $.#.#.$.$.$.&.&.&.$.#.X.I  .V Z s ",
"7 P ! F b ~ $.&.&.&.&.&.&.&.#.$.&.$.#.&.&.&.&.&.&.&.~ , U @.+.6 $ P ! S z ~ } #.} &.#.$.&.$.$.&.$.+.#.#.#.$.#.#.$.*.Q V / o.' 9 ",
"% P ! B B Y #.$.&.&.$.&.&.&.$.$.&.$.#.&.&.&.&.&.*.#.I , U +._ 9 % P ! B m Y #.$.&.$.$.#.&.&.&.&.$.} } $.&.$.$.$.$.&.Y U ^ #.[ 8 ",
"3 ( F v Y X.#.&.&.&.&.&.&.&.$.$.#.} #.&.&.&.&.&.&.&._ I R _ } p 5 P D v S o.$.$.$.#.{ #.&.&.&.&.$.$.$.$.[ #.&.&.&.&.o.Y E ] [ 6 ",
"3 ! Q v R $.#.&.&.&.&.&.&.&.&.&.$.$.$.&.&.&.&.&.&.&.&.( D #.) p 3 P K c Y &.&.&.&.$.&.} $.&.&.&.&.#.$.$.} #.&.&.%.#.&.W Y O.[ 8 ",
"% P [ _ R $.#.&.&.&.&.&.&.&.&.&.&.$.$.$.$.&.&.&.&.$.#.R  .;.' p 3 P [ _ R $.$.&.&.&.&.$.$.$.&.$.$.#.$.&.&.&.&.&.&.&.$.W { *.{ 8 ",
"3 P [ W v o.&.&.&.&.&.&.&.&.&.&.&.&.&.$.#.&.&.$.#.#._ v _ ;.) p 1 P ` Q m o.&.&.&.&.&.&.$.#.$.#.$.$.&.&.&.&.&.&.&.&.o.S ] ;.' p ",
"7 P { Q n { &.&.&.&.&.&.&.&.&.&.&.&.&.&.&.&.$.&.$.&. .v _ &.' & O ( ( ( m +.&.&.&.&.&.&.#.$.&.&.&.&.&.$.$.$.&.&.$.&.+.m X.*.' p ",
"7 ! [ ) Y } #.&.&.&.&.&.&.&.$.%.&.&.&.&.&.&.#.#.&.&.#.R _ ;.' 6 : ( W ( Y &.&.&.&.&.&.&.$.} &.$.&.&.&.&.&.&.&.&.&.&.#.Y o.*.{ p ",
"7 ! K m R #.#.&.$.#.&.&.$.&.$.#.#.&.&.&.&.&.$.#.&.&.#.R Y  .} & O ) F c R &.&.&.&.&.&.&.$.+.$.*.&.&.&.&.&.&.&.&.&.$.$.^ T +.{ p ",
"% P D m I o.&.&.$.#.&.#.$.&.&.&.&.&.&.&.&.&.$.#.&.*._ U R ) { 9 6 ) C m U +.&.&.&.&.&.$.*.$.$.&.&.&.&.&.&.&.&.&.&.*.+.Y E ] ' p ",
"% ( ! N n I &.&.&.$.#.$.$.&.&.&.&.#.&.&.&.&.&.&.&.&.U V R  .} & : ( ( B V U #.&.&.&.&.&.&.$.$.$.&.&.&.&.$.$.&.&.&.&.Y U ~ %.+.p ",
"7 P ! N , R *.&.&.&.$.$.$.&.&.&.$.} #.#.&.&.&.&.&.&.( n _  .} p 6 ( ( B n ( $.&.$.&.&.&.&.&.$.*.&.$.&.&.$.$.&.&.&.$./ m / @.{ p ",
"3 u - N k ..&.&.&.&.&.&.&.&.&.&.&.&.&.&.&.&.&.#.&.&._ U _ n U & O i , R m  .*.&.&.&.&.&.&.&.&.$.&.&.&.&.&.&.#.$.&.&.X.I / m W p ",
"7 > - S / &.&.&.&.$.#.&.&.$.$.$.#.$.&.&.&.&.#.#.$.$.*._ _ I c : O 0 l F _ $.$.&.&.&.$.&.&.&.&.$.&.&.&.&.&.&.$.$.&.&.$. ./ B x p ",
"3 J F R $.&.&.&.&.&.$.&.&.&.&.$.$.&.&.$.$.$.$.&.$.#.&.&. . .) 6 4 K W R #.#.#.&.$.$.#.$.*.$.$.*.&.&.&.&.&.&.$.#.&.&.&.$.X.X.) 8 ",
"1 K q F o.X.&.&.$.*.*.&.&.&.&.&.&.*.$.+.$.&.$.&.$.#. .o. .R ) 6 1 L l F [ [ #.&.*.*.&.$.&.$.$.*.&.&.&.*.&.&.&.&.&.$.] +._ B ) 8 ",
"3 K = e D b [ &.$.[ E U o.&.$.@. .*.;. .R (  .$.$._ B R W T { 6 1 L w N Y B X.#.$. ._ Y _ *.$.+.+.+.&._ F (  .;.&...m E I m ) p ",
"3 K - q S U o.$._ b j B Y ~ E N V R ( Y S c V  .&.+.R W V U { 6 1 Q c V Y R o.&._ S m U F W Y v v R R S B M V _ &.+.E E V B ) p ",
"5 P C , k c Q / Y Y F D D I ] _ ) _ F U F R Y ( _ _ B U V  .{ 6 O ( Z N B V _ _ ( ( E Y D D _ _ _ ) D Y W ( ~ W _ ^ B B V _ { p ",
"% J ) Z 0 q x W e w ` ` K ! } } #._ ) ( ) _ , i J c , c ) #.( & O J ( F N r N ( v v ) _ ( ) #. ._ #.( ( ) ( l x Q N l x ^ #.( 6 ",
"% 6 f h f f f f * 2 f g g f g g g g g h h g > : s f f g h h p & : p f g f g f a : > f g f f h g g g f g g g > : a g h g h G p 6 ",
"O O o o X @ @ @ @ @ @ o @ @ @ X O O O o O O O O o o o o o O 3 a 4 O O O O O O O o o o o o o O O o o o o o O O O o o O O O O @ 8 "
};
