/* XPM */
static char *Tile_25_128x1281739968840[] = {
/* columns rows colors chars-per-pixel */
"64 64 160 2 ",
"   c #09040A800C85",
".  c #151E10740BC7",
"X  c #1B5D14070DB8",
"o  c #0BE50EAF12FB",
"O  c #0D7B10F01622",
"+  c #0E5B133F19F7",
"@  c #0FD2133816AB",
"#  c #1BCB15AC100C",
"$  c #1EAA18C012BE",
"%  c #10D6158D1BC9",
"&  c #124A17B61EC5",
"*  c #20A917250EF1",
"=  c #24211B7D13A6",
"-  c #29A41E541460",
";  c #26081EF2181D",
":  c #2B692078167C",
">  c #26691FF7199D",
",  c #2C0B231A1A4E",
"<  c #31BE26B41C29",
"1  c #33DB29071E6D",
"2  c #0EE9164F2240",
"3  c #0EEB19E12D45",
"4  c #10DB173422D7",
"5  c #12D21A1D24E6",
"6  c #19BB1E4B26DE",
"7  c #13B91CCF2A9A",
"8  c #18B51EE82986",
"9  c #0EE91BC230DE",
"0  c #11C91E483073",
"q  c #166120572E9D",
"w  c #19D421652C5C",
"e  c #0F7F20B53A8D",
"r  c #15C521D433BE",
"t  c #1B7A25043372",
"y  c #1DA927F63642",
"u  c #14A124C93C5C",
"i  c #18E526543B2F",
"p  c #1B2A28B63CF8",
"a  c #2B46261A20E1",
"s  c #34C32B6E2214",
"d  c #397F2E0022A8",
"f  c #3CE431C02650",
"g  c #368731C82C21",
"h  c #3CE034AA2BAB",
"j  c #3F2E382B2F83",
"k  c #2004289F36D5",
"l  c #239E2DE53C55",
"z  c #26E22FF03DD3",
"x  c #3C17367D3065",
"c  c #3F0938DF312E",
"v  c #402032B7259D",
"b  c #415636402ADB",
"n  c #442A396E2E00",
"m  c #43E83C293329",
"M  c #49553E6D327A",
"N  c #4BC9415A35C2",
"B  c #475D40A538C8",
"V  c #4C7E43D639E2",
"C  c #51E94468365A",
"Z  c #521E467D39A5",
"A  c #547749B03D42",
"S  c #59944CDA3EC4",
"D  c #13FF263A436B",
"F  c #17F5270A414E",
"G  c #15BB28DA454F",
"H  c #1ACF2BC44465",
"J  c #133826C14A27",
"K  c #15782B654C4B",
"L  c #1A122DBC4B7A",
"P  c #1C5931024DD8",
"I  c #160A2DC8523E",
"U  c #18702E955181",
"Y  c #16BB2E41582C",
"T  c #16F8305B5535",
"R  c #1A1931D25433",
"E  c #171331AE59F7",
"W  c #19C434245B8F",
"Q  c #1CEE38CB5EEE",
"!  c #21822E2F40CD",
"~  c #243630DD44BE",
"^  c #2AFE34A14414",
"/  c #22A333F04CB3",
"(  c #2B3D36644974",
")  c #2C3E39184C12",
"_  c #30443CC14EDC",
"`  c #222B3610539A",
"'  c #240F38A455C5",
"]  c #2CA43B4F52B7",
"[  c #22B837635ABC",
"{  c #24983A9C5BEA",
"}  c #29933C645B08",
"|  c #1A8B36AA6175",
" . c #1BEF39A36392",
".. c #1E343DA46A65",
"X. c #23BE3D0F6218",
"o. c #28043F136095",
"O. c #22553FAE68C7",
"+. c #2F4C41CE5D48",
"@. c #268C40326588",
"#. c #2B704180632F",
"$. c #29CA458F6CB8",
"%. c #30D5450A65E5",
"&. c #336A4AE46E56",
"*. c #547A4BDC41CA",
"=. c #596C4ED8423F",
"-. c #56FD4FD34644",
";. c #5CAD5212454B",
":. c #569650C94901",
">. c #5D1A54D74A75",
",. c #5F1758304ED1",
"<. c #5BE8577B5022",
"1. c #5FAA591B4FDE",
"2. c #614754D94646",
"3. c #618156F04A13",
"4. c #64775A6D4D93",
"5. c #690B5D814EDA",
"6. c #64845CB352E2",
"7. c #69095EEC5209",
"8. c #6798606A5730",
"9. c #6C18622D550A",
"0. c #670860F55969",
"q. c #6D0C65145A37",
"w. c #6E4B687E5F2F",
"e. c #7203661A56C6",
"r. c #70EF676D59EE",
"t. c #74686B185D3B",
"y. c #79E36E1D5E5C",
"u. c #6F3069EF6107",
"i. c #76296E196176",
"p. c #78C76F7A6151",
"a. c #72766F626A46",
"s. c #7794700A6482",
"d. c #7BFE72F464D1",
"f. c #769572416A4D",
"g. c #7DF17651698E",
"h. c #7EC378666D34",
"j. c #7EFF7A12711B",
"k. c #811F768E6700",
"l. c #845C78096749",
"z. c #80C7775168A0",
"x. c #83FB7B286CBD",
"c. c #88CB7EA36EE6",
"v. c #86037E9A71A6",
"b. c #88E67F8B7090",
"n. c #87238084742D",
"m. c #8BE583047421",
"M. c #864A829F7A0F",
"N. c #8E14869D7908",
"B. c #8EEB889A7BC8",
"V. c #90BA86FF7741",
"C. c #92AB883577D0",
"Z. c #90B487B27871",
"A. c #935D8AD57BE9",
"S. c #997C8ED07EF0",
"D. c #9A5E90107FA3",
"F. c #95CD8E978174",
"G. c #977A904481F2",
"H. c #9A5B9238839A",
"J. c #9B2F94638896",
"K. c #A3749C098C2C",
/* pixels */
"t.i.w.w.w.u.u.m w _ _ _ ] ] / ! >.k.t.y.y.9.6.8.9.9.r.q.w.r.5.s s Z N >.5.5.9.9.5.5.e.t.e.e.e.A 9.n.k.e.d.m.d.9.H K K T K H / ~ ",
"m.S.H.Z.N.N.b.M 8 o.$.X.O.o...[ 4.m.C.C.m.x.c.z.z.v.N.A.C.A.c.v h x.l.g.g.p.d.x.m.m.C.m.n.n.n.S 4.d.m.m.m.n.y.i.' K I I Q Q X.X.",
"m.m.A.m.m.x.d.n 5 R X...|  . .R :.c.x.l.y.p.p.i.z.k.n.m.m.A.y.v , 8.y.p.t.t.d.l.l.l.m.d.d.n.l.Z S d.v.m.m.d.g.u.' K T I T R Q K ",
"x.n.m.v.b.m.m.C 8 R | | | Q Q / A n.x.y.t.r.d.d.c.n.v.n.m.m.e.1 , 3.s.y.t.y.d.g.k.n.n.d.l.d.d.C 4.n.v.v.n.n.n.h.+.T I T T T Q T ",
"=.x.m.b.b.A.b.M 8 R W  . .W Q u B x.m.k.e.d.d.t.d.m.n.x.x.g.9.< , ;.y.l.p.p.l.x.n.l.d.n.n.d.l.C ;.k.x.k.x.n.n.h.X.W W T T W Q u ",
"m z.m.l.m.Z.V.V 7 ` W W | Q E 7 m d.x.d.t.i.t.i.s.x.n.v.g.g.9., : >.d.d.d.p.d.g.l.d.d.y.y.y.y.N S d.z.x.x.V.n.h.X. .Q W R Q Q 0 ",
"M i.d.d.k.x.k.M 8 P H R R R L 5 d r.y.t.g.p.t.p.d.v.n.x.d.s.5.: > 4.d.k.d.t.y.p.e.y.d.y.y.t.y.N :.d.d.k.d.n.n.d.o.W T T T P W 0 ",
"> d d d d d d ; O & % % % % & @ s q.r.t.d.t.p.p.g.x.x.g.t.s.5.: , 8.d.d.t.d.d.t.e.n.n.n.m.d.d.C B w.w.6.4.;.4.N q q 2 % q q 7 % ",
"k ( ( ^ ( ( ( 8 x 0.0.6.6.6.0.m s 9.d.p.d.p.t.t.p.d.g.d.p.g.e.< , 4.p.p.y.l.d.n.y.m.m.m.n.n.l.C y Q X.R l p / 7 m t.5.>.r.r.r.N ",
"0 o.X.[ X.[ [ 8 B B.F.m.m.G.F.*.n 9.p.p.d.d.p.d.i.p.z.g.p.l.e.1 = 4.g.t.y.n.n.d.n.m.m.m.n.C.m.S L  .W T R R E 7 m m.C.m.v.A.A.2.",
"0 Y W Y K U L 5 j x.n.v.c.m.b.;.V e.t.i.d.d.y.d.z.d.p.g.x.z.e.1 ; 4.d.y.y.d.m.n.m.m.m.m.n.m.V.A P | Q E E E P 5 j x.m.x.m.C.V.S ",
"7 R Y J J I U 5 m x.m.l.d.z.x.e.A i.p.p.k.d.p.x.x.p.g.d.v.g.9.< ; ;.t.g.d.n.m.m.m.m.C.m.n.m.m.S H Q E  .Q E P 7 m b.m.m.x.m.m.A ",
"3 Y U J J K L 4 m x.x.d.l.g.c.t.=.p.k.l.z.v.z.p.g.t.i.l.z.g.7.- ; f S p.m.C.A.V.C.C.m.m.n.m.n.A G T K E W W R 0 n n.m.C.m.C.C.S ",
"3 U I U J J K 4 n d.x.c.d.g.z.t.A i.p.k.p.x.l.z.g.p.g.b.x.g.e.< , 1 d C e.n.S.C.D.C.C.C.m.n.n.Z L R J J T  .Q q N l.m.m.V.C.m.S ",
"3 F U I G D F 4 c q.d.x.d.z.z.r.=.i.g.p.p.p.p.p.e.5.3.3.3.2.S < > d : = d S e.l.d.y.y.d.n.n.y.C i G G u K R P w Z d.y.y.y.y.p.;.",
"o 4 5 3 4 O O O : d M A ;.3.9.S M 7.5.3.=.=.A b s s - : = * = # # , , $ # : < v N N N n N N C 1 % % % % @ & & @ d v d v d 1 d d ",
"g 6.7.6.>.>.6.>.S A 5.9.5.8.w.5.d.m.M.n.n.m.m.9.~ i p ~ ( k ) 8 B i.w.8.8.8.8.w.+.#.#.#.#.%.&.( B N j h N 5.6.2.5.6.7.C f n =.s ",
"m z.z.c.l.x.Z.b.m.n.m.A.V.n.Z.5.t.n.N.A.Z.Z.N.h.{ I R ` { R } 0 V A.D.D.A.A.K.M.@.| W  .W R T u *.A.H.H.C.V.A.n.d.m.S.m.d.k.y.b ",
"n u.p.p.k.z.z.z.m.V.n.A.V.n.m.;.r.n.N.m.n.n.n.f.R J J J D D J 5 m c.n.C.G.G.K.M.@. .| W W R I r n k.m.C.C.m.m.x.d.t.z.d.r.d.9.f ",
"m f.k.l.c.b.z.l.m.Z.Z.A.m.m.Z.,.t.m.m.n.d.l.g.f.Q K J K J I Y 7 V v.m.S.H.H.J.G.{ E  .W K K R u V l.n.n.C.A.C.C.x.t.d.d.t.r.e.n ",
"m p.v.b.b.N.Z.b.l.n.n.A.V.m.n.8.d.l.g.l.l.m.n.g.R P T K T T T 7 m c.m.J.H.A.n.B.$.E I E | W E u B d.n.m.D.D.C.n.y.s.d.x.d.t.t.N ",
"M p.b.A.Z.N.F.b.n.n.l.Z.V.m.m.5.d.n.n.n.n.V.V.h.Q T Q I T T T 5 j c.A.H.J.A.x.f.#.| E Q W W E H V c.c.c.C.S.m.p.w.r.l.c.z.t.t.N ",
"M f.x.Z.Z.m.Z.v.n.g.n.n.n.x.m.9.y.x.g.n.h.N.V.v.R I W K E I P & h d.m.A.S.m.x.a.{ | | Y T W R p B c.z.x.c.m.m.l.9.y.t.x.d.t.t.m ",
"m d.z.b.V.v.x.b.x.g.g.n.n.m.A.e.q.i.f.j.j.j.v.a.+.+.X.R { e % @ ; n ;.;.V ,.h.*.t o.{ { ' ' ` w B m.m.n.l.y.x.l.d.p.t.d.g.c.d.N ",
"m z.N.m.m.x.r.d.b.c.x.v.n.c.A.w.+.R +.' X.o.o.%.f.n.M.M.n.6.>.x 6 ~ / H L P [ ) 0.M.v.h.h.h.y.S C n.m.n.n.t.p.p.t.g.l.x.n.m.d.N ",
"x p.m.m.n.m.d.d.m.c.d.v.x.c.m.;.H I I E Q K K @.j.N.D.D.n.v.x.N 8 ` W | X.....' j.C.m.m.Z.m.m.y.S n.n.n.t.t.p.d.y.g.m.n.g.g.p.N ",
"g t.x.l.x.x.l.l.c.c.x.h.g.g.n.*.L E T R P T T p >.h.M.n.d.p.z.M 4 L E | W | | H d.C.V.n.m.n.m.y.S n.x.d.p.p.t.p.d.g.V.m.p.p.p.N ",
"n d.b.g.N.z.g.x.x.n.n.s.x.x.z.Z p R R R R T P & x h.n.x.z.z.d.n 4 J Y E E | | } j.A.V.m.m.n.m.n.S n.n.g.p.t.p.t.d.y.d.d.p.d.r.f ",
"f p.b.z.A.b.l.x.x.m.m.d.c.z.d.V p T I P T K K & c x.m.d.g.b.x.M 7 U U E E Q W o.v.m.m.m.m.n.g.g.5.n.p.d.s.p.g.p.y.n.d.y.p.s.3.1 ",
"s 7.3.t.v.N.N.b.l.l.m.m.m.m.g.V r T I K G K P 5 c x.n.h.d.d.x.M 7 R | | | | | o.n.S.N.m.n.g.d.t.4.l.p.d.t.y.t.r.d.d.y.d.r.4.Z : ",
"= n d C 3.t.c.l.x.z.l.n.m.n.y.m 0 K K G L K L 5 c u.d.p.r.t.p.M 7 / L R ` U R H t.A.A.m.m.m.m.r.A t.p.d.r.7.5.5.Z S S S N f v - ",
". * * = - 1 v d f v f f n n v : 8 t @ @ @ @ @ o $ s s s s s s ; o & o % % & & % B g.n.n.g.g.f.>.d N f N f 1 < 1 * = * * X X * . ",
"$ g h N n b A 5.q.r.9.9.9.9.5.N 1.g.4.1.6.6.6.j w z ^ z ^ ) ) w g 6.6.N 6.0.7.*.H +.Q { Q P / ~ B 5.4.>.>.S ,.4.V d f g s s h > ",
"1 f.A.D.D.x.v.N.A.D.D.A.V.C.V.;.5.m.Z.m.N.N.m.Z w ' Q Q Q o.' t s 7.p.g.m.F.F.*.r W R R T P I p A n.m.x.n.g.l.n.x.g.m.n.g.g.9.1 ",
"> 9.m.c.g.g.d.g.n.Z.A.A.A.m.l.C *.b.b.c.v.m.m.N 5 P T P H K u 5 x 9.x.n.b.N.V.M 2 T T I D K K u V g.p.t.l.d.y.d.t.r.x.g.s.9.A < ",
"> 9.b.z.d.g.d.x.x.Z.V.V.V.m.n.C N m.m.x.b.N.m.N 5 Q R T R P P 7 m v.m.v.m.m.b.M 5 T I T I G H u B l.g.d.d.g.l.d.d.x.n.d.d.p.9.> ",
", r.x.p.d.v.z.f.d.m.v.m.m.V.m.S 2.x.b.c.m.m.Z.Z w Q K G R R P 5 x f.x.l.g.g.l.m 5 K K K K H K p B d.l.x.g.x.n.m.V.m.g.d.s.p.5., ",
"1 r.x.d.u.d.d.i.d.g.m.Z.m.l.m.;.9.b.b.x.B.Z.m.Z q Q T P R R P 5 c v.n.z.l.v.v.M 7 H G K K K K u j d.g.l.l.m.m.A.A.m.n.d.t.p.5., ",
"A x.c.x.d.r.g.B.m.b.m.m.l.n.C.S 9.A.x.z.Z.c.x.-.p T K G H G H & x d.c.k.p.p.k.m 5 u u H K K L 7 j w.l.g.p.g.n.A.Z.V.m.n.r.p.8.d ",
"A v.c.g.h.d.x.n.m.n.n.b.m.m.m.Z -.i.B *.A n f j t p & & w 5 5 % > f h b d s d = o + + q / P q @ g r.g.g.p.d.k.H.D.C.Z.g.p.p.y.N ",
"V f.g.d.v.n.n.v.M.n.B.B.n.n.k.n y l r p H ! / l :.9.-.>.r.7.9.<.z i H / l H z w g ,.>.>.t.f.5.n h r.g.s.d.y.m.D.H.D.N.m.g.p.p.N ",
"B g.c.v.c.n.n.v.v.n.B.D.A.N.t.: 5 G K K T Q O.H q.z.g.d.v.v.n.h.} W E R Q Q ' w B g.g.g.n.n.m.A g w.g.x.m.n.n.m.N.A.N.m.n.g.g.C ",
"B h.m.n.n.x.x.z.h.N.D.A.A.Z.t.; 5 P K K T T Q P u.b.h.z.x.v.v.g./ R R I I T T 5 h d.n.g.d.d.g.n 1 9.x.x.l.d.d.n.h.n.V.m.v.m.x.N ",
"V v.n.N.n.x.i.z.M.B.K.A.A.A.e.< 5 P K G P P Q ' f.b.z.h.v.x.x.i.` K I I E T R 5 j l.n.g.n.l.n.N > 4.z.N.z.i.n.n.h.n.m.h.d.n.p.n ",
"B x.m.n.m.m.x.g.n.B.A.A.C.A.d., 7 K G G K T T ' d.h.h.h.h.d.d.u.P J K T I E R 5 m n.n.n.m.n.m.C , 9.v.m.n.n.n.n.x.n.m.n.g.h.t.f ",
"f t.Z.m.n.n.x.g.h.x.x.v.A.A.e., 5 u u G K K K P u.z.c.m.h.i.h.i.` R K K I W R 5 m h.m.m.n.m.m.C , r.N.x.d.n.n.n.x.x.n.n.h.v.9.s ",
"s 3.t.d.x.g.p.d.u.t.e.4.4.2.;., & q 5 q u H H H 8.h.b.x.i.d.h.r.H P J D K T P q j 9.p.n.d.n.l.C 1 S 6.;.A S 4.5.4.4.>.2.>.S A < ",
"$ , , d b Z =.j d d , : - - > $       @ % @ @ @ d =.2.=.=.=.S h & q q r 3 + + O > 1 d f f d v 1 = , - = * * : , : : - - - = - X ",
"m 9.9.7.9.x.x.3.y t y l ^ ^ ^ 5 a N d s s d d S 8.r.4.>.>.5.4.h h 6.9.1.6.1.1.5.5.S C N n N C 1 m q.q.q.9.0.0.j w z ^ w t +.w & ",
"V m.A.A.A.m.k.;.r G G T P P ! & h d.x.i.d.p.r.i.n.M.z.d.g.v.h.N B d.n.x.g.n.N.C.n.d.m.A.C.C.m.v V m.B.F.A.A.N.V w P R H i p +.y ",
"h t.B.d.d.x.z.Z 5 u u e e u r @ $ g 5.i.t.r.t.i.s.d.d.s.h.d.d.n g t.t.p.d.d.n.d.y.g.C.A.C.C.y.< m g.M.n.n.g.g.N & H K H u 0 i 5 ",
"V g.b.t.t.d.p.n & u e u u u e @ a S ,.9.r.p.i.t.i.i.t.g.h.d.d.M h d.p.g.d.p.t.l.n.l.C.C.C.m.y.< n h.M.v.n.x.m.N w P K K T L u 5 ",
"V x.x.d.p.y.r.h 3 u e K K G u 2 , w.x.i.7.p.d.p.i.t.i.s.p.p.p.n N m.n.h.l.d.d.n.n.x.l.x.n.n.e.< m v.A.N.A.N.n.C q H K K K K p & ",
"B x.z.c.p.t.t.b 2 K u K K G u 2 , 9.d.d.t.t.r.p.d.i.d.s.i.i.p.n V C.m.x.n.g.n.l.n.m.l.n.n.n.y.< B v.m.N.A.N.m.N 2 G K K K T P r ",
"b 9.p.k.p.5.5.f & u u u G u p 5 > 7.d.p.x.z.p.p.p.d.d.x.d.s.r.b N m.n.d.d.g.n.m.A.m.n.n.m.A.d.1 m s.g.f.g.m.n.C w H K D G L L 7 ",
"; 1 d d d , , ; O @ @ @ & + @ O > 5.d.k.x.z.d.p.i.d.i.p.g.d.u.j V C.m.n.l.n.n.m.A.m.l.m.C.A.n.j ; 1 1 1 s f f , 5 t & O O @ @ O ",
"w z l +.^ +.^ w g <.1.6.8.8.1.g , 9.k.m.l.l.x.d.i.g.i.t.k.d.r.b A C.C.C.m.m.m.m.Z.B.m.Z.A.A.A.A y l p l z ( ) y <.h.4.4.8.,.,.m ",
"w ' P Q O.X.+.7 m n.n.B.B.n.n.V , t.m.n.m.m.k.x.m.z.p.t.n.k.d.N V A.C.n.n.m.m.m.n.m.B.A.M.A.N.-.L Q R T P  .X.+.f.m.H.A.A.n.g.V ",
"5 p K G K P P 5 c g.j.x.x.x.x.N : t.C.n.m.m.p.d.d.t.t.t.p.l.m.N m V.V.n.n.C.C.n.n.V.A.C.n.n.g.A u K I J T I I P f.g.N.m.C.d.t.N ",
"2 u G G K I P 5 c g.v.x.x.N.N.N < e.V.m.C.m.p.d.p.d.i.i.t.d.y.b m x.n.n.n.m.m.n.x.n.N.m.n.l.l.S G R T K T I K H i.p.m.m.m.g.e.N ",
"5 G J G G K P 5 c x.v.x.x.m.m.N < e.n.n.n.x.x.d.p.t.d.d.t.d.p.f v d.m.m.n.n.n.n.x.l.m.n.c.m.m.*.p W E K K T I L y.l.n.m.m.m.y.N ",
"5 G J G K T T 7 m z.v.z.n.A.m.m 1 e.m.m.m.m.n.k.i.p.h.z.d.l.y.d d y.n.m.m.m.m.m.n.x.k.x.g.x.n.-.P T T T K T G L i.d.y.n.m.n.y.N ",
"2 p G e u P p 5 x w.r.5.p.x.x.N N y.m.n.n.m.p.5.9.t.i.t.e.e.5.1 < S S y.n.m.d.y.t.e.9.t.y.s.d.A G T T K K R K P s.v.l.m.n.y.e.N ",
"o + O O @ % % o > f d : 1 v C N < N N N N f d < s f d d d f v * X - - 1 1 f f d f f 1 f f f b 1 u K K 9 0 u K p :.g.n.y.N f f , "
};
