/* XPM */
static char *Wood_10_128x1281739968841[] = {
/* columns rows colors chars-per-pixel */
"64 64 24 1 ",
"  c #41F32CC316B9",
". c #44922EEA1868",
"X c #46AB30A319BD",
"o c #4BA534D01D19",
"O c #4F4D37E51F5E",
"+ c #501A38311F53",
"@ c #4E7437671FD0",
"# c #4F65382B200E",
"$ c #54613C312351",
"% c #58583F6225FA",
"& c #58A03FB827E2",
"* c #59D240B326DA",
"= c #5D2F43872946",
"- c #610E46AB2B74",
"; c #649649CC2DC5",
": c #68964C972F43",
"> c #67584C352FFC",
", c #69E24E353117",
"< c #6DF851C233CB",
"1 c #71C254F0363B",
"2 c #73DB570B384B",
"3 c #765D591939C5",
"4 c #79E95BEB3BBC",
"5 c #7F4360683F0B",
/* pixels */
"&=-=X $#XX+$ $+=*#,2>*23>*=*,-;52=;**OXO$=-$<,%=2*OX>**;34$,==--",
"$=-*OX$$X.+$X++**#,2-*<2,*-=,;-23--**OXO$-=$1,%=1=$$,**-12$>=*--",
"&=;&OX#OXX$&.oO**#,2;*<<>*-;<;;13%--%OXO$-=$2,$%1-$$,=*-<1$>=*-=",
"*-=&#XoOXX#& ++;*#,2;*<,>*=;1-=21$--%OXO*--*3,*%<**$,-*-<1*,=*;=",
"*--*+XO$Xo$$ +$:*#,<-=1<>*=-<;=11$-=++X+*-*=2<*=<==*;=*;<<*>==;=",
"*=;*+XO$OX+$X+$-**,<==2<>#-=<;*<1%-=$+o+*-$*2,%=<-=*;=-,12*-=*;;",
"*-*&O.O&Xo+$ ++==#<,==1,>**=1;%11%-=%OXO*-*$2,%*1-*=;==,23*-**-;",
"*=*$O o$oo+$.++-=#1<**1<<*=-<;$11=-=$$O+*=*$1<**1*=-,==,44*>=*-;",
"&$$&+X#$XX$@.O#-*+22**<,<$-;<-%11--=$$oO==*O1,**2=*=>**>33#;=*=-",
"%***$o$&XO#+ O$-=+12==1:1+--<-%11*--*$oO*=*$1,*%2=*=>*==2<*>=*=-",
"*-&*#oo&++$O +O**+11==1:<+-;:;*<1*=-$$OO*;=$2<%%2-*=<===2>*;=*--",
"%-$=#.@=$X$#X+#**+1<*-1;:%;:<;*1<$=-*O$O$=*$1,%$2-==<==;2<*;**-=",
"*-+&O.X=$X$+.+$*=$5<=;1-:$::<-%2,+--%O+O$=%$1;%%2-==>*=-3,*,-*-=",
"=-$$$.X=+O$$ O&-=$2<==<;<+-:1-*1:%-;%+$O$=$$2,$%1-==-*=-3;$;-*=*",
"**$$$XX-OX$* +$-*$21=-1;<+=:<-=1,$=-%$$O$*$$2,%%2>;=;$--2>*>=*-*",
"-*$$#XO;@+$% +$-=$21*-1;:+=:2;=<1%=;*$Oo$=*$1<%%2>>-=*-=3>@,-==*",
"-&+$+.o-$O$$ +$-*&2<*;<;:O=:1:=5<$=>**@@&-=@<<**2;==-&=-2>@,;-;*",
"%$+$+XX-$@$$ +$***<1=;<;<$=:1;=5<*;;**o@$-=$<<*$<>==-&--3>$>===&",
"-*$$$Xo-$O$$ +$*=*11=;<;<$-:1;;22*=;*@o@$=*@2<**<;=*;$==2,&>--=&",
"*%$&#.o&$XOO O$***12;-,-:$-;<:-1<$=;*$.$*==$2<*=2;**;&=-4,&;;-*&",
"&$#&#Xo=&OOO +$$**<4==<;,%-:<:-<>@=>*@.$===$<<=$<;*=>&=-2>&>--=&",
"&$O$#.X&$+O$X++$*=22=;<>:$-<2--<,$=>*@X*-;*@<2*@2;==>@==2>@;-=*$",
"&$O##.o-*O+$X+$**=42==<>:$-:<;:1,@=<$*o$*=*&<<*@2>==>@=-2;$;==*&",
"&&#&X.X--O+$ +$*==41;;<>:%-::;<1<*=,$=o@*=&$<>**<>==>&=-2;$;*==*",
"$$+$X..-*OO$.+&*==22=;2<;*=>:-<1<*=>*#@@*=*@2<*$2>**;&=;<>*>*=**",
"&$O+O..=&XX$X+$;==<3;;1>>*>>:-<1,*--*@@**=*$<<**2>=*>&=-2>=>=**$",
"*$+$O.X*$oX$X+$;==<2;;2>;*=>:;11,*=;*@X#=;*$2>**<>=*>=--2<&>*&*$",
"*$$$OX.*$Xo$.O$-==<<==4<;*;;;;11,**-*@@@*=**2>**<>=*;*-;2<$>=$*$",
"*&+&O  *&XO$.$$===<1;=52;*;>,=<<;**;*@X@*-=*2<*&<;=*;*==<<*>=&&@",
"*$O&+. *$OX$ O+-==<1==23;O><::11;*=;*@X@*=*$<>$$<=*=<**=2<*>=*&@",
"=$+&+X $$X$+X++;=*21=*12=*===;21;*=;*@o@&*$*2<&*2=&=>>=-<>&===**",
"&&$$OX &$oOOX++-**1<==15;*===;12;@=>*X@X*===2<&&2-*=>>=;2>$====*",
"=*O*o  *%XOOXOO=**1<-%35-$--*-14,*->=ooo=-*=2<*$1-==;-*;23%==;**",
"=*o*O  *$XoOXOO;$%<<=O34-$;-%-34,@=;*oo*==**1,*$1;-*,=*;34$;;=**",
"=$O*O. $*.X$oOO;*$<1=%44-*;-%-13;**,*#*o%=**2,$*1;-*:=*-33$;-=**",
"=*O*O..** X$Xoo;*$11=*13;*;;*-13,@=;=o*o*=**2,**<-=*-=*;11%;****",
"=*O*O..*% X$oOO;*$22=$<4=*;;%-11,@*;=#*o*==%,,**,=-=-;=;1<*,-***",
"=*O*OXX*%.o$o$O;$O<4;$14-*:;%-31,@*;=o*o$*=*<1$%1=-%--%;2,*>-***",
"=*$*OX.%*.X$oOO:=O,2;$<4=*;:*;53<#=;*o*@*==%1<*=:=*%--%;21@>***o",
"=***oXX**XoooO$;=*:1:$,4**;:*:55<*-;=@$o**=%1,$$;=%%;-$-1<*>****",
"==**OoO-*oXOoO$;=*,1;%,3*$-:%:432$=;-O%X%==%,,$$;=*@;-*;2<*-****",
"*=-$ooO-*ooOo$O:=$<1;%,3*$-:$:331$*;=$*O*=*%<,**;*.@--=-11*-****",
"=--*oo$-%oO$o$$:=$<1;*,2%+-:$;43,#=;=+*o$%==1,*%<*X@--=-42*-**o*",
"*--$OX$*OoOOX$*;*$,1;*;2**-<%;54<$;;*O*O%=-=<:*=,*XX=>==22*;****",
"==-*OXO*$oooX%$;**,1=%;2$*;:$-311$=;=O*$==-=1:*=<*..*>*,32*-****",
"=-;$OXO*OXXooO$;*O<4;$;1*$;:*-31,$-;-o%O%=:=1-==<*oo*>*-4<*-**@*",
"=-;*$X$=OXooXO%;*O,4=%;<*$-:*;311$;;=O%O$=;%1:==;*@o=,*=42*-****",
"=-;=OX*-OXOOX$*,*O<2=%;2*$-:*;431$-;%O%#%===1:$=>*X@=,**2<*=****",
"**--$o*=@Xo@X$=:=O12-%:2=%--*<44<*--*@=$*==*2;*=>*.X*,-=<<*=****",
"*==*$X*;$XooX$*:*O15-%;2-%-;=<54<*=-=@*X*-=*2=**>*@@*>*=<<*-****",
"**-*$X*;oXXO.$$:=O45-$;4-=;;-,33<==-*@$@$=-*2-*=;*@X*>*=<1*==*==",
"*=-$Oo==ooXOX$$,=$25=%-4-*=--1332=->=@$$@=-*2>*=>*@@*>*=21**-=--",
"*;-%OX;*oXXOX$$,=$15=%;3=$*-:1112*=>=o$$$===2>**>*Xo-<*-<<*=-==;",
"%--*$o;=XXo$X$%:-#15-$;3-%--:1132*;>=o@@$==*<;**-**o*1=-2<*=*==-",
"$*-*$X=*oooo.$$;=O,4=%>5=$;-:111<*=;*oo@$==*2;**-*XX-<-;<<$-**==",
"****$X**oXXXX%$;=$,2=$>4*#-=:1111*=;*@XX$-=*2;*=>*@o=>*;2<$=*=*-",
"***-$X*$oXXOX%+;-+<<-+;5=$;*:,<51*-;*X.@$=-=2>==>&o@=>*-2<*=**=-",
"**--+X*$X.O+o$$;-+<5*%>5;$==,>,3<*;-*@.o*=-=2>*=2@X@>>*-2<*-===-",
"*--=XX%$oXO+X$O:=#<3-%,5-%==,;,31*-;*X@@**-*3>=-2@X@;;*=<<*;-=-;",
"**-*XX%+XoOOX%O:*+<1-$>4-*=-;;,52*;;**X**=-*2>=-2@@@=;*=2<$-=*-;",
"%=**XX=OoXOOX%+:%+<1-$-5;%==;-;33*--**X*@==*<;=*>&.@--*=2>*>**=>",
"****OX%OXO+oX=O-$#<1;$:3:%-=,-;31*--*X.@*==*2;**>*.@>;*-2<*>=*&-",
"==-=OX=+oo$OX%O-*$<2-$<5:$=-<,;21*--*XX*$=**<<**<*.@>-*;2<*>&&;&",
"*--*O.$+XX+OX$$-%+<2-$,5;+-=1>;1<*-=**XX****2>*=<*X.-=*;22*2&&;>"
};
