/* XPM */
static char *Wood_06_128x1281739968841[] = {
/* columns rows colors chars-per-pixel */
"64 64 42 1 ",
"  c #261500",
". c #2E1E02",
"X c #321D03",
"o c #3A1F03",
"O c #352304",
"+ c #3C2403",
"@ c #3D2904",
"# c #35260A",
"$ c #422603",
"% c #482603",
"& c #452B04",
"* c #4A2D04",
"= c #442D0A",
"- c #512F04",
"; c #473004",
": c #4D3204",
"> c #46320E",
", c #4B350D",
"< c #4D390F",
"1 c #523504",
"2 c #593705",
"3 c #553905",
"4 c #5A3C05",
"5 c #543608",
"6 c #583508",
"7 c #533B0D",
"8 c #5A3C09",
"9 c #4B3610",
"0 c #4E3910",
"q c #543D11",
"w c #593F10",
"e c #603E05",
"r c #5D4105",
"t c #57400F",
"y c #5D420C",
"u c #5C4311",
"i c #624205",
"p c #694606",
"a c #6A4906",
"s c #624408",
"d c #614510",
"f c #694B14",
/* pixels */
"7ywws7*123;&14;2uyfyf,11&3*&*24:ud8ff<1::;;*1:;4fyuyy,2:*-*;42*a",
";i%&2:1333;$34:8,:3:11&:%1*&11i:&::32&1::1;&:::8<:*:1:1:*1:&r3&a",
"&4:*2&1214*$3418,1r*331;*1****1:&:143&::;3;;11:2,&11:&1:111*21*p",
";4**2*&113&&34:1,13:2111*:*:1&1:@::22:*&;3;&:;*8<:r;:*11*-:*31*a",
";r&*41&:11&&13;1@11;13;4***:**41&1131***;4;@::;8t;r;:;13*1:&43$p",
"+1**4411*:;*141*O14&1314%**:*&4i@::1*&*&;43&:1:8<;4;1::r**:&13*2",
"@1**41:*%:*&11*1+:3:::141**:-*42&:12*$**&1;+:1;8,;:;2:141%:;14:a",
"+:**e11:$:&*11:1@:1;2;14:*****22;113-&:&;4;+:::r>::;3:442%&;11:a",
"+%**i:2:*:;;11:8,*1:r4341*****;2;131%&:**4;@:1;8,&:@11r31*&*::3a",
"+*:-e&&&**&*11:6,:::r1;1&*+:*:12&14:%+&*&1@&:1;s0&*$1:3:&*$::*3a",
"+&**i1*1;-*&:133>::;s3;:**+:*112;131%$@&@:@&:1;s0&1&1341+*+::&1a",
"+;*1i1111e3&:1167:*&r1:121%**11-;331%*1::2;@::&s>&:;31*142&:**4a",
"O::1e:&*-11&:4487*%:i***1**1**1-:331&&;*::&@1:&i7&;:4:+;::;:&*2p",
"O1**i:&1*2:+1r177*&:i:1*11*1*:*1:111*+*&;1&&1:*i7;;:4&&:&&;:%*24",
"O1*1i**1*4:+1r:17*&:4;:*11*:&:11:r:1:$&*;1:&1*&s<1:*1&:11$&:*124",
"91*1e*&1%e:+1r1:7&*13*1:21;:*%42:r:32+%*;;&&4;&8t:;&4;1::::&*:22",
"91*-e*&1*e1+2r4;0&:13&1:21*11%31;2;12$$1**&&4:&37*&:r&111;;:&:1i",
">3**1%;1*2:$4rr1<$*:2*4141$;1+11&1:12+$::1:$31&rt:&&4&:;1:;::::4",
"91*%1$*3%4*$144:7:*:4:4341&$*&11;1;18$$:&:,&*:*77&*:4&111,:3*1:1",
"=1*%4*&3*i1$3r1rt;**:&4241&****it1:14&$:&:&$1*&8y:&:4&1:13111322",
"+1**4*&1*e*o;4&rt1:1*&4241%**&$su3::e&$1&:&X&*$3t:*:4&::133&*$;:",
"+2**e%&41e-&346e<:*21*333-*;11*6u4&*4&&1;:;$1-&5,**:4*::31r1r224",
"+2**4&&4*41;:316<1*::*31*1&&:1%*yr::4&&1*;*1i1*27:::4;::3:32i21e",
"+4-*4*$2:1:;*3*-,1:::*1:%*&$*3=*t3::2%**&:**4-*2t1::3;1;3;3:112e",
"$4;1e*&116*;:31*@1:::**:$-*%*3*%yr&*4;*1;:&:4:*2731;4:1*1:3:::24",
"+4*14**1*1:112:*@3;:1%**oo&&:4**y3*:e*&*;:;:4:*2q41*4;3;1;31:::e",
"+1**2&*:&1*:13**O:::1*****&&-2**7*:*e:%*;1&14:*674;;4&331:1:11*e",
"+:*-2&%**-;:31$%+::11***%**&*8:*<1*:i;*1::*:421->4*@4;1313:;-4*4",
"$2%:1&%*%%;:32*%+&1r3&*****&13**,&*-e;*:;:@*2:12@1:&3;&::11&*3:-",
"+3*+1%**%*:133*%+&;13@1%***&:4*5,%:*i*:3;4&&*&34&41;:$;3:11&*22%",
"&21%***:&*:113;%;1:r4+:&***&14*1,%11i:*3;3*%2&1r;r4:1&;4:1*&*141",
"X@#+++***%1::31*@@@@@O:&--*&12*6>O#@&@:1&1;&21:rO@@@++:1:1&1*&1-",
"0uq88,*:1::r111*,7u7,$%*1:&&24*1u,,du;*1:;;*4*12q763y=&1*1;1:&14",
"@3::;&&:1;141:21+*11*$*131*&14*1=*;32&;34*=*4*--&1$*2$*:*1::1*12",
"@1::3&&41*11;:2:@11:1%*143*&13:2=3&38;*1r;**4*11&1=*3+11&::;1**1",
"+1*;3&;4:*:1;:31@::&1&*343*&12:2+3&3r&:;1:;*2*11*1$*1@1:&11:1&:1",
"@:**3;1r*111:;23@**11&*342*$%2:3@3;1r&:&:::14*14;1$*1%1;;;13*&34",
"&:&*311r11:11;34@&*r3&*241*$**$3@1&4r&**311:2*1e11*:2$11*1;41&*2",
"&:&:4:13:4;41&14@**14&*321:&*1&1@1&48&*&3i1*2*14;1&:1@11&::11*11",
";:*&4::112:r1&12@:;14$:121:&&211@1&44&**32111:14:1*:1+:1&1::*%12",
"&1&*3::1:1:33&31+1;44&*121:&*2:1@:;44;:*13*$1*14***1:&***:;;1&11",
"@1&&3&&:*::r3&12@r;14@*::::&:1::@:;r4@&&&1&+*1*-$***1@$*%&&42*--",
"@:**4;&&%1&r:&1r1r;12*:::1:&*2*:+;;44&&;&1&***21+*;*1;*:$&@1*%1-",
"O:&;::2:11&;:*14;r;1r*:141:&11*1&&;42&11:4:%**3eX$:111i8*21%$%12",
"@1&&::4&**$::*1s3:114:::11*:14*:;&1r3@&1&1:***1eoo*1::4:$1:*$+14",
";1*;::r&*1&*:*3s,;1:4::::2&&11*1&;14r;;1;1:1**21+**23;r:%1111$1e",
"@&:;:;3;*3*$*;3i;&::2;**13&&*1:1&;;44;;*;1::**12+*-11*2**-123:12",
"O*+&:;4;&1;$*:3s@1&:3&::13*+11:1@&:r4:;:+;:1%*14$*111&***1143*12",
"+;%+*;4:;1;&;:3i@31;1&::144+&:*1@&;rr:;1$::1%*1e+**14*&*%*:1::14",
"O;&&**42;1;;:*3i=11&*@:*214&$&*1,&:33@t1;::1*112$*1*s:o*%1::::*p",
"@&*;::33;1*&:*2s;;1*%@:*113&***4t@:r;@;1;1111114&***a3o+-2;:*::2",
">&*&1:11***;1*4i>;4::&:&314&***7,@;rr;;1;1131234;:1*2%*$*2::&14e",
",&&;::31**;@:$47<&:&1&:*412@&&@37@131;;1;r&;1111:31*-*%**3:@$114",
"<;&;1:3:*12;1;14<&::3;:*413&1:*8t&:33;111r;11118:3*&21%**32:*44s",
"<;:&1;:1&-1:;%&17;:;1;*3441&*1%17$:1s;;1;r;&*%;5:3:*2:**121&241i",
"<::;1:111-1**o+6t;;&1:&1414@*1&17*;:r1;4;r*&*+&::11*3:***11&12-4",
"<1::1&1**-1&*&o6q&;;1;&1423$**;8<&&:2:;1&r;&;*$:*1-*3::&*1r:43:r",
"<::;3**3*1:***&6,&;1:&::43*+*:;7,*&&3:;1&r;;&*;:*1**:&::%111r4:p",
">:1:3&*411****&8q;&&3;:;:31$1:;3<::&11;:&4;1&%*1*1:*2&4:1-&1r4:p",
"<:;:3&*411*:&*&23;::3@1111:+1::1,::&11:1&4;;&*&1*::*2:r11*%:43:p",
",:;;3;;321*;%*&8t&;:1@1113*&11*8<1:&11r1;4;:***3&1::41r1::::34:a",
"0&1:11:33:*&$*&1<&&:1&11:4:&13&r<:3&3;;;:4&;:*&3&3:*414:::&:24:a",
">14;13:11**&&:*6t:1&3:11:4:&11&r<13;r;1;:3&;:*::&i1%2:2*:*::14*a",
"#.OOO&112:$&*1*8> ..O@21*2*&:1:1#O@.O@31;3&::::2X@OXO&41%1&:24*a"
};
