/* XPM */
static char *Wood_22_128x1281739968842[] = {
/* columns rows colors chars-per-pixel */
"64 64 22 1 ",
"  c #153914DE0EC6",
". c #16FB16981026",
"X c #17DC17441099",
"o c #1C741BD21467",
"O c #1F641EBF17E4",
"+ c #20191F0A1713",
"@ c #209B1F6317F6",
"# c #1F911FC617DD",
"$ c #20CF1FEB1775",
"% c #24B823871B31",
"& c #287B26CB1DFC",
"* c #29D5285E1EF7",
"= c #2AEE276D1FFE",
"- c #2C992B1221AE",
"; c #30BE2E962481",
": c #334D3132266F",
"> c #35DF340B2918",
", c #38C036842ADF",
"< c #3B59396E2D62",
"1 c #3E053CAE3096",
"2 c #41173E7A3196",
"3 c #4339412A33EF",
/* pixels */
":%-+%:&:&O&>>%$:3<%o*:&$#oX*%X-%*,>-;=%=-,;-;%&%-%,;;;%=-o-%-%O*",
"-$&%$&%>:o&>:$%>,3*o***#Xoo%$X**&<,;=&&=;>:%=&=%%#>;:>%--X%*-%#=",
"-%&=%%&,;$%>:%%*>,% %**oX#X$$+-*&>;:-%===;:=-&-#%%;->-#=;o#*=%#;",
":&==*#&,;$&>-$%%;,% %%*$XXX%&$-*%>>;=$&-=->%%=%%-&,;;-#-;oo&-%%-",
",%&%%&%:;&%>*%&#-<*o%%%oXoX&&#%*&>>--=%&&-<-=;=%%=,::;%-:#.#%&#:",
",%&%&;%:-&%,&&-o*,*$&*%# oX&%$&*&-1:>-$&;:>-&;#%%%,-:;%-:%.#**%<",
":%&$$&%:*&%,&;>o-,&*%&%% X#&%%%*%=3>->=%=:;;%-#==*;-,-#=>%..*%#,",
",&&%#%%*-*%;%&-O*<%&$$X$XXo%%%%&&&><:-=&%>:>%-%=-&>;<:==,*o.###>",
"<-**#***;*%;&&&#;:%*o#X#..o$%&**-;=<>-=%&>>>#-==-=>::>&->%XX#o#1",
":-*%***%;&%*&&*%->**oX#$. o%%&*;&&-,-:-%%->1%-#=-#:->:#*1-oooX%>",
",%%%%%&#-;&&&&%%-,**$ ##..o:%&&:&%=;,>--%>>,======>-;-#*>-%%oX*>",
"3*-%%*-#&-*&%&%%*<**$$$X..o-&%%;&%%-3>:>->,1#==#-#>->;%&;-*&X#&>",
"1%*#%-;o--&&&%#%&<%%&&%Xo.o$*$%:%%o&<<--->;,=-=O-*>;>-%&<;&-##;;",
"<%%%%*-#--&&%-%-&,$%&%&o$. o%$%*#o##&>:-;:;;=-=#*#<->-%#>-*;#&-;",
"<**%#&-X*-%##*-*%,%%&**o%o.X*$%*%###&>,:=;:;==####>>1*%#-;*-%%-;",
":%%*#&*#*-%##*-%%:$&*;:$%ooo*&*-%&&%%&<>;-,-===#%#;>>*&#;;%-&%-;",
",&%*#&*%&*%#X*-%%;o%*;:*-$$o-%--%;:&#&>:;-<-&%%--*;3;-&o&:*-*;&-",
"<%&*#**%&*%o#-;%%,$$;;>*,*$o%%;;%-&&&$->->>*%--;;%*<-&&o&;*;*;*;",
"2*%****%&*%##**%%:%%;*;;:*&X%%--%-&&-%&<;<;%--&*-%*&%%%o%-*-***>",
"<*%*%&*#&;&##&*%o*$%:;:;>-*$%%**&-&%%%%>3<%--&%%&&-%&&%o%--*-**>",
"<%%:#-%#*;&#%&&%+*$&,>,*;-*$+$**%&;$$=%&<-%-%%%*&%**&;&X%--**%->",
"<-%-:*%X&-*&%&%&$*$*:>1*:;*$+&-%%--%#%%%&%%*&*#&-&&%%&%.#-%***->",
",=%-;&&#*&-*%&%&+%*;:,,*;:-&o&-*&&-$##%%%#%-##X%--%##&#X#%****->",
":-%&&&%#-&*&#&%&$**:;,1;:,*$X#*%&&;$%#%%##-&#XX%&-&##-#oo&**-*-:",
",-#&%&$&>&:*$=&-$-;,,<,,,:;%o%*&-#-%%&O%%%*%##X%**-$-%$oX-*#%-;:",
">-O%&&o:,&<:%&&-$;,,,><::,:%$&**-%&%%&&$*&-%#&#%&:%%-*#o *%o$-;,",
":-O%%$#:,:>>%&&-%:,,:,,<:>:*$***%%%#$&*%#**#&;-%&:%#-%#-o**oo&-<",
",:%&&X%*:;:<&--;#;:;:,<>>::*$&%%%*%%$&-$#;*#*:-#--$$-#%*o*&.o%;>",
">:o%oX*>><<,&&&&%:;>,,:::;:*$%%*&-&&$&-&*-%#;2:#--##-#*-$%$..o->",
":&$$.o*,><>,*&&=&:<<:<,:::,*$*&*%-&&&$-&-%%#;,:##-&#-%-:$%#ooo-,",
":&oXX%:,,,:<-&&;#:::-:>><2<-$**&#-&#&$&--&#$-;:$#&&#%%*,**o#o.%:",
"*%X o%,3<,>,:%--#:::--><,<,;$-:&#--$=$%&;&#o*-:%#%%#-%-<-*o#o.%:",
"-%  %-:3,,:,*&**$:::-*,,,1:;#*;%#:>%&$+$*%%o%:>%o&&%%#;<;%#%%.%,",
"-#.o&-:,:-:>-%**-:>-*;,>><:;o&*%$><%%%$%&&&#%::%#&$#&%;1:%#-&##;",
"-%.o&-,,,,:,-$--*>:-$->;,1:-X*&#%:>&&&$$&%%#*,>%%-%o&#:<;#%*&##&",
"%%.#;:,;::,:;o-;*,,*.&>>,,,:#**#%,,&&&&&*%%o*>:$%-%%*#:<,#%#%#X%",
"#$.$;>,;,,:::o&%*,:% #>>,1,:#--%&,,>&$==**&#*;:%%;&%*#:,:o%$$&o*",
"&o.$:<31,,;::$%$*,>%.o>>,<::#--%&<<2&$%-%&&X*;,*%*&&-%,:;o%%&&X&",
"#. #;,,<::::<%%$-,,%#o-,<1,>#**%&,:<:&##%&%#;>:*$:%&-%:>;X%%%&#&",
"%o.$;,,<,:::<*%%;,:%*#-,:,,,%**#-2;;3*&#%*%X:,:*%:&&-&:>-o&%%&X#",
"*ooo*:<:>::;,%*%>,:%%%*3,<<,%**#-,&-<,=%==%o>;:*#;%&&#:>&o%%&=oo",
"%o##,<<:-,>:,*o$:,:$%%%,>,<,#%*%>>==:3>%==##;;;*#:&%&%,>%o%&&&OO",
"$#%o:,,,,,,:>-.$::-%&&%;-<<,*%**>>-;;;1--%##;:>&%;%&-#::##&&%&oo",
"$$%o><<:,,::>*o*:-*$-&$*><,>#*;%>,>:>=>3;%##,:;&#;%%&%,,&&&&&$oo",
"#$%o-:<::,;::*%:,;-%-*$->>,>%#-%;;;;>;;3<%o#>>>-%-%#-&,<#==:=%%o",
"oo%#::,:-;-<,-*:,:>&&%$->;:,-%-%,;;>;==;,=##>>,;=--#-%>,##=:=&&o",
"o$##><<:&&-11-*,,>*$**o&,,::-#*%,::>;=-=:-%#;>;-%-%o&#;;#%=-=%&o",
"$#%#-,,;*-->>--,,,*%-*$$:,;:-%-#<1:;;;;;,-=#;>,;%-%#&#&=o#-;=%&X",
"o#*#*:,;*-->,*-,<:;*&%%o-::,>#;*><:&%==:>*%#;><*#--%&#%&#%->-=%X",
"o#-##*:--%*;>-:31<&*&%-#*--1-X-->>-%#&==:&*#-;;*%;-;-%#&%%;::&%X",
"X#&%#*,-*%%,<:,<,<&&%%;X*--,%#**:>-%&&&:>-%#**;*%--;*%X&#%-&=-=X",
"X$&&#-,--#%,,>><,<&%#%;#*-%:&#*%--&=>1&-,;###*-#--#:%*o-o%-$#--X",
"X%*%%*,,-$$:::;>><&%%$&#-*%,-%-*>>=-<3&%;-*o#--*#-%,#%X-#==##--o",
"o$$%%-1<-$%>>;:,:,&&%#&$-*#,-%**->&>2<>-;-&#.--%#=-1%-#;#=-##-%o",
"o*#%*%;,:$%--;;,::%&&%-%**#-*#%$;;%<<<<*:;*%X-;#-%;1-=#-o%--#=%o",
"o$%%%%->:*&:;;>1:-&-&%-o%-%-%#*%:>=>,33%>;--##;#=#;1-%#%o%-=#%%o",
"&$$**$->-**,:*->:<***&;#$:*;&O-$>1--,<2%;;=-####-*,<--%-#%-=#%#o",
"&$$*-$*>>*-,:*&>::*&%%&o$**-$O-%=,=<,33&>;-%# #o%*>,;;*;%&==#%%o",
"*$%--%-,:--,:&*>:>&$&&*%%%&&O$-%=:=,,2,&:-%%% ##&&>-;&#-%%=;$&##",
"*%&-%%;<--;:,&*,:>%%**-$%&*$o$=&=>-><2;%>:-==o #-->;;%#&##%-$-##",
"*%-;**:<;*-:,$$,:-&**%&#%$%#.@-=-,=;3<;%>:---% %;---;%%;%#%-%:o=",
";$*;-*-1**;,,o$,>:&&*&&##.$ .+-=%,;=2<,&:,==%#o-=&;;>;#-#o==&-o-",
">%;--*&,*&;::#$<::%%*-&o$oo#Xo-=&:;%;,;%;>%-=%%%%%>;>-#-=#%==-#=",
";&-**;%,-%*;:$%1::$%->&o$XX%%o&=%:,-;*%%;<-=-%=#&%<;;-=%;o%%;-o-"
};
