/* XPM */
static char *Wood_25_128x1281739968842[] = {
/* columns rows colors chars-per-pixel */
"64 64 20 1 ",
"  c #472818",
". c #4E2C1B",
"X c #512E1C",
"o c #4F301F",
"O c #55311D",
"+ c #5A341E",
"@ c #5F381F",
"# c #60391F",
"$ c #563320",
"% c #5C3620",
"& c #5E3821",
"* c #603720",
"= c #633B22",
"- c #693F24",
"; c #6D4226",
": c #6F4428",
"> c #714527",
", c #724628",
"< c #754828",
"1 c #784A29",
/* pixels */
"<;OX.&&$&$O.;;=;>@OO@O+@X.;;=;X&%%;;+OOO%-X-<:-*%%X.X++XOX=-X+*=",
"<;OXo$&&=$O.;==;>@..@O+++.#;=;O%%+;;+OO.&-O-,:>$O*XX.O#O$O==++*=",
"<;O+$&&&;$oO;==;>@XO+X+#O.;;&,O$+%;;@OOO$>X-,->%++XXXO++*+*-$+*=",
"<;XXo&&&=$oO;=@;;OX@+oX@..#;=:O$%+;=&O+.%>+><:>&O#XXOO+O$O*-++==",
"<>++X+$&=+XO;-@=;+.O+X++O.&-=;+%&+;=+OOO%-$-,>>&O*XXOO#OO+#=&+&=",
">;OXO@$&;+XO;=+;;OX@@X+XO.=;&;+&=+=&&+O $:O><>>&++ X++#+++=-*%**",
"<-.XO%$&=$O+;-+=;XO#@.XXO.#;=;+$&+;=++OX&-$->>>*++XXOO#O++&-=+==",
">-.OX+$&=&X+>-+;;X+#+X+..O#;=;+%&+==&+O+$-%:,>>+O*X.OO#++O+-=+==",
"<-.+$$$&&&O+;;+;;O+=+O+XOO&;=;$$@+=&&++O%=%;,,>&++..OX&O+++;-+==",
",=.Oo$$&$$O&:=+=#O@+OoO.O.=;=;%%++;&&++O$&%;,,;&OO..OX+++X+--#==",
"<=.+.$&&$&$=>=+;;o&&OOOXO.&;=;$%++=+%%OO$%&;,>>+X+X.+X++XO+=-#==",
"<=.$$.$=$&O&,=+;&O&+O.O++O=;=:O$+O;&%=++%%+-<>;&+OX.XX++XOO=-=&=",
"<=.OO.&&$%+=,;+;+O&&O.o++X@;=,O%&+-++=O%&$+;<>;++.XXXX++.XX=-===",
"<=X&Oo%&$++=;==;++&%OX.++X@;=,O=@+=&+=X&$$+;<>>+OXX..X#+XOX=--=-",
"<=X=OO&&$$+=;;=;+O+@X..+@ +;=<O=@+=&+=OO$$+;>,;&*XXXXX#+XOO#--==",
"<=X=Oo$=$$+=>===@+&+..XO+O+>=:O%++-=+-X+%O%->,;**XXXXX=+OXX+=;--",
">=X=+++=&%$&:=--++%$X..O+X+;-;+&O+=#+=.O#+#->>-#X.X.XX#*+XX+*,--",
"<=X=+X==$&O&,;;=O=$+.OXO+X+>=>$&+O=++&O$#OO>>>-#XXXXXO#*+X.O*---",
"<=X#&$%=$&O=,-;=O=%&XXXOXX%>-,&%O+==++OO+O+#>-;#XXOOX+##X.X+*<-1",
">=X#O$&&$=$=,=;=X=$OOOOOXX&>=<&=+O=++&OO*++->;-#XXXX+###XX.+*--<",
"<#O=OO&&$-$=<-:=O%OOXOX++X+>=,+&#+=++#XO&X+;>;;#OOOXO+#-X.X+*-1<",
">=X=O+%%$;o&,-;=O&OOX+X+OX&>;>++@++&++XX=X+;>;;#O+OO+O#-+XX+*-<<",
">=O+O$%%$=X=,=:*.%OO.+++OO&,;:++&O=+++++#X+->;;=.OXXXO##OXO++-<<",
">=X&O$%%$-X*<=>*.%OXXXX+OO%:;:%+++&++O++=O#>>;;& #OXOX##+.X*+-,<",
">=.+%+*%O=o&,=>*O%$OO+O+OO+>-<O+=+*&+O+&=X+;>>>@ O+.XX&=+X+#+-<<",
",= +X%+$O=O%,->%o&$O+X+#+X#>->+O#+#+X++$*X=;>>;@X+XXXX+=+.+*+=><",
"<=.+OOX%$=$$,=>%O$OO+O.++++>-<++++#++X+%=X+>>>;+XOXX+X&=+O**+=>,",
">#.+$O$$$*O%>*>%o$+o+O.++X+>->+X=+&+XXO&=++<>>;#XOOX+X*=+X+*+=>>",
">* ++%$$$=O$-->&O+O+%+XO+O+>->OX+&*X+X+=*X*>,>>*O+OX+X*-++=++=-<",
",*.+&$O$$&O$,=>*O&+O=+X.+O#>->+X+&=+XX+&++*>,,-*O+XO+X&-X$*++=;>",
",&.+*&O&&&$O-=-*OO++=OoO+O+>->+X+*=OX.X=$X%><:-#++OX+X=-++*+&=;,",
":& X=*o*%&$O,--*+%$O;O..O+#-->+O+%=+X.$&+X%>>>-#++O++X&-+O&++*->",
":=..-&O%$&XO,=;&+@+X#+XXX++>->+X+%-+X.+%X+&>>>;&++X+X+=;OO++#+;>",
":&.O&%X+$=.O>=;&O@#+;OXO++#;->+OO%-OXXO%XO&;,;,=++XXO+*-+%+++#->",
";&O.=$.o$&$.;=;%++X+;XOO+++>#>++O%-OXX%*X+&>,:<*+#X++O=-O&&+++=,",
";=O$;&$.$=..:-;++%++>XOOX+#;->++O+-OXO$$XX*;<;<=X+XXO+=-O&+++&=>",
";=OO;$$..&o.;=;O+OO+-.++O##-=>=O++-OX+XOO+=><:<=X+XXO*--X&+O++->",
";=OO=$$O.%O.:;:OOO.&;.X+O##>=>=O+#-X.O+XX&=;,:<=X#X+X&=-O&#++&=<",
";=OO&$$Oo&..;=;+O .=;.O+X##<-:=O+&-+X+++O+=>,:,=X+.XO+--X&*+X+=>",
">&O+%o%O.&..;;;O+X.;>X++X#->=;=+X*-+XX+XO==>,;,;X+X+X#-;X=++++=<",
">=OO%o$O.&O.;=;++.X->X##X&=;=:=&+*-+O++.+=;>,:,=XXXXX+--X&%&O+=>",
">=OO+.$o.+.O;;;++OX--X+#.=->=;*$O=;++++.+#->,:<=X+XOO+--o=**O+=>",
",=XO$o$+.&OX;;;O+X+>;++=X&-:=:&+X=;OO++O#=#<:;,=X+XX++;-.&&*X+=,",
",=OO$o%O.$+O=;;++X+<;+&+.*=;=,&&O=,+.++++#=>:;<;XXXX++--X&&$.+*>",
",=OO$$$$XO$O-->++O&<;#X+.&;,-;&&+=<+X+O+#==;;;,=+XXX++;-.%++.+*;",
",=XO$o$$XXOX-->++O&,;+O&X&;,=;+&+-<+X+O++&=;;;<=X+XX++--X$*+.+=;",
",;OO$$$OXX$X=:>+++=<;+X*X*:,;;%%+=<+X+O++#+-,;:;O+XX#+-=O$=+.O*>",
">-Oo$$.$XX+O=>;&#+-<-&X%X&,<=>%%&=1+.++@+&+-:;,=++XO=$==$$#+X+&;",
",-OO$$$$%oXX-::&#O;<-+X*X&<,->O$+=1+.++@O%O;;;,;++.X*+==+$++X+*;",
",;O.$&$$oo+X-->*&+;<;+X*X&<>-;O%&=1@.++=O+O;:;,=++XX#O=*&$++X&+>",
">;OX$&$$$X$X=:,=#=<>-+X=X$,,=,O%&=1&.O+#++O=:;>-++XX#X=++$++X++-",
">;O.$&%&oXXO--<-##><-%X&XX,,-:O&&@1#.O+@O&$;:=,=+$Oo++===$++++&-",
",;+XO=$&$.XX--,;=-<;=++&+X:>-;O&+=<&..+@O++;:;,=+++OXO=#=OO++++-",
",;OX$&&&&XXX=;,:=;<;=+O%+O:>=>X&%&1#.X+@O+O=:-,=&+XX+O=#=+++O++-",
",;OO%&&&%.O.=-:,->>;-+XO+O>>=;+&+=<=XO+@X+O;,;,=*+XX++=&*oO+O+%-",
",;OO&=&&=XO.--><;>>==#+++X;>-;+&+@<;OO++O+X-,;>=++OXXX***O+*O++=",
",;o+&&&&=XOO=;;<>>-==+OOOO;:-;%&O&<;XO++X+X-<;;=&&.X+X**&.X=X++-",
",;O$&&=&&O+X;=><<>===+OX+O=,=;$&$&1;OO++X+.-<>>=++X.X+&+%oX*+++=",
",;$o&&;&%OOX;=;<>>=+&++O+.-;=;O===<;+X+OX&.-,;>=*+XXX+&+&oX=OO+=",
";;$o$&&&%O+O;-;,>;=+++O++O;>=;%&&=<;OXOO+=X-,:;=*+XXX++#$X+*O++=",
"<;O.$&&&%O+O=;;,>;&O+++++X;:=;&=&#1;+X++%*X-<;>==XXX+++=&.+*X++=",
"<;XO%&;$&++O;=;:;;+X+O+=OX;;=;+&+@1;OOO+O=X-<;>=*+XXX++++.+*+O+=",
"<;XO$&:&=++O;=;:>;OO+++=+O-;&;+%%+<>+OOO+=X-,:-*+XXXX$+&X.#=+++=",
">;XX$&&&%O+O;=-:>=OX++++%%=;&:O&%@<;+OOO%-X-,:>%#+XX.+O%O$#=X+#="
};
