/* XPM */
static char *Wood_15_128x1281739968841[] = {
/* columns rows colors chars-per-pixel */
"64 64 17 1 ",
"  c #42AE0F2E007C",
". c #45AA119601B1",
"X c #4D3D16350440",
"o c #4F2917F80542",
"O c #5074173804BD",
"+ c #544B1A020669",
"@ c #58E11BBE072C",
"# c #56661B990841",
"$ c #5B411DC30932",
"% c #602F1F7309F7",
"& c #5E66206B0B36",
"* c #632422A70CC8",
"= c #693725C60EC1",
"- c #674225630FEA",
"; c #6A07269F105C",
": c #6D7228EE11E5",
"> c #71F92B7E13C2",
/* pixels */
"X*&#*>;*&oo&X&&&&*&O&&&@@*&&&*;*++$o.#$$=*%$@$*%%*$%$@-;@:-*$--O",
"#;&&*>>*&&&oXoO&**&o&&&@@&&*&&;*+&+X##&&=*%@@@%%$%$$@@-:+>:%&%&X",
"*:&&=:>&oX&&X@&&=&O@&*&O&&&=&&-&+$+o$&**%**@%%%$$*##@@;:@-:*$*$.",
":;&*:::-&X&oO&@&=*&@O&&&&&&&&*-&o$+$@&=*$%=%@%%%$$#@++;;@:-&&-#X",
">*&&::;&&X$OO$@$**&&@*$@&&&&o&-&O&@O@**&@%*%@@%%$$$$O@=;#::$&*+$",
";&&;:=&&&X@OOO@&*==&@*$@&*&&&&&&O@@@+*&@@$%@@$$%*$@$o@;;#->%&-#-",
"&&&;::-&&X@OO@$**=*&+*$+&&&&&**&O&@***@%@@*%$%$$$$+##@;:+&>%$-#;",
"&&&;;:;&&&@+O@@$=*&&&*$$&&&&&&*&O+@&*&@%%%%%$@$$*#o$#+;>#*:#$-#;",
"&#-*&;-&&@@XX@O&*=****++&&$$$*;@X$&&&@+O&$&@@$$@$#O%O@:>$&:#$-&*",
"&&--&&*&&X@OO&O&%=%$*%$O&&#$*%;$O&*$@@@X@@@@$$$%$OO%O#->&&:$&-#*",
"o&-&&#&&@o@OO+$&**$*=*@O&&$$%&:$O@$@@&@OO$@%$@@&$+$%OO*>&*:#&&#-",
"X&-&&+#&&XoX++@$**%**&++&&-$$-;$+@@*&&OO+@%$@@@$##--OO->--:&&$$*",
"&&-&*++&$XoX+$$+&*$*&+#o*#&&***%+$$$++&&++@XO&@@+$;;XO->*&:&&&$&",
"&&&&*&+&@+XXO$&$*%%=&&$&*&&&*-:$@$*+++++@+@XXX@&O%--OO%>&&:&&&&$",
"&-&&&*$$+$+o+$$$$***&&#o&#&&*:-&@$$OO$OX@@OXoX@&#%%$X#*:&-:-&&&$",
"**&&$&**@+oXo@$$$$$&-&&o&#&&*-*$@$$O$$XX&@&@&@&@$%%#.#*:&*:--&&$",
"*&&&+&&&&OXXO&@&@@**&$%@&&&#&&-$@O&O&@+o####$$@$#%$X #$:%*>-%-$#",
"--&&+&&&&Ooo@&@@@@@&@*@+&&&&&&*&+&O&X+&+O+OXO#@##-$. @%-**:%%&*$",
"--&&&&-&@@O@O@@@+@$&+**@&&-#&-*&+&&OO&*#XXOXXO@$$-#  $%;--:*&&&#",
"--&&&**+O@@@@&OO+$$$@*@+&*&&-:*&+++X@&*&++@XX#@%$%$ .$*;%$:-**&#",
"&;&*&--&$@O@@%@+@@&&+*@@&&&&==*$+++o&&**$$*+O@@%#%#. $%;&&---*&#",
"&:-&&&&&@OO@@%@+@&@@@&&@$&&&*=*$+&++&*&&$%*$+##%#%#. +%;-&:-*&##",
"&;**-&&&+O++@%++@*&&O&@@+&&****&O&++&&&*&$$*@#@%#%%O #%;-*>-&-&&",
"&*--&&&+$+OX@%++%@&&@&$@+*#&***&+&&+&*&&&##*%##%#%-#XX#;-&:&&&#&",
"&&;&&&*&o#oo+$@$%@@$@&*@O*&&**;&$&$@$*&*&#&&&##$#--%XO$:&#>&&$&&",
"o&;&&&*-&&++@$++@+*$@@&+@*&&**;*$*&O&**=-#:--##$##%*#.%:-&>&&-#-",
"&&=&#&&&*&o+@@&@+@%@@@@@@*&&&*;*@&$O&**=-&::$#$%#O*-$.#;&&>-&-#-",
"&&=;o#&&&*o+@@@@@+$**@*@&*&o&&-*+$+Oo&*:-%:>#+#$%O#-*.#-&->-$-#-",
"&o&:&+o&&&#+&+X@$$*$$**@@&&&&&-&o&&oo&&=-$--###$%OO%&X$-#*:-&*#&",
"&&&:&&&&-&#+&&&@$$%*@%*@&&**&*;*o@@oX&&*-$:-####%$OO-X#-#*::*-&#",
"-&&:=&+:>*+o&&&o@$%=&@@@O&&*&&**+&&OXX&*-#;-#O#$$#$O&X#;#*>>&-*#",
"-&o&:&&::-&oo&&&$%%****@@&&&&&*&&+&O&X&**$:-#O#%$$%O$O#;#*>:&*&#",
"&&+&;:;;:*&+@$&+%*$***$+X&&&&&-&&@$@+O@&&&&&&o@&@O&O&++=$$>:$$-o",
"&&&&;;;:-*&OX@$&@*@@**$+o&&&&---&+*$@@O@&&&#++O&@@o@@$+*&$>-$$&$",
"&&&&;;;-&;&XO++&$*%@$*$+O&&&&-;-&$$$O@O&+&+&+&&&&&&O$&$**#::$#--",
"&&o&=;:*&;*&++O&@%*@@@@OXo&&&*--*$$$@@OXX&&*++O*O&&@++@;*#::****",
"#&&o;;-*&-*+o+&O@%@@@@@O&&&&&-&-*@@&&@OXXO**o++*&&&&o&&=-+:>***%",
"+&&#*;;*&*-+XXX&@@%%+@@OX&&&&-*:*@O&&@OXX+++++@*&&*&o&+*;o::*$**",
"o-&&&-:&*:-&O&X@+@@@@&&XX&*&&**-&&O&&&&OXO+Xo+@$&&&*&OO*;#-;:$**",
"o&&#&;:-*:&+O+OO+@%@&&ooX&**&&&-&*O&O&O&XO..++@%&&&*o&O&;#-;*$&*",
"&&-#o-:-&;*&++O&@@%+$%+Oo&&&&&&-*=+$$%@@@@+o++$*-%$&@#O$:#-:&+-&",
"&#-&&-;*&;&&X&X@@@%@$+++oo&&&&&:**+$$%$+#$$#++@*-%%%#@O*:$-:*#--",
"&+*&&*--&;*&@&X&@@%@$OOOX&&&&&&:*=$+$$%#+&#$+@@*-%$$$$+%-#--;o*-",
"-&*&#*:*&**&@Oo@@%%@@OO@o&&&&&#-**$+%$%##+&#+$@%%%@#@$X#-$::;#$-",
"-#-&#&:-&**&$++@$%*@O@O++&&&&&&;*-$o%$$@+++++&@$;#$$$#X#-$::-#%*",
";&&-&&;-***&@++@%@*%@O+++&-&&&&:*&-o%$#@+++++$$$%@+@$#X#-$>;;#*$",
";&&-&&;:***$O+O+%@*$+O++&+&&&&&--$-o$##$oXXo+@*$@%+@$$o$-$:;-$%$",
";&#*+&::=**$X++@@%*$+O$$++&+&**-:$:o#*#$ooo+$$@O@@@$##o--#>>-$&-",
"=*o-#&:::=*&o#&#@$*$oo+##+&$&-&;;$-##%@%@@O@%+@+@@+%##O--@>>-@-*",
"**#-&*:::=&&##&&#*:$oo+$#+&&**&;-@-#@-@%@@@#+@@@@@@%##O-=*>:-@*-",
"**$-#*---:&&$##$@%**@XO$##&&&&&:-@-XO-#$%%%@+@%@@@@%@%O-=-:;*$*%",
"**&*#-::::&&o#$#@*&%+oX###&&&&&:-%;XO%$%%$@@@@%-%@$%@%+-*%>--$-*",
"**&*#*:::*&&+#$&$%$*#+X##+*&&&&;;--#O%$*%@@@#%$-=%$$@$#;&&>:%$%*",
"-&&*#*:-&&++oo++$%%*$@++&+&&&*&----O#*@%$@@@#%#%%@$$@++-#*>**$**",
"-&&&o->-##&&++&+@%$#%+@++o*--&&;--$X#*@%-%@@+%$%$+$%$O@-$->-%@**",
"*&###-:*#&&&+&&+$%%$%@#+X&&*&*&:%-%.@%@@*%%@+%@%@+%%%#$:#-::*@--",
"&&++&&-&&-=&+++&%%&$%$%+.&-&&&-:%;@ $%OO%%%@@%@$@#%$$#%;$::--@-%",
"-&&&&-;&&&&&+&+&$%%#%@$o#%-&&#%:--# %$O#%=-@@%$+@#$#$O$;#>:-%+*%",
";&&&&*-&&&#oo++&$%$$$#$#X&:&&#%:%%.O-#O$$-*#@%+@@@$#@X%;#::-@#**",
"&X&&&-&&&#&o+&&+%%$%#$$+o#-#&&&--@X%-OO$#*-%@%$$@%%$$X%-$:--#&*&",
"&X&#&;-&&&oo&++o$*##$$####&&#&---OO%%XO@%*%%#%%%@%%@$+--&:>:O&&*",
"oX&#&;*&&o.X++++$*$@$*###$-$#----O@-%###*%%@O$%%#$%##+-;#::-#**-",
"o#&#*:;&&XX&o&&&$-$##$###**#&&%-%O%;$@%@-=$$$$%%#%@###--#:*-$*--",
".#*#*:*&&XooX&&&&-$$O$$#O&-##$&-#O-$X@$@%-$$#$*$%%%@#O--#;**@%-$"
};
