/* XPM */
static char *Wood_19_128x1281739968842[] = {
/* columns rows colors chars-per-pixel */
"64 64 202 2 ",
"   c #18EF06C701E9",
".  c #1E55091F02DE",
"X  c #24550C290417",
"o  c #2B2C0DF50325",
"O  c #2D8C11300634",
"+  c #2D1D15290B58",
"@  c #32CF13B20684",
"#  c #33DA158008F2",
"$  c #3885167F0866",
"%  c #367319230B90",
"&  c #3CC01B970C3E",
"*  c #3CC71E2610D1",
"=  c #41BC1DF70D54",
"-  c #412C1EF5103B",
";  c #449620A30E6B",
":  c #487921890E21",
">  c #450E227311BB",
",  c #4B29254A127B",
"<  c #4E0128EA156F",
"1  c #4D1E2BFB1A1A",
"2  c #506C273214AD",
"3  c #52C92A9E158F",
"4  c #591C2DE51675",
"5  c #544A2D73197C",
"6  c #59652EDD1989",
"7  c #566330C41C28",
"8  c #5CAC32711BF0",
"9  c #624A35B81DBD",
"0  c #6692386E1EFA",
"q  c #68E939441F30",
"w  c #550C340E22DE",
"e  c #5CBD3608216E",
"r  c #5F333ACF2603",
"t  c #62A4370B20AB",
"y  c #652C399D21DE",
"u  c #6BA53CED237D",
"i  c #65F33DAB283F",
"p  c #6B883F7A28B0",
"a  c #708A3EC5240E",
"s  c #6E3C409B26A7",
"d  c #665340C62AB7",
"f  c #6D0442A02A19",
"g  c #739941CF2627",
"h  c #795E444926F5",
"j  c #74C4448129A1",
"k  c #7A37468729F3",
"l  c #75E348672E56",
"z  c #7D2D49C42CAA",
"x  c #6FBE47932FDC",
"c  c #75934AFC322D",
"v  c #7D2D4D3A31AC",
"b  c #75C551093723",
"n  c #7D5A51993553",
"m  c #7A3D542238F5",
"M  c #79ED5B3E413B",
"N  c #829D4C522DE9",
"B  c #89394F982F5B",
"V  c #895150122F98",
"C  c #83C54EC630C4",
"Z  c #89534FA82FC4",
"A  c #85B351583328",
"S  c #8C0C542C3455",
"D  c #8EBA582E36FA",
"F  c #84D855E03930",
"G  c #8D6957843848",
"H  c #84EE5B983D5B",
"J  c #8DE75A383A9D",
"K  c #918756BF3586",
"L  c #93BC589F3710",
"P  c #984C599D3727",
"I  c #94675B643A5A",
"U  c #9A035E513C23",
"Y  c #93E860493EAB",
"T  c #9C7361253E94",
"R  c #A27763143EC1",
"E  c #935C5F284015",
"W  c #8C3F617742D1",
"Q  c #8DC0684F4742",
"!  c #8BED68C34B65",
"~  c #93BA63AE42D8",
"^  c #9DBF63B34163",
"/  c #96F469604726",
"(  c #9C0569184671",
")  c #941F6AB24AD8",
"_  c #9B526D264AF9",
"`  c #988B740C5275",
"'  c #A30B65E94272",
"]  c #A8DA674E4198",
"[  c #A565695B4580",
"{  c #AB0C6B544607",
"}  c #A5086D10492E",
"|  c #ACE96E3D4943",
" . c #B1716E224742",
".. c #B1AD6F3348D9",
"X. c #A52171A94CD2",
"o. c #AD25721A4C00",
"O. c #B3D273454CAF",
"+. c #BAC676574DBC",
"@. c #B71678894F9E",
"#. c #BC7378FF4F3E",
"$. c #A68376185393",
"%. c #AA5676465221",
"&. c #A6C07A4255BE",
"*. c #ADEF7AC85327",
"=. c #A1A8792C59F2",
"-. c #ACA77E3B58BA",
";. c #B3EC769B505C",
":. c #B9C3775B50B1",
">. c #B4997B6A5387",
",. c #BCD17BA052EF",
"<. c #B05A7DF357EE",
"1. c #C2567D705407",
"2. c #C85B7F9E54C4",
"3. c #AF4D81BA595B",
"4. c #BD7C81175703",
"5. c #B4D482C05AA2",
"6. c #BDA9845B5A95",
"7. c #BC9489E75F78",
"8. c #B37F867862B1",
"9. c #BC9D87E06005",
"0. c #B61A8AFB62D9",
"q. c #BC7B8C2C62C5",
"w. c #B79490BE6794",
"e. c #BBC0910C687F",
"r. c #BBC99AA673B7",
"t. c #C41B818056AF",
"y. c #CBD283E256EF",
"u. c #C448848059F1",
"i. c #CAFC84FB5A62",
"p. c #C48F89A75DF6",
"a. c #CC108AB55E6C",
"s. c #D31686CB5902",
"d. c #D3468AE85E12",
"f. c #C3E68D0E6219",
"g. c #CB918D7B6192",
"h. c #D37F8DAC6185",
"j. c #D9058FD06403",
"k. c #C3A690D46520",
"l. c #CCD0927564CC",
"z. c #C6E2951F6B59",
"x. c #CC9795C66946",
"c. c #C51799496F1C",
"v. c #CAAC998B6B9A",
"b. c #D43F92E264FB",
"n. c #DB05940A6583",
"m. c #DA3E9856676E",
"M. c #D48C96BC692C",
"N. c #DB4B96816918",
"B. c #D4889B0B6CB1",
"V. c #DC2E9B6D6C35",
"C. c #C4EB99AC7315",
"Z. c #CDF39D4E7166",
"A. c #D4A39E6471A7",
"S. c #DBDE9F01709C",
"D. c #E406984D67C7",
"F. c #E19296576971",
"G. c #E2D09C526C11",
"H. c #E8DC9E406F17",
"J. c #E053A0836F00",
"K. c #CC78A38878CC",
"L. c #CBA2A8EC796D",
"P. c #D5D5A2AC737A",
"I. c #DCD4A3D173E2",
"U. c #DD87A9707779",
"Y. c #D57CA69A7970",
"T. c #D32BAD9C7CC7",
"R. c #DD54AC2E7C3F",
"E. c #E50EA16F6FA4",
"W. c #E88EA3516F14",
"Q. c #E401A3BD7379",
"!. c #EA77A50873D7",
"~. c #E45CA949772F",
"^. c #EB89A8F3767C",
"/. c #E296A6497873",
"(. c #E514ABC37AC2",
"). c #EAD6AC227A65",
"_. c #F1C8A7A47388",
"`. c #E39EB1337E73",
"'. c #EDBFB1997F29",
"]. c #F234B1F37EAD",
"[. c #CE14A99F832F",
"{. c #D4F9AF1780B4",
"}. c #DA2CB36B834B",
"|. c #DAE2B6A28715",
" X c #E3C0AEC28245",
".X c #E3E6B55784FB",
"XX c #ED40B5778300",
"oX c #E3B1B96E8520",
"OX c #EC65B91B84C8",
"+X c #E6A1BD698A77",
"@X c #EB48BC1B8C91",
"#X c #F1FFB6028280",
"$X c #F2DCBA16860F",
"%X c #F4E5BC7288CE",
"&X c #EAA0BE67966B",
"*X c #EE45C13B8D8C",
"=X c #F78CC2E08D01",
"-X c #EAD3C1C9981E",
";X c #F248C2BE90EE",
":X c #F5DCC94C9728",
">X c #F750CCA49C2B",
",X c #F8EBD25A9B47",
/* pixels */
"a l.X.g T I k q u N a.V.J y S [ ;.I z j ^ k 8 l 8 < > 8 C I z Z t < - e 9.B.u.l.+.1.T 6.b.).U , v A g U +.Z 3 u 1.1.s # < ^ U j ",
"6.O.h T R z g z N b.S.E u z [ D ^ D u S C y t G u 3 l [ [ u 2 % , i ( /.I.M.M.,.] u.t.i.d.O.3 = D k K +.[ 5 3 [ O.9 % * I ^ s p ",
"} C 4.:.B z K U m.~.b 9 C I C D Z t j j C I p C u F [ A e 6 p ( f.A.!.g.,...G U R O.B.I.a.8 o 9 N D ..I , , O.L 4 % 5 G T y s O.",
"C v.p.U N B R b.M.0 9 U I Z A j 8 t j Z [ J u v D G 8 u [ g.b.S.B.6.I u k 9 z Z ' 1.I.M.d o : A N :.R 2 < T D = & 4 S U j J l.>.",
"}.m.R k z  .b.g.p 9 ' ;.U U j 8 9 k E [ O.I @.' C 3 ! B.Q.Q.I.g.U k 4 g p j C u ..!.b.C # = B A ' T - 2 U A = = 0 K Y q n v.X.U ",
"P.U q g ] D.a.p 5 ^ [ I ^ p 0 8 N [ { [ | o.| y e -.Y.x.1.>.^ C G A S j u a 8 B j.V.O.3 & u L U S , - G N - = u L z , b l.D F T.",
"U N g +.b.4.u q E U A U y 8 9 z O.O.[ | [ I 0 G g.b.^ z S z S ;.^ C k A A s u p.b.,.k : 4 k | S 7 , Z C - = a ' S 4 m `./ j x.l.",
"N z R p.c.f z [ I u z j y g C | [ ^ ' K v s *.p.^ C 8 u D ,.g.g.g.o.A T A h T R.M.O.4 2 A D U 9 3 D C > < z E K s ! |._ V M.M.] ",
"g O.I.[.c L [ D y u 9 j Z v { ' | T S j c r.5.N N l K O.N.b.u.;.l.x.} U j k a.(.N.l > z ' ' 8 3 S z = : h Y z g G v.} T V.m.T k ",
"O.!.Z.x K ] j 8 9 u z I A ,.[ ' A h a J c.` u D I ,.x.V.u.I T g.Q.b.G G e ^ XXH.^ > j ' T 9 = D z < , j T S a f 7.I  .b.d.L z k ",
"OXA.y h U i , i g K U S [ { U Z N k J I.J u C ' g.V.6.K k s a h.Q.t.K 8 k V.^.,.5 z K I q ; z g & < F o.A g z } J { #.y.R z z  .",
"k.l g U k < t C ^ | v E I K D D j Y P.I A | t.^.!.,.^ z s u P b.x.X.i 9 | (.j.s t U G 8 % 8 a = 3 A R L q F o.z { t.s.[ N h R E.",
"q g D g i 4 S ^ C C ' ..G K Z v ~ M.' I ;.1.g.N.,.E I E [ C :.#Xz.Z q U ).l.j s ^ o.p % > 4 ; 3 j T z s Q 7.l T m.t.[ N s R b.@.",
"g D s C 9 v I C j [ 1.' S k 6 / u.B [ h.,.1.,.[ E Z C ..g.I v.J.T N k G.'.A e ' [ k 3 % , < 9 k T z p W L.A Y J.G.U z z { J.5.3 ",
"D k ^ j z a i a I 1.{ U k 6 I ,.N ^ N.,.x.O.' E [ :...E [ R V.M.U u @.$XX.3 C ^ u 4 & 5 3 8 T O.S j F p.U | ^.b.o.g K O.%X{.q q ",
"C [ D l i , y C | ' E Z a I a.N '  X/.f.[ S | 2.1. .;...' +.N.>.u I !.X., a U C 8 & > 5 8 I O.D u F p.L O.P.a.{ g P O.OX{.y 0 T ",
"I F u 7 ; 8 j I U ' S a A 6.D I V.E.,.T I O.g.F.1.1.{ ..O.G.i.k g l.p.3 q T A 3 $ $ : p U ' k 0 c C.I { A.5.U h K O.I.M.t t I E ",
"C t < 3 4 t j ' :.S u j :.N D g.t.6.K S +.t.J.n.h.:.I R g.B.U h t.Y.e 0 U C 8 & X 3 u ^ [ g p H K.J ' Q.q.S k S t.D.b.t t I Z C ",
"< 3 < 3 9 7 G :.{ a i f.U z g.1.6.| T O.h.,.i.h.j.' ' o.B.%.N [ J.d < S A 6 = . % g T  .S g k M.^ I a.@.K h V #.$XV.y t U l l j ",
", q 6 9 J y ^ i.S e 8.*.a O.B.a.' ' @.d.2.2.g.2.@.' T l.f.z R S.m 0 A U 7 ; X & 9 U 2.S z l c.[ [ :.| D g k T B.`.j 8 D G n y , ",
": 3 : y J z O.{ a &.,.u E 2.M.g.N | F.:.h.h.1.2.T U 6.B.N S E.Y y I j u ; X < u ^ | A 9 n l.( T [ U K N N R #.p.s u ' U S 8 3 5 ",
"; 9 > > A A i.A / I.C I S.J.M.E ' F.F.h.h.h.,.| T ] V.T K I./ 4 D k 9 , X & y T | N j v x.@.z z U L N N R #.l.9 y ' v k 1 < < O ",
"9 3 3 ; v ,.^ y g.| z I N.N.I E 2.j.2.h.H.1.[ | | V.o.V b.X.6 U U 8 = o = 8 N ' N g A v.3.k z I D S L V +.Y.n s [ N p < 3 = > o ",
"3 : 8 5 D { y 5.B.z C ;.J.' E j.N.N.1.j.2.{ E } M.7.k 6.o.s T ' g = o 4 u l U D a j 1.} j A T P A P N { (.Y k T j j 9 < , 9 > o ",
": O < j O.j ! +X{ a I b.2.' 1.j.N.2.;.j...U [ i.a.K 6.0.u A D u ; O 3 9 k U I j j t.R h S G V K V g o.U.J u S k s 8 , , j N % % ",
"y & 4 ' I i P.i.z Z 1.2.{ R O.h.2.1.:.;.A [ g.,.k o.0.e A S u % o ; 9 k O.Y h s k.f.q T Y P V N N  .V.J 8 S v s 3 = , Z S u g ' ",
"j : G T 3 X.E.L h %.M.| E ;...:.2.2.| E P O.T j X.e.e k S s % X = 8 h | [ N u $.k.u z ^ S z V V R s.R 8 Y D s 4 & 3 T ' z D ,.,.",
"3 l #.s 1 S.j.S S I.:.' 1.O.O.g.h.[ A Z @.{ Z O.5.d j S u 3   @ 2 N #.' z 8 X.V.V 8 k V z h V T n.O.4 T Y j 8 ; 3 ,.n.+.+.b.H.b.",
"5 [ G < _ ^.1.N ,.u.[ :.:.' ,.1.| E G x.>.k ,.8.e Z D u ; . % : 8 O.1.S s W Y.L s h N S z h B b.f.q A T j 4 * d 4.V.t.M.OX@Xb.I ",
"' | 6 2 B.M.K U u.| | +.] { | | E E h.,.k -.f.y I ,.j &   o , j O.1.K s / V.{ 9 0 N D S V N t.>.8 D Y z 8 & y B.(.t.I.I.Y..X@., ",
",.L 3 j g.>.K @.t.| [ g...E I K ' A. .K <.r.p Z O.l & = @ = 8 | ,.K 0 J d.+.k 9 h S S z h t.| y T R A y : j P.,XU.M.i.| /.G.u 9 ",
"U D , ( l.^ 6.).[ [ ^ ^ S ' G | M.' Z g.q.t z ..9 # , > > p T ,.[ u A l.1.L L V P K S g o.M.z S T K u : V P.,X=XY.' N :.:XU 8 | ",
"Z k i Q.5.U (.u.D [ ^ I I T | @.I a t.8.w K ^ 8 ; 4 3 = t | O.Z 9 v V.#.S V S S V V a Y P.A R [ P s & N m.*XOX,.S h g Y.8., G [ ",
"k e 6.G.Z ' V.' U ' I L :.:.^ N z ,.X.w A U 8 , h 8 = 8 S O.S t l Q.@.K z h S g z k z l.J h [ S 9 # Y ].V.I.] V D j *.P.5 u [ U ",
"p v b.K S M.i.I S I U 4.b.U z N z.=.t U I 3 > u y = , z | U Z j /.M.K h 9 h A N V z 4.F A [ P j % J ,X,X+.N N L T T U.j 4 ' | g ",
"5 b.@.j i.].O.' ' @.t.M.Y u I M.) i { ^ 6 > g l = , g U A j l T.U.U g u u z V N N ,.n y O.} s , m &X>X} q V +.R O.V.Y = k :.I u ",
"=.!.N Y *X=Xz.A.i.g.6.K q X.R.M 1 P ' e 2 K Z , , z O.U u p I.oXY q u g h S S S m.F y T T s = m oX-XU 8 B | +.O.V.6., 9 U [ C t ",
"XX>.A k.).p.).V.,.} k j >.+Xm 9 S S > u I D 3 , k [ | g e a.V.I g g B j S ' D B.F 8 S | f > n @X@XY a L L | ] y.p.5 5 A I C p f ",
"M.B S n.i.l.M. .I j S g.R.M l T C 3 e 1.T < & u ^ ' g 5 4.H.V u z B z A K L a./ 3 L [ k > v U.`.' k ] A S R | l.w : g z ' k 5 *.",
"T k A ,.,.>.U S S  .b.x.l u [ y 4 l 4.^ 4 % 9 ' | A r 0.d.L g z S V O.I z g.-.u [ ,.I 8 9 M.J.P A R A B U P a.z < 7 l [ | 8 J %X",
"g I k j l h V U u.V.<.d N L 8 > A 1.[ 8 & t U | L 9 8.Q.A g V P S +.:.k a.8.i L O.K , 3 l.P.R R N k N L Z M.' , 3 0 ^ O.y d (.M.",
"A S D z h S u.R.(.=.p A ' l , [ d.U 9 - 9 S ' z 8 ` |.D u g K N T +.z 6.q.e a U U 4 9 z.'.o.1.R B S R F g.:., 4 6 N [ D 5 z./.V ",
"j A u s { S.(.(.^ y D [ s 5 | n.{ q = 9 D U z 8 ~ 7.A 9 z S B U { V k.e.t k I [ u 7 B.).+.,.^ L U L K i.u., 4 8 8 [ R 9 J '.U q ",
"z 0 z p.).XXn._ e C { e 1 O.s.t.z = 8 I [ k 8 | i.B a A A N I [ K p.3.9 I [ U 8 1 K.@X' ' Y ' K V K 1.1.6 & 4 7 I [ h t V.i.9 u ",
"y C M.S.^.a.v e I O.i 1 u.W.b.I # , A { l i 6.h.S k k k g ' K N ,.>.5 A 1.' t > <.-X} k B I V A ..a.1.8 # 8 3 A [ s < ' a.g q A ",
"U Y.OXS.X.j 9 ' | y 7 ,.^.n.U , , K ' k p w.i.A k Z 4 u ' K u O.%.7 D #.I u 2 ,.@XX.z B U B K +.a.p.u $ ; 5 g T h , A b.o.u h u ",
"g.I.5.I 6 u A I t < p.}.P.U < 3 D o.K d 0.g.D N B a y I Z 9 >.9.1 A | D 8 > ' OX,.U U L S T  .a.*.8 O & 3 l ^ k 5 v a.h.{ R [ o.",
";.v u < C K S = 3 t.*XP.A = = I { N l B.M.K j k g a G A g u.X.2 A @.^ 9 : S XXZ.A P S T } O.a.+.0 O # : k o.C 4 l P.V.y. .t.h.V.",
"8 4 t k R U > t ,._.U.^ , < U [ j d x.v.K k h s g A z v S.( , S 2.+.z < k Q. XL T V S P R a.i.5 @ = , g T D u r p.B.1.:.t.I.V.A ",
"4 8 U  .[ 7 l i._.G.D > 3 U ' 9 f v.4.y h j q s S h b }.&.6 Z 2.,.z , j l.`.K T V S P Y a.X.> X : 3 A R T k 8 *.c.S.,.g.N.M.s & ",
"t A 2...5 u a.#XV.S : 3 S [ 3 i z.5.N h s h z z h x R.` 8 L | ' G , 8 g.:XT R 1.T T [ M.I & # 5 3 f o.P A t } b.T.V.a.V.g.8 o = ",
"N [ [ y u +.G.g.g ; u D [ u y B.{ B K z z z h h A U.) 8 A [ U z < 6 :.;Xf.P d.R D  .J.H & ; 4 , f [  .K t ) V.P.~.a.x.>.> o = a ",
"..I e j :.a.a.k & t l ] S p M.%.g B g S S q g U P./ 7 I { T z < , { ^.,.K R { g *.P.f ; 5 3 1 u +.R D y W M.,.R.V.a.( 1 > 2 k K ",
"U 5 D h.d.#.g > 8 N K N a g.[ 9 g g A U N k X.Y.G 3 A ^ [ S 0 , S i.B.K D K h } r.f = , , e k { T P 8 W ;X1.o.,.M.H 8 g 8 T S O.",
"> l s.b.s.j % 8 C T z f Z.~ a h u k N N K :.S.v 8 z ^ [ C t ; 9  .g.I Z U L ,.$.w : < 3 u Z ..S N j Y ].P.O.a.t.l 1 S p a Z | U ",
"v i.y.i.s $ 8 z L q z z.( N K q h h 0 S p.M.k 8 N D ^ S 8 3 $ z P.,.z U X.v.Y = 8 f j j P E z 9 7 Y Q.M.O.n.l.p i j t z Z I v * ",
"i.~.d.y & y S U 9 Y l.T N D N g h u N i.Y.n g S I ^ A t 3 @ < L.XX .' b.Y.n * j v A v [ U u i 4 ~ G./.t.g.u.8 u I u y A K u + i ",
"W.i.t ; u A Y A J P.^ D z D N g h a ,.Y.f k A I } z t , < O ' OXn.i.Q.R.j , y j C C | ^ A f 1 E g.G.j.b.,.t j K j j K [ l * v 2.",
"X.4 > u U S y ~ a.Y I K V g g S U  .6.l 9 D [ I z s 4 > & k !.*X(.V.,.8 5 C F ;.O.' K z 5 1 ( M.b.,.B.*.t u T z g S [ k * v N.D.",
"< % l | A i Q :.n U ' V u u z  .n.>.i k ^ ' S g N 3 3 < 7 n.=X(.g.A 8 v [ [ O.' I S p % y ;.S.;.:.B.6.p y U z y A +.j % j G.F.[ ",
"& A O.S e / { C D U V h u h R W.6.8 k [ ,.T s A 5 # 3 : G H.i.K 6 g E { | I C S z > > ~ A.#Xu.;.S.V.j 6 D N g B ^ z % s n.Q.T ; ",
"S [ T 8 $.i.T D ' U A g g #.!.;.3 a :.;.X.j j j 1 , 3 3 E ' t 4 k ' I G G u j k > d q.B.#XA.M.J.XXv e j B z S ' l , y 2.n.D , % ",
"O.P h *.p.S D U ' S k N ,.!.| y u ' O.o.j k z f j 6 : < 8 , 3 C I C l u v y e u [ S.g.V.P.g.#XXX/ p S k a N I z 2 a 1.h.D * , C ",
"k h @.@.k D U K N g g i.]._ 9 g O.i.I N k v A } z 1 = # & d A k v k u j 1 e ' O.I.V.g.Q.l.V.).' 8 v Z k N T N 2 u 6.G.K = , F ' "
};
