/* XPM */
static char *Bricks_17_128x1281739968655[] = {
/* columns rows colors chars-per-pixel */
"128 128 87 1 ",
"  c #3F0436C02F6C",
". c #36DB36EC36FC",
"X c #3DC6375531B2",
"o c #3D3E3905355B",
"O c #378F37A937C2",
"+ c #37A437BE37D4",
"@ c #3C0E3C1B3C28",
"# c #3FDB37813014",
"$ c #42293AA63422",
"% c #42043E153ACA",
"& c #44A040C43D9B",
"* c #4B16438F3D29",
"= c #50E546C23DD7",
"- c #51C647E43F45",
"; c #3F8A3FAF3FCF",
": c #3FB53FDA3FFB",
"> c #43E143EF4401",
", c #4A8446894350",
"< c #4D4E48F84588",
"1 c #478D47B747DD",
"2 c #47D1479B47DE",
"3 c #47BA47E54810",
"4 c #4B4E4B314B2C",
"5 c #537D4B4D4456",
"6 c #59144F7B4734",
"7 c #52484E1F4AE4",
"8 c #58EC4FB547EC",
"9 c #550951454E64",
"0 c #5A4253364D51",
"q c #4F954FC24FE9",
"w c #4FAC4FF45040",
"e c #54A253B3532E",
"r c #59DA564F53A0",
"t c #5C74590A566C",
"y c #574957845838",
"u c #584457C85807",
"i c #57B157FA58B3",
"p c #5CF45B7F5A9B",
"a c #61CC5B615617",
"s c #615F5E8E5C75",
"d c #639260D45EC7",
"f c #696563435E52",
"g c #5F585F696013",
"h c #60825FDA5FFF",
"j c #5F9360106086",
"k c #656D63FE6321",
"l c #68F466D6655A",
"z c #6AC06898670B",
"x c #674167726832",
"c c #682367CD6816",
"v c #679A681B6924",
"b c #6CD16BFC6BA5",
"n c #710C6B8A6701",
"m c #70C66F146DFA",
"M c #725270866F4A",
"N c #6EEB6F727067",
"B c #70346FC17039",
"V c #6F9070367142",
"C c #73E8738B73A0",
"Z c #78CB7733763E",
"A c #7A42788E776D",
"S c #76D4776C7878",
"D c #785577F17836",
"F c #77AB7851795E",
"G c #7B717B477B91",
"H c #81077EF97DA5",
"J c #830E80D77F4D",
"K c #7EC47F65808D",
"L c #80347FE6805C",
"P c #7FA6805F8182",
"I c #8366837F842C",
"U c #88CF86D5859E",
"Y c #8A8388CF87AE",
"T c #8696874388A2",
"R c #887B87D88885",
"E c #8792885489AD",
"W c #8B008B218BF4",
"Q c #90ED8F548E82",
"! c #8EA98F4490B0",
"~ c #8F9990849242",
"^ c #93B093D094CA",
"/ c #98DD97F197E0",
"( c #9688973B98A6",
") c #97BB98BD9A43",
"_ c #9ACE9B449C41",
"` c #A12AA04C9FEF",
"' c #A22EA24DA285",
/* pixels */
"e4>&@@@@@@+@+@+@@@@;&%;%@+o+@+@+o@OO@O@:>4eq4>:@%;@@:@@@@@@:::>>>>>;;;;;;@;;%;;;>>>4wee3>>@>&;@&;;::;::>>>11>:&;;;;;;;;&::;:>44w",
"e3emcpcCFCCmk9***o$o#&&$$$##    ######*7>4eq2,*,&%77tpkzkCmzbldttpclbbp<&$$&$oX  XX>qew3e,%$&%,ejzbVbp44&&   Xo&&&$ $o&&99rlbe4e",
"3wWIZzMbTDLWCZnfMdab6tabttMbzndtrra0fr9Ct>445frtkrr0s7s7rr<rpCCmssCddsMbMMdkkktMst9>3w3bzztd79erepcCGMACDlddtde9g9tr799r9p<<9Cw4",
">bIGCAbkmmkzdMlzfHMzzbrtMrZGAGbGFLCFzzcms>3>sskr7tspbszzd95*4pdCCkbbkddCMbMbzpDCCbbz>4eIszbdzppkdp9zlkCbmCCmmkblblfbgsrlr9dkpkj4",
"@CGAMAZMFbkfbbbbdkzCGDMdftezfllCCZFbCCzmm22>klkBbkzps7<ptepk47gctMpd99luVvmCCzCbCVCr>3eJmzkzbCvkpeksllkdlkmVVbmvbmbmjbk9llkvrkg:",
"@ACazGFGCCdpnzzMfrfGGAbbzz9rMMDlasCzCbzAb>>:knkebCbsttkczdk9detpbbbdmkvzVCmbMkbbVVCc@19GddpCbzkNcp&eszzmesskltbclzVbpdmgpjvVbkk;",
"@CJMCbbCbMmsdMCbCkrpmpDGbkduCMmzbkkszCmGG>>:slsap,<tcpkrvmzzC<ekdlblbVlbpdvbCkdmkzCj:34GzmszNCvb97uetsbspdgpcbmvpmVSmvbpbvbbVbj;",
"@bMtdkzCksftfJMMDCmlbmbbbMGzMbDbbzppppkJI>2:nmmzpcbkzzctbvpptdpkkmzlpt,epzmbbmbDdzCk:39ZlCztNvk9jdt9dldkzzbkkkldlkVVmmVgkjkvbli@",
"@MIbrMdtfpbGzbbCzZCDmszVmMVbmbbkCbCbcrldC3>:dAVDNcckVczkpxCCvcgpddzdebtgtbgbCddpbgbc:39MdCbVcl9edpppbkbkdzbkvek9srvdCFvVkVVkiSy@",
"@zMzpskt9flkMbMfdmVMmmmCDSVbCFVkzFCbSktZb>>:fCbkzSkCpbrbvzVxetppllgzdldlu9mSvptMbzbk:37MbbbbkgkbCpjpbkbsdzkzbjbzkkgdVbCmbbvkCCi@",
"@zIZCsbAMklddlMCGfD9lCCbmVFlCDmlbbSNNbczz1>&lbbbsckzbbxpekekvpzpkgpzzkkbkpbkzzCdcCkk:34CbkbzlplkjjxgbdczbzplbvmbNkrp7prvkSbkCVy;",
"obHMbzdkkdtkzbMGGSdzmFmSSmbdGbDSSCCNzczFC>>&lMckNzCCCCzpkkcsppkcd9dglbdgvbkmplbmVVNg:34MlpVCCeeVNprpdkpvbzbkbbpCCSsVprrpkigbSSp@",
"@kGZAbFFbCmpVCdFkbzDSGSSbbCZDmbSCKSFSzbZG>1:lMdmCpNccbCCkpcmCkrkbmmdbbkukbkbdblCVmlg>35ZbkCVvclzkkjpkvkrCbCvVvzkpsvskvlkkgpelDg@",
"@dAAMbCCCMDbDDbtmCGGGCbbCCsslZFDSCzSFCGIV>>:fMMmbCxcpzSzzbbbkbveplbmVbDbjtpddtzmbzbp;34MlpbkbVpmbvbkpblvbzzVbjVkbkbvlmbVlkj9lLk;",
"@kRFHMCGGMCmCmmdMmFGGGGGSgdCCDCMCSCksmZGK11;lMbCCNVCbzzVbcCbbVkvkvkb9CbVkjugzCdVCbVk;14CCvVbVbbbbjkpVzzmzcdbVgdbhVCCvmVslSbekmv:",
"@zGzzMLMMzCmFrmCCsCZGGGzDzCSDFGGGSGCbCFFC3>:dCbDCkxbCbkNCbzcbbVpbCbggpvbVb9pbFCCbbpt;14CVrvbVCbjvbNNbzvV9zcpcldCVvkVmVvbbjbggVm;",
"@bYGbCCDFfMDzMtGClltbldrkFbddkDLCCVkbCCGF33:MzdbcxcvVSbSVzNCcvjVjmtkzkge4lgezpd9dzbp:34FbitpzzvVbvjtkdVhhvbgbVNCdjkvmCVVlbVVjKb:",
";M~MDmDCmCMCbbMeDllmbmMCmzdCGDLbFFFbpdFEIw3>bGAmbbCCVkbbcbCbzbkpkvlvClldrkbtbCcdkDFv>49AVvkblcVVCbddvCalbNxSNxCNFbSbvCFvCbbCkFC:",
"1d)RIIIJLLICIIPDGLITLRETLHCIFGIIPPTFIRJ^W343MIGDFFGKCKbNFGCFCFGCVzdfFGFFlgCbCAADGMFk3q3JPVFFGVGVSvCPCZmbCFGFGGGCSVzVVCSGSSGFNIg3",
"w>S(~Q!W!!WWWRERERREEREWEWREWW!!!^^~^W~^y4e44GIIIIKKKKKKGKKGGKGGPPLLGLPPPIPITIIIILC34e4rPPIIPTTPGATIIPPGGHPEPPPPPTKKTPPTTPPPCp3w",
"e4>@@@+@@@@+@@+@@@@@;@@@@@@@@+@@@@@@@@@>3weww1>>>>;:>::>>>>@>>>>>>>>::>:&::;;;;>>>,4eewq1>::&>;>::::&:>>>>>>&::::>:::>:&::::>3we",
"4411>>>>:>>>&>>>>>14www411>111>11>>>>>133qww4331>111,>333333344eww31331111111111>334q4q333311>1131143334qwwwq341>11>1>>11:113344",
"ppyyeu9,>*&%&$$&oo&1wew3>>*>1>4wipipiipppiieyipit4>&%%%&&%%%%>qre4>&oXoooo%>,ie,3*%&%&>>3eipip9,&:;$oo$%3wew3&&oo$$&&&&<yppppgpp",
"^)IIQWAGJMMmad0ffas14w4rMfdkAHDGEEFCFWRITWWEEGPDZGZllsr50tt0<&>44>0aa0t96tr0dMGIMIMmbdAGGPGWJPHzz80rdt9t<3w4*a00r0tMmZGZWW^~(~((",
"HPGLCnMtaddtddbbddDl>47IGGFbCSSSbsd9kzCbCmSGFbzCtbCCZMCzka9dtp1>19zbCFbMGGCDgbGDFCALFGVGSCkCballzCddddCad34:fMZMGMCMCGCCKxnmxzxn",
"lFGFVllCzzMfnzfbmmdl@3iGMdvVvbbg9aks597tbNCCCMbbrdtbkdCbbbfbVle>;tZMdkbCmkbllgpcbCmCGFbVvdbztbdamfbNCMCGNq1@ZJMmFMxzPGPSfxmdfrfz",
"zMGCdzMMlbzZbZtbCmml+1eJCklbkbvklkspep4espCbbbCbmkmppCbzCbzvbc4:@tnfpeCVkklmkbjeCCFVCktt979ClzlbbCxmMNbNvq:@CZZZNCCSGCrnhzzzxfgC",
"pzGCnzMMHMMbCMGMDbbv@>ePGllkbltk9kkct,sktke5blMCbbCMcsCzkbvNVkw@;rMGCCbCCvCbgemp7rCbdeptkktcbbfbCzzFNVCNN41+ZGAzSbAGClzzZstxmmxm",
"pCCFtMmMZbMbDPSlmlmb+1eRbbVVvvzgzbkbckkpetpkjkbCmbzkkCCCCmbmbVe@@rzlMACFVVkgCv9tpzptczzmzkbsszbMCCFCCCFCCq:@ZPGMNVSSzCzshe99hxMx",
"DllDlzMZbMMAbbGddmbg@>eCzgbkjjzmksbzzkp,pkpvszbCzbkbCcVkbCmCCpw;@rMAlclSCVmCvrtbzpr9zbzbkzblrzMMvNAmMCNbA41@APMSSFClsfrfdfzfp9AC",
"MldmZmdmCAMbCmCMbblk+1eGzdkVlbmkbzNzvNkppprvbpNbzCCcbzbbVCVkbvw;@rMDzbVVVmVbkCmkzpdVzVFCbCpbkVcCFzCCFzxVM4>oGJNNSSkdNxzbzzGbNzCZ",
"GmpsmzmzbLFDzCFGzlmk+1wLzlCbklCCpczckcbkNgkpckpCbNCCNMCVzVCvCbe@;tCGVkCVVegdbCmvpzbmbzcDAkbCMCCkxrrdphdVC4>%JGFVNVfzzAnAMAMmCzts",
"vlzCGMZkpMffbmCCCSFk@>wISCCbmst7skkdkVNcpr4tpkeCzClttkGSVSvbSvw;@rMCFkdxskdNxVxkiNCNlaspglNMNlfxfvdhzmFGSq:+YZCNbhdsCZCCCCNzpMdz",
"vdrjmZmdsrzMCmGCzCCz@>eKCxkbttkrkzskzkzbpk979t<ebtsllpkbmVklzve@@rMNNkCsbskbMNxbdFVle9xpNMzmMzrdxmmCCz9NC4>@JPCZhfzmGGHAzCCzAdzg",
"bsfvCMtGtpdDGCCDCCCcO1rFBppr7dbckkCbrvskVbvc77<k,kMlblbbmkmSbbe@@dGGMZidzbdsCNbxvzbfhzNrpt<sgMljCCVVNCbzV4:@JHCznzdxZGZZHCCAGMdN",
"FVCkDfMfmlkzGDGLmCBcO>yKGkikkbBbCcbdzcmBCvbpkke,7tCbClkvplldvg4:@dASbkFxxNvxNMCbVtzbMCCfzzkgzMMzfFCvANVGN41+WPVtdhCfACzGSCnCVMzz",
"dbkgbmlbGkdrbAGGGCCz@1pFbkcsl0zzksrbpVkCtpzVdsek9dubmVglkmdlCkw:@sZCfbVCbbxNCCzxldlfbdNzztdzjlSMdxxNMzKCC3>@JCkfCbxf9dxzMCGAMASC",
"lFlglmDCmCCVgbDGFFFC+>iFbcksckzkszxxkx9rskpszCttutp9mbdlkmpVCVw::sMCSZVbbMSMibFSd7ebizzNmzzpCxgmAMNAVSzzz41+WCpMMSpZsdzmfNFAAKCK",
"GbmpkmmmGMDGbzrGCFEC@1iTmbzksbsCzNNkettsdpksbzbcbdbremzSlCCmmFe::dZfbANFSbxNbiSdedNFCMVMCCNVSNzbMCzplxMNCq1;QGZfzxCCMmzMNCCGKCNA",
"kHTmdmAHGCIIfbzlCT!G>3eWFscCCCFmSSbsbzpCcczdbCFcfgtpekGCMDFGLPi31dUGSGKCGGCGSNCdZCAGMCzkMAACGVGGGSGFNKGWK44&JYZPAMfGZCGHGUEPCAGA",
"~~((P~I)^^^^(~(~RW_i4w3SIbzbFIIITIITIPITTTTPWPWTEEIGPpGIPWTTPP44q3!~U!WP!WW!!WKPWQWQWW~W~WYEETW~WWEWWWWWN4w4i/()_W((^^(~~^~^^^^^",
"iyyuipspipuuyeyupp43wew3epepppppiieeeeereriiigieuuiipu,>wpipi44eeq3ipjpjiippiwpjiiiipiiiiiyyypipyyyiiipw:wyw34iiyyyjpyypiiiiiyyi",
"44111>>>>>>>>>>>>>3qwqq411111122111131,34wqqq434111134113343449ewq434q:41111343441444444>>>&::1:>>>>>>>34qqqq>>&::::::&:>>>>:444",
"y41:@@@@@@@@@+@@@@@@;;;;@@;@@@@@@@@@@@@&3weeq31:>;>&>:>>>>:>>>>>>>>>:::::>>>::::>>1qyyw3>@@+@++++++++@+@+@++@+++++++++++...O;:4w",
"4><t00mlfffttrf055506rdbGIKTn85=***-**-*@4ee1,9<*<5<9ebFPPIPAMblfkbSPPFKPPESIGAbzfs3qw4>fJJHffadsdfnAHHflr05-5-----88a88588f5&&q",
"41dMbbkCMmZblCbbbbzszmFBzNbdlzssbBd0pCMr9>43rkCksupdppgpkuCCbzMbVNSkbbNbzbNMfzCNCkGl34>UHzxAGZAdJZEGmzfnnMfCtfdfzldpzfAZZPGbMf>>",
"&tAzmbkSmCfVd9fpsVFbkszSzkzzzdZlzsbbbbmmk>,>bzkbbVkvzpukbbktccvNNSVbxbbkCvylidkbxNxV>4y^CdpzGPGCCZzfzfACdZAGACCZGmCbddmCZxkkJAw;",
"@tJlbSklSmDDbAbMbtzsCkzkkCClbbzmCbbCSzzFb22>zp<dlkbbmzpkvv9kvcCbvdpkysNdvkdCzjjNMMCA>1pJnNl9nACZddszzZsxMdbmGGCGzZxzrhgnACMnCGy+",
"@sZklvlkCzbmbmbbGbzctCcbkCBCcbbCCAbkmCCbC>3:zze7cBxkBvggvdcpbCCvNddvpkpbzbvdvdkkzmCP>1yWJASCCMksatdzfrnmzddzzMSDGAbGNCNzdzkbCPy+",
"@gImmmkvbzCZCCGCBsdcChczpFkzzCCCbszmmFkbc33>sbhiwBbhkpgkgpkvbbbzzxpCjdbjdvbbvCpdhtCP>>r^USCvzdzzCmmmhVlMMZGCCGCnZxMPMFFMMzMzNGi+",
"@zIMbGSbebCCmbCBbCCCperpbbckCCZzzzCbbkbmp>>>kmpk7sbCpkx7pbbpzpCkVbbvkrvbjvklkdvjNvNC:1eQCNMkrzAGCVzMZVxMMGCVGlzPMGZGGCNACMClCzy+",
"+zrrkSVbpsCzCCnCNmbCzVpppzCcCGbzCzmCGbCmk>1>knkkghrhswihpVxpccbdkVbk7djbdvskxlbjNVbm>>y^PACMNAbMGZbHHPZsCSGSDCGHGPACGAzMMPVsrCt+",
"opfpr7vCFczzzCCFbCCzkbbkkrCzmZbCFCNSmFmGb>1:lNzyktpcstzhupbNczbbvVdrrsksNNbzNbbbrbVz:>iJZHACMzANzzPCzPHmVCCmMPHMzNNbsbCzddCfbpq+",
"+rkdkkueBSbCZbCCCGCbbpzpz7eVCbCCFCCCmFCSS11>kxNNbckNtiihcepeccCbvkjsVjbdj9kibkNCzeNz>1pQPzszCzfmmdvnFbVPDVbmtrdzxtrfsCCzMzmzxfq+",
"@tmVblsgsbbpGzzzmSkbcckckz9lbCCACFCCbCFSC1>>lzCbNNccckpevrrptbppktsdsdkjtkpvjvkNVgbz:3pIdhdnnzxCzmbxGVGKGl9dMntdrsCnnmFACCZGGV9+",
"@rGGkd*&spsCzmZCmCmSGNktpspepCCCFCzbGCCGb33>nFvktkkpsckkcgppcdz7kkkbkkbkvljCkkijNhmz>1rInzmCSAMznFCCCCVCzfbsrrdmCdZGMzzACZxPMzw+",
"+rD9bkgeez7dbCzdFCmGCNCkkNvp9pdabCCZNCFGF41>nCNpizkpxkgckg2ts77kdllCkzbbbklbvllVxVvf>>rJHbzCZdzVGGGSVGbClZbzCDmrCKCMmCVGCZAGPNw+",
"@pzfzvkblzbdbpkbbCzbCbbCkbkbbdst*rrzkzFKI41>mkkzkbCkbkpibkhhtesszvbNNbNNbjkjbrj7vgmx:>eQYmIVdzGGCCGFkadzDSlzlmGCazGZCZNzCAGGGNw+",
"@9MlbNgpddrezrecCZCFFCpCSVbxkddzzakspzCNGq1>mCxNmcCxzbbgpgkzkkpxjNNbNvnvdVCjjppj9rdn>>e~ZGFszCbPPVGCmCmzbmmZDCDMSvMNGSKSMPGGGC9@",
";0MCmCkvzpet<zseFFFFSbCCCCNNlzdstbbCzsdiKe1>CNjxbxNkxVkxgppheczsppzNbkNNbjvlkbbCdp9z>3r/JPnMGdVGFFMdmzCbCGldlZZMCCCVCGCPJGPGGSe@",
">tJGbCGbddCrezzbrbFFGCFCVGSkFcbMCszzCkKKFe41KCgrbmzxNNNNNpspkkbClxpvCvvNbVxbVzdljpxC13i_WZzCGGPPPbGGFFGFDmmGPGFGPGVSFAGKzGAGPKi:",
"44IRIPPCIPPCbcKPZzZGRFCFCzCKbmGTGITGIIPEP1q4cIKkbCGGGGSKCNcNSkcCGGNpGCGNFSdbNGCFFGMd47>_YWWWWEWE!Y~EJYJW!WEEIWITYTITWTEW~WW~~W34",
"944bbzbbbvzbVVSCCCCpkbbCSCbxzCCCCBCNVCSb44ew1gNNNBCNNNNNNbNNVCbNVCMvjdvClNpbbbVVCNg4qe43VKFFSSSGCSCSSCCVVVVVMVVbbNVVNNVCSSSSC43w",
"w41;@@@+@@@@@+@@@@@;>>>>;@;@@@@@@@@@@@;>3qew43>>>::>;;;::>:>>>11:*>>>:::::>:::::::14www3:@o+++++++++++@o@@%;@@+++..+.++...++@>4w",
"@%@@...X...o....+@>3wwq4>:;;;;;;;@@;@;;&>>>>>:>::::::;::;;;>1:qeyw::;@;:;;;@;@;;@;;>>>>;;@@@@@@@@@@@@@;:34qq3;++............+@@;",
"#$##$$$$#$#$$%*kzz9>4e43xCMCNbzzvNbpepte**$%%%&*rjrelbNVCNNdjq4ee4qvdbCCCCCMzdq-99pe<7tjdkp7-4<4*%$$%$*%>4e4;>**--qw**%**%--&$$o",
"sa966nrrfarzadpbEWJk143GMkPFPGGFbraas-9kzNktdkdvCNGSbCVSmMMSFCq44wWISbCGIbMzGMbzCZjfszfpzAdskmfzltadfttzt>4>0JIHJWmMZAlbdzCzza6n",
"ZZCCpfCPHZGCMFbSbzJG;3yYSNFCCzte8skzpjkk7zGMbCCyexCCZlNvMNalNNb>>CWFbCxCvpzbaASbjdftldbMCbdmzzSzCCCAbCAAF43@J^IPPmPHPHUAHZJAZPPC",
"IJJFCGzlzCGKFCkCCkAW@>pKzN39dsdtjkvktbkbpmCCNmNvNCNNCCCxfkNCSCv::MGGSkMzzsbkda9rCkxCSNNNzZSCSzSpbbSSMSSFTq>@^GPPFCfbsCFAGKSZCZAH",
"MGGAJZFffMttdkMbbAmA+>yKx-ekepbzMvtbbNCZCmkkCNNVZvvNNCVxbCCCCPC:@CCSCNbbMdzCNkbtbkjkzbkkCmfkMCSbbbNFSzjzCq>+YIFMZAHMGPGPCGbAZHAz",
"AIMAFCZCNFlMbMCmNKUF+>tICdzddspjmpmmxkktkkNNvZvNxNpvblva0jllCPl;;NFGvzkkCCsdmdbpzMbNSNNpdzSbCSmzMbjCMNCGFq>+^CCCaf*9p7afCGSbGGHH",
"PGFmmGmzPMKPzbFPmJAF+>eYzCjszjzzpdkmSvNvNjNCxdvNNvZzlletppttdld;@vCNs9r7akkbNbpdpzbSkbbCkMbCNjCNzSxpSSCzIe>+WmtlzZzCtttettKZAGMZ",
"GGAPPAKGCGMSFbbFSzdm.1tFddrMVbkzNmNmmNvNvxNNNvNNNCdkrdddjdVmkbd;;pbzddlzldbakkskbbSNFxCCkCVSNbzSSNCNCCCFYi1.Jmda6rmzmlk777-bvMAG",
"GAACGCAAFCMSCmlbzACm.>eACMbbzbMbmbdtNNCmNvCvbvZjxCbdNdxCzjbNbmk;;ezbllbzzksbbmSmzbbjbkbNxbbSMbSCCNNCSbjpZ9>.YGzflzztGGsmCjsdabCG",
"AMJHGGGGPFSmHFbC0ssl+>9NCFVNzbCCvbzjvbbNNjNbxvCjvjpNktkbvbCdlzv;@jalszCblkCMCbsdSkNVVpjSNbNFCCFCCSzt7fk7Cq>+JAzmGHCzZZMzCdrdbkln",
"tCCMZGAFMMGGFzklZZmk+19mebksiedtvzdNCvNmvkvCmvkCbdlbpldztdVjdMj;;bbdbSdsrbbbCvSmvNSkjbkVbSbSSCCNSkj997mSC4>+JPznbaCKJCkdksjk0zss",
"zfAFZJmKICAFSMZZHFSz.>qGjzstNkkjrvmVjkCCNvkCMpzvvNzdCCddddit7sj;@zbdmlzbCbztCSbGxkSSCbMzpp9kkMbzkfpdedkta3>+JPlMdAmnzzznZG9aMMzC",
"MpkGZGGKGFCmdMdzsFGz+>qMVktNzbSzzvjVbmjvCvkxMjzNtdplxsjktdldsky;;lbMssbCMsCCzpbMNbebbSsjkpikz7zbMMzMzbbmk3>+UGzzmCbzzAZCbpzbzkfb",
"qCzzFJGPFbPGGPmAGmCb.1qZFkmsbVkkmbCNvvbvAxjCvNNsbrdkv-llVrbVbki;@kPzbbbdbCzFSCzSNbbkjt9bCbzjp9j9jtpMACzCS3>+JaZzMCAHCCbkCdMACkzd",
"d7zbCGAAAGPGCGzZPGAm.,4AbzbbbNbNkmmVkCNNvNNpxkr9pzvxp7plCddVbbi;;bHzCjlplSSSzFbCCVj9zblp9bjpz0<atkmdjlbJb3>+ZAzzCAAGCZMCCNCGZmAf",
"mFztZMAKAKFFMMFGHPFb+>qZCMfztMNpjvCCvCkzkCllzvkzjCkMkkdMkbzNVSi:;CmlltleibMbmSNkzkzkbbNMMbj7jpke7bZNjNNNG3>+MlxCbACHCAMCkMMKMJAM",
"JCdjjssHPPGEPCFFPPPb@3eZCvMbSCtbvdvSSCSbVklzdVzCZCzVkkikbNNlSKv>>dCtzzpCksMVFmSbttbzNbbSmbjfmppjdtbCZCNCZ43@AJCvbGAAbAGCCdMCMGAK",
"IPYIMGZCWYYPYPUIIW~F>44TPbFSFGFGGmbSCCFFVdvZCCzZFFZCFZZCCFGAPPi13tYCbKHGKbvfVMbASFMmPPKSCbmAnFGSxsZKZZIPK:4>AQPFSHJTPTPPITGJWJTW",
"~W!~^__JQ^____)(~(T34e4pYYTPIPTITIPIAzMzkkkCGAzAGIUEEEPEIJIEPN3qq>zTTIITPYTUW!P~TTET!P!PGWWWYEYEIKIWPIWPeqw4*J(^^^^(~^(!~~(^^~~~",
"@@+@+++++++@@++@+@;4wye41>>;>;>;>:>;;;>;:>>>>>;;;;;::::::::&>17eee>>;;;;;;;;;@;@;;;;>>;;;;;@;@;@@:::::::4qew4>@:++:@@++++@+++@@+",
"q4333>1>1>1>1>1>13:q4q444:3-33334:4>4:>4wwww43>>>>>>1&>>>>>>>1444:->>>>>>>>>>>>>>>3qqqq4431131113>3:q::q4qqq4*::>>::>1>1>>>>>44q",
"e43eeetiipiiyiyiippppiqe4>>>3q-44qyijyje:eiw:-ppr7*&@%$&&&%&>%o#@o$oo#Xoooooo%%%%&;3qyq:443->&%%&>4****&&&:3%%%%>-4*4**4>&&>>>qe",
"q3tappdCFKYPFFTPITCzzsdNGCdllFbbGTKKFPTTCqi:j'^ZMQGmnfdanamGffa000-00ar066a66r00ads>3w4CJGCMlattsstCssNzMzdbAbsszbbkkkGGAzfadt44",
"30fpeskkeetMplzSnFZsCkbVkbMNMpFVjSVbCddzTw4;T^UHJCamGMMMCCk6MGCAAllaGadzZZGaCAFflnGz;4eYmspdzAMFnNMvjslGPGNjzCSCGSdzkrrkACZCNve>",
">pmdkipNs9sjjd9ebdsbmMVjbkSSNVNNNxNblt4CCy>@THZPGlMCmmnCfANlfsMACAPJGbPAHCHFCIbHMZAZ+1iGMMAzCmbNCSxtzlbpNCNCkzNFbbkdzdz9zCzGbGp>",
";tCbbjizjetkeqee47CzbVMVVVVVNkkVCzzjktppbe>@JHZkMkfbnMMMMsMkZZzrCPAZFPCCKCGKGHKzbCCC+1iAbpkzkjtbNClxsNCbNtNNNvFzkzCtNCNkdvMzNKy;",
";pbNblkklbdzftbdrjdezbbVmbVNNSMzbjlkpkskzi3+HtldMMSdCZCmbZzZCGZbbCPFIbAGSAFGFKKPFJFC+>iHzzfbkSCCbbbCnMNljCjmCCNNbmCbklsjptzxbSt;",
";tFMbbxjbbbdMNe4s9d*9ezdbskbe4tMzvkzlzMkTi>+JzMAZnMMsNNCGFblMMSZmpCGGKJZzbddzkKPHHTZ+>iUzSbVMMCCCCdpjzbjdCkNdNFCCmCCCkvvptjbvJj&",
";tzzbNVxvkzpbketestekkjjqsitdpe0etVblbCFTi1@`ZCmmMAZMfkIMNbMGMAAmZbCPGCbldmKMbmJbMIF+>iJGCdSSVCbtjZCCvlMvCNekNmCmzCCCFNNCNmMCGj:",
";dFCNbNkbjbNC0tstejzpjypetbedjje-dqpkVzbHe>oImkmCZGMMFMbFMMAGSKAAlFpGbfmJCbttertzbAG+>iJkbzbVpjevjMdCbCNj0dpNvMzNMvSNVNNNjvmbGN;",
";dblpjxNNbkzztpbtpjzjt--9e9ddsljidjjt9tlHy3oJUZCACGKSNzsACnZMKZKPHFFszFZFCCCMdkedPHK+1iZGzbpbzCbjtxCkbNxpvkNjjxZbCpkCbFCNmNdCKv;",
";lCCkSbbMxpjskzxkjzzpdkfti4pzzkjkkjsvxpxne1OQZAnAAMGGAFMdKZKGKKGAMMzZsSnCdMblCbCCCPJ+>rHSpSSbdlsNksCkdvsCvvkxNdzesprerrkvNNNNZN@",
";bCSbMNkNkzzbkzjjzijkpkpbppikMbjssbdikxNGy&O^WGmnMzCPZPlzGbGCKGKCZlzlMAZGAKvCSZpdZKP+>iHFb*-0dbjbbkkdxkMNCvvNdxrrdNsaet--4jbCGN@",
";NCkMbNjpszNzzkzzpzqlkbblpkxpptMbidbkdbxSy1+JCAMbAZCmZGFzdbMfzsCAGzbSZszdGGZZFlCdjNE+:iSNttbrpClnvCkvxCZNNvjvszdsrzsav9pp7--9Az;",
";zGSCNNxixzMMbNbbzNs9jtmzMxMfkjiNd7edbVbGi1+/GbAZAZakMklakrzbxb0p-nMSHNGzSKGSlCjZvIP@3rNSdNvdjbNCCNbzCjxNCvxNzdabspdlkk9kqy4tkv;",
">pSMCzzbzkkkzbbMbMzjqrjjjzpkjkiefitztNVbFy>+WZCnGlMGmGZMzVICCsdbZAZKdGCCGGAMSSSGjNP~+*iZkNCsbbdjsvzNmvkjtptzt8dkzkrkzxkpktttbMv;",
";pjzbNMkk9zNkNzCNNMNfp9jdxbxpslbpsizkvjvSr1+/JCZCCSAZzbmVfkzMlGGKNCFnGKKJGPGIGGCZCW~+>iZSkMNvjkbd9bzdmbbpejvpkrzMd9dMCSZppeeapv;",
">jztzzbVmpbbCxzzzxjkjpjtkbkpNjCkykbkCjVvIe1@_YMZZMZzPbMGCCCACMKKPFPGCKKKHKGGIPPFCGI`@1rGACzddCvbkvvkdpCjCpjddzxpkbNpkkkMbdkpkvk>",
"3jzdppbSCzjbSSMFMNMSCMSCMSjMbSNkkxMVlxjvJ44:YJWZfAMAAJJWWAKAEJMGMPJTPIWnNNANPIPISC!!:3eJJbSSCVNCCbCCCCKCbjbMMCSGGMkMGCMCCKCvmZj>",
"44CPAzbJPEEPFAPIIPPPPPPKPPFIITIEPWUPEPKKi3w3i''_/)((~(((~^^((^(^)))_)_^~)(!)))`_(AA73w4ZWPWPWWPWPWWTPWPIIGbkZWPTTPTIIITIIIWIWI4q",
"y44jptiqtppp9tpiiiiiiyeeeiiiiipiiiiippjw4wyw33pptryeeyeeeyyeyyyyityyyyyyeieiiiijjj33wew3ejiiiiijjityijjje4>*ejjpieyjyyyjyyyjy:qe",
"wqq:11114:>:1111:wq44wq43>331>111>>1::44qqwq43&:>::>>:&&>>:::41434:>>>>>>>>>>>>>:>34www44::*::4:4:>:>::44qqqq44:3>>::4>:>>3::4wq",
">;>>;;;;>:>>;;;;:>:qeew->@+++@++O@+@@@@@@@@@@+o++++++++.O+++::4we44>@@@@@@@@;@@@@;;;::::;;>;>;;;;;::;:>>:qeew:>:&:;;::;:;;:;>:::",
"dmbmzmZCMFYPYGCdj0*>4e:%===67-550665afzW(^WMdad60---=======-=&>qq*7--=-==--rtzdfldNCICraNlaa006---=--7-8q4e44KGnbaavbta8eatar8tr",
"Czk-aetjFCGFCCbMMFj-343zAmbatt0lzlnzdPNGFAZnfe0MZaddd0ddsrtafp1&:qfMCNvvdpkNGMNtflbCZbMAddAGmsdrzdtptpzbk:q>SMbCCKd9abatttaMpssd",
"zzbsbztjijjMmMzCbdCj;34AGMpmpmMbtbGbfbvNAZnbMffMdGCbGZMCAKMbZby;:xMnCpNNFZNltlkCCGNpCbGCbClddblsjmbbvzxzbw3>JKzaCzakkzmkkkbtvpmv",
"bbNzdkCdMpikCCbClmMj;-4ZAadAGMbzxSxCVjkCbbCfMFAGCCCMMbGASFPGkke@@kMbCbGGCCvNdClptddbNZCClCSCMbCbdkZNbrkkS43:JKSCvszkCjdCCltNaNbd",
"lnNzbbCNbljiCllCkSSk;>4JKzMCZJbbzSlbFdedFbMbMGGNSCCFvCFGCFVFGvw@@zCbvNZSSCllzzlNVxjpNZSkCASlVNlNGNZlllpxNq::THSzlzkmvbCkdzvpmekv",
"CZSCSCVdCNjkNxnCmVSj;>4JbfssbCCbszbkdesbMbCCAGMMCGlfbKFCCGCNGCe+@lMzZjxCNCljbCSNxNNvpdmSSSmbCVCGvkbNlNbCVw4:NCbNzmvkMvzCdbMFZbxj",
"xdjlipvCkkdddb9pkzSk;>-ZzZZKSCZzlbSNNzztbbfnASAASMNSCFbGGGKCSGi+@zAMCNMCN9sbbCdNZxjtjjFCSdNMZdlaNbvdzCvlK4:>C0CCmmbCbNCvjkCSmNkj",
"vbNbdjrprwvrj0lr9bGv&>4MZmZbkpdzMCdpxsbjCfbbSzCbNMPGVKSPFACGSKi@@lNMNxNNxjzktsdplVrbkNNNllCmdldmZCCCCdZdV4*;CrlNNzZCCSCvmzvbNmNj",
"vtdlZNlbxjVjxjblbrVV;>qGCGkzszbzCZkzkss7kbMCSCSNCSHFCKCGGSHFGCr+@lZCbbxNddlvZpCvNvxjbCxdSmMldNNlZZNCxNvNCq:>nd9rxCmMSmNNkNCCNNNp",
"NdblvdCvj9addlsfmCpS;1-JzfbMGbCzMdVNNvxd<bMbMGCAZGGGCFGGFSKGGCj+@lHCZANrdNCNlCbNkNNxrtt9mzClClCbCFCFSSVFKw:;ZrpldtbCCCFNVCbNCNzb",
"lCCCmdjljsxjlzCSdNkv;>4znbzAmzkCCzpzNzdkepANZKCKlbZCMMp9-tdklVk@@bndjCCNNlSCCCSSCbr%-3trlNNkCACZCNCFCCSSGw4;Zser9skpCNFCCSNZNzbp",
"NZFbvbdvlb9palNtlmFN@>4nAACCzzCCMNCzbCdxr9bMZGAAFzdttdbGk9dasPi+@jzber9tCbFFCCCj9-7pk799aefMSSNSNCvNVNSxSq:;Nb77kkbktkCSSNFNvsvC",
"VNCbCNvNjebdlbbdbCNb:3-ACmSCMCSAZCCbtxMzbj9dMACCddmSClsaCrlCfbi+@jASsNvedzxsdzkrtdrj7t9bedeZNZCFGSSGCCNCI4::GNptddp9*-*bVCCmkkbC",
"MMp7zdsbvldbddxnNdlV::7AGACMkGMSzZCNSbCzvad97dCSNbSNAmMMMClNbbi+@dnlkdjarzCNdjr0alpdktj77tsvCCZSSbvCSFCFI4::lNlpelzbj7q7iNCxdtzC",
"NnCCNNZSVNNNCdlvlNjF:>4MmAAKKbSKKSKCGNxbFkbbadmmSMGFCdCZCNCNSGi@@sHGCkbjj078szpt9slxNbdteNpti9ZCCCZZx0NNP4::lZMrtkNlvvdjitCzlkbC",
"NNFrdNCjVjxxjNdClbjN>:-MZ0CazGSGSNbGFGkkzSVvrkaNGZACMCGSGKKCGGd@;lAzCCnNNsdvCdlNjdVvNsjMeblzNjvkMMCNlNpsCq4:MMfCpj0vtpxejr99MZCM",
"vbCbdnCGCbNNVCVCZCGv:qqHGGbGbszapdizCIZCbblNVNbkzGPSCGJJFFFIKIx:>bHHSzkGNzbzzzGZFSCSiNCNsZNNZNxdCZZCCFjCGq:>ZCSNzxvbjxxxppssqzGZ",
"KISKSGKGKKKFCJPGHTWj:4>PQWPPTITTPEUKEIPEEIEIWFMHCGGPJWWWWPP~!~q449!WITGGHJPPGKPGKPGIGIKKGPSKKGbtMKPIPII!K:e4fTTKPGHIPPKvAzdGzdZK",
"ebCVNNCCZCCvdCCVNCi:qe4*lNbNvNbbbbbNbNVVVCFFFFFFFGCCdCFFFFFGFq3ee4eCCVNNNvNvbbvvvbbxbNNNCCCCvpjtekCCNZZvqqe7>jNNbCNNNbNNNNxkvj4-",
">:>:@;@@@@@@@@@@;>:4qqq>;@@++++++++++++@@@;;@@@@+@+@@@+@@+@;>:4ew43:;;@@@;;@@@@;@;;>:>>:;;@@@:@&@@@;@@:>:qew4>>:@@@@:@;;;;;::>>>"
};
