/* XPM */
static char *Grass_23_128x1281739968656[] = {
/* columns rows colors chars-per-pixel */
"128 128 88 1 ",
"  c #3B1E2F1C05D4",
". c #2D243A65072B",
"X c #3564354406BE",
"o c #3CA434D906AF",
"O c #368A3ADD074B",
"+ c #39D0394A0722",
"@ c #33603DB6086B",
"# c #3BDE3D2E08DB",
"$ c #438B2D5D061E",
"% c #422A333206B0",
"& c #41B238480759",
"* c #42C83C6A08FE",
"= c #23B1446A0919",
"- c #2D7444E8091C",
"; c #26A84A7E09C3",
": c #2B904C500A72",
"> c #3513444A09A1",
", c #3BD8443909F2",
"< c #336B4CB40AB2",
"1 c #3B8A4C190B2E",
"2 c #2DB754050B8A",
"3 c #2FA159170B82",
"4 c #34B5537C0BC9",
"5 c #3AF754AE0C56",
"6 c #33FD5C230D09",
"7 c #3C355B9C0D2E",
"8 c #35FD4E921217",
"9 c #3E1D4CAC1025",
"0 c #345654CC1116",
"q c #3BAA549F116D",
"w c #35E05D25117B",
"e c #3D3D5BCB11DB",
"r c #36DB61220D94",
"t c #3A6A644A0E51",
"y c #3D926A630F08",
"u c #37516089103A",
"i c #3BFE64B112D0",
"p c #3E776A3211EB",
"a c #3D9865121821",
"s c #3F7668251818",
"d c #41D544680AA8",
"f c #481744AC0BCA",
"g c #43554B950BD0",
"h c #48B04D290DF2",
"j c #424C541F0CF2",
"k c #49B452A20E98",
"l c #42A35C240D71",
"z c #48A15D380E13",
"x c #41C04E261084",
"c c #48D24BDF0FCC",
"v c #43DC5547112E",
"b c #49C75527104A",
"n c #43445CAC123C",
"m c #49E05C9B1213",
"M c #4244633B0E43",
"N c #493663090EA2",
"B c #43B46A150F21",
"V c #47E069CF0F80",
"C c #4427640D1375",
"Z c #4ACF644513BF",
"A c #42576CD51342",
"S c #4AB76BDE1565",
"D c #42B766041892",
"F c #4A1B66EE1875",
"G c #43546D391897",
"H c #4AE96D841833",
"J c #505E65FA13D4",
"K c #529B6B0D14F4",
"L c #44B072C31388",
"P c #4C1372BB15FA",
"I c #4736788311CC",
"U c #4ACF7B03159D",
"Y c #466372271914",
"T c #4A03758A1958",
"R c #4CEF7B691A32",
"E c #5081737516B6",
"W c #53237A6016AF",
"Q c #518774A9184E",
"! c #51987D691AC4",
"~ c #58457E4019A2",
"^ c #4E5A81451516",
"/ c #4F8B809C19CB",
"( c #52CB837B1BAB",
") c #59EB82C31B27",
"_ c #56AB892A1CB5",
"` c #59728C711D86",
"' c #5D6692951EAF",
"] c #5D5C906520DF",
/* pixels */
"6yC75#42y6MrB=6y7rtl3M757<r3rB45C5I_YaTaY6YG(Hb!nWR('PeL(nCAGGLAgy7tr41,4y67r<:B7t7t7t7273B4ttyLAppeH(dCTmSMP(5_CRiFESW6QGC7TGi6",
"tU6Iy7L6yytB<y725;lr6rB174^77<t5:P0qnSD,SSG(YCRnH,e_(YgSUFGq!pYprBt3t-Mj6t7t56tr<y67y75j7tryyyL1CpRCn1wRY1GF/Rb!nFGUGn7AYRC(pp!P",
"i1My6Btyl5jt37jy7>47M7<6r<M6y7tt1ST7iSjCDPRWH!meRGDHTgC)n_m_F*G7t7ttr7<625tryt74443316yt<6yrVygy5SjnFUYHlPUfiDFYq,qUnHG+TSnReeCn",
"it<65yrLyylr1I45B7M=573r7<Mttdrye7i`GFSAR/G_HKeHCHv/Cne7(sveTp(q65Lp7rBkt7r5yBy3yrBy74jy125ty1MtPeU<D(CGSTFP+(5p_4CTRCRCSDRqCzRR",
"MIrV27t1*6tyj3yd67t7<tBr5Mj6l767LUGnC,CCLCS)eURDKQSev1ERS7U9Cp(p6yLMryrly45<yyj6MBB6y2yB1y3y3gyPjZ6FeGeHRWTHGALSRRPpceCCPCkLRvDp",
"7tytl6M567<rgl5MttMB72gy775rMt2raTA(HqmCPYRB(!CvAYFYGGPPTgHQYCSIl1777717y4oMI754t247:tt452l13rrtCRjiCmLP`ZY(vSGCC)GHva!Ce!mRY1nC",
"66rj53t,tByBtdr5M4,371g5r1-t-L7rC_RnG<enAqTCGYGTG!R`wU'IGkRDdRYZ7t<rg4yr4tVl517yyBLBrB73<r5Ir7MtCAASTTRRUSCRWZaCYZ9DYGTIpnSCRUCS",
"6CMt<2ItB7y3y55<,B7BM17B14437641UU)kixAUTPAGLm/CLaFT>(YCTCAea(igA7C61r:563B1l6B-53rryr56217t377IpTCTZ`U(TG1G(vnATHeigZvRnpFCYCRA",
"yMgXyt7t7ry1tty<tttM:56M3ttr764UpR/n!CTS!Tpl!iGcq(eH(C(`FnHTmRD5N3y5><B6y3yg45614t4yt5r4<tht:57bupRSCTTWCDP7RTe#UPSCRRLCT(EHDkRU",
"Uyl5L4ytttrj4734BBytt5r574<yBylgsUTG(TnYCPAkYUTRd(HTCDGLTCc,RHwiy71rM<B7Iy745Mt1yt54B4yB*67y6Ar67pGSs!!R9eDGRGP!P!*C(QZYYY(wR)YU",
"jr14yt6>57y567V:Vlr3y5t435yBA4m1p5G~UGnaAniFwSIeaR!YUG!GASPGCnInl77t53t7y7rytI,j4jr34<;y766jrrtA1iHUi__ZQm/nTvYCPkRHYTYRqDUUYnp2",
"M<A71BtVrMrL25I6yt-yr7y<l725M<irgAPTGsI_mNG>RjSCDSQPTaSRv(gZ~GeZdLy57lLy72y5gt3rg1t5ytB4656y2B7ywC1SvLFCCDL/T1Y//C!WHG(TmTSGvp,L",
"65rVLL1ytMBLty7tyMtyrIt++6MB75<SijZSS(Fidn(RCZPmPYvH(ADm(TT7FnCay4ty<7tgtyBI>1trjl1ydLyV4>t74tLM6mmRHdYGYY(DIGGQnRdT(!#GRU1CGT6(",
"L62pt5lIlytyr71B77VBd7B66y5t7r4p6l_POTAyL(HDGLRAeCj(T~1CIY0GC6A:<yr12VtjjrBt1Bjy5t45t<6-<B663t5<RLCLTGGA(bQRRinYYTnGACgFaAqgvAwR",
":ptr56+6t6B6yM16tB2Ml5rt4<4r<<6L7GGasSGZ(SlHGCCYCpGGmRsaDRnHHY6iL73-44y3y7yr2d>tr13rr7gytty6M7ItyFLn(CQCSe_mieTeRRUsY(LnYS!eTCpp",
"ny<67VM1y1IlL656<7lltyty7yt65<4LyDPjYRSAAggZLCGYCRHnsR1RiC7YTLSM<B6B47lrB<M214jy:V5L2yjy6tro,-56y_CYGSnZaUTHqR(GRGqaCYSPAS_HAZar",
"Iyrr3trB53l7636yy14623y74tr7y6yBpACE/D_SeCTRTsnnCHYiRPCiH_(zvL,L7<26BLyMryVLy4ylt75tBAtLLrttM3ryARARgHWHSeYjUQUARGCvGFRHAAPYHaC7",
"yy5675r-tty<ltytM>5tyLy7ttt77trrkZ/T(((STvTG(TmDFWU1PCARgRF_np6A>4VMy6rB6ydy3Lyry7y7t64V6:L1<lyL6j0TYeqGUzFT<_FYYTea_YD_CAKDDAPi",
"L3l5BL*rrrg657r>lort3yM72V-<LyL7AP,PZAUFWDdQiw_FCDAZCUgnC!Tb(~rj6-161y7rr6663rIrly6rr57tL7t<lrt>enR_GSCRTD*RnRTq_AIeR8p4mYanYUDL",
"Lt56:rytIt571lrj556t7511ry<ry>pP:YwSCgCLsZY9nGUU1DRZ(RCCUSSZ_wSpt-4>7Btrrt<g7tB7MyyjdI6l<yMr-t:tA-HiLYCpYeCvFZ!nTSCv_/T6UvePpl<A",
"I3lM:tl1-t73y5yt.6MByyt65t47LttC2!vSk/S7GvYSPA(atTvkG!mCQY1TURvp7:t4rrLA4657yM76L57V734y5BrtBA5Atq!R,(FZSAS,AiGgWeIFPn(nY_RSRRTA",
"747y4B56t7772:y5573r7L355tB5,7MBpeTGRSRmCGGFGiRC!CmAWnSDFkRYGIspy7t-t5PlBjyt:7@MyyMr4Ity6Aryy77UUGaYUpeSDV_RG(5/!CDPn9SnAn/_YYG(",
"25y26LorBtr-Lt-MM,g736t7y24d4B6tC,TRTUanYAevC(TvS(CLRAmRC_B!TmA667L3M15LBBArtt76L75Bt2y7BjyyLypLCDYCYkPC`CPRCU(kTCGR,]PC($PGeS4T",
"y6BLl7yy7tBByM2Mrt36y7rytMtttt17pUZsGUPRP_TCb!RSRCECvPCRYmea!A(w51yr2Br1yyd6rgy6y4Mr66y64M6<l5AuAiRvCSdDdRQTYa/(ZYnTL_nsCqYCCU5T",
"r1j@67t744:5y,yly<41r6BV5ttjjy7tGpSiSg//cTRYY(TRSiRFCRY(P(en(Rup5MLtV#tg6y5<M1r7l46B56td<l4y517tpp(TFTjCnAGGgYRTR(qLCRvep!RCTUap",
"r:16y75y<277t5VMy47r7yB#Byrl<6tBituRLHTURnTmR(DTF(RU(vTWe(RLTYdej47166yyg464226yN<7Vttj5B5gM-B>61SRRAC(SSH8C(,YGGLRkGTZUn)/Y#YCT",
"<4I56:7yy3BtILj671lt>411tB4y46BLePDYTiYPWQvnGRAHiQHWviRYS_UnaiC6r6767ttM6t6l63y<41BB33M4t>5t7<dt!nRTzD/(CDF!*GDHDA!ASCaCPc(R1Sr3",
"V6g4r<4tMt4rM5rt77L47,y1IMt6jMyB57(TLqiRvGpTFYLHLiFRYSHUa0THRi551tI76B<5t7B4Ly66tt56Mttyt5;5yyVreI(GCRRT(T!(nHciaCLaPFYICCTD>S2a",
"gB6y51trMB7r4y>ry2jr7164tyM:734lTCPGavvR`H!nCGHRTSGGQAHnn,RFSuAyLLr616<l5yjr6MrBt6::M1BrM22BLrl1wiRTp((YPiRYCavKRCCTA!a0HR!/TpH6",
"5y575y1tMBtBBtl53y5t416M7yB2y6l2SQ!UeAUCTGGdG/UG(GGRCTgRL_UR(eRAB@Ll7ry6<Ltt4tyt,4j<73j3y5tIMlB3CiYRT_mHRUTRiR1_WvRCSm&DTDnGRTA<",
"Lt366I3573r733yI763t4y6MBtI754tL6UGfaPDc)mR*TCYpRG#RFTT(RHUAWn<L;t7y>yyl12rytjtt7rtyy36;7t:442II6iApRRYGTSARmLY_Z9UYWD7nAYF/GTGL",
"yMLMtlty5yLtB57r1Mj37t,lyB1yMB511iMGYnpFUZDGA`DYQTUiUHGTUTGQ!i5epttt1tryyBty77tyrMrr,62,y<t52tMIACGT`Y(iTZ(LmHGSRdC_eeWHCR!ppTGv",
"Bm6t661t4Mt46<I636tr4t;>ljBt6tr7<IHYUA9iAvQHFR9(vD!dYQRHaYTFLSSprIt6yrl<yyLM4g33r1B5LL767Bg256LnMnLR`WH(CYPHHATmAGR`k/TRDATSR_aG",
"6pyr25<rtt74MyytByyBy27l5yltyr7pELTRG_SGqeTUU((TZpTn!YnYb`nYP(<vyy44ty17rrrr44B4t64:7B47:y>y7rt/p6CAYin!nGeCS(DPvTUAD_0Y(ETP_R@i",
"555ryjIy6y6t5yt47<77t7-y<r>t56tLp3P_a_StSPZTjH!(Fp!TQR(imFgnD5Gm4A76:y4,2y7Vr6V5dB74yrAtrt5Mr7Mt7LDCHC!RDzCPTZYRCPTR!aSRTxC!`vUA",
"i5r,Mtit:LM6Bt6LtMy7rt3t7rtrV<SpCgPPRYUSSGTEiqT(AHDYGsLZwGUQndLlM6tyt6y5B6yBr4tB62Br7<rr7Bi75667iTRZvYeSnpjRC(QR!AmimUTapHGTSae5",
"-Mj-46tyryMt6rytB7r711t7t3yyB<iLr_!&TzYTsRTTUpQwDTmFU_RbmR_F`pgA<A7:B6ryt7tByBgBry7Vt<M6yry76yiepi(CSAGTCZ_1CDeGRZRG>1CGWqGGHUpC",
"4r7rtBr4tyB;MBy1l-y7IrytB4MtLBAlr(i8CHmL(H!p!!ZYT`!J7GmU(RC_nPCaM:B6t767I:yl6t<tyMyry7<57r6@7MCUteCGHeDPRp/gTpaiRTm9nJnSTYqeJPS*",
"2B2524I2115,t7tt1trMy677yt>636P5i2HeZDZe!ieGRnJeC(APGTjYARCRHUTy7767B76>lM6IB15jtMItj712l671BtAuMM5Ainp]HFUSSRZp(gSZaACQGGpDnTY4",
"7trt1B7yrLt-tP6yyt3B5tLtr146BBL26YSnSWYtnR/RLSGCZSeD(SS(TF(YTkeigM6Ly1MrM%M75rr3M6t47127tM<2t7776gHY5DQFTSLRYSGSHe_UvFiP(ZRP(gi5",
"y<-rtt75yB3r16Lr3tM27>l166+y7tlwU(iGT`RPTZS1nUnRlSZGnHnHWCAR1C6iCAtBL7Ijr4t5Bry2y46466<5yrLr6t6Ml<YGnYY!vSswUCEkxFPDLRRRwTMALm_6",
"65MVtt,55r<y<4MBM4t5I<5l7665tVAIGHHGe/RmYUQw5DGnZZ1YgYYRDYGikLCTlLytrt-t5y5rt36y7tI7M15B673rMBrrCR>CCRQAnGqPDqSSPGa!vq_5TTRDTGaI",
"Lj66ytB7Ltt-55y7j16g7ryt6>657rt7iCGCnnTT!YYUTJ_meG1(P1Rnep~_,A5501ylMy5B<t35rB^yrr4tt<755BL456BL~GDSq!T1daBRCwY_S!HCD5FWS/RpYbGA",
"-yy7t2<1tl667jt6t3j4l<6t1Byy65t77yYOZR7!GnT(L!CHUeRSieRGHHRTjHpM6r6>y+L6BBrI3trytt3j7d6767<7-tjt(CnSYQ@T/USYRAReRUmHACsLTD/KYRDi",
"BMy63Myt5V5t4.t6ttB37yl4>r6yt4tle_4URnSiCtS(vTy!YGT(5LKSa!RP`SnjBt3y5trMtV3yt1yy5B7yt1t<7tLy5656yCYCeaP1((RaHCYFLAS/sWFTiT(nvC(6",
",67Ld4y,1y231t*My7ytttl*57y76j45pwpvkRC(kmT(TsmT,iYTDCG6U!!DH_CbA<rty5yr5<ttByBBgM1M6t5lB5r2766SAAGYnTR(L/`FiZ_YgnSRGUCHnRCFnUEA",
"j4yy6t1t<Lg7My1yLt<255r7ytgy-gtBqqCY>RCLCRPYmHPRRC9RmZAmTUvGxGe6tB73Bttr4lt73<74t6t7Ij5It46533rB pRGYSCSK(*`CRGGZnYP_pTc(pPRSD7U",
":t<6tr<5yt4t<r3B5tMI5@6lL65yy,2M50AFCYYHSRTeLSZTpG1L0W_CYRATCYC46r45I54y6LtMy2r324B4By6Bt<r62LrpKCCA/nTTURR(!YFRqTTDRSTnHeT7YpIP",
"pBM1L4t65yt-yttMLr61By5l72rdI,5IdKTRLReG(!Gv_GD5qRqQai(CR!/eCC6f5yr<66y5yyLyyylyjBB<LtrrM26y6MLASeYPR_CTLRpCGiDPGF!e/HRYSCgQA6lA",
"trt><357,L6IrL3-ytl7t7B<46t5I<LIAY(YGRTHTQ(gUmTFg6UqGST5YGC_pnip45AllMy<LB4j7y62yr67rB2<M<BMldV=y'RngmLH!(eCCQY(C!!CUTTq!_(pePUi",
"44dr7yBr>ttl3I723ItttIt71L7yB145UTTeHHGpemHFqTHYCgRT(UeCGSHCe!Rr6B4;y7y<5Bty5MB7r5lttt7y3yyt65pLUSTvmSYGCTDCCGRRPR_GnDSGRHbDRwii",
"t7ttl<tr7:VrylByy6kBtt7ylyOL,656pR(nYPReCK(TCa*mv(RSPmGiYnnRUYT<L6L;ItltL>B1r-ryIy$rBtBL2y4yttLpLYTS!RCSGQYqGqRUCvnCfwUeTpCSQ<w6",
"77r7y24L6t321tjy66tj<Bj6477612L7CPL(G(GgPvGnCQbnYGGbTGe1TGS/Z,(yj2<6y7<t67By65y4tyrByry723<6<y56e:(YR_neRdC(,,Ya_C&(CR4HYCz1D)Cq",
"rr:t57:-rt7y67yy<7-MIL4446p3t76U7AHU,WFZSlCeYFTIYYHGmUZZTCYlCeAiL6676It66ty2tltt3,y35MIMy<6j<yMGlIGAqRmCeeSHgY/TTL7(p7vSvACV_Zyi",
"BLLB<trr6B3By6rBt7yyr76>y252465ryeY)ACmC/qQHR&unYD!TWT(eYnRSC*G4tltyr6t46lr1lt553BMt:MB+7yr-7r7rjGDYCAavSSCU_m(vQMhRaLwYkqEHDePL",
"ry7ttByL5tMl5<7Bl<rt745@74iyp<5I2A`h(fCFTT!(!HmTTH*!U(HU1aDHCYLa5r765ML7ttrrr-71BllMt-y5tB1y4ltU7YCUSCSACD!!vHHLG~(PUcUTRRPYPuur",
"7647l7BBy3yjr7r-53tj6g7l47tyBy<ynwA`Pg(CSUC(DYHR5GlRG`!TaREYKp4p626ly7I4g7rryy3rl2y7l:r:B766>ywt(c#iaYRq5RYGTGS/TeGRTHGYT(SLGep^",
"6yj<66L4yI6j7ytMMr5B5y,y3j7ttrLtpPSYCTRPYjm!IniRi7JCLUDCRaSSH#Tp43l5yyyt77M6By317yBt1r:145XL74y,YRDCCPYYCv_a(LHTFuLR(DTTeZkGUP5L",
"tLL4tjt4ty6r3Blyy6651M45yttt76yLGgRPT_(e!!Y!vTGTFUWKQnSTP!GRn(_LM66M5572yB5yt71rr6tj3,r46#2rrMB64C9/eYQTv_FRSRRvHH*R_TCUan7(mRiA",
"L-L666ygt776tMtt1By<B>rBdB,M62<^VmiCSRnPGv(eGH`PTRFvGHHRCmHRCTRn6t6Itr57t-tBM547tyt765377tj6r16pIinvC(!R(RDRGLsTCRcGgQF(e_e`DZCG",
"16576yt57@55M3yV<Irt3y<1Vt3t547VRZ5DYHLCTnHCG!RUPGcTRCUUYA!WR(YG6M26tt<5y-t1V15drIBl;LyM767ry52pTADGYTTRLRATFF&R!CvTFCZCCHGRCFii",
"2y66<yLt5tNtl66rBt3rLy577r4BIr6VATPCTS_TeGCGDTRYQLTnT(R7RFFmSiLCI4t7336tBtBtry2<ll347My4B7rr4rtpeDRnKGRRPPbaRUaYCzDUPT!M~DvHnp1L",
"Cl7546B<33447t37y4-rM3M@7lMV4rMMLCFSRiGF!C(DYw(GYMQSCRSnR7TASUGrA6y45B75rr77VM35t165IL7726y4:trApD7p#pRejGbHLRwTSpRRC!RnUU~IYnpi",
"r7674rt743y6y746Br1t2tMt5j632-t:YHvnmmSCTRRmHQGvnR7YY6sTHgAPvIawIMtyttjyt1Il77Br7X44lB65761r7yDpyEmiCGURHRxYH(eSimQmYG!vH_Lq(T_C",
"1272-tM7173tL57yMM3r5r61667416r7+!iCYRYS7TkZAHa(+Y7CR!D(cbQUSARpyyjt>77yly<6:3+t5<r,M1MrLtyt><M7NwR_HRSq!YRDUGTFSTvYLR!P0RS/sR1a",
"47Br1M54<yLLy2Vy4tr7r4B61yt66BytAYZ5/seYTvmTSaPT,Ci(PCiHA(HTiPwqLw57t2BBl13yy7V5tB5y<rrB7t7yrtyykvGT(RTCYIGTvRRn*R1G0EHHeYT(eRR5",
"rMr51y5yM7r1MU#trt<17754gttj46y14TCkDSSSYeepwqSRZ0mGCHqYa!DRHnLeA1ljry476ltt7Btr3y4jtB>tr35Byt4y:7URcpH(aCQjFgYTv(SmeCTF5aAYCrPp",
"BM<57B5M,Il6;MytByI3yt:Vt62t5<VBpUeRWYSmT_GiGYPgvUYACAi_GYReG!1t61V616ry714L-lyty7Mt5B16ty2rttB15pRLY7nTjAnR!nUPRCRiPH!,LsR0pR6r",
"732L4tyrIN5r6r-2BB<t57yMLL7t6rtUvpACPRRYnSqm_paHYYi(aPGTSAYmGGRiy<A<ryytt7ytylBrVr6L7r1B6MMytr433DYqUgYUYnCRSGGFDJnYpCGgnGFFGYLp",
"S613j5y57314y7575rtIyt72;+7y6yj7SpCRlHPFamYL(RTGfaQnHRHATlYHLsQCr7l2ylL7135y<4tIr17Brrt1757t5Mry7TT#(_HTgSvYCP7Y`bY(G0WGQRD()GUI",
"ttMtjyV2t4Iy6t2rjrltL<yt5<r,rytrL1n(n!nRA#TYeRSCLe_nCvU!ReRRRYRSr6@7ByyyyttIy7dtMjt47y4ty7Byl>5tTLmnG,RGTC!CAYYbTnLYvT/(~t!JSHpA",
"MrBt25yl1<I<It6<tttV<32ry>IlttLtwASRCCPIapqvSGYQIkDRHmYGDnWQ(YTpVl6<yj7L-ttytB351t2B441II3525jBtpAHQGxRCTDT!0ATUQGCHvYGeQH((gY1G",
"<5L42<tl2B5,1t72l<ttytB5L-ytt6MMLYLmSLQaTnPmnYnvTzPYmhnp_vGTFSjSA17Vtl75yt$6yrltMy<;4rMrlLt74<A7SgTPPRSRnGDwYnRGRRSE!Y$HqHY9H!St",
"77<5rr2yl631BBB1tVyB77rtr3tt67j5enTYCiCPG`weTCzmA7HYPC>1R!1q(E4ey77Iy173tj7Br7-6644r6MVBI5rI77ALiPHJHYA1DYHLvHPR_Y5HFCTSHW!AHT>1",
"AR4y4A>Mr77t626r7B7B5ytMy<2Byt1tg&RpSTCCTWTCSpTT,iRlLSGR(HYL((Y2y6ly35tyr<y,t575y4BB6l1MB>tB6<jri>FwGR5CCe`1UYYTvGCnPp`Pm(!eeeLS",
"7,y6I65AyrB4MrB7tI5Il5>yrr3Mt>t1L5vRTnG!UTA,nSaTg9FGs_TWUnHUaC67I6M5B4:B74t,tB17trtB7B665-ypyly+nkhGSRqCCYWPeRDGLCTzSDRixTYHUgGU",
"671rZ741I7ylyMM33,t6N6BMy6I7j6pniAqFY!PaUbRmSC(!<(!HbTCCLYT(YYi1iy-1yBt64t65M74tttlIIt3rL3ryArB1CALSGnPFTSCH_RAR!1TpSR(kRDF!m(TA",
"6LBr,5yt3Llt3M7M3g7rlL57746t6yIMLAeI9TRCA`(aRe0CjqRnCRDC,GTCY4m#rI4rtB746ty7dM6rLBB5665t6LyB5<t2wLDLRlGSSTR!U_Q_azTTRanYYPnlYUTC",
"Lulr772r246r657yM66<<yM4yyBr774A5SpRTqHQ(FQRCn(CqRRACRcvYCLp(1T45Ll-tIL7y7166tMIl6IBr754r4y<65267pCYzaTYL(GCRRT_La/P!CPS6(wlR_Yp",
"rk254y5:16BBlj6Vt:Bt5M7y7r<6>1t7nnH(~ChTgC(bq(dDnWH!W,T_mHRSTY5AtMM1+3j;lt1t4Mt4r<+t>5<51Xy<6>A3L#!Y(CbTGqGZSLD!MnTxTTUCSRa)HG5a",
"#IqiMr7r564y73l;ByMj5tI7r7M7<tB65UIeTC~Y`PR`nG(S5LTHTQR5UYnG!Wv^Pt<21r62t6tt<tL1ttM-<<r75<3yl76NL2TLpDW`GPCDeUFRamRm!TYRLUCsD_(7",
"rr1Lr7ttM6rt:315y>1lMryBltB127ytiRnCASApQGCg(R55CYPmn(Gne*G9TSGCyM-4lt4rBV416yty:5y,-76767y53BL6e5TP~jPRSxARPSY(1jpa(nnFnn(TR/Yg",
"6pBd6>M6rlV5yyr46M6tdy4yyl657L7rvYYiGPLCnHCTYT!qRZDWbRCMlCGTQGi0>C>B;6;M7jrMlgMB4743yyygg6y577yrjCZCHTSnaTiTDYi!/RTaQTPCCnQ_RPi2",
"ypM2t723rtt44<LM67y,tt6*l57XByjyAHmRFnGG4W7nRRm>LRecC_nFRRFweh5I<<6L7d46>36rt77jI33<<ly5tM<M4VVLpCnZTvnSRHU7LECbIFCGnHl_RPR9YDIC",
"r6y;6:6Bt5ry4tLg3V75527M;<L51<MIrUTTL(UF1H5HTqC7AjRCC_mT(UHPkR45g6yrt555<7tM<M5jLy6BMrM<t7454tM3i1P!PiFWnPRFSIYRUFgULY6SRiHCGw7T",
"j,y,yt65Mr-yty377L,t7;33<7B36tjI0vTSRYRqnS!(GaPSLPQRGSTG5TR(PaR5Br-By52<73r7t5jryt7gB7y6y*rytLyLAaCRG,UQAQSTH_n/RRkSe/D8SmAZGILG",
"CBr<My<MB7rBBytt*BryrB5rty7rtrI:pqiYT(RQ_GnY_PTSHF(Gtb((CmnTUiTCr5Bt67BrBjVjryV<2y4t3Il57tLM>4M5tA(Tj7G_G17UpGCRGJCCF(AimnAAceeL",
"666=yLly<6B-,11566t^V66rtBt5y2yy5ALYCC!DPARnCUiaGYnYnCRF7ZnYYpGL544<ltBr5<y4<M5yrlyyrM<tt44j<rrppHATeAYYGCG!C7CsSDPRaSenWCHGAzUi",
"trB3tBB3lllyo7575rMttL45t4ty2l4fLGDRGGRCLqaR!FC7ReTqSaFRTGF5mnyaNtljBtV47274r4Vrr7M7yM63B76j7yMBIeRCCianiY`TCST(YAA(YLYASACYCP6A",
"7BtjV5y<yB1B<13tMg3tr37t-,ttt:C6A!FYS9CWnZRTTMpA(vbR!TQ!UnSGYIAAky5t3jt5MryrtBrtgttLtll<jLj>r7IBnzWHiCLgw(T_gPKGGng!gmCCS_HUGF^7",
"7KI14jjy3r:7B7Ny7ylI66grr+tByBptlYTsTSR(STCjTrCEYQTCT!QGqR5!ivnwl15BIMry57:r566ytIMBt4y57y<M7ry2gpA(RYYe5!SxTRGHa!mHHS5TR(H`SRUR",
"2^yj3M7rLBr2t<7t-437BB7t3r-Lt4e1y,YUAP`ReweY'YGAiPH(UAHL(RISS,Hpyzt2rl6757jBztB675;67r17;rB7y:Bt^1SYnpeWTDHqYHmUCRmiAHRTnF(LYRGi",
"yt5<t<<6Iyrt4:7yB7B5yr7Btt26r77llUTYURRTmYnQFeSa(HYeRnFPL(TA(PTep5lVrljByy2I6NIy5lt2d7rttt476ttjTiRmUT0UHmCR'SbPGiYpTGlDTGT<YCTa",
"6y223tgytB4rB1r7lyy7t3IM747BL265CZYRTRmR(Svv9YC&i(RHG!vGTGGGiRGGy6M4y214<4yr7tMytttryVrIB55yttB,TamSTDq/RHcLRqRbFn]PDCvTsniqRvY6",
"4wi4yttryt5tl:6y-MV6r44,yBM6L,yLT_CvRGZAAHR7(Ymjn_LUYK(CClSAnTLI72tV4rBL:5r6LBryBLB1y6B3,t2yl3ty5UYY(GLRwR(YvZp9PC_(ZY!jeC!5GYT>",
"t242tlr2y1LtBddj7>1y5tL51B75g6t;gH(UHRYCTQG1GGUCe_!ve_`dRn01eYwy4yy<MtBgr66tjy53yLrIt65trtrM57gtLraTCRnRC(YtiHT_SCT(AFvG1GeAHApi",
"p5>AL><t355lL7gtV56<yI52<54;t1BtrmU(RGeY(qaRj_(!vDSYCY!nG/UpHS2i5B+t<MyBtB1yly7r726B524ryyr;y5iCUZCmCn1S!Hv`SQGjPZS/RGmTHHHTPInu",
"r2>MtL<4y24lgr62grytV3:3<By15Br7Y1UYAQqCDZ,STYTTYYORGD!MYYYHWnptAt>y56r4I5yl64l6tytBBp7yB5I7-ytIUAACTTjRqRC~TCGAv_ns`(ARCACi(Ypi",
"4i>63LBty67<tMlty55tBBrrj5yBr-rLACGes_STlRv/HYC(IvQA!GYSALYCGRTe1LyyttBLrty7B7M6IM7>A54MyM<tyyipeG1(UmHS5G(GY/GpGqmR(qnHSTYARCA7",
"t6r61yMBMr57r35ttr,B>y6B54<M6y2BUYFmCRDiiPYpeRTRCmRTYieY(FeLveiAptr46tt77y73B3Ir67t<66ylLrt7Ly-6eiYRY(YDnUKmpRWnnaRA_wwYLDgYTLA5",
"y3BM:yt6,3t5y3l22I6rM7tt1r-<65B6TSCZHT1SUGGmS/dUPGRH_eHYSiefGGLpMyprrV6,t7y731166<V166M457rt6Bp6jDTkCGC(R(,RFC(,R0e(UdT~ZSIiCPqi",
"Lyyl7ty>1t7I564-7gyBr1M67B7@6ylrGvFnY(aSsGaHS(iTZRQ(CYGRCSHn(GAnMrrBtB=yBtrl5B6My6tt6ltr1t65ry:It-/CCYCG(U(,nHC>RRi/7SAW!CvaiDei",
"1t>B<3yI55I7t1rLrr4ry65BMy67yttiw_CRGURnQFiRRAJPAFUvR!SWF(WYSPYe1647Vlj76Mrry734517617yIr1Vt6<AMl2nnAcAYPCRSHTi1TYYHpYDi`HAeSvGA",
"7<t6jML65y>2rVg73tr3t<64<ly<165Cnn1!A_dR<H,TRDnTGQqFGCiR_TAlGnj7M-y675t4y55lj3B,ll6y6r4rMrdy67r776Z`SHTIGTH>/Sep(nYTpSUgcvGw!SPt",
"626l6rAy<B4y4t4<B65ttBty7771y-,C1PR`GeSPYnTHP`GQYmCe(DGlRC_iUGa674r16jA7l75361Iy672rt7;L525yLl:jTn!RQUC)Rg`CRRJCT7G(!HejGYPZSAiL",
",ttj7>6y5L76r42ytyyLlt776ttt66576jPkGcRHYm_FnDGU(ae5R#(RD5R!URSip677yt2t6161t5<t6V67Ir26577<MttpdyYCTPHvUC(RTYvSnLGYjARFvR!HPni6",
"Iy1yr6t7M4M265l<It7+tl2gtr5Mtt1rMSIReUSRTLRvm(KYpRG`RwLfs,Te^Sp6Lyj7MVy6tt31B7477V-6Bt465677l31M<ICARhWGDRDHPDjAwRTCvCGPTUH((Rpi",
"Ayrlr7,Bj6#47Ml-tyI1<7y2221375AtRDURRQTZYSUGRRAgfGzRURn6G!T!H9qpL62M76tXy-Btrr446j46tB55y7t7r76LiCPHTSH(PYRLG_SCeH0S*SeYPCRHF!Zn",
"v647r7>ItL17tyy1g4734r6yy<tt6<p6pwPkTLLjiCCRi!JGRT,C_Y(emY/nqiiUpr5r52y75tB1IBB-jy7tBy152ryLLltM4CRjPUTR_SiF/GZifYwRCHSRFYnUnuia",
"IL3r6t656MLMrjy445trBL7t1Mz4:65p0LSeRR(SHCYj9DRxTTeQCJKGDR/a9Hni#A>pj76g7lt7r<t3tt-6V6y2tr657pyyIHPH9/LPQCSnRYRe9TTRYTPe]R9Cmept",
"LlA5My6I2<647yrr745764r5t4N5t>l7AA_9sT!RATGfPLGjTYA9ZRmFRWCSd_uu7,6>76627V<B7316277r<7-L4tBy=t4AiMp~hHTnGUAPDSTe(GeF(KDHYTPZ(qp6",
"1U7lej7r17y55B66y5ty67rt2ry6t<1CGCCppYFnGUY!RiGSvD(nRTADCn(qeR7Q7iM5;t7464tBt1552B7M77yjr77tMyMriLUFTHGUDTeUTIa1RFP9RRS(AHTsPiU6",
"ttMj354,Bg7tr7r765y37::775tM5M7PRvYnmj_YaYR/A9!G!HYmRCvGTR(CwCUsi7y5451y43+MLly6#VBl6yty:rM2y1576PGF!nBFGSR(GTR8STWYe(CTGA,YF(66",
":*Bt41rg27tt7L71gt566B5B<2Vtr1,AQeDCA!GjpSPLH!C(TGYe!C(nUeqpHipin5r:6yy4t6666I.L1Br56tyBM47y777ttzG_G!UGTH!GEnYPnA!YRSRFGR1(RCyn",
"Mt33M3-yr6tL-rtrytt<t766466y443,wTY/ATA>GYLRLTGG9qDAYU5AYUmPY!L<4p>7tyj-y6r46yjt76V45tB6t1y7B6tPLLnY!!C7R(qmTFYHSRRR(1RATTTqPLLA",
"M<B2<yt35yyBd5rl3t-r4666t716t7Mt/LTSUY9aR1QPLACG0TYvZRT!TTe!,RUR61p77r15Lrtr7B<3rt<y767yy<t7B7>6A1eDRW5CGRCAT)YnEY5((D(SYA(vpRpj",
"Ly1<-4I-67<BtB:4M<t>MMg6>A5r5jrynRGsFZdl`YeRACCCDH(PPeC!TDALenLYtrtr51>77y3B<1Brt7IrMVBLL<y6+71:4PTUZY_pY/IvRTPSvv(ASnGCGGAZnYpC",
"A5rB@7r5Vy374y5t3y7rtMtot71r,<yBpTnjRHC6m(>TG!R(Y!HiGHTRsFRZPRATpl7766>yrBttL:B><tM46Iy-t76tyy5rP(5RQC!qADq(PdQ(!pTtRRGGSTHSTiLC",
"47t5r4<M471M56tM4V167t77B6Iy>ttyIGGqR,nDR)F_RaHPenYUSPYRGGTRZApI62By723Ly75Byy7tXtBr7j67VtVBy714B/GG!ZC(C_YL`p`UC6HqAnpfRiiTH7Bw",
"6nV<t<y,t4B37t143Mrr6y52y3r6j7typTPZaCndTHSE/HRmvCZYTTYqd_YGR7Gap75MM66y7<<56M4r62tI46Byt76ty646MD_GGepLCHSeRG_/GHRGpKqewCZi!iR6",
"Lty6g4BrB455yy<y71ry,77BBL2t774VUTUTb~CgT(ALGTvRPGT(CnaSDRTCF5,HLIgtt4Vt7L4y55ry,l4L664ttygytIrC6SpTPYCF_xY*S8AY/YTS9(Hi1UD7TnR1",
"54r77tLjyyt6t,6776r77rrt57yMy-iLrR_nACqCiYvP(LTCRSaTDW/YxGn7!Si56t57y61j<tj5y72y1y<ryM6LBB5<tMyCPeA7CG#qTPCISYFQY!RYRiW7Dn(Cn!!A",
"y7k%7ByrIt:6rg76gMABy6y7LtM4BMiLpnTSemTACTwDRUiYYRDURZCe)AChHSACtl3:5t557I7t-536jr6Vtrttt7774t5IU5LYqCHa(sm5W5aRPp!ATEUvaGAv(YTU",
"6l11t6tIL576l5ttig5y5yp1>6y7Bt>5psATdSYFASZGCCgCZivARs(HRCFYTnCAByrg72y7:t37L6ttBt14trttry4r47<5IpTGTTTUTCiD)LRhYF(5RTgGYmCA(v!P",
"4S6<tt757M25V75trLtrBr66y7ty66>nTCa`jeCiCTUULGjQRmUCinCGD!vYTZT5lIL6yytM477jMt577r74ygylL5BVVjyiiC1RSHK0T8((PGGRRY(ARTSalTYRGTRD",
"6-5t<t76y-1y7r6r5ywyy<t547225rt4AvRSi5CGCYCGw(RTRZWTDZ1URGITiqQ5yIlLl<63776y75Iy:j2<:lrt4t2<Mr7ALGa_#PDnRYRpReSPGSwpYHT__0iTFLS(",
"p5y6tt46y57t-j<ly6r541424yt57yOy7_RRGdeGRGCYCe_TRiGReTwPRCmATqRNLVI7r4tB,trty764<yVy6>L71t4j>AiiLwGHCRRTSA!mAZSUAHDpRYqARY*QLTPi",
">4yy347<:ytyrtBItC5rM7<76yy=>75Aa2PlRCRvH_T4!_SGYATLasGC_HCYnGGUtyM7tLB*<ttytMy6t6ytt2r65V-M546AeLAn`aZUiD(ASCnRiTmvT!T0KYdCUYLi"
};
