/* XPM */
static char *Tile_13_128x1281739968657[] = {
/* columns rows colors chars-per-pixel */
"128 128 78 1 ",
"  c #1E391D621BE4",
". c #20141F311DA1",
"X c #2176208B1EEB",
"o c #251F24202260",
"O c #283527242546",
"+ c #29AB289226AA",
"@ c #2CEB2BD029EC",
"# c #30462F232D3C",
"$ c #31B730922EAC",
"% c #351533EA3202",
"& c #38563720352A",
"* c #39FA38C136CB",
"= c #3D1C3BDB39DD",
"- c #404A3EFF3CF4",
"; c #420B40BB3EAC",
": c #455943FF41E7",
"> c #4870470744D6",
", c #4A0D48A24675",
"< c #4D714BFC49C1",
"1 c #50AB4F2A4CE1",
"2 c #528D51064EB3",
"3 c #55AD541C51BE",
"4 c #586256C95462",
"5 c #5AAA5904568A",
"6 c #5D9F5BF0596A",
"7 c #60435E8D5BF5",
"8 c #628960C15E15",
"9 c #6634646261AA",
"0 c #68C666E46413",
"q c #6B2F6950668D",
"w c #6EBD6CD169F4",
"e c #725670676D83",
"r c #75CB73D270EA",
"t c #7C157A0076E7",
"y c #7DEC7BDE78DA",
"u c #837C81577E34",
"i c #86F184C781A6",
"p c #890386D183A3",
"a c #8BA88966861B",
"s c #914D8EF28B85",
"d c #935C90F58D71",
"f c #9795951C9180",
"g c #999997239394",
"h c #9DE59B539793",
"j c #9FD69D44998D",
"k c #A1909EF29B25",
"l c #A468A1C09DE7",
"z c #A85AA59FA1AC",
"x c #ADC6AAF8A6E9",
"c c #AF85ACB2A89F",
"v c #B140AE68AA50",
"b c #B528B23EAE0A",
"n c #B7D7B4E0B09A",
"m c #B9DCB6DFB291",
"M c #C00ABCEBB866",
"N c #C232BF11BA8F",
"B c #C5DCC2ACBE17",
"V c #C9CAC68AC1DE",
"C c #CE0ACABAC5F8",
"Z c #D055CCF9C821",
"A c #D253CEF1CA14",
"S c #D5E5D274CD83",
"D c #D899D51DD01E",
"F c #DA96D710D200",
"G c #DE1DDA8BD56A",
"H c #E0CCDD2ED7FE",
"J c #E2A2DEFED9C3",
"K c #E62DE279DD2A",
"L c #E910E54FDFED",
"P c #EACAE703E198",
"I c #EE43EA6EE4EF",
"U c #F118ED37E7A7",
"Y c #F339EF4FE9B4",
"T c #F6A6F2AFECFF",
"R c #F95FF55CEF9E",
"E c #FB8DF781F1B3",
"W c #FF23FBB2F5CD",
"Q c #FFFFFFFEFFDB",
/* pixels */
"o@o+OOOO@$-$$+O@-$-@+@+oo@--;;@+QQQQQQQQQQQQQQQEQQQQWQQQQQQQQQWK@++o+o+oOOo##$#$#XXXOOXX+++XXXXXQQQQQQQQQQQQQQQQQQQQQQQQABQQQKQQ",
"#@O+@#@*;;@$;$@@@@XX+oooO+@-@@+OQQQQQQQQQQQQQQQWQQQQWQQQQQQQQVVQo@%oO++oo+o++$;>%OXX+XXXXXX$@+XXUDLQQQQQQQQQGBQQQQQQWQQQQQQQWQQQ",
"%@@@@@*5;;;;-@+ooooooooo@-+oO+-oQQQQQQQQQQQQQQQQQQQQHQQQQQTQxQQQ=&**==$*$@O+@$;*;#+-&X+XX#;$#&@XKIPQQQQQQQQQQQNQQQQQQQQQQYQQQQQQ",
",*%%=,>2#@#oXOooo++oOooO@+O+ooX-QQQQQQWEQQQQQQQQQQEGQQQQQQQKEQQQ*;=:>,2<;;%=$===1;--%%$#%**-+XXXWQQQQQQQQQQQTQQRQQQQQQQQQQQQQQRK",
";;$$#$OO+@oOOOOX+ooooo++#@@$OOooBQWQQQQQQQQWQQQQQQQWQWTKQQQWQQQW*%#@@O+@&><==,<78q4;34;--XX@XX+XQGQQQQQQQQQGKQQQkQQQQQQQQQQEQWGP",
"%$@++@++@+OOXOOO+oOoo+OX@oO+oo+@FQQQQQQQQQQQTQQQQQQTQQQQQQQcQQQQ*2,%#@o@+OO#$*$%;&#+%#+XXXX+X#XXQHQQQQQQQQQWWTEEVQQQQQQQQQQQQQQW",
"+#++O++@OO+O+OOO+oo+$-+@ooOoOoooWEQQQQQFQQQHIKQQQQQEQQQQQQQQQQQQ++$%;:,$@oo++$-@+@XOX+XXXXXXXXX+DWQQQQQQQQQGarYQQQQQQQQEQQQWQQQQ",
"$@+@$O#+-OOoOO+Oo+-+-;-oooooooO+QQQQQQQDTHEQVWQQQQQQQQQWQQQEQQQQO+@+%#%*$#O+++#@+O#XO$@X@XXXXX+XBQQQQQQQQQWQRQRQQQQQQQCQQQQQEQQQ",
"+$*=;;;#&*@X+##%;;;-$@+OOoooooo@QLQQQQQIQQQQFbQQQQQQQQQQQQQQQQQQ+@$-=@&$++#++O@$+XOOO@#XXX+XXXXXWQQQQQQQQQEIQQQFQQQQQQQPQQQQQQQQ",
"O+@+@+@#$<;<;-;4;;;$-@-ooooXOooOQcQQQQQjQQQQWQBQQQQQQQQQQQQQQQQQ$@=@$++++++o++#O%@+XO#+XX+XX+X+@QQQQQQQQQQQQGEQQQQQQQzHZQQQWQQQQ",
"++++##@+X@#*--31;2;;$@#XOOooooooQSQQQQYwQQQQQQQQQQQQQQQQQMQQQQQQ@+O++X+ooo+o@oOX%@O++@#X+X++X@X+QQQRQQQQQQQQQQQQQQQQQQYQQQQQQQQQ",
"O++#&&@@@@X@@+#-#--;;----#ooooOoIIQQQQQlQQQQQQQQWQQQQQQQYQQQQQQQOXOX+OXOXooO+oo++;XXX$$#$XX+X$@XQQQQQQQQQQQQQQQQQQQQQGHQQQQQQQQQ",
"++@$&$@+#@@@X@@++--$;;;;-$@#ooXoQQQQQQQGQQQQQQQQKWQQQQQQDQQQQQQQX+X++oOXOo+++OO+$-%#XX$&$XX+#X@+QQQQQQQQQQQQQQQQQQQQFBCQQQQQQQQQ",
"++%$+@@X++@++##++++;$#;;-#-;;--OMQQQQQWQQQQQQQQQWQQQQQQQRQQQQQQQ+XXOX+o+++++*++oX-;&++X#$+@X@@XXQQQQQQQQQQQQQQQQQQQQQPWWEQQQQQQQ",
"+&$+@++++@+++#XXo+--o+---+;;;;#-DEQQQQWQQQQQQQQQQWCQQQQWQWQQQQQQ+XX+X+$%*&$XO#OX@$;X@XXX#@+X@XXXQQQQQQQEQQQQQQQQQQQQQQQAQQQQQQQQ",
"+%$@++++X@#+O@##@#;---XOO+o@--$@WQQQQQFQQQQQQQQQQQEYQQQQQQQQQQQQX+XX$%$+X++OXO++XX-@O#X+++X+XX@+QHQQQWQMQQQQQQQQQQQWQQWcUQQQQQQQ",
"@%;;---#@$@@@X+X@+Ooo$oOoooOooo+QQQQQQWGQQQQQQQQQQWEQQQQQQQQQQQQ@XXX@@+XX+@+XX++XX@+X+X+X@XX@X@XQVWQAIRDQQQQQQQQQQQQQQQAAQQVQQQQ",
"%-;--&%O++XX+++@#ooOooOOooOooo+@QQQQQQQWQQQQQQQQQQREQQQQQQQQQQQQ+XX+$X++++X+X+XO+@%$+@X+X@+@X@XXQVKNQQQQQQQQQQQQQGQQQQQGCcxNQQQQ",
"#-#@@@@@-++#@XX+oooooXO+ooOoooooQQQQQWQQQGQQQQQQQQCVWQQQQQIQQQQQXX@++XXXXXXXX++X+X+X@$X@XXX@@X@*FtQQQQQQQQQQQQQQQQQQQQQQQDHTQTIQ",
"-;-+#%--;%&-%#+XoXoXOXooOoOoXoooQQQQQQQQQQQQQQQQEBGQQQQQQQQQQQQQXX+@XX+X@X@%$+OXXXXO++X++XXXX@@#WIQQQQQQQQQQQQQQQQQQQQQQQQQQQQTP",
"@@@#%#O$%@X$#$%-#o@+OooOoXOoooooQQQQQTQQQQQESQQQQQQQQQQQQQQQQQQQX+@X+++@$OXOXXX&O+X+XX++X@XX+#@XQQQQQQQQQQQQQQQQQQQQQQQQQQQQQQQQ",
"OXOX@@O+O%$O@XXX+OO+@++Ooo@+oooOQQQMTQQQQQQQQQQQQQQQQQQQQQQQQLWQX@X+X+XO++O+O+X+X$+@+X+XX+$@X+XXQQQQQQQQQQQQQQQQRQQQQQQQQQQQQQQQ",
"O@OO+X+$@+++XXXXoooXOo+OXo+oooo$QQQQQQQQQQQQQQQQQQQQQQQQQQQQQQQQXXXXX+OXXXXOOXX+XX+@@+XX@X#@@XX+QQQQQQQQQQQQQQQQQQQQQQRQQQQQQQQQ",
"XXOXXX+XXXX+@$XXXX.oooooX.o.oOO$QQQQQQQQQQQQQQQQQQQQQQQQQQQQQQQQXXX+XX+X+O+XX++X+XXX$X++#@X@@X++QQQQQQQQQQQQQQQQQQQQQQQQQQQQQWQQ",
"XOOXXOXoXXX+XX+XXOXo#XoXo.X+-$#oQQQQQGQQQQQQQQQQQQQQQQQQQQQQQQQQXXXX+XXX+OOX@#X++X+X@XX@+@++X@@+QQQQQQQQQQQQQQQQQQTUKQQQQQQQQQQQ",
"XXOXXXXoXXXXX@#-#@%;O o Xo@$+o..QQQQQQQQQQQQQQQQQQQQQQQQQQQQQQQQXXXOX++XX++X@@+X+XX++X++X$+++@XXQQQQQQQQQQQQQQQQQTCgmCBQQQQQQQQQ",
"XOOXOXOXXXX.XXXX#@OXXOoXooo+OoooQQQQQQQQQQQQQQQQQQQQQQQQQQQQQQQQX+X$@O+X+XX+X@@++++X++X+@XX@XXX@QQQQQQQQQQQQQQQQQBlQQQQWEQCHSQQQ",
"+XXXXXXoXX..XXX.XXX X-$X++o XXXXQQEWQQQQQQQQQQQQQQWQQQQQQQQQQQQQXX+-&&@+@+XO++OXX+++X+++@$@$@X+XQQQQQQQQQQQQQQQQQAGQQQQQQQERMIQE",
"@O#%OXX   ..    XXOOoooXo..X..XoQQQQQQQQQQQQQQQQQQQQQQQQQQQQQQQQXXX+$$&+@@++O+X+@+X+X++@@&@@@$++QQQQQQQQQQQQQQQQQNQQQQQQQQQQQQQA",
"X+@%%#X    X    XXX.XoX Xo..o.o.QQQQQQQQQQQQQQQQQQQQQQQQQQQQQQQQXXXX+X+&=@+XX@+#X@+X++X@%@X+@$%@WQQQQQQQQQQQQQQQQYQQQQQQQQQQQQEQ",
"XXXX@$X      X.  X.  o+@Oo .XX.XQQQQQQQQQQQQQQQQQQQQQQQQQQQQQQWW+$$$$$@$@+@+@OO@@+@$+@$=%$@@+@@+YQQQQQQQQQQQQQQQGWQQQQQQQQQQQQQQ",
".X..X;XX           X  XX+XX .oO@QQQQQQQQQQQQTQQQQQQQQQQQQQQQQQWE+;&@$X+XO$@@OX+X+++@&$@&+#@%&*@XQKQQQQQQQQQQQQQQVUEQQQQQQQQQQQQQ",
"WQQQQQQQQQQQQQQQEQQQQQQQQQQQQQQQX Xo ooooo..oo. XXXooXXo XXo..oXYYQWQQQQQQQQQYWQQQEQQQKKQQQQQQQQo@$oooooXXX oo %&.@@XXXoo+.XXo+o",
"WQQEQQQWWQQQQQQQQQQQQQQQQQQQQQQQ@ooX@oo oooo .o.XXX+ XXX+X+X...oQQPYQQQQQQQQQQQQQQQQQQBQQQQQQQQQo@%*o@@+oXXoooo:@X oO+XX#o.Xoo.o",
"QQQWHQQQQQQQQQQQQQQQQQQQQQQQQQQQooXX..o.ooooo@%OXoX  XO+.o+OXoXoQQQQQQQQQQQQQQQQQQQQQQkQQQQQQQQQ@%@o@Ooo@@@+o$%&oo@@o+.XX.ooX+..",
"GWQQQWURQQQQQQTWWIGAQQQQQQQQQQQQo*Xoooooooooo..o+#OOo+oO@%&&OOooQQTQQQQQQQQQQQQQQWQQQWjTIQQQQQQQ+o+@o%@oooXo@%:%$oooXX.X..oX....",
"GQQQQQQQQQQQQQQbQEQEQQQQQQHQQQRQo@XoXoo oo@+@..oOOO%-&OoooO;;o@oQQQQQQQQQQQQQQQQQQQQQQEDGQQQQQQQ%*<<;@=%oXoX oo+@$@@o@##+.. o.@+",
"QQQQQQQQQQQQQQQHQQQQEQQQQQQQQQWQ o%ooO@@oo.oooOoo@@Oo@%;;;;<<;#%QQQQQQQQQQQQQQQQQQQQQQQQHQQQQQQQ&&%*@@@@+oooo+Oo+ooOOOo..ooO#@@+",
"QQQQQQPaQQQQQQQKQQQTRQQQQQQQQQQQX o#*&%@ooo#Oo%;%XXXXoXoo@&22;;;QQQQQQQQQQQQQQQQQQQQQQQQQQQQQQQQo@@=&$$@*oXoooX.ooooOoo.. o+   .",
"QQHQCTQHCQQQQQQlQQQQQQQQQQQQQQQQoo.+=@@@%%&**:=@ooooXXOOoO@ooo#OQQQQQQQQQQQQQQQQQQQRQQQQQFQQQQQQo+o@&=@oooXXX XX@+....XX.#oo..  ",
"QTAQQQQQuTQQQQQcQQQQQQEQQQQQQQWQo..o><=,:*##%&O+@@oOoXooXooOooOoQQYQQQQQQQQQQQQQQQQQQQQQQEeGQQQQ+@$%$+XXX+XX+X+=-#XXXX#%o&o+o..X",
"HQQQQQQQDVQQQQWQQQKQQQQQQQQQQQQQoo@oo+%=%%<&#@Oo$@@oXoOoXooXo+OOUWWQQQQQQQQQQQQQQQQQQQQQQQWGWQQQ@@%@+O+O@XX$Xo@*1,=;::1-;:&*>=&%",
"QQQQQQQQYCQQQQQQQQQQQQQQQQQQQQQQ:&&%&@-*%<:@@O#%OOXoXOooOOooOoooQKPQQQQQQQQQQQQQQQQQQQQQQQWwTQQQ+++@@OX+@O+OXo+%@#;,:#@@;&&<03,%",
"QQQQQQQQERQQQQQQQQQQQQQQQQQQQQQQooooOOO++$3:$##@oooo@oo#OOOOOOooQEQWTQWQQQQQQQQQQWGQQQQQQQTQTQQQ+@oO+oOo$OO+o$=:%==@##@=*$oOX#%#",
"QQQQQQCEQQQQQQQQQQQQQQQQQQQQQQQQooo@oo++o+%<>-=@OOOoooXooOOoXoOOQQQIDQQQQQQQQQQQURRGQQQQQQQQQWQC@++++Oo++OOX&&<5;=#%o o@$X XX=o ",
"QQQQQQBQQQQQQQQQQQQQQQQQQQQQQQQQ@+@&*#%&%==-5<%O@ooooooooooooOooQQQHWWQQQQQQTEQFaQQaCQQQQQQQQVEM@O+@++++@+&+@;;>&::5>*$#$@$o;%#O",
"QQQIQIWQQQQQQQQQQQQQQQQQQQQQQQATOO++#,%@O+@@#,>+Ooooo+oOoOooOoOOQQQQCQQQQQQEHWIBUQQEfQQQQQQQQQeG$+@%@+oo@oXXO=4=##*OoXO$@XXO@.  ",
"YQWvpvTQQQQQQQQQQQHQQQQQQQQQQQQQOo+oO@o@@%:==%$%OOOO@oOoooOooOo@QQQQQQQQQQQQQQQQQQQQQGQQQQQQQQLC$@$$@@@++++Xo%=-%-@Xoo. oXO+ @oo",
"CKGZYcQQQQQQQQQQQPbQQQEQQQQQQQQQoooo+@OoOOO@-#-;;#+o+O+oOOO+Oo#;QQQQQQQQQQQQQQWQQQQQQWEQQQQQQWQW##@@$=;&%&@oo@;&%+Xooo. ..oXoo;&",
"CDQWQQQQQQQQQQQQQQWQWQQIQQQQQQQQoOoO+o@O@O#;;;-%$;;@@oo+OO@#%#;2QQQQQQQQQQQQQQQQQQQQQWHQQQQQQQQQ##+@@O@$$:;&&&:%%%oooo  o#Xo%$..",
"QNQQQQQQQQQQQQQQQQQQQQKWQQQQQQQQ+oOo@o+@+%1;;;;-%@;;-X++oOO#==<&QQQQQQQQQQQQEQQQQQQQQQQQTQQIQQQQo+O+@OO+o@+&<<:;%ooXXo....o%#X@.",
"QQQQQQQQQQQQQQQQQQQQQQQGPWQWQQQQO+O@oO@@##$@;;1---;;;-@oOOo+#%@OQQQQQQQRQQKWKQQQQQQQQQQGBWQWQQQQO@@@#$$#%@%%%OX@@@*oX. X.oXo .o ",
"QQQGQQQQQQQQQQQQQQQQQQQQQWPQQQQQoooo@=*#+O+@+@$-;;;-;-+oOo#%$$OoQQQQQWQQQQIQWQQQQQQQQQQWBWQQQQQQ##$#&@$%O@;Oooo$XX@ooX.o@X @ Xo ",
"QQQQWQQQQQQQQQQQQQbLQWQQQQQKEQQQ+@@@%+@@#O+%-&;;5;@+++--@O$%@+oOQQQQQQQQQQQDTIQQQQQQWQQQFAWQQQQQ:;;;<==@&2:*$OOooo@oOXXoO   ....",
"QQQQQQQQQQQQQQQQQLcWQQQQQQQQTbSQ@o@@#@@@+##%+$+;8;$@++o-;=#O+O@+QQQQQQQEYQQITYQQQQQWQQKJMbQQQQQQ:,=62<=%:&$%OOoO@$+ooO@O+ooXO+Xo",
"QQQQQQQQWQQQQQQWTWTQQQQQQQQQQIIG@o@o%@@@@+O#-;-44;;$#-@X@#+#O+++QQQQQQQQQQQQGMEQQDWSQBGWQQQQQQQT<;49>O@&%O@o$&ooXXooOXoX@o*OX#@@",
"QQQQQQQQQQQQQQQHWQYQQQQQQQWQQQQQ$%@+@&=#+@++@@&;;;-+#@#@++OO+OOOQQQQQQQQQQQQQQIGQTEQQQQQQQQQQQQZ&#>==@=&:;;>2=&&O#O@-&&*%$&&&&&O",
"QQQQQQQQQQQQQQQQQQIIQQQQQQQQQQQQ%@@O@+@&$%$@@#@+@@++++@@;;&-#O+oQQQQQQQQQQQQQQQQQQQQQQQQQQQQQQQQ&=&@#+#+@&%&@$%&#%@@@$&@*+o X.XX",
"QQQQQQQQQQQQQQQQQQvbQQQQQQQQQQQK@o@o+##-;;&$@@X#$#++++$;%O%&#++oQRWQQBQQQQQQQQQQQQQQQQQQQQQQQQxQ%$#&@#%===#@$OOO@&=*&-#O+ XXXXXX",
"QQQQQQQQQQQQQQQQQQDEQQQQQQQQQQTE@@o++++;;>&$$@$$@#$$@%;;##O#;&##QQQQQQCQQQQQQQQQQQQQQQQQQQQQQQVQ=&#&$=;;:2:&$O$OOOO++#.Oo o  XO.",
"QQQQQQQQQQQQQQQQQQQTQQQQQQQUQQWQ+@@+#@$+%$@@$@+@$+##;;2;;;;269<;QQQQQQQPTQQQQQQQQQQQQQQQQQQQQQDQ++OoO@O+:$@@$$#@#o.o..oOOO@ X X ",
"QQQQQQQQQQQQQQQQQQWQQWQQQQQQWWQQo++@@@@@@++@@+@++@@@$$$%%%@@&%#;QQQQQQQTdQQQQQQQQQQQQEQQQQQQQQQQ+OoOooo#;&$&==&$=;#$o$@.@oO+OX O",
"QQQQQQQQQQWQQQQQQQQKQQQQQQQQAQQQoo+$=*&+++@@@@@@++@##@%$@%@#+++oQQQQQQQQrQGQQQQQYQUFACWQQQQQQQQR+ooo@##=+oo@+@+OO%&%oooO.$&OXXXX",
"QQQKQQQQQQQQQQQQQQKuQQQQQQQQQQQQ$O+#$%&@+++@#@@++#+@+@@+++@@@@#OQQQQQQQQSQRQQQQQQDlVGMQQQQQQQQQY+ooXooooooooXXO@%$&+o.O*==@O@XO+",
"oo+$%@ooXooXXoXXXO@#oOOOOo#@+o@@QQQQQQQQQQQQQQQFQQQQQQQQQIBQQQQQoo@@oo+:*#*$o.oOo&%=;;<96;$@o@O@QQQWQQCQQQQQQQQQQRQQQQQQQQQWQQQQ",
" .ooO.O=%ooXXX@XXoX+XOo@O@#OOO#$QMBQQQQQQQQQQQQQQQQQQQQWNbQQQQQQo+oO@o@<@#o@o*@Oo#O&%==6=%@@%oo*QQQQQCLQQQQQQQQQQQQQQQQQQKQTQQQQ",
"Oo....ooXX@oooXoOXooo@oo@$oOO@@$GSQQQQQQQQQQQQQQQQQQQQQKiCQQQQQQ%$@@&*=:*#%%@O%*$@$$@oo@+%%Ooo@%QQQQQBTQQQQQQQQQQQQQQQQQQQQTWQQQ",
"&.o...oXXXXoo+@$OOo#O$#@&@o@@Oo#mQQQQQQQQQQQQQQQQQQQQQQWEEQQQQQQ@@Oo#@&=&o&*%%&>-%=<-@o$oXXooo&=QQQQQjQQQQQQQQQQQQQQQQQQQQWQQQTQ",
"#O.oo#oXXXooXX$+XoXooO@X+O++++o$QQQQQQQQQQQQQQQQQQQQQPPQQQQIYQQQ-$#%@O@OXoXXoO%&=-;4;=$&@Oooo@@@BQQQGnQQQQQQQQQQQQQQQQQQQQQIQQAW",
"oo.... XXoXXo@@XXXoXXo@:@O@%%%#$EQQQQQQQQQQQQQQQQQWQQQUQWQIQQEQQr9<<*&%@#$%+&-*:=;>7<>;&=@@oooo@TQQQfQQQQQQQQQQQQQQQQQQQQQQFWRTQ",
"@##OoO+O+Xo@#%+oXXOX@oOoOOoooOooQTQQQQQQQQQQQQQQQQWQQQQQQQPHQvTP=*%#$*@ooo.++#$#&#=-$%@X@o*=&%o@QQQQQQQQQQQQQQQQQQQQQQQQQQQFPQQQ",
"oo#243;%$oO**oX.XoOoXooX@XOOooo+QQDdIQQQQQQQQQQQQQQQQQQQQQQQQKQQ*@*&*&=*;*%%@%@&$#@$&%;$@@@%@@@*QQQQQQQQQQQQQQQQQQQQQQQQQQQQQQQQ",
"..o#;2<4<,*:O..XO+O@+@@oo@ooooo+QQRQWQQQQQQQQQQQQQQQQQQQQQGQQQQQ::;=$@#@#*,<>34,1<$+@XX$X+X@+XXXQQQQQQQQQQQQQQQQQQQQQQQQQQQQQQQQ",
"oo+++o.oo..#@..oXXOoo+OoooooooooQQQQQRQQQQQQQQQQWQQQQQQQQQWQQQQQ:=$%oo..X@;=<$++XXXXXXXX#*&&-$$+QQQQQQQQQQQQQQQWQQQQQQQQQQWQQQQQ",
"oXX..o.o XoooX.XOXXXXoXooo++@#ooQQQQQQIhQQQQQWQQQQQQQQQQQEQQQQQQ#+oo@+$*$%=$o+oXXXXX@XXXXX$$$&@+QQQQQQQQQQQQYWKQQQQQQQQQQQWQQQQQ",
"o..oo. oooooXX..OXooo+XXoooo@#@oQQQQQQQSmQQQEGKQQQQQQQQQQWQQQQQQ#$$*&$&=%@o#+ .oXXXXX+$-XXXX@*&@QQQQQQQQQQQQWATEQQQQQQQQQQQQQQQQ",
"oXXXoX+#%@OOO##@%%@ ooXXoXXoo&*#QQQQQQQQQWQQQQQQQQQQQQQQQVEKQQQQ=1,:=:o.#@##+oo+X+XXX+X@X+++++@-NQQQQQQQQQQIQmAQQQQQQQWQQQQQQQQQ",
"oX oo=21&#@&#O#&#&==&oOooXXooXo-lFWQQQQQQQWQQQQQWQQQQQQWQQQQQQQQ96:*$+.#=@o..o+oXX+++X#+&@%X##@@FkQQQQQQQTQKIWvQQQQQQQQQQQQQQQQQ",
"o Xo$:=;,#@oO+===,*>--%#o+oXooooIWQQQQQQYQQQQQQQQQQQQQQWQQQQQPQQ&&.#o..++o...oo.XXXXXX-$X@+XX$-<QQQQQQQQQDHAQQDQQQQQQQQQQQQQQQQQ",
"XoO-@*:=*O#XOX@,<::=++@-;@+oooXXQQFQQQQQQQQKQQQQQQQQQQQQPQQQQQPQ++Xooo.@.@oo.oo+XXX@X@X@XX&%$;**QQQQQQQQQQYQQQQTQQQQQQQQQQQQQQQQ",
"o%%%&-&:$$*&X++-$+#O@o@O&%%=%@XXQQQIQQQQQQQQDQQQQQQQQQQQTQQQQQQEo.#oo.oX++%oo+o+o+ooo+oX+X#185;&QQQQLQQQQWQQQGQQQQQWQQQQQQQQQWQQ",
"$X#;<;-+X;=+#@$&#OXXo.O@%:*$%-%+QQQTQQQQQQQQQWQQQQQQQQQQQWQQQQQMo.X$oOOoo+&ooooo+ooo@@ooX%;;;;-+QQQEQQQQQQQQQTPQQQQQQQQQQQQQGKQE",
"+#;4-@o+-><&.@OO#=O%o+oo$$=$@++OQQQQQQQQQQQQQWQQQAQQQQQQQVQQQQQQoOO+oX@o+X+#@@oo+o+o+@oo@%%@X++#QQQQQKQQQQQQQGQQQQQQQQQQQQQRQTKb",
">163;&@@$&1*+%*@@#o.Xo+O#@%+@@-=QQQQQQQQQQQQQQQQQTQQQQQQQbQQQQQQ#+OoooooXo+oooo++@o++$+#$++@$++$QQQQQTQQQQQWQQQQQQQQQQQQQTQQQYQQ",
"=;1*#XX+$=**><>-@ooo@ooo#*:&$:&%QDQQQQQQQQQQQQQQQCcQQQQQQBmQQQQQ*-##o@OXoooooo+@+oo+*9:%@++@+++@QQQQQEQQQQQYQEQQQQQQQQQQWQGWWQQQ",
"&,4=&=$+$=#@O>==+o.o.oo#=XO%%&+=SWQQQQQQQQQQQQQQQAmQQQQQQQQQQQQQXO&$++oOo++o+oo+@+&<<,@+@@+X@+$;QWQQTQQQQQQQQTQQQQQQQQQQQQQQQQQQ",
"56*#++oXO.oO@#;*oO.O@+&*%#&$@O@,KQQQQQQQQQQQQQQQQGbDQQQQWQQQQQQQ#O#>1#OO+oooo+++$$<4$&+o@@+@@;&;QQQIQQQQQQQQQQQQQQQQQQQPEQQQQQQQ",
":&+XooX+XXOo.X&4=#O++..#$:=O@O$=QQQQQQQQQQQQQQQQQWcTQQQQQQQQQQQQOoXO;&&+#=*=-=#%&***+$#++@@@@@#&QQQEFQQQQQQQQQQQQQQQQQHWQQQQQQQQ",
"%@O@O@ooXo+XoO&*$@#O@..o@&+@&%%*QQQQQQQQQQQQQQQQQQNIQQQWQQQTDQQQXXXo=#$+OOo+@+###+*$@@O@&@o@+++@QQAIREQQQQQQQQQQQQQYEQQQQQWQQQQQ",
"OooXoXXo###Xooo+.Xoo.o#+@%@@&:%@QQQQTQQQQQQQQQAQQQGGQQQEQQQGPQQQ##oo+#OOO##$%*,#-&*>&@@@@@%%++#@EGTQQQQQQQQQQQQQQQQQQQQQQQQQQQQQ",
"oooo@Ooo.+#+OO#@+&=:,-:&$#@@=:&@QQQQQQQQQQQQQQQQQQQDWQQQQQTTWQQQ@O#o:#++,$Ooo++$=-*;*%#O@OO@+#+@QLQQQQQQQQQQQQQQQQQQQQPQQQQQQQQQ",
"#&$+O+@+OOO+O$-=%%%#@O@%%&>6,=*&QQQYQQQQWQQQQQQQQQQQEQQQEQQQWQQQo+#&=-$&3#+O++o+$++#-%@@+O@@+=&$EQQQQQIDQQQQQQQQQQQQQQWFQQQQQQQQ",
"o#%oOoo.@@Oo$o#+&$##%#$#@#>=@%%<QQQPQQQQQQQQQQQQQQQQFWQQQQQQQVQQoOOO@#$-,%#o++++#++@=&*#++O@O%@@QQQQQQQQQSVQQQQQQQWQQQQQQWQQQQQQ",
"@,>OOooo@,;#=&1;:&-=#$$###3#*<%$QYPQWQQQQQQQQQQQQQQQEFQQQQQQQAQQOOo#+$@*$+O#oOo+@@#$%=-#$#@+@+++QQQQQQQQMsMFQQQQQQQEQQQQQQEQQQQQ",
"=64&#%@OO,<#o##O@++&-&oo###$O=%@QBQQGQQQQQQQQQQQQQQQHaBQQQWWQQWE+o+O+@@&####&*&&%#&&#@=&@@++++++QQQQQQQQWVAQQQQQQQQQQQQQQQQQTQQQ",
";=1#$#&%;,3,%O@Ooo#o%##+&$#+oo%*WQQQQQQQQQQQQQQQQQQQTlcQQQQQWWWRO++O+O@++$%&;=%@@O#&%@&:&%O@++O&QQQQQQQQTQEQQQQQQQHQQQQQQWQQQGMQ",
"LTQZQEQQQQQWQQQQQQQQQRbPQQQQQQQQ%&;;=>*463;**=#%#o++%%++OoOOOOO+QGKQQQQQQQQQQQQTQIGDQQQmQQQGQQQQ&$$$++++#+%++++@$#@&$%@#@+@+@@#-",
"QQQQQQQQQQQQQQWQQVIEUKWQQQQQQQQK%>;&%--*,<4<,-#OOOo#*O#OOOOoXO#@QQQQQQQQQQQRQQDkfSEQQQQWQQQQQQQQ$@@$$=$+@@-#@$++$@+@+++#%##@OOXO",
"QQQQQQQQQQQQQQFQQQQQQQQQQQQQQQQQ-3<-*<;*-*%$%%+OOoo@+oOOO#OOOOO+AQQQQQQQQQPWWQPQQYQQQQTQQQQWQQQQ@#O+O+&&$&$&$@++@++X+++@+#$+@##+",
"QQQQQQQQQQQQQQQQQQQQQQQQQQQQQQQQ+-,*;<24@oo+O%#OOoOO+oooOO#@++OOQQWQQWQQKldQQQQQQQQQSWQQQQQQQQQQ++@%%&=,&=$-@+++@++@+++@O+;+O#X+",
"BQPEQQfQQQQQWQQQQQQQQQQQWQQQQQQQO+*>=#1%>-%%&*+%++O++OOO@OO@O@OOQQQQQWWWmmQQQQQQQQQQKWQQQQBQQQQQ#+&><--=%&$;&=&@@@+@X@X@OX%OOX@@",
"CWQQQQQQQQQQDWQQQQQQQWQYEQQQQQWQoo+O@++#+>&+#&&&+OOO+OOO+OOOOO&:QQQQQVQQTQQQQQQQYQQWQQQQQQQQQQQQOO+#+$&#@%$$#=&&X@##@*@X%%-@#O@@",
"QQQQQQQQQQQQTQQQQQQQQQQWQQTQQQQQOOOO+##%,4;*-=%OOOOoO++OOO@@#<<>QQQWQRQQHQQQQQQYQQQWQQQQQQQQQQQQX+Oo&&;--<;-=<=#$$#@$$#*;;OOOOOX",
"QQQQQQQQQQQQTQQQQQQQQQQQQQQDEQQQOOO+OO@16,;*%%++#+OOOO+##@;;-*26YQQQQYQWAQQQQQQQQQUQQQQQQQQQQQQQXOOX#&=$&&$$+@@O@@@@@@$@OOO+OOO+",
"GQQQQQQQQQQQBQQQEQQQQQQQQTQQBBQQ+O+++++3:$@+=&$+O+++++O@:6=$@@$&QQQQQQQQQQQWnDQQQQQQQWQQQQQQQQQQ+X+OoO+@$=$$;&=+XOXX++O+X@++@#O-",
"vQQQQQQQQQQQLQQQQQQQQQQQQWFKILCQ@++@%+&%$&#=&$#+OOOO+$$%%@@@O@$&IQQQQQQQQQQIRSWQQQQQIQQQQQQQQQQQXOXXo+$##@$+oO+$#@&@#@X@OOX#@O+#",
"mQQQQQQQQQQGSQQQQQQQQQQQQQAsEQLE+$@@++=$;>;%+&&@++O@=>;+@+@$@@@-DQQQQQQQQQQQQQQQQQQQQQQQQQQQQQQQOXOXO&$#3$OO+o+=%-;-XXOXOXOOOOX%",
"KQQQQQQQQQQYQQQQQQQQQQQQQQPWDQQQ$+++#$&#@$-&+&$++@*&%#=;:&*&&@&<QQQQQQQQQQQQQQQQQQQQQWQQQQQQQQQQX+XX==OO$$+O@++@%O@+##+XXOOXOOX@",
"GQQQQQQQQQQWQQQQQQQQQQQQQWQQQDLQ%=>==%$@@$=%@=$#&%=&%%*-%@@@@+$@QQQQQQQQQQQQQQQQQQQQQQQQQQQQQQQQOXX+$+OX++OO+O+O+OOO+OO#@OXO@%%;",
"QQQQQQQQQQQEQQQQQQQQQQQQQQQQQBlT@@$>=#@$+@#&=$&#*+++++@@@O+@@@@@QQQQQETQQQQQQQQWQQQQQQQQQQQQQQQQ+XX@XXX+#Xo++OOOXX#@O+XX++O#@###",
"QQWQQQQQQQQEQQQQQQQQQQQQQQQQQEQY@+@&;%$$@++#$&%%%$&$%&$*$&*$&@O@QQQQQlVQQQTETQQQQQQQQQQQQQQQQQQQXXX+XXXX+X+XO+OoO@XXXXXXXOXO%#@O",
"QVRQQQQQQQEQQQQQQWQQQQQQQQQQQGQU@$@;=$%*%@@+$:1$#$++@@@=$%-$=*-*QQQQQmHQQQQQVVHDQQQQQQQQQQQQQQQQXO+@O+@++XOX+Xo$;@@$@OOXXX@$#--1",
"QHBQQQQQQQQQQQQQUQWQQQQQQQQQQQQQ+@=;,#@@+@%%%*$*;;-@O@+@@@$@@;>$QQQQQtSWQQQQQWEQGQQQQQQQQQQQQQQQX@..XOX+X+&$+X++-@@#@+X+X@--+@;6",
"QQElQQQQQQQQQQQQQQQQQQQQQQQQQQQQO+@;=@@@#-;=%%#@++%-;$@@@@@+@&1;QQQQQb6BIQQQQQQQIQQQQWQQQQQQQQQQ+;X.o++$#X+@+$XXXXXX#XXXOXXXX#@$",
"QQIiKQQQQQIQQQQQQQQQTWQQQQQQQQQQ@@OO+@@#>70>#*$%@@O@$-;1;-%-%;<2QQQQQblMQQQQQQQQQQQQQQQQQQQQQQQQXOO+$+XX+XX+XOX@XOXXXO$;--X+XXX$",
"WQQbYQQQQQDQQQQQQQQQQIQQQQQQQQQQO@#@@@@%>&5q62>=-@@$@%$--*$@@@->QQQQQDvQQQQQQQQQDWQQQQQQQQQEQQQQ XX..XXXOXX+X+XXX@XO#&-%XOX+XX++",
"QQQKBQQQQQWQQQQWQQQWQEGQQQQEQQQQO@@@+@@&##:507>-@@@@%##@@@$%-%%>QQQQQWDQQQQQQQQQBQQQQQQWBQYQQQQTooooXX.XXXOOO+X+X#-;;XXO++XX++XX",
"QQQWcQQQQGKQQQQEQQQQQQQEPQQQQQQQ@@#@O@%#@###-26w6;;;$+@OX#++++@-QQQQQWRQQQQQQQQQKWQQQQQIGLISbmpRoo% XXXXXXXXXX+XO@%%XXOOX-XXXXX+",
"QTQQyQQQQBPQQQQWQQQQQQQQSFQQQQQQ@;<;;;@@+O@#&<992-$++$X++#++++@@QQQQQKKQQQQQQQQQQQQQQQEdSWQAnQQQX o .++#OXOXX+X+XXXOXXXXX$+$++X+",
"EQQWBWQQQCQUQQQHQQQQQQQQTNYQQQQQO@%;2;@#@@@@%&:=;;;#@+@++@+++++@QQQQQQCQQQQQQQQQEQQQQQQQQQQQQQQQ  ooXXXOXXXOX+++O+#XX@@#$;;-X+@+",
"QQQQTIQQQGQQQQQWQQQQQQQQQQTQQQQQOO&;;;$@@+@++-;;8333-+@#++@++++@QQQQQQDQQQQQQQQQAQQQQQQQQQQQQQQQ   . .o XXX++XXXXX%*$#@*$;3*X+X@",
"QQQQQWQQQQMWQQQQQWQLQIQAFQDHQQQQ+@&%@####++#@$$%;;-;;;-@++@+@@++QQQQQWAQQQQQQQQQIYQQQQQQQQQQQQQQoX  ..o.X+XXX+#O$#$-;-@X@-;2-@#X",
"QQQQQYQQQQQQQQQQQQQQQQQTQQWQQWQQO%;+##@+@@+@@O@--;$-$;;;#++&++++QQQQQQWQQQQQQQQQWQQQQQQQQQQQQQQQ o  ooooXXXX++$;<;-#&-<$#-%-#@X@",
"QQQQQQQQKQQQQQQQQQQQQQQQQQQQQQQQ@@O+@@++++@@+$+@$;;;$-$-@++$@+@+QQQQQQmQQQQQQQQQQQQQQWQQQQQQQQQQ o    oO$+XX$@$-;1;<;;$#X#X;$$##",
"TQQQRIcTHQQQQQQRQQQQQQQQQQQQQQQQ;;;#@##OOO++%#%#$-;-;##+#$%$++++QQQQQQQQQEQQQQQQIQQQQQQQQQQQQQQQo.. . o@#+-&@-4;;;*$;$+@X@#-$--+",
"QQQQQWAQEQQQQQQQQQQQQQQQQQQWQQQQ+;;&%%%@$O++oO+-;;;95;;$#@@+++++QQQQQQQQQQQQQWQQDWQQQQQQQGEQQQQQ  ooo@@@@%X$%$$##+X-$X+XX-X@3*+X",
"QQQQQQQQQQQQQQQEQQKQQWTQQQQQQQQWO+O@@$#&&@@O+O+@O+@;2;#++#O+++OOQQQQQQQQQQQQQWQQQQQQQQCQQQQQQQQQoooooo&oX+@$$#***$#@-@X@@*##-$XX",
"QEQQQQQUQQRAWQQRFYuIQVVUQIPWQQQQ#@++@%#$;#OOOO@++++-;2$-&+++@@oOYQQQQQQQQQQQQQQQQQQQQQQQQQQQQQQQ.o O@@o XXX@$*@*$X+X#X@+X*@X@;@X"
};
