/* XPM */
static char *Wood_10_128x1281739968658[] = {
/* columns rows colors chars-per-pixel */
"128 128 45 1 ",
"  c #30DE1F080CC3",
". c #354C22570E2B",
"X c #3834246B0F5F",
"o c #36CB23E51071",
"O c #3A1926511175",
"+ c #3E0429A8146E",
"@ c #41AC2C88166C",
"# c #44112EA3189C",
"$ c #468930BC1A35",
"% c #4B7B34C21D2B",
"& c #4F2037FC1F44",
"* c #4FDF37A71EF6",
"= c #504B386C1F47",
"- c #4E21372F2024",
"; c #4F46384A2076",
": c #4FE437A420B2",
"> c #54023BE2231D",
", c #587C3F3B25C4",
"< c #58BB3F8927C7",
"1 c #575840142685",
"2 c #5A1E40D926B0",
"3 c #5D2343872965",
"4 c #613146AE2BA4",
"5 c #645D49AD2DCB",
"6 c #68D64C742F22",
"7 c #66D24C073045",
"8 c #6A214E413145",
"9 c #6DCC51A233BB",
"0 c #727C550735F3",
"q c #75B1580E375D",
"w c #73DB570E3874",
"e c #7675592C39E4",
"r c #7AD95C753C05",
"t c #7F2260733EC4",
"y c #7CA75F424058",
"u c #7EC660D94135",
"i c #80345FB23DFB",
"p c #811A61583F24",
"a c #83CD64404272",
"s c #8887674F43D4",
"d c #8804683E43EF",
"f c #8A2C69424603",
"g c #865067D547FE",
"h c #873D68B0489D",
"j c #8BA06BC64A9C",
/* pixels */
"22>7734<$%X$*4*>*#$#%<6%o$4=$4=65$%-7w7t573%9terw3>>733>q69=29ptqp=1296>42%&#$&&>>>55:>13u873>;9r94<%:@#3w5%2373tweh&%5e3:>85743",
"2<>55344#%@@%4*%%##@%%8%.#6#$2,47--$ee6d731;9pwew2>>533;q66,=9pt0p3>393>32%>@%&%3>>702>:4r753>%9rw22%$#%5e7%33850ued%%3e5>>85542",
"2<-78233#$#@*4=*%@$@%$9$@$<#===47-%%506u53>;0tw905>>3342q6q2=6qqqt51263=4>&%#%&%3>>50%>>0u775:-8r9>2==$:7e9+13530t9j%15q5>133533",
"2>-46<<3%>%$$4>=%#$#%-8%@#,#*$247%;$5w9u33>>9r5ee5>>36339902>9qqqt32264=42&&++&%22;5q%-;ee597%-5rw33>,$<3e7+>3329q0e&$594>>3337<",
"<2>6655<%:*$#4>#%@$$*=9%@@4@@2,25$1&699a571=9e5e05&>573399q3>88tqt==264=33%>$#>%22289;;;re953$%7rq44*<%,2t9$135=990e%$504:<<53<3",
",4>5552:$%%$@4>$$@%$$*8%@+4@@2,55#1;597a651&9t5w07>13753q881169w0p>%34t222%>#+1%>2>89;;2re857$$3qq24><=21t7;=581eewr&&507-><55<3",
":5,66><>%*$%@><#$$$$%%8*@+4=#2256%115e9u33110e49053>3654990=185t9p>%44t222%>$+=%22>59;;2te595%%5q0,,,4=,3e61135>ew0t>>5r7><<455<",
">4,44<<4::$%@<>%$$%$*=8*@@==#2256$>&899u571&wq55t5==3553qq01=5tt6t2%363>22%1@+>%23189:22te977%%50642,4*,2961236>9w3u1=5q5<<4774<",
"<4<44222%%#$+3<$*@%%==4%@@2*%3499%;%951a44120e77031>4433q9q>=6098a1%248>22%2@@>%23259&32te975&%79844,6=2396,34518r4i::5e5<5>85<<",
"<4<44544**%$o43%=$%%==4=.@3%%4469$1%ww1a24>3wu79851=44336901=50t9p%%366=3@%2$@3$24>55+>2rw695>18q93,33=4>i4=35926y9i:%7w5-3<885<",
"<3,44544=*$$o42%%$%$%=4=X@=%%4249$1&905t23239u7787&&35318q91&59q9p=%386&3@%>$$2$34195@>2t9692:>5094333,4,q4:<5q2wy8a>%574;3<575<",
">4,54533*=$$o43%=#$=%=4*@@=%%4=67%1&985t35139a97971%3451qq02$6908t5$386>32%2$$>$>3265@22ae592$>7804343>45q4,<5q<rw0s>$593:3<5755",
">4,6,2<2$=$$+24%=#%%%*6@#@4%%2=69%;%e93u11&3wu3986&=53330q02%6099r>%36513=%>@$2#33285&1&tr573:%70q4<4,,4393<,6q<0wpy:#494:<<4555",
"<3<84>>>$>$$X24%=$*%%=6%@@2#*==69%1%e03e21;4we57051>53520t0>%4qr8r2&464>4>%1$$>@33255%1&eu955%;58i4,334,39<,:4q<wyie<:407:<>5574",
"<4<6>4*,%=%#X>6%*#%%@=4%@@4@$4449&1&ee3e22&19t77t5>=71720t92$2qqqr2%445>3=%2%%1%43155%1$et935$>58i3><434304,:5r%arpy>%897:<<4575",
":4>4>2>>%=##@>5#%**%%=2%@@4#$4=49+>%te9e21&1wu57t5&$53735q8>$2q00t4124412=$2%%>%53:55%1%ee079%>58r<>,6455e3,:5y%hrar:%797:<<7444",
">2>2><>>**$@@>7#%%%$%>3$$@2%*,,69+1$uewt3;-37t37t91&5562609=+50q9t3>4462>>>2%%%&33245%1$ew955&159e5>>343801>>19>s0sw:-585:425343",
">2:2=:<2*%%%#38%%#%#%>3#$+2$=2,69$--t9ww31;57e55q81+566209q=%30q0q3236623>>>:%%%42235$>$0w056&>58p5<>2448q>=>19>yrwe;%799>3>5373",
">3:52223>**%#35%%#*%$>4@@X2$%2,68+;%e90t3317ee35t61%53526qq>%30t6q>>166222>>&%;$23155%>&ww935&&38i53>>330w%>236&yw08-$805><<3373",
"3325>222>*%%$<5:%%=#&>3@@.2%=2>59%1%t99t13-5t038t81%55526q0>%49qq0=2&88122%>&$>%>3159%%;tt955&>>er4<,=329w&2236&ye08;-885>>:<353",
"2<<5>322*>,$#>5>%%=%==2$@.4%%,230%1$g97t13&3e037t5=$33536802%49qw0>214822:2:&%1%231w9;$;te936%>3qa442;339w13226>ie08-:787>>><743",
"22<4>>92*:%$+-5>=%%%1=>$%@,=%%,29$%+u89t11;3t075t5=%54646902=46q8r32138=3&;>2%=%5>199;>;te999$&38e432;330w13118>yr88::788:<<<75<",
"3335*:6<=*=@+-82=%%%=11%%+=%=%>39$&#tw9t11&7tw17q9>&69630q02>480q8>214913>%=1%=&1>159%>$r0955#&2ea7<11337t26226>yr88::994:<<<74<",
"<245==5>:%*O#>82>=%%=21%$X2$>%243%1&tq9931&8w02590&%6964900>,49tr6=%15813>&=1&&%32-57->$tw695$138a4<13536q114251iwe8>%705><<747<",
">444*%4>>%=+$&7<:&%%>22$%+2%===69;;%ut791119u913t5=%8904q88>>29t04=%25813>&&1==%>2;73>>%tw735$>38a3<3<539w>>336>a900>:808>2>655>",
"<443%*32;$%O+%52>&%$2<2##+3=,=,40;;;uq793119u817t5&%97e39962=3qtq6>=35022>;%>=>$>3>73%>;r9935$>30i434>5<77>13351se58>:988><>553<",
"<545&>2<>%>X+-23>%&%>:>$@X=%%6239;;&ap9t15;3t913t5%$510399q,=2q985&>38022;>>2%=%1>>w3%;>te935$130e435<4>79;1335=he84<;508><<45<<",
"3>34&<3>&&>X#%55:$=:&:2>@X==%6258&1&ptww1317w917t3%%43930q8323qq58>&28521&>22==$1:;35$-;eee35$>3ee<7<<<<95%15371ee92<-408<3444>>",
">324%>31>%>++$55>$&%&&53#.%>3=359+1;u98t13=8e017t5%%4184q66223aq492%24424%>2:>>%>2:52%-;eew75$;2wp<47<3497%;545>wew4>-787:<<54<>",
"2422%=3>;&>+$$99&#%%==52@.%=2=249#&&u89t11=8t843t8$%5>96069>23ee4f=%16414>3>&1=%>2:43&-;ee075$>10i78874375->535=re95>-887><447:<",
">543%>3$&%>+$-70%$%%2%42$.2===239#1=t9wt1316t73308%%6195t90>249et9==24925<2:&%&$22<47$;;ew073%119y05874<93%>8351sw95-+807><474:<",
"2433&>>%>:>+$:39%$>;=243@+222>35w=&1t09t11;8t83709%+6165t0q3239w994>=4q32>>>>$:$>>>57%;;9ee87%;3ww8<783<93&1635:rwq5:@ww8><37<<<",
">532&%>%>$>X#>39&&1@>232+@>=22256&%>fq9w>3>5t73708$$5193tqe3=4pwr0;>:904222>===$21;57%;-9e095=<2wr7<47<:w2:1535=t9e51@99913873>3",
"27<>&&3:;%:X+;57>:>$2=2>$O==>2266%>:e0e0>3>9r9>798$$3194te63=3drr5;>:9032>22%==@2110w%>%w9095%:<wr7<<7>481:>7342eew5;$999>3582<2",
"34>>%&2>>%>O$:54&=2$1=2>$X2=2>=25>1&e9ww15>9e7>8e61$5195tq8314awq5>>19552332%%=%>1;w5%->qw995%>>0i03>7<<95;17352ttw3>;9591>543<>",
"><3<%:22%;>+@>38%&=&2&1=$X>===228>1>w9e014>9w737p51$6176r89315d90p3>>8852>3,$%=%>2;w7%-%0w996$>>8i0<<4>497&>5351qee4>;595>>535<;",
">73>%*23%:>O+>27:>:$1&3>$X,,%=235>12r9e027>9r537d61$5364p8q2,4f0wr3=>99:2>,,#$2%12:59%--0r975#<>ww9<<4><59;>63420eq5;;997<<733<<",
">732%%3:::>++127>;>$>&>1@.=%%>438>12e99r37;9r338t31#7395r99326p8qr>>>89:4>2,#$,%>1;69%--qe997$9>ww7<4<<<57%;62320tq7;&9973573<<<",
"<5<3:>22%:%@@>231%&$>&>2@X>%%5329:1>r60e33>9w418051#8393q603,6t60q>=;50>4=22@$2%8>:49%>>wwe94$7>wy9<<<><95&&512,uwe3;;7973555<>>",
"<3<3%>5<%%%+#>>33%$$>&::+X>%%,=25:1>r9er53-7w714t31#8385q604=6q6rq=>%9053>=,X@4%72>49;;;9e9w5$5>wr9<<4><99;%4332att11-7973343<<>",
">322%>22>%%+$2244>$%1%1:@+=2%2*=3>>>t7ej53&59933r52=6475q49425e603;;;50>5>>>++3%53237%>:9e997%3>0r83:<<4w9:-725>a0q<>%695<443<<>",
"-3>2-;22>%%@+%242:&%>$2>++&2*::241;=e9ee33;7w937q52$6365008227e596&>%9q>3:>:@#2&78;97%:>9eww5%--8y74>4<47y:-727:ee0<<%5973455><<",
">71>-$><:&%@O*:43=:%>$2>$X&2=:*25>>1t9eu3319w03905=%537wpq6226t3r6&>&5w>5&>=@+3=87;05$>>9e8w7$;$ei73<4<<5w>-5>4:0e05::498<335<><",
">3;;-%>1==%@+><32=>=>@2>#+:>::*251>2dwwt33%9w059953%8299p06224t4q8>=&0e34$>4%+5&88;95$>>9w9w3$;$yi5545<<99:#536>8wq4:>888>334<:<",
";3;>$%>%$>%O#>253&%%>@3=#+=2=,,451>2aeee33;8w73994==6264r96236r3r5>>%9e44&:5$+1&21245+1;9e8w5$%%wy84<5<>99-$5<8>9er<::788<<7<<:>",
">7<>%%>>$<%@@:205&%%>%32$X2==,>232>3d9et33>3e71002116463996468p6r5>>;7e44=>9%O2&32335%1>9w995%&=0r7<:7<477>:<48>eee2>:484>>53>><",
">72<%&3>$@%+@:<892%$=%42@+2%=2=23123j09u1317y73w022=6593606468p499>>$6r3>$>9%+1%22333%3;0w085%5>wr55<4<479-:437>ee0<<%50<:<75<<3",
";22<%:32%+%@+%<902=%&=4=@X%%=4=44=11j99e3515e030q1=>5602094466p4w0>;#9r33%<8$$2$9>357$3&w9095%=>wr84<<<<4w:-545>e002<%8q<:<54<<3",
"-3<<%>2%%#%@+%>86#>$%*3>@.=*==263>22f90r34>9r959w12>5594q64266r6w9>=&9e23>2>%$2@5:459$;;we095%=>ww884<<<59>%3161w9e4>-80<:272<>2",
"-<2<#:2$$$%O@$,68#$:%%3>@@4%=4=25>32r99f3518t93we2;25593664200r6w9>2;5q231>:$$2$3>:46$&>0e975%>2ew97<<<<9w1%3191e9q4>%803:>53<<>",
"-<><$&2&#<*X@%<88$%:#%%2*@6=24=45>22e99j3524w92e032>5595692266p6w919%8e&22%:%$5$32&65$%>9ww94%31wr8<4<<33t&&219&e0e5<>6q3>>5<>2>",
";<><$%2&#>%O@$,55%$%#%*2$@==*6404231t69j3375r949021>65w4q622i6p608>9%5r;<2%;%%5=93>95%;>tw974%42wr8<74><3e11330;ee04%>8e4>>4><3>",
">21>>-1>#>$@@%<44$$%$$3>@X==$4=0323=f60t3318d910e3115775694609u3q821%9r&2>%%%$>$92185$>2rw955%>:wr7<72>>5r1152910ee51>4r3>>3<<3>",
">4>1%%3;#=%@@$>34%%%%%<>%@4$$4,0e&13e99r34&4de>9w3&&53538q4490u7082>$6e&23%=%$>$93366+3>ee955&>>0e7473>>5t;>33e%wee9>>8r5<$<><<;",
">5>1;%23@*<@@$>45#%%%#<=$@,%$4466112t99e14:8rr3w921%658249159qt6q8=1$8e:43=>$%=%45156+2>qt555;>18r557<2:5e:>33e1aew51%7e5<#3<><-",
">5>1-%>3$**@O$>25%%%$#3>$@,*$<,83122w97e35>9rr9e9111658160269qw698>2$70:4>=>%$>@44=55%>20e555%>1wy7<53>:5r;153e>ey09;&903><<<2<-",
"<3>2;;33%$%+O%><6%#%%$4=%X4*$,>83%31q9504418tt9t03>>73w38826990698>>#80:5-&>%$=%34>50%=20r846*>>w05<<4<<39>>333>090q<:803>><>3<-",
"<3<2;;31$2$@O$<25%#%#$4=$O,%*,>85%3;r95j48=4ra9p92==75w3t8266qr558;2%80>5>%:$$%%4225q%,2qq085%<>wr5<4<4<78>>337-005q>:8w23<>>><-",
">3:2$;3>$2$+O$2>5*%%$$4>$X,$$,=87;2>r97u25>2qt0r02&:7302q6365qt459:2%89>4>%:%$:=3<4<6+<=4r956$,:8y4<,3>47e>:2>9;ee5r:%805<2><;>-",
"<4=2;%43%1$@O%2>4%#*%%<>@@4%*=495%11r99t14;19t0q021>67t196469qt55e->%80:7<:-%@>%4>>48O<2yr073%,>0w4>,,337r5;2>7%er09<:885<4<>-;-",
"34:2%%33%>%@X%2>4%$%%%<>$@4%%=,97&1>p09e14%1wt9t9>1>75615546qqt53r%2%70>2&%%%@=@3><58@>3qy043:<,0e3>>,,35r551292ww79>:885>5<<33>",
">4:2%%33$%&@.%<>5$$%=**>@@4$==,95>11rq9r33%20e0r9=>:757;43360qp688&2%9e>52;$%%%$3>245$:<rr884%<,0i5,:3442e553392we88>-543>3<<33<",
":4<<&%>3$;&$.%1:5%%%>%=*@@4%*==03>31009r33&39r0p9:>>339%24369qp685=&%9w223%@&%:@<3<58%>3eee87%<<9i53><543075139>ww95>$54><7<<33<",
"233<=&23$;%# $<25%$%===>@@=$%=2q3:>1pq5r36&190tt9;%25191242969p9q5>&%90:55%$==%@>4<58:>5qw093%,:9y53:54319993351we95>$473473333<",
"<43>%*<2$%%@ $><6*$@====@@2$%2:95&&3u97e44%1ettq9==2519&1>1999u9q5==;0e254%#::%$<4>48-:5t0094%129r22<4342871>371eetr>%58%5723<3<",
"244>%%24%%%@ #,<6*@$%===O@2%$2>05+1>d97w35&1qdtt81=1569&41389eu9r52>;90>43%#:%$$27>88-:4ee995&=29t53343<5952;291rwtr>%40%4733<32",
"3422%#44%=$@@#,<6*$@$*2=@$2$%>>05+1&t97945&%9ttt7==1440&25>89tj8r5>=$9q33>%%>&&%97157->3qw654&1=8t5>524<5e31>373ertt>%4q:552<<22",
"<332%%<4$,@@X#>,4=$@@*4=$$2%$1295$1%t57t14&$0dtq71>1740&12158tu7r62&%60232%%<%%&>3248->2ew973%>10t5264423e5>>373wtdr>$49>952>32>",
"34<<%*<4%=$@ #=>6:%@@%=,@@2%$3205%;>t94t51&&9ttq4111640%13,69eu4q51$:9q324%%2=%=>2235%>4rww7;%1=0r44544=2t3>1763wutr&$5r385<<<22",
"<3=,>=42*=#@@#>>6=#@@%2=@$=%@2:03%1%t94t4&%1tptq0>5364q&222999j306:=>5q344,%4,%%>3234%>4qrw7>>2=qp464<>>2w7;>352weat%%5w<;3<<2<2",
",24:=:2,*%*@@#>26:+@@$2,@$2%$3%q0$%1t08t51&38ttq9&5145r=22266tu506%&:00242*$4>$=24236:240t933;310q4<4,,4;w5;&5339u5e;;3e>>7<<332",
">43<==2,*$$@$@2<5=O@$@2=##2%+>2q9+>&t88t43115tq99&5144i=22360tu605=%&99>44=%2>$%>4228%>3we993;318q,,4442>791%555we7e3%9e><><><33",
"444>>%<,=$*@@@>45:@@#$3=@$2%$=303%%%ut5t41=15qeq0+5354t>23266tt5r5:$%40254*$2,$#23239:>&89995:2200><,663=8i=%5578y803%8w32>><<33",
"322<>=>4*$$@@$>45:+@+%4=@%2*$=204+11uw8u41&=8qqt0+6355t>>2396qt3e8:%%40,54*#42%$131>0>>259973=>>80<43342=0q,-785er4q>%8i>7<2<<3>",
"333>=>>5=%$#$$245>$@$=4:@*5%$:304+1%t99u511$8ttt6$4155q1=3368qp3e8%:=40>52*$44%$>12>0>>26wq93:&1qe4<644=,ww>$85>ay40>>4w33<2<<3>",
"343:$234*%$@$$=65%$+$%4>@$4$%=3q3&%%t80j81>&eqtt6>3155q1=3160tt4q0$*$60,5<%#62%%21>>0%>38wq91>&1qq<>634,,80*-553yr5r--70<222<<<>",
"244>%=>4>%%##$-48%#@$$22$%6@:23q9%&%099u54&&7qtr4>3137w1&336ruy7q0%$=6q=44$@4==%3312e%2>9w983>52e0<><<2>,60::754ea8y$#9w<<5<><-:",
"242>>212$%%@#%:<9$$#%$2=+%4@=2:q8+1&q30t571$5qtq7&4353r3>43qeuuwq0:%=9q,44%@4=%%55>20%=30r082>5>88>4>,,,,70:%8>40e5a#%yy><3<<2->",
"3422>132$%-+@$:46%$$%@2$@%3&&>>e8%1&w40t57&%5qtr5$3371t4144eeuuwq0>3=80*42*@=4%%23=39%119e062:&&88>54,,,360:$6<4er3p-#8q><3<>2->",
"24>4=232:-$@#>:55%%@##2$@=2%:>2q711>t19t571&89tq4&1155e4&35wruu90q><460*44*#22@%13>59%110q953:&%78<52,==469::344qr2i:@8q><5<>3><",
"3333=44,==$*%=>55=%$$$2$+*2%>:2q511%t11t37;179t07+113497&1490tu9qr2%:60>42=$44@%=4%48=2209572>>&5044==**55e=13360a3a%;5q2<3<-2<<",
"33242,4,==$*=**06$%$%$2$X%2==:4q5%1%t80t83&177pq7%1144w7&13q9tu8qp>%>88>62=$44##=4249==397593%>>40,4=$%%45q=17360i7i%:4e2<32><>>",
"33<4,4<<*=$%<*<86#=%%$2,+=2=%=4q8+1$t999531%70tt5%&13594=13qwtu8er>%>66>44=%44%%=46%0&2%ew793;11602=%%$=45011313wr8r-%30=2>2>><>",
"3325<6>2$$=#<><84,=%=$,,@*2=$24q811&ww9t851139t03&&>17w4=11q0tu8er>$>582622=62%%,46$9===9u593>11664,@=%%450115150w0i:%40%243<>><",
"<3<546<>%$*@><<43%%%%%3:@%4%$450811%8q8t651260t93&>&17e5&12q9td508-%>69242=$64*$22>%q:>59r595:>26q2,@$%%459134350h0p->56>:32>>:<",
"333546<>*$*@2<,4,%%$>%5>+%4=*,4q3%1;908w352230t93$1&1995&220qpu696->:59244=$42%$2>320>>57e592:1400<>@@%$340>2433wj9p>:402<3<:<<<",
"333846:>$*$$<<>42%$$>$5:@$4==2497%1;89qq552>38tw5%114599&3>9qpp9e0%12692=4%@44$$3-2202>59r5011>4q84=$$$@33q3>3128h8r:$5r2<3<:<<<",
"3><624>>*=%#,:>62%%$=$>%@$4*=4467+118q8t331>28q93%1155t8&32qqpdt0e:%369342%@44=$3>>293>29w452222q64*$$$$25t423139a0r:;392>3<><><",
"4<,444>,*=@@2=*5=%=@=%>#@=3%:>485$>>997035>13we94%>234e9%4=9euu99r>$389343%%44%$58<203:2qr273>12r84%*@@@,2q2<23t0r0e>:58>>4>><><",
"44,244<<*=@@,%>6>>%$=$>#@=3&:<265%>25pew23>%5qe02%1233q4%>189ee5qq:$>66444%$44=*32>3q2:4qr293212e94*%#@$2<e2>52tqr9e>:50>35>><3<",
"442566><*=*@-%>4>$$+%+2$@=2%>3379%;16tet333%6qe93%>>54t5=3>97uu30e>%296253%#44%%32>3r4>4we3831>3r83%=$$$22q3,5,20j8e>>48225<:><3",
"<44665><*=*@:::4>%%+%#3+@=1%:32q5$%14rwu351&38q04%2154t4=4199ju39r>$489,52=#2>=#22>3r3:3wr375>13e9<$*$*$2<03>5>3rj5w>>37>34>::3<",
">4<4664>*:*O>><5=%=+=$<@@%==>3208&&;3rqt251:39904%2=54q2,4260ae36p>%288<44=#4,=%>313r1>3we377;23q64$====34r4:533ej9e>>8e>44<<<3<",
"<42446<*>*%@4>45>$%@=$2@@%==>2306$%14rrr12>>39994%1=35r2=4269he76p>%25e>44=#44*=>3>2r1:4we395;23q0=**===43q5;424ej8e>-47<44<:<<3",
"<446644>:*%@4>38=#$@=%3#$=>=123q8$&>4tte22>>39qq6$3>>4q424369gw09a=%35q242>$24$=<3<20:-50u373%1508,$%**$24t5%4:38y0e>;57>>3<<<<4",
"444<46<2>*%$4<<4>#$#=$3$@=2>>33q5+%;4p8q332=2qrw6%3>23i2=3469aet9p=%370:4>%#24$=<3:20>%5we591&>3q8,$#%$%:2e5&5<<5e0e>;77>>33:<>3",
"<><42669>=%@6,55:$%@$%4%@%,,=33q9$->7u9r432&2eeq6%2>34t>%63q0pte8p;%460:52=%44=%131393%3w0472%1509<%$%$%=2r655125t5r>3751>23<3>3",
"4>2<4<<4=>%@3444:@>@#$4$@%2=,44q9$->3a0s431>39rr8%3:51e1=46qqppw8a;<>65<52=$43,==13353-3we453%13882%*$%%2>r5=5235t5r;%35212223<<",
"<<>5<4:4>,$@,464*%*@$#,#@%,>=4409+%>3dpa422126tq8:3:52r1265qqpp00p::25q25,=%4=@%212393%59u233>1198>$,*%%>>r4:5235u9t%%563>3:<3<3",
"<4<846<>,:%$:655*%%@%@4@@%,==3397$->5apa222>29rr5&3253e&266qqppt6p%%,46>52=%24@%231391%30a253&2205<%,$*%12r4>2233t5r:%502><>35;5",
"32>444,>,:@@,543*$=#$@3#@%=>=3489$%;6aau132=20r08=5135u%464q9utw6r,=><0=44$$24@%>32491%69a353113052$,$$%13q511335t9r>%593<<<34<5",
">4=6,<,4,:@@,635>%=%#@4#@%>==,490%;>6dfa431%>wtr8>2133t=364q9u9t8q32260>44%%%4>$>>>401;3ew256&17r52%>%$%=204&3137u9r>&294<<<374<",
"<4>644=4:,##>663%#=$$@3#@*,=>,409=&,6daa2321>9tt9&5133t&29799ue00r2>44q24<=%=42%:%1301;20t193;17e52%>%$%12t3%1339g7t>%;93<5<<744",
">5>464:2$,#$453,##=###4#@%,>>,,q6:&>5daa2221>9er8&51338;35809tq00p>>45055<*==2>%>&150;710e597%17r43%2%$==1t713334d7r>$>7<75<<554",
"<4,543:3%>##034,#$=@#$4#@%2==>4q7;;>5fpa21>2=0qq7=31417>4q9t9t000p==258552$%=3>=3:3582:4et397$;5053$2$%%24f512238u9r>$<w<57<<375",
"<4<5633<$>@#8373*#*@$$4$@%2=,,409>;14fpa212>:9pq5=1%418&598t8q000p==360644$$=2=&2>255>:1te455%;5q42$2$=%>4f9>3357y8e>;45<57<>354",
">4,65><3==#$8482*@$##*4$@%==>,689;%13apa42>>39pq6&11340%608060t09p=226q544$+=2%%2>>35>>2we175%%3e5,#2%=%:4a815358y9e>:45<>5<<<54",
">>>46,34==##866=$@*$#*4$@*,*,,497%->4apd412:48pt9%11330>500069t00p22<9q:24%%%==%2>>59>>3ee256$%3q4>+2$%$%3a527357a8e>;35<>3<<454",
"<<>46<<>=4@#466*$$=%#*,# =,>>,489&;;2att321>49tt9%11358>5q00q9090p;>25q:33$=%:%$>2:49>:2wu273%%70><$2$%%>5r8>5555y8e>-37<<<<<5<4",
">4:<6,<4=2@@264,$$=#@*,# ==>>*595%%>1t9t322=39tt7$=155814q90q609qr;:>40:33%=%$-%>2>551>>wu453%%90<4%2%$%24r424358y6e#-3y-<4<<3<7",
">3<,6>,32,@@,43,*$=@@$,#X=,>,:409>%=2t0t31223qrt9$%1536=4q09i6rt9p-%330:34$>@$%$;3>591%1eu5w3>%7q44#2@%%23r525358y8e$-<7->4<<4<4",
"<4,<3:,>22@$=6,=%%=@@%2@ 26>#,>q5&%12t9t33==3wrr7$;1538&5qq406tq9p-%340523%%@$:#>2>402%3wu573;%9e44$,$$=24e5:5550y6q-:<83<4<-444",
"24,<4>38,>##<5<%$$=@@%=% ,2=*,*q7;;33t9w43;139rt6%=>646*40q409ar6p$>340>34$%#$*$:3>591>4qr277>;7r53%&$&%2303&7379u8e>>>03><3>473",
"<,>43338,=##<5>%%$*@#=2%@=2*=4*q9;-14u9w33=119pde%=>444=68048war0p$=38q>34$$##=$23>50255rr295>%7r52$>$%%95q1&7330r8p::203>>2<375",
"4>>45<68==@#<6>*%%%@@,2#@*,==2=09;;>3ppr21>11wtpe%=,444=660480i00p%>380>34$%#$%%22>39>4=9t475;;7r52$=&&%559113339r6a%%>03227<<55",
">4>44,66**@#>6=%%$#@@=4@@%,,*,,09--;3ape1>=230dt91=23432069<50i08a%:280%<4%$$$$%>2>50<4=0j455;>9r72@$&%$57t113320w90*%302238<455",
">4>44,46%$@$>7:>%$$#$=4%@*2%$=409%%>2dwe221250et8=122622696240i90p;:28q-43=%$%=$22:591;2td555;>7d5>#+&%%59e>13129089%>5e<447<455",
"<5<46<4<$%@@>5:>$$*$%,4$@%4*%=4q9$%>3d9r43=269tt8&224262696460q00p::36e243=>$%:$24>593;1tu397;>7a5>$$=&%25w>15120e80%:394<4<<544",
">4>44,4>$$@@:5:%%@*$*=4$ *4**=405$%14p9e332159tt9=1>6=4266644qh0rs>=38q2<2=>$=>$32>5q2;3rr377&;9s72;&>&%13r>13230r9a%:50<<<<<575",
"<>>44>4=$$@$>5%%*$$%@=2%@=4=*=4q5%>>4a9e332%65et0>2,4243666440h0rp=>399225*=$%9%&2&40>>2ru>95;&9r72%%%$$25w>2332ee80%:79<<<5<547",
"<<>54:3<#%@#<4*%*$$*$=4$@%6=*=4q5+1-5t5r331%56qt91215142496229iqra>>3673:5%:%=9%%3;49:>>rt178:;5r83$$$%$<68><331ww89%<70<<:53557",
"4>:45*<4$*##<6%%*$$*>%4$@%6=*==05O1%5t9e551%36tt6>3=5262866=20iqqa>>3683:4%&%%>$22>49>>2qe198>%5r33$:@=$465>>3520r80>:5w4>:5:547",
"3<>54:<3%%$@>6%*$$$=>#4X %62*,=i5+1%5d6e551%77tt032=63=>998=,6iq9r>>2963>5$=$%>&22>39&>2ee495;%5r33%=$>$4e0<:352wyww>%4r3:<5>547",
"<4>44<3,=%%X25%>*@%=,$4X@@4=$=285+;%5d6057;&9ewt82225363890=36pq6i:%2962>>$:$@=&>2>46&:1ew483;:5r53:$$=$38e3>453rr8w>%4r3<>7<7<4",
"<4>44<44=>%+,4$=*@@===6$X*4,*>,65@;>6t9e35&=8t9t92=13352600437a9qr>=284223$>@#:=>1>50;;>ee872%=4q46%@#%@20w>>334ww0w:>4e4<:5<<><",
",5>6624<*>@@>5==*@$=%>4#X*4=$>,99%1>5tee13%19t0eq1>>1531qqq4399w0q>%294224$2#$=::2>59;-3ee974*&4r66=$%%#<ew%<445ry0r:>70<<:7<y-y",
">5>66442#>@#%5%==#@*==4$X*2,%,*09#115tet131&8t0tq1&=2522qq0,2q0eqi>*295122%2$%%&>2=53>->ee775=$6r642@=@%>w9->4<8ry8q:<7y<<:5<<<<",
",3>4624<#>+@*4===##$%=6%X$,=*<,65+$&4q3t651%3t0t02==5521q6q,<09r9s%=366>42%>$$%&2>>44>;>wt955==5q64=#%@%>05--547wwwr::7y><%y<y<5"
};
