/* XPM */
static char *Wood_22_128x1281739968658[] = {
/* columns rows colors chars-per-pixel */
"128 128 62 1 ",
"  c #0B6B0B0906CD",
". c #0E180DEC0919",
"X c #10180F2609FC",
"o c #0F670FBD0A8D",
"O c #13BD13540D4F",
"+ c #182815FF0F13",
"@ c #169316961043",
"# c #189316EE1087",
"$ c #17301809113A",
"% c #1C281B3E1403",
"& c #1ED11E97182E",
"* c #20DD1E43164B",
"= c #20EA1F181840",
"- c #1EFC1FD0174F",
"; c #1F2A2043185E",
": c #2233201E1734",
"> c #2470231E1AEB",
", c #291E26321D0C",
"< c #2727280A1EAD",
"1 c #2B1D28AC1EC3",
"2 c #30A32AA61F1D",
"3 c #270326E52000",
"4 c #28B0273D200C",
"5 c #275128B41FED",
"6 c #2CAD2B75221F",
"7 c #2EAE2EE027DE",
"8 c #31362E2B23C0",
"9 c #30DD2F2827B6",
"0 c #2F0630432600",
"q c #2F66301E285D",
"w c #332C31242635",
"e c #3924333D2659",
"r c #34E5341C29A9",
"t c #394F362E2A60",
"y c #373738622D38",
"u c #3B3B39A92DAB",
"i c #3D2A3CF13169",
"p c #41893C462E1C",
"a c #41223EB731D5",
"s c #3F1440863453",
"d c #47753FD32F85",
"f c #431141FF34D7",
"g c #4987450835B8",
"h c #453645AE3901",
"j c #492746F738DA",
"k c #474048573AF5",
"l c #4B4F4A593BF6",
"z c #511D4E413E26",
"x c #5362506F3F6E",
"c c #58A751EC3F1B",
"v c #4DB94E85408C",
"b c #4FF14F694177",
"n c #4ECA50784230",
"m c #538052F1435A",
"M c #58BA569C4568",
"N c #5A3D592B4799",
"B c #55A2576C492A",
"V c #5746592849F6",
"C c #5BC75C324B6F",
"Z c #5E78610150C9",
"A c #601862C55259",
"S c #67AA687F555C",
/* pixels */
"tt:>>j*O&ei>=58et,#*:>6hu6&:&%ewewyww+O1%0iw>3>O::&$+O:y>%O@67%4%5g6i893=l>==4,14eeae*0>u>>,>=4=69#%N6iy>f%u>#*956O+e6&:634>>#r1",
"u6&>&w;:@88t>%a>8*O*w66uit+6>O80jluyu+$%01s>>8qO%1%:#O6>4rXO6r@54>i89i84=a48=6%r=99at6r,6r=546>,4r@*u,49=f*t>%3ewwOO5w:>966#%@14",
"t8%%&6%:*5&i6%ir8w:%6e6>t>Xw1Ofuyfljj%+:5:6>86*O&#&*@$u6#5XO9t%66>tiy9r4=46=&6%t>8t,j*>>,43y6==3=9#=j>e88p6f6=>f15#O,60;>94>%*,6",
">6+*6w%y&%@64%8au5Oo1>rif1O86Oyf2wufu+$$y:8>>5,O$&O:OO::#1@#=t,>1>jj3u7t96,*66>969t9z:*8=,=#*4===43#M>a>8h>i9#&r81&O=55>>i6>O*,u",
"ya&53*6>::%r,+u8ru:&,:ywfw%6eOr6<uytw%oo,,4,4=1O@&&5OO1O#4O%>86%1&8l*t6y86>,554y*6y,l>>w%i4,e4=%=y#>e,3r4t>9,O>1t,:O&1tw,3,*%,5e",
"16#>7>686#%>6*lr8=>&&6uwi1$%>->yefwew%  63666,>O#:O>.O>&6,#*,8r%t-8t*ttr>6=>w76,%2a%eu>6%i=>69,==8&=t864ya%9> >rw5:OO>>>=w4>%,6a",
",2>>4w>tu%#>,1fup5%%1>08rw#>:&:5>1wt1%o$:>3=8,6@O&#&OX,5>4O%88t>6-6z,u85=r>=,&86*8911p6>%44,1=3378=>ut=888=y=O>rf5*&$>>1>9>=;1,8",
"et0%t>>>tw*&5%6ua:56-ttr3:&>,1&56ydte:OO>6>>4,:@#%O*@O6=8,>=9=t%1*1luww86>*=6,462*8*yf*X6,1=64=*46=3pip48a%t6O,it,=OO>-6>9=>%:4u",
"ae*#>:w&#86:6O5i1><1#*eay:;>3>@>,1euw6O>%%&#<>>$%#%>oO64>8*O8%t>9**b8,664%e=*4=4==r86m6#t4t9636%64*,a4tau666rO>1ww%$O#>>634tO>>r",
"8f,#y:6%:w;>uOity611&wwu1>%r5tO,18yj0>O6+665,><$$##%OO5&66&##>44e=#bp=86e,9==6=84=94=M1>>499==3#=4>=j6=t9u4e8%wipu1&O#%>=&>6O88f",
"uu1:518+$w8>,&8u1:6w+:ytt#>>56.%<81e0:O:%i>>-:>OO#$#$&>>6>%*>69*=94tp94t,i9=,==266te4lu*,=a3#44,r=#>bu46ta=a8O>6u86$o$#-3446O>l8",
"ue:%1>1%%tt5rOie8w66$:ejw&%6y>&O1tpi:>%:@w>>11:-O%-###66*>>O6,u:>6=tla4aryt8*,%873a98ep%>469%6%3>>*>j3,r=9666O5e111-$$$<6945o8h1",
"r0>:6w1%<>866O1t,>8,&&eu8O8rtr>O,pe1<<6w&t:7:w<%OO%$O-58*5>:>*r9>1*1Sp6e>aya%4*,1,rr*et>>6i4%==964&5u1=8ea=99+,u8e6#$O$#w&61.1fu",
"f1<&O6:%&$1*8O1p6&1,#6ty9O6ru85X>uuf:>>wO:>>%>6;$O#%O-w16%1*>=**>>=*lat9343f==4>,=a996f:&=8>%9,=6=:wu8=8ve=91+*,eu0&O$O$>&q:O6t6",
"yu1#>t5#*O6,6:>u61,e@5t6,#,6r8> %uyu><:0:&6>o->$$&O-O>>>1:8%6,>9*6=,9jt4u688r6*,,*tr8,m>%6y84,=>i,&>pt=rtt4p8+>,fy0>-O&O>>,#O>8e",
"eaw%>u;&>%656@<6>066<:86iO6r#i=#&euk:>:w:@5> -<>O$O&+O>#6%6=4=6=116>>piui4,44%86=%i8u>j6&6,84>4,r9=4f6=i9b8,u%68sr1%&OOO&60&$>tu",
"rsu@6:-6<%>>0;:&1w48*:,twOi>&y>$-y1w-<1w:.:*$%&#@@@&O&,==3,,y4=r66y8:ej8ryr6u#36==aau9j3#6>,>46485*#br8e2p%f6%%tuw#1%O$%O><.O1fs",
"ety&y615<>101<>it>5t%,8f1$>6#65O-fr,:<%,%.1%oO1$O@$@O==%,%6=1,986>f,%:li66r693%==34ti4p=;:1t:%=>9*>>a4t61f%py$%jy12,-oO%$,%o%>sf",
"1t8>>y>1<>>1i<Ory85,:%6>>:1<645%-dts:<y<:O:>.:0-O%OoO>>6>>184688:5685:ug#9w964*=49=9a8M4>:3w>4%88,&:p>e96p:y>&<:ysww%O%%O1%$->8f",
"w8e&5=>&6>>-y6$t,=>>::,11-w>i>6:-sw2,:y:<OO$-%0O##@&O#56#3=>4=9e6%1%e:tlw>ie9t*%==e6u9Ce>6&i4=%y96*=f48>2g&w>O10dj1-:--+%%%O>>8w",
"ty1%5&1>61<566$:69y66>11w@t##,w>:<8ws%w1w.$O<O6@O&##O#6w%>4>>4uaO&6&6i&8tt9r389==>6it3e,,r>>49=91w>>j%ti%j1r1O>,6fw1%-:<$@@->0y6",
"h6w%11wO<->>,>O%t8r86:,:63>u%*4@:ssfe%1,1.o+%$w.$O%$O&if=3,4=,9a:16>>,>ueuy8t=e9>=ai98M8>4:r93=*8*:>j#y56e10,$1t6u86:><1-@$>-1yw",
"jye$6>,>><>-rt$$=>>9610>6;68%%84+f8sr$1w,O-$1O;O#$O%O@68%6>9*=4e<>1&:06:pp96a7i84=99eal8#>#e94%6y63#j6,:<n:61$<1wwy5-00-%O$:>1ee",
"iseOwy1>:>>&u6$%e:66y>,15&6>**4,:w1g8X1,e@%<e@-@#O$#%>6,7>%4,48t>:5>*,8>bMp=963tr4a6eaat#,@a,4%46e*#jewy<f>e0:$0>1e11>>1%O%-1:ft",
"leuO8w::&<wwitO$0001,-O16$6>:<5&-,wkwX:s1$1<uOO%&OO$$%<>9e=4,*r9><1:#%:1wZz,6r4a>*t64=Zt>6=a6==4,&8*twi4wd1u0;$eyuy:<11w-O-<0w0y",
"l0*.,8:>#11>ty@@1w008->r1&6%;:=*->fy2O+wu%-<,>O%:&OO##::=,%%%46u##><*%%8ewir5r=898a4t=p6#64i==%=66,%pe>e6u#15&%rff21<w1y:+:1:12:",
"pe8O#,1%%1t5>6#o,y<1s:%u6>w6:%68$wj81X-1w:%161.#:>$OO$O&6==%=4>t*&>;%-:>>>fee6w>aetut=m6=9%a,#%=t>*Ojf6>1j>16&+&eyy><:>r1$%w>1f:",
"fwi$>66O>><>i0#O1wr:e+:2&#y<5>a8%1ey1O+t0-<<61$#6:$OO#++>==#6=68:&@;&&#>,*:p96t4=44t6=a==y=94%=3,,>%ia566x+e8%%>1uw:0<0wwO1,6wf,",
"jse#,u3#:>6>ewOO1,-02%$1O&><w,58+:jfw$O2,$,ww:O#e1&OOOO$19>>=>14>>O$%>O>16:Vf:t6>49t99a4=9>6=#8=6>=%yp,wam&866#&6t6w65ww1-<:>,w%",
"uww#>8>5:%<&tw$O0ww1w%$y#&5qu>=w$<2s>$%wy-0wu1O:>1%#&%O$8=,=#4er>6-6:--%ww&slq8t>944uu64>r>9=%=#>O:$wz9wfa%>0>&#1tr6-1<>,--w:,d1",
"e,1#>5w,%&>>61+%<y>6w&O6O:6:>6#6.e8yy$+1u$%wf0O<>6O#-##O,8>4==t4;<&6>>1%:%>,j8if9p=i9e4=68w,>*,%1#6&=zy>i6:r>6O&*te><>1>1:,w<0rs",
"a5,&:,8&&#,,>>-+%01w>#&6@::twt:rO2we:+Otw%wwu6O1&:#:%--O6e>=49r6&:66:06#->6&uj>t44>9>mt=6,66,>4%,=>:4156lw;y0>#:ur1t>><0e-*<<1<0",
"f6u%#74=>Oe>>i>@-811,*%<o%,wt,:t$0e,,$$u1:,et,$115,+::&O1wO14r46&>3ewi88%&>6>t6,fr8&8l5;8*6%,45:916%8iatu8%655O%>8i6:>0<>>81:,<:",
"l,1&w>69#&>,:i>:$r8,:--1X+:<1,:6#>tw+O$w>,,u1j-10w:>:-:O0y&&,84>#68w68>8%&*1>mu,6%y*gu066%3=>58wt>,>66Mfe*5ur>#&%>tt616y,>y81:0r",
"pw8*>4:,#&6665:>-y:,r-%<$-20fw%1.<ut,%O01r,wuw:1uw1->::$1i%>98r6#>5rw*>6*%+=etu,865uje@4%%iy>665r,,,=,cgw5>64>#%&6t81ww6:1s<<<sw",
"z81:=363>,>,6q;:$w,:,++:o-16yw>>%<tf:%Owur,f8y6wme68--&O%1%%6iur@68>=w:61u%*%>l1495tuw%i%44,&yr696>>>>e26&w>*1O*:t4i:w1>2,r0::r8",
"la1+w6r:4w66*5=w+y11,-%-@>1,y1:1$1wj<:O>w::120610y:,-:%O#e3@4988%5>8tr:5,i>&6>jf*w,bf5,:>8t=*,r491>>8,6,6#>1:uO&*10,:16ww,,,,,ws",
"tuu+:&8%64%y6y&&-1w,1<%<-$6181#:->we1-Ow81:r80<r1r8:<0>o&w,&6e86*68,4:>:,61->88Mr1rN1,>=4e9%,66=t6&>r>>=:>q>*,+##8>t5066>0:%<%rg",
"lp1%<:5656*ew8&#-0110<@>.:w:0:%0$-,1<$%trw<e1y0rwj:<0w;$#w:%5w94&6i=11&5>:1+#,8aj8ge6=1,i9t@5>5$66=5=>6>6>,>OeO&:16u*6,688<00:yy",
"f2fO:66>&%+83%%-1w1y<<@>O:s%w0-1$$,>:.-6wy1ees1,wty,:1:$;61$>14%>8w681>>:>06&16wmjj84*=94=36,=>34>#tey,%5%6r;>O$O1166:,66,8:61y1",
"fw6#9=ir#%6i>%=O01>r,1%5%6,>%i@6:$>e0.:wg1d0u6>0t:,,:61OO8=4%4t*&>6*>1&&=#:5%&>,gb8>*>>f4=*6>>63>,=611>1:1ry56%%$r0:s00:1<<1:1ss",
"ay6$>#ru>%6t>3%Ot3w58:$<@84#8,%7%#w>wo&6wu0wkw:0t8f6>8w$@6==3yt*&85,ut*%=,:w,%>&4t*8#1,8>&>>=>w,64#t>6e1>6;r>6$#$6,0102>:r-1<wre",
"f,f%6%9ty664>>XXw>6t6<&eO58=5:%i:$,,w.*www20zu6ww6w1>>>#@,>%66>=@16u5t%=>>&5w&56=6,6$8,%566w%O548t#6,636&>>w6%OOO:12-::e,<1,,:rw",
"b9y#8,8>ti,%=9X#6>==6w>w%>y,%,@w%-:w1o,fu1reh1>11tew:w0+O>7=385=&,>56>>>*&&#6>%18,1>=*i>:661&Ow&685,>5;:Ow>>>6O%+<s1,:-1<:w<8,rs",
"l11%5>4r9663=tO01911&66>>#67:t#y%$><0O&u1t6yk1,>tw1e:ue+@,9>5r1,:>>86>%5%=3&56#&>4%>6@w%5:=6O$:>>e=6&>:>%5>=4=O#--0:166:1,0<11rt",
"t8p%&%68896w>>@,>6218tw6>:81***w$O1>e$wiew1lk6>>e:ue:y8=.>*5>84=>1&6e6>>&:>&&w:15=#%6>746OO5Oo0q36y>t>%:$64,6 #&$%>:>w<>1w1*16wt",
"eeu*54w==,>:w>O>61:5:1,1*#4t>&&w1O16t182r6wiut18u66y>>6%X,*=6t==w5*tu6>;%*:%#w8#=&O,566>&Oo&@@>:>9r4,>>:;%t3, =>O-,:1210s:0-w:ws",
"889O%>>358>>6##18>65w>>6#+>8&%681Ow66:u8t,yigiweti8t,8,%X=%#66=%w6#666%&=45&:&w>%@6r%r66$@@@$@>>4=8=>>#%#%u%r.=:X%t:<<6$11w:t181",
"ute>O:>r4466=:#6l51,6,86%*8e5*>6>-,110,swteuw8we>j0s%ww%O9%>y3=>10##t>6=&6>:#%>6#*t,%6>%O&*#$O>>&>e><<;%6:6#1O>%$O01211-1-6:r>s2",
"a8t,#6>4%>>8>O&rj66,4a81*>8>y=u81.1ws:ufswsufwyuy6we1t1*@,=6r=>6u>&%rw>>*6,3&#*r11>@>8>*O*1&$:<,>6t6>1>Oi5e&<-::Oort<1:%%-661s0<",
"a695@4*365>1%@>wi11>aiu8>%>%6#0y-Ow>jyhydwepwdtw0keyw11:O>%686>,w<1&,r1%::t%,5%=99*>t66&$66:$->-:>s>>0&&r:w1-$:-OO:1<%,%%,<s10er",
"eye8X===*611O@>luu,1uj666%416&8,<$0yuyewwd22upe66uwtwu1<X9*695@1u;1#*r1+%ww&64%>=3%6467&+<e6%>%e%6t6::>6w51,$::%$O-ww:$X:2:r><gs",
"t*a6O>>r>*1>OOwwii461u88,#,2>>>9<Oywpeywuw,ue1ey160ttte#Ot>>t#>8<-6:#<1O%31O8e&&>@84r66O:1r0-w@y&&sr::>6&,4,O&<w$o1r1<: %:>ww0s1",
"e5a>@>=*6>,%$<e,wfit8rb8>%4e58,y<$ewewy0y8yluwkk1yye1t66@5=6w&,1,O6:>5>##:e*585#=%,9*=%&w>t0eyOw%3ir6+>&;f=5$601:o<201-$%%%<21ds",
"8te,#8e>6>-O-1*u5aw4,8a8>%yt>tr6>O0ys02:ee2uj6eytwew>t01X6>=6=6=1&t>-65%&>8>6e>#%>r78=&#0>w0r1O<8=73,#&:>9&5.666:.:0<--$o-%<1<2s",
"wfu8&,140:&$%r*w86>e1taa>=r,>8t6<O0uw1wwy:euutywew8eytw-@>3,8%=8*%f%>-1%>&,>4>6=%=y3r6r.11ur:0-O67rw,&#,,e*9Ow>u:o6s2-o$$%-201s2",
"ie66O#11**.O:182r6a8ftue><>1,>=9>$wu,1tyuueye1wu5u>e,y12$::-e%11:&s5:-16==:>8r*>%wr44== 88ykw:<or664,:$=>:&6O85,0.:11%o$%@-%0wt0",
"1tfyO::>:OO#s1u1iuluytuet#q>6%88>$0sy>1uf01fs<we>f11ep:1$10>tO1t#<6e:>u,>>#6w8t==i6==>6X1ujuf01.8=767%=>u6>5#yw>0O:18$o%%@$:-wes",
"we1>&%&<OO.>*&ii6tthuwetu:>,,#37>11eusyty6uxwwe1we8t6y11o6>:9*:r>->6y&616&%6>t>%=r=%4,,O6eirf>6.64>>8#%=t5>6#yw6:.-w,+$>:O@-1,ys",
",u,:%%0>OO$<wuye88uu1wufw#6*8=93><0yrusu0qetfue8tat,uf6>O6::6&rw%<<rr##26@&7,r6&983w=*,@1ttet68O,>46r%@>>>0&%ur5w$:w-O---$O%2:se",
"86>6#$#:.#&1<usyt8iy5tjuw>&39%i6O>2s6u1:y%1t2821wtf6hft>O&9>6>6#::www&O:t#:6%6u*=r>%1%6+>t6ue98X*6>56&#>:1>%:y8wr-*w-o%+:+X%-102",
"u6w,&O$OO&-1,ew6jwtwr8itt<3>i@a7@11uey1j6:ey6eyp6ivl8et,.u>5w=i&%%,05:%%w&&,>,u&=t64&&-$>10>1u1+%w>:r*::666%:1wsr-:eO.<%1OO%-,yw",
"i6*:#OOOO>#:fuuluftw6t,tt:>>t%u7$-0yy1,pu6ywwfjyrptw6j6>o>6>k>r%->6y6t&O66&&>>f&wh>@&:>$6te1t8*&*3#>,&::w*y$08sdy>w6;O><:$+$,:81",
"6,8,OO$O#%>,trena8uwituu6w>:6884$061w,f11:11y1j15aeiypiuO<51a:t@>:>256:%w6&&::,$:sr&&&&.%ww6>j6@%=%1,&;#<0rO:0dw1:0:@$<::$$$+wut",
"e:1<$o@O&eee8iCeuuit1yfiu>===9r%O,eywys1e><ey,fy8aijwwue.>5wf&e-O><ee6*>18#&>O>%=a&>@4>.%4r>uu1O#>66y%,&>:5Or6psu1:<O,>5w%#O&6wt",
"k%<<O @$O5>98,lfysu1:8u68#6>9663+1wt10w651>6yfe08ufr>1w>$:3>y>6:>>,jz>>=&6&:%%>>>e#%=3%@%8f61syOO>>6=><@q:6Orqesf#:>O>%>6#&#&wiu",
"6<:>O$##*,>1,6a,u>1wa66w8+,=6u4=%wu6yer<<6f:wyuewfuu86u1@&:>e:8+&%>eA>w>#6%&3>,:*t,44%r@+u81w16O&14,6::;>>eO06ssk>6>X5>>w:>O$111",
"01>1OO&:66,99f94t56<wetez+3==,a4<de60ur10%1tfeut2t,jrwj6O;>:i$8+>:,fuw8%&>f%%>>>%8>66>6&%6tewwrO%>6,&%:%65%oesuuw0e+ iy8,>6#O8>e",
"y+11OO#>>>>l8iaahu8ttw6ia@=,4486$wf1181:,%,,k<2>8uhj66w,@O6,to5&%y#ft848:&86%&&&rr%>5=5.:ryeewuO*>r,6%O%16w$eup1i6<&Ow55><1+$>6,",
"2-<,OO##>16>ya4ti6hyy8f,m*O6698,$,1ywuw1:$:wf1uu6alu5t66OOy5t$,+-,&nue%6>:8,>3%>>==>&6,O1uti066O>66>t&%%t:&.1twsw11-&w6:10:OO-,1",
"1:<1#$O<6ttweu98e,u1w6i>a> =49*r+fye1sw:<O1yewuwutt1ttay%%56tO1%>w:zet:>6:366&%61>,4*>>.*ueu1uwO:6616%>>86%$wkeskw>O%>rO*5%+O#1:",
"0$<,O.$5r66yep9ewy8wst8ep1 =,8iy$00wudw$+ O0,uwet8ufttt6#O,6y%1&,1-mte>%y>:566;6r65=>=:@#yt,118O%6i:2+-,0w+O6u1yey&O:<&$:1,&O*1:",
"1$$w$$+%68tyi9=r*u21s1<rjt$6&w4>$tjee6:%&o$w6eywwuugeusw$O<6t%1+5t*f6tu*0>&:61&>1,t,,#8O:w1>www >6i>i:&61#>O1fjsei%X%=*=#>16O&u1",
"yO-1OO-w5ywtu86aefsed1ewp6O:=:*%$yyw>j,:#OO0>ky<iufltwt5>O66f#1&161me8m>51:#>e16,>r64%>O<wye1uuO&>8>,:#6u1&$yu1eww=@r,,6%>6>@#1>",
"yO%<Oo$<5fyipvrirksw11ww>8%O&845:u1u1ww:O-$>yereye2pu0wt>Oqwt>w#61=vtjN6>w;&;wu6*:5>61&X1w06ep1*>*61w5@we>+<ky:sw>@O9=%=%9t&$O:s",
"e%++OO%,>etlfaujweu00060ei>O65>%:1ff1u1O.:$O1gy,wple:>u>rO6wi#w@>5luw,fa61>#&:6:&4r>4,#O<1>rwjy>=45r,6:ye,>1fs>eir@O>=43675=%$<<",
"y$%-$OO%6j11wsufw,t80w1uet0$,>>%>ukefkeoO1&O6irtipjeyuur:Ou#tO0:6#ge:tilw>w>%&6&>1>:,:O+wy6t686:#>7y&>$5u1%-6y1yt6%@=666>:w:#%16",
",+-X$O-8>0ejweuu:e8wyywffy1$6:,612wuf11@:6:o%t0twthuertr&O66tO,&1%up5iiel,<1;:$#::1:,,$+1tue6s,+#>i33:&w0;$<e2ws6roO>4>#6;11%O01",
"8$:++.+w:iwt1uukswwru81waltO3>&O1wwuw:0O66: :fueyyuj2why>O6>u&>$=5Ctr>6eVw1>w%-&:<r>1<+Xwyuu>6h&%8tty&&6rr&rft>e86O#63#55&>,%$%:",
"w$%$%$+0:uweyfy,yd,wwwryw5t@6:1%1eyews<.u><#%he81,uw1yuf5%56w@>&>6Mryw:8im6&w>&>;<6>e>OX:kyet6t:&58>8*:w66$>8ewft>O#>t>>>5<,%O-$",
"y,%X%O@e>>eywf8u8y>tp:86ue1o>ww%yuwu1t0O6%6&Oujut8vrejtiwO66f#0%*8fe&::y9pa,1>*>188>8>@@ely,,u5-O69>>%&t:5&#8wt8<>O&6===,4,8#O##",
"r<%Ow$o>:t,ywfw2uwt1ey:wjf>#&u:$ypuuye1O:156Oyuf6ieiif6t6Ow&w&1;6ug8*66%e9gt11>,,>>48=O@88w1>pu;.4i66&>66@%>iit61;O:*>4=6e34=@=*",
"1-+X>$%<6suftpwwr>tk5u8wweu$::+-8epewt&#w%:6O1ftwieyairy;@6>t&6#>6a6>4i==aaba>896:>6>3@&8t1w:eu:O4y6w&:5r>;-riuey:O>>=6,3442>O**",
"e+--1$@<wjwpwty&,0uuuue6ete:#>%:6eeuw6*1&>>6O0ttt9eetf8t&@5&t>6&sht8,6>93uajg%*=2>e5>:O::fwy:ye>Oryw6&3>>3:1uta11OO>>&5>=4=6,$+*",
"8$-:<<o-wueuet8l6tw6,urreyf<$O.66uu918%,%6=y#06u6=trau6jwO:&1>559yj>98e44998ap44t6=>>#O>8y,teyy%:541r%&,y4%>6w081+$1w:666>&y>@&:",
"-:O-1-$%686a6u0k0futuy<e1wu:OOOye81,8u#>=3>>:18,r,vtiwif5#8>u*5>,lu3,p*u46t4eC=66>>5%:.0812uyeu+O>9r,%5e3>::tei,yOO,;w>6,&&6,OO<",
"$,o111.-yurrl6if6ffyu86uyu0%$$:>,>t>81&:8y5*1>1>t6uhp6ti:O>866y#=at6tu,eri3==btjw&:i>%o>wpy2w,8*X14r,%+1>5&&uye5w-11&11&,=>:%#O>",
":-O8w:.>6m1kk6e>6tu>ete>ww81O%yeyfe*2e+#496#<O6668fu8e8t>#>w886:,Ba9a39ta6u64taBu<Ot>&o0wlw1wu,0+896u%%1,5>:eaeu1$00>6>w73::>&#*",
"1&@5,,.;8e8tu,,e,ygu6uu8itw>->1uwww01>.y998=4%,6yueiftuytO#49:>>*e99696t4u4=94jvg6>>#%O18e6fwyw;#>,>9#*66,>>a9hh1X64*7rt4>==4%#%",
">@.,76.O,66,phtu&u6e86u8e10,::1uef1tr6@w,%r>4%6ye1t6re,f,#%986u%%g9,6r969uaeeeatV5,>&:Ow6wt1we61*8y58&*6=r6%ftwu,O,=>4t9>r%>8=O=",
">& 6%u@&wt5yaw886i8t=,tutu2:161tw6>ef8Ow2%,=6#,6t8t>wr6fy#O5w6:Owl6e369t,e649=e6ea>5&&O:0pp1kwr0#r>4u<%56r1&weme>Oi*=3iy547>w6@>",
":%O,%,%O6ferrerw>>ww>6hlye0:w<2jjw8ilu@8r*6=%&58wi1<r8wiu>&66>,=,m,699rt996,=>49ag:,&:ot>8teiwu1%649w#:&580O8upr%#9=64848>%>w>#*",
"&O-6&3#Oiti8tij**8>>61iyuiw,,>y2i88i9>+6>w:>>@>>yfuiupwu66%:5>,*ug>wy9tf4=>=96,=wg:155%w>jt>8wf&&y6,8O#%>6>X6utt>X1=%,839,#=t5@:",
">%&>>&;@0ftefaj>:6w:6,yfss8><wewi6wey@O=:f=u=O@wwuyf,1,wu#O,,,>%ypyt,i16tp969e,4>p%,86O6>arew8u##6&5,#:#:e>O6e>w5O61=r,r497%5>@%",
"<O+1>@6o68fuf6e6:w1661yeu6w6w6eijiyu8>&>5>>6>%&w6wtuw*,jt5.wu&-$5gwt6yy949,t99=9,z>t=6O>6wa>6utw&w;q5$,#>6>O811,#X>>>rr664:=6,O#",
"6$>6>56o6w,yf,w>1>w6w>6ut866>>w6ftuuy%>66,15>*O&u1wfwe,8e5.it><>1Zth7696996t,4ap*M6>*1X>81rtfut>@w6:t:1>>68O516>:O>&*r99,=*,y:O&",
">$%<5:6O:61yswp6:6iw:1yydu%8:86u0y,8f#6>y+1>=qX*6wuwu8t6f0o>y>6>,buup4==6=46e=6a6f:*e6O61u1tske-#>>86&*:56%@>>>w+#t:4rr9>e6=4=@#",
"-$$&1>1@>8weyw18w,<10y1wky1:1y6jfs6up%>05&5>95 &e%f51tp8n6 6i6r>*v46994=4=364,3u1t1>6&$6t:ju:sy$>5>560t5:66#*,>,:O,5=warww%76%O#",
"%%-w031-&66iwse,11>,%0y6ye1w:uylje2u1&>t:&:ww6.%6>u>:rwff0.>r61:*p6at664#=6#94*9e91Ow5O>061f18y$>>y3y>6,:66#*6,8>@6&6eer7w46>6OO",
"OO%>>6>#O1*=,6w%061#-w>1f16y>fggesattO6ew&#581X&t:w611fu6# :>w60=b=t94%=%6=44e*68eq#6r&%11-80ye-:1i>%f1w>6wO+,,>0@>;y6r>ar>>>6#%",
":@%*>4=6o%5r,ee1>,y-%wysutw6>feuewnh6#480>-0s0O#>601>twkw:.>w1>6=mept4==3***=6468hi@>,%%<<6e<w8O5:u66160:151o-1>6$65,6,4>56&50O$",
"$%%6,,>8%O>6ype>w<1++0uy6lyt1meti>tyiO85:&:>t5&@01ww0:s5u#o660-1889=t*64==a=3>aa68h%y,O#>0<>1wt%>>61>1wu:61>O%1w>$,5=u5@*r9366@O",
"%.=,>6155O6h8t1,><0O-we0ugf*wpiii0iu8O>6&-&>r8>.:61w*,tw>0O>:>%14p448*496=Bu3>e9wwf+w#OO%<,e810oi*6:>1f6>11w.%1<:.>,>i4>%668>6OO",
"%&%8,,=16%%t8u>66w:$-:estew>6hwufwuke@5,:>&>85:O:f>6:%tu1>O5q>%0Xa444=%tatvu>>6,tfjO6;>.:61>:1<O6601%>u6%>0>O$<u&.1>>w%=#65q66%O",
"@O#64=4@4%>ithh910>%%1it,use:ww>t1utto&1:*%=i%;@0,1,O10yy<+1w>:w=b3tu63euuzp>%%,18t#i%= -1,w1r0Oe#95$%Z>:%69o&1>1X,3%8@>#686r6#.",
"@#&64=6=36X948ary61OO11,i8t05tt8tethyO566>>*>%>@,t1%+,0dy8+8yw+t4a9e4=,ee9jp86%785r>6*rX+%8w:0e$>:t4>6j6&:**oOye,%96=9%>#*9=64&%",
"$&O>%==,>6:hrfrf1%wO$<u6e,t>88jee6tutO166>%%566@1s88-<0lr<O0w,+yeee9=*3amajtp4481>a>4%6@O%s6:w0ou#66:wge==83O&u6*&9,8t3%=%e,>t@@",
"@#:5%4=*65&6Bftty11#O6j>twu>twuft5ii0O>>=:=>,=wo6w8,$:,d1;O001%w48868,6ep88ui69,e,e>r*,3.X:w61wO,%w==8hb%>rw>Ott*O,4488#%%f=6*#O",
":%>r#&=>6>*688ilw::%%ey<%tt<1eit6twt5#>>66*&938.<r0%+w1w0-O-8,%>,e494*9Cha*tpu>>f,f*=9=>.-<w11,Oy9,*1w9g=>6,%Xu8*O&>389%=>6,5>#@",
">@:w&>:69=*=681tu60#+1e111u15ttu>e>ttO60w&1#i9w.-ww:$2:s<6.>,<Oe6ae9==,jureZau&=e1f*t8*6-O$0ww1$1>6&%ipv6*9#>+8e%O,>6e9>4>>=6,##",
":O-1;:=>,>%>5r16u:w%%2t66ey>tuhjw018>-:0e:>>y%6X%w1-$>r:81$<%,$:,84p8%eut8tBgj=&fyt%6i48:O:<s86O4>4&%r8v:58%1O4=&.,>>i6&&%6656&#",
"&&#1&;&9,=4>,8u9w1u0%1wur1wr18ueue01w#160%&1,5,.:1,w:1:w:1O801:<1giy,=8ia6uagl=%r9a**9>r8+$:60-$1=84&v1l8:6%8Or,wo1>>96@&#,>5:@#",
"6@%,#=3,:66Oe1fue,w6%6ie6,1w:y2u61uye%ww6>;>ir4O%10s:,w66,O*10::=mya9*19e89tl8**t4g,:u=>6O#%5y&:w66,,z1af%65:O6=1O6<=6i##&8=4=%%",
"i=#9%%960<>o181ww<1:&wutuy80*w:pewjae-y>w6%56=9.@:108r0:u&O%1w&:,eatr,,1pehejg=%t991>6>5,@%>#:+#>y>1,l6tr&w66Oet6o:>=rt=>%9=%>@%",
"8*%64%38w6< 1weuf51:%si0e61,*t18a>,tu$1>55@&t>>O$0,6<1<w1:#*i6,&=9fae%aue8tmfa*>64f=5i84::@@%5O#=51>5gfue#uw6>u10O0:>6433%,3:5O>",
",4O=6%=4>5t 120wu6e<Oui,rw11*,tpt>uy0Ow>>>%>5>5.%:,<,8881O*+95>:=ut9449aj>pzpm>88fa%56>&w>O@&:O;,=i%ep>0z65wq$it>Oi:958:>#,>>6O=",
"2>%:%r8t%i4%>66tu6r&&,jyy61>%wwiue1wuO>;>6&>6*wO-w:1:,::>$%>i56&%6i4u,tvt4ejep%479j%=4,==6O@%>$>,%t%ft>ie>6w1#87tO>:>*r3>#>&=>@>",
"88@w%633=e=&<ekt6i6ww8t6ew1<:f,yt1uj8O*%e+r%f&iO+1<:,y,8%%-&518%,9e48=*p6rbpu2>>9=t>64144,@X@:$>=38Oat#6a#%6O#4ew$&1>qa83@t3>*O1",
"8>%y@,e>*9>>>iue,5:w1,utwf1&%te6t&iy8.w$uw6>8>,O+2-1,1>-$%%-8:8%=r8r99#Zaralue##r7f>4>r%:>:@%%O:6y>>a6u>f>Oe@#>16.:<O3y6#&ww:O+2",
">5O4>=t1,=,>Ouffe5w5y5w8yuw#>tiau>wt:@6&4>8&8r>@-r>>8<,+>&:-u&6&=6g6a==btaa98u@3fiet8%a=48;O.%%6>84>rr6tm;>t=#8,0O+0::65%&u51&$e",
"i, i3>6r*%,9#zy8e16w,wwier:O@1aft6&f1Ow0w,5>160O:s<$12:%##-#t6w638v4e=%jutrt,r==i8ra%=u6>6,%OO#y>y4=m%8>u1>,*%6i8@*9%=ri%:r>=@=w",
"a>Ot>69r89=9&jfwt1&16>6uyf,OO*u86r>1fOt>q>&61::.$<%$:1-%O-O<6>16=9peu4%9jba8e8%4re6r%88*636%@X%y7t8=8*14p1&58O688&#u=43t%#iy3X>i",
"twO5,>8ip856Xtfuu>&w66r5ty&O#8uu0t1w2O01>uOw>10+$<$O%:$o#+O<06>6#4j869=6ml,az6%46uiu>r>9:4w>XO63>76%ai18ef:i5%,94%X44*6>::k%:.6u",
"u>#>=r,8=41>:fss1:665wm>jt1..>juuwepy+,:>u#u,%1.:-%O:<XOO&X5,t,wX,p=3934apeau94689ra&4%e%&>;.>w6=6*>l*291966=%>8:=X*,434%:a%6.;i",
"u6@6=9r8>866%:uu>,:>6r8u2y1o.>wt1yyw9@4466=41-<O-0OO:-O::@O5,i>6%5jr99==6eupp,==r98j>>>l&45,%5,4>t&>a*9rtj655O-u>>O:=44r=8446.&y",
"ft&64iw=e19,O6puu>%61tt,ts<OOtjy11818#>656,6<:-O%1%+:--,>#O;>6=8>>a>998=84u81164466g>*66>578=8>%%1&*j4986h:w,<&811O<6%%6=r>56.,u",
",a::>a,Oe66r:6wyu,%6&11eu1&&O:fnt2fw8O#6#6hi<w-@:1%o-%%,>#@#>838&*e=au83,p*e>>,*rw*V,*44,>=%t46%>6**j99,6p#86&%uwwO#4=>>,wy:w.>t",
"r6%64r>>>6wi%+uf1w%,,>w1ee-&;-itt,,2,#%47i8>%w-.--+%$$%ww:#%46:6*=l8u4t=4p#1>>4=,uig6:46t>6>>*==%t+%C*ep8u#t8%-81yO%8>668re&*.6t"
};
