/* XPM */
static char *Wood_06_128x1281739968658[] = {
/* columns rows colors chars-per-pixel */
"128 128 88 1 ",
"  c #160D01",
". c #190F01",
"X c #171002",
"o c #1B1201",
"O c #2A0D01",
"+ c #241502",
"@ c #2C1502",
"# c #261902",
"$ c #2C1C03",
"% c #281D08",
"& c #321402",
"* c #331D02",
"= c #3A1E02",
"- c #2F2003",
"; c #2E2208",
": c #352203",
"> c #3B2403",
", c #3D2904",
"< c #35270A",
"1 c #35290D",
"2 c #3B2B0E",
"3 c #372911",
"4 c #3D2E11",
"5 c #3E3215",
"6 c #421F02",
"7 c #442503",
"8 c #492703",
"9 c #452B04",
"0 c #4A2C04",
"q c #522D04",
"w c #463005",
"e c #4C3204",
"r c #4F3805",
"t c #4E3309",
"y c #523504",
"u c #5A3605",
"i c #553905",
"p c #5A3C05",
"a c #5C370A",
"s c #433516",
"d c #493716",
"f c #473817",
"g c #4B3A17",
"h c #463718",
"j c #463918",
"k c #4C3C1A",
"l c #513F1B",
"z c #603604",
"x c #613D05",
"c c #5D4105",
"v c #5F400C",
"b c #564116",
"n c #5B4515",
"m c #54431C",
"M c #5A461D",
"N c #5C491E",
"B c #634306",
"V c #6A4506",
"C c #654906",
"Z c #6B4A06",
"A c #67440E",
"S c #714606",
"D c #714D06",
"F c #6D5007",
"G c #735207",
"H c #7A5507",
"J c #7E5A07",
"K c #72520A",
"L c #795408",
"P c #7E5908",
"I c #644914",
"U c #6B4F15",
"Y c #61471B",
"T c #644C1B",
"R c #694E1C",
"E c #6C521D",
"W c #71551D",
"Q c #75591E",
"! c #7B5D1F",
"~ c #5D4920",
"^ c #624D21",
"/ c #6C5423",
"( c #755620",
") c #755921",
"_ c #7A5C21",
"` c #7F6122",
"' c #845B07",
"] c #815E08",
/* pixels */
"_nb/Wb(TI)bee0pyip0ip*y70ycrer0BNQQR!R!E_QN:pii080iep,>0i00Biyyq)EW!UEE]_/^,ceiewr97c-y0ecer9eB0]/REE_NEEnkeipeyy=y7p*eyiiip08xG",
"#Bc0p98yyB0ey0pyip0ii*r7eicrei0Vjwyyiyie8BZ@iii889p0u980y09Bcpet<cy90uiBax7wcei9er9,p:ee9y0eee0Z^lc9eii9eceeiy0ey8y8V:9ipByp90VG",
"+Bc9077yyx0e8yxyipyip&e7epBiei0Cjeyicyie9BC:9yi878peu,89i00BCptp>0i00ypptx09ier0er9iB$e99yye0i0V4yBe,iy9rpy9iy8yy7y8C:9yicii90cG",
"$CFB0e7yyxe00ipypiyip$e8yiBiry0Vswyyirie9cC,07i878i0u998ye9cciri>0y90yyByae,i0eeeewcy:0,9yyeei0V1eew9ii9ry99pu8iy0y8V:9ypcii08BG",
"$cec0e9yqxe90ipyyiiip$y=ypViii9V5wricyi79xC,iyy800i0y,80i00ypiyi:wy9eiypyp0>i9e0ee9py:r9eieiey0Z2ee>9iiw0i79iy0ey0q8Z:9ipiyi90xG",
"+pyc0e9yyu,98pyyiyiyp@y,ippieeuum9ricyi98BC,iyi88ey0q9e0i090yy0y>wi90iixqp0:i9e0er9cy:00eyr9eyeVswe9cyce9p99yi8iy0y8Z:9yi0yi90VG",
";c0c0e7yyBe,8p9yuyiyp$y7eppi0eiydwyicyi99Bc,iyie9ey8y,i9i097yqyq:wi90iypyue,y7e0ee9ci>e90ir9ey0VkeweCye9ey8,yy0iq000Z:0yuyip98BG",
"*CZB8e7y8Be98r8ii0peB$y8rppi0euqd9yiiyy98Bc,ieiy80y0q,i8i007yyp8:wiw0pyp0ur9y8e9eewci>w99ye90yeVmewecyy,ri09uyeyy000Z:9yyypy99BG",
"+CB0997yyVqee78ui0i0p*y7yppi9eiq10yyeei99Bc,yyip80e0q7i9y090uiuy:wi90uypeue,y7r7ee0ci>e97ye9eyeZmweecii7rye,yyyiy808V:9yyipy:8VD",
"#cc0e07yyxeti99ii7i9c$y7yipi8eiq$9yiepi99cc,yyic8000q,i9y000iixy:0p9epyp0yq,y7e9eeeic,e99iieeeeBNwwrcic,eey,yupyi008V-9yyipi9=pG",
"+yi0e90yyVeip00ii7e0c&i9eipy0euq#9ryype99Cc,yiiB00e0q,i7y790iiZu*wp9yyyp0u8>r7e8erecc:r99yyyeyeBmwwecicwe0p,yypyy888Z-9yyqpie78Z",
"+0y0e08yyCeic90yy00ec$y9iiiieeu8+9eyipy:7Vc9yiyc0090q,ei0i70ypLC:wp90pyi0yq*e9e79rwcc:r99iie9yeihw99irwt0xu>yiciy099V:9yy8pieqxy",
"+yy0e00yuVerp000089ep&i9yiiy0eiy#9ryiii,*xi9yiice00eq,yy7i79iiup$ei9yyyu8q0:y9e8wweic<79wiyewt9Cmww9iewe9ci7eycep088V,9yywcyweBD",
"+yy0e08yyVy9p9y8077ep@i9eiiy8euy+9yeepiw78i,yiypyy0eq:ey8i70pxxy*epeepyy0qq$i9e7eeeri>,0,eiewypik99eiewe0By,ipVeyy88q>9ryecyeyBG",
"#yy0e08yyVy,p0i7779ey*09ryiy7iyu#9ye9pyeec>,iiipey80y=ey7y8epcxy:ep0ypyieqy$i9e7eeeic*O9wepewypp5wwei0ww0ci,ppCeyy77q>9yywpyeyBD",
"#000ee7yyVy9iyc9799wy:y9yyyy9iuuj9yy9py9eBc>iipp0y9eq:ei7y80epBy:epwypyy00q$c9e7eeeic*:9wwi7wypim,wep9ww9pi7cpBeup07y,9yyeiyepBG",
"$787ee8yyVy9iyi8000ei:i9eiyy0ryp59yyeiyeeViwiycp0i99q:e07y7e90xu:ep9ycyyt8q$a0y7e0eic$7eweiywypphw99i9998ci,cBpeyye8q77yyeyeypCD",
"*977ey8yyCy,pcy90ye9c:i9eyye9iuuk9rewcewiCcwyipi0y9eq>yy>y7y00Bi>ecwipyy80q$i0e>e0wic#90weiy,ipikww9i7,97xi,Bppe0y07q,7yyeq0ecVG",
":797ey8ipBy,0i909ie9p>y7eyyyeeypm9yewieeiBcwiypi0ey00:ey7y8y07Vy>wc0ipey78q$e0e7eeeii@9t9eii7ecx~w9,i7,07pi7cip00yy6q,9etwy9ecBZ",
";997ee8uuVy:7i9e7ce7i:i7eyyyeiuu57yyereriBc,eypi80e08=ee7y8it0Vu,wcepc78=8q%99y7eeeic#we9eiy7ecCkw97i9w99cy7Cppi7yy88,9yewe0epCZ",
"$998ye8yyVi#$,,>*,:&w-i,eyyypriyk7yyee9ecBC#>>,>$&::&*iy0y7ie0Vy,9c0icey8&qo0>9>9,99eo9e9eiy,ecx^w9,i9e98xp+w,,>o#@#@$yyeyy8ecVV",
"#099e08puVViVuxBVuxSV:i70yeypyuyk9eewe9ecBFy0BpxxVpp8*ry0y0i00py,8cepcyy80q79,9>9,9ri;9e7eye7wBVmw7,y9e79pCnLZKVu0pCq*yi99790cCZ",
"#9e9r08piVi0p00yy0qxZ:i90yeypiyuk9ee9r9ecBcw7yyyuiyqq:yy0y8iyyyy90peicyy78q7Biyyieyxc$9e7eie7wcV5w77i0i90xB:e0iexB8pp:yi7090ccBS",
"#ee0e08iuVy9p80yi00pZ*y70yeyceyumyyee09ecBi98ye8yie0q*yy0e8pyiqy,eceypyy880:ie9yre9rp;,e0eie99cVm,w9eer9epB*77e9yp7ei$yy7090ciVZ",
"+weee00uiVy9099yp80pD*y70iiiceipsei99990cBy79ye7yuy0q:iy0e8pypqywiceypyy8q8:ye70ee7ei$>yeeye99cC5cw,wyieecc*79e9ii9ei$i90q78piVZ",
"+weye09puVy9e99yi88ux$e70iipCeixmey707wccBi,8yr8yie0q>iy909ieyqu,yceypyy808=ew,ywe99V$:yy0y098CCmrw,9t09ypc,79e7ei8ei,i09898iiBD",
"+weyy08puBu,e7yyuyipx>079ippceiVbyy>070cyBy9yyr7upy0q,yy809p99qi,0ceepyy8q8:0e7ywrrwx#7yi0y0w9BVmcw,9e9rypp970ee>e9ei>ie879yyuix",
"+9ei007ppBu:e8yy88iix,770icpp0eVMy98e79iiBy9yyy7yp0eq9iy089i9e0p,yyeepyy807=t97yweeeV+weyey0w9BVkrww9y0eipy*8ee0y>:ei>ie98eyiyiV",
" wepe08iyBp:e8yu98ppx>,>0icppeeB5i99788yiBy9y0i7yp0e09iy098i0eqp>ccy0pyyeq7:007y,eewB$7ee0y9w9BV5ice9e9r0p0*eeeepi@0e>ie87yyiyxV",
"399pt00xpBx*99yy88piV>>70icii99xNie979rrip97i0y7ppeey9ry078iiyuu-ccy0pyyey7=8e9i,etwV:9ec0e899CZkriwwi9eyi0*eyeeei8,r,e07yyeiypu",
"jwei000ppuB-e9yy88ppx:=70iBipi9xly097eeiepe9i0r8ypy0qweyy889iipp-cCryceyyy7:9w7i7eewx$9yci9i9>cShiiewe7eeBy*iieeey8ee,y870eeuypz",
"mttpy80ppuB-e9yp88ppV<=90iZppi*isyr78eyyype7yye9pxe0yweye777iiip-cCrr9eiyu7=907i>e97x$9eii,i0=yVMeewwy7e0Cy:iieyii9ey>y07ii0iyiz",
"k9ep000ppuV*eeyy80ppB,:7eiZpci90le07eyeiyp77yyy7upyeq9eyp088yiiV$cB0r9yypy7>799i7ee7u$7eip9p970Vkieewe7eeBe>ipeeii0ei,i077y9pyuV",
"~7ece07ipqx*0wyi8qppx9>eyyCcciyyhe87eeeiyp97iii8ppyey,0rye77ii0V#pp0i0yipu7:707c9ee>p*7eip0i97eZ5eew7e7riBe>iey0er0ey:yr08e9iyuZ",
"h9tct86ypqx:eeyp@0ipx9>0ycCrBcyyNi9>ie0iqp9,pcy0pxreq,0ey0>8ipip#ci9i9yipi7:990c9we9V:89ic9i900DMiee9e7eiB07eer7ri9ei,yr07e9pypV",
"h9ep0770p=u:90yi808px0>8ypCeypyy5y968e9iexy7xpyyppeeq@90ue=70cii$B99r9yyiu7=999i9weeZ:>9ri0i9eeVkiee7e7eiB7>ier7rr0ei:pre8p90yyV",
"m8epe978u8=:9wyi80Bc79>0eyCrccyy5ir07e9iepy7pciypxy9u$i9yy879pip#ip9e9yyyV7:979c99eeZ>7y9e0i9eeVmy7e7y,eyB0,yri0ii0ep<ryy79c009B",
"M80p0070iqq,9typ08Bpx970epiiiiyyMit08e9iypi7pBiypcyeu@p&yey=0pyB%ii7retyiV7>979c77e9p<7ey79i7eeCky9e7eyeix7,yei7rieei:ciee8B0y00",
"d00p0077ppu,99yp88Bpx9>0eyVycy9ymire7i90eyy>pBiycBi9q&y9>0y89pyikpp9i9yyiV0=89>p99w9a:7ety>y7eeVmir,97yeyC7,yer7iiteG:pyye9B00ux",
"109pe070ppy,eeyx08Bpx::7yyCiyye]myry>7c908y:pCiypcy8u$iy8ye900cF~pi0i0eyiV0*790y97e9x$77ey0e7eeVmeyey7ieyC7,iii9ri0eG:iyry9Zc0qS",
"#07ie008xpq,99yc80Bix,78ryccyyeJjpyee8cey0=>pBiyBpy9u&ce9iy888cGMppei9eyyC0>=09c,9e9c$77yiei7eeV/reer7yeyC8,yieeipreG,eyey78peyB",
"$0y80008ppq>0eyB80B8x:::,9rw9>9Gsiyre9c90p07pBiyppy9u$e9>w9>>>rCgcpei90yyV0>709c0999p$:=999y,w0pmeeer7reyB79yr7eyeerF:9w997:w>8e",
"@0ii9007xxq<9wiB8ycpV*88ypCpyexGjiyer8Cc0yy>pcyyipy9p=ee9iy898VZ~ccei99yyV0>7e8ce0wwp*@&:#:>@::em890y7yeyB99ye9ecreeG,,riiy8xyqe",
"+0pp09y7pxq*99pB8yppx09BeyBxBixVmieey>9ieyy>pcyyyyy9z0yiyiyBy0qzmBC9e97yyV0>7y7c9909B0yZSDVzqxzAge90y7reyB9,ieweceerGiGVZBCcqxVB",
"+0ppe8i7pBy:09pB0yppc>wi9epyi0yu5icer09peqy>ppyy0yy8i*9e9yy0,68qmCFBet9yyV0:7i7i99w0p:8ippy0808xji98y9reeB99rewecee0F,ypBcpy8ppV",
"+0pp00i8pV0,99iB0yypx:9i90iyp0eqjeeiye8ie8y7iyyy8e09x&9w9yyie68yhcec0y9yexe>7r7c97e9x:0ippy08q8xkcrey8y0rB9wyrwepre0G,eqcpuy0pxV",
"$0pi09y8uV8&99pc0y0ep>wi90iyi8qumreir08i08y,pere7809p*9e7y8ie78q~cyc0e9yup7>9i7r770eB*8ippi80yuxsciyy9ieyBw9er0epye>D,yypru8yxuV",
"$0cpe8i8yV809&ipqe80p,9p0eyyi8qq5e9iy99pr8y:u0ey7007p&797yype78qmceB0e9yyVt:9y9i77e0i:8pppy000yxmcryi9r9ycewir79iee9G,yyq9yqyppV",
"&0ppe0i0px7e89pyyyB0x>wi9epyy00q2w9cr98ie0y:p0ey6707x*e97rype780mCCC0e8i0Vr>9y8i,9wwi:0ippyq80yxmc9ci0reyBwwie99iee9G,yy00y0pyxx",
"*0pi00y0BV7e79pyy0p0u,wc9ypyy0qy;wwir89ieqy=y8ey=*07a:e88yyiy>8qkCC9997yyBy>9e9iwweei*8pixyqy0ixsceii0e0eBwwpi90pee8Z:iyeyy8pyxp",
"*0pi0qi0BV7e79iey8p8p,ei9rpyye8q-e9cr79ie0y=u000qO>8u:w99yypy78ykBcee08yiVy>9e9ew9eep:7pppy8e8uuMriciee9icw9cie9pe99Z,iuy8e9p8xp",
"*0pp00i7yV>y77i0y7p8p,wc9ypyy90q#weir09p00y=i8e007&7q*ee9yiiy77qmyi0e00iyVy>808ywwrep:0pppy0y8uxmeeci0e7ycw,ci9epe98D>pyy0y8y8xp",
"@0pi00iqpx=e79y998i8u,ep9icey88q#9wcr08ceqy=i000e88=p*e09yyiy87q~0y0e00yyVy,9y7ywwwrp:8Bppy0y8yumycyy0e9ycw:iiieiee9Z<iyy7pe77Bp",
"&=pi0700pZ=e70e798i8x,epeipre88q->>ir00pe0y*u0000080q*e07yypi87umyi0e08yyVy7e08ewewrp:0puyy0p0qzgicpe9r9yB0,crcriyw0D:yye8ci99Bx",
"*79y00y7uV>0790q99y8p,9c0iB=0=8q#999e0eceyy=i000009eu:we8yypy96qjii0ee0yiVi,e0yywwwyp:8cpyy0p8qx4irpi=e9eB0,pipipeeyZ:8ye8Bp00Vp",
"$0i009yy0V>9790y9808u,9peipyy7=q#7eyeeeceuy=y000e88eu:ee9yiiye7ymyy0ee9yyVi,0eeewy9ec:8pxyyqi8yp%iryi>w9yC97eeiipeeeD:8y00Bc08xu",
"*0iu7=yyqV:7777e9788p,8c0icre78q-7wrreyCrpe=y000q99eu>ee9yipi07ys009ye0yiVi*qeyewye>c:8ppyyep8px+ieii7e:eC7,0e*yieeyD:7u90Bp0eyy",
"*0iyy=0y0V>7007y9799p,8ceypyr88q-=:9yyyCrp0>y090e800z:ee8yypi97um997ee8yiVi,0yewwrwy9#6yp8eyc0xx+ieyi0e97Ce>e9ii:e00D*7y8eyp0yq0",
"*0cpe0=e7V>70y7y7788x,eceypry88u#80=eeyirc9:yy78y800u:ee9iipy08uk998ey8uuVi*epiyweeyB+70x=9yp0Cp+pyii0iw0a7:y9yeiy,eD*7y7e0i0u8q",
"$0eiy06=7x=70i7y9887B,eceypey88q$9e8>ririp76ye970e00p:0e8iypy08zm978ty0iiVi,y0eiwwyrB$78p8&0p0Vx#pyipere7pe=eeiiyeeiZ*7u7eyiepq8",
"*y0py008&V>60y7y9977x,yceepey98q:iyeeyiiri>=yq988y09u>we9yipy90zk999ey0iiVy>y0ii9wrrB-98p08=p0Dx#cripeiw9p9>eepyy0eiG*7y7eyiipyq",
"*y0py97y7x>eey7y9878V>0c0epyy90q:pyereiiii7=y0088y07p:e08pypy90xg099ey0yiVi,y0ii99iri>88pp8yi0Zp-cyyirre7xe:eepeiy0yy$e0y90ipeqy",
"$yqiy09y7x:00e8y9e78V:eie0iyy00y-preeeccii7>y0098y08u:e08iipy70B5909y00iiVi:y0ii98rri,98pp0ii8Zp-yiiiiiw7p9=9epei0eiy$y0y700i0qq",
"   o   .   00e7y0e68V:pcr0cry00qXX   XooXX :y8009ye9z>w00ippy0eum    . oooX>i9ip99eei>08xp8iy8Zioooo+#ooo$o>9eieeeeiy9yyy0e7i9uq",
"mE_ERUWWYRR9e08yey98C<ccy9pyye0qN_EU_QTnWYg=y8008i08p:w09pypy00u_TRMbnQ`)EM,y9epie9er,00xp8iy8VylTEEIKIUaQM=80p0yeeey9eyy9w9iyxu",
"4eciiyeiVy,e980iey80V:cCryceyyqu>:0ppii8r00=y70yyie0u>e08pppy0yuk99eeeicip7>y0ece9wer:t9pp8ey7VygVye00yqVy0:70i8e0eyi,7iy9e9yyux",
"$epeyewr9e99090iyy8eV,ccer9eyiyq-e&ieyyr,q=>y7eyiieyu:e98pipe8yus79eewiiyi9>i00cirw7i>y7Bp70y7xy$xee9988cy0>98i9r0eyy9reyye0u0yx",
"#epet0er909990epiy90C>cc0e0yipyq-i7reiyrep==y70upieyu,e09pipr8yuh7yi9wipyc9,y09Bciw7y>y8xp8ey7xu$py08898cy9>0ry8e8eyy9rwyy99y0yy",
"$eieeeee9Cw900yipe80V*pp0ewyypyy#r9c:iyeep=7y8eyViryq,009cipr8ius9ii99ipycw>e9eBBcwwq:u8pp8ee7xy#cy99998cq,>eyy7e80ry9rwyy9wy0yy",
"$ey0i0ee9V:70epiie80V*pi9i9yipyq-wiwpyyerp=>y8ypBiepu:088pyey0pu<eii,wiiiBw>i09pciwey:y7pB8e0rpi$cye9898cq7,rry7e9eyi9ewyy9w08yy",
"@9i9e0er8B,80eppie80x:c79r9iyyyy:wi9yy090B=7y8ypBiyiq,e08ppyy0pu#wyi79ipiBw>i99iiiwep>u0yp8e0yip$By08907py,,eiy8y80yi9e9iy99e0qy",
"#0y9e0ee0C,0erpii089B:ii8wweyyV0;wi79ye98p=9y>iBBiipy>w80ppey0cu#eyc99ypiB9>ie99ee9ea>p0pu8r0yxi*cre7808iy79eyy8e8wip9ic0y79epyy",
"$ey9e8ee9C,eeeBiy08pp:ii8r9ryyV8:wy79yy98B:7y8ypcpyyV*e97ip0eeBy#wec79ecpB9>i097ye90y,i0Cc8e0yBi:cy09=08B099rye9e7eipwic9y79eBii",
"$iy7e9eeeC9yeeBpeeyix,ii9r9yyyVy-9e77ycrep>7y7ippi0yx&097ep00ycu$wic99tiiC97i997yyy7p>i0Bp0e9eVx:cre9808cp,,eyy9r7e0i,ic7y79wBui",
":yy7e9ee9Z,iryBi0qyip,pp9i9eyyBy#wr>9icyeB=>i8yppp0ex$e970p&9ycu$eyp,9pcpC9,i0w9yy0eZ,p0yp8r0yVx>Bye88e9Bi99eyi9e8eep,ccyy9998xi",
"-yr7e90eeZ,peepi0yyyp:icei90yiCy#we89yceiB77i8yppp8yV&0988p7&9By$wir,9ciiC,,y990piy0Z>i0xy8e0yVx>cy998y8cu,,eyp9e7eyp,icyy0990py",
":yr7e7wyeC,ieyxy0ypep:cp0i90yyCy$7r79yc0iB,>i8ypxi0yB@e879p97=xy:wyi,9cciB,>y7w0piciZ>00pp8r0yVp>ci9e7i8py,99yc9y=eqp,ii0y00p0it",
":ye9e8eeeV9ieexy0ycyp>ccei99yyVy-9e879ceiB,7u8yppi0ep9w979pi9ycy:wei79piiB,e7i70epCcZ=y7pp8e0yZq>cy998i7py>9eyc9y7e0p,iiey09peui",
":ry9r7w9wC9i0epy8ip0p:CC9e79yyxy-ee98erycB7>i8ypiu0yx,e989pp9ycq:eyi,9pppc<e7i79ipepF*py0p8yeyVp>cr908i8pq:,wii0y7r0p,ie0y09yyqp",
"-yi7e7eeec,i9epy0ppep,CZcee8eyVp#er90r0epB,=i0ypiy0ex,0999pi7yp9:wye79ppiB,t7i79ppyyZ$iyyp8r0yVu,ce908y9pq>9wye9y7eep,iy00780iqi",
"-yi9e7eeeB,y9ep00iiyp9cecee9y0cp#9yeeeicyc7=y0yipy8yx$e9e8pi7ip8:9ye99cciB,r,y79icyyC$qy0p8e0yVu>yy900y0ie9,9y8907eep>eyie79eppy",
"#ic907e0eB,r9ep00yyey*prcee9yip0+ryie9iipi:900yyyp8ix,99e8pp7wB8<9ye99CiyB,e7y7eriyyu:&y0i0y7eVu*yy9e8y8iy,9w7y8e80ei:9ypy77y8ui",
"-yc9e7e0eB,r9ep80yeyu9cec0e7yypVocypi7iicx*8p8ypiy8yx,98r7pp79x8:9y0ewciiB<e7y8e90yiy:777i0ee=Vy*ee8e8y9yy,:w9y908eey>rBiy8eu7qu",
"#yi9y>r0eB,e9ei08yeyuwCCc0e,i8Bx#cyci7iieC=>y9yyyy9rx:09y8ci7ep0:9r9w9cciB>e>e8e98iyy:88&y0eey0y&0e7e0e8yi,9e8eyy>ewy>ppxy,8u80y",
"#y09y7e9eB,##:,*=:797-CC0997yipC1crcr,ieeB8@,$:,,:=9y:90y8pp7ey8:,y9w9ciyC*+@*#::$>,9*8y8i8eyix6$00708y8yi,+##$##+#$:>uBy,78y0qy",
"#r99e7eeeBieyrx080yBy-cBee99yypV<ciii9ieyBu0xVuxZxpVV>w0y7ic7epi:7y,w9ccyCuaypyCipVVp*8y7y0eyyVy$707ye00yicyVVZVuupct:8p0777yy0x",
"-7r8e7ww9BeyyyyyyBqyi*ii0ee0iiBC#ccce0ieyBy*yy0ypyyyp:99y8yi9eep$y,9w9ccyp98ey9e8repB:0y7y00epVy@=e70q0yiityVVie08eqG*y98977yyqZ",
"#9e9e7e99p7iyee99i89y*0r9e99yycV1ccie0iyiBp$yy0yiyyei>e9i9cy7eep:y9w9,ciyx,>yiwc7ewyC*0y8y00yyVu=O>90yeiei0eiBye88y8D*8y&979uu8Z",
"$9eiy>ewep,eiit9>y87y:yy0re9yycVsiri9rpeyBx$yi8riyyeu,90i8cp8eyp$i999cciip9,r9wi7ewrB*9y8y800iVu*7&77yeyei9epci907y8D:8yy@,9yiuq",
"$eie99ww9p,eciw97i8ey:yy0e08yiBVme8y0ycrycB:yi00yyyeu>e0i0cp9eqp$iww,ciiiB97e9ic7eerV*iy7q00yiVp*70=0qyyeieepxi807i8Z&e0y9O9yuxx",
":yie09ww9p,eciw97y0ey:yy0e09yiBZd09y8iiyycB$yi8eeyyru:w0i9yp8e0p#i9w9cecice,e9ic9e9rB*py70e0yixu:0908ypyii9eBcy907i7V*i0i99@yuxu",
"#ip0e9ew9p>ycct77i0iy:809ee9iiBZgeey9ieryiC#yi8eryyyu>99iepe9wyx$r7w9cpciBe7w9ip,e9rB*pu70e0yiu0*09e0y0yiy,eppy908i7V:Bype00yyxu",
"#p79e9ew9p>iccw77y0yy>979ee9iiBV1r7e9i9yiyV+yi00yyyyu,9908pp=rep$i9w9ippyVe,e70i8ewrp*iy78y7eiV6:88e0yqiiu,epiy008y0V>pipeeeyyxu",
"#099e9ww7i>rii,w9y0iy:,98ee9iiBV;y9e9e7yreZ#yy00yyiyu$78y>ip8ryp:p9wwiicycwwew>w9wwyp=py7809yyxu$90e0y0ppy7eyyy708y0V,ppcweeyyxu",
"#99977wt9p>iiycw99iip>998ey8iiBV#r7ie,9iy0C@yy0eyiiiy>,9iyei8eyp#ew99yciyV9eewi,*e9eB=iu87e9eyxV#80y0y0ppq,00ye900q0C9pBcee0yypq",
"#ee97*ww9y>ipyrw90y0i>999er8iiBV<e9py79ii8B@yi00yyiyy0*=iyei8ryp$9999cpiyC9eweii@e,ep:py78y0yyxV#00e0y0yp0708yt809y9x,ppiee0yyxq",
"#7w9rO:98y,ypyiw90y0B>w99ee0piCV$e9Ci90iy7p+yy09yyiiVe9=0y0p8erx#w997ccirC,rwrei9>9ex:py88y00uxV#y090p9ypBr079e700e8x,upieyyyypz",
"#9w9e7:9,y>yByp9w9y0c:w99ee9iiVC#99ccw9ey0p#yi0yyypixi99*e8y8r9x#ww,8pciyB,ieeer9e9rx:py77ie0yxx@0080i00xu797807e8q9x,iye0wyy0xV",
"#ww7e99,9p,eBiype9y8B:wwwee8ipxC29wciwe909y@py0yyii0Bi,07:7y9ey8kew97pceyB<yerri9wweB:pu07it0ixx+ee70y0eBB09>887ye08V#yye0e0yypV",
"#ew9e7ee7p,0ypppwwy8c:ewee00piBVj7wyi9y798y#yy90ypp7ci9988@y90rxmw999ciyrB:ieeei9e9yB=py00iy0ypV+ye80i00CFi9==070q0yV*eyw9ee7yxD",
"+w9,y8ew9p,rypypewy7p:wwree0iiVV57w0ywy>79y$ii70yii9Bi798y8y9eeV~9w99pcyyi:wr9rr0ewrB:py00py0ypx#i00qi00CGp,qO:800eyp:yye9wy07iD",
"<w97e7ww9x7ryiyyw9y7p:were08iipVg,eriec978y#py77iip9Bi,w9e7r99eBm9999ciiry-we9ri9e9rV:ppy0ipeypS+ie00i00BZi7y7&77yqyp$iie79iyy6V",
"4,w,e7ew9p9ryyyyw9y7x:wwye08ppBBm7weiii99ry#pi770ii0Bp798y7y99eVk7w79piiir,er9riwewrB,ppu0ppeixZ*ie08ie0yVp>089=00yyp-iiw>wipixq",
"M,97e7ww9p,yyuyqe7y8c99epe09pppx5r9wice98yi#ii77ipi0Bi,w9e7r90eCkw7w9ciiri,eiwrieweyV*pip0piyyxV>iey0ie00uy>08008qpyV:yi97eaiqVS",
"m,99y79w9c9eyyyy07y7p>wwpr08ppcpse9w9i999pc#ry78iBi8Bp999y708eeVm,9,epirre,wi9ri9ewyc-ppp0piyyBx,iri8ie99pu:y89eqy0yV:9i97wci0VV",
"mew9e7e99c,euypye>y8p><,e,:>ywypke9w9y9e8cc#iy98ipi0Bi$:9,*>:*:c~t999ipiiewer9irercyi-99e>e999y0wiei0i0e7pu>088e0y0iV$>9**,it,ip",
"mew9e7wwwc9epyy8r7y8B9>,ye00pppBmi,w,iyy9pc#iy89ici0Bc70pp8yyyupmr99eiiirr:rr9yi9ecip:yBZqVxciB:wiii8i098xp>y89e0y0pS>0i09tZcyix",
"mee9r7ww0B99ypy007yyxpBppi0yy0xuhe9w9yeeepc#iieyyci0Bp7q0p8B00yp~e979eypiC:re9icrecyc9ec00y0iixYwiii8y0e0Bp>090e0yqyZ,ypyxVBqVS'",
"srwee7e9eB99yiyy707yx7y0ee790>0ymeewwy0weiB#yyryicy0x0:08y7i879cme979yperZ>w9ererwcip:7070t0ewqywypi8y880Vp=y80e0y0yS*9e7ipp0iyV",
"meeee9wweey,eiypey8ip,i7ee=807yxmyi9wy9e9eC-yiiippyeVr,08y9i77exkr999eiycGww9rceercip:90w777w0yy,pyei9i70pp=00080u8yD>,yyiip0yuV",
"mewrr8e9yyyr>pyeey7yp,y8e0=&980uber9we0w9eC#0y9pppyrBi:00y9i99epMi997tiecZc,wecewecii*0ew87*9eqywpery8i70Bp=0y090y0eD=9y00pieqyV",
"kwery7weiey>pyy0yy7ip>y9e0yO:80umer9ww99wiC#8y9pipyyBy:08r8i9wep~e9e7er0eZr,wecrewcpp:07w8y@:wty,i0yy8p80Vi,8y070i00D,9iyyppe0ix",
"meerrewepey>yy080y8yx:y9e0e7&78p~ie79ww7weV$0y8cppryCe:00y00wwephwi7e9ei9Z0,weiee9Bic-y9w7y7:70y>p8ey7y80Vi>8y080y08H99icrppe0iB",
"sewc0rwei8p:0yy90y8ip>y8e8078*yuk9i,wwiwwec#0y7pppyyC0>e0e7yewech7r>t9ee9C0wweire:ccp:rww7t79,qi>peei7i8epe98ye90p00Hw9iC8ipr0pZ",
"mw9yerwr9py=8ii00y7yp>y00909907xM7y,9wce9ii#ey7ippy0x9=07q7ywwecM,e9e7ee9C0w9wirw9cip$iw97y7ew0u>iqey7y8ey790ye88i00D,wiCyipy0pD",
"jw9yeewy9Bp:8yceyy8ip:y0e90070qVl,y7,wCewii#iy79piepy>=ye09ywtecs,i99e9e9V9w,0iee9cci*ew97y7e0yu>ieyy=y9yy,9yie00p00B,ecCpppr8pH",
"N,9yyeey9pi=8iByyy9ip:y900099e0Vjyy9,w8rerp#iie9riyyZ>:000yywewBs7y99e999Bww89iew9pey:Bww7y70w0p:i0ry8e8yy>0pier8i0ey:ecBpppe0pH",
"swryrrey9cy:8yBrpu8iu,y090e79e0Vmrr9999e9ii#iye8yeepV:70qeyeei9i~wy9yww77Cwwe9irw7cri$C79,e7ewyp,i8ry9y8pp9yciey0i00q:eccpipy0pL",
"m9eyr9ey9By=0yB0pi8iu,y070e79e0Vmerw9i9e9cr#pii8py8yV:=80eyewye9h9ewiw977Cwr9eiie7cii*c,97e70wtx:i8iy8y8ip7yBiyi8i0eq>0pBpppy0pH",
"mewyewey9py:80pyci0iu:y097e090qVh9r99ie0rpi+piy9pi00V>*e0yywwieBktiecwe78C9eieie99pyi$c797e9ww0B:i8yy0y9pp7yBiri8i00u>eypiicy8xH",
"m99yrwer9pr:8yyipi0ru>ye9700090Vm0ew7re9ryi+ppi8iyyiy>98qpyyeeeB5wyeie978V9ecrirw8cei-pew8y7e90V:y0ir0y9pc9yCyyp8y90p,wiiippy8cJ",
"m99ye,0rwpi>ey0rcp0yq:e0970ee7eVMwe779i7eep+pii8iyypx:90y0yi0wiBkeetcee7eV,ecrie9ecep-prw8t7e0yV*y0iy0e8pcryBiii8y89u,eiiyppy9pJ",
"^99yyreywci,yeyxyi8yy>e0979e070Vsie79epeeyy+cip0ieyip,00y0ii9eiV~wiecee7eZ9wyyirwrpep:eee9e7w9yV-yyyy000ppricpqry9p8u:eiyyypy0xJ",
"N,9ryyeewciwy9pppy9yy<y9979ew70Vsie,,e90eyB+ppiei0ipx,00yqpi90iCmwercwe9eV,9*yrr0rcei-eee0e7ewyV$iyiu008pyeycp0yy8i8y,eiyyppi8pJ",
"k9wyyrweryiei9pppy=yu:y7090ee70Bhpe7ey77wiB#pip0y0ipx,90y0ii89iBk9eiiee90Z9,yi:r9ec9p-eewey7e9yy$iciy008iy9ixp0ey8i7u,eyyypxr8p'",
"j99yir9r,ciwi8yiyp79u:y7009ye70VNce79y979rC-ppiee8iyx>90y0yp79iBlwiecer90Z,,yyie9ec9i;yeeee9e0cy$ycyy088py9epi0ey7i8p,9iyyipr9pP",
"199wrw9ryriei7yyyi8e8*e>eeeye90Zk0>:,e9,9rF$cii0e8iyp>90y9ypyy0Boweepee00V,,iyieeec9p$eeeyy7wexy#ucyu088pu9ypu0ey7y9p:9iyiipe9BJ",
"k  XXXXXoXoei8pyyp8ry$y7eeiiee0Vk    oX o+o:pip008pyp,70i8ec00tc5XXXoX  XoXwceyewic7c*eeeiye0eBuXX+XX   oXXyipq0y7y7x$eiuiip00xJ"
};
