/* XPM */
static char *Wood_15_128x1281739968658[] = {
/* columns rows colors chars-per-pixel */
"128 128 32 1 ",
"  c #355B0AD5000A",
". c #3D680D6A0047",
"X c #3EA3107B0276",
"o c #41DF0EB00027",
"O c #4516125B027C",
"+ c #4C2815D30439",
"@ c #4EBF1834061E",
"# c #4D88174007FE",
"$ c #4E47188B07F2",
"% c #50921730044F",
"& c #540E19B0061E",
"* c #59A41C0106E6",
"= c #554A1B5D088A",
"- c #5B9C1DE90952",
"; c #60871F1E0950",
": c #5E4E20700B24",
"> c #63A222A90C82",
", c #698E25FA0E80",
"< c #6B9A281F0F41",
"1 c #664625271030",
"2 c #6A8B26B5109D",
"3 c #67C227B91201",
"4 c #6D92290C1185",
"5 c #732B2C2413D8",
"6 c #793B2F01163D",
"7 c #76D830611671",
"8 c #79A83067171D",
"9 c #76DD30B717C2",
"0 c #7CBE320D187F",
"q c #821F34901A6C",
"w c #886237781CB7",
"e c #8CD03A111EC2",
/* pixels */
".+:1>:O:>>55:2>>>>O%O::O@@@:*>>&>>:<:&:&&&:,>*-%:&:1>::>=;22>5-5>+o>;==#o+=;*-*>54;>;;**#;%>2;->=*>;#;=1;-#;*>q=&&551231O1:222==",
".*34::@:->5552>:3>+O:+:::&&&&>>*>>:<:+&&:::>>*;+:%>><*:3=,;;45+1=++2;#*OO#-*&*+>;2;;;;*;****2->;*;1>-;=5-*%;>2q>&#65:12;#2=25;=#",
"O::9::::-><655,=1&+%:@&:&&@&+--;,::>@&&@@:::,&>O*&><::19%;;;29&2*+#2*#=+#=-+:-@>2>1-1;;**;*-->>;;*;>*;+4;&#*>2q>##6612;-=2=15##o",
"*>>5:@&:><556>,:,*O-&::&+O@&+>-*<>>::&@:@:::>*-%:%&<:@19O2>;-6=2-O-;%#%O*-;#:>>>>>1;;>;**---;>>***>1*=#>;&#*>4q>=O5536->=>-;2=*o",
":,53>:<:>,4553>:>@O:::*%++%**;;;,>,:&&@>&::<>&-*:::<>O>7o51*13-:*O;>#%OO>&:&:1<,--1;;2==*;;&;;>&*;1;=##;;#**>2q1=#22262>=>-;>=oO",
":57>:@,:>>45>9-:>*X::::@%+*>;&;;,>,::&*:>&>>::&&@:$3>:>7#1;#52:=%+>>##%#:*::<<>>-;1->2*;*;;;-;2%=11;*=#*>o%&>2q1;#2252;>*>:2-- #",
":<7:<@>:>554,81->@O::@:@&&*>**>;,<<::@&::&:,>*>&+:=1:+:<#;;:411-#O;>&%;=:>*><>,,*>;2>2;*#;;2>>1%*;1*#*o>>%#=>2q1-o2522;-*1;2>#o*",
":77:>:>>5<5545>->&O&::&@&%*>;*;,,<,:::@::*&<:***+>:::=:7O1::5-1;%%>;%;***%*>>,*>&*;2>;>;#*;=->2;#=4**;o5;o&;>>0:##q6;>--->;2>o#;",
"<7::::::5:5554>:>:+O--&&&&&,*+**><:>::&:*:>>--**@:,>:@::X:,:611;O&:*O:&:*&:<,>:>#;;2>2;;&;*-*>2*%#2-&-+5*o*;>>6-&#264->&->-1*++>",
"57:>:$:5553511::<:O+--%+O&+-&*&;:<:>>::@@:<-**-&::,>@3::@<>@2&11O:>*@:+&*&:<>::*#*;-2;*-*;--*;2%;-,-->+,*.&;>-0>-&1651,&-1;,=o-4",
"7:@>&:<<<,:51:::>:@+&-=O&&%;=;-;:,:<>>::@*<-**:*:,5:O::::<::1=6;O*>%&:+$&&><>**%#;;-&>=;;&#;#;>;;>-#=;+--.&>>>01=&1554;&-214>O>4",
"9:<>:::<<5:,4=$=>:OO*:*.&+%&=;-;:::<><::$&<>-&:@@:55:<4=::@:4=4=O->&&&:::&>>;*;*%&=;*>;**;->#-;;;>=&*;&*;o*,;20;&#-155,&-1>5-O,5",
"5:3>&::555417=::<:+@--*.+%#-=;=;:<,<<>::+:1:-&-*&>4>$>4O:>:>5&2-O-;&=*:>::,>;*;;%;=;-2*;%;>;*;**-1-+&-+4*o**;10>=+=354<&>=>4-O,7",
"@:3&&><<534<5:*1<&+@***O%&=;*;;,:<<,:::@&>>>**-*&:>:::<X:<:>5&5=O*-&&:>>:,5,**;*#;*;2>;;=*>&*>#*-,->=++-;o%;;502-+=553>&<:>4=O17",
"+:>&:<<353544::3<*%:;&%*#%*;;*-;>,<>>::::><>:*#:&@,:@:7O>::=7$2=+--&@:>-->--*;,,;;&;>;;;*=2+;2%;->-+-++>1+&;;4q4=+#654=&,=><*+34",
"$3:@>><3,<<444$:,:&:**%%++*;**-2>,,::>:::::::*%&:@<:::5@>:::5-1$o--o*:>:->--%*%*;;;;;;;;*;;+;2%;>--&=O=,>O%;2505==#514=&*:><&*53",
"=:>->>5==11541$$,*&&:&&+O+*>&&;->>>>>><-:<:>&=@:::>=@=1#>-*26--#O*-+->>*-,*;+*&==;*;;;,*&;**;>%&>*&*o#*5-o=;26q6-*#524-=&-24%;5;",
"1:&=>55$=-117>::>:&+*&*OO&-*&&-;;><,,->>:>:>*=+-:::==::#:>;102-*o=;*;>;*--%&*&&&*;;*;-*#=;%*1*#>;*;#+&*2=o*;--q5-=#45>-=**;2;;4=",
"1:@:>43:=#3:<1::::&&:&@&%&*=&#*->>5,,-&<<>>:&*#*::4==:==->-->51*o=>%-,>;;;**;+++=*-**%**;-#-;**>1=;o#=*2*o=-1:62:*#454;%*142O-2=",
"::O>>7>*:=>:>::>:&O&*%%&&&%*;+=>->>,>*=>>>>*:*+@:1>=#::=>1#1>2;*o->->;***&*%>&&+&=*#*;;;-;&=-*;;>+*o##;>#o+->2551=O56>2#->>1#-5:",
":=O:55->1=--3:=3:@@+:&%&=##;;&*;->>>>-=><<>:%>+#:34&=1-:1>#1>2>;.=;&->*;;&*;:&:O%#***;;&-;;&--*>;*=O&*2--O#*-1q61*+353-*::>1+=5-",
"OO@3,3=>::$=:::::&&&:@*O#+=;-#-1-,->;->>5>>:*-O@:>1+-4==1>*4>5-;o&;*->;;*&>>&O+@##*-****--**-;*>*-=**>2;=o%=-;602=-662-&-::1#=43",
"+O::>4*:>==$>:>:::O@@%&O=&&-==;><;>;;;;><>>**&*&::1%;2#:;1#2>5>*o*>+-;***&:::O+:*%=>;>*>+****;&-#;=#;45>*oO%;;2q5--65::#>:-1O::1",
"@::>43::1:=#:$:3:&O:@@%%%*#;%=*->>>>-*,><*>*%-&%:>>&12#;:1*2;42*O--+;*;,::*&@:+:***;>;#;&&*&*-*-%%&*>222%o#*;;665:#5231;-:->+11:",
":::1:3::>:::++::-*O&&o%+*=&:;===->>>-;>->-*+&:&&:<>+:<O112;;:51*o>-&>&;===-*::::*+%*%*O&**-*&*&>;#*-2242&.+*>26q4-#58>>--::-+3-:",
":>:>1:::<>:::O::**++&O%o*&*;>*%#>&,;*;><<:*%%:&&:<:+11&1-1>1-01*o1=->-;&+-+&&&::*#%-*@@%&***%>*>&O*>2222; +*;;562++15>>->:>>O1::",
"+>:1>::$><:&:O::-&&&++*+%*#*>#--,>>**;,<>:->%%&:><-#>9O1*;>4o61*+2--,&;O**+&:@@:&**O&::OO%O*%->,*+&2222;;o+;*>2q1&=4,,,->::>@4==",
"::,>1+:1:>::O=::**&=#o*%#%%2;**>>,>;&;,<=-:>*:**:<:@>1+<>;46ow;*O;*;,-;&*%&;:$@:-**%&&++O&+@%-*,##;>22;;*o+*->5q2==84>,*-:>:O7:&",
":>51:::>&>>>&::&**&*&%&O%##1;;*:>>;>>-:4:::>*:X&:,=:31+:>>20*6>&%;--;==+O%-*:@O*-*&&&&@+&O@&&*&>*#*>2*;;%o&;->20--#08<,*:1::+9=$",
"::<>:@>>::>>::>&:&&:#%&%**#:;***;--;,:>>:>,:*&@@:3=@<1+:2>10#6>*#;***=#++&-:*OO+:-:@:++&:*@&*>&>*#;2>**>#o%;1;40==&89>>::>::&4::",
":>53:=::&$1::>,**&&:#*O##*#;-**;-;&&>*>>>,->&:++:::O,:@>>>:4#21*%>=--*+#--;:&O@@>-:::@&&**:%*>%-*=>22;-=oo*;;:2q:=+675<>,>:::::+",
":11:$::::&<::>,*:&&:+*o#%#=-;**;%;&%>->->>=;::@==::@>:@3>>12#6*%+;*;;-#&*-:-O+OO&-&::@::*:&@->%:*=;2-=&##o%-->>q:==40><:,:3:$1:+",
":><=$:::*#>>:1:@:**:+%O%&O=:*;*;*;**;;;:>>=;--*=@>:@3:@<>>:7=5:#O>&*>&&&:::%&:+O@::&:::::>:%-*&>*+2;-;##o.&;=-1q2*#201:;1>4-#3=#",
">11:::::$&:1=::$:*&&%&O*&*&>*;*;**&*;>1:=2-;;>*&:,>:::+:>>:<-51%+>%&@&%::*&%::&OO:@@@::*@::%-&*>*#;;-*##oo%;-;;q1##2012=1>5>#4:=",
":41:#>:>#&:>:,<::@*-@%O&:**>*-&*&&;*#;1;&1->;*&*:>>@::$3-:$4-5;*%>%:@*%::+O*&::+O:@&&&&+@::@--@>=*;2-*oooo=*1-=62##6514--1->=2>#",
":74>$1:>+&*::>::*&&*+@O:***>%*&*;&&;*;:=#--1--+-&>>&::$:::$7&5;=+<+>:&&:O+&::*@:X::O++%@@+*+%>%*#&>2-*+ooo&;;=-52*#56>2=-:1>=3-*",
":34:=>><+&::1<>:@=&-#%%=&&*;=-%**%=;;*;:+->>-;&-&::&14O:>:*8*4;*o,%->*&:@+@:,>:@+@+O+@O@++:O*>**=&2>-#Oooo=-1--q5;=5621-1-1-#11+",
"<<>>$:<3&@::,:>+*&&;*%*&&&=-&;%&&&*&=*1-+-->*;;-@:>:<4O:,:>7=4-=+>+>::@&%&@:,,@:++%+&&@OX@:+***-*=2>;*oooo*;;;=q5-#5624;--4-#31O",
">115:::3:&:<,::O*&&*=&*&&&&-;++**#;*%*1=*:>-;-*&&:1:<4@:,>85&2>*+-+-*:O*%:::,,::%+@*&:&O++:O&;*:;=;2;&oooO-;;1151-#1421;>:>>$3:=",
">>54=$>::&3<,>+:*&&&-***-*--*+&+&&;;;>;*@=4;-*+&:31::3:>>>85=2>*#>&-#:OO%:<=:>::*&:&&:&OXO:&&*>*;&1-;*ooo#-;;;;52=#262>;>-:>=1==",
"::>1::5::&<,<<&:*****O=-;;;;*%%*&&>-*>:*O=>>>%:&:<:&:3@>1>14#41*&--*&+#+O>,:3>>:::*:<:*O*%&:&:>>=*>>*#Oooo;;-1>61*+15>:>>:>>&3:@",
"@:411:1:::>><<+:;&*%&+***;;;*%*%&*,**:::@=>:>+:%>%1#::@:51>5#5**&==--+-+:>:::::::*::<>:+&&&:&>*>#&-2;#+.oo%*>-;61=+24<,&<>4>&::#",
"*:<<<&::>,::><@:;+*+&+****2;**&&&*:**>::***1>**&::>=:1::2;:6-2**&#&-*+-O>:>:>:1::%>:>>:#&*O:&::<=#*>;+%ooo%=1=-55&=154,>,:>>$:=O",
"=:7<5::<<,:::>&:*;*%&&**=*>***%%-=:**>>:**$<>**&:&>>:3::>*16;1&=&=*-+O>O:>31::,:&:::>>>O>&&:+&*<*#;>;#=oooo=;>;65-=:955>:>>1=::+",
"@<<4<&1<<::>:<@:*##+&**&*=>;&#*%*&;-*>:O**&>>&&@&+:3#1;*>->2:1-=&-:>&+-%:::1::>>:3$::&13*&@&&;;>-#;;;#=ooo%*;;;55:=>775::,>>#3:$",
"*:<<5&1<1:::><+:*#&%;#%*&=>*;&%*;&;**:<&**@>**-&*+:>=-1*1211:11=%>*>=&*O:::::>:,&3=:&:><>&%:&**,*#*2>-==+o*;-;;65:=2454:O><>+4::",
"&>:<7:>3>::>>,&:**%o*##%#*;**&+*;*,->:::*:*:-=&**@>1==1-2>*;4-2=+>*>*%:O::>1::$3:::O&@1<>:O:%**>&%=42**=*oO*=;;62-#5<7>:@3,:O1&1",
"@>>3<:>:>3:>:::&*-%%;+###;;*;#+;;;;**:::&*->,-&;&&>2+:1*21-15-2;%>*>-*:O:::1:::>::&+:::>,:%*%;*>;*;25*;#&O%%#=;63:o137>::3:>O1::",
"@:::<<:>:1:::::+@::%:+@&=*;=;#**;*;;%;--*&*:,*%>O%><*&<@4;-25;;;O>*-*&-+-->::>=3>>#$::-$>>*&&**>*%&5>;-;#oo-=#>61:#>56-:#2;1+5-=",
"O*:143:>>::::1>$@*>%%:%&=*---**;*;*&&>-*:*::,>+>O*:<::4O;5;16=5-O<*>;*>+&>>>:>:34:+=>1:-14&*&**;*=*222;*=#o*;;265=#;99:1#2>1#2-=",
":$:>43&::1:::<<:::::&&+&#*===#%;*;+*-;-=:&:&,:@:%*>5+:1O2>-25&5;O<-<--*+&,<<>:>52:=-493-:<&*@***-%*->22-*#o#>>164;#;852>#2>;#31=",
":+:><3=:::::$3<::1&%&&@@=;**;%#%*%%*-1-&:%&:>>@%&*:<$:3+12*20&4-+<-<--*O&>,>>><<3-#>4411:<@&%;*;-===1;22*;o#=;;64*#1852#*4>;+14:",
">$:><4:@@:>>:>3:<>:@@@&&*-*;;**%*=&--;;=&&&:>-+*&::1:=3&=-=45&6>o;+,;*-O*11:>:1<4>=:4544*:&:@:>>;#*#22;2*-o##>;q2-#254:-&<,4&-4-",
"1#*:>5>*$@:>:*1:><>@O:&&--==;;*;&=&;*11*>%%*>-%-&:><::4+-1:16>1-+,*;*&*O&:>3<:>531$:6295:>@::&>>;*%#*12>;=o+#1;62#-455>>&5>5*&21",
"::*:>47>=#$:::>>::<:@:&*;-*;*;&;*&#*&2>->*-*>>&,&&:5:@:$:1->215-%;;=&&=+#$:>>:<<41$:6494$:@&%&>%;*##**;52#oo#--6>#-50522&>>->+41",
"::%>>551$:@$:::&::>>+&O&-**%&;&;-&===---*>-;,>%;&::<:::O:>:-1-4-%--===&+@$:>::<44:--4544$:@&&&>*;*%*=*-;2;o+*--q1#-46512+:>>-O34",
"&::&3:55::++&#=*:&>>@&O&**&@+&&*=--=-2*;-;-;>;*;&&>>>@:::>::2211%:*::&+&+*:*&>,<<:==1>51=*&-&#**2;*O&&*;1;&O;;-5>==464-4&>:>:O*3",
":::@>:5<:+::&=@:>:&<:*:*:*&>#%%;-;**;2-1&-->>;&;&::>::::>@::41-;-O:&&@:OO:&&:>,<<:::5141#>%-&&*&>;;#+#*;;>#O;;12>&#464=1=>>>>&&>",
">>:+::54::@:-=>1<<:>:%&@*;*;#;**;;-*1;;;**->>*&*&::><:>>::>:42->:O:&:&&+X&>:::>,<:::5454#:O-&+==>*>-&O+*5*#o&--2:=#55315:>><<-.>",
"5::+$:431::@=+313<>:+@:@*>*-;;*%;-=*;>>>*;&,>&;>&:::::>5&,>:1q&2&X::>&&+X&&>&>>,<>=$5543=*O-=&**>***;+##2>#.%*;6==O45524:>><8:O:",
"7:3:O:<4<<=#=#49173=-O&O*,-*&&#**;#:*>>5:-&>:&;*O:::5:,7&,1O>9=2-O,*:%*:OOX::>:<>1=$454::&O:&*-;;#+&;#&+1>#o#*;6===24964>&4>,:@=",
"5:3:O<<<45:##:45344=-&:&*;-;*=%*=*-*->2>>*&>>&>>@:&@>::5@,:O19=4>O-->*&::+O:&>3<:<:#339:=*X:+*;;>*&*;*+#*1*.%;;0=O=55985>*<:>>&&",
"5::$@::<43<$&>4<<<5::@&&&;;;;;;=*;;;;-2;,::>>&>*&:&@<::,@::O<7>->+-*:*@:&:&++:<>:1:@477:+:O:&&-->=;;;;O&#1;o%>20#%=2954<>&5->,=O",
"<<::+::<734::3355,5::&$@+-;>2,;;*>*2-*2>>::>>%**%&&:7::>&>:+<1::;&-&:*%@::@+O:>>3-:=481::$+&+-*>>&;;;;%+*;:+%;;0=%#25545<+5>-4=O",
"17$:O:$52152>2>5454>>+=+=--;>--;;;;21*;>;;>;*%-%+:+:5>@1#>>=-11-,*==-;;=+-@@%*:<:&>@11>:1:&&+>*>>%:&::*O*4*%+;-6=##259521#2>#2*o",
":7&:O:=>-1621444341::&*=%*-----*#;2;;#;124>2>*-#+:@$<::1+>,-144-;;#;;;;**=@*%**::&>:1>1:>+O:&&*;:&&@&&:@*;>+#*;q##%>46211#---2=O",
":7*:==>1:143-655>711::&+&&=-=-;*#;1-;=-;-44;%&*=&@:>1:@1=2>-;25#;*+>-1**&*-:O*O&&:>$:::$:+&:%&*>*&&$%%&+&;2#+&;0-*&>62431%;--2-#",
"O3:1:&:=1252=952=5:>::&#*%#-#=;&-;*1;+**;;1***#*@:+<:<O:->4;449#4-+4*;*;*&--O*-&:&::::&&&O::+*>>*%:**@+>&*2%%*;4:;*>066=2#=>-1--",
"O3:>:&:-5,45-53-=>15=-+=&++=&*>+;--2,;;*-21-**#*&:O::<#>&>>8>35=2=+;*---*%&:+&:>::@>*:@::O:::&**:&::*&::%*4%%>-61:#o225:2-o-;>2;",
"+<:::=::15,5351--:44&>O-#+=*&&,*;*;;;;;%=-,--;*%&:O::1+:->:5-18+4>%;*-;%:@@*&@:&@&:>*#:1&@:&*:*>:@:::*@*%*2%%;&41:=#1541>;O1116*",
"O<4:$==-122;552=:*53>>-**O*&*&-&=*;1;;*=%*;-;*&+:@X::>O:>-><-69O61%;;-;#@%&:&@*@:@#<$=:<&O>@:*>>:@&:>*O:*%1=O;;02#-#2052;2#5>22*",
"O:3:-==--54:324=::55><**-+=*+*>&#*;;;*#;*-;*=#%+O$O:11&:>:>>-:6-61-O1*2=&-%&:%@O&+#1::<1@+:&%**<:::::&%>*+--O;;64=-#5042&2#6;>1;",
"$:7$:$O:=5<:424=-=535>=+:#@&@*;&+-;;***;*;;*&*%O@:&:>,:&<->>@>4>>>>O,&*>>*-&*&OO&%&:>>>>O##&&*->:@::>::::O::o;449=-#4054*1&6,,-;",
"=O5:=:=$>5<,>>5-:=4>1:@O@*+&&&>-#-;;#;;**;-*=-%++::>:,@:3*>5@>5,;4>.-*:,>%;&*&OOOO*O::<:O&+*&*;,::::>@:&@O::o;146:-O1052;1&;;>*1",
":X3:3+@@>345>,5-=$5-3:-O@@+&=$-;*;-**;1*+***&-%%@&:>>1::5&<3&484=4-.>&->-*-&&*%OOO&*:@**+-=+*=;>::::<::::+::O;>26:O+:65322%-11,;",
":X1:3:@:1>15444=:@5-5:>&&@O+&O=:-;-*;;;*%&***-O*@%&:><+:5+>2&454=5-+&:*=,;;;+&:%%O****&&+&=**=;,$::=<>:::@::O-1-03=#:65:22%*>:;>",
":@3<::::>:1575>>:-5<5:>*+*&&&+=*&##*=;;*;;***%@%++@:>5&$3+42+292*4;-O-*+>>*>%+:&+%+&**&@+&@==*=>::>::>>::@*:O:>*22:#-6225,%-1:32",
":X:7:>:+:::4<1>:<>474*:&O=**=+#&*#**%>%;*;;;:@@&OO:::7::4&;1+442+2;;O>>O:&&:+#:@OO%+%&@O@&&***-1&3:::><>:&&:O:>>53-#-5415,+-1=>4",
"@X:5:3O@&=5>5>:>>>554=>=O=*&+=+&;%+;*;%;-;>>*@&%@&:$:7>:4&>,=235+>2-O*>&&:>*:&::@+%+OOXO@&%-=*>>:3>:::::&:&,O&--55##=55,5,%>3=>,",
":O@3::@:&-<5571:::544$:*++-+&*&-*&+>;;&***>**@&%@&&&&7::4+>,+4-6&24-@+>*&%>%:@::O@&@@OOO@@&*&*;>:<>:::>>&&@>O&-->0##>65;5*+-5=--",
",:O33:1+@::<<<3:>:315&:**::+&**-*;+;;;**#;2==%*#+:+:@<1:1&11#-29=-6*;O>*;*>*;%%-=*:*@@O%*##>&*-1>>>-*1;:#**>O#;#45#&126-2-#;1>--",
"::O55:1:O::5<5,::=>44#<:&#:@&*%-**%;>**%*;-=*%*o@++::<&:7+:>=-29=:0;*o*1%;-1;*%-=*-=*@%&=&&*=-;241>*#:;#*#->O%>;2q*%116:4#==>2>>",
"4&X,7:1$@:+5<3,:::<54O3:@O:&&%%>**&;>;#=--*=*%;#@:@::>+:1+1>--49:%0#;+#5&*&>%;%#*---:&&&*+#*=;;1>5>;*>*1***>o&2>2q##11612-=#;6>2",
"7:X:41:::3:51<:::*<<3+>::O::&+O>*;*%;;*&****&%*%O::>::$::+<:*>291=0>;+#>&;;2*;*#-=:-:::&**#-+-;->4*>>;*>*#;;o&;;>q##295:2;=#*0>>",
"<>O*>>=>*:>4<1<:::<54@>*:+:&@+->**;%>;*;*&;%%#*&:+@:=1:$1X<=:>352#22>;O;>%;;;&;&:@::&::+*&;-&;1-52;;*;*1***;O%;;>5=#262=5>+&=521",
">,+*>3$:+=:><1<>&:154=:&:@:&&O-:-**;;;#;;&#oo%*+O@+::<$O7O4:&>452O222;o*2%%;2;;&:+:@:@::*+--&=2;;;>;#**:-**1O%;;;6#O15310-+&*61;",
"<,*%33&1:&>:<15:=:143=<*>%*:@%&>*#=;*;=;>&+++&;%+@X,=3:@5O<:@>456*>2-=o*5=&;;&>=:@:@::::=+;;*#:2-;,;***--#*1o#::=q=O15126>==;4;;",
",<-+<9=>&@<>7<1:-:<4>:<*:+**O%*&-=*;>2*%#*&&&%;*+::<:>:@7O>>&->52#-62-o*;;%;>**#:&@:@::O+%*;==;;;,;-**=:***>.##--q*O55125--&-21:",
">5:+:7$::@<:441<>@:><:>=;&=*O+*%;;*&>,&&*#*&*+&&@:O5:3::4O2-&1:55#-6;;#&;2%*;--*::&&&::*@:**==-;22;=-*&--=-;.#*-10=O59244*-&;4>-",
",>:O:4::>@::<411:::5:*>->&*&*=-%;**;;,;&*&%*+*%%:@O<3>@:5+2-=;162##q>*#+>4*;*-#=@&:&@O&&+>>**-=;>,#*&;*;>=-- &*=15##569:6;-+-5--",
">4:+:34=>@::<5<1:>:4:>:-;&&=%*;->;*;>,;*2+&%%=+&:+:,:,::5$1-&;155##6>>;o;4=;*-%=X:&::**%*-*&;-=;,,&*+*-;-&-*o%-#25##695:51-%-4:-",
",,1@:57+>:::<>7>>>:<::::*%=%*##*,;*;>->>&%&%&*%%::+>,>O34&:-;-155*#4>;=o*2*#*>*=O:@@&*&&&*&&;-**;;-=&%&----= &-#44=#533-5>;%-4:$",
",,<&&30:3=->><><4::4>>*:*O**%+O*,&*;,:--*+&&*+=&:$@$3<&:5O>:>-;56>#441=o*>*o*>==++O@O+OO&***;,-**;;;%*%**-;*o+;1,6&+56216>>+-3--",
"<<,&X17::O-><5>53:=5=>&:&O:*&+%*;;&;>:>-*&&%*%==::+:1<O:5O:>>-:45>#15;=o=>2#=;;=:OX+O@@@%*&*;;;-#;;;%%=*-*1=O#;-44#&5642<:>&:1:-",
"<>4& 47=-O=,<55,<>*7:1**@O:@&&%&,&;;>->+*&@%**--:&+=*1#$5+><=;;46>#:51*O#>2#;=-=@O+:@@@&;*&*;&+-**;*#%**1=;&O%-;61+*59225-<&=3>:",
"<>4:X<3=4$-<<55,5<<1:1:%@O&@&*&*;&*>>>,O*%*O*&:-:*+==<O->O3<>>1141*;6--o#>2*%=-;:O+:*+**-;*&**%%#=;***;;;%;*o*2;61+=55645*>O:5::",
",,5&X:5@1&:><<535<5>*1>*OO:%&:&&>&+>,:>&*+@O:+::@:@::>+:<+<,>->461#22;;o#*1;*-1*;#*#*#;->;*%***o=**&&;;;;**:o*145>*#59652=>#;6>*",
">>8*O*7+1#:1174<<5>4:<:*@O:&>:>*>&&;4-*-*++O&O::::++:>+&5&6>-&254>#15--+=*;;**;;;&;**%#=>**%*;;&;**&+*;;%+;*o--*6>#>55661=;#;52*",
">>5>X$0>>&-<>7<1,514=1>:&::&*>>:>O>><>:>&++O&:&:+O@:,>::5&6;*=446;#;6->%%;;>&-2*;#****O=*&*&***&***%+*;2*#;&o*;>6>#269292->%-52;",
":>,&O:0::=:4>7>>>544&,:*&:+&*->>;%*,<<>:=&&%@&:::@@::,@:3+5;>&446=#12--o#;54+;>**;****#-#%*****=;*;;*;;;&&2&o*115;*263522=2==24-",
":><&@:7:=&>>25:3>>45=>:*&-&&**&*&&;,:>>:;-+&O&*::@@::1@:5X1>-=426=#15--o+*>5%#>=*;;;;1;;%%***;*%*;**%*;4*+5;.;;2q-#55122;-<+=24=",
">:5:&:4:=&>521241424=1::*-&&****>*>>::<&*&+++&*:::@:::$:2o2>:-446##26-=OO*>4*#;**;*1;2-=*%***;;*;%%%*;;;%&2;o;;2q=*56512;;<+-51=",
",>5::$4::=>52:442554=<>&%***-*&;:&:>::,:==+O++=-+++::1=:>#1-1=456=#26-%o%#*2%#>;*;2;*;#***;;*>>>2#*=*;;,&#2*o*;26=#665221;:&-5;-",
">:5:::9:+&>544255455@>>=&&&&>&&*&&:>::,>+&&+o+&-::O:::::2#1->=4562#06-*+#**2**;>**=*#**;%%***,2;;;;--*,;*#1*+;;25#O554-5;,>+>54-",
">*5>&:3::+><15154573@13$&*&@>%-*;&;-&>:>&-&%@O*=:XO::4:$7@>>>=156-=45--#o;*1*;;>;;&;&***%=*;;>224;;;*;--=#2*+;;45#X245152;2%;4;;",
",:<:@:4::$><-515>>4:&:>O%*@@*%&;;*;;:*>,*-&&*X**::+>:1@:5X4>1=;45==01->%o;*2*;;>;*&*;****;*2#%>2;4;;*-*-#&2##>;52##455>52;;+-5--",
",,,&$>3:+&:44541:4>&=::O%&+$-+-;;*>>::>>---&-+&&@:O:::::<+:,3=:26--5>>>%+;;4=*;2;;#**;*;=*>-**-2>;;&*;1*%1;%O>*0:#&206:1;;2+-5::",
">>,@#33:+&:75431::$:=::*&*+$>O;*;*;>>*:>*=*-&*+-::+::<&<7@>>:=256O-0;>*o#*-4##;21*;;&%%*=#>:=;;;>*;&#-;;+;*+O>#6:&#505:2;;2%=9:-",
">>4*&4>:O:>77<4:==#=@:::*&%&>&*%*&>,:@-:*;=&&-+&:@@::5&>4&<--*246->6;-=o%*22+;*2>;;;;&#*%*>-*;*>*;=*=*>%=;-o*=*01==5642>*>>@-3::",
",,4*O>:>+$:7<941$--:::::**&;,*%&%*>>:&$-;-=&=-+&:+@@:<&<7O<>->342*>5;-#o%;2>#**;21==;>*%#*>****>>#O%*>2*#>*.*;;0:+=56241&,:$15>,",
"-,4-o:$:O:=<<34=$=::>:>*+-&*;&&&*&>>>*&-;--+;&&&:+::::::7.7---44>-21-*=.&;2;&;*;>2;*;;;*#*;;***2>#%#;22;*2;o*>>0-##5514,>>&&>4>>",
"-<4-O1-:&::34>3-=-3:::1*%&**,%&**:*>>*->;--*>*&&@O::><::<@8->-24>#q2>;+ #;;;#;&#;21;;;>*#*1;#*;>;+**;;>;=2;o1;>0>&-95>5,2>@*1<>>",
"&>1:O:::@>>1423:=13>><>:%@*&:*&-->*>,-*:>*%>,-&+@.*-><-:1+41;>45*#61**+ =;>*#**#:,,:>:>*&*,-***1*=%=;-*;=2;+>:26-#155-6122#&2>;1",
":<<:O:O:+>-25>4=->:><<1:O:*&*%=->*&,>&:&>:&*>;&O@O->24::1&--1>25;>51*&oo*11%#&%&::,:>>%*%%>>***;**=*;-=;*;&%--;5*&256#6:5;#*2;;;",
"<<::O3::&>>>551=:3::<<:*+:**-&-*;**>>*-*>>&**>&+:O*,4<-=1O;=;150#25-*%o.-;1#+*%*:><5,>+*%&,;:#+***%=;-=*#;#o->22*#1w615:2-%*11>1",
"5>::O7:&=>1>52==#>:=>:&:O:&*---****,>--*->&**>+&&O->5,-@5#2#*220#5;**Oo%;22+O***&:<<>,&>&*->**+&**=#>:;#=;##=-61==306>2:2*O#2-;-",
"6>-=+3:@=>>32>#$::&*:*O-&*&&*+-;*%>>>***&,@%;-&&#@::45-=4&,-=455#6;=#Oo*;2;#o-#;*->>;;==+*;;**%*;=;#-;-%*>+o;>q1%#48415><++=2-2:",
"5>-+:43:-:,2>>+=1:*:&*&%O=*--+=;;&>;>:&;*>@:&>*&&+::35-=2+>=#262#5--#o&*;2;%O#;*-><<>2=*%;*,%&=,*%;#;;;#=;Oo;;6;%=523-5>-&&>:-,>",
"4:=O:3>==-3>3:=-3=-*:-:++-&--*=;*>>>:&>:*:*:*-&@$O&:55+-3+>-+15:*5;=o+**;6==O#;*&=>4;4;-%**,==*;***;2-;#;;O%;-6;%*555-9=-&&>1;>>",
"4-#.:4:@=->23::><@:*::*@--&-;**&>::::&*>%:***&++&X:$5:@>,#1:#15>;2;#o;;;2>%=o*-*&-=4;,;-&**,*;*;%;**>-*#>;O*>15;#1525=5:>O-4>-=>",
">-=.:>:$=:355:-><+*@:@&&:&%*>&&&**>>**&:@--:*&*@:O:+1::>:#1>=25*11*#O**>2*#o+*;*-;;4-21;%**>;*;2%;*;,;%*2-##>>6-&-365*0;:O:1>=>>",
"-=$X31:X:=444>=>,+:@+O+&>&O%*O&+>*>>:%*:==::-;-@:@$O<1@:*#11-15#6;-o%*:>2;%+O***-;1;-,;-#;=1>**>&*%,,***5-o*;;q-&13552q;-O-1:*1:",
"==OO3::+>-3>41$:>$:+OOO::&@:*++=>*>>>:&::*>>;+-+:&::<:+>-#2:&55=e>#o*-1;4**+=#**-2>#;>*-#**-;>>>*%*>;;+#>#o-22q-+-2502q--O:4:>3-",
"$= $3$:$>-<42:=>,:&O+O+&*:@:&&&=>*>,:&&&>*:>-+:&:@>:<:::1#22=41-0-#o--2;4&*+-=;=*24*--*-#&**-11=*&;;;%%#>=o->2q*#=942;51**>:-24>",
":+X:5O=:::5443&>>:&OOO@:=*%;=&-*:*><:&&%**=>:O-&:@::5:$>>=21=21>>-%O;;54;**>-=;*-45>;#;-+**&>2;=*%;;;;%%:-o1-25:O=631131*->>>54-",
":XO>5=@:>>5754&>>:&OO%::&**,;=;*:,>,&:&&@+@:*@*@:O:4<:::==--=>-2>#O%>444*&+;-;***25>;;>;%;%;;2***%;2;*#;--o:1:6:o:04:-23&-3>46>&",
"@XO33:@:>>55<>:>::@@O&-$O-*;-;>-:&><::::&+::>*:O:+:<1::$=----:-6>#o*,4:-O&%-;;*&-1>;;*;;=;*;>>1=**;>*;&;-=O->>q*##69:-,,+&2>>2**",
"XO@3::@:>>51:3>>,*OO@-:O+&&;*;;;>::,&@::&#:1>&>O:O:1::=:=1->-1%6>#o->>&&OO&;-;*-12;1*-;-%*%>>>>->*24-;%>--O;-2q;##:91>>>%-:>>1--"
};
