/* XPM */
static char *Wood_23_128x1281739968659[] = {
/* columns rows colors chars-per-pixel */
"128 128 80 1 ",
"  c #45AB044B0000",
". c #47F506D40000",
"X c #46A90A8A0000",
"o c #486E0D4D0000",
"O c #4AF9145E0000",
"+ c #4D721BDC0000",
"@ c #501717640000",
"# c #51C51D2F0000",
"$ c #4F5220760000",
"% c #52FF24240000",
"& c #599B25390000",
"* c #55E02ADC0000",
"= c #5A122D370000",
"- c #5C71336C0000",
"; c #5F6E383E0000",
": c #61CD35C70000",
"> c #63773C150000",
", c #690B3E120012",
"< c #66A241340000",
"1 c #6A9C44E70000",
"2 c #6E1A49BD0000",
"3 c #70CC468A01B3",
"4 c #71CA4D800010",
"5 c #702B475D0C7D",
"6 c #74414D530DC3",
"7 c #75E652C10009",
"8 c #79625675000B",
"9 c #7D485AAA001E",
"0 c #763C50DE0CA4",
"q c #794353F30CB0",
"w c #7EC65C110952",
"e c #75E24FE60F94",
"r c #7B42559512DE",
"t c #7EC75A8C12F8",
"y c #7B2353F81A01",
"u c #7E7A58BE1B88",
"i c #81335E890072",
"p c #81725EE30A2F",
"a c #81F95E9C12A6",
"s c #82915E251B9B",
"d c #8497622A00DD",
"f c #88F16693013D",
"g c #8AB2685A0188",
"h c #856B62EE0BD1",
"j c #892D66BD0C57",
"k c #8BB869470D2A",
"l c #866D63EA1295",
"z c #894766C61323",
"x c #8CEC6A9013FB",
"c c #8566625E1B19",
"v c #89646709197A",
"b c #8E276BD81A52",
"n c #90D36E381599",
"m c #91286ED41C48",
"M c #9263707D176B",
"N c #9394711E1D7B",
"B c #876F6257229F",
"V c #8F6A6CC820FC",
"C c #91726F35210B",
"Z c #949C725B241A",
"A c #9953767D2478",
"S c #9B6D78912624",
"D c #96E574CA29E0",
"F c #995A76EE2C7C",
"G c #9BB979092D9F",
"H c #99B177C03000",
"J c #9D017AA6335F",
"K c #9F827D523872",
"L c #A0FE7DE42DA3",
"P c #A0E37DF935ED",
"I c #A17F7F063A56",
"U c #A371805C37A6",
"Y c #A3F581533D6C",
"T c #A6B8840E4182",
"R c #A93F865D4453",
"E c #AB62885846C9",
"W c #AD518A7B4A27",
"Q c #B1608E3C4E98",
"! c #B2B68F7D5018",
"~ c #B4B9917F52A8",
/* pixels */
"9<89%#2999<%91989879U9979vDw9>UZQZHZhiIH;;<$w22$28729wd9dhTWCCip8799i79f9hM7chiffDCAYDzkInid94<i<=vi8iiP7,qk,:ii,34,fVd28>-;819<",
"8<4dO&1d99-;8<989999U9999wUw9;UDWbKZbfTH;*$Xd72-88779df9klTTHC987779999ihhk7cp9gfDCATDhzRNii941i2:biii8P5:qn>,ii,31<dzd19112=4h>",
"9<99#%<898*;9;948889F9w88xUk9$UCTDRbZpYD;;**9d2-999299f8ChTTTZ997799999dhpj7CiiffAZATDpgRndd8>1f8>bpiiiF3#qk1=ii<%8,dz9<882<=4h<",
"i-dd&=<849=7f-949948N9989tZw9*UVJDQMbhTD;*-<f927998<9f99DhTTYD79777d97ddhhd2biiidFbCIJphPkig1%,i9<xpiiiF1#ad1=ii3%8=899<9822-4h2",
"f ii&>28d92dd%749888Z9999wUw9-UVHZDHbpIH;$*;99<<798;9f97DzYRKC72*7892999dkd2Ci8idGCAIApxPxig,@Oi83zpiiiP,=pd1>i88:91d7d<d98<84h2",
"ioii&718d929d=239798F8999wUw7>UZIZDHChTZ;$*;99<;8<9<9279DkKTDD99$778299ddCd2CfdfdGACRRpbPkid,&#i83ziiiiP,:pf,1i98<9<97d<d99271h4",
"i*8i=9>9d829d-<499j8U8887NUw71CDKmHKblKH<**;d9<-77779998ZjKTCC79+77979i99Zd<CdfdiLCZRWhnPkgi,:3i7,kii7iF,=jf:4i981i>d9d7887-91z2",
"i1ii=8:9fd2d9>>79999Z88w4UUw9<DDKMIbClTH2*$<dd<;72779i97ZhKIDD89;788989idC9<MdkdiGNSTEnbIzgi=33i3@iiiiiF3:lf=8ii12d7g9d2d91*94z4",
"i<28>8:ifd29i8<89899Z99w7MU89;UZHDTHDMKH;*$<f92<97899998HjKTDH99;777999fjMd<ldMdiLmZIRNNGjg8-72i<#fiiiaA7,xf=4i8;197f9f<992%84m2",
"d<1d18,ii,*9dd>4989xZ98w8mUw9<uUTZITDCKH;;;2f8;<89899889HkYRbDp9;8829999kxj;ddkppPLbPEnDGkd9-24i<:piiiaLi3nk%8i9$297f991988$88b1",
"d<2i444ii,*9d8>3999tZ88w9CUw9<UUHZKWHbJH<<;<d9;<8897898dHHTWCxv9<772999djxj*ddMhkLmmIIxSPgii=4<i1,ziiiaAi3nj&4ii$198f9g29992-9n1",
"i498748ii:*ii8:,w89wZ97w9CU98<UtJDKIDkKH<<;299;<9i8779lzDZYWbDv979d89979ljj;ddMxaLCbITxCIjh9>21i13liiipAi3mj:,8i<>98d9929982O9x1",
"d4988,8ii,-999>:999wZ79w9UUw9<UUIZIKmZKD2<-;7i;<999799lxHCWRHCv979979<99fi8<ixkMpLZxTRbCPiji*%1884x8iiaAi3mk,,ii-%:79dd28982o9n<",
"8<d88>98iq49891=999xC99w9tUw9<UuTZITZxKD<7-;99;;7i8799lkDCWKCDv897p99297899<MzxHiHLaIPxLIfhi-%1884xiiiaDi4Cf438i>O>7ddd2d98<+9x>",
"d-i88188i84did<=999wC79w9UU98-UuTMTHZjTH27;*8i;*799799pfbCWYCDl297v992979id2DkzHiFSvRGxIIfi8>+1<88npiivF81bf449i:@:4d9d7d99;O9x1",
"d$988888di-idd=1988xZ9999UU99-UUTDTKZjKH<2;;l7;$28zi899zCCWTCHl299v77297di92ZxxHiPLvTLxPTij82+2-78xjfizSf3mh48ii>+:>ddd2989-oib1",
"w-979979w9;999*<99wkZ99v9CH99<ZDYCRHZjYZ7<$;x8<*29v9999jDCTTHCl;77v97799fid;vlMHiHHkTHMHYfj8<%2;,ixjiibSf3mi,8ii,+=:9fd189d<>ln4",
"9;979999w9$9g9<<99wwH98v9ZD99<mZYZKTbxYD8;*;M8;;2dz9999vCDTKZCl<99vd<997i99;MkxHdYKMTDMYYfj81$2>3ikkiizNd1mi:3ii,#:%d98<7991>jv4",
"9*97999wg9-999<1999wD99g9DZ97$bCYZHHbvYZ7**;x9;*77p9999vDCWTCZl279x99997ff9;MjlHjTKMTSMRY9k01X11,4zkiizmd1Ni138i8oi&d9--$99<>lk8",
"8-78999g99*999;19w8wU9fw9ZD99;bCTZHKbzKM7;*;l7;*78p9998vvCWWCZp<79z998d<9j9<DikHkKHZTHMTYjvr1$82-1xniivNi,mq1:ii8$d%dd++o891>zx9",
"7*77999979-9ww72ww8tY9wf9CD89<bZRZTQCkHb2<2;w9<*99p9999MHCWWCCp299ld299<dhi<MhkJkYDbYSMYFjCq1O>7O4zNiiaAd>m71:ii8<9$887#<972<wMk",
"9*79999989*9w972998kU98w8ZH99<bDYMQRCxDz7<2*pi<;99l99d9CDZWYvCp2ddl9889;pjd<MhxHkYJMYLkTUMvw<$;7.4hkiizSi,k34=ii829%d97%29-74jbj",
"9*27999989+99921998wH99x9DD98<bUWMWWCMZz277;ii<;99z9899vHDWKCDw<d9l9f89;pjd;MjxZMYSMUUMYFxxw1<-9%8dki8zSi,j34:ii74i*d87+29*49xbw",
"w-;7999799;w99<1998wY89b9DD99<xDTHWWCxHk2i2;w9;;99z999pvCC~KDCw<99vd977;dli;MxxJMTUSUSkYUxxw<229o8ikiipDi>i44#if729%782#28>42wbk",
"k;-79994894999;2w88wU88b9ZN99;kUTHRTZMHM89;<i9;*99l9999bDD~KDDw;99l9f89idii;bbCKxYUNUZgUUMMw>;19oi9jidiZi>d4:=9i4<7*<92$291*4wuM",
"x-299992792999-2988wU89M9ZU99;wUKHHKMCKk89*<89<$997dd99zDC~KKH92i9lid7ddii7*bxZHxTxUUZwUYktr-+17*i9jidixf=d8,,ii712-;42$>91<78tx",
"x;79999479<99g;<998wH78t9DDw9*mUJMHHHxHj992<ii;$277d988vHHQKHHp<99h9d99d9w2*MbDHMTHUUTgYRxmt;+-4&d8hi8lmi&k81,ii91$>*<*<29*247uM",
"M;99979277<999<<992wY88M9ZDw9$bDRHHTHMDd9d2<ih;;7879888lDHWWKK979i9d899dw7e*MgDHkTkUTRkYTxCu;$*2=99igilmi#fi3,9i91$2-*$;O9*717rU",
"M299929979<999;*988wY88C9bU99*tUYMKRZxCd7f279d<<9977979vCHWWYK979d88899d997;xdCHxTkYTUxYTbNu<***:iiiddxxi*f84;9992$7<$;<$9<4<7uC",
"m89f929979<<w9;-998wU99C9UU97*bZYZYRCxZd2h<7dh<<999779wMbCWWKK979i78899i999<xiZYbTkTWZkTTMUu;$<+:iiikfvbd%844>w99<*2;$+;<7<--7yC",
"C49g9299892;gw*;899wU79C9UU94*bUKDYTCxHd2p<7dx<2997977lMZZ~WHH979d779899fd8<x9MYMYkTQMgYRxUu*$4$#i7igibb92d71$9991>2<*;<<9<--7rt",
"v09992w9992;g9*289wwU99x7UUw2*wUYCHWMxHh2v279l<2997729lbZM~WCH99979i77diff7<kdbKNYkTQUkYYUZt;<9+.diikibbh<9>1$999217<+->24--;44U",
"be998=i87d1%98*1888tG99S9FH9;-bJYxFWDbHj4n149v;1799729jlZxWTHD999979878ddf5,jdbGNPnY~IaPPFZx-2d&+iiig8Cbd<9,1:ii81>47$;127-$*1eb",
"bq948%i879>-d9-4888wZ9fF9UU8%-mDYCbYkbHd4x<7fk-2899779xjDCWKHH999878929did6:jdzCAIMIQIpLGSDb->9<Oifii8mxd<d,>>88i1>79*727<-*$4em",
"mt82d-9998<-dd-4788hH9bS9JJ4$;CUTHCYnvDj4x1499*7299788jhMHYTKH97287897299i6:iinFAIMIIYjPDSZb-%91oid8iixn9,f,&:44i1<99$277-;*$4tN",
"mt728-9di8<%9d=1788lH8vJ9UY8->CNEKZYmwDf4n1899-799998ijkMKTTKH982188922d7fi>ffxFAIMIEPjJFCZN>%81>ii9i8lFi1i,%:89i4*d9$177--%$4tD",
"Mt124>29991=8d-1488wH8lJ9HU4;<NbEYNYClNw7x7999;8d977d9plCHWYRH88488981-d7dg1kfzZZPATRLjLJmJm4<123i4iiiaSi=8:>188i1O99+$87$O**7lx",
"Mt<84;77991%79<>798hC8vJlHU8$<vUETbTCkCf8M8ggf-8d98798wlCKTKTH8897997;794d92kijFmPDTCSaPJMSm71143i77iizFiO1>1184i<:>8%$84$*-+99l",
"bt;92>289>>*892%298lZ8bDlHU9<;vWTTvJNjZj8x9999-4d99998whZHKYWK82928972298d92gijFAImICSxKSmJm7>49,i7iiivA91:,1,i<i2>>8-%22<;$19dl",
"bz$f<-28d><<8d>&798hZ9lH9UU9;=mTYQHUblDd9n94ft21798997phZKYTKKwd8499282dd9d1iizFATnECJmPSmFm71813g7iiiaZi8-3<>i194>>9<;<>;>*<49k",
"mzO8>*28d1>>9f-%8899Z9zD8UJ9>>bKUYTUkkU99k98jt1<9299d8whCDRYHK9f998927298if4iixGmTZILANIFxPm438:,fiiiiaDi7:81:9<94249112;=1$<4fj",
"mx=82$7928-=4j;=8898D9zJ8JF9-<NTtUWYwwUw9k98xt<29d79998hDKRKDH99898f<779iii4ddjCmTnRZSnTSnCm>27%1id8iizAii44<:81947297>7;$1*479j",
"mx#84o99871*2f;<7988D9lH8JFd><NTUUWRMMUw9x99vr>79f77979hKKYTCH78998g278wifi:idlFnEZRZGxRPxmm:1<>>i48i7vAi8371-84g78198897;<+*89l",
"mx%94 9998<-2j=14898Z9zZ8FJ9>>bYUUTWtCUw9M99br<79i78988pHKYWHK9799792<79gii=fdmAkImRSPxIJmZm=42>>iiii8zAii38>=13949-97999<;OO<fj",
"mz=i8o89971*7k;2282999zm8FU9;>MKUUYUxDUb9b99Me229d79979pHHKTHHp8999w7<79fii#ikkbjPkRSAbLJNSm-2--,79f88vZi834>=>89;9*98999>1>+;9w",
"mx#f8*9791**<994298999vm9JJ9-2vYuUUUbZDb9n99n22<9d77899hDHRRHxp999987499gii,dixmdPkIZDZPDFCm:8*%2f9di8lZii4,>->89>9*994941><-*gj",
"bl%d9>889<+$4k-8292999zN9ZJ8-2CYUYUUCZUNgM99M2-;9d78f89lDKRRHDw989879799iii3iibNdPxITDDLZSNm<7-Oof9d88pZi74,1:=89;8;9f271-;*2*9w",
"bl+d91819-o$4h-7482779zF9ZJ8<2mTZTuUbbUN9N99b2*28i78d87cDKYHHD9799997999idiiidnnfIxTWDPGDmNb,7%%odihiixFii7,<::i9-9279>8<-;%2;99",
"Mh d9244d$;-2h=<282789vJ9ZY81<bmZYHYuZHt9D99M7;28f77789wDHHKYH79989w4787999999wUdTxI!FPLZmGb22%4@iiii8iFi<,1>>>i9>92;9-98;=+;;89",
"mh$d94:4h#;=4h-1:89889xF9ZU8$<xHUUHUUZDU9Z99x7282878899wCDCHYH78899g7197w9989999iRzIQIJPDDPm22%7#iiiiiiF9O>1:1>d988*19-991;$;>w9",
"Nh di4=39<$=8h-4&8d888DF9FU9$<vJDYYRZZZb9Zwwt7287897899wDDDKKH8989w92<71999279U9iThI!LJIPDPm22-%#iii8iiFi%-1<<:i949X>9-841-*4<89",
"ml$8i8=49<%-7j-4>8g888DJ9DJ91>kFHYYYDCUC9UgwM2222987899zHDbHKD8889977<2<999429wgdTjTQNLITAJm82%-%ii8ii8F94>>->:9949+19$941-;21wd",
"ml;i88>481=*9h-218f8d8DF9DU9<>kYUYHDZDUZ9D9xb<<<9f447g8vHDDbDD8879989-<<999<17wwgIjI!NPEIGGvi,%&:ii8i8iFi14:&><id197-9*92;=;1<99",
"ba7988>,41:%9h*11948d7Fm9ZJ92;lYCTHUZVUZ9D9wx2;;9f87799vCbDHHD8298478$><999<17wggIhIPCFEDGGvi,*&1iii8i8Ji17:--1d9<89;9$9>-2;$>9f",
"bq8d78>>81=-9h%1>98798FZ9NJd;<lYDYYUZtUD8D9wx2$*8987889vbDHHHH728299<$>;999;18wkgIpIPnDTZPFa,3=:3iii9i9Gi>7>-*1i948919-9>=2;$$8f",
"b47988&%8>--9h><&d8988JZhZJ9<<wUDYTxDVUD8Uf9m7O$8277899vMKHHHD729799;->*9g8*;99wfPkIPbVLIGDa,,&31iiiii9Z9%4-&&38g19949;9:=1;%-99",
"m418i8&X81--dd1>:d8898DZlDJ921hUDYDCzZHH8D99Z7$$9997999fZJJHHZ929299><>-9g9;;17wiInIPnZLEPDa8%-1,ii8ii7m8#4:>-499>9829;9-=-%%-dd",
"b4<188*%82>-9d<12998f8DZhDJ9<;zYDYDCzmbU9Hg9D2-*9997878CDHHKHC97999d22=>999$*87wfInRPkCPPNDt8->1,iiiiiib9.1><=4i9288-8-9>+*O+>9d",
"m42898&477&:9d-18898f9ZmwDJ9<%vUDTDZbbZU9DNfD77<9997d79ZDDDHHM929d8d2>%8gw9->92wiPkRPgAHPnSrf-127iiii3izi>>>4:>i7$99-1$9>+* -<9d",
"n2>d79&182#-dd*28998d9nzwZH9-%vJZYZmtZHD9DZ9D2229989977bbHDKHk77997d>;&>twU$292kiTiELkASInGrf=1>8p8ig4ivi4>>4-*i8o99O-=8<+-X<7d9",
"j4<i48&412*>99=48888d9xztFH9$$cJDYHbzCZH9ZmwD7<89979978bDHHKHz989979<:%>tnx;794jiTiQPFGSTmSrf=1=iiipgfiki91>2;-98;88*$%8-*;o>88d",
"947848#><>%1d9129999d8ZzwNY9-*tYDUUmCxDH99g9Z2<7997d897CCKbCHz87d888>;=>tMx-297wiIFTPZGGEAFr9=<-iiiiaiiii88><--89894$-;8>2;X*dd9",
"j<id<i#%=;1;dd188999f8DbvmUz--tYDYDtCmZD8999D22<997dl98DCHKbJhi29944;+;>wZn-492wiSFTPZIGPFFr8#,=ii4ixfipi841>--84999-*17><;=*8dd",
"z,9d:iO#:;1-dd<28h98d8ZVzZJl--tUDRDCZCHU7jkfD<2<998dl98MHbKbKz9999472 -*8Nv--9;wiJxRPZEFJSGq8:3:i7iiniii9814>=-91f99<+>82>=717d9",
"v,9d,9&%-;<*w9<8999799ZCwZUx+;uYWTHMCZHY9xMjH2<;998fl99zDKHDHl9949877%&-8bb:$d%jiPnRIAWLPGGsd:1%diiinijii8<4,&%8:988-%;8<;*41799",
"z>49,9=<-<;-w9;79d9878ZC9CYkX<vHKKCbDDDH9xzbD2<;i98dlf9zDYKDMz9949441%-+7xb>O9*diPnGLCEIIJDaf%<-8d8dk8pd88:4>-&8Oii8$-%81;-92<f9",
"9*7i4i=:$-+-9U*2997789DC9CYv$$uTYKbxDxHHdbzxD2<;i98iz99xDTYYHM99<998>-=%4xb;Od78dGkGEPTIJFDaf*2:4f8ikiiki7,4--%7O8i7+*$<>$-92-9f",
"g*7i4i==$*$<98*;dd79d9Dv9CYl<*tTKKMMCxKHdMzvD2<<ii9ih89zvRHKKMp849991<%-4xm-O94iiLzDEPIIZFZad-1>,i8igippdi>3:-%7%i84*<=;1*>9-$8f",
"i+8d79=:$$*-99*29977f9DZ8CYj7<tTKYDMZbKKdCkxC<<<9d89fp9pMTDHTMp82999;1*<8xM*+d1dfPjSELTZFFDvd,--i73idipfii>8>=%8 ii7$7$12>29-*89",
"d+8g78%-O$*;99;4p97798DC9HYj82tKKTDxZxYTdMhjv*;;9i87bj7dDKDCTbl889981217hzm-%d<iiPhZTITLJFGxf,&&igfipiji8i-31<%9<997%7+72117**9w",
"d$1918*7+*$;9228p98898DD8DYw7<wKTTZjChYYdbdjl*<*8989CC8dbDHZTMp9<449<2<7zzb<Oi;diPhDIPEPGGJzf:@:iiiizipi9f=414&i9i91$7*817172;9w",
"d+49<8->O$$-9*28d977w7DD8bRw8<lTYHMhbhYYdb9xl$*;9298MC8dxHDvTM99<8991<;8jjz>28=9kLkCTPIPDPFvd::&ifiixfiiii:412,9i9i,-4%8<7<7<;9w",
"9;7818#*;**<9;27d977h9DD7CKz9;lYYHCh99YYiM8xv***9d97MCd9CKDbTb89>99818<8zhh2<d2dnLnnPPIECGAld;2-iiiiijpiii:i11>99972*7*4;1;<$$99",
"2-89>8o*<**29*<79877l8Cm8vHc9;vTTTZdZ9KYdZ7vl*<*7d89CCfpZHDDHZ89;989<417zdh;28>9nINMIRLRZIFlf%7:iiiiihpiii,,1:=i9997*9;o;1>17-9>",
"<%9g,8X%<-;<7*<7977898xz8bHl9<lWYTMdbpKYiD8jx*<$9999Mx9lZHHDKC99$989;1>>kkb=1<2diIDVEWPIFEDzi-4-ii7iiipiii,i4&&i9w97$9-X$<;>8*9>",
"1%9g:7 %<;;<7;;89878h9898bHl9;lRHWzdlwKY9D7jM*;$9d79jv9lCDHDKC982998<1->kzN*1-1diPAbIWPPFTDhd>17i7iiiijiii,i1&=ifw99$9-X*<298-8;",
">%8i,8.1<*-<7;<89878vi999CHz9;xWKRbvlpHK9H8ip;;;9i78pCdlDMKDTCh819f8:1&-zMx=2->dkPAkYWLYATCl9<17iiiiiibifi@i3&:i99w9-w>X;<79829>",
"-&ii=7o>;$;<74;899<8lp999bHh97zTHHvMlpHKiZ8il;<<7i78pDvvHDKCKDl81899:4%-zMz*2%=fbICARIPIATLl81,2iiiiiiBiii@i1:18w9wg>9;*<229719<",
"*$i8=4O<-*<297;49d$7vd79wzKl77bYHMhMzxTK8Z9id7227d78pCjvDDHHHHp82919&4=-jbz-2$+dCPCARPIISTFa1<<4i77iiiziii@74::iw9f97f-*1-799>97",
"++88:<O1<42294$79d+9v9779bKw27CKYCxZxDTKd97ii2<27d88wDhvCHHHKDh84949=><*hbl;2%+fnPmFRIPIAIGp<-24i7iiiipiii@i7>3df9999f$>;%7992w7",
"2=994&O2>41291 88928C9788CJl<7mTYCMCCCTThd7dd7$;7d8d9ClhCHDHHHl99948-;<$kHw-4$>fjUSHEYUYDYSh,-48i7pgbiiii8384<,i99999g*2;;199199",
"2-9d4#+<>9;<d>o887<7z8798vHz<<CTYDbbCCTKd97d97*;7d7ffdppxHKHKHh99979<>1OvFl-4->8fHGSRYUQSEPa1-74iiiibinii848113i8999f9-7=;188<89",
"1-974=%1>7;Od= 888;8877i8CHz<<bTKDzMMKWKd97792*$8iiw7d9wzHKKHDh84989>;>*jHl*8$<8jJFZYYUUJTPh1=747iiikiFii1881,3999899918-=789148",
"1=992>*7;8%;8*o877*888788CCh<<bKKMbvzKKDd7929<**79ii99dwzDKYKDl9888f21<<dFl-4*48NYSmTYFJPPJj1%473iipipLii%>81,8i99g989489+48944<",
"1-992;*4;7+<2$O999<879798MZh;<bHYMjvlKHHhid<d<*;77999lx9lZKYCCl848922<>19Hj-1-49ZYSZTYGSIIFh<=1747iiiiFpi%:44>8899f9f9989<798-9<",
">%89<4$117O1<*<999;999878CCh;<vTKMlbxHHHjdi8d2*;77i99lZdlZKYCMl89889<1;49Hj*1%;jxYSDWYFSPTS8*1123iipiiFii4:4<:8i84g99g979<779*8-",
"1$49;4O218;<<%1999<999788MHj;<vKKCbjMDHKld99p<*;8799ihZdzCHYHCl97999;2;99Dk%1-;9gISFQTUSZYSi-844,i88iiJd94883:7i94g9f9g87<4w9-8-",
"1<=9=2O-28-1<%2899<i97978ZMz<<bTYZDjMDKHj9f8d;*;97899lMhlCHHYCv92989;<;9wHb$1--9kIUN!WTGSID9%d77:ii8i8Fzi4441>1i99f899977<>f9-7*",
"4*:9&,O:29$2>-4997<d98999DZz<2CTWMDdxZZTkii9j<;$97899zj9hCHCJbx9;929->;7wUt*1<>dxJJNQRYLnPSi-974=ii988mji71413,i99999w9972$99*<-",
"-#>8<:#>49*1<*999i<iv79i9HDl29CTWZZhlMZKh9iih2*;97f79bj9wHKCYCxi;9f9>;17xUx-2<-wbSDNYERNxRPp-92-=i8iiimii484<44i999<gww971+99*<-",
"-%<i1-O<49<4>*988i<hh9999HZl<8CRKCbh9zMKidf9w<$<97989xj79CCHYCxd4999>;<7CZb;<2-wmIbmRIRNiPDa&d*%:8i9iinii4%4<44i999<999971+78*1$",
"2+891-+%>917<*f49i<9z979dHHh29ZWHCvfhlxKidiip<;;97999xj99ZHIYCxp49g9->28xCb>12-fxFmCRYIkiLLa-dO==i9iipmii,*4:37ig99<9U977>>79$4+",
"4-48<=o:<942<*87i929p898dZHd77HWHxbdlhjKdi9di2;*98797zC99CDYHZM94989;229MHb212;jkSACTIIkiPPa&i1>#iii8pNi9<=4-<8w9987wU987;899$7*",
"4289:=.&29421+999i28l877iZH927KTHMbpllzKiddii<*$87898lC9pZDYZHM99899$249bUb<<2;jxHSmTETkiPPz3g4%@i4i8iNi91-7<-89g994gw9292799$7*",
"-489=-O$-7224$9989;dl988dZDi;7HYDCCpzphYi9999;$*99999zCdzDHYHZC99999$4<9bHx;12;wmALFQIRkpPLz8g,>Oiiiiikid2;8<$299997w99<92998*7-",
"*-49--$*>9><7-9977*9hh87dbxl;7HYDbDlxphT9d799;$<78899vCdlCHYDZZ99999*2<9bDb>72<jmJJF!TRfpPDafi&7&iii7ijf97282%299787w99<9;999$72",
"%*&9::#&>9--4-8988#8hb789bk8-4SYUkDvMw9R9f<9f-*289897xw8lbHHHCD99998$>49bFb<7<>hbLLDERIikPGxidO4<if988ipd81i>=4i8ii4k9d78O998-48",
"$;+8><#<49<>1+9989#ihb787bx882SYZMDbZz8T9f*99<$279998b99pbKKHCD88898;%;9xDb>71-jZANAPEIjmJFldi%13fd89iiii:4i:=3iiii3bid79*989*99",
"*-$9<1%48i,>4*9899-lhv748bk814HTDjHbxj8T89-992**<8899z979DKHHbH94849-%-9vZb-4>-zFGLLPYIimPJlii44=i99i8iii>4f#-8f899>zd989%979%99",
"*;291<-88i<&3-98i9>7lb789bk9>1FWDwHbb78T89*92;;$<7899z899DHbHMHi4749%>*9vZz=2-:xzPAIYEIjFPZzd91<Od8i8ii7i<4d#:8ii88>Zhd88%794-99",
"%>>91>&79d<%2-78i918hb899jb9>1SWmwUCm99R29*9922$<7998x87iCKDDCDd8428-+$9bxl-1>-znFAPWYIbmPCldf>>#i7iiiv8i11f#,8if4d>Zkz87*8w2$48",
"=7<91&&2992#7%7999,8hh8899M820ZImwUNzw9R<9<8f2<*27997t999HHKHbDd4229=*-9cZz*<<>hiSmP~IInkPbjdf<23i7i7ia8i4-d%18ii4i>Fza87*2g2*44",
"$9>8<==<9i7O7+>99i>8788798D91qmbMwUZtxwR<9<<92;*47977v999MxKHCxd7<77-$78lkb-<<2jiSAPQIIkvPxadi,2ii7i7ikii38g%1idi88-Dbt>4*7w8*17",
"%9<81%-<882%2O*7ii=4898799Jd2qnZU9DUwxwY<92;g<$$77927x999bMKCbhd7;27-+18vlb=172fiZmGWITnjLnji94<ii7i7iaii:8d=3ifi88&Dbt4>+8w9><2",
"%4242+->98>%4-;798-988879dJ922VDUwUDtkwY<w7*9;**79927vl89zCKMbid7>29+;<99zz:281gfSnPIIRnpPbiii#>4i48iiaii:7k:4dfd98=Hnt1-+879281",
"%1;92=;-8d1%2*22d9<788788dDd27bCUbDUtMkY;92*9<$*77887zb89vKKbCi97729*129fZN>281diGNGTIIniPmii7:,7i78iizii@7b:4ii999%Hvw2$*729894",
"*-+92>;$994&1<829i1889989dZh28VCDtUCxxxY<9<;92$*78782xz79zHKDZ97<819-<19imZ<194ijGmPEIIniFmfi773iiiiiixii=iv44iid99%Hvl-$*899997",
"--O92>--892>8<78ii>9hld78dZl28ZbUVbUMkkU<9;<w-$*7989izz7dzHHbH99$929+279iNZ<7i;igPNLRTLj7Lmfgi7,3i7iiizii&iz13iid99OHkw--%8899f7",
">-+92<%>49129<78d9>pll7849Dl<4DmUbUZwUwU<9;2g<$$878989d99vHmCCpi+947$<O8imD1#i#ifGmGRIGx8Pxil18,,i4iiixpi=7k:7ii98d$Fxt2>*999wg9",
"<*-721+788%2d<7889:pzl297iZl24ZZUwZUUwwY29$<w2**88999Zh98hHKHmp9<897<11wdzb>&7:idAbJTTZx8Pzfx48,7iiiiinhi=7x:3if99d%FZ922-999wf2",
"<*-222+879%>9>878i:pvh289dDh<2DZUwCMU9wY79$-w2*$77779Ch99iDHmCz9;788222t9xm117:ifGVPWIDziIkfx38,8iii7ikpi%1k,3ii98d*DD9<2*9999w2",
"8-$;2<$889*>d18798:izh288dZl>4DJUUtUU9wY29-*w<**27899zhdiiDHDbb7<997<29t9km133,dfGmLQRFhiPkix4i,ii7iiivpi:8j338i9d9-ZF9<8$99999<",
"4+O$2<$8891<7214i8=izl189hDl+2FJZbZZCwwT2f*;k2*-<7999MwgwtDUUwt7<997<<2twwM<2879fFmJWIShiGjda3ioii77givxi%ij1388998*DDd28%878491",
"4-+221*7791194<2i9=iza989bDho4FZbxCbZwtU;9*<j2*$<7899wkg9wUZTUt7<897<<4u9Uw;<899dDCGEINaiPdfiii@iii7iixzi=8h,788d8i*ZH919*88979-",
"8;+4;1$7782497<2f8:izl99dkDz-4DZmjbmMfCY;7*<w2**<7898ww98wUZUUU7<292-1wu9U9<7w89iACAIIAiiPddiiiii,i7iibzi&9g>8iii89=ZDd>9=9884f-",
"4>o4-<*279179<27f8,8zi988gDx>2DHCwzZm9CU*<*2z2;*77892ww99tZUUtu9<998-<8u9wU;4999iANDPTmnhPidii3ii=iiiixz9*8k13ii399-xD919$98949*",
"8>X4-;-179179>28ii48b98d9fDb1<DDMxwDC9CK-<$<x22*7979<w9g9xUYYCt9<887;<8uwMx;8979iGAAPRbNzDiddi,ii@7iiimb9-4x,1ii299-xZ9&8$99949-",
"4;X8;<*479<29*78ii4px89f99Dx1-ZJHCwUC8DY;<;<x7<*7789299wxtUTYMm9;892-;7u9wM>9989iGZDIRZZbGdii,iii@i8ifvb9>1k,,ii199-xDi#8*99929*",
"8-X8;<*878;-7-77ii48b88i89Dh1-DDHZ9Db8HU<2;<t2<+8899999wjtHTUwm9<992;<<u9xU<g999iGSATWPkVJiii,iii=7iikjmi44m,1i8-9i>bD9o7-99949-",
"92;4-1-8792$>-79i88wm89d89Zl1;HHUD9Dz8YY<7;$g$<*2799999fwwUYUUu9<982<;1t9xN799g9iGDCIELpZFidi&iii3i8iilm844D>,ii%ii>zZ9%9499979-",
"f222-2>97w7*<*79999wN99929Zz1-HZYD8DM8WY<7$$9$<-98979889wkYTCUM9$9122>1v9UM2899giLDbIELiZF8df=iii,8iiilx8,>G>4i8$99<wM8;7<77999-",
"4*-$-4<999<*>*89999wN9997dZh$%FZQD9UC8RU<2*X9$;-98979899wkYTZZt9od92<><l9gM7999giZLvIPAiFF8dd-if93i88izm8,<G>4ii289;9x9$9>9;999*",
"4$-+>2<999O*4$79999wm8994zCx-*FDRU9UZ9TU;4*+p<<-97779999wtYYDDw9+9d7>><c9MU7g9ggiLLbPPkiGJqdi=ifi198ijjm3@4G=1if29849U929<9$99g-",
"4-1;-2<i98**9-99998wm89f9lDj7=ZFWUwUC9TY;7*$d<<-99778898wwTUZDww8988*%>c9Mx7gg99iFCZPPnjPJ4fi%id94i8ifab,=8G:1ii299;8U8<9>9+999*",
"d7i4-11999>*9*999989n8999hFz9=HFTUtUUwYU;7;<l<<$997<8989wkYFDYv99dd4+X<twkZ8t99wiLZmPJmjIL3i9%iii3iiiiaN,=8C-:9d->9;9U919<4O977-",
"i898%21if9<$9-999999n8999hDx9$UJDUMTtwYY;2*-w<2*7d7299999wYUNHv98999OX1t9nC7wg9gfNAZILAfEJ4if%7i7=pii8jN,:8n&>9d279>9w97817+977-",
"d8i8=<2i998*9*999899n8899jFx9-UKUDkUw9YU*2;*w2<$9f7<99g99jTYZD9w8999$-2wgMb7tgggiNZCTFNiTF8id%4d3:aiiiiZ417x:=d9428;9U827<>+92w;",
"d28i==<9982$9*989899Z9f89jFz9-HDUUUUw9UU*<;+w<<*928499j99tYTZZ99799992799MN9ug9gfZmZTZnjIGiii:<i,&siiiiA41ex<>99427>9U9481$-72w<"
};
