/* XPM */
static char *Wood_25_128x1281739968659[] = {
/* columns rows colors chars-per-pixel */
"128 128 29 1 ",
"  c #3F2216",
". c #442517",
"X c #472817",
"o c #482917",
"O c #452718",
"+ c #482718",
"@ c #472919",
"# c #4D2C1A",
"$ c #512E1C",
"% c #4E301F",
"& c #55311D",
"* c #5B351E",
"= c #5F381F",
"- c #60371F",
"; c #60381F",
": c #553320",
"> c #5C3621",
", c #5E3821",
"< c #603720",
"1 c #633B22",
"2 c #693F24",
"3 c #674026",
"4 c #6C4226",
"5 c #6E4428",
"6 c #724527",
"7 c #754827",
"8 c #724628",
"9 c #754828",
"0 c #794A29",
/* pixels */
"7572,#&##%>,3,::,,:%*&$&;84=2445581*&&&&===#-#2*$##&=842=<40$$:,3&&22724;$&$&$#;$112>:19082882<*>*-$$$$+$&=$*=&#=#:#*84&=&&1=<11",
"7872&#&#O%>,3>:,,3%:$$$$;8221444473&&&&$&*=$-=;*&&$$=852>250##:11%#2472;2*&#;&&=%<12#%19022888,$*&-&*+$#$&=$<=&+&$:$&46**&$,>1<1",
"8872&$&$@%:,>1:,1,>%=$$$284;124459=&&#&&&;&$;&-;&*$$,852=147&$:,2&&13733;&$-;#$#%125:$100520821:$*-2&#&.&o&&*,&&:#1#=24&&&&<,<<2",
"7872*$&$::>>>3,,,1::$=&$<74;2233401&&X*X;&&#=$--&;$&>74<,248&&>>1,#2;7232&&#;#$&%110##12055592<#:>-*$$&&$X$&&=*=,&1#=35*=,&2,<<1",
"7672*$;=@:>1:3,,55,#*%$&182=124447;&*$&#=&*$*&2&&=+$>842*258*::,:&#328112&*o;#&&#220$$28055502>>&&<-=+=$$#&&*&=&>,&$&24,&,&,:<2<",
"9872&#;&::,,31:35>::#&#&284*2<2244=&&$;$2&$#**2&&&+$>542*158&%>:,:$2;822<*$&*#=%:>05+:18052802<:**<&$+&#;&&&;**&>,2#=44*,=&,*1,2",
"9872&o=#O:3>,5:12>::&*&&<74-12<464=$$X2$;&$$&+2&X&O$>451,248&&,#3&&2162;2&*&2#&&%129$>280825522:>&;=#$&&&#*&=&*&>>,$=24=,&>*,111",
"8872&$=o%%>,:::,3>,:#&X&184=;<2362;#$o2#;=&$**-*#&#$:442*448&+::4=%2242*2>&&;o&o><88$>28885502,:=$<;&X#&*#&&;&*&&&,$*<4<&,&*>1,2",
"7874<#<&&#,&,>>,8,,&#&&&282;;<2184&#&o;#**$#&-*#$;X&:44<,245&>>:3&&1,4222*&$=+=&::25%:289828661:&$1<$*$$**&$<*,#&&&&=24=<<&<,,<1",
"7592<$1#&&,::::34:1>$$&*284;<;1483;$*X;&;**&&--&&;+#&251,<48&&>:3;&1,4<,1&&&-&,#%,85+>289828941$,&<*$#+*&*#*<*,&&&3*=;4;,<*<&1<2",
"7472*+,$#,,,:,:381::#&&&262;==1373=#&#;$;=&#$*&#&=X&*252*148>>>:4*#2,32&2:$&&+&@:,59+>288889921&$&<$##$*;$$*<*<#*=,#=<4;,<>,,,<<",
"7871&$=O#&,%:::,3>,*$&$=253;;*<283&$-#;&;*#$&;$#&&O&:242,148,:>35;&,222=2*&<*#&.%220O1227829021,<$<-++o$;&**1*<$&1*&,<32,<,&>>21",
"7491$+&&#*,,%::35,,:#&&&284;=*;472&@$$3*;;&&$&-X$1o&-;42*258==%:4;#1123,1&=&*#&+:,55+<26085592<&1$,*$$+&;o&*-*1$*****,4321&&1=<<",
"947-##&#%&,::,:,3:,,&=*=484==&,47;$&*#4&;=*o$;$$&#o&-255=258&&:>=&&1112*3&*=;o=&:>55#<269888961<,&=$*#+$-&$*-&<#&;*$&,3;2<>,,221",
"968=#O<=##2::>>,3111.&$=374==*<57;&*;&4#**##&&$X&*#&=242=145&&#14=&=,22*,*,*&o2%%>82#124955572,=*$-=$++$=#&&-<1&#2$&,=4,22,*,21,",
"846=&#$&&&;&%>:,3%1,+&&=3742=*146=&$*#8&;=#&*&$.&&#&$244<144=&*,&=&<,21,1*=&*o;&>,11$225985802,>=&1=$$.*-&$-=&<$+;=$*<<24,*><21<",
"988<$$*<%%:::::,1>,1$:*<2921*&168;&=&*3&=;&#&-=#&&&*&242=248,&::3;&<211*,&<==#=&,,33%225988592,&*&*-##o#&$#&><<$*2&&,=2241>*,<12",
"882<#+*>:::%:::3,>,,$>-<294***1632&**&2**=+$$-&o$;o#&254*244*%::,=#,121*,,,&;#*#::1,#222888802<=-&&*$$.$*&&&>&1$&2&&=*2242*<<3=1",
"9821#&&*%%,:%3,3,:>:+$>1292=*&183;&*&,6&*<#&#-&o**&#*344,253*&,>,*&*121>*,<=2$;#::11&124888492<,&&$-*#+$&#$&=&*$&*&&&,2243=<1111",
"822<$+<:+%%:%3,1::,3#:><295<1:183;&&*,3#&=o&#*$o**&#*154,1541&:>2&&=221&=,=**$;#:,3,>125958892<,$*$-$+o$-&+$*>1$&=*$&*;242<<11=1",
"9021$$$&%#<::1,,::>5@%12282-=&1711*&*14#&;$&&&&+&&$#*254<3581%,1*&&*21=*<,,&&&&@:,>>$124984892>>*&*&$#+$-$$*&&1$#*#$**2343<,<,12",
"9221$+<<:+::%,,::::5%:<2494<*&261<*#,,3*$;$o#=*X;$$$*284,144>@,,,&#;211&&<>,=#3&>::1&126888592<<*$#-$#+$;$o&$,<*o**$$;;3341*21,1",
"898:$$<::+>$%,1,:::1%:<1282=,,58,1&%>,3&#;&#$&;$2$&$=<84,258,#>:&2$=311*,,2<=o3&>:,>$222894692*&*&--#$o$&##-$<-*&$&*$==2222,1<,3",
"892>+&&:<$%+%,1,>::1%%<2296-&,29,*&&1,,&#;##$*&#2$*$*254*246:#>><=&;311&**,;;$1%>>>,$<24985671,,-*o$$$o&*#&&&*<&#$$**&;22;1=2*23",
"982<##:>&$$<:2,,>%&5#*;2275=><28&***,,4&$*##o**#;;$$*;7;,458&#,>,2#*221=&<2<1#1,>,:%$224786892<<*-X*&&o$&&#-&*-=+#$$@&2<;42;2,14",
"922:+<$$&$#&:,,:>%%4*&<2472,=,48=&&,%,4&#;o$o**$2**o*;74,247&#:11*&*211<&1<<=X&,:>,:$224774891,&-&##$&+&o#&&&--*X&&$*$<234311<12",
"992<+*>>=##:>3,>%::1&,<4484,*<54=*%*,:,,$**##**$;$*X*174*458&X<33*&,2<1&$,2,,X1:,>,%&2247888721<&*X$*$#$&X$&&;;&#&,&&&,<;4222,24",
"9822#&2$,&#>:>1,,:%,#=,22841=244=&;,314#o*$#o$*$2$-o&<73,457=#,22&&=211,&<,1&@3,>:::&124788492<&&-o&&#.&#&#*&-;*o&&$#&<1242;2,<2",
"886*o*2#,&#<>:3,:::2#<21475;=144=&%&:,>&$;$X#-$&;$&#&<84,450&&332&&=221=&=,<*+1:::1#>116798871<,*&$*&$+$*##&<<;&$&*#&&-124221,13",
"792>+>2<#&$#:3,>>:,,&&,2274;=25<*;o*:>4=o&###&$$;&%+&,75,457*&>,=-#=22<,><<1<+,:>::#&,24984892,<-&*$$-$#&$o*&<=&##*&&$&1;;342<24",
"662<$#=1>&@%:>5>:::2&*<1484<=451&3&::,;*#*o$#$&$3&*+&,85,457&%1,<;&,122-*,<2*@>>::1%&22495447111--#$$&#&$&+&<<=&o$*#$$&-222422;3",
"782*$=;2:%%%>:,>>:%,:><2284==381*,&,:1;##&o&$$&$;&=#&,85<458&o:,,*+<2<,<&,<2&X,&%>,#,<<486487<<=-$+$&*#&&#+*,2=&$**X#=&=23341222",
"692<$,<2&;$**1<3,>%,:%,22741148=&1=<>>>::&#$X#*&<$*$$<88,558&*,:#&&<<2,<&==2: :2#,2+-22266427<<;*$o$&$o$$#$**;=<$*=+&*&,<2482222",
"682<$$,3=**&**43:>,3%&,2275,;47=#<:,::,:@&###o$&<*$+$>95<226***1&&#==;1<==&;<.:>%,2.&;;2666671<1&#o&$&$+$&o&*1<1$$*#$$&-,1442422",
"686>#&;2&$*#1>3,%:>3:&,<375<=48*$&,2#:2&&&$&*$&&*$$$$195,420*&>3>=&&<1,=$<*1,X%4%1<o*;;676467-<1-.$&$&&&&&$**<<1$&*$#$$,<2442423",
"682*&&*<&*&&:,3,,>:,>$=24842247>#2,2:,:#X&&$&##*$**+$1981440,&:,*&&,1<<,=<*2< %1#,1$*;;2662271<**.o-$&&&&$$*;11<$$*+$#&&<<442327",
"662<$&,7=,$>,>3:::,3&#,24741;57*#<>4#>4,$*$##$$&$$*#$<88,559:,,:=&&=1<2,&=$<,##1#1,#&;;626;66;-;-+++o**+$*$=*1==$&:#$<$&;2242447",
"662,$,$==>#::>33,:>,>$*26942<50&%<,4%>::o*o$$$***$$#$,881449<$,1*&#,1,<2&=*1*.:2%,1+*-;7662262;2&$&-$$&$$=&*1<11$$$++$<*=1264447",
"682<$#<*$=:,,,,3::11>&<2692<<47&$2*4%>,:$*$**&&*$$=#>195,549<*1,=&&*<,,=&=*=>O%2:12O--;6722672-1$o+-$$-$$=$=<<1<$*#+$+<*;,264687",
"982*$,,2&&::,,,,%:12&$,2644<250*+=&<%:>>$*$$*$$&$$&#&,881549<*2<2&&,<,*=&=$2>##2#15+-;;2666262*<&#*&$o$$$-&&<,2-$*##+*&><-274847",
"674$$1&2$&$&<,>>%:53:>,27661156*+,:4@,*&o*$$$#*-$$*$$1981447=**,2=&<2,&*-;*2&X%5#,,O&=2474246;---o&*$o$o$&$$<<2<$&+$#**=&<267857",
"882=$;&2&=&*<>,3>:13>%&59622256>#>:3@&;%#**$;$$-*$<$&,88,4472&&=2&&,<<,<=&&1=X%1:,<@*<;6462676;;$o$;*-**$-**2=21&&#$#&=,&<287877",
"862-#&&6*&#;1::,::83%:>29451286&#,>,%:*%#$*&****$$<#><881447**%3*=**,*<*-&&1& &,:1<#*-2664;466-;-$$--$$$$-#*1*21&-#+$#=&,<278777",
"662=$*,<X&$*>::,:,33:+$2964-286&$<:5%%*#$**$o$-;$$&#><881547=#*2&*&=<=,,=-$-=$@,:2:+*;3467447;;;*$$-&$o-**$*1-22$*##o#&&*,157877",
"462=$-&=><#1,>>3%%43:*$29441285$#;#3@%,#o****$*-&$<$>1882539<&&&<,&&<,<&&-$=>@#2&-*o*;4666246411oo-*$$o*$$#&--6***##&**&*=<48779",
"882=$,&=+>#>,,%1@%1>:#&28841284&$&&1@&,#$$o*****&$,$>1851550;*#,1&&*1<*<**o;>#:4$;*#&;;4644662<,$o*-*o$$$&$-;*21$-&+&*==*<148898",
"861&&&&<+:#>,::2::44&#&2782<294>#&%>&#*o*$*#o**-$$&&:,981549=&&3&;&*,,=*&1$=*:#4*2*&;;446626621-.o-$$*o**$o&-=21**+#+&<=&,<48778",
"482=$$=2,>%>1,:1%:21>&&2752<292&#,:3*$*$$$#*o$*-$,>#>,881530=&*;*=&*1*,*&*+=,*&1>2-&-;446642722&o$-*-*o$&&$*;=11**+*$*,,*,,58899",
"682-$#$,*&#<<>:1%:,2:::1882,284&#*>>%:,#+&*$$*=-$$>$*&781550,#%=*;*&1,*1&*$*$**<:5&#*2247744822=.o*$*=o$&&#&<>4<<*$$$=,&-1<68878",
"682,$X$=&1+<<:>1@%21::%2852,482&$=%2:%:O**$&-**-***$>>881440,@&2=-&&1>-<$-$-&$>2,1&#*=42666482;-. ;&$<+#$&#&<&2<<*$$$=1&&=148887",
"482=&+&1$:$12&:1%%12%$%2854<482&#&,4:&>#***$$-&-$&-+*<692440*&&*1&&=1*2&$&$-*:&2><*$=146666662<*$.*$*&o$&$##<,21<*X+=&-,*-,27878",
"884&##&;$:$<&&&1:%1>>$:1884149<&$=&>:>&$**&$$-*<&$*$<>283440,%o2;*,,<****-$&*>:1:>&&=1444744821=$o-;**.<&&$,<&1<<$#>&;2<>-=26498",
"882<o$$;+>$&*::>::22:::1852<29<*#&>>#:##&<*#$-&***&$><982437=&#==&*-1&,&$=&#**&1,,>#*;646648821&$#-$$>.$&$+*,,1<<&$$>=<&,*<27498",
"892=$#$=&<#::%:2::,1<+$1852<89<$&::>:,&&*>*$O&$=&$<$$,882557<&#*2*=&1&<<&=#&&,:1,2&#-;266748731&$+-*+- $>*$$>,1,<*>$11<&<*,28688",
"482=&.*;&:$**::>%:2>1+$1851<59<$&&#,:&&$>&*+#$$=&&-#&,661440<%@2-*-=<$,&$&$$:>>,<,=$=;67744684;=$+&2$,+&>$$$,<2,1$&>&,<=2&<28688",
"48;=&&&;$:$&<$:<::1><:&1882<29<*%&:2&>##<&<$$*$-<**$$,682547;+o<2&;-,,<$&-$#&,:><<*$*14768446;2=&*$&$<+&&&$$>12<1$$&&=<&,*<14688",
"851*#.$2=<&>:&:>%:1:2@+12022202$&#,,*&**,*;$$*$*$&<$&,86<8472#.*<$<*<,&&$&#$&;-211:#&1279855662&&&&-&*o&**#$1222=$,:=2<**&,24485",
"881,$$&;$&:>>&::::1:1:%1222120<*&=:,%<*#,*<&&&+==<<$$-761457<$X4&$<<,,=$*&#&&;>2>&,$=2678288821&*&&-&*o#*$#&<<21&$&:<2<$==<<2688",
"59<*+o&;$1,>>#,1::2:<+$<821120<**:11>>$&1=2&+&o#&*<$--722429,$+=;$,,-,**&*#$>>:4,>1&&227882862<*&&&-$&o->*$$&<22<$$,1=*$<=122485",
"582&o$=2:,$::#%<>:2:<$$>222129<$&#,,*;##2;;$&,o#*&&&*-661429=#O;2$<-1*,$&&#o#1:2&&-$&1279588821>*&$-#&#;&&$&<<24-$&,;-1&1&<14884",
"482&$+&=>,1::::1::<:<%$>0221201:&&:,#4&&2;;&$=$=---*$*6624291$X*=$-2<,>&+$#$+1:5,&&$&220884526<<--&2$-+$1,$&>222*#1<&1*$2*<11858",
"582&$+&&,22,:#:1><1:2O:1281<22<:*&:%#,&&2=2$X&o&$&&&*=7614261$+;2$<,2<*>$=#+&:,4,$&$:147885586<&-&$-$&$$&&$&,<42*#&,<1&-2&;22558",
"481$$$,*>1,%:&11>:1:2%#>852155,:&,&1:=#&2-2o.1#$$=***=621627<+#-<$=,2<&$$&+$%,:2,O,$&<27755582><**$1$*$;=$$&,<24,$$,&==&,&,<<748",
"281&+O#$>12::#<<1:>:1%#>8211521:&*:1*,$&212$$&+$&**$**661627<&+1<$<&2<<&O=#:#,%1,$&$>127884882***$$-$-&*<&&&,,221+>,&2$=2&=2,545",
"282$$$*$152#1$&<>:>:,#+,852244,**::,>=#&8;;$#=$#o*-&&*7216162$o&<$,,2,,-#&X#*-<,>+,$>129944864=&<&**$$$*=$$&,,24*$>>>=*&=&-2;844",
"221*$$$$,22%>&,$>:>:1.%,851<42<<&,>1&&&=3;;$X;o&&*****76;428<$X==#&15<,&X=&#&;:1&+=$,<20885594,>-*&2$*$*&&$,<<42>+&:&<&&2&&11748",
"882$$$*$,21::$$<>,2:,##>581282=<*>>1*<$*4;2$o*X*#***--741647-=X2>$=,2<<&X=#$#,%,&+,&>129854598<,<$**$$$$&&&=<242,&>:==&$;&;-,844",
"281$$+&$,21%>$>>:#2,:@+>55<284,<*&:1<<#*8;1Xo2#&&-**&*74;226,-.*$*$=4<<$#&#$>,:,<#&&&<297545882<*&$2*$$&&&$<><42&&,><;&-**=11259",
"28<>:$*$:2,%:$+$:&,:1@@>85=482<&*:&1&*#=4;2o#=#;*--&-;722627=&&=&$><2>1$#&$+#4>:&+<$,229884880<<--&1*$$<&&&-*142=$2>2&&&<*,=1248",
"291><&$$11,%>$#:,:>4>.#:55,482<,*<&:&&&;4;-$&*&&&&-*&*64;227;&$;*$**2<<$$&&$:,,:&#,&>1278884771>*&*2+$&&&$&;*142&#,$4<$=2&*11288",
"58<>:&::25,%,:++&%,,<@O&55<482=&&1&><&&<81;o#=%*$&-&**74;4262*#<*$*>2<<&$&$$:1:,,+,$>1278455901&-$*2#+*$&*&,,282$$1:<2&==&&1>245",
"251,:$>:12,%:$#$&@33:..*84=382,#*&&1*#&;82;o&=o&o*-*-*74;427,1&<&$*>21<$#$=&$,:%$#&:<1298884871,-$*1$+$$#&*1,18<$<2><*&<;&*<<258",
"281,:$&$52,%,::$#%,3,.@:44<482,#=2&&&&&28=*o&,&;#*--==622248;-#<<&&<4<*$$o-&&*$&&$==,1298885972**$$-&@&&#&,1128<&&:>=-&&<&*<2<85",
"281,&=&$14,:,%#+&%:4%@@&85,464*$&,#**+&181&X#<&*&&;-*=74;448;2O&,$><2<=$#o;$&&*$&$=&<1298884871=*+*;&#&&&&*1<17,#:<>2&&&<=*21288",
"2821&=$$8>:%:>%&#X#1>+#&85<444=+;=#&&+&47==.&3&;#*--<;72;4481;$=<&,22<-$X$$$&>&$&$=><149788580<,*$*2#&&$$$&1119<=$<,;=&;=&&<1,78",
"152:#=&$33:%:1#:$&%8:.@&68,684&$&$$$&#&40;###&*1#&--<<74;34811#&<&,<41*&##;&*&:$&#,<11497585872,&$$<$#,=$&-1<<9&,#&,2&&&=$**1188",
"442=#*&#51,%*&**#%%1:.#>84,482=$&&X#$#&471&.@,:=+*>122842347;3&&,&*<32=$=o;$=&=$&&;,*2477855892=*$*-o+&&&&*<210>>#,>2$&&*#&<,,78",
"482=&#-$3:@>,=%&X&,1:..>48=242>#-&+#$#&67;&#%1&*&&,<<184<348,2::<&*14<&&o$-$&1>$&&*<=;879585892;&#=;@&&&$&&=129,&&:,1*$;*&&,1178",
"582=o=*$31%::,&&+#,:#..&26,862=#=$$+$#,772&##&&,#&,<,3752147<2&&,#*462*&&o;$&,#$&*><<2577584878<&#&-##,*$&--229,,>1,2&=<;#&,1<07",
"282=#;$&3:@@:,&$#&:3>@$&46,484*$=*=+&#=70;&&&5&2$&,2,1741337<;,&*&&222&&-#=&&<$#$>,1>2578554604;-##;>$$:$**;110<$%,,<&&;=&&,1178",
"582,o*&#2=%>>>%###=4&#o&45*862&#-&*o#$,662*$=<<>#$,<14843348<2&,*$&26;&**o;&$;&&$*2<11578845574*&+<*$:$&$$&,120<>:<,***<*$$><196",
"542<&&$&2:%:%>>#o&&,&#o*44=864&$*$*+$*,881$+&2*4+&,1,275;148*2,,***36;=*;&;&--&o*-*223478555873>-O$:$%$&#<&<220&&#:2>**<*$*-<267",
"582=$-&&*:@:#2:$o*%=%%.*45*883,$*$&$$$<892$$&*><#&,1,3851,48,<#:*%*28<&&##;*;$$$&;;2;2478855574>&#$*$#$&$&&<120&%%1221*<*$*<<129",
"482<#-&$,&%@:::@#&&3&%$&44*884,&*-&$$*186<-*<&,4+#,2<2851238>,>,*&*302&=&&6&$-$&*-;;22688855874&*$<>%+$>&$$,160&$:>1*<*2$*$*2249",
"572&$&$$>:%:%>>#o&&;&&#$44*854*+&*$$$*2981&-,&&4#$>22<843<48,=>:*=&473*&*&;**-$*&==123478544873&*o$*&#$&&***240&$%,1>>*<$$&11169",
"484=#=#&%>:%%>1#%*&=&&o#48*885=$-*-$$-2882&=,&,1.$><22851257&*:,$+&472&&&X;$&&&*=<1,2;688845675&&$$*$&#&&-=;<60$>+>2:1*<$$&&<149",
"584=+&&$1:%::>2+@&@1*&&&44=884=#**$$*-2862&3,,,3@$:112841<48*,*,*#*574,&&.;*&-&*&<2;43474555875**$*$$&+=&=&=220&:#,1>2::$$$=1129",
"584=$&&$:>::%>,O#*&:,&&&46=764=$--*$$19872*=*,#*@#>112553158==&4**&574<&&#-*&*&&*,2;;;488555575*<+$*+&#*&&-=<60$$$1>:2:>$$$,<129",
"822>$-$#%>:%%>1%$=&>+&#&26,885,$***&&18972&-=&&2.$&122553249,,>3,&&505=&$ 3&$&&*=,<>;1564545475*-$&$$$#$&*;=;49*:%>>><$*#.&<1227",
"886<$-#*,:%:%:1+$*#&&*&&25,884,$-**&&18872*2$#&<@$=127854<47>,,>>=*8751$*X;*$-&-,*2&22466444574**$-$$$$=*-;*;40&$@:>$2$=o$&&<129",
"886<$*$*:::@%%5%+&#>,&&#28<862<#*-&&&28871*1#,>>#&&127854,48&*>1;;*878<&$o;=$**1&<2&;;248555305&;#-&#>#$&-&=147=>%:>$1**+$=<2<<7",
"267<#*$$>:@:::1@#= >,+%#24,866<><**&&24871*-$&>,$$<228854<57&*,,=$&805<$*X=&$*&&&,<>;;665445575=*#&*+$#$&1-$;47&*#:,&6*&#$&-,<57",
"588>*:*$>:>:%:2OX;#:&&*#<81882<$1**>&48891=1$><1$$=228444<47&>&,**&775<&*#;=&**-&>1&<>365444558**$&1#$+,2&;*<22:$::>=2&*oo&*,237",
"856<:#$#:::%%%1%&*o&,#&$15<892<,--*&&28902,&$$>,##&229984287**,,**&775,&&#;&#,&=&,<<=>268535585=*$;<#>+>=-=$188><>#>&2*<+&***<48",
"859<&$&%:>::%:,%%*+#&*;#,52562**<<*>,68922><#,$,&#&148852147>&:311&5081$&#&;$**1*,=,*&2555445852<&>&$$+>&*<&<82>>::,$1=<#&*&*,28",
"5891#:&%%,1%:%:+*&#&&&&&182582>>2-$>,98742&<$:$1,#,257855157:&>:,=&7072#*o-=$,=-&&,&&&<58434474;-&<>+%#14&<:,22#:>1%,=*;#=&,<=37",
"629<&>+>::3>::,::>O:$$$:<22202212&$,<78882=&+:&1$#,179982147*&#>,*&8784#*.#=#=;=*><**&2454344742=&&-+&O1,*=#<62&*>:#$2**+-**><29",
"580<&&&&%:::::,::1O:#$$$222022,<2,**<98942&*$&>2&#=199824247*$:11=#5871#=#&2$12=#&<*&&;655344731&$1=##.,*;-$=42&=,:,$1&1+$$-<<29",
"5472$*#$::,::3::%<O:&$&*222222<1<*&;458742-*+,>1,+&199854;60*o<>,2&8871#&o*<$<;&*>**&*;88444484;<&=<###>-&=#;22&1,::+*&&*&2&>,20",
"8591&$$&%:3::%>:+< :&*$$122220,,2<&1488742=$##:1$#&<98926;40$$::1*#7702#=.$=$,4-&&=&&&=65535574=-=&1$$+:=-&$=42&,::1*1-&$**-$,29",
"7472*&#&O:::,%>,#2 >>>##252800212**2887722<$$<>2,+&,89825;40%:>,,<*8874&*#&;#$=<=&&=$==885154742,&$=%##:===#<4<&:2:%%1&=$-=$><29",
"557;*&$*%33::>:1:< ::>&#,5222012<*&2748722,&#>,1&O&>88955;37&%,%4,&8872&*#&==&2-&*<=&>,88433363;*-**$:+><-=$221$>,:,$1,&$&,=&<14",
"7583*##& ::3,,:1+> >+&$$222820213*=4857722,&$,#11.&,88954150&#,,3,#8572&*.#1=&2==&,,=*1555343741-$*2#&+>&&&&<41,,4:>#<&&$&-&&<24",
"848;*&$$%333:,:2%: ::*$*,8228822===4847622<&*$$1&+$&89854258&&111<#7572&*X#=$&==$&$=&:,555155832=*&&&>$&&=*&&42*<2>:$,><<>&$>&26",
"5582-*$&X22::::2#1+$#$$:252250221,25777432;$*,&=<$*$29854148#@:,11#8572&&$o1&$2==$=<&=,84424582<&&*-$&#<:&&$=2<*22%:$1*&$>$&&*26",
"8452&*$$X2:,,,:2#< *+:#$28225052<21557742;2&&1*1<+$*28854159&#1,&,#7871&&+X&=$41&&&=<&;888248712,&&*#&>$&$&$;21*1<>:$**&#**<*&14",
"8583&&$&%11>,,:1><+*$<+#,8,22955;2265743;23#&*%1>+$*29852159$&>,:1#8881**..,$$1,=#&=&&,75334571;==$;$:O>&&&#*22&12&>$<&=$*-$>&16",
"7571=$&&@>,:2,%1%2+>+$#&,82288552;26575322;&&&&*<$$>28854<59#:>21:#5882,&##=,$1<+$1-$$<888348832<--*$&#*,#;&=21=11>$$1*&*&**&=24",
"7582&&&&%4,:,,:5>1O,&&+:,8125855;6478662;1=&&#&=<$*$29844129$&>,$*#486;2&##==$2;&$&;&&17483888<<1<*=$$#>&$*&&4<&,5%%$-*=#=<<>-22",
"8882&#&=:2>1,:,1,$O&#:#+182188083446862312<&$&&&<$*$29822;49$=:2>=&8882;&#$&,&;2#$-&$&-76534574,<,=&#=+>$=2$=2;&11>#$*&-*&&&>>22",
"8882&&#1%2:,5,,:12#*#<%%,8228808;668733;21<**&&&<<&*28544-47$*&1:*#5884<>##==$;;&#-&&#;78544882,<===$$#&+&-+&2;*1::#$*<*$*<-*&22",
"7582=$$2%24%1:,51<$*O1#@,822588846847231<12&=*&*1&&$29522166$=>2,>#87742&&$&*$;;&&&-#&188545542=1=$-$>+>$$=+=2<&4,:%$=<;$$-&-&12",
"8882$$+=:3,,,::32:#&#;#$;713477727882211<12$;$=&=&*&35544159#1:1>,#8888<&&$&;&&=$$-&$$188828442*1<=-$#$&$*;$=3=*6>##$*;-$&&---;4",
"9582**o1::,:5>>51,>-&;#*,81258806744221,111#*#*&&*&$28544<47%111:>#87872&#$;==&1$$*&$$<88848842,;*-1#:#&&$*#=<<*>&%#$-1-&&*-&&;2",
"8861=$$2:1,%8>:3,1+&$;#$=812887078442,1,<<<$*$%&&=&$,5542=47$*::,&#7887<,+&*<&-&#&=&++<86848842,1<&-#$#:+$;&&22$2:>+#&1-$&--*&22",
"9482>$#<>1,:5,:3>2&$*;$$=81,588887862=;=<11$;%#=&=&#,5552=47%&>1,<#5787<<&&$&,&&$-&=$$<98848842,<-&$$:##$&=#&<<#1%>%$&<*&$;&=&;2",
"8561>##&:3:,53,3#,$*#*&$,73,5877774811<&<,<&*&&&$&#$18452;47#<,51,$87872*&#$<*#,$$-<##,88654841=,<;=$$$+$><$,<<>1,>O$,12$$-$&=<2",
"6691<$#1:>,,5>>3>:*&&*##,73<57888447<1,>,<<#,*%,*=##18543;47%<&54,#8777<*&#&>$=*+=<<#$<87448842=<<1&+:#:#&1$&1<&>:>OO>1=$$2$&=;1",
"9582,#%,:::33,,:,:&&&;&*151,88886868<<<&,&1#;o=&=-&$<8422<49&1:1,:&58792<$&&>#&>+1<1#$186854842,;1=$#>$*+$=$$<<=1%<#$*<-*$*$&&12",
"9491>#@:%33:3,,3,::*&;&$,72158884866,1<$=,<#<=,**=$#<8844=27:,:33,&87771<$#$&&$*$1,,##<8645853;=1;=&#$$$$*-#=<1&2#>$+,1&*$==&=11",
"8882>$O;%:1%31:31>=&$2$&,83,48874856===$&*<#;#=&**$$19542,47&<>12<$47782<&&&***=$11,$#186544642<1;=##$##$*2$$=2&1:>O&-;&&$&-&-21",
"8894&$$*&:>133,,:&<&$=$&182=55586484*=&#=*,&;&&2&&#$19522247:,,,1&&47782,#&&-$=;$:<1##<88888851<<<=#+&&%#&;#$=1$2#>.&;4**&=&$<<1",
"688<&$$&:,,:3:%31,&&&*#&183245884592*&&$=&*#;&22$*#&18822<57$<>,,>#47774,$&&*$&;#>21*$1995546411<2=&#&=#$=<#&,=*<:<X#-4$&&&*&*22",
"6291-+&&>>,>33,,3,;&;;$&173;45854492&*&$<,;#*=31$=#&28522<40#>:>3::4707<<$&&*#$1#>2,+#108848821<,<*###>.#$1$*<<=,#=.&;;$;&*-*<<<",
"8822-o$*&&:>9,,:5,,&=&&&<83=4588527<;$&$=,=$;&=<&&&&14522=<0%&:3>:&27771;$$=&#&,$<2,&%188858622<=,=#$&&O#<<$*1>=,#:#&;4&,***&*21",
"9892-#+*::118314,1%#**$&<84=24552651*$$$&&>&=&=1,<#,,852,=40&:>,1#>24072;**&*&&&#<11#&179454921$&=-&$$<$+><$$1&&%#1#&46&**=*#,11",
"9661*+$*%%>3,,,,,,,#<2&&182*3555582=&-$$*>,$;&=1=<$&1852=,57%&>14&#44772;&&$,&%*$,24&#<8854582<*,*=#&#,.#$<$&<,=:+>%&23;*&&,&111",
"9272*$$$>:,:33:3:,>#**&&184;2488292=-$$$>&=$1&1*&<&,,542;240#&::1&&247822&%&*X%1#*23&&<9984892<*>&-&$#&&##<&&>,&>%1#&24&$%&=&<11"
};
